<?xml version="1.0" encoding="utf-8"?>
<!-- Generator: Adobe Illustrator 19.0.0, SVG Export Plug-In . SVG Version: 6.00 Build 0)  -->
<svg version="1.1" id="Layer_1" xmlns="http://www.w3.org/2000/svg" xmlns:xlink="http://www.w3.org/1999/xlink" x="0px" y="0px"
	 viewBox="0 0 80 160" style="enable-background:new 0 0 80 160;" xml:space="preserve">
<style type="text/css">
	.st0{fill:#B2D3DF;}
	.st1{fill:#006E96;}
</style>
<g>
	<g>
		<g id="XMLID_30_">
			<path id="XMLID_39_" class="st0" d="M40,83c20.4,0,37,16.6,37,37s-16.6,37-37,37S3,140.4,3,120S19.6,83,40,83 M40,80
				C17.9,80,0,97.9,0,120s17.9,40,40,40s40-17.9,40-40S62.1,80,40,80L40,80z"/>
		</g>
		<g>
			<g>
				<path class="st1" d="M52.9,108.6c-8.2,0-14.9,6.7-14.9,14.9c0,8.2,6.7,14.9,14.9,14.9c8.2,0,14.9-6.7,14.9-14.9
					C67.8,115.3,61.1,108.6,52.9,108.6z M52.9,134.9c-6.3,0-11.4-5.1-11.4-11.4s5.1-11.4,11.4-11.4c6.3,0,11.4,5.1,11.4,11.4
					S59.2,134.9,52.9,134.9z"/>
				<path id="XMLID_27_" class="st1" d="M50.1,128c-0.1-0.3-0.3-0.4-0.6-0.4h-1.3c-0.3,0-0.6,0.3-0.6,0.6l0,0.1
					c0.4,2.1,2.1,3.8,4.2,4.2V130C51.1,129.6,50.4,128.9,50.1,128z"/>
				<path class="st1" d="M54.2,122.2v-3.7c0.3,0.2,0.5,0.5,0.6,0.9c0.1,0.2,0.3,0.4,0.6,0.4h1.3c0.3,0,0.6-0.3,0.6-0.6l0-0.1
					c-0.4-1.6-1.6-2.8-3-3.2v-1.2c0-0.4-0.3-0.7-0.7-0.7c-0.4,0-0.7,0.3-0.7,0.7v0.2v17c0,0.4,0.3,0.7,0.7,0.7c0,0,0.1,0,0.1,0l0,0
					c2.5-0.4,4.5-2.5,4.5-5.2C58.1,124.9,56.5,122.8,54.2,122.2z M54.2,129.8v-5c0.9,0.5,1.5,1.4,1.5,2.5
					C55.7,128.4,55.1,129.3,54.2,129.8z"/>
				<path id="XMLID_24_" class="st1" d="M48.5,120.1c0,2.1,1.5,3.8,3.4,4.3v-2.5c-0.6-0.3-1-1-1-1.7c0-0.7,0.4-1.4,1-1.7v-2.5
					C49.9,116.2,48.5,118,48.5,120.1z"/>
			</g>
			<g>
				<path id="XMLID_23_" class="st1" d="M47.7,100H19.7c-1.2,0-2.1,0.9-2.1,2.1c0,1.2,0.9,2.1,2.1,2.1h28.1c1.2,0,2.1-0.9,2.1-2.1
					C49.8,100.9,48.9,100,47.7,100z"/>
			</g>
			<path id="XMLID_22_" class="st1" d="M45.1,106.8H19.7c-1.2,0-2.1,0.9-2.1,2.1c0,1.2,0.9,2.1,2.1,2.1H39
				C40.7,109.2,42.8,107.8,45.1,106.8z"/>
			<path id="XMLID_21_" class="st1" d="M37,113.6H19.7c-1.2,0-2.1,0.9-2.1,2.1c0,1.2,0.9,2.1,2.1,2.1h15.2
				C35.4,116.3,36.1,114.9,37,113.6z"/>
			<path id="XMLID_20_" class="st1" d="M34,123.5c0-1,0.1-2.1,0.3-3.1H19.7c-1.2,0-2.1,0.9-2.1,2.1c0,1.2,0.9,2.1,2.1,2.1h14.4
				C34,124.3,34,123.9,34,123.5z"/>
			<path id="XMLID_19_" class="st1" d="M34.4,127.3H19.7c-1.2,0-2.1,0.9-2.1,2.1c0,1.2,0.9,2.1,2.1,2.1h16.2
				C35.2,130.2,34.7,128.8,34.4,127.3z"/>
			<path id="XMLID_18_" class="st1" d="M37.4,134.1H19.7c-1.2,0-2.1,0.9-2.1,2.1c0,1.2,0.9,2.1,2.1,2.1h22
				C40,137.1,38.6,135.7,37.4,134.1z"/>
		</g>
	</g>
	<g>
		<path class="st1" d="M52.9,32.1c-6.3,0-11.4,5.1-11.4,11.4s5.1,11.4,11.4,11.4c6.3,0,11.4-5.1,11.4-11.4S59.2,32.1,52.9,32.1z
			 M51.9,52.4c-2.1-0.4-3.8-2.1-4.2-4.2l0-0.1c0-0.3,0.3-0.6,0.6-0.6h1.3c0.3,0,0.5,0.2,0.6,0.4c0.2,0.9,0.9,1.6,1.8,2V52.4z
			 M51.9,38.3c-0.6,0.3-1,1-1,1.7c0,0.8,0.4,1.4,1,1.7v2.5c-2-0.5-3.4-2.2-3.4-4.3c0-2.1,1.5-3.8,3.4-4.3V38.3z M53.7,52.5
			L53.7,52.5c0,0-0.1,0-0.1,0c-0.4,0-0.7-0.3-0.7-0.7v-17v-0.2c0-0.4,0.3-0.7,0.7-0.7c0.4,0,0.7,0.3,0.7,0.7v1.2
			c1.4,0.5,2.6,1.7,3,3.2l0,0.1c0,0.3-0.3,0.6-0.6,0.6h-1.3c-0.2,0-0.5-0.2-0.6-0.4c-0.1-0.3-0.3-0.6-0.6-0.9v3.7
			c2.3,0.6,3.9,2.6,3.9,5.1C58.1,49.9,56.2,52.1,53.7,52.5z"/>
		<path class="st1" d="M40,0C17.9,0,0,17.9,0,40c0,22.1,17.9,40,40,40c22.1,0,40-17.9,40-40C80,17.9,62.1,0,40,0z M19.7,20h28.1
			c1.2,0,2.1,0.9,2.1,2.1c0,1.2-0.9,2.1-2.1,2.1H19.7c-1.2,0-2.1-0.9-2.1-2.1C17.6,20.9,18.5,20,19.7,20z M19.7,26.8h25.4
			c-2.3,1-4.4,2.4-6.1,4.2H19.7c-1.2,0-2.1-0.9-2.1-2.1C17.6,27.7,18.5,26.8,19.7,26.8z M19.7,33.6H37c-0.8,1.3-1.5,2.7-2,4.2H19.7
			c-1.2,0-2.1-0.9-2.1-2.1C17.6,34.6,18.5,33.6,19.7,33.6z M19.7,40.4h14.6c-0.2,1-0.3,2-0.3,3.1c0,0.4,0,0.8,0.1,1.1H19.7
			c-1.2,0-2.1-0.9-2.1-2.1C17.6,41.4,18.5,40.4,19.7,40.4z M19.7,47.3h14.7c0.3,1.5,0.8,2.9,1.5,4.2H19.7c-1.2,0-2.1-0.9-2.1-2.1
			C17.6,48.2,18.5,47.3,19.7,47.3z M19.7,58.3c-1.2,0-2.1-0.9-2.1-2.1c0-1.2,0.9-2.1,2.1-2.1h17.8c1.2,1.6,2.6,3.1,4.2,4.2H19.7z
			 M52.9,58.4c-8.2,0-14.9-6.7-14.9-14.9s6.7-14.9,14.9-14.9c8.2,0,14.9,6.7,14.9,14.9S61.1,58.4,52.9,58.4z"/>
		<path id="XMLID_1_" class="st1" d="M54.2,44.8v5c0.9-0.5,1.5-1.4,1.5-2.5C55.7,46.2,55.1,45.3,54.2,44.8z"/>
	</g>
</g>
</svg>
