<?xml version="1.0" encoding="utf-8"?>
<!-- Generator: Adobe Illustrator 18.0.0, SVG Export Plug-In . SVG Version: 6.00 Build 0)  -->
<!DOCTYPE svg PUBLIC "-//W3C//DTD SVG 1.1//EN" "http://www.w3.org/Graphics/SVG/1.1/DTD/svg11.dtd">
<svg version="1.1" id="Layer_1" xmlns="http://www.w3.org/2000/svg" xmlns:xlink="http://www.w3.org/1999/xlink" x="0px" y="0px"
	 viewBox="0 0 50 100" enable-background="new 0 0 50 100" xml:space="preserve">
<g id="XMLID_386_">
	<g id="XMLID_332_">
		<path id="XMLID_292_" fill="#D9D9D6" d="M21.7,60.1h6.5l4-3.8c1.1-1,0.7-1.8-0.8-1.8H18.5c-1.6,0-1.9,0.8-0.8,1.8L21.7,60.1z"/>
		<path id="XMLID_291_" fill="#D9D9D6" d="M27.9,61.5h-6c-0.4,0-0.8,0.3-0.9,0.6c0,0.1-0.1,0.2-0.1,0.3c0,0.5,0.5,0.9,1,0.9h6
			c0.6,0,1-0.4,1-0.9c0-0.1,0-0.2-0.1-0.3C28.7,61.8,28.4,61.5,27.9,61.5z"/>
		<path id="XMLID_334_" fill="#D9D9D6" d="M39.2,79.1L39.2,79.1c0-0.1,0-0.1,0-0.2c0-7.8-6.3-14.2-14.2-14.2
			c-7.8,0-14.2,6.3-14.2,14.2V79c0,0,0,0,0,0.1l-0.5,11.8c0,0.7,0.4,1.6,0.8,2.2c0.4,0.6,1.2,1,1.2,1c0.5,0.2,1,0.4,1.6,0.4H36
			c0.6,0,1.2-0.2,1.7-0.4c0,0,0.9-0.5,1.4-1.3c0.3-0.5,0.5-1.2,0.5-1.9L39.2,79.1z M23.4,89.8c-2.4-0.6-4.3-2.5-4.8-4.9v-0.1
			c0-0.3,0.3-0.6,0.6-0.6h1.6c0.3,0,0.5,0.2,0.6,0.5c0.3,1,1,1.9,2,2.3V89.8z M23.4,73c-0.7,0.5-1.1,1.2-1.1,2s0.4,1.5,1.1,2v3
			c-2.3-0.7-3.8-2.6-3.8-5c0-2.3,1.6-4.3,3.8-5V73z M26.4,89.8v1.7c0,0.4-0.3,0.7-0.7,0.7c-0.4,0-0.7-0.3-0.7-0.7v-2.3v-2.7v-18
			c0-0.4,0.3-0.7,0.7-0.7c0.4,0,0.7,0.3,0.7,0.7V70h0.1c1.8,0.6,3.1,2,3.6,3.8V74c0,0.3-0.3,0.6-0.6,0.6H28c-0.3,0-0.5-0.2-0.6-0.4
			c-0.2-0.4-0.4-0.8-0.8-1.1L26.4,73v4.7h0.1c2.8,0.7,4.8,3.2,4.8,6C31.3,86.6,29.3,89.1,26.4,89.8z"/>
		<path id="XMLID_286_" fill="#D9D9D6" d="M26.6,80.7l-0.1-0.1V87l0.1-0.1c1.2-0.6,1.9-1.8,1.9-3.1C28.5,82.5,27.8,81.3,26.6,80.7z"
			/>
	</g>
</g>
<g>
	<path fill="#20D4AF" d="M18.4,4.5h13c1.6,0,1.9,0.8,0.8,1.8l-4.1,3.7h-6.5l-4.1-3.7C16.5,5.3,16.8,4.5,18.4,4.5z"/>
	<path fill="#8FE9D7" d="M28.9,12.4c0,0.5-0.5,0.9-1,0.9h-6c-0.6,0-1-0.4-1-0.9c0-0.1,0-0.2,0.1-0.3c0.1-0.4,0.5-0.6,0.9-0.6h6
		c0.4,0,0.8,0.3,0.9,0.6C28.9,12.2,28.9,12.3,28.9,12.4z"/>
	<path fill="#20D4AF" d="M39.1,42.7c-0.4,0.7-1.4,1.3-1.4,1.3c-0.5,0.3-1.1,0.4-1.7,0.4H13.9c-0.6,0-1.2-0.2-1.6-0.4
		c0,0-0.8-0.4-1.2-1c-0.4-0.6-0.8-1.5-0.8-2.1L10.8,29c0,0,0,0,0-0.1c0,0,0-0.1,0-0.1c0-7.8,6.4-14.1,14.2-14.1
		c7.8,0,14.2,6.3,14.2,14.1c0,0,0,0.1,0,0.1c0,0,0,0,0,0.1l0.5,11.8C39.6,41.5,39.3,42.2,39.1,42.7z"/>
	<path fill="#D2F6EF" d="M26.5,27.7L26.5,27.7L26.4,23l0.2,0.1c0.4,0.3,0.6,0.7,0.8,1.1c0.1,0.2,0.3,0.4,0.6,0.4h1.6
		c0.3,0,0.6-0.3,0.6-0.6l0-0.2c-0.5-1.8-1.8-3.2-3.6-3.8l-0.1,0v-1.5c0-0.4-0.3-0.7-0.7-0.7c-0.4,0-0.7,0.3-0.7,0.7v17.9v2.7v2.3
		c0,0.4,0.3,0.7,0.7,0.7c0.4,0,0.7-0.3,0.7-0.7v-1.7c2.8-0.7,4.9-3.2,4.9-6C31.3,30.9,29.3,28.4,26.5,27.7z M26.5,36.8l-0.1,0.1
		v-6.3l0.1,0.1c1.2,0.6,1.9,1.8,1.9,3.1C28.5,35,27.7,36.2,26.5,36.8z"/>
	<path fill="#D2F6EF" d="M21.4,34.5c-0.1-0.3-0.3-0.5-0.6-0.5h-1.6c-0.3,0-0.6,0.3-0.6,0.6l0,0.1c0.4,2.4,2.3,4.3,4.8,4.9v-2.8
		C22.4,36.4,21.6,35.6,21.4,34.5z"/>
	<path fill="#D2F6EF" d="M19.5,25c0,2.3,1.6,4.3,3.8,5V27c-0.7-0.5-1.1-1.2-1.1-2c0-0.8,0.4-1.5,1.1-2V20
		C21.1,20.7,19.5,22.6,19.5,25z"/>
</g>
</svg>
