<?xml version="1.0" encoding="utf-8"?>
<!-- Generator: Adobe Illustrator 18.0.0, SVG Export Plug-In . SVG Version: 6.00 Build 0)  -->
<!DOCTYPE svg PUBLIC "-//W3C//DTD SVG 1.1//EN" "http://www.w3.org/Graphics/SVG/1.1/DTD/svg11.dtd">
<svg version="1.1" id="Layer_1" xmlns="http://www.w3.org/2000/svg" xmlns:xlink="http://www.w3.org/1999/xlink" x="0px" y="0px"
	 viewBox="0 0 50 100" enable-background="new 0 0 50 100" xml:space="preserve">
<g id="XMLID_386_">
	<g id="XMLID_320_">
		<path id="XMLID_285_" fill="#D9D9D6" d="M36.5,64l-10.9-8.3c-0.1,0-0.1-0.1-0.2-0.1c0.1,0,0.1,0,0.1,0.1c-0.5-0.4-1.1-0.5-1.7-0.5
			s-1.2,0.2-1.7,0.5c0,0-0.1,0-0.1,0.1L1.6,71.4c-0.6,0.5-0.8,1.4-0.3,2.1c0.5,0.6,1.4,0.8,2.1,0.3l19.9-15.1l0,0
			c0.2-0.1,0.4-0.2,0.6-0.2s0.4,0.1,0.6,0.2l0,0l7.6,5.8c1.1-0.2,2.3-0.4,3.4-0.4C35.8,64,36.2,64,36.5,64z"/>
		<path id="XMLID_284_" fill="#D9D9D6" d="M14,59.1c0-0.9-0.8-1.7-1.7-1.7H9c-0.9,0-1.7,0.8-1.7,1.7v5.7l6.6-5v-0.7H14z"/>
		<path id="XMLID_283_" fill="#D9D9D6" d="M19.1,80.4L19.1,80.4c0-6.6,3.9-12.2,9.4-14.9l-4-3l0,0c-0.2-0.1-0.4-0.2-0.6-0.2
			s-0.4,0.1-0.6,0.2l0,0L7.7,74.4c-0.3,0.2-0.5,0.6-0.5,1v14c0,2.4,2,4.4,4.4,4.4h7.6V80.4H19.1z"/>
		<path id="XMLID_326_" fill="#D9D9D6" d="M35.5,66.9C28.1,66.9,22,73,22,80.4s6.1,13.5,13.5,13.5S49,87.9,49,80.4
			C49,73,43,66.9,35.5,66.9z M35.5,90.7c-5.7,0-10.3-4.6-10.3-10.3c0-5.7,4.6-10.3,10.3-10.3s10.3,4.6,10.3,10.3
			S41.2,90.7,35.5,90.7z"/>
		<path id="XMLID_280_" fill="#D9D9D6" d="M33,84.4c-0.1-0.2-0.3-0.4-0.5-0.4h-1.1c-0.3,0-0.5,0.2-0.5,0.5v0.1
			c0.4,1.9,1.9,3.4,3.8,3.8v-2.2C33.9,85.9,33.3,85.3,33,84.4z"/>
		<path id="XMLID_322_" fill="#D9D9D6" d="M36.7,79.2v-3.3c0.2,0.2,0.4,0.5,0.5,0.8c0.1,0.2,0.3,0.4,0.5,0.4h1.2
			c0.3,0,0.5-0.2,0.5-0.5v-0.1C39,75.1,38,74,36.7,73.6v-1.1c0-0.3-0.3-0.6-0.6-0.6s-0.6,0.3-0.6,0.6v0.2v15.4
			c0,0.3,0.3,0.6,0.6,0.6h0.1l0,0c2.3-0.3,4-2.3,4-4.7C40.3,81.6,38.8,79.8,36.7,79.2z M36.7,86.1v-4.5c0.8,0.4,1.4,1.3,1.4,2.3
			C38.1,84.8,37.5,85.7,36.7,86.1z"/>
		<path id="XMLID_277_" fill="#D9D9D6" d="M31.5,77.3c0,1.9,1.3,3.5,3.1,3.9v-2.3c-0.6-0.3-0.9-0.9-0.9-1.6s0.4-1.3,0.9-1.6v-2.3
			C32.9,73.8,31.5,75.4,31.5,77.3z"/>
	</g>
</g>
<g>
	<path fill="#9B82B8" d="M36.5,14L25.6,5.8c-0.1,0-0.1-0.1-0.2-0.1c0.1,0,0.1,0,0.1,0.1c-0.5-0.4-1.1-0.5-1.7-0.5
		c-0.6,0-1.2,0.2-1.7,0.5c0,0-0.1,0-0.1,0.1L1.6,21.4c-0.6,0.5-0.8,1.4-0.3,2.1c0.5,0.6,1.4,0.8,2.1,0.3L23.3,8.6c0,0,0,0,0,0
		c0.2-0.1,0.4-0.2,0.6-0.2c0.2,0,0.4,0.1,0.6,0.2c0,0,0,0,0,0l7.6,5.7c1.1-0.2,2.3-0.4,3.4-0.4C35.8,14,36.2,14,36.5,14z"/>
	<path fill="#704C99" d="M14,9.2c0-0.9-0.8-1.7-1.7-1.7H9.1c-0.9,0-1.7,0.8-1.7,1.7v5.6l6.6-5V9.2z"/>
	<path fill="#704C99" d="M19.1,30.4C19.1,30.4,19.1,30.4,19.1,30.4c0-6.6,3.9-12.2,9.4-14.8l-4-3c0,0,0,0,0,0
		c-0.2-0.1-0.4-0.2-0.6-0.2c-0.2,0-0.4,0.1-0.6,0.2c0,0,0,0,0,0L7.7,24.3c-0.3,0.2-0.5,0.6-0.5,1v14c0,2.4,2,4.3,4.4,4.3h7.6V30.4
		L19.1,30.4z"/>
	<path fill="#9B82B8" d="M35.5,16.9c-7.4,0-13.5,6-13.5,13.5s6,13.4,13.5,13.4c7.4,0,13.5-6,13.5-13.4S43,16.9,35.5,16.9z
		 M35.5,40.6c-5.7,0-10.3-4.6-10.3-10.3s4.6-10.3,10.3-10.3c5.7,0,10.3,4.6,10.3,10.3S41.2,40.6,35.5,40.6z"/>
	<path fill="#704C99" d="M33,34.4C33,34.2,32.8,34,32.5,34h-1.1c-0.3,0-0.5,0.2-0.5,0.5l0,0.1c0.4,1.9,1.9,3.4,3.8,3.8v-2.2
		C33.9,35.9,33.3,35.2,33,34.4z"/>
	<path fill="#704C99" d="M36.7,29.2v-3.3c0.2,0.2,0.4,0.5,0.5,0.8c0.1,0.2,0.3,0.4,0.5,0.4h1.1c0.3,0,0.5-0.2,0.5-0.5l0-0.1
		c-0.4-1.4-1.4-2.5-2.7-2.9v-1.1c0-0.3-0.3-0.6-0.6-0.6c-0.3,0-0.6,0.3-0.6,0.6v0.2v15.4c0,0.3,0.3,0.6,0.6,0.6c0,0,0.1,0,0.1,0l0,0
		c2.3-0.3,4-2.3,4-4.7C40.3,31.6,38.8,29.7,36.7,29.2z M36.7,36v-4.5c0.8,0.4,1.4,1.3,1.4,2.3C38.1,34.8,37.5,35.6,36.7,36z"/>
	<path fill="#704C99" d="M31.6,27.2c0,1.9,1.3,3.5,3.1,3.9v-2.3c-0.6-0.3-0.9-0.9-0.9-1.6c0-0.7,0.4-1.3,0.9-1.6v-2.3
		C32.9,23.8,31.6,25.3,31.6,27.2z"/>
</g>
</svg>
