<?xml version="1.0" encoding="utf-8"?>
<!-- Generator: Adobe Illustrator 18.0.0, SVG Export Plug-In . SVG Version: 6.00 Build 0)  -->
<!DOCTYPE svg PUBLIC "-//W3C//DTD SVG 1.1//EN" "http://www.w3.org/Graphics/SVG/1.1/DTD/svg11.dtd">
<svg version="1.1" id="Layer_1" xmlns="http://www.w3.org/2000/svg" xmlns:xlink="http://www.w3.org/1999/xlink" x="0px" y="0px"
	 viewBox="0 0 50 100" enable-background="new 0 0 50 100" xml:space="preserve">
<g id="XMLID_304_">
	<g id="XMLID_305_">
		<path id="XMLID_271_" fill="#D9D9D6" d="M19.6,61.4c0.5,0.1,1-0.2,1.1-0.6c0-0.1,0.1-0.2,0.1-0.2c0.6-1.9,2.4-3.2,4.4-3.2
			s3.8,1.3,4.4,3.2c0,0.1,0.1,0.2,0.1,0.2c0.1,0.5,0.6,0.8,1.1,0.6c0.5-0.1,0.8-0.6,0.6-1.1c-0.8-2.8-3.3-4.8-6.2-4.8
			s-5.5,2-6.3,4.8C18.9,60.8,19.1,61.3,19.6,61.4z"/>
		<path id="XMLID_306_" fill="#D9D9D6" d="M44.5,75.5c-0.5-0.4-1.1-0.7-1.8-0.7h-0.4c-1.5-6.9-8.5-12.1-16.9-12.1
			c-7.1,0-13.1,3.6-15.8,8.8l0,0C9.1,72.4,8.2,73,7.1,73H6.4c-1,0-1.8,0.8-1.8,1.8v5.3c0,1,0.8,1.8,1.8,1.8h0.7c1.1,0,2,0.6,2.5,1.5
			l0,0c0.9,1.8,2.3,3.4,4,4.8l0,0l0,0c1.7,1.4,2.9,3.3,3.6,5.4h5.1V92c0-1.7,1.4-3,3-3c1.7,0,3,1.4,3,3v1.5h5.1
			c0.7-2.1,2-3.9,3.6-5.4l0,0c2.6-2.1,4.4-4.9,5.1-8.1h0.4c0.7,0,1.3-0.3,1.8-0.7c0.5-0.5,0.9-1.2,0.9-2
			C45.4,76.7,45.1,76,44.5,75.5z M31.8,68c-0.2,0.8-1.1,1.2-1.8,0.9c-1.4-0.5-3-0.7-4.6-0.7c-1.5,0-3,0.2-4.4,0.7
			c-0.8,0.2-1.6-0.2-1.8-0.9c-0.2-0.8,0.2-1.6,0.9-1.8c1.7-0.5,3.5-0.8,5.3-0.8c1.9,0,3.7,0.3,5.4,0.9C31.6,66.4,32,67.2,31.8,68z"
			/>
	</g>
</g>
<g>
	<path fill="#FFEB7F" d="M19.5,11.4c0.5,0.1,1-0.2,1.1-0.6c0-0.1,0.1-0.2,0.1-0.2c0.6-1.9,2.4-3.2,4.4-3.2c2,0,3.8,1.3,4.4,3.2
		c0,0.1,0.1,0.2,0.1,0.2c0.1,0.5,0.6,0.8,1.1,0.6c0.5-0.1,0.8-0.6,0.6-1.1c-0.8-2.8-3.3-4.8-6.2-4.8c-2.9,0-5.5,2-6.2,4.8
		C18.8,10.8,19.1,11.3,19.5,11.4z"/>
	<path fill="#FFD700" d="M44.3,25.6c-0.5-0.4-1.1-0.7-1.7-0.7h-0.4c-1.5-6.9-8.4-12.1-16.9-12.1c-7,0-13.1,3.6-15.7,8.8l0,0
		c-0.5,0.9-1.4,1.5-2.5,1.5H6.4c-1,0-1.8,0.8-1.8,1.8v5.3c0,1,0.8,1.8,1.8,1.8h0.7c1.1,0,2,0.6,2.5,1.5l0,0c0.9,1.8,2.3,3.4,3.9,4.8
		l0,0l0,0c1.7,1.4,2.9,3.3,3.6,5.4h5.1v-1.5c0-1.7,1.4-3,3-3c1.7,0,3,1.4,3,3v1.5h5.1c0.7-2.1,2-3.9,3.6-5.4l0,0
		c2.6-2.1,4.4-4.9,5.1-8.1h0.4c0.7,0,1.3-0.3,1.7-0.7c0.5-0.5,0.9-1.2,0.9-2S44.9,26,44.3,25.6z M31.6,18c-0.2,0.8-1.1,1.2-1.8,0.9
		c-1.4-0.5-3-0.7-4.5-0.7c-1.5,0-3,0.2-4.4,0.7c-0.8,0.2-1.6-0.2-1.8-0.9c-0.2-0.8,0.2-1.6,0.9-1.8c1.7-0.5,3.4-0.8,5.3-0.8
		c1.9,0,3.7,0.3,5.4,0.9C31.5,16.4,31.9,17.2,31.6,18z"/>
</g>
</svg>
