<?xml version="1.0" encoding="utf-8"?>
<!-- Generator: Adobe Illustrator 18.0.0, SVG Export Plug-In . SVG Version: 6.00 Build 0)  -->
<!DOCTYPE svg PUBLIC "-//W3C//DTD SVG 1.1//EN" "http://www.w3.org/Graphics/SVG/1.1/DTD/svg11.dtd">
<svg version="1.1" id="Layer_1" xmlns="http://www.w3.org/2000/svg" xmlns:xlink="http://www.w3.org/1999/xlink" x="0px" y="0px"
	 viewBox="0 0 320 661" enable-background="new 0 0 320 661" xml:space="preserve">
<path fill-rule="evenodd" clip-rule="evenodd" fill="#FF550F" d="M304.1,302.8l-1.6,1.6c-7.2,7.2-19,7.2-26.3,0l-80.9-80.9
	c-7.2-7.2-7.2-19,0-26.3l1.6-1.6c7.2-7.2,19-7.2,26.3,0l80.9,80.9C311.3,283.8,311.3,295.6,304.1,302.8z"/>
<g>
	<g>
		<path fill="#FF550F" d="M125.3,241.4c-63.8,0-115.8-51.9-115.8-115.8C9.5,61.8,61.5,9.8,125.3,9.8c63.8,0,115.8,51.9,115.8,115.8
			C241.1,189.5,189.2,241.4,125.3,241.4z M125.3,33.7c-50.7,0-91.9,41.2-91.9,91.9c0,50.7,41.3,91.9,91.9,91.9s91.9-41.2,91.9-91.9
			C217.3,74.9,176,33.7,125.3,33.7z"/>
	</g>
</g>
<path fill-rule="evenodd" clip-rule="evenodd" fill="#DADAD7" d="M304.1,640.7l-1.6,1.6c-7.2,7.2-19,7.2-26.3,0l-80.9-80.9
	c-7.2-7.2-7.2-19,0-26.3l1.6-1.6c7.2-7.2,19-7.2,26.3,0l80.9,80.9C311.3,621.7,311.3,633.5,304.1,640.7z"/>
<g>
	<g>
		<path fill="#DADAD7" d="M125.3,579.3c-63.8,0-115.8-51.9-115.8-115.8c0-63.9,51.9-115.8,115.8-115.8
			c63.8,0,115.8,51.9,115.8,115.8C241.1,527.4,189.2,579.3,125.3,579.3z M125.3,371.6c-50.7,0-91.9,41.2-91.9,91.9
			c0,50.7,41.3,91.9,91.9,91.9s91.9-41.2,91.9-91.9C217.3,412.8,176,371.6,125.3,371.6z"/>
	</g>
</g>
</svg>
