<?xml version="1.0" standalone="no"?>
<!DOCTYPE svg PUBLIC "-//W3C//DTD SVG 20010904//EN"
 "http://www.w3.org/TR/2001/REC-SVG-20010904/DTD/svg10.dtd">
<svg version="1.0" xmlns="http://www.w3.org/2000/svg"
 width="260.000000pt" height="260.000000pt" viewBox="0 0 260.000000 260.000000"
 preserveAspectRatio="xMidYMid meet">
<metadata>
Created by potrace 1.11, written by Peter Selinger 2001-2013
</metadata>
<g transform="translate(0.000000,260.000000) scale(0.100000,-0.100000)"
fill="#000000" stroke="none">
<path d="M1250 2489 c-19 -12 -37 -23 -39 -25 -2 -2 -6 -32 -7 -66 -4 -65 16
-153 42 -194 31 -47 118 -48 148 -1 17 25 56 144 50 150 -3 2 -6 27 -8 56 -2
36 -8 56 -22 66 -50 41 -111 46 -164 14z"/>
<path d="M1100 2134 c-196 -42 -346 -150 -418 -298 -38 -77 -52 -146 -52 -249
0 -252 140 -407 448 -498 23 -7 43 -15 43 -18 5 -24 3 -394 -2 -397 -17 -10
-225 115 -287 173 -7 7 -17 13 -22 13 -7 0 -82 -96 -133 -170 -9 -14 -33 -47
-52 -75 -32 -45 -34 -51 -19 -62 10 -7 29 -23 43 -35 85 -75 253 -160 401
-202 l75 -22 -1 -82 0 -82 35 -6 c20 -4 58 -7 86 -8 l50 -1 2 118 c1 65 4 249
7 410 2 161 5 314 5 342 1 37 4 46 13 37 11 -11 12 -28 20 -655 l3 -259 64 6
c114 11 109 8 107 87 -1 38 0 73 3 77 3 5 40 19 81 31 106 32 171 66 236 125
111 99 163 212 171 376 9 173 -32 286 -138 384 -62 57 -177 121 -281 156 -38
13 -68 25 -69 29 -5 26 -3 374 2 377 9 5 163 -71 214 -106 24 -16 47 -30 52
-30 9 1 163 283 163 299 0 13 -81 71 -160 114 -59 32 -195 84 -245 93 -11 2
-42 8 -69 13 -43 8 -54 6 -94 -15 -56 -30 -66 -30 -121 1 -49 28 -69 29 -161
9z m26 -447 c1 -40 2 -82 3 -94 2 -38 59 -91 145 -133 44 -22 68 -37 51 -34
-62 14 -199 66 -236 91 -90 59 -89 181 1 236 14 9 27 13 30 10 3 -2 6 -37 6
-76z m438 -758 c14 -11 32 -33 40 -47 17 -35 13 -122 -9 -155 -19 -29 -64 -62
-73 -52 -12 11 -8 275 4 275 6 0 23 -9 38 -21z"/>
</g>
</svg>
