<?xml version="1.0" encoding="utf-8"?>
<!-- Generator: Adobe Illustrator 18.0.0, SVG Export Plug-In . SVG Version: 6.00 Build 0)  -->
<!DOCTYPE svg PUBLIC "-//W3C//DTD SVG 1.1//EN" "http://www.w3.org/Graphics/SVG/1.1/DTD/svg11.dtd">
<svg version="1.1" xmlns="http://www.w3.org/2000/svg" xmlns:xlink="http://www.w3.org/1999/xlink" x="0px" y="0px"
	 viewBox="0 0 80 80" enable-background="new 0 0 80 80" xml:space="preserve">
<g id="Layer_1" display="none">
	<g display="inline">
		<g>
			<circle fill="#CE0058" cx="40" cy="40" r="40"/>
		</g>
		<g>
			<path fill="#FFFFFF" d="M56.5,26c0.6,0.7,0.8,1.5,0.7,2.4h0c-0.1,0.9-0.5,1.6-1.2,2.2l-10.4,8.7h9.7v3.3c-0.4,0-0.9,0-1.5-0.1
				c0,0,0,0,0,0h-6.8c-1.9,0-3.6,0.7-5,2c-0.1,0.1-0.2,0.2-0.3,0.2c-1.5,1.5-2.2,3.2-2.2,5.3v0c0,2.1,0.7,3.8,2.2,5.3
				c1.5,1.5,3.2,2.2,5.3,2.2H54c0.5,0,1,0,1.5-0.1c-0.1,0.6-0.3,1.1-0.8,1.5c-0.5,0.5-1.2,0.8-1.9,0.8h-29c-0.7,0-1.4-0.3-1.9-0.8
				c-0.5-0.5-0.8-1.2-0.8-1.9V36.4c0-0.6,0.2-1.2,0.6-1.7c0.1-0.1,0.1-0.2,0.2-0.2c0.4-0.4,0.9-0.7,1.4-0.7c0.2-0.3,0.4-0.6,0.8-0.9
				l19.9-16.7c0.7-0.6,1.5-0.8,2.4-0.7c0.9,0.1,1.6,0.5,2.2,1.2L56.5,26z M55,29.4c0.3-0.3,0.5-0.7,0.6-1.1v0c0-0.4-0.1-0.8-0.4-1.2
				l-4.2-5L30.5,39.4h12.7L55,29.4z M46.2,17c-0.4,0-0.8,0.1-1.2,0.4L25.1,34.1c-0.3,0.3-0.5,0.6-0.6,1.1c0,0,0,0,0,0
				c0,0.4,0.1,0.8,0.4,1.2l0.5,0.6l22.4-18.8l-0.5-0.6C47,17.3,46.6,17.1,46.2,17z M43.2,46.4L43.2,46.4c0.3-0.3,0.7-0.6,1.1-0.9
				c0.8-0.5,1.7-0.7,2.7-0.7h6.7c1.1,0,1.9,0.1,2.6,0.1c0.2,0,0.4,0,0.6-0.1c0.2-0.1,0.3-0.2,0.4-0.4c0.1-0.2,0.2-0.4,0.2-0.6v-2.8
				c0.3,0.1,0.6,0.3,0.9,0.5c0.4,0.4,0.6,0.8,0.6,1.3c0,0,0,0.1,0,0.1v8.4c-0.2,0.9-0.7,1.8-1.4,2.5c-1,1-2.3,1.6-3.8,1.6H47
				c-1.5,0-2.7-0.5-3.8-1.6c-1-1-1.6-2.3-1.6-3.8v0C41.6,48.7,42.1,47.4,43.2,46.4z M55.5,36.3c0,0,0,0.1,0,0.1h-4.3L54,34
				c0.2,0.1,0.5,0.3,0.7,0.5C55.2,35,55.4,35.6,55.5,36.3z M43.4,50.2c0,0.5,0.2,0.9,0.5,1.2c0.3,0.3,0.7,0.5,1.2,0.5
				s0.9-0.2,1.2-0.5c0.3-0.3,0.5-0.7,0.5-1.2s-0.2-0.9-0.5-1.2c-0.3-0.3-0.7-0.5-1.2-0.5s-0.9,0.2-1.2,0.5
				C43.6,49.3,43.4,49.8,43.4,50.2z"/>
		</g>
	</g>
</g>
<g id="Layer_2">
	<g>
		<g>
			<circle fill="#704C99" cx="40" cy="40" r="40"/>
		</g>
		<g>
			<path fill="#FFFFFF" d="M49,35.8c0.3,0.7,1,1.2,1.8,1.3c0.3,0,0.7,0,1.1-0.2c0.7-0.3,1.2-1,1.3-1.7c0-0.4,0-0.7-0.2-1.1
				l-5.8-12.4c-0.3-0.7-1-1.2-1.8-1.3c-0.3,0-0.7,0-1.1,0.2c-0.7,0.3-1.2,1-1.3,1.8c0,0.4,0,0.7,0.2,1.1L49,35.8z"/>
			<path fill="#FFFFFF" d="M28.6,36.8c0.3,0.2,0.7,0.2,1,0.2c0.8-0.1,1.4-0.5,1.8-1.3l5.9-12.6c0.2-0.3,0.2-0.7,0.2-1.1
				c-0.1-0.7-0.5-1.4-1.3-1.8c-0.3-0.2-0.7-0.2-1.1-0.2c-0.8,0.1-1.4,0.5-1.8,1.3L27.6,34c-0.2,0.3-0.2,0.7-0.2,1.1
				C27.4,35.8,27.9,36.5,28.6,36.8z"/>
			<path fill="#FFFFFF" d="M59.9,35.4h-4.9c0.4,1.7-0.4,3.6-2,4.5c-0.6,0.3-1.3,0.5-2,0.5c-1.5,0-2.9-0.8-3.6-2.1c0,0,0,0,0,0
				l-1.7-2.9H34.1l-1.7,2.9c0,0,0,0,0,0c0,0,0,0,0,0c-0.7,1.3-2.1,2.1-3.6,2.1c-0.7,0-1.4-0.2-2-0.5c-1-0.5-1.7-1.4-2-2.5
				c-0.2-0.7-0.2-1.4,0-2h-4.8c-1.2,0-2.1,1-2.1,2.1c0,1.2,1,2.1,2.1,2.1h0.7c0,0.1,0,0.2,0,0.3L25,55.9c0.4,1.3,1.8,2.4,3.2,2.4
				h23.6c1.4,0,2.8-1.1,3.2-2.4L59.2,40c0-0.1,0-0.2,0-0.3h0.7c1.2,0,2.1-1,2.1-2.1C62.1,36.4,61.1,35.4,59.9,35.4z M31,54
				c0,0.7-0.5,1.2-1.2,1.2c-0.7,0-1.2-0.5-1.2-1.2v-9.3c0-0.7,0.5-1.2,1.2-1.2c0.7,0,1.2,0.5,1.2,1.2V54z M37.8,54
				c0,0.7-0.5,1.2-1.2,1.2c-0.7,0-1.2-0.5-1.2-1.2v-9.3c0-0.7,0.5-1.2,1.2-1.2c0.7,0,1.2,0.5,1.2,1.2V54z M44.6,54
				c0,0.7-0.5,1.2-1.2,1.2c-0.7,0-1.2-0.5-1.2-1.2v-9.3c0-0.7,0.5-1.2,1.2-1.2c0.7,0,1.2,0.5,1.2,1.2V54z M51.4,54
				c0,0.7-0.5,1.2-1.2,1.2c-0.7,0-1.2-0.5-1.2-1.2v-9.3c0-0.7,0.5-1.2,1.2-1.2c0.7,0,1.2,0.5,1.2,1.2V54z"/>
		</g>
	</g>
</g>
<g id="Layer_3" display="none">
	<g display="inline">
		<g>
			<circle fill="#CADC3C" cx="40" cy="40" r="40"/>
		</g>
		<g>
			<path fill="#FFFFFF" d="M45.7,53.2v6.5l9.5-9.5h-6.3C47.1,50.2,45.7,51.6,45.7,53.2z"/>
			<path fill="#FFFFFF" d="M52,20h-2.6l-19.1,0l0.3,0H28c-2.5,0-4.4,1.9-4.4,4.3v2.8v19.6v10c0,2.4,2,4.3,4.4,4.3h15.1v-7.7
				c0-3.1,2.6-5.5,5.7-5.5h7.6V24.3C56.5,21.9,54.5,20,52,20z M38.8,49.3c-2.5-0.5-4.5-2.5-5-5.1l0-0.1c0-0.4,0.3-0.7,0.7-0.7H36
				c0.3,0,0.6,0.2,0.7,0.5c0.3,1.1,1.1,2,2.1,2.4V49.3z M38.8,32.3c-0.7,0.4-1.2,1.2-1.2,2.1c0,0.9,0.5,1.7,1.2,2.1v3.1
				c-2.4-0.5-4.1-2.7-4.1-5.2c0-2.5,1.8-4.6,4.1-5.2V32.3z M40.9,49.3L40.9,49.3c0,0-0.1,0-0.1,0c-0.4,0-0.8-0.4-0.8-0.8V28.1v-0.2
				c0-0.4,0.4-0.8,0.8-0.8c0.4,0,0.8,0.4,0.8,0.8v1.5c1.7,0.6,3.1,2,3.6,3.9l0,0.2c0,0.4-0.3,0.7-0.7,0.7h-1.5
				c-0.3,0-0.6-0.2-0.7-0.5c-0.1-0.4-0.4-0.8-0.7-1V37c2.7,0.7,4.7,3.2,4.7,6.1C46.3,46.3,43.9,48.9,40.9,49.3z"/>
			<path fill="#FFFFFF" d="M41.5,40.1v6c1.1-0.6,1.8-1.7,1.8-3C43.4,41.8,42.6,40.7,41.5,40.1z"/>
		</g>
	</g>
</g>
<g id="Layer_4" display="none">
	<g display="inline">
		<g>
			<circle fill="#00AFFF" cx="40" cy="40" r="40"/>
		</g>
		<g>
			<path fill="#FFFFFF" d="M59.7,27.2H32.1c-2,0-2.7-1-2.7-1.7l30.3-2.6v-2.6c0-1-1-1.9-2-1.7l-28.8,4.6C27.2,23.6,26,25,26,26.7
				v8.8c0.4,0,0.9-0.1,1.3-0.1c8.2,0,14.9,6.7,14.9,14.9c0,0.8-0.1,1.7-0.2,2.5h17.7c1.9,0,3.4-1.5,3.4-3.4V30.6
				C63.1,28.7,61.6,27.2,59.7,27.2z M57.1,42.5c-1.4,0-2.6-1.2-2.6-2.6s1.2-2.6,2.6-2.6s2.6,1.2,2.6,2.6S58.5,42.5,57.1,42.5z"/>
			<g>
				<path fill="#FFFFFF" d="M27.4,38c-6.8,0-12.3,5.5-12.3,12.3s5.5,12.3,12.3,12.3c6.8,0,12.3-5.5,12.3-12.3S34.2,38,27.4,38z
					 M27.4,59.7c-5.2,0-9.4-4.2-9.4-9.4s4.2-9.4,9.4-9.4c5.2,0,9.4,4.2,9.4,9.4S32.6,59.7,27.4,59.7z"/>
				<circle fill="#FFFFFF" cx="27.4" cy="55.7" r="1.4"/>
				<path fill="#FFFFFF" d="M27.4,44.3c-2,0-3.7,1.6-3.7,3.7c0,0.7,0.6,1.3,1.3,1.3c0.7,0,1.3-0.6,1.3-1.3c0-0.6,0.5-1.1,1.1-1.1
					c0.6,0,1.1,0.5,1.1,1.1c0,0.3-0.3,0.8-0.6,1c-1,0.6-1.7,1.8-1.7,3.1c0,0.7,0.6,1.3,1.3,1.3c0.7,0,1.3-0.6,1.3-1.3
					c0-0.4,0.2-0.7,0.5-0.9c0.9-0.6,1.8-1.7,1.8-3.1C31,45.9,29.4,44.3,27.4,44.3z"/>
			</g>
		</g>
	</g>
</g>
<g id="Layer_5" display="none">
	<g display="inline">
		<g>
			<circle fill="#006E96" cx="40" cy="40" r="40"/>
		</g>
		<g>
			<g>
				<path fill="#FFFFFF" d="M56.2,29.9c-1.7-1.6-3.6-2.8-5.7-3.7c-0.3,0.4-0.6,0.8-0.9,1.1c-0.5,0.5-1,0.9-1.6,1.2
					c0.6,0.2,1.2,0.4,1.7,0.7c0.6,0.3,0.8,1,0.5,1.5c-0.3,0.5-0.9,0.7-1.4,0.4c-3.8-1.8-8.1-1.5-9.9-1.3c-0.6,0.1-1.1-0.3-1.2-0.8
					l0,0c-0.1-0.6,0.3-1.2,0.9-1.3c0.3,0,0.8-0.1,1.2-0.1c-0.1-0.1-0.3-0.2-0.4-0.4c-0.7-0.7-1.2-1.4-1.5-2.3c0-0.1-0.1-0.2-0.1-0.3
					c-0.6,0.1-1.1,0.2-1.7,0.3c-3.2-1.9-7-1.9-9.3-1.7c-1,0.1-1.6,1.1-1.2,2l1.9,4c-2.2,1.9-3.8,4.1-4.7,6.7l-2.4,0
					c-0.8,0-1.4,0.6-1.5,1.4l0,5.3c0,0.5,0.3,1,0.8,1.3l3,1.6c1.2,3.5,3.9,6.6,7.4,8.7l0,4.7c0,0.9,0.7,1.7,1.7,1.7l4.3,0
					c0.7,0,1.3-0.4,1.5-1l1.1-2.5c0.9,0.1,1.9,0.2,2.8,0.2c1.5,0,3-0.1,4.4-0.4l0,2c0,0.9,0.7,1.7,1.7,1.7l4.3,0
					c0.6,0,1.2-0.3,1.5-0.9c2.3-4.3,4.8-8.5,6.7-13c0.9-2.3,1.3-4.7,1.1-7C60.7,36.2,59,32.6,56.2,29.9L56.2,29.9z M30.4,38.6
					c-1.2,0-2.1-1-2.1-2.2c0-1.2,1-2.1,2.2-2.1c1.2,0,2.1,1,2.1,2.2C32.6,37.6,31.6,38.6,30.4,38.6L30.4,38.6z M30.4,38.6"/>
			</g>
			<path fill="#FFFFFF" d="M42.3,27.6c0.7,0.3,1.4,0.4,2.1,0.4c0.4,0,0.7,0,1.1-0.1c1.5-0.3,2.7-1.1,3.6-2.2
				c0.7-0.9,1.1-2.1,1.1-3.4c0-3.2-2.5-5.8-5.7-5.8c-3.2,0-5.8,2.5-5.8,5.7c0,0.8,0.2,1.6,0.5,2.3C39.8,25.9,40.9,27,42.3,27.6
				L42.3,27.6z M42.3,27.6"/>
		</g>
	</g>
</g>
<g id="Layer_6" display="none">
	<g display="inline">
		<g>
			<circle fill="#FFD700" cx="40" cy="40" r="40"/>
		</g>
		<path fill="#FFFFFF" d="M47.3,49.2c0.1-1,0.3-1.9,0.7-2.7c-1.1-0.4-1.8-0.8-1.8-0.8c-0.6-0.8-0.9-2.1-1-2.9
			c1.3-1.7,1.9-3.7,2.2-5.4c0.1,0.1,0.2,0.1,0.4,0.1c0.5,0,1.2-0.7,2-3.4c0.8-2.8,0.3-3.7-0.4-3.9c2.2-10.6-2.8-10.9-2.8-10.9
			s-0.8-1.5-2.7-2.6c-1.1-0.7-2.7-1.3-4.6-1.3c-0.3,0-0.7,0-1,0.1c-0.8,0.1-1.5,0.2-2.2,0.4c-0.9,0.3-1.7,0.7-2.5,1.3
			c-0.9,0.6-1.7,1.3-2.5,2.1c-1.2,1.3-2.2,2.8-2.7,4.8c-0.4,1.7-0.4,3.5,0.2,5.4c-0.1,0-0.1,0-0.2,0c-0.8,0-1.7,0.7-0.8,4
			c0.7,2.6,1.4,3.3,1.9,3.4c0.3,1.9,0.9,4,2.3,5.9c-0.2,0.8-0.4,1.8-0.8,2.6c-0.1,0.1-4.7,2.3-10.2,3.7c-3.6,0.9-4.1,4.6-4.1,7
			c0,0.3,0,0.5,0,0.8H48c0.4-1.1,1.1-1.7,1.7-2.1C47.6,53,47.2,50.8,47.3,49.2z"/>
		<g>
			<path fill="#FFFFFF" d="M52.2,59.1c-0.1-0.3-0.3-0.5-0.7-0.5h-1.5c-0.4,0-0.7,0.3-0.7,0.7l0,0.1c0.5,2.5,2.5,4.4,4.9,4.9v-2.9
				C53.3,61.1,52.5,60.2,52.2,59.1z"/>
			<path fill="#FFFFFF" d="M57,52.4v-4.3c0.3,0.3,0.6,0.6,0.7,1c0.1,0.3,0.4,0.5,0.6,0.5h1.5c0.4,0,0.7-0.3,0.7-0.7l0-0.2
				c-0.5-1.8-1.8-3.2-3.5-3.8v-1.4c0-0.4-0.3-0.8-0.8-0.8c-0.4,0-0.8,0.3-0.8,0.8v0.2v20c0,0.4,0.3,0.8,0.8,0.8c0,0,0.1,0,0.1,0l0,0
				c3-0.4,5.2-3,5.2-6.1C61.6,55.5,59.7,53.1,57,52.4z M57,61.3v-5.9c1.1,0.6,1.8,1.7,1.8,2.9C58.8,59.6,58.1,60.7,57,61.3z"/>
			<path fill="#FFFFFF" d="M50.3,49.8c0,2.5,1.7,4.5,4,5v-3c-0.7-0.4-1.2-1.2-1.2-2c0-0.9,0.5-1.6,1.2-2v-3
				C52,45.3,50.3,47.4,50.3,49.8z"/>
		</g>
	</g>
</g>
<g id="Layer_7" display="none">
	<g display="inline">
		<g>
			<circle fill="#20D4AF" cx="40" cy="40" r="40"/>
		</g>
		<path fill="#FFFFFF" d="M38,32.2c-1.6,1.2-3.6,1.9-5.8,1.9c-2.2,0-4.2-0.7-5.8-1.9c-1.4,1.2-2.8,2.8-3.9,4.9
			c-2.6,4.8-2.9,9.7-0.7,10.9c1,0.6,2.1,0.1,3.2-0.9c-0.2,1.1-0.3,2.3-0.3,3.5c0,5.5,2.1,9.9,4.7,9.9c1.6,0,2.4-1.6,2.7-4.1
			c0.4,2.4,1.2,4.1,2.7,4.1c2.6,0,4.7-4.4,4.7-9.9c0-1.2-0.1-2.4-0.3-3.5c1.1,1.1,2.2,1.5,3.2,0.9c2.3-1.3,2-6.2-0.7-10.9
			C40.8,35.1,39.4,33.4,38,32.2z M32.2,32.3c4.4,0,8-3.6,8-8s-3.6-8-8-8c-4.4,0-8,3.6-8,8S27.8,32.3,32.2,32.3z M52.1,42.5
			c2.8,0,5.1-2.3,5.1-5.1s-2.3-5.1-5.1-5.1c-2.8,0-5.1,2.3-5.1,5.1S49.3,42.5,52.1,42.5z M58.3,45.6c-0.7-1.3-1.6-2.4-2.5-3.1
			c-1,0.8-2.3,1.2-3.7,1.2c-1.4,0-2.7-0.5-3.7-1.2c-0.9,0.7-1.8,1.8-2.5,3.1c-1.7,3-1.9,6.2-0.4,7c0.7,0.4,1.4,0.1,2.1-0.6
			c-0.1,0.7-0.2,1.4-0.2,2.2c0,3.5,1.4,6.3,3,6.3c1,0,1.5-1,1.7-2.6c0.2,1.6,0.7,2.6,1.7,2.6c1.7,0,3-2.8,3-6.3
			c0-0.8-0.1-1.5-0.2-2.2c0.7,0.7,1.4,1,2.1,0.6C60.2,51.7,60,48.6,58.3,45.6z"/>
	</g>
</g>
<g id="Layer_8" display="none">
	<g display="inline">
		<g>
			<circle fill="#E18CC8" cx="40" cy="40" r="40"/>
		</g>
		<g>
			<path fill="#FFFFFF" d="M40,18.8c-11.7,0-21.2,9.5-21.2,21.2c0,11.7,9.5,21.2,21.2,21.2c11.7,0,21.2-9.5,21.2-21.2
				C61.2,28.3,51.7,18.8,40,18.8z M47.2,27.5v-0.1c0-0.2,0.2-0.4,0.4-0.4c0.2,0,0.4,0.2,0.4,0.4v0.8c0.9,0.3,1.7,1.1,2,2.1l0,0.1
				c0,0.2-0.2,0.4-0.4,0.4h-0.8c-0.2,0-0.3-0.1-0.4-0.3c-0.1-0.2-0.2-0.4-0.4-0.6v2.4c1.5,0.4,2.6,1.7,2.6,3.3
				c0,1.7-1.3,3.2-2.9,3.4l0,0c0,0,0,0-0.1,0c-0.2,0-0.4-0.2-0.4-0.4V27.5z M46.6,28.1v1.7c-0.4,0.2-0.7,0.7-0.7,1.1
				c0,0.5,0.3,0.9,0.7,1.1v1.7c-1.3-0.3-2.2-1.4-2.2-2.8C44.3,29.5,45.3,28.4,46.6,28.1z M44.2,35.9H45c0.2,0,0.3,0.1,0.4,0.3
				c0.2,0.6,0.6,1.1,1.2,1.3v1.6c-1.4-0.3-2.5-1.4-2.7-2.8l0-0.1C43.8,36,44,35.9,44.2,35.9z M32.7,27.5v-0.1c0-0.2,0.2-0.4,0.4-0.4
				c0.2,0,0.4,0.2,0.4,0.4v0.8c0.9,0.3,1.7,1.1,2,2.1l0,0.1c0,0.2-0.2,0.4-0.4,0.4h-0.8c-0.2,0-0.3-0.1-0.4-0.3
				c-0.1-0.2-0.2-0.4-0.4-0.6v2.4c1.5,0.4,2.6,1.7,2.6,3.3c0,1.7-1.3,3.2-2.9,3.4l0,0c0,0,0,0-0.1,0c-0.2,0-0.4-0.2-0.4-0.4V27.5z
				 M32.1,28.1v1.7c-0.4,0.2-0.7,0.7-0.7,1.1c0,0.5,0.3,0.9,0.7,1.1v1.7c-1.3-0.3-2.2-1.4-2.2-2.8C29.8,29.5,30.8,28.4,32.1,28.1z
				 M29.7,35.9h0.8c0.2,0,0.3,0.1,0.4,0.3c0.2,0.6,0.6,1.1,1.2,1.3v1.6c-1.4-0.3-2.5-1.4-2.7-2.8l0-0.1C29.3,36,29.5,35.9,29.7,35.9
				z M48.8,52.2c-0.3,0-0.6-0.1-0.9-0.2c-0.1-0.1-0.2-0.1-0.3-0.1C45.3,50.7,42.7,50,40,50c-2.7,0-5.2,0.6-7.4,1.7
				c-0.2,0.1-0.4,0.2-0.6,0.3c-0.3,0.1-0.5,0.1-0.8,0.1c-1.4,0-2.5-1.1-2.5-2.5c0-0.9,0.5-1.7,1.1-2.1c0.2-0.1,0.4-0.2,0.5-0.3
				c2.9-1.4,6.2-2.3,9.6-2.3c3.4,0,6.7,0.8,9.6,2.2c0.2,0.1,0.5,0.2,0.7,0.3c0.6,0.5,1.1,1.2,1.1,2.1C51.3,51,50.2,52.2,48.8,52.2z"
				/>
			<path fill="#FFFFFF" d="M49.1,35.7c0-0.7-0.4-1.3-1-1.6v3.3C48.7,37,49.1,36.4,49.1,35.7z"/>
			<path fill="#FFFFFF" d="M34.6,35.7c0-0.7-0.4-1.3-1-1.6v3.3C34.2,37,34.6,36.4,34.6,35.7z"/>
		</g>
	</g>
</g>
</svg>
