<svg xmlns="http://www.w3.org/2000/svg" width="19.312" height="19.38" viewBox="0 0 19.312 19.38">
  <defs>
    <style>
      .cls-1 {
        fill: #6f7275;
        fill-rule: evenodd;
      }
    </style>
  </defs>
  <path id="PLUS_copy_13" data-name="PLUS copy 13" class="cls-1" d="M589.851,2057.06h-7.1v7.82a0.806,0.806,0,0,1-.806.81h-1.2a0.806,0.806,0,0,1-.805-0.81v-7.82h-7.789a0.8,0.8,0,0,1-.8-0.8v-1.2a0.806,0.806,0,0,1,.8-0.81h7.789v-7.13a0.806,0.806,0,0,1,.805-0.81h1.2a0.806,0.806,0,0,1,.806.81v7.13h7.1a0.806,0.806,0,0,1,.8.81v1.2A0.8,0.8,0,0,1,589.851,2057.06Z" transform="translate(-571.344 -2046.31)"/>
</svg>
