<?xml version="1.0" encoding="utf-8"?>
<!-- Generator: Adobe Illustrator 19.0.0, SVG Export Plug-In . SVG Version: 6.00 Build 0)  -->
<svg version="1.1" id="Layer_1" xmlns="http://www.w3.org/2000/svg" xmlns:xlink="http://www.w3.org/1999/xlink" x="0px" y="0px"
	 viewBox="0 0 80 160" style="enable-background:new 0 0 80 160;" xml:space="preserve">
<style type="text/css">
	.st0{fill:#F6DCEE;}
	.st1{fill:#E18CC8;}
</style>
<g>
	<g>
		<g id="XMLID_11_">
			<path id="XMLID_23_" class="st0" d="M40,83c20.4,0,37,16.6,37,37s-16.6,37-37,37S3,140.4,3,120S19.6,83,40,83 M40,80
				C17.9,80,0,97.9,0,120s17.9,40,40,40s40-17.9,40-40S62.1,80,40,80L40,80z"/>
		</g>
		<g>
			<path id="XMLID_10_" class="st1" d="M32.7,128.5c-0.1-0.5-0.6-0.8-1.2-0.8h-3.2c-0.7,0-1.3,0.5-1.3,1.1l0,0.2
				c0.9,4.4,4.8,7.9,9.8,9v-5.2C34.8,132,33.2,130.4,32.7,128.5z"/>
			<path id="XMLID_9_" class="st1" d="M28.9,110.8c0,4.3,3.2,8,7.9,9.2v-5.5c-1.4-0.9-2.2-2.3-2.2-3.7c0-1.5,0.8-2.9,2.2-3.7v-5.5
				C32.1,102.8,28.9,106.4,28.9,110.8z"/>
			<path class="st1" d="M43.2,115.8l-0.2,0V107l0.3,0.3c0.7,0.5,1.3,1.2,1.6,2c0.2,0.5,0.7,0.7,1.2,0.7h3.2c0.7,0,1.3-0.5,1.3-1.1
				l0-0.3c-1-3.4-3.8-6-7.5-7l-0.1,0v-2.9c0-0.7-0.7-1.3-1.5-1.3c-0.8,0-1.5,0.6-1.5,1.3V132v5.1v4.3c0,0.7,0.7,1.3,1.5,1.3
				c0.8,0,1.5-0.6,1.5-1.3v-3.2c5.8-1.3,10-5.9,10-11.2C53,121.7,49,117.1,43.2,115.8z M43.3,132.7l-0.3,0.1v-11.8l0.3,0.1
				c2.5,1.1,4,3.3,4,5.7C47.3,129.3,45.8,131.5,43.3,132.7z"/>
		</g>
	</g>
	<g>
		<path id="XMLID_5_" class="st1" d="M43.3,41.2l-0.3-0.1v11.8l0.3-0.1c2.5-1.1,4-3.3,4-5.8C47.3,44.5,45.8,42.3,43.3,41.2z"/>
		<path class="st1" d="M40,0C17.9,0,0,17.9,0,40c0,22.1,17.9,40,40,40s40-17.9,40-40C80,17.9,62.1,0,40,0z M36.8,58.1
			c-5-1.1-8.9-4.6-9.8-9l0-0.2c0-0.6,0.6-1.1,1.3-1.1h3.2c0.6,0,1.1,0.3,1.2,0.8c0.6,1.9,2.1,3.4,4.1,4.3V58.1z M36.8,27
			c-1.4,0.9-2.2,2.3-2.2,3.7c0,1.5,0.8,2.9,2.2,3.7V40c-4.7-1.2-7.9-4.9-7.9-9.2c0-4.3,3.2-8,7.9-9.2V27z M43.1,58.1v3.2
			c0,0.7-0.7,1.3-1.5,1.3c-0.8,0-1.5-0.6-1.5-1.3V57V52V18.7c0-0.7,0.7-1.3,1.5-1.3c0.8,0,1.5,0.6,1.5,1.3v2.9l0.1,0
			c3.7,1,6.5,3.7,7.5,7l0,0.3c0,0.6-0.6,1.1-1.3,1.1h-3.2c-0.5,0-1-0.3-1.2-0.7c-0.3-0.7-0.9-1.4-1.6-2L43.1,27v8.8l0.2,0
			C49,37.1,53,41.7,53,46.9C53,52.2,48.8,56.8,43.1,58.1z"/>
	</g>
</g>
</svg>
