<?xml version="1.0" encoding="utf-8"?>
<!-- Generator: Adobe Illustrator 19.0.0, SVG Export Plug-In . SVG Version: 6.00 Build 0)  -->
<svg version="1.1" id="Layer_1" xmlns="http://www.w3.org/2000/svg" xmlns:xlink="http://www.w3.org/1999/xlink" x="0px" y="0px"
	 viewBox="0 0 80 160" style="enable-background:new 0 0 80 160;" xml:space="preserve">
<style type="text/css">
	.st0{fill:#BCF2E7;}
	.st1{fill:#20D4AF;}
</style>
<g id="XMLID_2_">
	<g id="XMLID_15_">
		<g id="XMLID_24_">
			<path id="XMLID_12_" class="st0" d="M40,83c20.4,0,37,16.6,37,37s-16.6,37-37,37S3,140.4,3,120S19.6,83,40,83 M40,80
				C17.9,80,0,97.9,0,120c0,22.1,17.9,40,40,40s40-17.9,40-40C80,97.9,62.1,80,40,80L40,80z"/>
		</g>
		<g id="XMLID_16_">
			<g id="XMLID_18_">
				<path id="XMLID_23_" class="st1" d="M51.2,131.4c-0.1-0.3-0.4-0.6-0.8-0.6h-1.7c-0.4,0-0.8,0.3-0.8,0.8l0,0.1
					c0.5,2.8,2.8,5,5.5,5.6V134C52.4,133.5,51.5,132.6,51.2,131.4z"/>
				<path id="XMLID_20_" class="st1" d="M56.6,123.7v-4.9c0.3,0.3,0.6,0.7,0.8,1.1c0.1,0.3,0.4,0.5,0.7,0.5h1.7
					c0.4,0,0.8-0.3,0.8-0.8l0-0.2c-0.5-2.1-2.1-3.7-4-4.3v-1.6c0-0.5-0.4-0.9-0.9-0.9c-0.5,0-0.9,0.4-0.9,0.9v0.2v22.6
					c0,0.5,0.4,0.9,0.9,0.9c0.1,0,0.1,0,0.1,0l0,0c3.3-0.5,5.9-3.4,5.9-6.9C61.8,127.2,59.5,124.5,56.6,123.7z M56.6,133.8v-6.7
					c1.2,0.6,2,1.9,2,3.3C58.6,131.9,57.8,133.1,56.6,133.8z"/>
				<path id="XMLID_19_" class="st1" d="M49,120.8c0,2.8,1.9,5.1,4.5,5.7v-3.4c-0.8-0.5-1.4-1.3-1.4-2.3c0-1,0.5-1.9,1.4-2.3v-3.4
					C50.9,115.7,49,118,49,120.8z"/>
			</g>
			<path id="XMLID_17_" class="st1" d="M44.6,132.2l0-0.2l0-0.5c0-2.1,1.7-3.8,3.8-3.8H49c-2.1-1.6-3.4-4.2-3.4-7
				c0-1.9,0.6-3.6,1.6-5.1c-0.7-0.3-1.5-0.6-2.3-0.9c2.3-1.9,3.8-4.8,3.8-8c0-5.6-4.6-10.2-10.2-10.2c0,0,0,0,0,0c0,0,0,0,0,0
				c-5.6,0-10.2,4.6-10.2,10.2c0,3.2,1.5,6.1,3.8,8c-2.5,0.8-4.7,1.9-6.7,3.5l0.1,0.1c-4,3.1-5.7,7.6-7.1,12.7
				c-0.1,0.4-0.2,0.9-0.2,1.3c0,2.2-0.5,4.8,3.3,4.8c0,0,7.9,0,16.9,0c3.1,0,6.1,0,8.6,0C45.9,135.8,45,134.1,44.6,132.2z"/>
		</g>
	</g>
	<g id="XMLID_3_">
		<path id="XMLID_5_" class="st1" d="M40,0C17.9,0,0,17.9,0,40s17.9,40,40,40c22.1,0,40-17.9,40-40S62.1,0,40,0z M38.5,57.2
			c-9,0-16.9,0-16.9,0c-3.8,0-3.3-2.6-3.3-4.8c0-0.5,0.1-0.9,0.2-1.3c1.3-5.1,3.1-9.6,7.1-12.7l-0.1-0.1c2-1.5,4.3-2.7,6.7-3.5
			c-2.3-1.9-3.8-4.8-3.8-8c0-5.6,4.6-10.2,10.2-10.2c0,0,0,0,0,0s0,0,0,0c5.6,0,10.2,4.6,10.2,10.2c0,3.2-1.5,6.1-3.8,8
			c0.8,0.2,1.5,0.5,2.3,0.9c-1,1.4-1.6,3.2-1.6,5.1c0,2.8,1.3,5.3,3.4,7h-0.7c-2.1,0-3.8,1.7-3.8,3.8l0,0.5l0,0.2
			c0.4,1.9,1.3,3.6,2.6,5C44.6,57.2,41.6,57.2,38.5,57.2z M53.5,57.3c-2.7-0.5-5-2.8-5.5-5.6l0-0.1c0-0.4,0.3-0.8,0.8-0.8h1.7
			c0.4,0,0.7,0.2,0.8,0.6c0.3,1.2,1.2,2.2,2.3,2.6V57.3z M53.5,38.5c-0.8,0.5-1.4,1.3-1.4,2.3c0,1,0.5,1.9,1.4,2.3v3.4
			c-2.6-0.6-4.5-2.9-4.5-5.7c0-2.8,1.9-5.1,4.5-5.7V38.5z M55.8,57.3L55.8,57.3c-0.1,0-0.1,0-0.2,0c-0.5,0-0.9-0.4-0.9-0.9V33.9
			v-0.2c0-0.5,0.4-0.9,0.9-0.9c0.5,0,0.9,0.4,0.9,0.9v1.6c1.9,0.6,3.4,2.2,4,4.3l0,0.2c0,0.4-0.3,0.8-0.8,0.8h-1.7
			c-0.3,0-0.6-0.2-0.7-0.5c-0.2-0.4-0.4-0.8-0.8-1.1v4.9c3,0.8,5.2,3.5,5.2,6.7C61.8,53.9,59.2,56.8,55.8,57.3z"/>
		<path id="XMLID_4_" class="st1" d="M56.6,47.1v6.7c1.2-0.6,2-1.9,2-3.3C58.6,49,57.8,47.8,56.6,47.1z"/>
	</g>
</g>
</svg>
