<?xml version="1.0" encoding="utf-8"?>
<!-- Generator: Adobe Illustrator 19.0.0, SVG Export Plug-In . SVG Version: 6.00 Build 0)  -->
<svg version="1.1" id="Layer_1" xmlns="http://www.w3.org/2000/svg" xmlns:xlink="http://www.w3.org/1999/xlink" x="0px" y="0px"
	 viewBox="0 0 80 160" style="enable-background:new 0 0 80 160;" xml:space="preserve">
<style type="text/css">
	.st0{fill:#B2D3DF;}
	.st1{fill:#006E96;}
</style>
<g>
	<g>
		<g id="XMLID_6_">
			<path id="XMLID_19_" class="st0" d="M40,83c20.4,0,37,16.6,37,37s-16.6,37-37,37S3,140.4,3,120S19.6,83,40,83 M40,80
				C17.9,80,0,97.9,0,120s17.9,40,40,40s40-17.9,40-40S62.1,80,40,80L40,80z"/>
		</g>
		<g>
			<path id="XMLID_5_" class="st1" d="M64.2,136.6H19.3v-34c0-0.8-0.6-1.4-1.4-1.4c-0.8,0-1.4,0.6-1.4,1.4v35.5
				c0,0.8,0.6,1.4,1.4,1.4h46.4c0.8,0,1.4-0.6,1.4-1.4C65.6,137.3,65,136.6,64.2,136.6z"/>
			<path id="XMLID_4_" class="st1" d="M62.5,101.9H48.4l5.3,5.3l-1.9,1.9L43,118l-5.3-5.3l-15.2,15.2l5.3,5.3l9.9-9.9l5.3,5.3
				l16.1-16.1l5.3,5.3v-14.2C64.4,102.7,63.5,101.9,62.5,101.9z"/>
		</g>
	</g>
	<path class="st1" d="M40,0C17.9,0,0,17.9,0,40c0,22.1,17.9,40,40,40s40-17.9,40-40C80,17.9,62.1,0,40,0z M37.7,32.7L43,38l8.9-8.9
		l1.9-1.9l-5.3-5.3h14.1c0.9,0,1.8,0.8,1.8,1.8v14.2l-5.3-5.3L43,48.7l-5.3-5.3l-9.9,9.9l-5.3-5.3L37.7,32.7z M64.2,59.5H17.8
		c-0.8,0-1.4-0.6-1.4-1.4V22.6c0-0.8,0.6-1.4,1.4-1.4s1.4,0.6,1.4,1.4v34h44.9c0.8,0,1.4,0.6,1.4,1.4C65.6,58.8,65,59.5,64.2,59.5z"
		/>
</g>
</svg>
