<?xml version="1.0" encoding="utf-8"?>
<!-- Generator: Adobe Illustrator 19.0.0, SVG Export Plug-In . SVG Version: 6.00 Build 0)  -->
<svg version="1.1" id="Layer_1" xmlns="http://www.w3.org/2000/svg" xmlns:xlink="http://www.w3.org/1999/xlink" x="0px" y="0px"
	 viewBox="0 0 80 80" style="enable-background:new 0 0 80 80;" xml:space="preserve">
<style type="text/css">
	.st0{fill:#BCF2E7;}
	.st1{fill:#FFFFFF;}
</style>
<g>
	<g>
		<path class="st0" d="M40,3c20.4,0,37,16.6,37,37S60.4,77,40,77S3,60.4,3,40S19.6,3,40,3 M40,0C17.9,0,0,17.9,0,40
			c0,22.1,17.9,40,40,40c22.1,0,40-17.9,40-40C80,17.9,62.1,0,40,0L40,0z"/>
	</g>
	<path class="st1" d="M36,37.4L22.2,51.3c0.5,0.8,1.2,1.6,1.8,2.3l14.1-14.1L36,37.4z"/>
	<path class="st1" d="M27.9,29.3l-9.2,9.2c-0.1,1.3,0,2.6,0.2,4L30,31.4L27.9,29.3z"/>
	<path class="st1" d="M56.2,25.4L26,55.6c8.4,7.4,21.2,7.1,29.3-0.9C63.3,46.6,63.6,33.8,56.2,25.4z"/>
	<path class="st1" d="M54.2,23.4c-8.1-7.1-20.2-7.1-28.2,0l14.1,14.1L54.2,23.4z"/>
	<path class="st1" d="M24,25.4c-2.2,2.5-3.7,5.4-4.6,8.5l6.5-6.5L24,25.4z"/>
	<path class="st1" d="M32,33.4L19.6,45.7c0.3,1,0.7,2,1.2,3L34,35.4L32,33.4z"/>
</g>
</svg>
