<?xml version="1.0" encoding="utf-8"?>
<!-- Generator: Adobe Illustrator 19.0.0, SVG Export Plug-In . SVG Version: 6.00 Build 0)  -->
<svg version="1.1" id="Layer_1" xmlns="http://www.w3.org/2000/svg" xmlns:xlink="http://www.w3.org/1999/xlink" x="0px" y="0px"
	 viewBox="0 0 82.1 80" style="enable-background:new 0 0 82.1 80;" xml:space="preserve">
<style type="text/css">
	.st0{fill:#FFF7CC;}
	.st1{fill:#FFFFFF;}
</style>
<g>
	<g>
		<path class="st0" d="M42.1,3c20.4,0,37,16.6,37,37s-16.6,37-37,37s-37-16.6-37-37S21.7,3,42.1,3 M42.1,0C20,0,2.1,17.9,2.1,40
			s17.9,40,40,40s40-17.9,40-40S64.1,0,42.1,0L42.1,0z"/>
	</g>
	<path class="st1" d="M36,50.9c0,0,2.8,4.5,3.3,5.4c0.5,0.9,6.1-0.6,7.1,1c0,0-1.5-0.1-2.4,0.4c0,0,1.4,1.3,1.6,1.9
		c0,0-1.4-0.2-2.6-0.4c0,0,0.8,1.9,0.5,2.8c0,0-2.5-3.6-4.1-3.6c-1.6,0-2.8-0.5-2.8-1.9c0-1.4-1.3-4.1-2-4.5
		C34,51.6,35.4,50,36,50.9z"/>
	<path class="st1" d="M63.5,41.8c-0.7-1.3-0.2-5.7-1.9-8.4c-1.7-2.7-6.4-2.8-9.7-3.2c-3.3-0.4-6.9-3.9-11.5-5.7
		c-2.7-1.1-7.4-1.5-11.7,0.1c1.5,1.6,2.4,3.7,2.4,6c0,4.3-3.2,8-7.6,8.9v0c0,0-1.8,0.4-3.9,0.1c-0.3,0-0.5-0.1-0.7-0.2
		c0.3,5.1,3.4,9.2,6.1,11.3c3.9,3.1,3.9,10,4,12.3c0.1,2.3,2.7,1.7,4.1,1.6c1.4-0.1,3.9,2.7,3.9,2.7c0-0.8-0.6-1.8-0.6-1.8
		c0.3-0.8,4.7,0,4.7,0c-0.1-0.7-3.3-1.9-3.3-1.9c0.5-0.7,2-0.8,2-0.8c-0.9-0.5-2-0.5-4.3-0.1c-2.3,0.4-4.3-1.5-4.8-3.6
		c-0.5-2.1-0.9-9.5,8.1-11.3c9-1.8,11.7-5.1,12.7-5.6c1-0.5,1.7-1.7,4.1,0c2.4,1.7,5.3,1.3,6.5,1.7c1.2,0.4,6.9,7.5,6.9,7.5
		C69.1,49.2,64.2,43.1,63.5,41.8z"/>
	<g>
		<path class="st1" d="M18,31.4c-0.1-0.3-0.4-0.5-0.7-0.5h-1.5c-0.4,0-0.7,0.3-0.7,0.7l0,0.1c0.5,2.3,2.6,4.2,5.1,4.7v-2.8
			C19.1,33.2,18.3,32.4,18,31.4z"/>
		<path class="st1" d="M23,25v-4.1c0.3,0.3,0.6,0.6,0.7,1c0.1,0.3,0.4,0.4,0.7,0.4H26c0.4,0,0.7-0.3,0.7-0.6l0-0.2
			c-0.5-1.7-1.9-3.1-3.7-3.6v-1.4c0-0.4-0.4-0.7-0.8-0.7c-0.5,0-0.8,0.3-0.8,0.7v0.2v18.9c0,0.4,0.4,0.7,0.8,0.7c0.1,0,0.1,0,0.1,0
			l0,0c3.1-0.4,5.5-2.8,5.5-5.7C27.8,27.9,25.8,25.6,23,25z M23,33.4v-5.6c1.1,0.5,1.9,1.6,1.9,2.8C24.9,31.8,24.1,32.9,23,33.4z"/>
		<path class="st1" d="M16,22.5c0,2.3,1.8,4.3,4.2,4.8v-2.8c-0.8-0.4-1.3-1.1-1.3-1.9c0-0.8,0.5-1.6,1.3-1.9v-2.8
			C17.8,18.3,16,20.2,16,22.5z"/>
	</g>
</g>
</svg>
