<?xml version="1.0" encoding="utf-8"?>
<!-- Generator: Adobe Illustrator 19.0.0, SVG Export Plug-In . SVG Version: 6.00 Build 0)  -->
<svg version="1.1" id="Layer_1" xmlns="http://www.w3.org/2000/svg" xmlns:xlink="http://www.w3.org/1999/xlink" x="0px" y="0px"
	 viewBox="0 0 80 80" style="enable-background:new 0 0 80 80;" xml:space="preserve">
<style type="text/css">
	.st0{fill:#FFF7CC;}
	.st1{fill:#FFFFFF;}
</style>
<g>
	<g>
		<path class="st0" d="M40,3c20.4,0,37,16.6,37,37S60.4,77,40,77S3,60.4,3,40S19.6,3,40,3 M40,0C17.9,0,0,17.9,0,40s17.9,40,40,40
			c22.1,0,40-17.9,40-40S62.1,0,40,0L40,0z"/>
	</g>
	<g>
		<path class="st1" d="M65.3,47.6c0,0-5.8-7.2-7-7.6c-1.2-0.4-4.1,0-6.5-1.7c-2.4-1.7-3.1-0.5-4.1,0c-1,0.5-3.8,3.8-12.9,5.6
			c-9.1,1.8-8.7,9.3-8.2,11.4c0.5,2.1,2.5,4,4.9,3.6c2.3-0.4,3.4-0.5,4.3,0.1c0,0-1.5,0.1-2,0.9c0,0,3.2,1.2,3.3,1.9
			c0,0-4.5-0.8-4.8,0c0,0,0.6,1,0.6,1.8c0,0-2.5-2.8-3.9-2.7c-1.4,0.1-4,0.7-4.1-1.6c-0.1-2.3-0.1-9.3-4-12.4
			c-3.9-3.1-9-10.7-4.2-19.5c4.8-8.8,15.3-8.8,19.9-7c4.6,1.8,8.2,5.4,11.6,5.8c3.3,0.4,8.1,0.5,9.8,3.2c1.7,2.7,1.2,7.2,1.9,8.5
			C60.5,39.2,65.4,45.4,65.3,47.6z"/>
		<path class="st1" d="M32,47.2c0,0,2.8,4.5,3.3,5.5c0.5,0.9,6.2-0.6,7.2,1c0,0-1.5-0.1-2.4,0.4c0,0,1.4,1.3,1.6,1.9
			c0,0-1.4-0.2-2.6-0.4c0,0,0.8,2,0.5,2.9c0,0-2.5-3.6-4.1-3.6c-1.6,0-2.8-0.5-2.8-1.9c0-1.4-1.3-4.1-2-4.5
			C30,47.9,31.4,46.2,32,47.2z"/>
	</g>
</g>
</svg>
