<?xml version="1.0" encoding="utf-8"?>
<!-- Generator: Adobe Illustrator 19.0.0, SVG Export Plug-In . SVG Version: 6.00 Build 0)  -->
<svg version="1.1" id="Layer_1" xmlns="http://www.w3.org/2000/svg" xmlns:xlink="http://www.w3.org/1999/xlink" x="0px" y="0px"
	 viewBox="0 0 80 80" style="enable-background:new 0 0 80 80;" xml:space="preserve">
<style type="text/css">
	.st0{fill:#B2D3DF;}
	.st1{fill:#FFFFFF;}
</style>
<g>
	<g>
		<path class="st0" d="M40,3c20.4,0,37,16.6,37,37S60.4,77,40,77S3,60.4,3,40S19.6,3,40,3 M40,0C17.9,0,0,17.9,0,40s17.9,40,40,40
			c22.1,0,40-17.9,40-40S62.1,0,40,0L40,0z"/>
	</g>
	<g>
		<g>
			<path class="st1" d="M52.9,28.6c-8.2,0-14.9,6.7-14.9,14.9s6.7,14.9,14.9,14.9c8.2,0,14.9-6.7,14.9-14.9S61.1,28.6,52.9,28.6z
				 M52.9,54.9c-6.3,0-11.4-5.1-11.4-11.4s5.1-11.4,11.4-11.4c6.3,0,11.4,5.1,11.4,11.4S59.2,54.9,52.9,54.9z"/>
			<path class="st1" d="M50.1,48c-0.1-0.3-0.3-0.4-0.6-0.4h-1.3c-0.3,0-0.6,0.3-0.6,0.6l0,0.1c0.4,2.1,2.1,3.8,4.2,4.2V50
				C51.1,49.6,50.4,48.9,50.1,48z"/>
			<path class="st1" d="M54.2,42.2v-3.7c0.3,0.2,0.5,0.5,0.6,0.9c0.1,0.2,0.3,0.4,0.6,0.4h1.3c0.3,0,0.6-0.3,0.6-0.6l0-0.1
				c-0.4-1.6-1.6-2.8-3-3.2v-1.2c0-0.4-0.3-0.7-0.7-0.7c-0.4,0-0.7,0.3-0.7,0.7v0.2v17c0,0.4,0.3,0.7,0.7,0.7c0,0,0.1,0,0.1,0l0,0
				c2.5-0.4,4.5-2.5,4.5-5.2C58.1,44.9,56.5,42.8,54.2,42.2z M54.2,49.8v-5c0.9,0.5,1.5,1.4,1.5,2.5C55.7,48.4,55.1,49.3,54.2,49.8z
				"/>
			<path class="st1" d="M48.5,40.1c0,2.1,1.5,3.8,3.4,4.3v-2.5c-0.6-0.3-1-1-1-1.7c0-0.7,0.4-1.4,1-1.7v-2.5
				C49.9,36.2,48.5,38,48.5,40.1z"/>
		</g>
		<g>
			<path class="st1" d="M47.7,20H19.7c-1.2,0-2.1,0.9-2.1,2.1c0,1.2,0.9,2.1,2.1,2.1h28.1c1.2,0,2.1-0.9,2.1-2.1
				C49.8,20.9,48.9,20,47.7,20z"/>
		</g>
		<path class="st1" d="M45.1,26.8H19.7c-1.2,0-2.1,0.9-2.1,2.1c0,1.2,0.9,2.1,2.1,2.1H39C40.7,29.2,42.8,27.8,45.1,26.8z"/>
		<path class="st1" d="M37,33.6H19.7c-1.2,0-2.1,0.9-2.1,2.1c0,1.2,0.9,2.1,2.1,2.1h15.2C35.4,36.3,36.1,34.9,37,33.6z"/>
		<path class="st1" d="M34,43.5c0-1,0.1-2.1,0.3-3.1H19.7c-1.2,0-2.1,0.9-2.1,2.1c0,1.2,0.9,2.1,2.1,2.1h14.4
			C34,44.3,34,43.9,34,43.5z"/>
		<path class="st1" d="M34.4,47.3H19.7c-1.2,0-2.1,0.9-2.1,2.1c0,1.2,0.9,2.1,2.1,2.1h16.2C35.2,50.2,34.7,48.8,34.4,47.3z"/>
		<path class="st1" d="M37.4,54.1H19.7c-1.2,0-2.1,0.9-2.1,2.1c0,1.2,0.9,2.1,2.1,2.1h22C40,57.1,38.6,55.7,37.4,54.1z"/>
	</g>
</g>
</svg>
