<?xml version="1.0" encoding="utf-8"?>
<!-- Generator: Adobe Illustrator 19.0.0, SVG Export Plug-In . SVG Version: 6.00 Build 0)  -->
<svg version="1.1" id="Layer_1" xmlns="http://www.w3.org/2000/svg" xmlns:xlink="http://www.w3.org/1999/xlink" x="0px" y="0px"
	 viewBox="0 0 50 100" style="enable-background:new 0 0 50 100;" xml:space="preserve">
<style type="text/css">
	.st0{fill:#1D1D1B;}
	.st1{fill:#20D4AF;}
	.st2{fill:#8FE9D7;}
	.st3{fill:#D2F6EF;}
	.st4{fill:#9B82B8;}
	.st5{fill:#704C99;}
	.st6{fill:#4092B0;}
	.st7{fill:#B2D3DF;}
	.st8{fill:#8CBED0;}
	.st9{fill:#66A8C0;}
	.st10{fill:#006E96;}
	.st11{fill:#FFEB7F;}
	.st12{fill:#FFD700;}
	.st13{fill:#FFAA87;}
	.st14{fill:#FF550F;}
	.st15{fill:#D9D9D6;}
	.st16{fill:#7FD7FF;}
	.st17{fill:#00AFFF;}
	.st18{fill:#B2E7FF;}
	.st19{fill:#E18CC8;}
	.st20{fill:#F6DCEE;}
	.st21{fill:#F0C5E3;}
</style>
<text transform="matrix(1 0 0 1 -960.9722 96.8727)"><tspan x="0" y="0" class="st0" style="font-family:'Gotham-Book'; font-size:14px;">Planning &amp; </tspan><tspan x="0.5" y="16.8" class="st0" style="font-family:'Gotham-Book'; font-size:14px;">Budgeting</tspan></text>
<g>
	<path class="st1" d="M-930.5,30.9h12.9c1.6,0,1.9,0.8,0.8,1.8l-4,3.8h-6.5l-4.1-3.8C-932.5,31.7-932.1,30.9-930.5,30.9z"/>
	<path class="st2" d="M-920.1,38.8c0,0.5-0.5,0.9-1,0.9h-6c-0.6,0-1-0.4-1-0.9c0-0.1,0-0.2,0.1-0.3c0.1-0.4,0.5-0.6,0.9-0.6h6
		c0.4,0,0.8,0.3,0.9,0.6C-920.1,38.6-920.1,38.7-920.1,38.8z"/>
	<path class="st1" d="M-909.9,69.2c-0.4,0.7-1.4,1.3-1.4,1.3c-0.5,0.3-1.1,0.4-1.7,0.4H-935c-0.6,0-1.2-0.2-1.6-0.4
		c0,0-0.8-0.4-1.2-1c-0.4-0.6-0.8-1.5-0.8-2.2l0.5-11.8c0,0,0,0,0-0.1c0,0,0-0.1,0-0.1c0-7.8,6.3-14.2,14.2-14.2
		c7.8,0,14.2,6.3,14.2,14.2c0,0,0,0.1,0,0.1c0,0,0,0,0,0.1l0.5,11.8C-909.4,68-909.6,68.7-909.9,69.2z"/>
	<path class="st3" d="M-922.5,54.1L-922.5,54.1l-0.1-4.8l0.2,0.1c0.4,0.3,0.6,0.7,0.8,1.1c0.1,0.2,0.3,0.4,0.6,0.4h1.6
		c0.3,0,0.6-0.3,0.6-0.6l0-0.2c-0.5-1.8-1.8-3.2-3.6-3.8l-0.1,0v-1.5c0-0.4-0.3-0.7-0.7-0.7c-0.4,0-0.7,0.3-0.7,0.7v18v2.7v2.3
		c0,0.4,0.3,0.7,0.7,0.7c0.4,0,0.7-0.3,0.7-0.7v-1.7c2.8-0.7,4.8-3.2,4.8-6C-917.7,57.3-919.7,54.9-922.5,54.1z M-922.4,63.3
		l-0.1,0.1V57l0.1,0.1c1.2,0.6,1.9,1.8,1.9,3.1C-920.5,61.5-921.2,62.6-922.4,63.3z"/>
	<path class="st3" d="M-927.6,61c-0.1-0.3-0.3-0.5-0.6-0.5h-1.6c-0.3,0-0.6,0.3-0.6,0.6l0,0.1c0.4,2.4,2.3,4.3,4.8,4.9v-2.8
		C-926.6,62.9-927.3,62-927.6,61z"/>
	<path class="st3" d="M-929.4,51.4c0,2.3,1.6,4.3,3.8,5v-2.9c-0.7-0.5-1.1-1.2-1.1-2c0-0.8,0.4-1.6,1.1-2v-2.9
		C-927.9,47.1-929.4,49.1-929.4,51.4z"/>
</g>
<text transform="matrix(1 0 0 1 -696.1458 96.8728)"><tspan x="0" y="0" class="st0" style="font-family:'Gotham-Book'; font-size:14px;">Home  </tspan><tspan x="-1.6" y="16.8" class="st0" style="font-family:'Gotham-Book'; font-size:14px;">Buying</tspan></text>
<g>
	<path class="st4" d="M-661.9,40.4l-10.9-8.3c-0.1,0-0.1-0.1-0.2-0.1c0.1,0,0.1,0,0.1,0.1c-0.5-0.4-1.1-0.5-1.7-0.5
		c-0.6,0-1.2,0.2-1.7,0.5c0,0-0.1,0-0.1,0.1l-20.6,15.6c-0.6,0.5-0.8,1.4-0.3,2.1c0.5,0.6,1.4,0.8,2.1,0.3l19.9-15.1c0,0,0,0,0,0
		c0.2-0.1,0.4-0.2,0.6-0.2c0.2,0,0.4,0.1,0.6,0.2c0,0,0,0,0,0l7.6,5.8c1.1-0.2,2.3-0.4,3.4-0.4C-662.6,40.3-662.2,40.4-661.9,40.4z"
		/>
	<path class="st5" d="M-684.4,35.5c0-0.9-0.8-1.7-1.7-1.7h-3.2c-0.9,0-1.7,0.8-1.7,1.7v5.7l6.6-5V35.5z"/>
	<path class="st5" d="M-679.3,56.8C-679.3,56.8-679.3,56.8-679.3,56.8c0-6.6,3.9-12.2,9.4-14.9l-4-3c0,0,0,0,0,0
		c-0.2-0.1-0.4-0.2-0.6-0.2c-0.2,0-0.4,0.1-0.6,0.2c0,0,0,0,0,0l-15.6,11.8c-0.3,0.2-0.5,0.6-0.5,1v14c0,2.4,2,4.4,4.4,4.4h7.6V56.8
		L-679.3,56.8z"/>
	<path class="st4" d="M-662.9,43.3c-7.4,0-13.5,6.1-13.5,13.5s6.1,13.5,13.5,13.5c7.4,0,13.5-6,13.5-13.5S-655.5,43.3-662.9,43.3z
		 M-662.9,67.1c-5.7,0-10.3-4.6-10.3-10.3s4.6-10.3,10.3-10.3c5.7,0,10.3,4.6,10.3,10.3S-657.2,67.1-662.9,67.1z"/>
	<path class="st5" d="M-665.4,60.8c-0.1-0.2-0.3-0.4-0.5-0.4h-1.1c-0.3,0-0.5,0.2-0.5,0.5l0,0.1c0.4,1.9,1.9,3.4,3.8,3.8v-2.2
		C-664.5,62.3-665.2,61.6-665.4,60.8z"/>
	<path class="st5" d="M-661.7,55.6v-3.3c0.2,0.2,0.4,0.5,0.5,0.8c0.1,0.2,0.3,0.4,0.5,0.4h1.2c0.3,0,0.5-0.2,0.5-0.5l0-0.1
		c-0.4-1.4-1.4-2.5-2.7-2.9v-1.1c0-0.3-0.3-0.6-0.6-0.6c-0.3,0-0.6,0.3-0.6,0.6v0.2v15.4c0,0.3,0.3,0.6,0.6,0.6c0,0,0.1,0,0.1,0l0,0
		c2.3-0.3,4-2.3,4-4.7C-658.1,58-659.6,56.1-661.7,55.6z M-661.7,62.5v-4.5c0.8,0.4,1.4,1.3,1.4,2.3
		C-660.3,61.2-660.9,62-661.7,62.5z"/>
	<path class="st5" d="M-666.9,53.6c0,1.9,1.3,3.5,3.1,3.9v-2.3c-0.6-0.3-0.9-0.9-0.9-1.6c0-0.7,0.4-1.3,0.9-1.6v-2.3
		C-665.5,50.1-666.9,51.7-666.9,53.6z"/>
</g>
<text transform="matrix(1 0 0 1 -574.2169 96.8727)"><tspan x="0" y="0" class="st0" style="font-family:'Gotham-Book'; font-size:14px;">Investing &amp; </tspan><tspan x="11.8" y="16.8" class="st0" style="font-family:'Gotham-Book'; font-size:14px;">Savings</tspan></text>
<g>
	<path class="st6" d="M-515.7,66.5h-38.5V47.4c0-0.6-0.5-1.2-1.2-1.2s-1.2,0.5-1.2,1.2v20.3c0,0.6,0.5,1.2,1.2,1.2h39.7
		c0.6,0,1.2-0.5,1.2-1.2C-514.5,67-515,66.5-515.7,66.5z"/>
	<path class="st7" d="M-546.6,53.8h-2c-1.6,0-2.9,1.3-2.9,2.9v4.6c0,1.6,1.3,2.9,2.9,2.9h2c1.6,0,2.9-1.3,2.9-2.9v-4.6
		C-543.7,55-545,53.8-546.6,53.8z"/>
	<path class="st8" d="M-536.9,46.8h-2c-1.6,0-2.9,1.3-2.9,2.9v11.6c0,1.6,1.3,2.9,2.9,2.9h2c1.6,0,2.9-1.3,2.9-2.9V49.7
		C-534,48.1-535.3,46.8-536.9,46.8z"/>
	<path class="st9" d="M-527.1,39.9h-2c-1.6,0-2.9,1.3-2.9,2.9v18.5c0,1.6,1.3,2.9,2.9,2.9h2c1.6,0,2.9-1.3,2.9-2.9V42.8
		C-524.3,41.2-525.6,39.9-527.1,39.9z"/>
	<path class="st10" d="M-517.4,33h-2c-1.6,0-2.9,1.3-2.9,2.9v25.4c0,1.6,1.3,2.9,2.9,2.9h2c1.6,0,2.9-1.3,2.9-2.9V35.8
		C-514.5,34.3-515.8,33-517.4,33z"/>
</g>
<text transform="matrix(1 0 0 1 -425.9965 96.873)"><tspan x="0" y="0" class="st0" style="font-family:'Gotham-Book'; font-size:14px;">KiwiSaver &amp; </tspan><tspan x="2.5" y="16.8" class="st0" style="font-family:'Gotham-Book'; font-size:14px;">Retirement</tspan></text>
<g>
	<path class="st11" d="M-390,37.8c0.5,0.1,1-0.2,1.1-0.6c0-0.1,0.1-0.2,0.1-0.2c0.6-1.9,2.4-3.2,4.4-3.2c2,0,3.8,1.3,4.4,3.2
		c0,0.1,0.1,0.2,0.1,0.2c0.1,0.5,0.6,0.8,1.1,0.6c0.5-0.1,0.8-0.6,0.6-1.1c-0.8-2.8-3.3-4.8-6.2-4.8c-2.9,0-5.5,2-6.3,4.8
		C-390.8,37.2-390.5,37.7-390,37.8z"/>
	<path class="st12" d="M-365.2,51.9c-0.5-0.4-1.1-0.7-1.8-0.7h-0.4c-1.5-6.9-8.5-12.1-16.9-12.1c-7.1,0-13.1,3.6-15.8,8.8l0,0
		c-0.5,0.9-1.4,1.5-2.5,1.5h-0.7c-1,0-1.8,0.8-1.8,1.8v5.3c0,1,0.8,1.8,1.8,1.8h0.7c1.1,0,2,0.6,2.5,1.5l0,0c0.9,1.8,2.3,3.4,4,4.8
		l0,0l0,0c1.7,1.4,2.9,3.3,3.6,5.4h5.1v-1.5c0-1.7,1.4-3,3-3c1.7,0,3,1.4,3,3v1.5h5.1c0.7-2.1,2-3.9,3.6-5.4l0,0
		c2.6-2.1,4.4-4.9,5.1-8.1h0.4c0.7,0,1.3-0.3,1.8-0.7c0.5-0.5,0.9-1.2,0.9-2S-364.6,52.4-365.2,51.9z M-377.9,44.3
		c-0.2,0.8-1.1,1.2-1.8,0.9c-1.4-0.5-3-0.7-4.6-0.7c-1.5,0-3,0.2-4.4,0.7c-0.8,0.2-1.6-0.2-1.8-0.9c-0.2-0.8,0.2-1.6,0.9-1.8
		c1.7-0.5,3.5-0.8,5.3-0.8c1.9,0,3.7,0.3,5.4,0.9C-378.1,42.8-377.7,43.6-377.9,44.3z"/>
</g>
<text transform="matrix(1 0 0 1 -281.5814 96.8729)"><tspan x="0" y="0" class="st0" style="font-family:'Gotham-Book'; font-size:14px;">Protecting  </tspan><tspan x="13.8" y="16.8" class="st0" style="font-family:'Gotham-Book'; font-size:14px;">Wealth</tspan></text>
<g>
	<path class="st13" d="M107.5,37.7c-0.3-0.3-0.8-0.5-1.3-0.5c-0.5,0-1,0.2-1.3,0.5l-2.7,2.6c-0.7,0.7-0.7,1.8,0,2.5l2.3,2.2l5.3-5.1
		L107.5,37.7z"/>
	<path class="st13" d="M124.9,60.3c0.2-0.2,0.2-0.5,0.1-0.7l-3.9-8l-5.2,5.1l8.3,3.7C124.4,60.5,124.7,60.4,124.9,60.3z"/>
	<polygon class="st13" points="119.4,49.8 111,41.6 105.8,46.8 114.1,55 	"/>
	<path class="st14" d="M144.7,37.7c-0.6,0-1,0.4-1,1v21.9l-7.9,7.7c-0.4,0.4-0.4,1,0,1.4c0.4,0.4,1,0.4,1.9-0.2l8.2-8
		c-0.3,0-0.2-0.3-0.2-0.5V38.6C145.7,38.1,145.3,37.7,144.7,37.7z"/>
	<path class="st13" d="M135.1,60.7c-1.5,0-2.7,1.1-2.7,2.6v5.5l8.1-8H135.1z"/>
	<path class="st14" d="M141.6,58.5V38.7c0-2-1.7-3.6-3.8-3.6h-2.2v2.6c0,1.5-1.4,2.6-3.2,2.6c-1.8,0-3.2-1.2-3.2-2.6V35H126v2.6
		c0,1.5-1.4,2.6-3.2,2.6c-1.8,0-3.2-1.2-3.2-2.6V35h-2.2c-2.1,0-3.8,1.6-3.8,3.6v2.4l10.8,10.6l3.6,11.5L116,60l-2.3-2.2v8.5
		c0,2,1.7,3.6,3.8,3.6h12.9v-6.6c0-2.6,2.2-4.7,4.8-4.7H141.6z"/>
	<path class="st13" d="M122.8,38.3c0.8,0,1.3-0.4,1.3-0.7v-5c0-0.3-0.5-0.7-1.3-0.7c-0.8,0-1.3,0.4-1.3,0.7v5
		C121.6,37.9,122.1,38.3,122.8,38.3z"/>
	<path class="st13" d="M132.9,38.3c0.8,0,1.3-0.4,1.3-0.7v-5c0-0.3-0.5-0.7-1.3-0.7c-0.8,0-1.3,0.4-1.3,0.7v5
		C131.6,37.9,132.1,38.3,132.9,38.3z"/>
</g>
<text transform="matrix(1 0 0 1 81.0639 96.873)" class="st0" style="font-family:'Gotham-Book'; font-size:14px;">Latest Posts</text>
<text transform="matrix(1 0 0 1 -124.8514 96.873)" class="st0" style="font-family:'Gotham-Book'; font-size:14px;">All Guides</text>
<text transform="matrix(1 0 0 1 -829.9652 96.8727)"><tspan x="0" y="0" class="st0" style="font-family:'Gotham-Book'; font-size:14px;">Tackling  </tspan><tspan x="14.2" y="16.8" class="st0" style="font-family:'Gotham-Book'; font-size:14px;">Debt</tspan></text>
<g>
	<path class="st1" d="M-927.3,169.5h6.5l4-3.8c1.1-1,0.7-1.8-0.8-1.8h-12.9c-1.6,0-1.9,0.8-0.8,1.8L-927.3,169.5z"/>
	<path class="st1" d="M-921.1,170.9h-6c-0.4,0-0.8,0.3-0.9,0.6c0,0.1-0.1,0.2-0.1,0.3c0,0.5,0.5,0.9,1,0.9h6c0.6,0,1-0.4,1-0.9
		c0-0.1,0-0.2-0.1-0.3C-920.3,171.2-920.6,170.9-921.1,170.9z"/>
	<path class="st1" d="M-909.8,188.5C-909.8,188.5-909.9,188.5-909.8,188.5c0-0.1,0-0.1,0-0.2c0-7.8-6.3-14.2-14.2-14.2
		c-7.8,0-14.2,6.3-14.2,14.2c0,0,0,0.1,0,0.1c0,0,0,0,0,0.1l-0.5,11.8c0,0.7,0.4,1.6,0.8,2.2c0.4,0.6,1.2,1,1.2,1
		c0.5,0.2,1,0.4,1.6,0.4h22.1c0.6,0,1.2-0.2,1.7-0.4c0,0,0.9-0.5,1.4-1.3c0.3-0.5,0.5-1.2,0.5-1.9L-909.8,188.5z M-925.6,199.2
		c-2.4-0.6-4.3-2.5-4.8-4.9l0-0.1c0-0.3,0.3-0.6,0.6-0.6h1.6c0.3,0,0.5,0.2,0.6,0.5c0.3,1,1,1.9,2,2.3V199.2z M-925.6,182.4
		c-0.7,0.5-1.1,1.2-1.1,2c0,0.8,0.4,1.5,1.1,2v2.9c-2.3-0.7-3.8-2.6-3.8-5c0-2.3,1.6-4.3,3.8-5V182.4z M-922.6,199.2v1.7
		c0,0.4-0.3,0.7-0.7,0.7c-0.4,0-0.7-0.3-0.7-0.7v-2.3v-2.7v-18c0-0.4,0.3-0.7,0.7-0.7c0.4,0,0.7,0.3,0.7,0.7v1.5l0.1,0
		c1.8,0.6,3.1,2,3.6,3.8l0,0.2c0,0.3-0.3,0.6-0.6,0.6h-1.6c-0.3,0-0.5-0.2-0.6-0.4c-0.2-0.4-0.4-0.8-0.8-1.1l-0.2-0.1v4.7l0.1,0
		c2.8,0.7,4.8,3.2,4.8,6C-917.7,196.1-919.8,198.5-922.6,199.2z"/>
	<path class="st1" d="M-922.4,190.1l-0.1-0.1v6.4l0.1-0.1c1.2-0.6,1.9-1.8,1.9-3.1C-920.5,191.9-921.2,190.7-922.4,190.1z"/>
</g>
<g>
	<path class="st5" d="M-661.9,173.4l-10.9-8.3c-0.1,0-0.1-0.1-0.2-0.1c0.1,0,0.1,0,0.1,0.1c-0.5-0.4-1.1-0.5-1.7-0.5
		c-0.6,0-1.2,0.2-1.7,0.5c0,0-0.1,0-0.1,0.1l-20.6,15.6c-0.6,0.5-0.8,1.4-0.3,2.1c0.5,0.6,1.4,0.8,2.1,0.3l19.9-15.1c0,0,0,0,0,0
		c0.2-0.1,0.4-0.2,0.6-0.2c0.2,0,0.4,0.1,0.6,0.2c0,0,0,0,0,0l7.6,5.8c1.1-0.2,2.3-0.4,3.4-0.4
		C-662.6,173.4-662.2,173.4-661.9,173.4z"/>
	<path class="st5" d="M-684.4,168.5c0-0.9-0.8-1.7-1.7-1.7h-3.2c-0.9,0-1.7,0.8-1.7,1.7v5.7l6.6-5V168.5z"/>
	<path class="st5" d="M-679.3,189.8C-679.3,189.8-679.3,189.8-679.3,189.8c0-6.6,3.9-12.2,9.4-14.9l-4-3c0,0,0,0,0,0
		c-0.2-0.1-0.4-0.2-0.6-0.2c-0.2,0-0.4,0.1-0.6,0.2c0,0,0,0,0,0l-15.6,11.8c-0.3,0.2-0.5,0.6-0.5,1v14c0,2.4,2,4.4,4.4,4.4h7.6
		V189.8L-679.3,189.8z"/>
	<path class="st5" d="M-662.9,176.3c-7.4,0-13.5,6.1-13.5,13.5s6.1,13.5,13.5,13.5c7.4,0,13.5-6,13.5-13.5S-655.5,176.3-662.9,176.3
		z M-662.9,200.1c-5.7,0-10.3-4.6-10.3-10.3s4.6-10.3,10.3-10.3c5.7,0,10.3,4.6,10.3,10.3S-657.2,200.1-662.9,200.1z"/>
	<path class="st5" d="M-665.4,193.8c-0.1-0.2-0.3-0.4-0.5-0.4h-1.1c-0.3,0-0.5,0.2-0.5,0.5l0,0.1c0.4,1.9,1.9,3.4,3.8,3.8v-2.2
		C-664.5,195.3-665.2,194.7-665.4,193.8z"/>
	<path class="st5" d="M-661.7,188.6v-3.3c0.2,0.2,0.4,0.5,0.5,0.8c0.1,0.2,0.3,0.4,0.5,0.4h1.2c0.3,0,0.5-0.2,0.5-0.5l0-0.1
		c-0.4-1.4-1.4-2.5-2.7-2.9v-1.1c0-0.3-0.3-0.6-0.6-0.6c-0.3,0-0.6,0.3-0.6,0.6v0.2v15.4c0,0.3,0.3,0.6,0.6,0.6c0,0,0.1,0,0.1,0l0,0
		c2.3-0.3,4-2.3,4-4.7C-658.1,191-659.6,189.2-661.7,188.6z M-661.7,195.5V191c0.8,0.4,1.4,1.3,1.4,2.3
		C-660.3,194.2-660.9,195.1-661.7,195.5z"/>
	<path class="st5" d="M-666.9,186.7c0,1.9,1.3,3.5,3.1,3.9v-2.3c-0.6-0.3-0.9-0.9-0.9-1.6c0-0.7,0.4-1.3,0.9-1.6v-2.3
		C-665.5,183.2-666.9,184.8-666.9,186.7z"/>
</g>
<g>
	<path class="st10" d="M-515.7,199.5h-38.5v-19.1c0-0.6-0.5-1.2-1.2-1.2s-1.2,0.5-1.2,1.2v20.3c0,0.6,0.5,1.2,1.2,1.2h39.7
		c0.6,0,1.2-0.5,1.2-1.2C-514.5,200.1-515,199.5-515.7,199.5z"/>
	<path class="st10" d="M-546.6,186.8h-2c-1.6,0-2.9,1.3-2.9,2.9v4.6c0,1.6,1.3,2.9,2.9,2.9h2c1.6,0,2.9-1.3,2.9-2.9v-4.6
		C-543.7,188.1-545,186.8-546.6,186.8z"/>
	<path class="st10" d="M-536.9,179.9h-2c-1.6,0-2.9,1.3-2.9,2.9v11.6c0,1.6,1.3,2.9,2.9,2.9h2c1.6,0,2.9-1.3,2.9-2.9v-11.6
		C-534,181.2-535.3,179.9-536.9,179.9z"/>
	<path class="st10" d="M-527.1,172.9h-2c-1.6,0-2.9,1.3-2.9,2.9v18.5c0,1.6,1.3,2.9,2.9,2.9h2c1.6,0,2.9-1.3,2.9-2.9v-18.5
		C-524.3,174.2-525.6,172.9-527.1,172.9z"/>
	<path class="st10" d="M-517.4,166h-2c-1.6,0-2.9,1.3-2.9,2.9v25.4c0,1.6,1.3,2.9,2.9,2.9h2c1.6,0,2.9-1.3,2.9-2.9v-25.4
		C-514.5,167.3-515.8,166-517.4,166z"/>
</g>
<g>
	<g>
		<path class="st12" d="M-390,170.8c0.5,0.1,1-0.2,1.1-0.6c0-0.1,0.1-0.2,0.1-0.2c0.6-1.9,2.4-3.2,4.4-3.2c2,0,3.8,1.3,4.4,3.2
			c0,0.1,0.1,0.2,0.1,0.2c0.1,0.5,0.6,0.8,1.1,0.6c0.5-0.1,0.8-0.6,0.6-1.1c-0.8-2.8-3.3-4.8-6.2-4.8c-2.9,0-5.5,2-6.3,4.8
			C-390.8,170.2-390.5,170.7-390,170.8z"/>
		<path class="st12" d="M-365.2,184.9c-0.5-0.4-1.1-0.7-1.8-0.7h-0.4c-1.5-6.9-8.5-12.1-16.9-12.1c-7.1,0-13.1,3.6-15.8,8.8l0,0
			c-0.5,0.9-1.4,1.5-2.5,1.5h-0.7c-1,0-1.8,0.8-1.8,1.8v5.3c0,1,0.8,1.8,1.8,1.8h0.7c1.1,0,2,0.6,2.5,1.5l0,0c0.9,1.8,2.3,3.4,4,4.8
			l0,0l0,0c1.7,1.4,2.9,3.3,3.6,5.4h5.1v-1.5c0-1.7,1.4-3,3-3c1.7,0,3,1.4,3,3v1.5h5.1c0.7-2.1,2-3.9,3.6-5.4l0,0
			c2.6-2.1,4.4-4.9,5.1-8.1h0.4c0.7,0,1.3-0.3,1.8-0.7c0.5-0.5,0.9-1.2,0.9-2C-364.3,186.1-364.6,185.4-365.2,184.9z M-377.9,177.4
			c-0.2,0.8-1.1,1.2-1.8,0.9c-1.4-0.5-3-0.7-4.6-0.7c-1.5,0-3,0.2-4.4,0.7c-0.8,0.2-1.6-0.2-1.8-0.9c-0.2-0.8,0.2-1.6,0.9-1.8
			c1.7-0.5,3.5-0.8,5.3-0.8c1.9,0,3.7,0.3,5.4,0.9C-378.1,175.8-377.7,176.6-377.9,177.4z"/>
	</g>
</g>
<g>
	<path class="st14" d="M107.6,170.7c-0.3-0.3-0.8-0.5-1.3-0.5c-0.5,0-1,0.2-1.3,0.5l-2.7,2.6c-0.7,0.7-0.7,1.8,0,2.5l2.3,2.2
		l5.3-5.1L107.6,170.7z"/>
	<path class="st14" d="M125,193.3c0.2-0.2,0.2-0.5,0.1-0.7l-3.9-8l-5.2,5.1l8.3,3.7C124.5,193.5,124.8,193.5,125,193.3z"/>
	<polygon class="st14" points="119.5,182.9 111.1,174.7 105.9,179.8 114.2,188 	"/>
	<path class="st14" d="M144.8,170.7c-0.6,0-1,0.4-1,1v21.9l-7.9,7.7c-0.4,0.4-0.4,1,0,1.4c0.4,0.4,1,0.4,1.4,0l8.2-8
		c0.2-0.2,0.3-0.4,0.3-0.7v-22.3C145.8,171.1,145.4,170.7,144.8,170.7z"/>
	<path class="st14" d="M135.2,193.7c-1.5,0-2.7,1.1-2.7,2.6v5.5l8.1-8H135.2z"/>
	<path class="st14" d="M141.7,191.6v-19.9c0-2-1.7-3.6-3.8-3.6h-2.2v2.6c0,1.5-1.4,2.6-3.2,2.6c-1.8,0-3.2-1.2-3.2-2.6v-2.6h-3.2
		v2.6c0,1.5-1.4,2.6-3.2,2.6c-1.8,0-3.2-1.2-3.2-2.6v-2.6h-2.2c-2.1,0-3.8,1.6-3.8,3.6v2.4l10.8,10.6l3.6,11.5l-12-3.2l-2.3-2.2v8.5
		c0,2,1.7,3.6,3.8,3.6h12.9v-6.6c0-2.6,2.2-4.7,4.8-4.7H141.7z"/>
	<path class="st14" d="M122.9,171.4c0.8,0,1.3-0.4,1.3-0.7v-5c0-0.3-0.5-0.7-1.3-0.7c-0.8,0-1.3,0.4-1.3,0.7v5
		C121.7,171,122.2,171.4,122.9,171.4z"/>
	<path class="st14" d="M132.5,171.4c0.8,0,1.3-0.4,1.3-0.7v-5c0-0.3-0.5-0.7-1.3-0.7c-0.8,0-1.3,0.4-1.3,0.7v5
		C131.2,171,131.7,171.4,132.5,171.4z"/>
</g>
<g>
	<path class="st15" d="M-927.3,284.9h6.5l4-3.8c1.1-1,0.7-1.8-0.8-1.8h-12.9c-1.6,0-1.9,0.8-0.8,1.8L-927.3,284.9z"/>
	<path class="st15" d="M-921.1,286.3h-6c-0.4,0-0.8,0.3-0.9,0.6c0,0.1-0.1,0.2-0.1,0.3c0,0.5,0.5,0.9,1,0.9h6c0.6,0,1-0.4,1-0.9
		c0-0.1,0-0.2-0.1-0.3C-920.3,286.6-920.6,286.3-921.1,286.3z"/>
	<path class="st15" d="M-909.8,303.9C-909.8,303.9-909.9,303.9-909.8,303.9c0-0.1,0-0.1,0-0.2c0-7.8-6.3-14.2-14.2-14.2
		c-7.8,0-14.2,6.3-14.2,14.2c0,0,0,0.1,0,0.1c0,0,0,0,0,0.1l-0.5,11.8c0,0.7,0.4,1.6,0.8,2.2c0.4,0.6,1.2,1,1.2,1
		c0.5,0.2,1,0.4,1.6,0.4h22.1c0.6,0,1.2-0.2,1.7-0.4c0,0,0.9-0.5,1.4-1.3c0.3-0.5,0.5-1.2,0.5-1.9L-909.8,303.9z M-925.6,314.6
		c-2.4-0.6-4.3-2.5-4.8-4.9l0-0.1c0-0.3,0.3-0.6,0.6-0.6h1.6c0.3,0,0.5,0.2,0.6,0.5c0.3,1,1,1.9,2,2.3V314.6z M-925.6,297.8
		c-0.7,0.5-1.1,1.2-1.1,2c0,0.8,0.4,1.5,1.1,2v2.9c-2.3-0.7-3.8-2.6-3.8-5c0-2.3,1.6-4.3,3.8-5V297.8z M-922.6,314.6v1.7
		c0,0.4-0.3,0.7-0.7,0.7c-0.4,0-0.7-0.3-0.7-0.7v-2.3v-2.7v-18c0-0.4,0.3-0.7,0.7-0.7c0.4,0,0.7,0.3,0.7,0.7v1.5l0.1,0
		c1.8,0.6,3.1,2,3.6,3.8l0,0.2c0,0.3-0.3,0.6-0.6,0.6h-1.6c-0.3,0-0.5-0.2-0.6-0.4c-0.2-0.4-0.4-0.8-0.8-1.1l-0.2-0.1v4.7l0.1,0
		c2.8,0.7,4.8,3.2,4.8,6C-917.7,311.5-919.8,314-922.6,314.6z"/>
	<path class="st15" d="M-922.4,305.5l-0.1-0.1v6.4l0.1-0.1c1.2-0.6,1.9-1.8,1.9-3.1C-920.5,307.3-921.2,306.1-922.4,305.5z"/>
</g>
<g>
	<path class="st15" d="M-661.9,288.8l-10.9-8.3c-0.1,0-0.1-0.1-0.2-0.1c0.1,0,0.1,0,0.1,0.1c-0.5-0.4-1.1-0.5-1.7-0.5
		c-0.6,0-1.2,0.2-1.7,0.5c0,0-0.1,0-0.1,0.1l-20.6,15.6c-0.6,0.5-0.8,1.4-0.3,2.1c0.5,0.6,1.4,0.8,2.1,0.3l19.9-15.1c0,0,0,0,0,0
		c0.2-0.1,0.4-0.2,0.6-0.2c0.2,0,0.4,0.1,0.6,0.2c0,0,0,0,0,0l7.6,5.8c1.1-0.2,2.3-0.4,3.4-0.4
		C-662.6,288.8-662.2,288.8-661.9,288.8z"/>
	<path class="st15" d="M-684.4,284c0-0.9-0.8-1.7-1.7-1.7h-3.2c-0.9,0-1.7,0.8-1.7,1.7v5.7l6.6-5V284z"/>
	<path class="st15" d="M-679.3,305.2C-679.3,305.2-679.3,305.2-679.3,305.2c0-6.6,3.9-12.2,9.4-14.9l-4-3c0,0,0,0,0,0
		c-0.2-0.1-0.4-0.2-0.6-0.2c-0.2,0-0.4,0.1-0.6,0.2c0,0,0,0,0,0l-15.6,11.8c-0.3,0.2-0.5,0.6-0.5,1v14c0,2.4,2,4.4,4.4,4.4h7.6
		V305.2L-679.3,305.2z"/>
	<path class="st15" d="M-662.9,291.7c-7.4,0-13.5,6.1-13.5,13.5s6.1,13.5,13.5,13.5c7.4,0,13.5-6,13.5-13.5
		S-655.5,291.7-662.9,291.7z M-662.9,315.5c-5.7,0-10.3-4.6-10.3-10.3s4.6-10.3,10.3-10.3c5.7,0,10.3,4.6,10.3,10.3
		S-657.2,315.5-662.9,315.5z"/>
	<path class="st15" d="M-665.4,309.3c-0.1-0.2-0.3-0.4-0.5-0.4h-1.1c-0.3,0-0.5,0.2-0.5,0.5l0,0.1c0.4,1.9,1.9,3.4,3.8,3.8V311
		C-664.5,310.7-665.2,310.1-665.4,309.3z"/>
	<path class="st15" d="M-661.7,304.1v-3.3c0.2,0.2,0.4,0.5,0.5,0.8c0.1,0.2,0.3,0.4,0.5,0.4h1.2c0.3,0,0.5-0.2,0.5-0.5l0-0.1
		c-0.4-1.4-1.4-2.5-2.7-2.9v-1.1c0-0.3-0.3-0.6-0.6-0.6c-0.3,0-0.6,0.3-0.6,0.6v0.2v15.4c0,0.3,0.3,0.6,0.6,0.6c0,0,0.1,0,0.1,0l0,0
		c2.3-0.3,4-2.3,4-4.7C-658.1,306.4-659.6,304.6-661.7,304.1z M-661.7,310.9v-4.5c0.8,0.4,1.4,1.3,1.4,2.3
		C-660.3,309.6-660.9,310.5-661.7,310.9z"/>
	<path class="st15" d="M-666.9,302.1c0,1.9,1.3,3.5,3.1,3.9v-2.3c-0.6-0.3-0.9-0.9-0.9-1.6c0-0.7,0.4-1.3,0.9-1.6v-2.3
		C-665.5,298.6-666.9,300.2-666.9,302.1z"/>
</g>
<g>
	<path class="st15" d="M-515.7,314.9h-38.5v-19.1c0-0.6-0.5-1.2-1.2-1.2s-1.2,0.5-1.2,1.2v20.3c0,0.6,0.5,1.2,1.2,1.2h39.7
		c0.6,0,1.2-0.5,1.2-1.2C-514.5,315.5-515,314.9-515.7,314.9z"/>
	<path class="st15" d="M-546.6,302.2h-2c-1.6,0-2.9,1.3-2.9,2.9v4.6c0,1.6,1.3,2.9,2.9,2.9h2c1.6,0,2.9-1.3,2.9-2.9v-4.6
		C-543.7,303.5-545,302.2-546.6,302.2z"/>
	<path class="st15" d="M-536.9,295.3h-2c-1.6,0-2.9,1.3-2.9,2.9v11.6c0,1.6,1.3,2.9,2.9,2.9h2c1.6,0,2.9-1.3,2.9-2.9v-11.6
		C-534,296.6-535.3,295.3-536.9,295.3z"/>
	<path class="st15" d="M-527.1,288.4h-2c-1.6,0-2.9,1.3-2.9,2.9v18.5c0,1.6,1.3,2.9,2.9,2.9h2c1.6,0,2.9-1.3,2.9-2.9v-18.5
		C-524.3,289.6-525.6,288.4-527.1,288.4z"/>
	<path class="st15" d="M-517.4,281.4h-2c-1.6,0-2.9,1.3-2.9,2.9v25.4c0,1.6,1.3,2.9,2.9,2.9h2c1.6,0,2.9-1.3,2.9-2.9v-25.4
		C-514.5,282.7-515.8,281.4-517.4,281.4z"/>
</g>
<g>
	<g>
		<path class="st15" d="M-390,286.2c0.5,0.1,1-0.2,1.1-0.6c0-0.1,0.1-0.2,0.1-0.2c0.6-1.9,2.4-3.2,4.4-3.2c2,0,3.8,1.3,4.4,3.2
			c0,0.1,0.1,0.2,0.1,0.2c0.1,0.5,0.6,0.8,1.1,0.6c0.5-0.1,0.8-0.6,0.6-1.1c-0.8-2.8-3.3-4.8-6.2-4.8c-2.9,0-5.5,2-6.3,4.8
			C-390.8,285.6-390.5,286.1-390,286.2z"/>
		<path class="st15" d="M-365.2,300.3c-0.5-0.4-1.1-0.7-1.8-0.7h-0.4c-1.5-6.9-8.5-12.1-16.9-12.1c-7.1,0-13.1,3.6-15.8,8.8l0,0
			c-0.5,0.9-1.4,1.5-2.5,1.5h-0.7c-1,0-1.8,0.8-1.8,1.8v5.3c0,1,0.8,1.8,1.8,1.8h0.7c1.1,0,2,0.6,2.5,1.5l0,0c0.9,1.8,2.3,3.4,4,4.8
			l0,0l0,0c1.7,1.4,2.9,3.3,3.6,5.4h5.1v-1.5c0-1.7,1.4-3,3-3c1.7,0,3,1.4,3,3v1.5h5.1c0.7-2.1,2-3.9,3.6-5.4l0,0
			c2.6-2.1,4.4-4.9,5.1-8.1h0.4c0.7,0,1.3-0.3,1.8-0.7c0.5-0.5,0.9-1.2,0.9-2S-364.6,300.8-365.2,300.3z M-377.9,292.8
			c-0.2,0.8-1.1,1.2-1.8,0.9c-1.4-0.5-3-0.7-4.6-0.7c-1.5,0-3,0.2-4.4,0.7c-0.8,0.2-1.6-0.2-1.8-0.9c-0.2-0.8,0.2-1.6,0.9-1.8
			c1.7-0.5,3.5-0.8,5.3-0.8c1.9,0,3.7,0.3,5.4,0.9C-378.1,291.2-377.7,292-377.9,292.8z"/>
	</g>
</g>
<g>
	<path class="st15" d="M107.6,286.2c-0.3-0.3-0.8-0.5-1.3-0.5c-0.5,0-1,0.2-1.3,0.5l-2.7,2.6c-0.7,0.7-0.7,1.8,0,2.5l2.3,2.2
		l5.3-5.1L107.6,286.2z"/>
	<path class="st15" d="M125,308.7c0.2-0.2,0.2-0.5,0.1-0.7l-3.9-8l-5.2,5.1l8.3,3.7C124.5,308.9,124.8,308.9,125,308.7z"/>
	<polygon class="st15" points="119.5,298.3 111.1,290.1 105.9,295.2 114.2,303.4 	"/>
	<path class="st15" d="M144.8,286.1c-0.6,0-1,0.4-1,1V309l-7.9,7.7c-0.4,0.4-0.4,1,0,1.4c0.4,0.4,1,0.4,1.4,0l8.2-8
		c0.2-0.2,0.3-0.4,0.3-0.7v-22.3C145.8,286.5,145.4,286.1,144.8,286.1z"/>
	<path class="st15" d="M135.2,309.1c-1.5,0-2.7,1.1-2.7,2.6v5.5l8.1-8H135.2z"/>
	<path class="st15" d="M141.7,307v-19.9c0-2-1.7-3.6-3.8-3.6h-2.2v2.6c0,1.5-1.4,2.6-3.2,2.6c-1.8,0-3.2-1.2-3.2-2.6v-2.6h-3.2v2.6
		c0,1.5-1.4,2.6-3.2,2.6c-1.8,0-3.2-1.2-3.2-2.6v-2.6h-2.2c-2.1,0-3.8,1.6-3.8,3.6v2.4l10.8,10.6l3.6,11.5l-12-3.2l-2.3-2.2v8.5
		c0,2,1.7,3.6,3.8,3.6h12.9v-6.6c0-2.6,2.2-4.7,4.8-4.7H141.7z"/>
	<path class="st15" d="M122.9,286.8c0.8,0,1.3-0.4,1.3-0.7v-5c0-0.3-0.5-0.7-1.3-0.7c-0.8,0-1.3,0.4-1.3,0.7v5
		C121.7,286.4,122.2,286.8,122.9,286.8z"/>
	<path class="st15" d="M132.5,286.8c0.8,0,1.3-0.4,1.3-0.7v-5c0-0.3-0.5-0.7-1.3-0.7c-0.8,0-1.3,0.4-1.3,0.7v5
		C131.2,286.4,131.7,286.8,132.5,286.8z"/>
</g>
<g>
	<polygon class="st15" points="15.1,83.5 12.9,84 8.8,90.2 9.6,90.9 10.3,91.7 16.5,87.6 17,85.4 22,80.3 20.2,78.5 	"/>
	<path class="st15" d="M37.2,60.3c0.2-0.2,0.6-0.2,0.8,0c0.2,0.2,0.2,0.6,0,0.8L29.1,70l1.4,1.4l8.9-8.9c0.2-0.2,0.6-0.2,0.8,0
		c0.2,0.2,0.2,0.6,0,0.8l-8.9,8.9l1.2,1.2c0,0,0,0,0.1-0.1l0.9-0.9v0l7.5-7.5c1.5-1.5,1.5-3.9,0-5.4c-1.5-1.5-3.9-1.5-5.5,0
		l-7.5,7.5l-1,1c0,0,0,0-0.1,0.1l1.2,1.2L37.2,60.3z"/>
	<path class="st15" d="M17.8,73.8c4.8,4.8,16.5,16.5,16.5,16.5c1.8,1.8,4.7,1.8,6.5,0c0.9-0.9,1.3-2,1.3-3.2c0-1.2-0.5-2.4-1.3-3.2
		L24.4,67.5c0.1-0.7,0.2-1.4,0.1-2.1c-0.2-1.8-0.9-3.5-2.2-4.8c-2.3-2.3-5.7-2.9-8.5-1.7l4.6,4.6c0.7,0.7,0.7,1.8,0,2.5l-1.9,1.9
		c-0.7,0.7-1.8,0.7-2.5,0l-4.5-4.5c-1,2.8-0.4,6,1.8,8.2c1.2,1.2,2.7,1.9,4.3,2.2C16.3,73.9,17,73.9,17.8,73.8z M36,85.6
		c0.9-0.9,2.4-0.9,3.4,0c0.9,0.9,0.9,2.4,0,3.4c-0.9,0.9-2.4,0.9-3.4,0C35.1,88,35.1,86.5,36,85.6z"/>
</g>
<g>
	<polygon class="st13" points="15.1,33.5 12.9,34 8.8,40.2 9.6,40.9 10.3,41.7 16.5,37.6 17,35.4 22,30.3 20.2,28.5 	"/>
	<path class="st13" d="M37.2,10.3c0.2-0.2,0.6-0.2,0.8,0c0.2,0.2,0.2,0.6,0,0.8L29.1,20l1.4,1.4l8.9-8.9c0.2-0.2,0.6-0.2,0.8,0
		c0.2,0.2,0.2,0.6,0,0.8l-8.9,8.9l1.2,1.2c0,0,0,0,0.1-0.1l0.9-0.9v0l7.5-7.5c1.5-1.5,1.5-3.9,0-5.4c-1.5-1.5-3.9-1.5-5.5,0
		l-7.5,7.5l-1,1c0,0,0,0-0.1,0.1l1.2,1.2L37.2,10.3z"/>
	<path class="st14" d="M17.8,23.8c4.8,4.8,16.5,16.5,16.5,16.5c1.8,1.8,4.7,1.8,6.5,0c0.9-0.9,1.3-2,1.3-3.2c0-1.2-0.5-2.4-1.3-3.2
		L24.4,17.5c0.1-0.7,0.2-1.4,0.1-2.1c-0.2-1.8-0.9-3.5-2.2-4.8c-2.3-2.3-5.7-2.9-8.5-1.7l4.6,4.6c0.7,0.7,0.7,1.8,0,2.5l-1.9,1.9
		c-0.7,0.7-1.8,0.7-2.5,0l-4.5-4.5c-1,2.8-0.4,6,1.8,8.2c1.2,1.2,2.7,1.9,4.3,2.2C16.3,23.9,17,23.9,17.8,23.8z M36,35.6
		c0.9-0.9,2.4-0.9,3.4,0c0.9,0.9,0.9,2.4,0,3.4c-0.9,0.9-2.4,0.9-3.4,0C35.1,38,35.1,36.5,36,35.6z"/>
</g>
<g>
	<path class="st16" d="M-225.2,32.4c-0.3-0.2-0.7-0.3-1.1-0.2c-1.6,0.5-3.2,0.8-4.9,0.8c-4,0-7.8-1.5-10.7-4.3
		c-0.5-0.5-1.2-0.5-1.7,0c-2.9,2.8-6.7,4.3-10.7,4.3c-1.7,0-3.4-0.3-4.9-0.8c-0.4-0.1-0.8-0.1-1.1,0.2c-0.3,0.2-0.5,0.6-0.5,1V45
		c0,12.1,6.8,22.9,17.6,28.2c0.3,0.2,0.8,0.2,1.1,0c10.9-5.3,17.6-16.1,17.6-28.2V33.5C-224.7,33.1-224.9,32.7-225.2,32.4z
		 M-227.2,45c0,10.9-6,20.7-15.7,25.7c-9.7-5-15.7-14.8-15.7-25.7v-9.9c1.3,0.3,2.7,0.5,4.1,0.5c4.3,0,8.3-1.5,11.6-4.2
		c3.2,2.7,7.3,4.2,11.6,4.2c1.4,0,2.7-0.2,4.1-0.5V45z"/>
	<path class="st17" d="M-242.9,67.9c7.3-4.4,12.1-11.6,13-19.9l-17,17C-245.6,66.1-244.3,67-242.9,67.9z"/>
	<path class="st17" d="M-242.9,34.3c-3.6,2.4-7.8,3.8-12.1,3.8c0,0-0.7-0.1-1.2-0.1c0,1.4,0,6.8,0,6.8c0,4,0.9,7.8,2.4,11.2
		l18.5-18.5C-237.9,37-240.5,35.9-242.9,34.3z"/>
	<path class="st18" d="M-229.7,37.9c0,0-0.6,0.1-1.2,0.1c-0.6,0-1.4-0.1-1.4-0.1L-252.3,58c1.6,2.7,2.1,3.4,4,5.1l18.5-18.5
		c0-0.1,0-0.1,0-0.2l0.1-0.1L-229.7,37.9z"/>
</g>
<g>
	<path class="st17" d="M-225.2,165.5c-0.3-0.2-0.7-0.3-1.1-0.2c-1.6,0.5-3.2,0.8-4.9,0.8c-4,0-7.8-1.5-10.7-4.3
		c-0.5-0.5-1.2-0.5-1.7,0c-2.9,2.8-6.7,4.3-10.7,4.3c-1.7,0-3.4-0.3-4.9-0.8c-0.4-0.1-0.8-0.1-1.1,0.2c-0.3,0.2-0.5,0.6-0.5,1v11.5
		c0,12.1,6.8,22.9,17.6,28.2c0.3,0.2,0.8,0.2,1.1,0c10.9-5.3,17.6-16.1,17.6-28.2v-11.5C-224.7,166.1-224.9,165.7-225.2,165.5z
		 M-227.2,178.1c0,10.9-6,20.7-15.7,25.7c-9.7-5-15.7-14.8-15.7-25.7v-9.9c1.3,0.3,2.7,0.5,4.1,0.5c4.3,0,8.3-1.5,11.6-4.2
		c3.2,2.7,7.3,4.2,11.6,4.2c1.4,0,2.7-0.2,4.1-0.5V178.1z"/>
	<path class="st17" d="M-242.9,200.9c7.3-4.4,12.1-11.6,13-19.9l-17,17C-245.6,199.1-244.3,200.1-242.9,200.9z"/>
	<path class="st17" d="M-242.9,167.3c-3.6,2.4-7.8,3.8-12.1,3.8c0,0-0.7-0.1-1.2-0.1c0,1.4,0,6.8,0,6.8c0,4,0.9,7.8,2.4,11.2
		l18.5-18.5C-237.9,170-240.5,168.9-242.9,167.3z"/>
	<path class="st17" d="M-229.7,171c0,0-0.6,0.1-1.2,0.1c-0.6,0-1.4-0.1-1.4-0.1l-20.1,20.1c1.6,2.7,2.1,3.4,4,5.1l18.5-18.5
		c0-0.1,0-0.1,0-0.2l0.1-0.1L-229.7,171z"/>
</g>
<g>
	<path class="st15" d="M-225.2,280.9c-0.3-0.2-0.7-0.3-1.1-0.2c-1.6,0.5-3.2,0.8-4.9,0.8c-4,0-7.8-1.5-10.7-4.3
		c-0.5-0.5-1.2-0.5-1.7,0c-2.9,2.8-6.7,4.3-10.7,4.3c-1.7,0-3.4-0.3-4.9-0.8c-0.4-0.1-0.8-0.1-1.1,0.2c-0.3,0.2-0.5,0.6-0.5,1v11.5
		c0,12.1,6.8,22.9,17.6,28.2c0.3,0.2,0.8,0.2,1.1,0c10.9-5.3,17.6-16.1,17.6-28.2v-11.5C-224.7,281.5-224.9,281.1-225.2,280.9z
		 M-227.2,293.5c0,10.9-6,20.7-15.7,25.7c-9.7-5-15.7-14.8-15.7-25.7v-9.9c1.3,0.3,2.7,0.5,4.1,0.5c4.3,0,8.3-1.5,11.6-4.2
		c3.2,2.7,7.3,4.2,11.6,4.2c1.4,0,2.7-0.2,4.1-0.5V293.5z"/>
	<path class="st15" d="M-242.9,316.3c7.3-4.4,12.1-11.6,13-19.9l-17,17C-245.6,314.5-244.3,315.5-242.9,316.3z"/>
	<path class="st15" d="M-242.9,282.7c-3.6,2.4-7.8,3.8-12.1,3.8c0,0-0.7-0.1-1.2-0.1c0,1.4,0,6.8,0,6.8c0,4,0.9,7.8,2.4,11.2
		l18.5-18.5C-237.9,285.4-240.5,284.3-242.9,282.7z"/>
	<path class="st15" d="M-229.7,286.4c0,0-0.6,0.1-1.2,0.1c-0.6,0-1.4-0.1-1.4-0.1l-20.1,20.1c1.6,2.7,2.1,3.4,4,5.1l18.5-18.5
		c0-0.1,0-0.1,0-0.2l0.1-0.1L-229.7,286.4z"/>
</g>
<g>
	<path class="st14" d="M-98.2,164.5c-0.5,0-0.9,0.4-0.9,0.8v4.6c0,0.5,0.4,0.8,0.9,0.8h0.2c0.5,0,0.9-0.4,0.9-0.8v-4.6
		c0-0.5-0.4-0.8-0.9-0.8H-98.2z"/>
	<path class="st14" d="M-89.7,164.5c-0.5,0-0.9,0.4-0.9,0.8v4.6c0,0.5,0.4,0.8,0.9,0.8h0.2c0.5,0,0.9-0.4,0.9-0.8v-4.6
		c0-0.5-0.4-0.8-0.9-0.8H-89.7z"/>
	<path class="st14" d="M-81.2,164.5c-0.5,0-0.9,0.4-0.9,0.8v4.6c0,0.5,0.4,0.8,0.9,0.8h0.2c0.5,0,0.9-0.4,0.9-0.8v-4.6
		c0-0.5-0.4-0.8-0.9-0.8H-81.2z"/>
	<path class="st14" d="M-78.6,167.3v2.6c0,1.3-1.1,2.3-2.4,2.3h-0.2c-1.3,0-2.4-1-2.4-2.3v-2.7l-3.6,0v2.7c0,1.3-1.1,2.3-2.4,2.3
		h-0.2c-1.3,0-2.4-1-2.4-2.3v-2.7l-3.6,0v2.7c0,1.3-1.1,2.3-2.4,2.3h-0.2c-1.3,0-2.4-1-2.4-2.3v-2.6c-2.4,0.3-4.2,2.3-4.2,4.6v26.8
		c0,2.6,2.2,4.7,4.9,4.7h20.7c2.7,0,4.9-2.1,4.9-4.7v-26.8C-74.4,169.5-76.2,167.6-78.6,167.3z M-79.4,196.7h-20.4
		c-0.4,0-0.7-0.3-0.7-0.7s0.3-0.7,0.7-0.7h20.4c0.4,0,0.7,0.3,0.7,0.7S-79,196.7-79.4,196.7z M-79.4,190.6h-20.4
		c-0.4,0-0.7-0.3-0.7-0.7s0.3-0.7,0.7-0.7h20.4c0.4,0,0.7,0.3,0.7,0.7S-79,190.6-79.4,190.6z M-79.4,184.4h-20.4
		c-0.4,0-0.7-0.3-0.7-0.7s0.3-0.7,0.7-0.7h20.4c0.4,0,0.7,0.3,0.7,0.7S-79,184.4-79.4,184.4z M-79.4,178.3h-20.4
		c-0.4,0-0.7-0.3-0.7-0.7s0.3-0.7,0.7-0.7h20.4c0.4,0,0.7,0.3,0.7,0.7S-79,178.3-79.4,178.3z"/>
</g>
<g>
	<path class="st13" d="M-98.2,31.4c-0.5,0-0.9,0.4-0.9,0.8v4.6c0,0.5,0.4,0.8,0.9,0.8h0.2c0.5,0,0.9-0.4,0.9-0.8v-4.6
		c0-0.5-0.4-0.8-0.9-0.8H-98.2z"/>
	<path class="st13" d="M-89.7,31.4c-0.5,0-0.9,0.4-0.9,0.8v4.6c0,0.5,0.4,0.8,0.9,0.8h0.2c0.5,0,0.9-0.4,0.9-0.8v-4.6
		c0-0.5-0.4-0.8-0.9-0.8H-89.7z"/>
	<path class="st13" d="M-81.2,31.4c-0.5,0-0.9,0.4-0.9,0.8v4.6c0,0.5,0.4,0.8,0.9,0.8h0.2c0.5,0,0.9-0.4,0.9-0.8v-4.6
		c0-0.5-0.4-0.8-0.9-0.8H-81.2z"/>
	<path class="st14" d="M-78.6,34.2v2.6c0,1.3-1.1,2.3-2.4,2.3h-0.2c-1.3,0-2.4-1-2.4-2.3v-2.7l-3.6,0v2.7c0,1.3-1.1,2.3-2.4,2.3
		h-0.2c-1.3,0-2.4-1-2.4-2.3v-2.7l-3.6,0v2.7c0,1.3-1.1,2.3-2.4,2.3h-0.2c-1.3,0-2.4-1-2.4-2.3v-2.6c-2.4,0.3-4.2,2.3-4.2,4.6v26.8
		c0,2.6,2.2,4.7,4.9,4.7h20.7c2.7,0,4.9-2.1,4.9-4.7V38.8C-74.4,36.5-76.2,34.5-78.6,34.2z"/>
</g>
<g>
	<path class="st15" d="M-98.2,279.9c-0.5,0-0.9,0.4-0.9,0.8v4.6c0,0.5,0.4,0.8,0.9,0.8h0.2c0.5,0,0.9-0.4,0.9-0.8v-4.6
		c0-0.5-0.4-0.8-0.9-0.8H-98.2z"/>
	<path class="st15" d="M-89.7,279.9c-0.5,0-0.9,0.4-0.9,0.8v4.6c0,0.5,0.4,0.8,0.9,0.8h0.2c0.5,0,0.9-0.4,0.9-0.8v-4.6
		c0-0.5-0.4-0.8-0.9-0.8H-89.7z"/>
	<path class="st15" d="M-81.2,279.9c-0.5,0-0.9,0.4-0.9,0.8v4.6c0,0.5,0.4,0.8,0.9,0.8h0.2c0.5,0,0.9-0.4,0.9-0.8v-4.6
		c0-0.5-0.4-0.8-0.9-0.8H-81.2z"/>
	<path class="st15" d="M-78.6,282.7v2.6c0,1.3-1.1,2.3-2.4,2.3h-0.2c-1.3,0-2.4-1-2.4-2.3v-2.7l-3.6,0v2.7c0,1.3-1.1,2.3-2.4,2.3
		h-0.2c-1.3,0-2.4-1-2.4-2.3v-2.7l-3.6,0v2.7c0,1.3-1.1,2.3-2.4,2.3h-0.2c-1.3,0-2.4-1-2.4-2.3v-2.6c-2.4,0.3-4.2,2.3-4.2,4.6v26.8
		c0,2.6,2.2,4.7,4.9,4.7h20.7c2.7,0,4.9-2.1,4.9-4.7v-26.8C-74.4,284.9-76.2,283-78.6,282.7z M-79.4,312.1h-20.4
		c-0.4,0-0.7-0.3-0.7-0.7s0.3-0.7,0.7-0.7h20.4c0.4,0,0.7,0.3,0.7,0.7S-79,312.1-79.4,312.1z M-79.4,306h-20.4
		c-0.4,0-0.7-0.3-0.7-0.7s0.3-0.7,0.7-0.7h20.4c0.4,0,0.7,0.3,0.7,0.7S-79,306-79.4,306z M-79.4,299.9h-20.4c-0.4,0-0.7-0.3-0.7-0.7
		s0.3-0.7,0.7-0.7h20.4c0.4,0,0.7,0.3,0.7,0.7S-79,299.9-79.4,299.9z M-79.4,293.7h-20.4c-0.4,0-0.7-0.3-0.7-0.7s0.3-0.7,0.7-0.7
		h20.4c0.4,0,0.7,0.3,0.7,0.7S-79,293.7-79.4,293.7z"/>
</g>
<g>
	<g>
		<path class="st19" d="M-778.2,33.2l-31,0c-2.2,0-4.1,1.8-4.1,4.1l0,1.5l39.2,0l0-1.5C-774.1,35-775.9,33.2-778.2,33.2z"/>
		<path class="st19" d="M-780.5,59.8h2.3c2.2,0,4.1-1.8,4.1-4.1V46l-6.4,0L-780.5,59.8z"/>
	</g>
	<path class="st19" d="M-788.2,41.7h-31c-2.2,0-4,1.8-4,4v19c0,2.2,1.8,4,4,4h31c2.2,0,4-1.8,4-4v-19
		C-784.2,43.4-786,41.7-788.2,41.7z"/>
</g>
<g>
	<g>
		<path class="st19" d="M-778.2,166.2l-31,0c-2.2,0-4.1,1.8-4.1,4.1l0,1.5l39.2,0l0-1.5C-774.1,168-775.9,166.2-778.2,166.2z"/>
		<path class="st19" d="M-780.5,192.9h2.3c2.2,0,4.1-1.8,4.1-4.1V179l-6.4,0L-780.5,192.9z"/>
	</g>
	<path class="st19" d="M-788.2,174.7h-31c-2.2,0-4,1.8-4,4v19c0,2.2,1.8,4,4,4h31c2.2,0,4-1.8,4-4v-19
		C-784.2,176.5-786,174.7-788.2,174.7z M-791.8,196.7l-24.6,0c-0.4,0-0.7-0.3-0.7-0.7c0-0.4,0.3-0.7,0.7-0.7l24.6,0
		c0.4,0,0.7,0.3,0.7,0.7C-791.1,196.4-791.4,196.7-791.8,196.7z M-817.2,191.7c0-0.4,0.3-0.7,0.7-0.7h13.3c0.4,0,0.7,0.3,0.7,0.7
		c0,0.4-0.3,0.7-0.7,0.7l-13.3,0C-816.8,192.4-817.2,192.1-817.2,191.7z M-791.8,192.4l-5.5,0c-0.4,0-0.7-0.3-0.7-0.7
		c0-0.4,0.3-0.7,0.7-0.7l5.5,0c0.4,0,0.7,0.3,0.7,0.7C-791.1,192.1-791.4,192.4-791.8,192.4z M-787.2,184.9c0,0.7-0.5,1.2-1.2,1.2
		H-819c-0.7,0-1.2-0.5-1.2-1.2v-4.1c0-0.7,0.5-1.2,1.2-1.2h30.6c0.7,0,1.2,0.5,1.2,1.2V184.9z"/>
</g>
<g>
	<g>
		<path class="st15" d="M-778.2,281.6l-31,0c-2.2,0-4.1,1.8-4.1,4.1l0,1.5l39.2,0l0-1.5C-774.1,283.5-775.9,281.6-778.2,281.6z"/>
		<path class="st15" d="M-780.5,308.3h2.3c2.2,0,4.1-1.8,4.1-4.1v-9.8l-6.4,0L-780.5,308.3z"/>
	</g>
	<path class="st15" d="M-788.2,290.1h-31c-2.2,0-4,1.8-4,4v19c0,2.2,1.8,4,4,4h31c2.2,0,4-1.8,4-4v-19
		C-784.2,291.9-786,290.1-788.2,290.1z M-791.8,312.2l-24.6,0c-0.4,0-0.7-0.3-0.7-0.7c0-0.4,0.3-0.7,0.7-0.7l24.6,0
		c0.4,0,0.7,0.3,0.7,0.7C-791.1,311.8-791.4,312.2-791.8,312.2z M-817.2,307.1c0-0.4,0.3-0.7,0.7-0.7h13.3c0.4,0,0.7,0.3,0.7,0.7
		c0,0.4-0.3,0.7-0.7,0.7l-13.3,0C-816.8,307.8-817.2,307.5-817.2,307.1z M-791.8,307.8l-5.5,0c-0.4,0-0.7-0.3-0.7-0.7
		c0-0.4,0.3-0.7,0.7-0.7l5.5,0c0.4,0,0.7,0.3,0.7,0.7C-791.1,307.5-791.4,307.8-791.8,307.8z M-787.2,300.3c0,0.7-0.5,1.2-1.2,1.2
		H-819c-0.7,0-1.2-0.5-1.2-1.2v-4.1c0-0.7,0.5-1.2,1.2-1.2h30.6c0.7,0,1.2,0.5,1.2,1.2V300.3z"/>
</g>
<path class="st13" d="M-79.4,63.7h-20.4c-0.4,0-0.7-0.3-0.7-0.7s0.3-0.7,0.7-0.7h20.4c0.4,0,0.7,0.3,0.7,0.7S-79,63.7-79.4,63.7z"/>
<path class="st13" d="M-79.4,57.5h-20.4c-0.4,0-0.7-0.3-0.7-0.7s0.3-0.7,0.7-0.7h20.4c0.4,0,0.7,0.3,0.7,0.7S-79,57.5-79.4,57.5z"/>
<path class="st13" d="M-79.4,51.4h-20.4c-0.4,0-0.7-0.3-0.7-0.7s0.3-0.7,0.7-0.7h20.4c0.4,0,0.7,0.3,0.7,0.7S-79,51.4-79.4,51.4z"/>
<path class="st13" d="M-79.4,45.3h-20.4c-0.4,0-0.7-0.3-0.7-0.7s0.3-0.7,0.7-0.7h20.4c0.4,0,0.7,0.3,0.7,0.7S-79,45.3-79.4,45.3z"/>
<path class="st20" d="M-791.8,63.7l-24.6,0c-0.4,0-0.7-0.3-0.7-0.7c0-0.4,0.3-0.7,0.7-0.7l24.6,0c0.4,0,0.7,0.3,0.7,0.7
	C-791.1,63.4-791.4,63.7-791.8,63.7z"/>
<path class="st20" d="M-817.2,58.6c0-0.4,0.3-0.7,0.7-0.7h13.3c0.4,0,0.7,0.3,0.7,0.7c0,0.4-0.3,0.7-0.7,0.7l-13.3,0
	C-816.8,59.4-817.2,59-817.2,58.6z"/>
<path class="st20" d="M-791.8,59.4l-5.5,0c-0.4,0-0.7-0.3-0.7-0.7c0-0.4,0.3-0.7,0.7-0.7l5.5,0c0.4,0,0.7,0.3,0.7,0.7
	C-791.1,59.1-791.4,59.4-791.8,59.4z"/>
<path class="st21" d="M-787.2,51.8c0,0.7-0.5,1.2-1.2,1.2H-819c-0.7,0-1.2-0.5-1.2-1.2v-4.1c0-0.7,0.5-1.2,1.2-1.2h30.6
	c0.7,0,1.2,0.5,1.2,1.2V51.8z"/>
</svg>
