<?xml version="1.0" encoding="utf-8"?>
<!-- Generator: Adobe Illustrator 18.0.0, SVG Export Plug-In . SVG Version: 6.00 Build 0)  -->
<!DOCTYPE svg PUBLIC "-//W3C//DTD SVG 1.1//EN" "http://www.w3.org/Graphics/SVG/1.1/DTD/svg11.dtd">
<svg version="1.1" id="Layer_1" xmlns="http://www.w3.org/2000/svg" xmlns:xlink="http://www.w3.org/1999/xlink" x="0px" y="0px"
	 viewBox="0 0 50 100" enable-background="new 0 0 50 100" xml:space="preserve">
<g id="XMLID_386_">
	<g id="XMLID_310_">
		<path id="XMLID_276_" fill="#D9D9D6" d="M44.8,90.1H6.3V71c0-0.6-0.5-1.2-1.2-1.2S4,70.4,4,71v20.3c0,0.6,0.5,1.2,1.2,1.2h39.7
			c0.6,0,1.2-0.5,1.2-1.2C46,90.6,45.5,90.1,44.8,90.1z"/>
		<path id="XMLID_317_" fill="#D9D9D6" d="M13.9,77.4h-2c-1.6,0-2.9,1.3-2.9,2.9v4.6c0,1.6,1.3,2.9,2.9,2.9h2c1.6,0,2.9-1.3,2.9-2.9
			v-4.6C16.8,78.7,15.5,77.4,13.9,77.4z"/>
		<path id="XMLID_315_" fill="#D9D9D6" d="M23.7,70.5h-2c-1.6,0-2.9,1.3-2.9,2.9V85c0,1.6,1.3,2.9,2.9,2.9h2c1.6,0,2.9-1.3,2.9-2.9
			V73.3C26.5,71.8,25.2,70.5,23.7,70.5z"/>
		<path id="XMLID_313_" fill="#D9D9D6" d="M33.4,63.5h-2c-1.6,0-2.9,1.3-2.9,2.9v18.5c0,1.6,1.3,2.9,2.9,2.9h2
			c1.6,0,2.9-1.3,2.9-2.9V66.4C36.3,64.8,35,63.5,33.4,63.5z"/>
		<path id="XMLID_311_" fill="#D9D9D6" d="M43.1,56.6h-2c-1.6,0-2.9,1.3-2.9,2.9v25.4c0,1.6,1.3,2.9,2.9,2.9h2
			c1.6,0,2.9-1.3,2.9-2.9V59.5C46,57.9,44.7,56.6,43.1,56.6z"/>
	</g>
</g>
<g>
	<path fill="#4092B0" d="M44.9,40.1H6.3V20.9c0-0.6-0.5-1.2-1.2-1.2S4,20.3,4,20.9v20.3c0,0.6,0.5,1.2,1.2,1.2h39.8
		c0.6,0,1.2-0.5,1.2-1.2C46.1,40.6,45.6,40.1,44.9,40.1z"/>
	<path fill="#B2D3DF" d="M13.9,27.3h-2c-1.6,0-2.9,1.3-2.9,2.9v4.7c0,1.6,1.3,2.9,2.9,2.9h2c1.6,0,2.9-1.3,2.9-2.9v-4.7
		C16.8,28.6,15.5,27.3,13.9,27.3z"/>
	<path fill="#8CBED0" d="M23.7,20.4h-2c-1.6,0-2.9,1.3-2.9,2.9v11.6c0,1.6,1.3,2.9,2.9,2.9h2c1.6,0,2.9-1.3,2.9-2.9V23.3
		C26.6,21.7,25.3,20.4,23.7,20.4z"/>
	<path fill="#66A8C0" d="M33.5,13.4h-2c-1.6,0-2.9,1.3-2.9,2.9v18.5c0,1.6,1.3,2.9,2.9,2.9h2c1.6,0,2.9-1.3,2.9-2.9V16.3
		C36.3,14.7,35,13.4,33.5,13.4z"/>
	<path fill="#006E96" d="M43.2,6.5h-2c-1.6,0-2.9,1.3-2.9,2.9v25.5c0,1.6,1.3,2.9,2.9,2.9h2c1.6,0,2.9-1.3,2.9-2.9V9.4
		C46.1,7.8,44.8,6.5,43.2,6.5z"/>
</g>
</svg>
