<?xml version="1.0" encoding="utf-8"?>
<!-- Generator: Adobe Illustrator 18.0.0, SVG Export Plug-In . SVG Version: 6.00 Build 0)  -->
<!DOCTYPE svg PUBLIC "-//W3C//DTD SVG 1.1//EN" "http://www.w3.org/Graphics/SVG/1.1/DTD/svg11.dtd">
<svg version="1.1" id="Layer_1" xmlns="http://www.w3.org/2000/svg" xmlns:xlink="http://www.w3.org/1999/xlink" x="0px" y="0px"
	 viewBox="0 0 50 100" enable-background="new 0 0 50 100" xml:space="preserve">
<g id="Layer_1_1_">
	<g id="XMLID_386_">
		<g id="XMLID_2_">
			<path id="XMLID_6_" fill="#D9D9D6" d="M42.6,56.1c-0.3-0.2-0.7-0.3-1.1-0.2c-1.6,0.5-3.2,0.8-4.9,0.8c-4,0-7.8-1.5-10.7-4.3
				c-0.5-0.5-1.2-0.5-1.7,0c-2.9,2.8-6.7,4.3-10.7,4.3c-1.7,0-3.4-0.3-4.9-0.8c-0.4-0.1-0.8-0.1-1.1,0.2c-0.3,0.2-0.5,0.6-0.5,1
				v11.5c0,12.1,6.8,22.9,17.6,28.2c0.3,0.2,0.8,0.2,1.1,0c10.9-5.3,17.6-16.1,17.6-28.2V57.1C43.2,56.7,43,56.3,42.6,56.1z
				 M40.7,68.6c0,10.9-6,20.7-15.7,25.7c-9.7-5-15.7-14.8-15.7-25.7v-9.9c1.3,0.3,2.7,0.5,4.1,0.5c4.3,0,8.3-1.5,11.6-4.2
				c3.2,2.7,7.3,4.2,11.6,4.2c1.4,0,2.7-0.2,4.1-0.5C40.7,58.7,40.7,68.6,40.7,68.6z"/>
			<path id="XMLID_5_" fill="#D9D9D6" d="M25,91.5c7.3-4.4,12.1-11.6,13-19.9l-17,17C22.2,89.7,23.6,90.7,25,91.5z"/>
			<path id="XMLID_4_" fill="#D9D9D6" d="M25,57.9c-3.6,2.4-7.8,3.8-12.1,3.8c0,0-0.7-0.1-1.2-0.1c0,1.4,0,6.8,0,6.8
				c0,4,0.9,7.8,2.4,11.2l18.5-18.5C30,60.6,27.4,59.5,25,57.9z"/>
			<path id="XMLID_3_" fill="#D9D9D6" d="M38.2,61.6c0,0-0.6,0.1-1.2,0.1c-0.6,0-1.4-0.1-1.4-0.1L15.5,81.7c1.6,2.7,2.1,3.4,4,5.1
				L38,68.2c0-0.1,0-0.1,0-0.2l0.1-0.1L38.2,61.6z"/>
		</g>
	</g>
	<g id="XMLID_383_">
		<g id="XMLID_404_">
			<path id="XMLID_408_" fill="#7FD7FF" d="M42.6,6c-0.3-0.2-0.7-0.3-1.1-0.2c-1.6,0.5-3.2,0.8-4.9,0.8c-4,0-7.8-1.5-10.7-4.3
				c-0.5-0.5-1.2-0.5-1.7,0c-2.9,2.8-6.7,4.3-10.7,4.3c-1.7,0-3.4-0.3-4.9-0.8C8.1,5.7,7.7,5.8,7.4,6C7,6.3,6.8,6.6,6.8,7v11.5
				c0,12.1,6.8,22.9,17.6,28.2c0.3,0.2,0.8,0.2,1.1,0c10.9-5.3,17.6-16.1,17.6-28.2V7C43.2,6.6,43,6.3,42.6,6z M40.7,18.6
				c0,10.9-6,20.7-15.7,25.7c-9.7-5-15.7-14.8-15.7-25.7V8.7C10.7,9,12,9.2,13.4,9.2c4.3,0,8.3-1.5,11.6-4.2
				c3.2,2.7,7.3,4.2,11.6,4.2c1.4,0,2.7-0.2,4.1-0.5C40.7,8.7,40.7,18.6,40.7,18.6z"/>
			<path id="XMLID_344_" fill="#00AFFF" d="M25,41.5c7.3-4.4,12.1-11.6,13-19.9l-17,17C22.2,39.6,23.6,40.6,25,41.5z"/>
			<path id="XMLID_343_" fill="#00AFFF" d="M25,7.8c-3.6,2.4-7.8,3.8-12.1,3.8c0,0-0.7-0.1-1.2-0.1c0,1.4,0,6.8,0,6.8
				c0,4,0.9,7.8,2.4,11.2L32.6,11C30,10.5,27.4,9.4,25,7.8z"/>
			<path id="XMLID_342_" fill="#7FD7FF" d="M38.2,11.5c0,0-0.6,0.1-1.2,0.1c-0.6,0-1.4-0.1-1.4-0.1L15.5,31.6c1.6,2.7,2.1,3.4,4,5.1
				L38,18.2c0-0.1,0-0.1,0-0.2l0.1-0.1L38.2,11.5z"/>
		</g>
	</g>
</g>
<g id="Layer_2">
</g>
</svg>
