<?xml version="1.0" encoding="utf-8"?>
<!-- Generator: Adobe Illustrator 19.0.0, SVG Export Plug-In . SVG Version: 6.00 Build 0)  -->
<svg version="1.1" id="Layer_1" xmlns="http://www.w3.org/2000/svg" xmlns:xlink="http://www.w3.org/1999/xlink" x="0px" y="0px"
	 viewBox="0 0 209.5 178.4" style="enable-background:new 0 0 209.5 178.4;" xml:space="preserve">
<style type="text/css">
	.st0{fill:#CE0058;}
</style>
<g>
	<path class="st0" d="M197.3,0H12.2C5.4,0,0,5.5,0,12.2V134c0,6.7,5.4,12.2,12.2,12.2h185.2c6.7,0,12.2-5.5,12.2-12.2V12.2
		C209.5,5.5,204.1,0,197.3,0z M193.5,121.7c0,0.6-0.5,1.1-1.1,1.1H17.1c-0.6,0-1.1-0.5-1.1-1.1V12.3c0-0.6,0.5-1.1,1.1-1.1h175.2
		c0.6,0,1.1,0.5,1.1,1.1V121.7z"/>
	<path class="st0" d="M179,171.4h-48.4c0.1-0.4,0.2-0.8,0.2-1.2v-6.5c0-4.6-3.7-8.2-8.2-8.2H86.2c-4.5,0-8.2,3.7-8.2,8.2v6.5
		c0,0.4,0.2,0.8,0.2,1.2h-47c-1.3,0-4.8-0.3-7.1,2.7l-4.4,4.3c0,0,4.6,0,7.7,0h2.7h46.8c0.1,0,0.2,0.1,0.3,0.1h54.3
		c0.1,0,0.2-0.1,0.3-0.1h46.8h2.3c3.1,0,8.1,0,8.1,0l-4.9-4.9C182.5,172.3,180.4,171.4,179,171.4z"/>
</g>
</svg>
