<?xml version="1.0" encoding="utf-8"?>
<!-- Generator: Adobe Illustrator 19.0.0, SVG Export Plug-In . SVG Version: 6.00 Build 0)  -->
<svg version="1.1" id="Layer_1" xmlns="http://www.w3.org/2000/svg" xmlns:xlink="http://www.w3.org/1999/xlink" x="0px" y="0px"
	 viewBox="0 0 239.1 364.6" style="enable-background:new 0 0 239.1 364.6;" xml:space="preserve">
<style type="text/css">
	.st0{fill:#66A8C0;}
	.st1{fill:#006E96;}
</style>
<path class="st0" d="M77.9,364.1c0.3,0.4,7.2-0.4,16.7,0.5c3.1,0.3,6.7-1.3,9.8-1.2c3.1,0.1,7.3,0.7,10.3,0.4
	c3-0.3,15.4-0.7,18.4-0.4s2.7,1.3,6.2,0.6c3.5-0.8,7.9-1.4,9.9-1.4c3.5-0.1,13.4,0.8,15.4,0.1s-5.2-2.3-9.9-2.7
	c-4.7-0.4-7.3-1-9.7-2.5c-2.4-1.5-4.9-5.6-6.2-9.1c-1.3-3.5-4.2-20.5-4.8-27c-0.6-6.6-1.2-74.2-0.8-90.9c0.3-13,0.9-10.8,1.6-11.8
	c2-2.6,1.1-2.4,6.1-8.5c5-6.1,15.4-18.9,24.6-22.1s24-7.4,24.9-8.2c1-0.8-0.2-12.8-2.5-11.2c-2.3,1.5-13.7,4.8-20.2,7.2
	c-6.5,2.5-17.3,9.7-22.3,14.2c-5,4.6-5.6,7-11.2,7.5c-3.2,0.3-1.9-27.9-0.6-32c1.3-4.2,17.2-69.8,16.3-72.5
	c-1-2.7-22.8,11.1-22.8,11.1c0,0.2-16.3,54.1-16,53.8c1.7-2.3,1.4-2.4,2,7.1c0,0,0.7,9.5,0.3,16c-0.4,6.5-1,13-5.3,13.5
	c-4.4,0.6-4,0.4-11.4-5.9s-12-9.7-20-14.9s-17.7-7-21.1-9.1c-3.4-2.1-9.9-6.7-9.9-6.7s-8.6,1.7,2.3,10.1s14.9,8,24.6,15
	s16.4,13.3,21.1,17.3c4.8,4,11.2,11.5,12.6,17.3s1.1,31.3-0.8,47.8s-1.5,74.6-5.9,82.6s-2.9,11.2-7.8,13
	C89.3,361.9,75.5,360.9,77.9,364.1z"/>
<path class="st1" d="M239.1,120.3c0-14.4-5.5-27.1-13.9-34.7c0.7-2.4,1-4.9,1-7.4c0-14.8-11.9-26.9-26.7-27.3
	C198.9,27.2,179,8.3,154.4,8.3c-2,0-4,0.1-6,0.4c-6-5.4-13.9-8.7-22.6-8.7c-12.6,0-23.6,6.9-29.5,17.3c-4.9-2-10.2-3.1-15.8-3.1
	c-20.3,0-37.2,14.4-41.4,33.6c-10.1,4-17.2,13.9-17.2,25.3C9,79,0,92.1,0,107.4c0,9.1,3.2,17.5,8.6,24c-5.1,4.5-8.3,10.9-8.3,18
	c0,13.5,11.7,24.5,26.1,24.5c1.6,0,3.2-0.1,4.7-0.4c5.5,17.5,24.1,29.1,44.5,26.6c15.9-1.9,28.7-11.9,34.1-24.9
	c3.9-2.2,7.5-4.8,10.7-7.8c6,2.3,12.4,3.6,19.2,3.6c0.1,0,0.3,0,0.4,0c6,9.9,16.9,16.6,29.3,16.6c0.7,0,1.4,0,2.1-0.1
	c6.2,8.6,16.3,14.2,27.7,14.2c18.9,0,34.2-15.3,34.2-34.3c0-6-1.5-11.6-4.2-16.5C235.2,143.2,239.1,132.3,239.1,120.3z"/>
</svg>
