<?xml version="1.0" encoding="utf-8"?>
<!-- Generator: Adobe Illustrator 19.0.0, SVG Export Plug-In . SVG Version: 6.00 Build 0)  -->
<svg version="1.1" id="Layer_1" xmlns="http://www.w3.org/2000/svg" xmlns:xlink="http://www.w3.org/1999/xlink" x="0px" y="0px"
	 viewBox="0 0 225.2 167.6" style="enable-background:new 0 0 225.2 167.6;" xml:space="preserve">
<style type="text/css">
	.st0{fill:#CE0058;}
</style>
<g>
	<path class="st0" d="M223.9,51.9c-1.1-1.4-2.9-2.3-4.7-2.3h-19.6c-5.6-15-6.4-29.7-14.8-35.2C155.9-4.8,69.6-4.8,40.7,14.4
		c-8.4,5.5-9.6,20.2-15.3,35.2H6.1c-1.8,0-3.5,0.8-4.7,2.3c-1.2,1.4-1.6,3.3-1.2,5.1L0,73.4c0.6,2.8,3,4.8,5.9,4.8h6.8
		c-6.6,7.6-4.9,16.2-5,25.8c-0.1,11.8-0.4,23.5,7.8,31.1c0.1,0.1,0.2,0.2,0.3,0.2v23.2c0,5,4,9.1,9,9.1h21.1c5,0,9-4.1,9-9.1v-9.3
		h115.1v9.3c0,5,4,9.1,9,9.1h21.1c5,0,9-4.1,9-9.1v-22.7c8.6-8,8.4-18.9,8.5-29.9c0-9.9,1.1-19.8-5.9-27.6h7.2c2.9,0,5.3-2,5.9-4.8
		l0-16.5C225.4,55.1,225,53.3,223.9,51.9z M35.3,119.5c-6.7,0-12.1-5.5-12.1-12.2c0-6.7,5.4-12.2,12.1-12.2
		c6.7,0,12.1,5.5,12.1,12.2C47.5,114.1,42.1,119.5,35.3,119.5z M41.2,54.7c3.3-11.4,4.9-22.2,9.4-25.2c23.1-15.3,101.2-15.3,124.3,0
		c4.5,3,5.7,13.5,9,25.2H41.2z M190.5,119.5c-6.7,0-12.1-5.5-12.1-12.2c0-6.7,5.4-12.2,12.1-12.2c6.7,0,12.1,5.5,12.1,12.2
		C202.7,114.1,197.2,119.5,190.5,119.5z"/>
</g>
</svg>
