<?xml version="1.0" encoding="utf-8"?>
<!-- Generator: Adobe Illustrator 19.0.0, SVG Export Plug-In . SVG Version: 6.00 Build 0)  -->
<svg version="1.1" id="Layer_1" xmlns="http://www.w3.org/2000/svg" xmlns:xlink="http://www.w3.org/1999/xlink" x="0px" y="0px"
	 viewBox="0 0 220 155" style="enable-background:new 0 0 220 155;" xml:space="preserve">
<style type="text/css">
	.st0{fill:#CE0058;}
</style>
<g>
	<path class="st0" d="M202,0L65.7,0c-9.9,0-18,7.9-18,17.5l0,6.4l172.3,0l0-6.4C220,7.9,211.9,0,202,0z"/>
	<path class="st0" d="M191.7,114.2H202c9.9,0,18-7.9,18-17.5V54.9l-28.3,0L191.7,114.2z"/>
	<path class="st0" d="M164.3,32.5H18.7C8.4,32.5,0,40.6,0,50.6v86.3c0,10,8.4,18.1,18.7,18.1h145.6c10.3,0,18.7-8.1,18.7-18.1V50.6
		C183,40.6,174.6,32.5,164.3,32.5z M169,69.7c0,3-2.6,5.5-5.7,5.5H19.8c-3.1,0-5.7-2.5-5.7-5.5v-14c0-3,2.6-5.5,5.7-5.5h143.5
		c3.1,0,5.7,2.5,5.7,5.5V69.7z"/>
</g>
</svg>
