<?xml version="1.0" encoding="utf-8"?>
<!-- Generator: Adobe Illustrator 19.0.0, SVG Export Plug-In . SVG Version: 6.00 Build 0)  -->
<svg version="1.1" id="Layer_1" xmlns="http://www.w3.org/2000/svg" xmlns:xlink="http://www.w3.org/1999/xlink" x="0px" y="0px"
	 viewBox="0 0 401.3 300.9" style="enable-background:new 0 0 401.3 300.9;" xml:space="preserve">
<style type="text/css">
	.st0{fill-rule:evenodd;clip-rule:evenodd;fill:#B09DC7;}
	.st1{fill:#B09DC7;}
	.st2{fill:#D4C9E0;}
</style>
<g>
	<path class="st0" d="M271.9,35c0,0-0.3-0.3-0.3-0.3c0,0,0.8-0.4,0.6-0.7c-1.9-2.3-5.5-5.3-6.3-6.5c-1.1-1.4-1-7.2-3-11.2
		c-2.2-4.2-4.2-3.4-4.5-5c-0.1-1.2-1.6-3.3-3.3-3.3c-2.2-0.1-3.7,0.8-4.4,2c-0.3,0.4-0.5,0.9-0.5,1.4c-0.1,0-2.1,0.5-2.1,0.6
		c0.2,0.3,1,0.5,1.9,1c0,0,0,0,0,0c0,0.1,0.1,0.1,0.1,0.1c0,0,0,0,0.1,0.1c0,0,0,0.1,0,0.1c0.7,1.5,0.9,2.4,1,4.1
		c0.1,2.6,0.9,4.5,1.9,5.8c0,0.4,0.2,0.9,0.4,1.3c-0.1,0.4-0.3,1.6-0.3,2.1c-1.2-0.7-3.6-2.1-3.4-0.2c0,0.4,0.6,0.1,0.6-0.2
		c0-0.3,0.3-0.1,0.5,0c0.4,0.1,0.7,0.3,1,0.5c0.1,0.1,0.3,0.2,0.4,0.2c-0.5,0-1,0.1-1.6,0.3c-0.2,0.1-0.6,0.1-0.7,0.4
		c-0.1,0.2,0.1,0.4,0.3,0.5c0.2,0,0.4-0.1,0.5-0.3c0.2-0.1,0.4-0.1,0.5-0.1c0.4-0.1,0.8-0.1,1.1-0.1c-0.1,0.1-0.2,0.1-0.3,0.2
		c-0.2,0.1-0.4,0.3-0.5,0.4c-0.1,0.1-0.1,0.3-0.1,0.3c0.1,0.1,0.1,0.2,0.2,0.2c0.2,0.3,0.8-0.1,0.5-0.4c0,0,0,0-0.1-0.1
		c0.3-0.2,0.6-0.4,0.8-0.7c0,0,0.2,0,0.2,0c0.1,0.1,0.7,0.3,0.8,0.3c0.2,0.1,0.4,0.2,0.4,0.4c0,0.4,0.6,0.2,0.6-0.1
		c0-0.7-0.8-0.7-1.3-1.1c0,0,0,0,0,0c0-0.2,0.2-1.2,0.2-1.6c0-0.1,0.1-0.2,0.1-0.3c0.3,0.2,0.7,0.4,1.1,0.3c0.7,0.5,1.4,0.8,1.7,1
		c0.1,0.1,0.3,0.1,0.5,0.2c0.2,0.4,0.6,0.7,1,0.9c0.2,0.4-0.1,2.1,0,2.5c-0.4-0.3-0.8-0.6-1.3-0.9c-0.2-0.1-0.5,0-0.5,0.3
		c0,0,0,0,0,0c-0.3,0.3,0.1,0.5,0.4,0.4c0.3,0.2,0.6,0.4,0.9,0.6c-0.5,0-0.9-0.1-1.3-0.2c-0.2-0.1-0.5,0.1-0.5,0.3l0,0.3
		c0,0.3,0.4,0.3,0.6,0c0.2,0.1,0.5,0.1,0.7,0.1c-0.2,0.1-0.4,0.4-0.5,0.5c-0.1,0.1-0.1,0.3,0,0.4c0.2,0.3,0.7,0.2,0.6-0.2
		c-0.1-0.3,0.8-0.7,1.3-0.9c0.1,0,0.2,0.1,0.3,0c0,0,0.1,0,0.1,0c0.4,0.1,0.8,0.4,1.2,0.5l0,0.3c0,0.4,0.6,0.2,0.6-0.1l0-0.4
		c0-0.1-0.1-0.2-0.1-0.2c-0.6-0.1-1-0.4-1.6-0.6c-0.2-0.4,0.2-2.1,0-2.5c0.4,0,0.8-0.1,1.1-0.3c0.1,0,0.2,0,0.3,0.1
		c0.6,0.1,3.3,0.9,3.7,1.3c0.4,0.4,4,7,4.3,7.3c0.3,0.4,0.9-0.1,1.3-0.3c0,0,0,0,0,0c0.2,0.4,0.4,0.8,0.6,1.2
		c0.2,0.4,0.7,0.3,1.1,0.2c0.4-0.2,1.1-0.7,1-1.1C272.3,35.6,271.9,35,271.9,35z M252.7,11.7c-0.3,0-0.6-0.3-0.6-0.6
		c0-0.3,0.3-0.6,0.6-0.6c0.3,0,0.6,0.3,0.6,0.6C253.2,11.5,253,11.7,252.7,11.7z"/>
	<path class="st1" d="M397.2,113.1L281.7,44.7l-10.6-6.3c-0.1,0-0.1,0-0.2,0c-0.8,0-1.5-0.4-1.8-1c0,0,0,0,0-0.1
		c-0.1,0-0.3,0.1-0.4,0.1c-0.5,0-1-0.2-1.3-0.7c-0.1-0.1-0.2-0.3-0.5-0.8l-5.5-3.2c-0.3,0.2-0.7,0.4-1.1,0.4c-0.4,0-0.8-0.2-1.1-0.5
		c-0.1-0.1-0.2-0.2-0.3-0.4c0,0,0,0-0.1,0c0,0-0.1,0-0.1-0.1c-0.1,0-0.1,0-0.2,0c-0.1,0-0.1,0-0.2,0.1c0,0.1-0.1,0.2-0.2,0.3
		c-0.3,0.5-0.8,0.7-1.4,0.7c-0.6,0-1.1-0.3-1.4-0.7c-0.1-0.2-0.2-0.3-0.2-0.5c-0.1-0.1-0.2-0.1-0.3-0.2c-0.3-0.3-0.4-0.7-0.4-1.1
		l0-0.3c0-0.2,0.1-0.4,0.2-0.6c-0.1,0-0.1,0-0.2,0c-0.5,0-1-0.2-1.2-0.6c-0.3,0.5-0.9,0.8-1.5,0.8c-0.4,0-0.9-0.2-1.2-0.5l-0.1-0.1
		l-0.1-0.2c0,0,0,0,0,0c-0.1,0-0.2,0-0.3,0c-0.1,0-0.2,0-0.3,0c-0.6-0.1-1-0.5-1.2-1c-0.1-0.3-0.2-0.7-0.1-1.1
		c-0.1-0.2-0.2-0.4-0.3-0.7c-0.1-0.6,0-1,0.2-1.4L212.1,3.5c0,0,0,0,0,0c-0.1-0.1-0.2-0.1-0.3-0.2c-0.1-0.1-0.2-0.1-0.3-0.2
		c0.1,0,0.1,0.1,0.1,0.1c-3.3-2.1-7-3.2-11-3.2c-4.2,0-8.2,1.3-11.6,3.7c-0.2,0.1-0.4,0.2-0.6,0.4l-59.4,35.1V10.3
		c0-4.9-3.9-8.8-8.8-8.8h-19.6c-4.9,0-8.8,3.9-8.8,8.8v50.2c0,0.2,0,0.5,0,0.7l-87.8,52c-4.5,3.4-5.4,9.9-2,14.4
		c2.5,3.3,6.6,4.6,10.4,3.8l19.8,0.3l-0.1,155.9c0,0.3,0,0.6,0,0.9v6.9c0,3.1,2.5,5.7,5.7,5.7h324.6c3.1,0,5.7-2.5,5.7-5.7v-8.6
		c0-0.4,0.1-0.7,0.1-1.1l-0.1-154l22.3-0.3c3.3,0.5,6.7-0.9,8.9-3.8C402.6,123,401.7,116.5,397.2,113.1z"/>
	<g>
		<path class="st2" d="M24.2,30.4c-0.4,0-0.8-0.3-0.9-0.7c-0.2-0.5,0.1-1.1,0.6-1.3l8.3-2.8c0.5-0.2,1.1,0.1,1.3,0.6
			c0.2,0.5-0.1,1.1-0.6,1.3l-8.3,2.8C24.4,30.4,24.3,30.4,24.2,30.4z"/>
	</g>
	<g>
		<path class="st2" d="M32.3,33.5c-0.4,0-0.8-0.3-1-0.7c-0.2-0.5,0.1-1.1,0.7-1.2l11.3-3.4c0.5-0.2,1.1,0.1,1.2,0.7
			c0.2,0.5-0.1,1.1-0.7,1.2l-11.3,3.4C32.5,33.4,32.4,33.5,32.3,33.5z"/>
	</g>
	<g>
		<path class="st2" d="M41.9,35.5c-0.4,0-0.9-0.3-1-0.8c-0.1-0.5,0.2-1.1,0.7-1.2l11.9-3c0.5-0.1,1.1,0.2,1.2,0.7
			c0.1,0.5-0.2,1.1-0.7,1.2l-11.9,3C42.1,35.5,42,35.5,41.9,35.5z"/>
	</g>
	<g>
		<path class="st2" d="M50.6,38c-0.5,0-0.9-0.3-1-0.8c-0.1-0.5,0.2-1.1,0.7-1.2l13.3-3.1c0.5-0.1,1.1,0.2,1.2,0.7
			c0.1,0.5-0.2,1.1-0.7,1.2l-13.3,3.1C50.7,37.9,50.7,38,50.6,38z"/>
	</g>
	<g>
		<path class="st2" d="M60,40.5c-0.5,0-0.9-0.3-1-0.8c-0.1-0.5,0.2-1.1,0.7-1.2L74.3,35c0.5-0.1,1.1,0.2,1.2,0.7s-0.2,1.1-0.7,1.2
			l-14.5,3.5C60.2,40.4,60.1,40.5,60,40.5z"/>
	</g>
	<g>
		<path class="st2" d="M69.5,43.1c-0.5,0-0.9-0.3-1-0.8c-0.1-0.5,0.2-1.1,0.7-1.2l14.8-3.6c0.5-0.1,1.1,0.2,1.2,0.7
			c0.1,0.5-0.2,1.1-0.7,1.2L69.8,43C69.7,43.1,69.6,43.1,69.5,43.1z"/>
	</g>
	<g>
		<path class="st1" d="M84.3,69.4l-3.2,2.3v-42l3.2,0.7V69.4z"/>
	</g>
	<g>
		<path class="st1" d="M89.3,41.1l-60.4-14v-3.6l60.4,14V41.1z"/>
	</g>
	<g>
		<path class="st2" d="M31.9,26.9c-0.4,0-0.8-0.3-1-0.7c-0.2-0.5,0.1-1.1,0.7-1.2l14.8-4.4c0.5-0.2,1.1,0.1,1.2,0.7
			c0.2,0.5-0.1,1.1-0.7,1.2l-14.8,4.4C32.1,26.9,32,26.9,31.9,26.9z"/>
	</g>
	<g>
		<path class="st2" d="M41.5,29.2c-0.5,0-0.9-0.3-1-0.8c-0.1-0.5,0.2-1.1,0.7-1.2l16.8-4.1c0.5-0.1,1.1,0.2,1.2,0.7
			s-0.2,1.1-0.7,1.2l-16.8,4.1C41.7,29.2,41.6,29.2,41.5,29.2z"/>
	</g>
	<g>
		<path class="st2" d="M52.1,31.7c-0.5,0-0.9-0.3-1-0.8c-0.1-0.5,0.2-1.1,0.7-1.2l17-4c0.5-0.1,1.1,0.2,1.2,0.7
			c0.1,0.5-0.2,1.1-0.7,1.2l-17,4C52.2,31.6,52.2,31.7,52.1,31.7z"/>
	</g>
	<g>
		<path class="st2" d="M62.8,34.1c-0.5,0-0.9-0.3-1-0.8c-0.1-0.5,0.2-1.1,0.7-1.2l16.8-4c0.5-0.1,1.1,0.2,1.2,0.7
			c0.1,0.5-0.2,1.1-0.7,1.2l-16.8,4C63,34.1,62.9,34.1,62.8,34.1z"/>
	</g>
	<g>
		<path class="st2" d="M72.9,36.5c-0.5,0-0.9-0.3-1-0.8c-0.1-0.5,0.2-1.1,0.7-1.2l17.8-4.3c0.5-0.1,1.1,0.2,1.2,0.7S91.5,32,91,32.2
			l-17.8,4.3C73,36.4,73,36.5,72.9,36.5z"/>
	</g>
	<g>
		<path class="st2" d="M83.8,38.9c-0.5,0-0.9-0.3-1-0.8c-0.1-0.5,0.2-1.1,0.7-1.2l17.3-4c0.5-0.1,1.1,0.2,1.2,0.7
			c0.1,0.5-0.2,1.1-0.7,1.2l-17.3,4C83.9,38.9,83.9,38.9,83.8,38.9z"/>
	</g>
</g>
</svg>
