<?xml version="1.0" encoding="utf-8"?>
<!-- Generator: Adobe Illustrator 19.0.0, SVG Export Plug-In . SVG Version: 6.00 Build 0)  -->
<svg version="1.1" id="Layer_1" xmlns="http://www.w3.org/2000/svg" xmlns:xlink="http://www.w3.org/1999/xlink" x="0px" y="0px"
	 viewBox="0 0 188.4 160.9" style="enable-background:new 0 0 188.4 160.9;" xml:space="preserve">
<style type="text/css">
	.st0{fill:#75787B;}
	.st1{fill:#CE0058;}
	.st2{fill:#FFFFFF;}
</style>
<g>
	<path class="st0" d="M103.1,160.9H86.5V6.6c0-3.6,3-6.6,6.6-6.6h3.3c3.7,0,6.6,2.9,6.6,6.6V160.9z"/>
</g>
<g>
	<path class="st1" d="M181,103H7.4C3.3,103,0,99.8,0,95.7V22c0-4,3.3-7.3,7.4-7.3H181c4.1,0,7.3,3.3,7.3,7.3v73.7
		C188.4,99.8,185.1,103,181,103L181,103z"/>
</g>
<g>
	<path class="st2" d="M96.6,22.8c0,1.3-1.1,2.4-2.4,2.4c-1.3,0-2.4-1.1-2.4-2.4c0-1.4,1.1-2.4,2.4-2.4
		C95.5,20.4,96.6,21.4,96.6,22.8z"/>
	<path class="st2" d="M96.6,96.9c0,1.3-1.1,2.4-2.4,2.4c-1.3,0-2.4-1.1-2.4-2.4c0-1.4,1.1-2.4,2.4-2.4
		C95.5,94.5,96.6,95.6,96.6,96.9z"/>
	<path class="st2" d="M182.1,22.8c0,1.3-1.1,2.4-2.4,2.4c-1.3,0-2.4-1.1-2.4-2.4c0-1.4,1.1-2.4,2.4-2.4
		C181.1,20.4,182.1,21.4,182.1,22.8z"/>
	<path class="st2" d="M182.1,96.9c0,1.3-1.1,2.4-2.4,2.4c-1.3,0-2.4-1.1-2.4-2.4c0-1.4,1.1-2.4,2.4-2.4
		C181.1,94.5,182.1,95.6,182.1,96.9z"/>
	<path class="st2" d="M11.1,22.8c0,1.3-1.1,2.4-2.4,2.4c-1.3,0-2.4-1.1-2.4-2.4c0-1.4,1.1-2.4,2.4-2.4C10,20.4,11.1,21.4,11.1,22.8z
		"/>
	<path class="st2" d="M11.1,96.9c0,1.3-1.1,2.4-2.4,2.4c-1.3,0-2.4-1.1-2.4-2.4c0-1.4,1.1-2.4,2.4-2.4C10,94.5,11.1,95.6,11.1,96.9z
		"/>
</g>
</svg>
