<?xml version="1.0" encoding="utf-8"?>
<!-- Generator: Adobe Illustrator 19.0.0, SVG Export Plug-In . SVG Version: 6.00 Build 0)  -->
<svg version="1.1" id="Layer_1" xmlns="http://www.w3.org/2000/svg" xmlns:xlink="http://www.w3.org/1999/xlink" x="0px" y="0px"
	 viewBox="0 0 239.1 364.6" style="enable-background:new 0 0 239.1 364.6;" xml:space="preserve">
<style type="text/css">
	.st0{fill:#66A8C0;}
	.st1{fill:#006E96;}
</style>
<path id="XMLID_18_" class="st0" d="M78.8,364.1c0.3,0.4,7-0.4,16.2,0.5c3,0.3,6.5-1.3,9.5-1.2s7.1,0.6,10,0.4
	c2.9-0.3,14.9-0.6,17.9-0.4s2.6,1.3,6,0.6s7.6-1.3,9.6-1.4c3.4-0.1,13,0.7,15,0.1c1.9-0.6-5.1-2.2-9.6-2.6c-4.5-0.4-7.1-0.9-9.4-2.4
	s-4.7-5.5-6-8.9c-1.3-3.4-4.1-19.9-4.6-26.3c-0.6-6.4-1.1-23.1-0.8-39.3c0.3-12.7,0.8-20.2,1.6-21.2c2-2.5,1.1-2.3,5.9-8.2
	c4.8-5.9,15-18.3,23.9-21.5c8.9-3.1,23.3-7.2,24.2-8s-0.2-12.4-2.4-10.9c-2.2,1.5-13.3,4.6-19.6,7s-16.8,9.4-21.6,13.8
	c-4.8,4.4-5.5,6.8-10.9,7.3c-3.1,0.3-1.8-27.1-0.6-31.1c1.3-4.1,16.7-67.8,15.8-70.4c-0.9-2.6-22.1,10.8-22.1,10.8
	c0,0.2-15.8,52.6-15.6,52.2c1.6-2.2,1.4-2.3,2,6.9c0,0,0.6,9.2,0.3,15.5c-0.4,6.3-0.9,12.6-5.2,13.1c-4.3,0.6-3.9,0.4-11.1-5.7
	c-7.2-6.1-11.7-9.4-19.4-14.4c-7.8-5-17.2-6.8-20.5-8.9c-3.3-2-9.6-6.5-9.6-6.5s-8.3,1.7,2.2,9.8c10.5,8.1,14.4,7.8,23.9,14.6
	s15.9,12.9,20.5,16.8c4.6,3.9,10.9,11.2,12.2,16.8s1.1-7.9-0.7,8.2s-1.5,71.5-5.7,79.3c-4.3,7.8-2.8,10.9-7.6,12.6
	C89.9,361.9,76.4,361,78.8,364.1z"/>
<path id="XMLID_17_" class="st1" d="M215.1,177.4c0-11.3-4.3-21.2-10.9-27.2c0.5-1.9,0.8-3.8,0.8-5.8c0-11.6-9.3-21.1-20.9-21.4
	c-0.5-18.4-16.1-33.3-35.3-33.3c-1.6,0-3.2,0.1-4.7,0.3c-4.7-4.2-10.9-6.8-17.7-6.8c-9.9,0-18.5,5.4-23.1,13.5
	c-3.8-1.6-8-2.4-12.4-2.4c-15.9,0-29.1,11.3-32.4,26.3c-7.9,3.2-13.5,10.8-13.5,19.8c-10.1,4.6-17.1,14.9-17.1,26.9
	c0,6.5,2.1,12.6,5.7,17.5c-3.6,3.5-5.9,8.2-5.9,13.5c0,9.4,7.2,17.2,16.7,18.9c0,0.4,0.1,0.8,0.2,1.2c2.4,14.1,17.3,23.3,33.2,20.6
	c10.7-1.8,19.2-8.7,22.8-17.2c6.7-1.6,12.7-4.8,17.8-9c5.7,2.9,12.1,4.5,19,4.5c0.1,0,0.2,0,0.3,0c4.7,7.8,13.2,13,22.9,13
	c0.5,0,1.1,0,1.6-0.1c4.9,6.7,12.8,11.1,21.7,11.1c14.8,0,26.8-12,26.8-26.8c0-4.7-1.2-9.1-3.3-12.9
	C212,195.4,215.1,186.8,215.1,177.4z"/>
</svg>
