<?xml version="1.0" encoding="utf-8"?>
<!-- Generator: Adobe Illustrator 18.0.0, SVG Export Plug-In . SVG Version: 6.00 Build 0)  -->
<!DOCTYPE svg PUBLIC "-//W3C//DTD SVG 1.1//EN" "http://www.w3.org/Graphics/SVG/1.1/DTD/svg11.dtd">
<svg version="1.1" id="Layer_1" xmlns="http://www.w3.org/2000/svg" xmlns:xlink="http://www.w3.org/1999/xlink" x="0px" y="0px"
	 viewBox="0 0 100 100" enable-background="new 0 0 100 100" xml:space="preserve">
<g opacity="0.85">
	<path fill-rule="evenodd" clip-rule="evenodd" fill="#FFFFFF" d="M50,0c27.6,0,50,22.4,50,50s-22.4,50-50,50S0,77.6,0,50
		S22.4,0,50,0z"/>
</g>
<g>
	<g>
		<path fill="#717171" d="M69.3,50.3c-2,0-3.7,1.7-3.7,3.7v9.4H34.4V54c0-2-1.7-3.7-3.7-3.7S27,52,27,54v13.1c0,2,1.7,3.7,3.7,3.7
			h38.6c2,0,3.7-1.7,3.7-3.7V54C73,52,71.3,50.3,69.3,50.3L69.3,50.3z M69.3,50.3"/>
		<path fill="#717171" d="M42.2,41.5l4.1-4.1v13.7c0,2,1.7,3.7,3.7,3.7c2,0,3.7-1.7,3.7-3.7V37.4l4.1,4.1c0.7,0.7,1.7,1.1,2.6,1.1
			c0.9,0,1.9-0.4,2.6-1.1c1.4-1.4,1.4-3.8,0-5.2L52.6,25.9c-1.4-1.4-3.8-1.4-5.2,0L37,36.3c-1.4,1.4-1.4,3.8,0,5.2
			C38.4,43,40.8,43,42.2,41.5L42.2,41.5z M42.2,41.5"/>
	</g>
</g>
</svg>
