<?xml version="1.0" encoding="utf-8"?>
<!-- Generator: Adobe Illustrator 19.0.0, SVG Export Plug-In . SVG Version: 6.00 Build 0)  -->
<svg version="1.1" id="_x31_st-Growth" xmlns="http://www.w3.org/2000/svg" xmlns:xlink="http://www.w3.org/1999/xlink" x="0px"
	 y="0px" viewBox="0 0 727 525.3" style="enable-background:new 0 0 727 525.3;" xml:space="preserve">
<style type="text/css">
	.st0{fill-rule:evenodd;clip-rule:evenodd;fill:#D8D8D5;}
	.st1{fill:#1E1E1E;}
	.st2{font-family:'Gotham-Medium';}
	.st3{font-size:14px;}
	.st4{font-family:'Gotham-Book';}
	.st5{fill:#E5F0F4;}
	.st6{fill:#FFE6DB;}
	.st7{fill:none;stroke:#FF550F;stroke-width:2.5;stroke-linecap:round;stroke-linejoin:round;stroke-miterlimit:10;}
	.st8{fill:none;stroke:#006E96;stroke-width:2.5;stroke-linecap:round;stroke-linejoin:round;stroke-miterlimit:10;}
</style>
<g>
	<g>
		<polygon class="st0" points="704.4,10.4 704.4,9.4 62.4,9.4 62.4,5.4 61.4,5.4 61.4,9.4 57.4,9.4 57.4,10.4 61.4,10.4 61.4,103 
			57.4,103 57.4,104 61.4,104 61.4,196.5 57.4,196.5 57.4,197.5 61.4,197.5 61.4,290.2 57.4,290.2 57.4,291.2 61.4,291.2 
			61.4,383.8 57.4,383.8 57.4,384.8 61.4,384.8 61.4,476.4 57.4,476.4 57.4,477.4 61.4,477.4 61.4,481.4 62.4,481.4 62.4,477.4 
			704.4,477.4 704.4,476.4 62.4,476.4 62.4,384.8 704.4,384.8 704.4,383.8 62.4,383.8 62.4,291.2 704.4,291.2 704.4,290.2 
			62.4,290.2 62.4,197.5 704.4,197.5 704.4,196.5 62.4,196.5 62.4,104 704.4,104 704.4,103 62.4,103 62.4,10.4 		"/>
	</g>
</g>
<text transform="matrix(0 -1 1 0 15.5948 293.3389)" class="st1 st2 st3">Amount ($000)</text>
<text transform="matrix(1 0 0 1 378.9281 525.3393)" class="st1 st2 st3">Years</text>
<text transform="matrix(1 0 0 1 42.9901 481)" class="st1 st4 st3">0</text>
<text transform="matrix(1 0 0 1 683.6594 497.6667)" class="st1 st4 st3">25</text>
<text transform="matrix(1 0 0 1 556.4984 497.6667)" class="st1 st4 st3">20</text>
<text transform="matrix(1 0 0 1 432.4667 497.6667)" class="st1 st4 st3">15</text>
<text transform="matrix(1 0 0 1 305.3059 497.6667)" class="st1 st4 st3">10</text>
<text transform="matrix(1 0 0 1 182.8175 497.6667)" class="st1 st4 st3">5</text>
<text transform="matrix(1 0 0 1 34.6878 389.6667)" class="st1 st4 st3">30</text>
<text transform="matrix(1 0 0 1 34.2122 297.6667)" class="st1 st4 st3">60</text>
<text transform="matrix(1 0 0 1 34.2122 203)" class="st1 st4 st3">90</text>
<text transform="matrix(1 0 0 1 30.1522 108.3333)" class="st1 st4 st3">120</text>
<text transform="matrix(1 0 0 1 29.97 15.3333)" class="st1 st4 st3">150</text>
<path class="st5" d="M700,25.7c0,0-164.3,155.3-320.1,252.1c-61,37.9-154.6,93.7-253.6,137.2l-57.1,26c0,0-12.2,4.8-3.5,3.3
	c17-3,105.8-29.3,148.8-42.8c81.4-25.5,152.8-45.8,255.2-80.8c127.4-43.4,229.6-83.1,229.6-83.1L700,25.7z"/>
<path class="st6" d="M698.7,390v53.3c0,0-394,4-479.4,4.4C134,448,61.5,446,61.5,446l6.5-2.7c0,0,25.4-5.3,96.3-8.6
	s211.4-15.4,283.2-20.9C514,408.7,698.7,390,698.7,390z"/>
<g>
	<g>
		<polyline class="st7" points="696.9,415.7 694.8,415.7 692.7,414.3 690.6,414.5 688.5,415.3 686.4,415.3 684.3,413.7 682.2,413.6 
			680,412.5 677.9,413.2 675.8,414.7 673.7,418.2 671.6,420 669.5,419.4 667.4,419.6 665.2,419.8 663.1,418.1 661,419.9 
			658.9,419.7 656.8,415.7 654.7,417.3 652.6,416.9 650.4,414.3 648.3,415.2 646.2,417.1 644.1,416.4 642,419.4 639.9,417.9 
			637.8,418.6 635.7,418.9 633.5,418.3 631.4,416.8 629.3,414.9 627.2,412.3 625.1,413.6 623,415 620.9,416.2 618.7,417.6 
			616.6,417.5 614.5,420.6 612.4,419.9 610.3,419.7 608.2,421.6 606.1,423.5 604,425.4 601.8,425.9 599.7,425.4 597.6,426.9 
			595.5,427.2 593.4,426 591.3,425.9 589.2,426.6 587,427.9 584.9,426.9 582.8,427.4 580.7,427.4 578.6,427.9 576.5,428.8 
			574.4,429.6 572.2,430.1 570.1,430.4 568,430.6 565.9,432.3 563.8,430.8 561.7,432.7 559.6,433.4 557.5,435.2 555.3,434.4 
			553.2,433.7 551.1,433.4 549,432.4 546.9,432.2 544.8,433.7 542.7,433.6 540.5,435.2 538.4,435.9 536.3,436.8 534.2,436.9 
			532.1,437.5 530,438.2 527.9,439 525.8,439 523.6,439.2 521.5,438.5 519.4,438.8 517.3,439.2 515.2,440 513.1,440.5 511,440.9 
			508.8,441.1 506.7,441.1 504.6,440.6 502.5,440.6 500.4,439.8 498.3,440.9 496.2,442.6 494,442.7 491.9,442.9 489.8,442.2 
			487.7,442.3 485.6,442 483.5,443 481.4,443.1 479.3,442.1 477.1,441.3 475,441.1 472.9,441.4 470.8,440.3 468.7,439.5 
			466.6,438.9 464.5,439.4 462.3,439.9 460.2,441.6 458.1,440.1 456,439.6 453.9,439.3 451.8,438.9 449.7,438.6 447.6,437.8 
			445.4,438 443.3,438.4 441.2,440.4 439.1,440.7 437,441.6 434.9,441.3 432.8,440.4 430.6,440.6 428.5,441.3 426.4,442.2 
			424.3,441.1 422.2,441.7 420.1,441.8 418,440.3 415.8,438.8 413.7,438.3 411.6,438.4 409.5,437.3 407.4,435.7 405.3,436.1 
			403.2,436.4 401.1,436.1 398.9,437.1 396.8,436.6 394.7,435.6 392.6,434.3 390.5,433.9 388.4,432.7 386.3,435 384.1,434.2 
			382,433.2 379.9,433.4 377.8,432.7 375.7,431.9 373.6,431.3 371.5,430.2 369.4,432 367.2,432.5 365.1,435.3 363,434.6 
			360.9,433.9 358.8,435 356.7,435.4 354.6,434.7 352.4,436 350.3,436.8 348.2,436.8 346.1,434.6 344,435 341.9,435.5 339.8,436.2 
			337.6,437.6 335.5,437.8 333.4,438.3 331.3,437 329.2,435.9 327.1,434.8 325,434.1 322.9,432.9 320.7,433.8 318.6,433.9 
			316.5,434.2 314.4,433.7 312.3,432.4 310.2,432.7 308.1,432.8 305.9,431.1 303.8,431.6 301.7,432 299.6,433 297.5,432.7 
			295.4,431.6 293.3,432 291.2,432.9 289,432.6 286.9,432.4 284.8,433.5 282.7,431.6 280.6,432.5 278.5,430.8 276.4,430.6 
			274.2,430.4 272.1,428.5 270,427.9 267.9,428.9 265.8,430.2 263.7,429.1 261.6,428 259.4,429 257.3,429.3 255.2,429.8 
			253.1,428.6 251,427 248.9,428.3 246.8,427.6 244.7,427.4 242.5,428 240.4,428.4 238.3,427.4 236.2,429.6 234.1,429.8 232,430.9 
			229.9,430.6 227.7,429.6 225.6,428.5 223.5,428.3 221.4,426.3 219.3,427 217.2,428.1 215.1,426.5 213,428.4 210.8,429.4 
			208.7,430.2 206.6,429.5 204.5,429.5 202.4,429.1 200.3,428.7 198.2,429.8 196,430.5 193.9,430.1 191.8,431.3 189.7,430.8 
			187.6,430 185.5,430.9 183.4,431.7 181.2,431.4 179.1,431.8 177,432.1 174.9,432.8 172.8,434.6 170.7,435.1 168.6,434.9 
			166.5,433 164.3,431.8 162.2,432 160.1,431.4 158,432.3 155.9,429.5 153.8,429.2 151.7,427.1 149.5,429.4 147.4,429.1 
			145.3,429.7 143.2,429.7 141.1,431.7 139,432 136.9,430 134.8,433.2 132.6,434 130.5,434.2 128.4,435 126.3,435.8 124.2,435.9 
			122.1,436.3 120,435.8 117.8,436.6 115.7,436.2 113.6,435.6 111.5,436 109.4,436.6 107.3,435.6 105.2,437.8 103,437.9 
			100.9,439.6 98.8,440.1 96.7,441.6 94.6,440.8 92.5,440.9 90.4,441.4 88.3,441.1 86.1,440.8 84,441.1 81.9,440.7 79.8,441.3 
			77.7,440.6 75.6,441.6 73.5,442.8 71.3,443.3 69.2,443.7 67.1,444.8 65,445.1 62.9,444.7 62.9,444.7 		"/>
	</g>
</g>
<polyline class="st8" points="62.9,444.7 65,444.1 67.1,444.5 69.2,443.1 71.3,442.7 73.5,443.2 75.6,441.6 77.7,441.1 79.8,442.2 
	81.9,441.7 84,440.1 86.1,438.5 88.3,438.5 90.4,438.6 92.5,437.8 94.6,438 96.7,437.5 98.8,436 100.9,434 103,434.9 105.2,433.7 
	107.3,432.3 109.4,431.8 111.5,429.9 113.6,428.3 115.7,424.1 117.8,422.3 120,420 122.1,421.6 124.2,420.6 126.3,422.1 
	128.4,422.2 130.5,420.6 132.6,420.7 134.8,418.2 136.9,419.2 139,419.8 141.1,420.4 143.2,422.1 145.3,420.4 147.4,418.8 
	149.5,418.7 151.7,419.2 153.8,416.4 155.9,414.7 158,413.7 160.1,413.2 162.2,411.1 164.3,413.8 166.5,412.2 168.6,412.7 
	170.7,409.8 172.8,409 174.9,407.1 177,405.7 179.1,402.3 181.2,402.7 183.4,404.7 185.5,404 187.6,404.9 189.7,404.9 191.8,404.2 
	193.9,404.5 196,404 198.2,402.7 200.3,402.8 202.4,402.9 204.5,402.1 206.6,398.1 208.7,397.9 210.8,397.5 213,401.6 215.1,399.9 
	217.2,399.1 219.3,397.4 221.4,400.1 223.5,403.6 225.6,402.6 227.7,405.7 229.9,404.6 232,405.5 234.1,406.6 236.2,406.2 
	238.3,406.7 240.4,408.4 242.5,408.6 244.7,408.8 246.8,406.2 248.9,403.9 251,402.4 253.1,401.4 255.2,402 257.3,402.8 259.4,401 
	261.6,398.1 263.7,398.9 265.8,397.2 267.9,395.4 270,394.9 272.1,394.7 274.2,389.4 276.4,386.1 278.5,384.7 280.6,383.2 
	282.7,379.2 284.8,375.7 286.9,376.3 289,378.7 291.2,377.5 293.3,377.2 295.4,373.3 297.5,367.1 299.6,369.5 301.7,365 
	303.8,365.4 305.9,359.7 308.1,360.2 310.2,359.6 312.3,358.4 314.4,353.5 316.5,354.4 318.6,355.5 320.7,349.5 322.9,350 
	325,347.9 327.1,344.6 329.2,346.3 331.3,348.1 333.4,347.4 335.5,344.9 337.6,339.5 339.8,344.5 341.9,343.6 344,341.4 
	346.1,345.2 348.2,342.5 350.3,343.2 352.4,340.4 354.6,340.2 356.7,339.7 358.8,341.7 360.9,343 363,343 365.1,346 367.2,342.1 
	369.4,342.8 371.5,342.8 373.6,335 375.7,331.9 377.8,330.6 379.9,332 382,331.3 384.1,326.3 386.3,328 388.4,321.4 390.5,323.3 
	392.6,324.2 394.7,318.8 396.8,315.2 398.9,312.1 401.1,308.4 403.2,312.1 405.3,311.4 407.4,311.8 409.5,304.5 411.6,300.7 
	413.7,300.2 415.8,309.4 418,308.3 420.1,313.3 422.2,312.4 424.3,313.4 426.4,307.4 428.5,308.3 430.6,312.5 432.8,306.6 
	434.9,299.7 437,296.1 439.1,301.5 441.2,292.8 443.3,292.2 445.4,289.8 447.6,289.4 449.7,287.5 451.8,292.7 453.9,289.8 
	456,284.5 458.1,282.4 460.2,285.7 462.3,282.1 464.5,287.2 466.6,286 468.7,287.2 470.8,279.4 472.9,275.4 475,270.3 477.1,256.7 
	479.3,256.6 481.4,255.8 483.5,261.5 485.6,250.2 487.7,238 489.8,235 491.9,235.7 494,228.1 496.2,226.9 498.3,239.3 500.4,242 
	502.5,237.1 504.6,236.3 506.7,231.5 508.8,233 511,223.8 513.1,226.5 515.2,231.1 517.3,217.3 519.4,210.3 521.5,206.9 
	523.6,206.7 525.8,201.5 527.9,184.4 530,182 532.1,183.1 534.2,186.1 536.3,178.1 538.4,187.6 540.5,178.5 542.7,176.6 544.8,181 
	546.9,172.6 549,166.2 551.1,164.3 553.2,155.5 555.3,152 557.5,151.5 559.6,138.1 561.7,124.8 563.8,122.1 565.9,132.4 568,132.9 
	570.1,136 572.2,143.1 574.4,121.5 576.5,133.1 578.6,141.1 580.7,147.2 582.8,157.6 584.9,141.1 587,152.2 589.2,146 591.3,147.6 
	593.4,145.8 595.5,143.3 597.6,133.3 599.7,141.8 601.8,139.1 604,138.3 606.1,141.4 608.2,137.6 610.3,149.8 612.4,156.7 
	614.5,151.2 616.6,154.9 618.7,153.9 620.9,139.5 623,153.9 625.1,156 627.2,162.2 629.3,159.2 631.4,158.2 633.5,160.9 
	635.7,165.4 637.8,164 639.9,161.1 642,171.6 644.1,164.6 646.2,157.9 648.3,154 650.4,152.5 652.6,166.8 654.7,160.3 656.8,152.7 
	658.9,130.5 661,112.7 663.1,116.2 665.2,124.7 667.4,124.2 669.5,135.9 671.6,139.2 673.7,137.4 675.8,130.7 677.9,142.6 
	680,148.9 682.2,150.9 684.3,144.5 686.4,135.1 688.5,134.9 690.6,134.5 692.7,130.2 694.8,130 696.9,134.2 "/>
</svg>
