<?xml version="1.0" encoding="utf-8"?>
<!-- Generator: Adobe Illustrator 19.0.0, SVG Export Plug-In . SVG Version: 6.00 Build 0)  -->
<svg version="1.1" id="_x32_nd-Growth" xmlns="http://www.w3.org/2000/svg" xmlns:xlink="http://www.w3.org/1999/xlink" x="0px"
	 y="0px" viewBox="0 0 586 674" style="enable-background:new 0 0 586 674;" xml:space="preserve">
<style type="text/css">
	.st0{fill-rule:evenodd;clip-rule:evenodd;fill:#D8D8D5;}
	.st1{fill:#1E1E1E;}
	.st2{font-family:'Gotham-Medium';}
	.st3{font-size:22px;}
	.st4{font-family:'Gotham-Book';}
	.st5{fill:#E5F0F4;}
	.st6{fill:none;stroke:#B7B8BA;stroke-width:1.5;stroke-linecap:round;stroke-linejoin:round;stroke-miterlimit:10;}
	.st7{fill:none;stroke:#006E96;stroke-width:2.5;stroke-linecap:round;stroke-linejoin:round;stroke-miterlimit:10;}
</style>
<g>
	<g>
		<polygon class="st0" points="567.1,69.3 567.1,68.2 90.2,68.2 90.2,63.6 89.5,63.6 89.5,68.2 86.5,68.2 86.5,69.3 89.5,69.3 
			89.5,156.4 86.5,156.4 86.5,157.5 89.5,157.5 89.5,244.6 86.5,244.6 86.5,245.7 89.5,245.7 89.5,332.8 86.5,332.8 86.5,334 
			89.5,334 89.5,421 86.5,421 86.5,422.2 89.5,422.2 89.5,509.3 86.5,509.3 86.5,510.4 89.5,510.4 89.5,597.5 86.5,597.5 
			86.5,598.6 89.5,598.6 89.5,603.2 90.2,603.2 90.2,598.6 567.1,598.6 567.1,597.5 90.2,597.5 90.2,510.4 567.1,510.4 567.1,509.3 
			90.2,509.3 90.2,422.2 567.1,422.2 567.1,421 90.2,421 90.2,334 567.1,334 567.1,332.8 90.2,332.8 90.2,245.7 567.1,245.7 
			567.1,244.6 90.2,244.6 90.2,157.5 567.1,157.5 567.1,156.4 90.2,156.4 90.2,69.3 		"/>
	</g>
</g>
<text transform="matrix(0 -1 1 0 29.4297 390.0527)" class="st1 st2 st3">Amount ($000)</text>
<text transform="matrix(1 0 0 1 325.3345 656.0186)" class="st1 st2 st3">Years</text>
<text transform="matrix(1 0 0 1 537.8457 624.6533)" class="st1 st4 st3">25</text>
<text transform="matrix(1 0 0 1 442.207 624.6533)" class="st1 st4 st3">20</text>
<text transform="matrix(1 0 0 1 354.0771 624.6533)" class="st1 st4 st3">15</text>
<text transform="matrix(1 0 0 1 258.4365 624.6533)" class="st1 st4 st3">10</text>
<text transform="matrix(1 0 0 1 172.5781 624.6533)" class="st1 st4 st3">5</text>
<path class="st5" d="M563.1,172.8c0,0-104.5,130-222.6,225.2c-37.5,30.2-148,112.2-194.3,136.4l-48.8,28.7c0,0-12.4,7.4-5.9,5.7
	c12.6-3.4,105.5-39.3,137.9-51.8c57.6-22.2,96.4-37.6,172.1-70.7c63.9-28,161.9-74.1,161.9-74.1L563.1,172.8z"/>
<g>
	<g>
		<line class="st6" x1="92.2" y1="567.6" x2="90.6" y2="568.3"/>
		<line class="st6" x1="93.7" y1="568.2" x2="92.2" y2="567.6"/>
		<line class="st6" x1="95.3" y1="566.7" x2="93.7" y2="568.2"/>
		<line class="st6" x1="96.9" y1="566.5" x2="95.3" y2="566.7"/>
		<line class="st6" x1="98.5" y1="567.1" x2="96.9" y2="566.5"/>
		<line class="st6" x1="100" y1="565.5" x2="98.5" y2="567.1"/>
		<line class="st6" x1="101.6" y1="564.9" x2="100" y2="565.5"/>
		<line class="st6" x1="103.2" y1="566.5" x2="101.6" y2="564.9"/>
		<line class="st6" x1="104.7" y1="565.9" x2="103.2" y2="566.5"/>
		<line class="st6" x1="106.3" y1="564.1" x2="104.7" y2="565.9"/>
		<line class="st6" x1="107.9" y1="562.7" x2="106.3" y2="564.1"/>
		<line class="st6" x1="109.4" y1="563" x2="107.9" y2="562.7"/>
		<line class="st6" x1="111" y1="563.1" x2="109.4" y2="563"/>
		<line class="st6" x1="112.6" y1="562.4" x2="111" y2="563.1"/>
		<line class="st6" x1="114.2" y1="562.9" x2="112.6" y2="562.4"/>
		<line class="st6" x1="115.7" y1="562.4" x2="114.2" y2="562.9"/>
		<line class="st6" x1="117.3" y1="560.9" x2="115.7" y2="562.4"/>
		<line class="st6" x1="118.9" y1="558.7" x2="117.3" y2="560.9"/>
		<line class="st6" x1="120.4" y1="560" x2="118.9" y2="558.7"/>
		<line class="st6" x1="122" y1="558.6" x2="120.4" y2="560"/>
		<line class="st6" x1="123.6" y1="557" x2="122" y2="558.6"/>
		<line class="st6" x1="125.1" y1="556.6" x2="123.6" y2="557"/>
		<line class="st6" x1="126.7" y1="554.6" x2="125.1" y2="556.6"/>
		<line class="st6" x1="128.3" y1="552.9" x2="126.7" y2="554.6"/>
		<line class="st6" x1="129.9" y1="548.2" x2="128.3" y2="552.9"/>
		<line class="st6" x1="131.4" y1="546.2" x2="129.9" y2="548.2"/>
		<line class="st6" x1="133" y1="543.4" x2="131.4" y2="546.2"/>
		<line class="st6" x1="134.6" y1="545.5" x2="133" y2="543.4"/>
		<line class="st6" x1="136.1" y1="544.6" x2="134.6" y2="545.5"/>
		<line class="st6" x1="137.7" y1="546.5" x2="136.1" y2="544.6"/>
		<line class="st6" x1="139.3" y1="546.8" x2="137.7" y2="546.5"/>
		<line class="st6" x1="140.8" y1="544.8" x2="139.3" y2="546.8"/>
		<line class="st6" x1="142.4" y1="545.1" x2="140.8" y2="544.8"/>
		<line class="st6" x1="144" y1="542.2" x2="142.4" y2="545.1"/>
		<line class="st6" x1="145.5" y1="543.7" x2="144" y2="542.2"/>
		<line class="st6" x1="147.1" y1="544.6" x2="145.5" y2="543.7"/>
		<line class="st6" x1="148.7" y1="545.6" x2="147.1" y2="544.6"/>
		<line class="st6" x1="150.3" y1="547.8" x2="148.7" y2="545.6"/>
		<line class="st6" x1="151.8" y1="545.9" x2="150.3" y2="547.8"/>
		<line class="st6" x1="153.4" y1="544" x2="151.8" y2="545.9"/>
		<line class="st6" x1="155" y1="544.1" x2="153.4" y2="544"/>
		<line class="st6" x1="156.5" y1="544.7" x2="155" y2="544.1"/>
		<line class="st6" x1="158.1" y1="541.6" x2="156.5" y2="544.7"/>
		<line class="st6" x1="159.7" y1="539.8" x2="158.1" y2="541.6"/>
		<line class="st6" x1="161.2" y1="538.7" x2="159.7" y2="539.8"/>
		<line class="st6" x1="162.8" y1="538.5" x2="161.2" y2="538.7"/>
		<line class="st6" x1="164.4" y1="536.1" x2="162.8" y2="538.5"/>
		<line class="st6" x1="166" y1="539.6" x2="164.4" y2="536.1"/>
		<line class="st6" x1="167.5" y1="538" x2="166" y2="539.6"/>
		<line class="st6" x1="169.1" y1="538.7" x2="167.5" y2="538"/>
		<line class="st6" x1="170.7" y1="535.3" x2="169.1" y2="538.7"/>
		<line class="st6" x1="172.2" y1="534.5" x2="170.7" y2="535.3"/>
		<line class="st6" x1="173.8" y1="532.3" x2="172.2" y2="534.5"/>
		<line class="st6" x1="175.4" y1="530.9" x2="173.8" y2="532.3"/>
		<line class="st6" x1="176.9" y1="526.7" x2="175.4" y2="530.9"/>
		<line class="st6" x1="178.5" y1="527.3" x2="176.9" y2="526.7"/>
		<line class="st6" x1="180.1" y1="529.9" x2="178.5" y2="527.3"/>
		<line class="st6" x1="181.7" y1="529.3" x2="180.1" y2="529.9"/>
		<line class="st6" x1="183.2" y1="530.8" x2="181.7" y2="529.3"/>
		<line class="st6" x1="184.8" y1="531" x2="183.2" y2="530.8"/>
		<line class="st6" x1="186.4" y1="530.3" x2="184.8" y2="531"/>
		<line class="st6" x1="187.9" y1="530.5" x2="186.4" y2="530.3"/>
		<line class="st6" x1="189.5" y1="530.2" x2="187.9" y2="530.5"/>
		<line class="st6" x1="191.1" y1="528.5" x2="189.5" y2="530.2"/>
		<line class="st6" x1="192.6" y1="528.6" x2="191.1" y2="528.5"/>
		<line class="st6" x1="194.2" y1="528.8" x2="192.6" y2="528.6"/>
		<line class="st6" x1="195.8" y1="528.2" x2="194.2" y2="528.8"/>
		<line class="st6" x1="197.4" y1="523.7" x2="195.8" y2="528.2"/>
		<line class="st6" x1="198.9" y1="523.5" x2="197.4" y2="523.7"/>
		<line class="st6" x1="200.5" y1="523.2" x2="198.9" y2="523.5"/>
		<line class="st6" x1="202.1" y1="528.5" x2="200.5" y2="523.2"/>
		<line class="st6" x1="203.6" y1="526.7" x2="202.1" y2="528.5"/>
		<line class="st6" x1="205.2" y1="526.2" x2="203.6" y2="526.7"/>
		<line class="st6" x1="206.8" y1="524.2" x2="205.2" y2="526.2"/>
		<line class="st6" x1="208.3" y1="527.5" x2="206.8" y2="524.2"/>
		<line class="st6" x1="209.9" y1="531.8" x2="208.3" y2="527.5"/>
		<line class="st6" x1="211.5" y1="530.9" x2="209.9" y2="531.8"/>
		<line class="st6" x1="213" y1="534.6" x2="211.5" y2="530.9"/>
		<line class="st6" x1="214.6" y1="533.7" x2="213" y2="534.6"/>
		<line class="st6" x1="216.2" y1="534.9" x2="214.6" y2="533.7"/>
		<line class="st6" x1="217.8" y1="536" x2="216.2" y2="534.9"/>
		<line class="st6" x1="219.3" y1="535.7" x2="217.8" y2="536"/>
		<line class="st6" x1="220.9" y1="536.4" x2="219.3" y2="535.7"/>
		<line class="st6" x1="222.5" y1="538.8" x2="220.9" y2="536.4"/>
		<line class="st6" x1="224" y1="539.1" x2="222.5" y2="538.8"/>
		<line class="st6" x1="225.6" y1="539.6" x2="224" y2="539.1"/>
		<line class="st6" x1="227.2" y1="536.8" x2="225.6" y2="539.6"/>
		<line class="st6" x1="228.7" y1="534.5" x2="227.2" y2="536.8"/>
		<line class="st6" x1="230.3" y1="532.9" x2="228.7" y2="534.5"/>
		<line class="st6" x1="231.9" y1="531.7" x2="230.3" y2="532.9"/>
		<line class="st6" x1="233.5" y1="532.6" x2="231.9" y2="531.7"/>
		<line class="st6" x1="235" y1="533.7" x2="233.5" y2="532.6"/>
		<line class="st6" x1="236.6" y1="532.1" x2="235" y2="533.7"/>
		<line class="st6" x1="238.2" y1="528.8" x2="236.6" y2="532.1"/>
		<line class="st6" x1="239.7" y1="530" x2="238.2" y2="528.8"/>
		<line class="st6" x1="241.3" y1="528.1" x2="239.7" y2="530"/>
		<line class="st6" x1="242.9" y1="526.4" x2="241.3" y2="528.1"/>
		<line class="st6" x1="244.4" y1="525.9" x2="242.9" y2="526.4"/>
		<line class="st6" x1="246" y1="526" x2="244.4" y2="525.9"/>
		<line class="st6" x1="247.6" y1="520" x2="246" y2="526"/>
		<line class="st6" x1="249.2" y1="516.4" x2="247.6" y2="520"/>
		<line class="st6" x1="250.7" y1="514.7" x2="249.2" y2="516.4"/>
		<line class="st6" x1="252.3" y1="513.5" x2="250.7" y2="514.7"/>
		<line class="st6" x1="253.9" y1="509.3" x2="252.3" y2="513.5"/>
		<line class="st6" x1="255.4" y1="505.3" x2="253.9" y2="509.3"/>
		<line class="st6" x1="257" y1="506.1" x2="255.4" y2="505.3"/>
		<line class="st6" x1="258.6" y1="509.1" x2="257" y2="506.1"/>
		<line class="st6" x1="260.1" y1="508.1" x2="258.6" y2="509.1"/>
		<line class="st6" x1="261.7" y1="508" x2="260.1" y2="508.1"/>
		<line class="st6" x1="263.3" y1="503.2" x2="261.7" y2="508"/>
		<line class="st6" x1="264.8" y1="495.7" x2="263.3" y2="503.2"/>
		<line class="st6" x1="266.4" y1="498.3" x2="264.8" y2="495.7"/>
		<line class="st6" x1="268" y1="493.1" x2="266.4" y2="498.3"/>
		<line class="st6" x1="269.6" y1="493.8" x2="268" y2="493.1"/>
		<line class="st6" x1="271.1" y1="486.8" x2="269.6" y2="493.8"/>
		<line class="st6" x1="272.7" y1="487.3" x2="271.1" y2="486.8"/>
		<line class="st6" x1="274.3" y1="486.7" x2="272.7" y2="487.3"/>
		<line class="st6" x1="275.8" y1="485.4" x2="274.3" y2="486.7"/>
		<line class="st6" x1="277.4" y1="479.9" x2="275.8" y2="485.4"/>
		<line class="st6" x1="279" y1="481.2" x2="277.4" y2="479.9"/>
		<line class="st6" x1="280.5" y1="482.4" x2="279" y2="481.2"/>
		<line class="st6" x1="282.1" y1="475.1" x2="280.5" y2="482.4"/>
		<line class="st6" x1="283.7" y1="475.7" x2="282.1" y2="475.1"/>
		<line class="st6" x1="285.3" y1="473.4" x2="283.7" y2="475.7"/>
		<line class="st6" x1="286.8" y1="469.4" x2="285.3" y2="473.4"/>
		<line class="st6" x1="288.4" y1="472.1" x2="286.8" y2="469.4"/>
		<line class="st6" x1="290" y1="474.6" x2="288.4" y2="472.1"/>
		<line class="st6" x1="291.5" y1="474.1" x2="290" y2="474.6"/>
		<line class="st6" x1="293.1" y1="471.6" x2="291.5" y2="474.1"/>
		<line class="st6" x1="294.7" y1="465.2" x2="293.1" y2="471.6"/>
		<line class="st6" x1="296.2" y1="471.8" x2="294.7" y2="465.2"/>
		<line class="st6" x1="297.8" y1="470.5" x2="296.2" y2="471.8"/>
		<line class="st6" x1="299.4" y1="468.1" x2="297.8" y2="470.5"/>
		<line class="st6" x1="301" y1="473.3" x2="299.4" y2="468.1"/>
		<line class="st6" x1="302.5" y1="470" x2="301" y2="473.3"/>
		<line class="st6" x1="304.1" y1="471.2" x2="302.5" y2="470"/>
		<line class="st6" x1="305.7" y1="468.1" x2="304.1" y2="471.2"/>
		<line class="st6" x1="307.2" y1="468.2" x2="305.7" y2="468.1"/>
		<line class="st6" x1="308.8" y1="468.2" x2="307.2" y2="468.2"/>
		<line class="st6" x1="310.4" y1="470.8" x2="308.8" y2="468.2"/>
		<line class="st6" x1="311.9" y1="472.8" x2="310.4" y2="470.8"/>
		<line class="st6" x1="313.5" y1="472.8" x2="311.9" y2="472.8"/>
		<line class="st6" x1="315.1" y1="476.4" x2="313.5" y2="472.8"/>
		<line class="st6" x1="316.7" y1="472.2" x2="315.1" y2="476.4"/>
		<line class="st6" x1="318.2" y1="473.4" x2="316.7" y2="472.2"/>
		<line class="st6" x1="319.8" y1="473.3" x2="318.2" y2="473.4"/>
		<line class="st6" x1="321.4" y1="464.2" x2="319.8" y2="473.3"/>
		<line class="st6" x1="322.9" y1="460.2" x2="321.4" y2="464.2"/>
		<line class="st6" x1="324.5" y1="459.1" x2="322.9" y2="460.2"/>
		<line class="st6" x1="326.1" y1="460.9" x2="324.5" y2="459.1"/>
		<line class="st6" x1="327.6" y1="460.1" x2="326.1" y2="460.9"/>
		<line class="st6" x1="329.2" y1="454.7" x2="327.6" y2="460.1"/>
		<line class="st6" x1="330.8" y1="457.6" x2="329.2" y2="454.7"/>
		<line class="st6" x1="332.3" y1="449.6" x2="330.8" y2="457.6"/>
		<line class="st6" x1="333.9" y1="452.6" x2="332.3" y2="449.6"/>
		<line class="st6" x1="335.5" y1="453.6" x2="333.9" y2="452.6"/>
		<line class="st6" x1="337.1" y1="447.2" x2="335.5" y2="453.6"/>
		<line class="st6" x1="338.6" y1="442.9" x2="337.1" y2="447.2"/>
		<line class="st6" x1="340.2" y1="439.7" x2="338.6" y2="442.9"/>
		<line class="st6" x1="341.8" y1="434.7" x2="340.2" y2="439.7"/>
		<line class="st6" x1="343.3" y1="440" x2="341.8" y2="434.7"/>
		<line class="st6" x1="344.9" y1="439.3" x2="343.3" y2="440"/>
		<line class="st6" x1="346.5" y1="440.2" x2="344.9" y2="439.3"/>
		<line class="st6" x1="348" y1="431.2" x2="346.5" y2="440.2"/>
		<line class="st6" x1="349.6" y1="426.8" x2="348" y2="431.2"/>
		<line class="st6" x1="351.2" y1="426" x2="349.6" y2="426.8"/>
		<line class="st6" x1="352.8" y1="437.7" x2="351.2" y2="426"/>
		<line class="st6" x1="354.3" y1="436.8" x2="352.8" y2="437.7"/>
		<line class="st6" x1="355.9" y1="443.9" x2="354.3" y2="436.8"/>
		<line class="st6" x1="357.5" y1="443.5" x2="355.9" y2="443.9"/>
		<line class="st6" x1="359" y1="445.1" x2="357.5" y2="443.5"/>
		<line class="st6" x1="360.6" y1="437.8" x2="359" y2="445.1"/>
		<line class="st6" x1="362.2" y1="439.3" x2="360.6" y2="437.8"/>
		<line class="st6" x1="363.7" y1="444.9" x2="362.2" y2="439.3"/>
		<line class="st6" x1="365.3" y1="437.6" x2="363.7" y2="444.9"/>
		<line class="st6" x1="366.9" y1="429.5" x2="365.3" y2="437.6"/>
		<line class="st6" x1="368.5" y1="425.6" x2="366.9" y2="429.5"/>
		<line class="st6" x1="370" y1="432.5" x2="368.5" y2="425.6"/>
		<line class="st6" x1="371.6" y1="421.9" x2="370" y2="432.5"/>
		<line class="st6" x1="373.2" y1="421.6" x2="371.6" y2="421.9"/>
		<line class="st6" x1="374.7" y1="418.9" x2="373.2" y2="421.6"/>
		<line class="st6" x1="376.3" y1="417.8" x2="374.7" y2="418.9"/>
		<line class="st6" x1="377.9" y1="414.9" x2="376.3" y2="417.8"/>
		<line class="st6" x1="379.4" y1="421.8" x2="377.9" y2="414.9"/>
		<line class="st6" x1="381" y1="418.4" x2="379.4" y2="421.8"/>
		<line class="st6" x1="382.6" y1="412.1" x2="381" y2="418.4"/>
		<line class="st6" x1="384.2" y1="409.9" x2="382.6" y2="412.1"/>
		<line class="st6" x1="385.7" y1="415.1" x2="384.2" y2="409.9"/>
		<line class="st6" x1="387.3" y1="410.9" x2="385.7" y2="415.1"/>
		<line class="st6" x1="388.9" y1="417.3" x2="387.3" y2="410.9"/>
		<line class="st6" x1="390.4" y1="416" x2="388.9" y2="417.3"/>
		<line class="st6" x1="392" y1="418.2" x2="390.4" y2="416"/>
		<line class="st6" x1="393.6" y1="408.9" x2="392" y2="418.2"/>
		<line class="st6" x1="395.1" y1="404.1" x2="393.6" y2="408.9"/>
		<line class="st6" x1="396.7" y1="398.1" x2="395.1" y2="404.1"/>
		<line class="st6" x1="398.3" y1="381.3" x2="396.7" y2="398.1"/>
		<line class="st6" x1="399.8" y1="381.6" x2="398.3" y2="381.3"/>
		<line class="st6" x1="401.4" y1="380.9" x2="399.8" y2="381.6"/>
		<line class="st6" x1="403" y1="388.4" x2="401.4" y2="380.9"/>
		<line class="st6" x1="404.6" y1="374" x2="403" y2="388.4"/>
		<line class="st6" x1="406.1" y1="358.8" x2="404.6" y2="374"/>
		<line class="st6" x1="407.7" y1="354.2" x2="406.1" y2="358.8"/>
		<line class="st6" x1="409.3" y1="354.4" x2="407.7" y2="354.2"/>
		<line class="st6" x1="410.8" y1="344.4" x2="409.3" y2="354.4"/>
		<line class="st6" x1="412.4" y1="343.6" x2="410.8" y2="344.4"/>
		<line class="st6" x1="414" y1="359.4" x2="412.4" y2="343.6"/>
		<line class="st6" x1="415.5" y1="363.2" x2="414" y2="359.4"/>
		<line class="st6" x1="417.1" y1="356.9" x2="415.5" y2="363.2"/>
		<line class="st6" x1="418.7" y1="356.1" x2="417.1" y2="356.9"/>
		<line class="st6" x1="420.3" y1="350.7" x2="418.7" y2="356.1"/>
		<line class="st6" x1="421.8" y1="353.4" x2="420.3" y2="350.7"/>
		<line class="st6" x1="423.4" y1="341.9" x2="421.8" y2="353.4"/>
		<line class="st6" x1="425" y1="344.6" x2="423.4" y2="341.9"/>
		<line class="st6" x1="426.5" y1="351.4" x2="425" y2="344.6"/>
		<line class="st6" x1="428.1" y1="333.1" x2="426.5" y2="351.4"/>
		<line class="st6" x1="429.7" y1="324.1" x2="428.1" y2="333.1"/>
		<line class="st6" x1="431.2" y1="321.1" x2="429.7" y2="324.1"/>
		<line class="st6" x1="432.8" y1="320.8" x2="431.2" y2="321.1"/>
		<line class="st6" x1="434.4" y1="315" x2="432.8" y2="320.8"/>
		<line class="st6" x1="436" y1="292.5" x2="434.4" y2="315"/>
		<line class="st6" x1="437.5" y1="289.4" x2="436" y2="292.5"/>
		<line class="st6" x1="439.1" y1="290" x2="437.5" y2="289.4"/>
		<line class="st6" x1="440.7" y1="294.2" x2="439.1" y2="290"/>
		<line class="st6" x1="442.2" y1="283.4" x2="440.7" y2="294.2"/>
		<line class="st6" x1="443.8" y1="296.1" x2="442.2" y2="283.4"/>
		<line class="st6" x1="445.4" y1="285" x2="443.8" y2="296.1"/>
		<line class="st6" x1="446.9" y1="281.2" x2="445.4" y2="285"/>
		<line class="st6" x1="448.5" y1="287.3" x2="446.9" y2="281.2"/>
		<line class="st6" x1="450.1" y1="276.9" x2="448.5" y2="287.3"/>
		<line class="st6" x1="451.6" y1="267.8" x2="450.1" y2="276.9"/>
		<line class="st6" x1="453.2" y1="267.4" x2="451.6" y2="267.8"/>
		<line class="st6" x1="454.8" y1="255.8" x2="453.2" y2="267.4"/>
		<line class="st6" x1="456.4" y1="251.7" x2="454.8" y2="255.8"/>
		<line class="st6" x1="457.9" y1="251" x2="456.4" y2="251.7"/>
		<line class="st6" x1="459.5" y1="231.8" x2="457.9" y2="251"/>
		<line class="st6" x1="461.1" y1="213.4" x2="459.5" y2="231.8"/>
		<line class="st6" x1="462.6" y1="210.7" x2="461.1" y2="213.4"/>
		<line class="st6" x1="464.2" y1="225.7" x2="462.6" y2="210.7"/>
		<line class="st6" x1="465.8" y1="227.3" x2="464.2" y2="225.7"/>
		<line class="st6" x1="467.3" y1="232.2" x2="465.8" y2="227.3"/>
		<line class="st6" x1="468.9" y1="243.3" x2="467.3" y2="232.2"/>
		<line class="st6" x1="470.5" y1="212.9" x2="468.9" y2="243.3"/>
		<line class="st6" x1="472.1" y1="230" x2="470.5" y2="212.9"/>
		<line class="st6" x1="473.6" y1="241.1" x2="472.1" y2="230"/>
		<line class="st6" x1="475.2" y1="248.8" x2="473.6" y2="241.1"/>
		<line class="st6" x1="476.8" y1="262.4" x2="475.2" y2="248.8"/>
		<line class="st6" x1="478.3" y1="239.5" x2="476.8" y2="262.4"/>
		<line class="st6" x1="479.9" y1="254.6" x2="478.3" y2="239.5"/>
		<line class="st6" x1="481.5" y1="246" x2="479.9" y2="254.6"/>
		<line class="st6" x1="483" y1="247.1" x2="481.5" y2="246"/>
		<line class="st6" x1="484.6" y1="244.7" x2="483" y2="247.1"/>
		<line class="st6" x1="486.2" y1="239.7" x2="484.6" y2="244.7"/>
		<line class="st6" x1="487.8" y1="225.8" x2="486.2" y2="239.7"/>
		<line class="st6" x1="489.3" y1="237" x2="487.8" y2="225.8"/>
		<line class="st6" x1="490.9" y1="234.3" x2="489.3" y2="237"/>
		<line class="st6" x1="492.5" y1="234.2" x2="490.9" y2="234.3"/>
		<line class="st6" x1="494" y1="239.6" x2="492.5" y2="234.2"/>
		<line class="st6" x1="495.6" y1="235" x2="494" y2="239.6"/>
		<line class="st6" x1="497.2" y1="252.6" x2="495.6" y2="235"/>
		<line class="st6" x1="498.7" y1="261.7" x2="497.2" y2="252.6"/>
		<line class="st6" x1="500.3" y1="254.9" x2="498.7" y2="261.7"/>
		<line class="st6" x1="501.9" y1="259.7" x2="500.3" y2="254.9"/>
		<line class="st6" x1="503.5" y1="258.8" x2="501.9" y2="259.7"/>
		<line class="st6" x1="505" y1="241" x2="503.5" y2="258.8"/>
		<line class="st6" x1="506.6" y1="261.6" x2="505" y2="241"/>
		<line class="st6" x1="508.2" y1="265.2" x2="506.6" y2="261.6"/>
		<line class="st6" x1="509.7" y1="273.3" x2="508.2" y2="265.2"/>
		<line class="st6" x1="511.3" y1="270.3" x2="509.7" y2="273.3"/>
		<line class="st6" x1="512.9" y1="269.1" x2="511.3" y2="270.3"/>
		<line class="st6" x1="514.4" y1="273.1" x2="512.9" y2="269.1"/>
		<line class="st6" x1="516" y1="278.3" x2="514.4" y2="273.1"/>
		<line class="st6" x1="517.6" y1="276.7" x2="516" y2="278.3"/>
		<line class="st6" x1="519.1" y1="272.5" x2="517.6" y2="276.7"/>
		<line class="st6" x1="520.7" y1="287" x2="519.1" y2="272.5"/>
		<line class="st6" x1="522.3" y1="277.9" x2="520.7" y2="287"/>
		<line class="st6" x1="523.9" y1="270.5" x2="522.3" y2="277.9"/>
		<line class="st6" x1="525.4" y1="264.3" x2="523.9" y2="270.5"/>
		<line class="st6" x1="527" y1="262.1" x2="525.4" y2="264.3"/>
		<line class="st6" x1="528.6" y1="280.8" x2="527" y2="262.1"/>
		<line class="st6" x1="530.1" y1="272" x2="528.6" y2="280.8"/>
		<line class="st6" x1="531.7" y1="262.8" x2="530.1" y2="272"/>
		<line class="st6" x1="533.3" y1="232.3" x2="531.7" y2="262.8"/>
		<line class="st6" x1="534.8" y1="207.3" x2="533.3" y2="232.3"/>
		<line class="st6" x1="536.4" y1="212.4" x2="534.8" y2="207.3"/>
		<line class="st6" x1="538" y1="222.4" x2="536.4" y2="212.4"/>
		<line class="st6" x1="539.6" y1="221.2" x2="538" y2="222.4"/>
		<line class="st6" x1="541.1" y1="238" x2="539.6" y2="221.2"/>
		<line class="st6" x1="542.7" y1="242.8" x2="541.1" y2="238"/>
		<line class="st6" x1="544.3" y1="242.1" x2="542.7" y2="242.8"/>
		<line class="st6" x1="545.8" y1="234.1" x2="544.3" y2="242.1"/>
		<line class="st6" x1="547.4" y1="250.5" x2="545.8" y2="234.1"/>
		<line class="st6" x1="549" y1="259.1" x2="547.4" y2="250.5"/>
		<line class="st6" x1="550.5" y1="261.8" x2="549" y2="259.1"/>
		<line class="st6" x1="552.1" y1="253.9" x2="550.5" y2="261.8"/>
		<line class="st6" x1="553.7" y1="241.8" x2="552.1" y2="253.9"/>
		<line class="st6" x1="555.3" y1="241.1" x2="553.7" y2="241.8"/>
		<line class="st6" x1="556.8" y1="240.5" x2="555.3" y2="241.1"/>
		<line class="st6" x1="558.4" y1="234.5" x2="556.8" y2="240.5"/>
		<line class="st6" x1="560" y1="234.9" x2="558.4" y2="234.5"/>
		<line class="st6" x1="561.5" y1="242.2" x2="560" y2="234.9"/>
	</g>
</g>
<g>
	<g>
		<polyline class="st6" points="561.5,345.9 560,347.4 558.4,348.8 556.8,349.3 555.3,349.6 553.7,349.1 552.1,352.2 550.5,354.7 
			549,354.5 547.4,353.5 545.8,351.7 544.3,354.6 542.7,357.7 541.1,357.8 539.6,356.3 538,355.7 536.4,351.7 534.8,351.4 
			533.3,354.3 531.7,358.1 530.1,361.6 528.6,363 527,359.4 525.4,359.3 523.9,358.3 522.3,362.1 520.7,363.8 519.1,361.9 
			517.6,362.3 516,363.3 514.4,361.4 512.9,362 511.3,362.9 509.7,364.9 508.2,363.1 506.6,363.6 505,361.8 503.5,367.5 
			501.9,368.5 500.3,367.5 498.7,370 497.2,367.9 495.6,366.6 494,368.5 492.5,369.3 490.9,370.8 489.3,373 487.8,370.5 
			486.2,372.4 484.6,371 483,371.7 481.5,370.1 479.9,371.2 478.3,369.2 476.8,371.9 475.2,368.9 473.6,366.7 472.1,365.4 
			470.5,364.2 468.9,367.5 467.3,368.2 465.8,368.3 464.2,369.7 462.6,368.3 461.1,370.3 459.5,373.6 457.9,375.4 456.4,375.4 
			454.8,377.3 453.2,379.6 451.6,383.2 450.1,384.4 448.5,387.4 446.9,386.9 445.4,385.7 443.8,389.1 442.2,386.8 440.7,388.3 
			439.1,387.9 437.5,386.5 436,387.5 434.4,392.1 432.8,394.8 431.2,394.8 429.7,398 428.1,400.2 426.5,403.2 425,403 423.4,401.3 
			421.8,404.2 420.3,405.3 418.7,407.9 417.1,408.7 415.5,409.7 414,409.7 412.4,406 410.8,407.1 409.3,409 407.7,407.9 406.1,408 
			404.6,411.9 403,414.3 401.4,413.6 399.8,414.6 398.3,415.2 396.7,419.4 395.1,421.4 393.6,423.2 392,425.7 390.4,426.9 
			388.9,427.6 387.3,426.4 385.7,427.9 384.2,429.2 382.6,430.7 381,432.9 379.4,434.1 377.9,433.4 376.3,432.9 374.7,431.9 
			373.2,433.3 371.6,434.4 370,437.1 368.5,436.3 366.9,438.2 365.3,441.1 363.7,442.5 362.2,442.3 360.6,443.3 359,445.2 
			357.5,445.9 355.9,447.9 354.3,448.3 352.8,449.4 351.2,447.4 349.6,447.1 348,448.8 346.5,451.3 344.9,451.9 343.3,452.6 
			341.8,453 340.2,453.4 338.6,455.5 337.1,457.1 335.5,458.8 333.9,458.5 332.3,459.1 330.8,461.1 329.2,462.4 327.6,465.2 
			326.1,465.6 324.5,465.7 322.9,466.7 321.4,467.1 319.8,470.1 318.2,469.7 316.7,470.7 315.1,472.9 313.5,472.2 311.9,472.7 
			310.4,473 308.8,472.8 307.2,474 305.7,474.8 304.1,476.1 302.5,476.6 301,477.8 299.4,477.9 297.8,478.8 296.2,478.9 
			294.7,478.5 293.1,480.5 291.5,482.2 290,483.4 288.4,483.6 286.8,484.1 285.3,485.5 283.7,486.6 282.1,486.5 280.5,488.5 
			279,488 277.4,488.3 275.8,490.8 274.3,491.6 272.7,492.1 271.1,491.6 269.6,493.2 268,493.5 266.4,495.2 264.8,493.9 
			263.3,495.5 261.7,496.7 260.1,497.2 258.6,499 257,498.6 255.4,498.9 253.9,500.3 252.3,502.9 250.7,504.5 249.2,504.9 
			247.6,506.6 246,508.5 244.4,509.3 242.9,510.1 241.3,511.4 239.7,512.2 238.2,512.6 236.6,513.9 235,515.4 233.5,516 
			231.9,516.2 230.3,516.5 228.7,517.6 227.2,519.1 225.6,520.5 224,521 222.5,521.3 220.9,521.6 219.3,522 217.8,522.6 216.2,522 
			214.6,522 213,523.2 211.5,522.7 209.9,523.7 208.3,523 206.8,522.3 205.2,522.8 203.6,524.1 202.1,525 200.5,524.5 198.9,525.3 
			197.4,525.5 195.8,527.4 194.2,528.3 192.6,528.5 191.1,528.7 189.5,529 187.9,529.9 186.4,529.3 184.8,529.8 183.2,530.6 
			181.7,531.2 180.1,532 178.5,531.7 176.9,531.6 175.4,532.7 173.8,533.8 172.2,535 170.7,535.3 169.1,536.5 167.5,536.8 
			166,537.9 164.4,537.5 162.8,538.6 161.2,539.5 159.7,540.2 158.1,541.4 156.5,542.9 155,542.8 153.4,543.3 151.8,543.8 
			150.3,544.9 148.7,544.8 147.1,545.1 145.5,545.4 144,545.5 142.4,546.9 140.8,547.1 139.3,547.8 137.7,547.9 136.1,547.8 
			134.6,548.6 133,548.7 131.4,549.4 129.9,550.5 128.3,552.4 126.7,553.4 125.1,554.6 123.6,555.3 122,556.2 120.4,556.7 
			118.9,556.8 117.3,558 115.7,559.1 114.2,559.6 112.6,560.1 111,560.9 109.4,561.2 107.9,561.8 106.3,563.3 104.7,564.3 
			103.2,564.7 101.6,564.8 100,565.3 98.5,566.2 96.9,566.4 95.3,566.9 93.7,567.6 92.2,567.9 90.6,568.3 		"/>
	</g>
</g>
<g>
	<g>
		<polyline class="st6" points="561.5,334.3 560,335 558.4,336.2 556.8,337.3 555.3,337.5 553.7,337.2 552.1,341.1 550.5,344.1 
			549,343.6 547.4,341.8 545.8,338.5 544.3,342 542.7,345 541.1,344.5 539.6,341.6 538,341.1 536.4,336.4 534.8,335.7 533.3,340.6 
			531.7,346.9 530.1,350.9 528.6,353.2 527,347.9 525.4,348 523.9,347.8 522.3,352.1 520.7,354.7 519.1,351.6 517.6,352.3 
			516,353.3 514.4,350.8 512.9,350.8 511.3,351.5 509.7,353.8 508.2,351.4 506.6,351.7 505,348.3 503.5,355.2 501.9,356.3 
			500.3,354.9 498.7,357.7 497.2,354.9 495.6,352.2 494,354.2 492.5,354.6 490.9,356.1 489.3,358.3 487.8,355 486.2,358 484.6,357 
			483,357.8 481.5,356.1 479.9,357.9 478.3,354.4 476.8,359.1 475.2,355.1 473.6,352.3 472.1,349.9 470.5,347.4 468.9,353.3 
			467.3,352.9 465.8,352.6 464.2,353.7 462.6,351.1 461.1,353.3 459.5,357.8 457.9,361.2 456.4,361.2 454.8,363.4 453.2,366.7 
			451.6,370.2 450.1,372 448.5,375.9 446.9,374.7 445.4,373.9 443.8,378.3 442.2,375 440.7,377.4 439.1,376.6 437.5,375.2 
			436,376.3 434.4,382.7 432.8,385.9 431.2,385.9 429.7,389.2 428.1,392.1 426.5,396.6 425,395.8 423.4,393.9 421.8,397.8 
			420.3,398.5 418.7,401.5 417.1,402.2 415.5,403.9 414,403.5 412.4,398.5 410.8,399.7 409.3,402.5 407.7,401.4 406.1,401.7 
			404.6,406.8 403,410.7 401.4,409.2 399.8,410.1 398.3,410.7 396.7,416.4 395.1,418.8 393.6,421 392,424.4 390.4,425.2 388.9,426 
			387.3,424.1 385.7,426 384.2,426.6 382.6,428.2 381,430.9 379.4,432.4 377.9,430.9 376.3,430.8 374.7,430 373.2,431.6 
			371.6,432.5 370,436.2 368.5,434.6 366.9,436.8 365.3,440.4 363.7,442.5 362.2,441.7 360.6,442.2 359,444.8 357.5,445.2 
			355.9,446.9 354.3,446.4 352.8,447.6 351.2,444.4 349.6,444.2 348,446.3 346.5,449.5 344.9,450 343.3,450.6 341.8,450.4 
			340.2,451.2 338.6,453.5 337.1,455.4 335.5,457.7 333.9,457.4 332.3,457.6 330.8,460.4 329.2,461.3 327.6,464.4 326.1,464.9 
			324.5,464.6 322.9,465.8 321.4,466.7 319.8,470.5 318.2,470.2 316.7,470.9 315.1,473.3 313.5,472.2 311.9,472.5 310.4,472.5 
			308.8,472.1 307.2,473.2 305.7,473.9 304.1,475.5 302.5,475.9 301,477.2 299.4,476.7 297.8,477.8 296.2,478 294.7,476.8 
			293.1,479.4 291.5,481.3 290,482.4 288.4,482.2 286.8,482.4 285.3,484 283.7,485.4 282.1,485.1 280.5,487.7 279,487.1 
			277.4,487.2 275.8,490.1 274.3,491 272.7,491.5 271.1,491 269.6,493.3 268,493.4 266.4,495.6 264.8,494.1 263.3,496.6 
			261.7,498.2 260.1,498.6 258.6,500.3 257,499.5 255.4,499.6 253.9,501.3 252.3,504.3 250.7,505.8 249.2,506.4 247.6,508.4 
			246,511 244.4,511.6 242.9,512.4 241.3,513.8 239.7,514.8 238.2,514.9 236.6,516.5 235,518.2 233.5,518.4 231.9,518.5 
			230.3,518.9 228.7,520.1 227.2,521.8 225.6,523.4 224,523.8 222.5,524 220.9,523.9 219.3,524.1 217.8,524.7 216.2,524 
			214.6,523.8 213,525 211.5,523.9 209.9,525 208.3,523.7 206.8,522.7 205.2,523.4 203.6,524.6 202.1,525.7 200.5,524.6 
			198.9,525.3 197.4,525.5 195.8,527.8 194.2,528.6 192.6,528.7 191.1,528.9 189.5,529.3 187.9,530.2 186.4,529.6 184.8,530.1 
			183.2,530.8 181.7,531.1 180.1,531.9 178.5,531.3 176.9,531.1 175.4,532.6 173.8,533.7 172.2,535 170.7,535.4 169.1,536.9 
			167.5,537 166,538.2 164.4,537.4 162.8,538.7 161.2,539.5 159.7,540.3 158.1,541.5 156.5,543.3 155,543.1 153.4,543.5 
			151.8,544.2 150.3,545.4 148.7,545 147.1,545.1 145.5,545.2 144,545.2 142.4,546.7 140.8,546.9 139.3,547.8 137.7,547.8 
			136.1,547.4 134.6,548.3 133,548 131.4,549 129.9,550.2 128.3,552.5 126.7,553.6 125.1,554.9 123.6,555.6 122,556.6 120.4,557.2 
			118.9,557.1 117.3,558.5 115.7,559.6 114.2,560.1 112.6,560.5 111,561.2 109.4,561.5 107.9,562 106.3,563.4 104.7,564.5 
			103.2,564.9 101.6,564.8 100,565.3 98.5,566.3 96.9,566.4 95.3,566.9 93.7,567.7 92.2,567.8 90.6,568.3 		"/>
	</g>
</g>
<g>
	<g>
		<polyline class="st6" points="561.5,305.4 560,304.1 558.4,304.9 556.8,307.3 555.3,307.6 553.7,307.4 552.1,313.6 550.5,318 
			549,316.9 547.4,313.2 545.8,306.3 544.3,311.1 542.7,313.6 541.1,311.9 539.6,305.4 538,305.3 536.4,299 534.8,297.1 
			533.3,307.4 531.7,320.4 530.1,325.9 528.6,330 527,320.9 525.4,321.6 523.9,323 522.3,328.3 520.7,332.8 519.1,326.6 
			517.6,328.2 516,329.4 514.4,326.1 512.9,324.9 511.3,325.7 509.7,328.2 508.2,324.3 506.6,323.5 505,315.6 503.5,325.6 
			501.9,326.7 500.3,324.3 498.7,328.2 497.2,323.7 495.6,317 494,319.8 492.5,318.7 490.9,319.9 489.3,322.3 487.8,316.8 
			486.2,322.6 484.6,323.1 483,324.3 481.5,322.6 479.9,326.2 478.3,319.5 476.8,329.1 475.2,322.4 473.6,318.2 472.1,313.5 
			470.5,307.2 468.9,319.6 467.3,316.4 465.8,315 464.2,315.5 462.6,309.7 461.1,312.1 459.5,320.2 457.9,327.6 456.4,327.8 
			454.8,330.6 453.2,336.2 451.6,339 450.1,342.6 448.5,348.4 446.9,345.8 445.4,346.1 443.8,352.5 442.2,346.6 440.7,351.3 
			439.1,349.6 437.5,348.3 436,349.9 434.4,360.9 432.8,364.9 431.2,365 429.7,368.3 428.1,372.9 426.5,381.5 425,379 423.4,376.7 
			421.8,382.8 420.3,382.6 418.7,386.3 417.1,387.1 415.5,390.1 414,388.7 412.4,380.5 410.8,381.7 409.3,386.6 407.7,385.6 
			406.1,387 404.6,395.2 403,402.3 401.4,399 399.8,399.8 398.3,400.2 396.7,409.4 395.1,413 393.6,416 392,421.4 390.4,421.2 
			388.9,422.2 387.3,418.8 385.7,421.5 384.2,420.3 382.6,422.1 381,425.9 379.4,428.1 377.9,424.9 376.3,425.6 374.7,425.4 
			373.2,427.4 371.6,428.2 370,434.1 368.5,430.8 366.9,433.6 365.3,438.7 363.7,442.5 362.2,440.1 360.6,440 359,444.1 
			357.5,443.9 355.9,445.2 354.3,442.6 352.8,443.7 351.2,437.8 349.6,437.9 348,440.8 346.5,445.8 344.9,445.9 343.3,446.5 
			341.8,444.8 340.2,446.8 338.6,449.4 337.1,452.1 335.5,455.8 333.9,455.2 332.3,454.4 330.8,459 329.2,458.7 327.6,462.6 
			326.1,463.1 324.5,462.4 322.9,463.5 321.4,465.4 319.8,471.1 318.2,470.9 316.7,470.9 315.1,474 313.5,472 311.9,472.2 
			310.4,471.5 308.8,470.4 307.2,471.2 305.7,471.6 304.1,473.7 302.5,473.6 301,475.5 299.4,473.5 297.8,475.1 296.2,475.6 
			294.7,472.7 293.1,476.5 291.5,478.7 290,479.6 288.4,478.7 286.8,478 285.3,480.4 283.7,482 282.1,481.6 280.5,485.7 279,484.8 
			277.4,484.5 275.8,488.3 274.3,489.3 272.7,489.9 271.1,489.3 269.6,493.2 268,493.1 266.4,496.3 264.8,494.3 263.3,498.5 
			261.7,501.3 260.1,501.6 258.6,503 257,501.5 255.4,501.2 253.9,503.8 252.3,507.2 250.7,508.6 249.2,509.6 247.6,512.2 246,516 
			244.4,516.5 242.9,517.1 241.3,518.7 239.7,520 238.2,519.7 236.6,521.9 235,523.5 233.5,523.3 231.9,523 230.3,523.7 
			228.7,525.1 227.2,527 225.6,529.1 224,529.1 222.5,529.1 220.9,528.2 219.3,528.1 217.8,528.6 216.2,527.7 214.6,527.1 
			213,528.2 211.5,526.2 209.9,527.2 208.3,524.9 206.8,523.1 205.2,524.2 203.6,525.2 202.1,526.6 200.5,524.1 198.9,524.6 
			197.4,524.9 195.8,527.9 194.2,528.7 192.6,528.7 191.1,528.7 189.5,529.5 187.9,530.2 186.4,529.8 184.8,530.3 183.2,530.7 
			181.7,530.5 180.1,531.2 178.5,530 176.9,529.6 175.4,532 173.8,533.2 172.2,534.8 170.7,535.3 169.1,537.4 167.5,537.3 
			166,538.6 164.4,536.9 162.8,538.6 161.2,539.2 159.7,540.1 158.1,541.5 156.5,543.7 155,543.4 153.4,543.6 151.8,544.7 
			150.3,546.2 148.7,545.1 147.1,544.9 145.5,544.7 144,544.2 142.4,546.2 140.8,546.2 139.3,547.4 137.7,547.3 136.1,546.4 
			134.6,547.3 133,546.5 131.4,548 129.9,549.5 128.3,552.6 126.7,553.9 125.1,555.5 123.6,556.1 122,557.2 120.4,558.1 
			118.9,557.6 117.3,559.3 115.7,560.5 114.2,561 112.6,561.1 111,561.9 109.4,562 107.9,562.2 106.3,563.7 104.7,565 103.2,565.5 
			101.6,564.9 100,565.4 98.5,566.6 96.9,566.4 95.3,566.8 93.7,567.9 92.2,567.8 90.6,568.3 		"/>
	</g>
</g>
<g>
	<g>
		<polyline class="st7" points="561.5,275 560,271 558.4,271.2 556.8,275.3 555.3,275.7 553.7,275.9 552.1,284.7 550.5,290.8 
			549,288.9 547.4,282.9 545.8,271.7 544.3,278 542.7,279.7 541.1,276.7 539.6,265.6 538,266 536.4,258 534.8,254.7 533.3,271.5 
			531.7,292.5 530.1,299.6 528.6,305.8 527,292.3 525.4,293.7 523.9,297.4 522.3,303.7 520.7,310.4 519.1,300.4 517.6,303.2 
			516,304.5 514.4,300.2 512.9,297.7 511.3,298.6 509.7,301.4 508.2,295.6 506.6,293.6 505,280.1 503.5,293.6 501.9,294.6 
			500.3,291.1 498.7,296.3 497.2,289.7 495.6,278.3 494,281.8 492.5,278.9 490.9,279.6 489.3,282.2 487.8,274.2 486.2,283.6 
			484.6,285.9 483,287.7 481.5,286.2 479.9,292 478.3,281.5 476.8,297.1 475.2,287.3 473.6,281.5 472.1,273.9 470.5,263 
			468.9,283.4 467.3,276.7 465.8,273.8 464.2,273.4 462.6,263.6 461.1,266.2 459.5,278.7 457.9,291.3 456.4,291.8 454.8,295.2 
			453.2,303.5 451.6,305.3 450.1,311.3 448.5,319.2 446.9,315 445.4,316.9 443.8,325.5 442.2,316.5 440.7,324 439.1,321.2 
			437.5,320.2 436,322.4 434.4,338.6 432.8,343.5 431.2,343.7 429.7,346.9 428.1,353.5 426.5,366.6 425,362.2 423.4,359.7 
			421.8,368.3 420.3,366.9 418.7,371.5 417.1,372.2 415.5,376.9 414,374.3 412.4,362.6 410.8,363.7 409.3,370.9 407.7,370.2 
			406.1,373.1 404.6,384.6 403,395.2 401.4,389.9 399.8,390.7 398.3,390.7 396.7,403.5 395.1,408.3 393.6,412.2 392,419.5 
			390.4,418.4 388.9,419.5 387.3,414.7 385.7,418.1 384.2,415 382.6,417 381,422 379.4,424.7 377.9,419.8 376.3,421.6 374.7,422 
			373.2,424.3 371.6,424.8 370,433.1 368.5,427.9 366.9,431.3 365.3,437.9 363.7,443.4 362.2,439.5 360.6,438.6 359,444.3 
			357.5,443.4 355.9,444.2 354.3,439.4 352.8,440.5 351.2,431.8 349.6,432.2 348,435.8 346.5,442.8 344.9,442.4 343.3,443 
			341.8,439.6 340.2,443.1 338.6,446 337.1,449.4 335.5,454.4 333.9,453.7 332.3,451.8 330.8,458.1 329.2,456.5 327.6,461.2 
			326.1,461.8 324.5,460.5 322.9,461.7 321.4,464.7 319.8,472.1 318.2,472 316.7,471.4 315.1,475.1 313.5,472.3 311.9,472.3 
			310.4,471 308.8,469.1 307.2,469.6 305.7,469.8 304.1,472.4 302.5,471.8 301,474.3 299.4,470.8 297.8,472.8 296.2,473.6 
			294.7,469 293.1,474 291.5,476.4 290,477.1 288.4,475.4 286.8,473.7 285.3,476.9 283.7,478.9 282.1,478.4 280.5,484 279,483 
			277.4,482.2 275.8,486.8 274.3,488 272.7,488.5 271.1,488 269.6,493.4 268,493 266.4,497.2 264.8,495 263.3,500.8 261.7,504.6 
			260.1,504.8 258.6,506 257,503.7 255.4,503.1 253.9,506.5 252.3,510.2 250.7,511.6 249.2,512.9 247.6,516 246,521 244.4,521.2 
			242.9,521.7 241.3,523.4 239.7,525 238.2,524.3 236.6,527 235,528.7 233.5,528 231.9,527.4 230.3,528.3 228.7,529.8 227.2,532 
			225.6,534.4 224,534.2 222.5,534 220.9,532.4 219.3,531.9 217.8,532.3 216.2,531.3 214.6,530.4 213,531.4 211.5,528.5 
			209.9,529.5 208.3,526.1 206.8,523.6 205.2,525.2 203.6,525.9 202.1,527.5 200.5,523.7 198.9,524.1 197.4,524.3 195.8,528.1 
			194.2,528.8 192.6,528.7 191.1,528.6 189.5,529.9 187.9,530.4 186.4,530 184.8,530.7 183.2,530.7 181.7,529.9 180.1,530.5 
			178.5,528.7 176.9,528.2 175.4,531.4 173.8,532.8 172.2,534.6 170.7,535.3 169.1,538.1 167.5,537.6 166,539.1 164.4,536.5 
			162.8,538.5 161.2,539 159.7,539.9 158.1,541.5 156.5,544.2 155,543.8 153.4,543.8 151.8,545.3 150.3,547 148.7,545.4 
			147.1,544.7 145.5,544.2 144,543.2 142.4,545.6 140.8,545.6 139.3,547.1 137.7,546.9 136.1,545.5 134.6,546.4 133,545 
			131.4,547.2 129.9,548.8 128.3,552.8 126.7,554.3 125.1,556.1 123.6,556.6 122,557.9 120.4,559.1 118.9,558.2 117.3,560.1 
			115.7,561.5 114.2,562 112.6,561.8 111,562.5 109.4,562.5 107.9,562.4 106.3,563.9 104.7,565.5 103.2,566 101.6,564.9 100,565.4 
			98.5,566.8 96.9,566.4 95.3,566.7 93.7,568.1 92.2,567.7 90.6,568.3 		"/>
	</g>
</g>
<text transform="matrix(1 0 0 1 67.5303 602.7617)" class="st1 st4 st3">0</text>
<text transform="matrix(1 0 0 1 54.4844 515.8613)" class="st1 st4 st3">30</text>
<text transform="matrix(1 0 0 1 53.7368 426.6953)" class="st1 st4 st3">60</text>
<text transform="matrix(1 0 0 1 53.7368 336.771)" class="st1 st4 st3">90</text>
<text transform="matrix(1 0 0 1 47.3564 250.6279)" class="st1 st4 st3">120</text>
<text transform="matrix(1 0 0 1 47.0708 162.2163)" class="st1 st4 st3">150</text>
<text transform="matrix(1 0 0 1 46.6748 74.9395)" class="st1 st4 st3">180</text>
</svg>
