<?xml version="1.0" encoding="utf-8"?>
<!-- Generator: Adobe Illustrator 19.0.0, SVG Export Plug-In . SVG Version: 6.00 Build 0)  -->
<svg version="1.1" id="_x31_st-Balanced" xmlns="http://www.w3.org/2000/svg" xmlns:xlink="http://www.w3.org/1999/xlink" x="0px"
	 y="0px" viewBox="0 0 727 525.3" style="enable-background:new 0 0 727 525.3;" xml:space="preserve">
<style type="text/css">
	.st0{fill-rule:evenodd;clip-rule:evenodd;fill:#D8D8D5;}
	.st1{fill:#1E1E1E;}
	.st2{font-family:'Gotham-Medium';}
	.st3{font-size:14px;}
	.st4{font-family:'Gotham-Book';}
	.st5{fill:#E5F0F4;}
	.st6{fill:#FFE6DB;}
	.st7{fill:none;stroke:#FF550F;stroke-width:2.5;stroke-linecap:round;stroke-linejoin:round;stroke-miterlimit:10;}
	.st8{fill:none;stroke:#006E96;stroke-width:2.5;stroke-linecap:round;stroke-linejoin:round;stroke-miterlimit:10;}
</style>
<g>
	<g>
		<polygon class="st0" points="704.4,10.4 704.4,9.4 62.4,9.4 62.4,5.4 61.4,5.4 61.4,9.4 57.4,9.4 57.4,10.4 61.4,10.4 61.4,103 
			57.4,103 57.4,104 61.4,104 61.4,196.5 57.4,196.5 57.4,197.5 61.4,197.5 61.4,290.2 57.4,290.2 57.4,291.2 61.4,291.2 
			61.4,383.8 57.4,383.8 57.4,384.8 61.4,384.8 61.4,476.4 57.4,476.4 57.4,477.4 61.4,477.4 61.4,481.4 62.4,481.4 62.4,477.4 
			704.4,477.4 704.4,476.4 62.4,476.4 62.4,384.8 704.4,384.8 704.4,383.8 62.4,383.8 62.4,291.2 704.4,291.2 704.4,290.2 
			62.4,290.2 62.4,197.5 704.4,197.5 704.4,196.5 62.4,196.5 62.4,104 704.4,104 704.4,103 62.4,103 62.4,10.4 		"/>
	</g>
</g>
<text transform="matrix(0 -1 1 0 15.5948 293.3389)" class="st1 st2 st3">Amount ($000)</text>
<text transform="matrix(1 0 0 1 378.9281 525.3393)" class="st1 st2 st3">Years</text>
<text transform="matrix(1 0 0 1 42.9901 481)" class="st1 st4 st3">0</text>
<text transform="matrix(1 0 0 1 683.6594 497.6667)" class="st1 st4 st3">25</text>
<text transform="matrix(1 0 0 1 556.4984 497.6667)" class="st1 st4 st3">20</text>
<text transform="matrix(1 0 0 1 432.4667 497.6667)" class="st1 st4 st3">15</text>
<text transform="matrix(1 0 0 1 305.3059 497.6667)" class="st1 st4 st3">10</text>
<text transform="matrix(1 0 0 1 182.8175 497.6667)" class="st1 st4 st3">5</text>
<text transform="matrix(1 0 0 1 34.6878 389.6667)" class="st1 st4 st3">30</text>
<text transform="matrix(1 0 0 1 34.2122 297.6667)" class="st1 st4 st3">60</text>
<text transform="matrix(1 0 0 1 34.2122 203)" class="st1 st4 st3">90</text>
<text transform="matrix(1 0 0 1 30.1522 108.3333)" class="st1 st4 st3">120</text>
<text transform="matrix(1 0 0 1 29.97 15.3333)" class="st1 st4 st3">150</text>
<path class="st5" d="M700,95c0,0-143,106.5-307.8,196C284.5,349.5,228,373,129,416.5L71.2,441c0,0-14.2,4.8-5.5,3.2
	c17-3,104.2-30.3,147.2-43.7c81.4-25.5,158.5-51.1,259-85.2c125.7-42.7,227.3-81.7,227.3-81.7L700,95z"/>
<path class="st6" d="M698.7,409.3v33c0,0-392.3,4.3-477.7,4.7s-159.5-1-159.5-1l6.5-2.7c0,0,26.4-2.7,97.3-6s242.7-12,281-13.7
	C484.7,422,698.7,409.3,698.7,409.3z"/>
<g>
	<g>
		<polyline class="st7" points="696.9,421.5 694.8,421.6 692.7,420.7 690.6,420.8 688.5,421.1 686.4,421.1 684.3,420.1 682.2,420.1 
			680,419.5 677.9,419.9 675.8,420.9 673.7,423.3 671.6,424.4 669.5,424 667.4,424.4 665.2,424.8 663.1,423.8 661,425.2 
			658.9,424.9 656.8,422.3 654.7,423.3 652.6,423.2 650.4,421.6 648.3,422.1 646.2,423.3 644.1,422.7 642,424.8 639.9,424 
			637.8,424.7 635.7,424.9 633.5,424.6 631.4,423.7 629.3,422.4 627.2,420.8 625.1,421.6 623,422.5 620.9,423.3 618.7,424.2 
			616.6,424.1 614.5,426.2 612.4,425.6 610.3,425.6 608.2,426.7 606.1,428 604,429.2 601.8,429.5 599.7,429.3 597.6,430.3 
			595.5,430.6 593.4,429.7 591.3,429.7 589.2,430.2 587,431.1 584.9,430.5 582.8,430.8 580.7,430.7 578.6,431.3 576.5,432.1 
			574.4,432.7 572.2,432.9 570.1,433.1 568,433.2 565.9,434.2 563.8,433.2 561.7,434.3 559.6,434.9 557.5,436.1 555.3,435.6 
			553.2,435.2 551.1,435.2 549,434.5 546.9,434.4 544.8,435.4 542.7,435.4 540.5,436.6 538.4,437 536.3,437.5 534.2,437.5 
			532.1,438 530,438.5 527.9,439.1 525.8,439.1 523.6,439.3 521.5,438.8 519.4,439 517.3,439.4 515.2,440 513.1,440.4 511,440.7 
			508.8,440.9 506.7,440.9 504.6,440.5 502.5,440.5 500.4,440 498.3,440.9 496.2,442.1 494,442.1 491.9,442.2 489.8,441.6 
			487.7,441.7 485.6,441.5 483.5,442.2 481.4,442.3 479.3,441.6 477.1,441.1 475,441.1 472.9,441.4 470.8,440.6 468.7,440.1 
			466.6,439.9 464.5,440.2 462.3,440.6 460.2,441.8 458.1,440.7 456,440.4 453.9,440.1 451.8,439.8 449.7,439.6 447.6,438.9 
			445.4,439.2 443.3,439.7 441.2,441.1 439.1,441.5 437,442.1 434.9,441.9 432.8,441.4 430.6,441.5 428.5,442.1 426.4,442.8 
			424.3,442.1 422.2,442.4 420.1,442.6 418,441.6 415.8,440.5 413.7,440 411.6,440.1 409.5,439.4 407.4,438.5 405.3,438.8 
			403.2,439 401.1,438.7 398.9,439.3 396.8,439 394.7,438.4 392.6,437.5 390.5,437.2 388.4,436.5 386.3,437.9 384.1,437.3 
			382,436.6 379.9,436.7 377.8,436.3 375.7,435.8 373.6,435.3 371.5,434.6 369.4,435.8 367.2,436.1 365.1,438 363,437.7 
			360.9,437.3 358.8,438 356.7,438.1 354.6,437.7 352.4,438.6 350.3,439.2 348.2,439.1 346.1,437.6 344,437.7 341.9,438.2 
			339.8,438.5 337.6,439.5 335.5,439.5 333.4,439.9 331.3,438.9 329.2,438.2 327.1,437.6 325,437.2 322.9,436.5 320.7,437.2 
			318.6,437.3 316.5,437.4 314.4,437.2 312.3,436.4 310.2,436.5 308.1,436.7 305.9,435.6 303.8,435.9 301.7,436.1 299.6,436.7 
			297.5,436.6 295.4,435.8 293.3,436.2 291.2,436.5 289,436.4 286.9,436.3 284.8,437.1 282.7,436 280.6,436.6 278.5,435.7 
			276.4,435.7 274.2,435.4 272.1,434.1 270,433.6 267.9,434.2 265.8,435.1 263.7,434.4 261.6,433.6 259.4,434.3 257.3,434.5 
			255.2,434.8 253.1,434 251,433.1 248.9,434 246.8,433.5 244.7,433.3 242.5,433.4 240.4,433.7 238.3,433.1 236.2,434.6 
			234.1,434.8 232,435.5 229.9,435.2 227.7,434.8 225.6,433.9 223.5,433.8 221.4,432.6 219.3,433.1 217.2,433.8 215.1,432.6 
			213,433.7 210.8,434.5 208.7,435 206.6,434.5 204.5,434.5 202.4,434.3 200.3,434.3 198.2,435 196,435.3 193.9,435 191.8,435.8 
			189.7,435.5 187.6,434.9 185.5,435.5 183.4,436 181.2,435.8 179.1,436.1 177,436.3 174.9,436.8 172.8,438.1 170.7,438.3 
			168.6,438 166.5,436.8 164.3,436.1 162.2,436.2 160.1,436 158,436.5 155.9,435 153.8,434.8 151.7,433.5 149.5,434.8 147.4,434.6 
			145.3,434.7 143.2,434.9 141.1,436.3 139,436.4 136.9,435 134.8,437 132.6,437.6 130.5,437.8 128.4,438.3 126.3,438.8 
			124.2,438.9 122.1,439.1 120,438.8 117.8,439.3 115.7,439 113.6,438.6 111.5,438.9 109.4,439.3 107.3,438.7 105.2,440.3 
			103,440.3 100.9,441.5 98.8,441.6 96.7,442.6 94.6,442.1 92.5,442.2 90.4,442.5 88.3,442.2 86.1,442 84,442.2 81.9,442 
			79.8,442.4 77.7,442 75.6,442.6 73.5,443.4 71.3,443.8 69.2,444.1 67.1,444.8 65,445 62.9,444.7 		"/>
	</g>
</g>
<polyline class="st8" points="62.9,444.7 65,444.2 67.1,444.3 69.2,443.1 71.3,442.7 73.5,442.9 75.6,441.6 77.7,441.1 79.8,441.7 
	81.9,441.2 84,439.8 86.1,438.3 88.3,438 90.4,437.9 92.5,437.1 94.6,437 96.7,436.5 98.8,435.1 100.9,433.4 103,433.9 105.2,433 
	107.3,431.8 109.4,431.1 111.5,429.5 113.6,428.1 115.7,424.8 117.8,423.3 120,421.6 122.1,422.5 124.2,421.5 126.3,422.5 
	128.4,422.6 130.5,421.3 132.6,421.3 134.8,419.2 136.9,419.7 139,419.9 141.1,420.2 143.2,421.3 145.3,419.7 147.4,418.6 
	149.5,418.3 151.7,418.7 153.8,416.3 155.9,414.8 158,413.9 160.1,413.2 162.2,411.5 164.3,413.3 166.5,411.9 168.6,412 
	170.7,409.8 172.8,409.2 174.9,407.5 177,406.3 179.1,403.7 181.2,404.1 183.4,405.4 185.5,404.7 187.6,404.9 189.7,404.5 
	191.8,403.9 193.9,404.4 196,403.7 198.2,402.8 200.3,402.7 202.4,402.7 204.5,401.9 206.6,398.7 208.7,398.5 210.8,397.9 
	213,400.5 215.1,399.1 217.2,398.1 219.3,396.9 221.4,398.7 223.5,401.2 225.6,400.1 227.7,402.3 229.9,401.1 232,401.7 
	234.1,402.6 236.2,402.1 238.3,402.3 240.4,403.2 242.5,403.2 244.7,403.2 246.8,401 248.9,398.9 251,397.5 253.1,396.7 
	255.2,397.1 257.3,397.3 259.4,395.6 261.6,393.2 263.7,393.5 265.8,392.1 267.9,390.5 270,389.8 272.1,389.4 274.2,385.3 
	276.4,382.5 278.5,381.5 280.6,380 282.7,376.4 284.8,373.7 286.9,374 289,375.6 291.2,374.1 293.3,373.7 295.4,370.8 297.5,366.4 
	299.6,368.4 301.7,365.1 303.8,365.2 305.9,361.1 308.1,361.7 310.2,361.1 312.3,360 314.4,356 316.5,356.4 318.6,357.3 
	320.7,352.9 322.9,353.3 325,351.6 327.1,349.1 329.2,349.8 331.3,350.8 333.4,349.8 335.5,347.6 337.6,343.5 339.8,346.6 
	341.9,346 344,344.4 346.1,346.5 348.2,344.4 350.3,344.6 352.4,342.3 354.6,341.9 356.7,341 358.8,342.3 360.9,342.9 363,342.8 
	365.1,344.9 367.2,341.6 369.4,341.5 371.5,341.8 373.6,335.8 375.7,333.8 377.8,332.5 379.9,333.4 382,332.8 384.1,328.6 
	386.3,329 388.4,324.2 390.5,325 392.6,325.6 394.7,321.7 396.8,318.9 398.9,316.1 401.1,313.9 403.2,315.7 405.3,315.1 407.4,315 
	409.5,309.7 411.6,306.7 413.7,306.6 415.8,312.8 418,311.7 420.1,314.4 422.2,313 424.3,313.3 426.4,308.9 428.5,309 430.6,311.5 
	432.8,307.5 434.9,302.1 437,299.1 439.1,302.6 441.2,296.3 443.3,295.5 445.4,293.5 447.6,293.7 449.7,292.9 451.8,296.2 
	453.9,294 456,289.9 458.1,288 460.2,289.3 462.3,286.5 464.5,290 466.6,289 468.7,289.1 470.8,283.5 472.9,280.3 475,276.5 
	477.1,266.7 479.3,266.4 481.4,265.5 483.5,269 485.6,261.5 487.7,252.8 489.8,251.3 491.9,252.3 494,247.2 496.2,245.9 
	498.3,254.6 500.4,256.1 502.5,252.8 504.6,252 506.7,248.1 508.8,248.3 511,241.9 513.1,244.3 515.2,246.9 517.3,237.9 519.4,233 
	521.5,229.5 523.6,229.3 525.8,225.1 527.9,213.5 530,211.8 532.1,213.2 534.2,215 536.3,210 538.4,216.3 540.5,209.5 542.7,209.2 
	544.8,211.9 546.9,205.8 549,201.9 551.1,198.9 553.2,193.1 555.3,190.1 557.5,189.9 559.6,182 561.7,173.5 563.8,171 565.9,177 
	568,176.6 570.1,178 572.2,181.4 574.4,168.3 576.5,174.9 578.6,179.9 580.7,184.4 582.8,191.5 584.9,181.3 587,188.4 589.2,184.6 
	591.3,186.4 593.4,185.1 595.5,184.6 597.6,178.5 599.7,184.3 601.8,181.7 604,180.4 606.1,181.6 608.2,178.7 610.3,185.7 
	612.4,190.5 614.5,186.4 616.6,188.9 618.7,187.8 620.9,177.1 623,185.6 625.1,186.3 627.2,190.6 629.3,187.9 631.4,187 
	633.5,188.2 635.7,191.8 637.8,190.5 639.9,188.8 642,195.4 644.1,190.7 646.2,185 648.3,183.5 650.4,182.8 652.6,192.4 
	654.7,188.1 656.8,182.3 658.9,168.5 661,157.6 663.1,159.6 665.2,166.3 667.4,166.4 669.5,173.3 671.6,175.1 673.7,172.4 
	675.8,167.3 677.9,174.6 680,178.5 682.2,179.8 684.3,175.1 686.4,168.5 688.5,168.7 690.6,168.4 692.7,165.8 694.8,165 
	696.9,166.4 "/>
</svg>
