<?xml version="1.0" encoding="utf-8"?>
<!-- Generator: Adobe Illustrator 19.0.0, SVG Export Plug-In . SVG Version: 6.00 Build 0)  -->
<svg version="1.1" id="_x31_st-Defensive" xmlns="http://www.w3.org/2000/svg" xmlns:xlink="http://www.w3.org/1999/xlink" x="0px"
	 y="0px" viewBox="0 0 727 525.3" style="enable-background:new 0 0 727 525.3;" xml:space="preserve">
<style type="text/css">
	.st0{fill-rule:evenodd;clip-rule:evenodd;fill:#D8D8D5;}
	.st1{fill:#1E1E1E;}
	.st2{font-family:'Gotham-Medium';}
	.st3{font-size:14px;}
	.st4{font-family:'Gotham-Book';}
	.st5{fill:#E5F0F4;}
	.st6{fill:#FFE6DB;}
	.st7{fill:none;stroke:#FF550F;stroke-width:2.5;stroke-linecap:round;stroke-linejoin:round;stroke-miterlimit:10;}
	.st8{fill:none;stroke:#006E96;stroke-width:2.5;stroke-linecap:round;stroke-linejoin:round;stroke-miterlimit:10;}
</style>
<g>
	<g>
		<polygon class="st0" points="704.4,10.4 704.4,9.4 62.4,9.4 62.4,5.4 61.4,5.4 61.4,9.4 57.4,9.4 57.4,10.4 61.4,10.4 61.4,103 
			57.4,103 57.4,104 61.4,104 61.4,196.5 57.4,196.5 57.4,197.5 61.4,197.5 61.4,290.2 57.4,290.2 57.4,291.2 61.4,291.2 
			61.4,383.8 57.4,383.8 57.4,384.8 61.4,384.8 61.4,476.4 57.4,476.4 57.4,477.4 61.4,477.4 61.4,481.4 62.4,481.4 62.4,477.4 
			704.4,477.4 704.4,476.4 62.4,476.4 62.4,384.8 704.4,384.8 704.4,383.8 62.4,383.8 62.4,291.2 704.4,291.2 704.4,290.2 
			62.4,290.2 62.4,197.5 704.4,197.5 704.4,196.5 62.4,196.5 62.4,104 704.4,104 704.4,103 62.4,103 62.4,10.4 		"/>
	</g>
</g>
<text transform="matrix(0 -1 1 0 15.5948 293.3389)" class="st1 st2 st3">Amount ($000)</text>
<text transform="matrix(1 0 0 1 378.9281 525.3393)" class="st1 st2 st3">Years</text>
<text transform="matrix(1 0 0 1 42.9901 481)" class="st1 st4 st3">0</text>
<text transform="matrix(1 0 0 1 683.6594 497.6667)" class="st1 st4 st3">25</text>
<text transform="matrix(1 0 0 1 556.4984 497.6667)" class="st1 st4 st3">20</text>
<text transform="matrix(1 0 0 1 432.4667 497.6667)" class="st1 st4 st3">15</text>
<text transform="matrix(1 0 0 1 305.3059 497.6667)" class="st1 st4 st3">10</text>
<text transform="matrix(1 0 0 1 182.8175 497.6667)" class="st1 st4 st3">5</text>
<text transform="matrix(1 0 0 1 34.8841 389.6667)" class="st1 st4 st3">20</text>
<text transform="matrix(1 0 0 1 33.8758 297.6667)" class="st1 st4 st3">40</text>
<text transform="matrix(1 0 0 1 34.2122 203)" class="st1 st4 st3">60</text>
<text transform="matrix(1 0 0 1 34.45 108.3333)" class="st1 st4 st3">80</text>
<text transform="matrix(1 0 0 1 28.5282 15.3333)" class="st1 st4 st3">100</text>
<path class="st5" d="M700,25.3c0,0-219.3,159-325,222.3s-156.3,97-260,153L66,427c0,0-2,3.2,6.2-0.2c12.8-5.2,42.5-20,83.1-39.5
	c66.7-32,183.7-87.7,278.3-135.7s265.7-139,265.7-139L700,25.3z"/>
<path class="st6" d="M697,405.3v20c0,0-391.7,4.7-477,5c-85.3,0.3-156.7-1.3-156.7-1.3l2.7-1c0,0,10.5-0.4,81.4-3.7
	s260.6-8.6,298.9-10C484.7,413,697,405.3,697,405.3z"/>
<g>
	<g>
		<polyline class="st7" points="696.9,408.2 694.8,408.4 692.7,407.8 690.6,407.8 688.5,407.6 686.4,407.4 684.3,406.9 682.2,407.3 
			680,406.9 677.9,407.1 675.8,407.8 673.7,409.2 671.6,409.7 669.5,409.5 667.4,410.1 665.2,411.1 663.1,411 661,412.1 
			658.9,411.6 656.8,410 654.7,410.5 652.6,410.8 650.4,410.2 648.3,410.4 646.2,410.7 644.1,410.3 642,411.8 639.9,411.6 
			637.8,412.5 635.7,412.7 633.5,412.8 631.4,412 629.3,411.3 627.2,410.6 625.1,410.8 623,411.4 620.9,411.9 618.7,412.6 
			616.6,412.4 614.5,413.6 612.4,413.2 610.3,413.2 608.2,413.6 606.1,414.4 604,415 601.8,414.8 599.7,415 597.6,415.6 
			595.5,416.1 593.4,415.5 591.3,415.5 589.2,415.9 587,416.5 584.9,416.2 582.8,416.6 580.7,416.3 578.6,417.2 576.5,418 
			574.4,418.4 572.2,418.4 570.1,418.3 568,418.3 565.9,418.7 563.8,418 561.7,418.1 559.6,418.6 557.5,419.4 555.3,419.3 
			553.2,419.3 551.1,419.8 549,419.2 546.9,419.2 544.8,419.7 542.7,420.1 540.5,421.1 538.4,420.9 536.3,420.8 534.2,420.8 
			532.1,421.1 530,421.5 527.9,422 525.8,421.9 523.6,422.2 521.5,421.8 519.4,422.1 517.3,422.5 515.2,423.1 513.1,423.3 
			511,423.5 508.8,423.8 506.7,424 504.6,423.6 502.5,423.6 500.4,423.3 498.3,424 496.2,424.9 494,424.6 491.9,424.6 489.8,424.2 
			487.7,424.5 485.6,424.1 483.5,424.3 481.4,424.5 479.3,424.3 477.1,424.1 475,424.4 472.9,425 470.8,424.4 468.7,424.3 
			466.6,424.7 464.5,424.6 462.3,425.3 460.2,425.9 458.1,425.1 456,425.1 453.9,424.7 451.8,424.4 449.7,424.3 447.6,423.6 
			445.4,424.1 443.3,424.8 441.2,425.6 439.1,426.4 437,426.8 434.9,426.7 432.8,426.8 430.6,426.7 428.5,427.4 426.4,428 
			424.3,427.8 422.2,427.6 420.1,428.1 418,427.6 415.8,426.7 413.7,426.1 411.6,426.1 409.5,426 407.4,425.8 405.3,426 403.2,426 
			401.1,425.8 398.9,425.8 396.8,425.8 394.7,425.5 392.6,424.9 390.5,424.8 388.4,424.6 386.3,425.1 384.1,424.6 382,424.3 
			379.9,424.1 377.8,423.9 375.7,423.8 373.6,423.2 371.5,422.9 369.4,423.4 367.2,423.7 365.1,424.8 363,425.1 360.9,425 
			358.8,425.3 356.7,425 354.6,425 352.4,425.4 350.3,425.7 348.2,425.7 346.1,424.6 344,424.4 341.9,424.8 339.8,424.9 
			337.6,425.3 335.5,425 333.4,425.4 331.3,424.6 329.2,424.4 327.1,424.5 325,424.4 322.9,424.1 320.7,424.7 318.6,424.9 
			316.5,424.7 314.4,424.9 312.3,424.5 310.2,424.4 308.1,424.9 305.9,424 303.8,424.2 301.7,424.2 299.6,424.5 297.5,424.7 
			295.4,424 293.3,424.4 291.2,424.2 289,424.1 286.9,424.2 284.8,424.9 282.7,424.7 280.6,425.1 278.5,425.1 276.4,425.1 
			274.2,424.6 272.1,423.6 270,423.1 267.9,423.5 265.8,424 263.7,423.7 261.6,423.1 259.4,423.5 257.3,423.6 255.2,423.7 
			253.1,423.3 251,423 248.9,423.6 246.8,423.2 244.7,423 242.5,422.5 240.4,422.8 238.3,422.4 236.2,423.5 234.1,423.6 232,424.2 
			229.9,423.8 227.7,423.9 225.6,423.2 223.5,423.1 221.4,422.7 219.3,422.9 217.2,423.3 215.1,422.5 213,422.6 210.8,423.5 
			208.7,423.8 206.6,423.4 204.5,423.3 202.4,423.5 200.3,423.9 198.2,424.3 196,424.2 193.9,424.1 191.8,424.4 189.7,424.3 
			187.6,423.8 185.5,424 183.4,424.5 181.2,424.3 179.1,424.4 177,424.7 174.9,425.2 172.8,425.9 170.7,425.8 168.6,425.3 
			166.5,424.6 164.3,424.4 162.2,424.5 160.1,424.8 158,425.1 155.9,424.6 153.8,424.6 151.7,424.2 149.5,424.4 147.4,424.3 
			145.3,423.7 143.2,424.1 141.1,425.2 139,425.1 136.9,424.1 134.8,424.9 132.6,425.6 130.5,425.9 128.4,426 126.3,426.3 
			124.2,426.4 122.1,426.4 120,426.2 117.8,426.6 115.7,426.2 113.6,426 111.5,426.2 109.4,426.5 107.3,426.3 105.2,427.3 
			103,427.2 100.9,427.8 98.8,427.6 96.7,428.1 94.6,428 92.5,427.9 90.4,428.1 88.3,427.6 86.1,427.7 84,427.7 81.9,427.6 
			79.8,428.1 77.7,427.9 75.6,428.1 73.5,428.3 71.3,428.8 69.2,429.1 67.1,429.3 65,429.3 63.3,429 		"/>
	</g>
</g>
<polyline class="st8" points="63.3,429 65,428.5 67.1,428.1 69.2,426.9 71.3,426.1 73.5,425.8 75.6,424.3 77.7,423.6 79.8,423.4 
	81.9,422.8 84,421.2 86.1,418.9 88.3,417.9 90.4,417.3 92.5,416.2 94.6,415.3 96.7,414.5 98.8,412.8 100.9,410.9 103,410.7 
	105.2,410 107.3,408.6 109.4,407.4 111.5,405.5 113.6,403.9 115.7,400.8 117.8,399.2 120,398 122.1,397.9 124.2,396.6 126.3,396.8 
	128.4,396.7 130.5,395.5 132.6,395.2 134.8,393 136.9,392.7 139,392.2 141.1,391.8 143.2,391.9 145.3,390.3 147.4,389.4 
	149.5,388.7 151.7,388.9 153.8,386.5 155.9,384.6 158,383.4 160.1,381.9 162.2,380.2 164.3,380.9 166.5,379.1 168.6,378.7 
	170.7,376.8 172.8,376.3 174.9,374.3 177,372.7 179.1,370.8 181.2,371.1 183.4,371.6 185.5,370.2 187.6,369.2 189.7,368.1 
	191.8,367.2 193.9,368.2 196,366.7 198.2,366.4 200.3,365.9 202.4,365.6 204.5,364.3 206.6,361.3 208.7,360.9 210.8,359.7 
	213,360.4 215.1,358.9 217.2,356.8 219.3,356.1 221.4,357.2 223.5,358.3 225.6,356.7 227.7,357.6 229.9,355.7 232,355.6 
	234.1,356.7 236.2,355.7 238.3,355.1 240.4,354.6 242.5,354.1 244.7,353.2 246.8,351 248.9,348.7 251,346.9 253.1,346.4 
	255.2,346.1 257.3,345.2 259.4,342.7 261.6,340.8 263.7,340 265.8,338.8 267.9,336.7 270,335.4 272.1,334.3 274.2,331.2 
	276.4,328.4 278.5,327.8 280.6,325.3 282.7,321.2 284.8,319 286.9,318.6 289,319 291.2,316.3 293.3,315.4 295.4,313.6 297.5,311 
	299.6,313 301.7,310.3 303.8,309.9 305.9,307.4 308.1,308.1 310.2,307.3 312.3,306.1 314.4,302.2 316.5,301.6 318.6,302.4 
	320.7,299.3 322.9,299.4 325,297.6 327.1,295.5 329.2,294.7 331.3,294.4 333.4,292.4 335.5,289.7 337.6,286.5 339.8,287.2 
	341.9,287 344,285.6 346.1,285.4 348.2,283.6 350.3,282.8 352.4,280.7 354.6,279.5 356.7,277.6 358.8,277.8 360.9,277.3 363,276.6 
	365.1,277.7 367.2,274.1 369.4,272.5 371.5,273.2 373.6,268.5 375.7,267.8 377.8,266.2 379.9,266.1 382,265.4 384.1,261 
	386.3,258.9 388.4,255.7 390.5,254.8 392.6,255.3 394.7,252.6 396.8,250 398.9,246.7 401.1,246.1 403.2,245.4 405.3,244.4 
	407.4,243.3 409.5,239.5 411.6,236.7 413.7,237.1 415.8,240.3 418,238.6 420.1,237.9 422.2,234.8 424.3,233.7 426.4,230.7 
	428.5,229.1 430.6,229.3 432.8,227.2 434.9,222.6 437,219.5 439.1,220.7 441.2,216.6 443.3,214.8 445.4,212.5 447.6,214.1 
	449.7,214.9 451.8,216.1 453.9,214.2 456,210.6 458.1,208.3 460.2,206.2 462.3,203.9 464.5,205.7 466.6,204.6 468.7,202.8 
	470.8,198.8 472.9,195.9 475,192.8 477.1,186 479.3,185.1 481.4,183.5 483.5,184.6 485.6,180.8 487.7,174.6 489.8,174.5 
	491.9,176.2 494,173.1 496.2,171.4 498.3,177.2 500.4,177.3 502.5,175.8 504.6,174.4 506.7,170.3 508.8,168.6 511,164 513.1,166.6 
	515.2,166.9 517.3,162.2 519.4,158.8 521.5,153.6 523.6,153.6 525.8,149.3 527.9,142.1 530,140.4 532.1,142.6 534.2,143.2 
	536.3,141 538.4,144.6 540.5,139.1 542.7,141.1 544.8,142 546.9,137.1 549,135.2 551.1,129.5 553.2,125.8 555.3,122.8 557.5,122.9 
	559.6,119.9 561.7,114.7 563.8,111.6 565.9,113.8 568,111.6 570.1,111.4 572.2,110.4 574.4,105 576.5,106.9 578.6,109 580.7,112.5 
	582.8,117.3 584.9,112.9 587,116.2 589.2,114.4 591.3,117 593.4,115.9 595.5,118 597.6,115.1 599.7,119 601.8,115.6 604,113.1 
	606.1,111.8 608.2,108.9 610.3,110.9 612.4,114.2 614.5,110.3 616.6,111.9 618.7,110.3 620.9,101.3 623,104.1 625.1,103.2 
	627.2,106.1 629.3,103 631.4,101.6 633.5,100.6 635.7,103.6 637.8,102 639.9,101.5 642,104.4 644.1,101.7 646.2,95.6 648.3,97.2 
	650.4,97.4 652.6,103.2 654.7,100.8 656.8,95.3 658.9,89.4 661,84.7 663.1,85.2 665.2,91.5 667.4,92.5 669.5,94.9 671.6,94.7 
	673.7,89.8 675.8,85.2 677.9,88 680,89.7 682.2,90 684.3,86 686.4,81.1 688.5,81.8 690.6,81.4 692.7,80.5 694.8,78.4 696.9,76 "/>
</svg>
