<?xml version="1.0" encoding="utf-8"?>
<!-- Generator: Adobe Illustrator 19.0.0, SVG Export Plug-In . SVG Version: 6.00 Build 0)  -->
<svg version="1.1" id="_x31_st-Growth" xmlns="http://www.w3.org/2000/svg" xmlns:xlink="http://www.w3.org/1999/xlink" x="0px"
	 y="0px" viewBox="0 0 586 674" style="enable-background:new 0 0 586 674;" xml:space="preserve">
<style type="text/css">
	.st0{fill-rule:evenodd;clip-rule:evenodd;fill:#D8D8D5;}
	.st1{fill:#1E1E1E;}
	.st2{font-family:'Gotham-Medium';}
	.st3{font-size:22px;}
	.st4{font-family:'Gotham-Book';}
	.st5{fill:#E5F0F4;}
	.st6{fill:#FFE6DB;}
	.st7{fill:none;stroke:#FF550F;stroke-width:2.5;stroke-linecap:round;stroke-linejoin:round;stroke-miterlimit:10;}
	.st8{fill:none;stroke:#006E96;stroke-width:2.5;stroke-linecap:round;stroke-linejoin:round;stroke-miterlimit:10;}
</style>
<g>
	<g>
		<polygon class="st0" points="567.1,69.3 567.1,68.2 90.2,68.2 90.2,63.6 89.5,63.6 89.5,68.2 86.5,68.2 86.5,69.3 89.5,69.3 
			89.5,174.3 86.5,174.3 86.5,175.4 89.5,175.4 89.5,280.3 86.5,280.3 86.5,281.5 89.5,281.5 89.5,386.4 86.5,386.4 86.5,387.6 
			89.5,387.6 89.5,492.5 86.5,492.5 86.5,493.7 89.5,493.7 89.5,597.5 86.5,597.5 86.5,598.6 89.5,598.6 89.5,603.2 90.2,603.2 
			90.2,598.6 567.1,598.6 567.1,597.5 90.2,597.5 90.2,493.7 567.1,493.7 567.1,492.5 90.2,492.5 90.2,387.6 567.1,387.6 
			567.1,386.4 90.2,386.4 90.2,281.5 567.1,281.5 567.1,280.3 90.2,280.3 90.2,175.4 567.1,175.4 567.1,174.3 90.2,174.3 90.2,69.3 
					"/>
	</g>
</g>
<text transform="matrix(0 -1 1 0 29.4297 390.0527)" class="st1 st2 st3">Amount ($000)</text>
<text transform="matrix(1 0 0 1 325.3345 656.0186)" class="st1 st2 st3">Years</text>
<text transform="matrix(1 0 0 1 67.5303 602.7617)" class="st1 st4 st3">0</text>
<text transform="matrix(1 0 0 1 537.8457 624.6533)" class="st1 st4 st3">25</text>
<text transform="matrix(1 0 0 1 442.207 624.6533)" class="st1 st4 st3">20</text>
<text transform="matrix(1 0 0 1 354.0771 624.6533)" class="st1 st4 st3">15</text>
<text transform="matrix(1 0 0 1 258.4365 624.6533)" class="st1 st4 st3">10</text>
<text transform="matrix(1 0 0 1 172.5781 624.6533)" class="st1 st4 st3">5</text>
<text transform="matrix(1 0 0 1 54.4844 499.2373)" class="st1 st4 st3">30</text>
<text transform="matrix(1 0 0 1 53.7368 394.958)" class="st1 st4 st3">60</text>
<text transform="matrix(1 0 0 1 53.7363 287.6548)" class="st1 st4 st3">90</text>
<text transform="matrix(1 0 0 1 47.3564 180.3521)" class="st1 st4 st3">120</text>
<text transform="matrix(1 0 0 1 47.0708 74.9395)" class="st1 st4 st3">150</text>
<path class="st5" d="M563.8,86.7c0,0-122.1,176.1-237.7,285.7c-45.3,42.9-114.8,106.2-188.4,155.5l-42.4,29.5c0,0-9.1,5.5-2.6,3.7
	c12.6-3.4,78.6-33.2,110.5-48.5c60.4-28.9,113.5-52,189.6-91.5c94.6-49.2,170.5-94.2,170.5-94.2L563.8,86.7z"/>
<path class="st6" d="M562.8,499.6v60.5c0,0-292.7,4.6-356,4.9s-117.2-1.9-117.2-1.9l4.8-3c0,0,18.9-6,71.6-9.7
	c52.7-3.8,157-17.4,210.3-23.7C425.7,520.8,562.8,499.6,562.8,499.6z"/>
<g>
	<g>
		<polyline class="st7" points="561.5,528.7 560,528.8 558.4,527.1 556.8,527.4 555.3,528.2 553.7,528.3 552.1,526.5 550.5,526.4 
			549,525.2 547.4,525.9 545.8,527.6 544.3,531.6 542.7,533.6 541.1,532.9 539.6,533.2 538,533.4 536.4,531.4 534.8,533.4 
			533.3,533.3 531.7,528.7 530.1,530.5 528.6,530.1 527,527.1 525.4,528.1 523.9,530.3 522.3,529.5 520.7,532.9 519.1,531.3 
			517.6,532 516,532.4 514.4,531.7 512.9,530 511.3,527.8 509.7,524.9 508.2,526.3 506.6,527.9 505,529.3 503.5,530.8 501.9,530.7 
			500.3,534.2 498.7,533.5 497.2,533.3 495.6,535.4 494,537.6 492.5,539.7 490.9,540.3 489.3,539.7 487.8,541.5 486.2,541.8 
			484.6,540.4 483,540.2 481.5,541.1 479.9,542.6 478.3,541.5 476.8,542 475.2,542 473.6,542.5 472.1,543.6 470.5,544.6 468.9,545 
			467.3,545.4 465.8,545.6 464.2,547.5 462.6,545.8 461.1,548 459.5,548.8 457.9,550.8 456.4,549.9 454.8,549.1 453.2,548.8 
			451.6,547.7 450.1,547.5 448.5,549.1 446.9,549 445.4,550.9 443.8,551.7 442.2,552.7 440.7,552.8 439.1,553.5 437.5,554.3 
			436,555.1 434.4,555.1 432.8,555.4 431.2,554.6 429.7,554.9 428.1,555.3 426.5,556.3 425,556.9 423.4,557.3 421.8,557.6 
			420.3,557.6 418.7,556.9 417.1,557 415.5,556.1 414,557.3 412.4,559.2 410.8,559.3 409.3,559.5 407.7,558.8 406.1,558.8 
			404.6,558.6 403,559.7 401.4,559.8 399.8,558.6 398.3,557.7 396.7,557.5 395.1,557.8 393.6,556.6 392,555.8 390.4,555.1 
			388.9,555.6 387.3,556.2 385.7,558.1 384.2,556.4 382.6,555.9 381,555.5 379.4,555 377.9,554.7 376.3,553.7 374.7,554 
			373.2,554.5 371.6,556.7 370,557.1 368.5,558.1 366.9,557.8 365.3,556.7 363.7,556.9 362.2,557.7 360.6,558.8 359,557.6 
			357.5,558.2 355.9,558.3 354.3,556.6 352.8,555 351.2,554.3 349.6,554.5 348,553.2 346.5,551.4 344.9,551.9 343.3,552.2 
			341.8,551.9 340.2,553 338.6,552.4 337.1,551.3 335.5,549.9 333.9,549.4 332.3,548 330.8,550.6 329.2,549.8 327.6,548.5 
			326.1,548.9 324.5,548 322.9,547.2 321.4,546.4 319.8,545.1 318.2,547.3 316.7,547.7 315.1,551 313.5,550.1 311.9,549.4 
			310.4,550.6 308.8,551.1 307.2,550.3 305.7,551.7 304.1,552.7 302.5,552.7 301,550.2 299.4,550.6 297.8,551.2 296.2,552 
			294.7,553.6 293.1,553.8 291.5,554.4 290,552.8 288.4,551.6 286.8,550.4 285.3,549.5 283.7,548.3 282.1,549.3 280.5,549.4 
			279,549.7 277.4,549.1 275.8,547.7 274.3,548 272.7,548.1 271.1,546.2 269.6,546.8 268,547.3 266.4,548.3 264.8,548 263.3,546.8 
			261.7,547.3 260.1,548.2 258.6,547.9 257,547.7 255.4,548.9 253.9,546.8 252.3,547.7 250.7,545.8 249.2,545.6 247.6,545.5 
			246,543.2 244.4,542.6 242.9,543.7 241.3,545.2 239.7,543.9 238.2,542.6 236.6,543.9 235,544.1 233.5,544.7 231.9,543.4 
			230.3,541.5 228.7,543.1 227.2,542.3 225.6,542 224,542.7 222.5,543.1 220.9,542 219.3,544.5 217.8,544.8 216.2,546 214.6,545.7 
			213,544.5 211.5,543.2 209.9,543.1 208.3,540.8 206.8,541.5 205.2,542.8 203.6,541 202.1,543.2 200.5,544.3 198.9,545.2 
			197.4,544.4 195.8,544.4 194.2,543.9 192.6,543.5 191.1,544.8 189.5,545.5 187.9,545 186.4,546.4 184.8,545.8 183.2,545 
			181.7,546 180.1,546.9 178.5,546.5 176.9,547 175.4,547.3 173.8,548.1 172.2,550.2 170.7,550.7 169.1,550.6 167.5,548.4 166,547 
			164.4,547.2 162.8,546.5 161.2,547.5 159.7,544.4 158.1,544 156.5,541.6 155,544.2 153.4,543.9 151.8,544.6 150.3,544.6 
			148.7,546.8 147.1,547.2 145.5,544.9 144,548.6 142.4,549.5 140.8,549.8 139.3,550.6 137.7,551.5 136.1,551.6 134.6,552.1 
			133,551.5 131.4,552.4 129.9,552 128.3,551.3 126.7,551.8 125.1,552.5 123.6,551.3 122,553.8 120.4,553.9 118.9,555.9 
			117.3,556.4 115.7,558.1 114.2,557.2 112.6,557.3 111,557.9 109.4,557.6 107.9,557.2 106.3,557.5 104.7,557.1 103.2,557.7 
			101.6,557 100,558.1 98.5,559.5 96.9,560.1 95.3,560.5 93.7,561.7 92.2,562.1 90.6,561.6 90.6,561.6 		"/>
	</g>
</g>
<polyline class="st8" points="90.6,561.6 92.2,560.9 93.7,561.3 95.3,559.7 96.9,559.4 98.5,559.9 100,558.1 101.6,557.5 
	103.2,558.8 104.7,558.2 106.3,556.3 107.9,554.6 109.4,554.6 111,554.7 112.6,553.8 114.2,554 115.7,553.4 117.3,551.8 
	118.9,549.5 120.4,550.5 122,549.2 123.6,547.5 125.1,546.9 126.7,544.8 128.3,543 129.9,538.2 131.4,536.3 133,533.6 134.6,535.4 
	136.1,534.3 137.7,536 139.3,536.2 140.8,534.3 142.4,534.4 144,531.5 145.5,532.7 147.1,533.3 148.7,534.1 150.3,536 151.8,534 
	153.4,532.2 155,532.2 156.5,532.7 158.1,529.5 159.7,527.6 161.2,526.4 162.8,525.9 164.4,523.5 166,526.6 167.5,524.8 
	169.1,525.4 170.7,522 172.2,521.2 173.8,519 175.4,517.4 176.9,513.5 178.5,514.1 180.1,516.3 181.7,515.5 183.2,516.5 
	184.8,516.5 186.4,515.7 187.9,516.1 189.5,515.5 191.1,514 192.6,514.1 194.2,514.2 195.8,513.4 197.4,508.8 198.9,508.5 
	200.5,508.1 202.1,512.7 203.6,510.8 205.2,509.9 206.8,508 208.3,511 209.9,515 211.5,513.9 213,517.4 214.6,516.2 216.2,517.2 
	217.8,518.4 219.3,518 220.9,518.5 222.5,520.5 224,520.7 225.6,520.9 227.2,518 228.7,515.4 230.3,513.7 231.9,512.5 233.5,513.2 
	235,514.1 236.6,512.1 238.2,508.8 239.7,509.7 241.3,507.8 242.9,505.8 244.4,505.1 246,504.9 247.6,498.9 249.2,495.2 
	250.7,493.6 252.3,492 253.9,487.4 255.4,483.4 257,484.1 258.6,486.8 260.1,485.4 261.7,485.2 263.3,480.7 264.8,473.6 
	266.4,476.3 268,471.3 269.6,471.8 271.1,465.3 272.7,465.9 274.3,465.2 275.8,463.8 277.4,458.3 279,459.2 280.5,460.5 
	282.1,453.7 283.7,454.3 285.3,451.9 286.8,448.1 288.4,450.1 290,452.1 291.5,451.3 293.1,448.5 294.7,442.4 296.2,448 297.8,447 
	299.4,444.6 301,448.9 302.5,445.8 304.1,446.5 305.7,443.4 307.2,443.2 308.8,442.6 310.4,444.9 311.9,446.4 313.5,446.4 
	315.1,449.7 316.7,445.4 318.2,446.1 319.8,446.1 321.4,437.3 322.9,433.7 324.5,432.3 326.1,433.9 327.6,433.1 329.2,427.4 
	330.8,429.4 332.3,421.9 333.9,424.1 335.5,425 337.1,418.9 338.6,414.8 340.2,411.3 341.8,407.2 343.3,411.3 344.9,410.5 
	346.5,411 348,402.7 349.6,398.4 351.2,397.8 352.8,408.2 354.3,407 355.9,412.7 357.5,411.7 359,412.8 360.6,406 362.2,407 
	363.7,411.8 365.3,405.1 366.9,397.2 368.5,393.2 370,399.3 371.6,389.4 373.2,388.8 374.7,386.1 376.3,385.6 377.9,383.4 
	379.4,389.3 381,386.1 382.6,380.1 384.2,377.7 385.7,381.4 387.3,377.3 388.9,383.1 390.4,381.7 392,383.1 393.6,374.3 
	395.1,369.7 396.7,363.9 398.3,348.5 399.8,348.5 401.4,347.5 403,353.9 404.6,341.2 406.1,327.4 407.7,324 409.3,324.8 
	410.8,316.1 412.4,314.8 414,328.9 415.5,331.9 417.1,326.3 418.7,325.4 420.3,319.9 421.8,321.6 423.4,311.3 425,314.2 
	426.5,319.6 428.1,303.9 429.7,295.9 431.2,292.1 432.8,291.8 434.4,286 436,266.5 437.5,263.9 439.1,265.1 440.7,268.5 
	442.2,259.5 443.8,270.3 445.4,259.9 446.9,257.7 448.5,262.7 450.1,253.2 451.6,246 453.2,243.8 454.8,233.9 456.4,229.8 
	457.9,229.3 459.5,214.1 461.1,199 462.6,195.9 464.2,207.7 465.8,208.3 467.3,211.7 468.9,219.7 470.5,195.2 472.1,208.4 
	473.6,217.5 475.2,224.5 476.8,236.2 478.3,217.5 479.9,230.1 481.5,223 483,224.9 484.6,222.8 486.2,220 487.8,208.7 489.3,218.3 
	490.9,215.2 492.5,214.3 494,217.8 495.6,213.6 497.2,227.3 498.7,235.2 500.3,229 501.9,233.2 503.5,232 505,215.7 506.6,232 
	508.2,234.3 509.7,241.4 511.3,238 512.9,236.9 514.4,239.9 516,245.1 517.6,243.4 519.1,240.1 520.7,252.1 522.3,244.1 
	523.9,236.5 525.4,232.1 527,230.5 528.6,246.7 530.1,239.2 531.7,230.6 533.3,205.5 534.8,185.3 536.4,189.2 538,198.9 
	539.6,198.3 541.1,211.6 542.7,215.3 544.3,213.3 545.8,205.7 547.4,219.2 549,226.3 550.5,228.6 552.1,221.3 553.7,210.7 
	555.3,210.5 556.8,210 558.4,205.1 560,204.9 561.5,209.7 "/>
</svg>
