<?xml version="1.0" encoding="utf-8"?>
<!-- Generator: Adobe Illustrator 19.0.0, SVG Export Plug-In . SVG Version: 6.00 Build 0)  -->
<svg version="1.1" id="_x31_st_x5F_Aggressive" xmlns="http://www.w3.org/2000/svg" xmlns:xlink="http://www.w3.org/1999/xlink"
	 x="0px" y="0px" viewBox="0 0 727 525.3" style="enable-background:new 0 0 727 525.3;" xml:space="preserve">
<style type="text/css">
	.st0{fill-rule:evenodd;clip-rule:evenodd;fill:#D8D8D5;}
	.st1{fill:#1E1E1E;}
	.st2{font-family:'Gotham-Medium';}
	.st3{font-size:14px;}
	.st4{font-family:'Gotham-Book';}
	.st5{fill:#E5F0F4;}
	.st6{fill:#FFE6DB;}
	.st7{fill:none;stroke:#FF550F;stroke-width:2.5;stroke-linecap:round;stroke-linejoin:round;stroke-miterlimit:10;}
	.st8{fill:none;stroke:#006E96;stroke-width:2.5;stroke-linecap:round;stroke-linejoin:round;stroke-miterlimit:10;}
</style>
<g>
	<g>
		<polygon class="st0" points="704.4,10.4 704.4,9.4 62.4,9.4 62.4,5.4 61.4,5.4 61.4,9.4 57.4,9.4 57.4,10.4 61.4,10.4 61.4,87.2 
			57.4,87.2 57.4,88.2 61.4,88.2 61.4,165 57.4,165 57.4,166 61.4,166 61.4,242.9 57.4,242.9 57.4,243.9 61.4,243.9 61.4,320.7 
			57.4,320.7 57.4,321.7 61.4,321.7 61.4,398.5 57.4,398.5 57.4,399.5 61.4,399.5 61.4,476.4 57.4,476.4 57.4,477.4 61.4,477.4 
			61.4,481.4 62.4,481.4 62.4,477.4 704.4,477.4 704.4,476.4 62.4,476.4 62.4,399.5 704.4,399.5 704.4,398.5 62.4,398.5 62.4,321.7 
			704.4,321.7 704.4,320.7 62.4,320.7 62.4,243.9 704.4,243.9 704.4,242.9 62.4,242.9 62.4,166 704.4,166 704.4,165 62.4,165 
			62.4,88.2 704.4,88.2 704.4,87.2 62.4,87.2 62.4,10.4 		"/>
	</g>
</g>
<text transform="matrix(0 -1 1 0 15.5948 293.3389)" class="st1 st2 st3">Amount ($000)</text>
<text transform="matrix(1 0 0 1 378.9281 525.3393)" class="st1 st2 st3">Years</text>
<text transform="matrix(1 0 0 1 683.6594 497.6667)" class="st1 st4 st3">25</text>
<text transform="matrix(1 0 0 1 556.4984 497.6667)" class="st1 st4 st3">20</text>
<text transform="matrix(1 0 0 1 432.4667 497.6667)" class="st1 st4 st3">15</text>
<text transform="matrix(1 0 0 1 305.3059 497.6667)" class="st1 st4 st3">10</text>
<text transform="matrix(1 0 0 1 182.8175 497.6667)" class="st1 st4 st3">5</text>
<path class="st5" d="M700,30c0,0-121.5,130-307.5,253.5C321.3,330.8,229,379,135,419l-61.5,26c0,0-17.2,6.9-8.5,5.3
	c17-3,115.4-25.6,159-36.8c79.5-20.5,152.6-35.4,256.5-65.5c133-38.5,218.8-63,218.8-63L700,30z"/>
<path class="st6" d="M698.7,385v64.5c0,0-393.8,4.2-479.2,4.5S62,452,62,452l5.1-2c0,0,27.5-4.6,101.4-11
	c73-6.4,203.9-17.4,278.1-24.2C513,408.6,698.7,385,698.7,385z"/>
<g>
	<g>
		<polyline class="st7" points="696.9,421 694.8,421 692.7,419.3 690.6,419.6 688.5,420.6 686.4,420.7 684.3,418.8 682.2,418.5 
			680,417.2 677.9,418 675.8,419.7 673.7,423.7 671.6,425.8 669.5,425.1 667.4,425.3 665.2,425.1 663.1,422.9 661,424.8 
			658.9,424.8 656.8,420.1 654.7,422 652.6,421.4 650.4,418 648.3,419.2 646.2,421.6 644.1,420.8 642,424.2 639.9,422.3 
			637.8,422.9 635.7,423.2 633.5,422.3 631.4,420.7 629.3,418.4 627.2,415.1 625.1,416.7 623,418.4 620.9,419.8 618.7,421.4 
			616.6,421.3 614.5,425 612.4,424.3 610.3,424.1 608.2,426.3 606.1,428.5 604,430.6 601.8,431.3 599.7,430.6 597.6,432.3 
			595.5,432.6 593.4,431.2 591.3,431.1 589.2,431.9 587,433.4 584.9,432.2 582.8,432.7 580.7,432.8 578.6,433.1 576.5,434 
			574.4,435 572.2,435.5 570.1,436 568,436.2 565.9,438.1 563.8,436.5 561.7,438.7 559.6,439.5 557.5,441.4 555.3,440.5 
			553.2,439.6 551.1,439.1 549,438.1 546.9,437.9 544.8,439.5 542.7,439.3 540.5,441 538.4,442 536.3,443 534.2,443.2 532.1,443.8 
			530,444.5 527.9,445.2 525.8,445.3 523.6,445.5 521.5,444.7 519.4,445 517.3,445.4 515.2,446.2 513.1,446.8 511,447.1 
			508.8,447.4 506.7,447.3 504.6,446.7 502.5,446.8 500.4,445.9 498.3,447 496.2,448.7 494,448.9 491.9,449.2 489.8,448.5 
			487.7,448.5 485.6,448.4 483.5,449.4 481.4,449.5 479.3,448.3 477.1,447.4 475,447.1 472.9,447.3 470.8,446.2 468.7,445.3 
			466.6,444.5 464.5,445.1 462.3,445.5 460.2,447.3 458.1,445.7 456,445.2 453.9,444.9 451.8,444.5 449.7,444.2 447.6,443.3 
			445.4,443.5 443.3,443.8 441.2,445.9 439.1,446.1 437,447.1 434.9,446.7 432.8,445.5 430.6,445.8 428.5,446.5 426.4,447.5 
			424.3,446.2 422.2,447 420.1,446.9 418,445.2 415.8,443.7 413.7,443.2 411.6,443.3 409.5,442 407.4,440 405.3,440.5 403.2,440.9 
			401.1,440.5 398.9,441.8 396.8,441.2 394.7,440.1 392.6,438.6 390.5,438.1 388.4,436.6 386.3,439.4 384.1,438.6 382,437.3 
			379.9,437.7 377.8,436.8 375.7,435.8 373.6,435.1 371.5,433.8 369.4,436.1 367.2,436.5 365.1,439.8 363,438.8 360.9,437.9 
			358.8,439.2 356.7,439.8 354.6,438.9 352.4,440.4 350.3,441.4 348.2,441.4 346.1,438.9 344,439.4 341.9,440 339.8,440.8 
			337.6,442.4 335.5,442.8 333.4,443.3 331.3,441.8 329.2,440.5 327.1,439.1 325,438.2 322.9,436.9 320.7,437.8 318.6,437.8 
			316.5,438.3 314.4,437.5 312.3,436 310.2,436.4 308.1,436.3 305.9,434.4 303.8,435 301.7,435.6 299.6,436.7 297.5,436.3 
			295.4,435.1 293.3,435.5 291.2,436.7 289,436.4 286.9,436.1 284.8,437.3 282.7,434.9 280.6,435.8 278.5,433.6 276.4,433.4 
			274.2,433.3 272.1,431 270,430.4 267.9,431.6 265.8,433.2 263.7,431.8 261.6,430.5 259.4,431.8 257.3,432.1 255.2,432.7 
			253.1,431.3 251,429.2 248.9,430.7 246.8,429.9 244.7,429.8 242.5,430.8 240.4,431.2 238.3,430 236.2,432.6 234.1,432.8 232,434 
			229.9,433.8 227.7,432.4 225.6,431.2 223.5,431.1 221.4,428.5 219.3,429.3 217.2,430.7 215.1,428.8 213,431.3 210.8,432.3 
			208.7,433.3 206.6,432.5 204.5,432.6 202.4,431.9 200.3,431.3 198.2,432.6 196,433.5 193.9,432.9 191.8,434.5 189.7,433.8 
			187.6,433 185.5,434.2 183.4,435.1 181.2,434.6 179.1,435.2 177,435.3 174.9,436.1 172.8,438.3 170.7,438.9 168.6,438.9 
			166.5,436.6 164.3,435.1 162.2,435.3 160.1,434.5 158,435.5 155.9,432 153.8,431.5 151.7,428.8 149.5,431.8 147.4,431.5 
			145.3,432.5 143.2,432.4 141.1,434.6 139,435.2 136.9,432.8 134.8,436.8 132.6,437.6 130.5,437.8 128.4,438.7 126.3,439.6 
			124.2,439.7 122.1,440.3 120,439.7 117.8,440.6 115.7,440.2 113.6,439.4 111.5,440 109.4,440.6 107.3,439.4 105.2,441.8 103,442 
			100.9,444 98.8,444.6 96.7,446.3 94.6,445.4 92.5,445.6 90.4,446.1 88.3,446 86.1,445.5 84,445.8 81.9,445.4 79.8,445.9 
			77.7,445.2 75.6,446.3 73.5,447.8 71.3,448.3 69.2,448.7 67.1,450 65,450.3 62.9,449.9 		"/>
	</g>
</g>
<polyline class="st8" points="62.9,449.9 65,449.3 67.1,449.8 69.2,448.4 71.3,448.3 73.5,448.8 75.6,447.4 77.7,446.8 79.8,448.3 
	81.9,447.8 84,446.2 86.1,444.9 88.3,445.2 90.4,445.3 92.5,444.7 94.6,445.1 96.7,444.7 98.8,443.3 100.9,441.5 103,442.6 
	105.2,441.3 107.3,439.9 109.4,439.6 111.5,437.8 113.6,436.3 115.7,432.1 117.8,430.4 120,427.9 122.1,429.8 124.2,428.9 
	126.3,430.7 128.4,430.9 130.5,429.2 132.6,429.4 134.8,426.9 136.9,428.2 139,429 141.1,429.9 143.2,431.8 145.3,430.1 
	147.4,428.4 149.5,428.6 151.7,429.1 153.8,426.3 155.9,424.7 158,423.8 160.1,423.6 162.2,421.5 164.3,424.5 166.5,423.1 
	168.6,423.8 170.7,420.8 172.8,420 174.9,418.2 177,416.8 179.1,413.2 181.2,413.7 183.4,416 185.5,415.5 187.6,416.8 189.7,417 
	191.8,416.4 193.9,416.5 196,416.3 198.2,414.7 200.3,414.9 202.4,415.1 204.5,414.5 206.6,410.5 208.7,410.4 210.8,410.1 
	213,414.8 215.1,413.2 217.2,412.7 219.3,411 221.4,413.8 223.5,417.7 225.6,416.9 227.7,420.2 229.9,419.4 232,420.4 234.1,421.4 
	236.2,421.1 238.3,421.8 240.4,423.8 242.5,424.1 244.7,424.5 246.8,422.1 248.9,420 251,418.6 253.1,417.6 255.2,418.4 
	257.3,419.4 259.4,417.9 261.6,415.1 263.7,416.1 265.8,414.5 267.9,412.9 270,412.5 272.1,412.5 274.2,407.2 276.4,404.1 
	278.5,402.6 280.6,401.5 282.7,397.9 284.8,394.3 286.9,395 289,397.6 291.2,396.8 293.3,396.7 295.4,392.5 297.5,385.8 
	299.6,388.1 301.7,383.6 303.8,384.2 305.9,378 308.1,378.4 310.2,377.9 312.3,376.7 314.4,371.9 316.5,373 318.6,374.1 
	320.7,367.7 322.9,368.2 325,366.2 327.1,362.6 329.2,365 331.3,367.2 333.4,366.8 335.5,364.5 337.6,358.9 339.8,364.7 
	341.9,363.6 344,361.4 346.1,366.1 348.2,363.2 350.3,364.3 352.4,361.5 354.6,361.6 356.7,361.6 358.8,363.9 360.9,365.6 
	363,365.7 365.1,368.8 367.2,365.1 369.4,366.2 371.5,366.1 373.6,358 375.7,354.5 377.8,353.5 379.9,355.2 382,354.5 384.1,349.6 
	386.3,352.3 388.4,345.2 390.5,347.8 392.6,348.7 394.7,343 396.8,339.3 398.9,336.4 401.1,332 403.2,336.7 405.3,336.1 
	407.4,336.9 409.5,328.9 411.6,325.1 413.7,324.3 415.8,334.7 418,333.8 420.1,340.1 422.2,339.8 424.3,341.2 426.4,334.8 
	428.5,336.1 430.6,341 432.8,334.6 434.9,327.4 437,324 439.1,330.1 441.2,320.7 443.3,320.4 445.4,318.1 447.6,317.1 449.7,314.5 
	451.8,320.6 453.9,317.6 456,312.1 458.1,310.2 460.2,314.7 462.3,311 464.5,316.6 466.6,315.6 468.7,317.5 470.8,309.2 
	472.9,305.1 475,299.7 477.1,284.9 479.3,285.2 481.4,284.5 483.5,291.2 485.6,278.5 487.7,265 489.8,261 491.9,261.2 494,252.4 
	496.2,251.7 498.3,265.6 500.4,269 502.5,263.4 504.6,262.7 506.7,257.9 508.8,260.3 511,250.2 513.1,252.6 515.2,258.5 
	517.3,242.4 519.4,234.4 521.5,231.8 523.6,231.5 525.8,226.4 527.9,206.6 530,203.9 532.1,204.4 534.2,208.1 536.3,198.6 
	538.4,209.8 540.5,200 542.7,196.6 544.8,202 546.9,192.8 549,184.8 551.1,184.4 553.2,174.2 555.3,170.5 557.5,169.9 559.6,153 
	561.7,136.8 563.8,134.4 565.9,147.6 568,149.1 570.1,153.4 572.2,163.1 574.4,136.3 576.5,151.4 578.6,161.2 580.7,168 582.8,180 
	584.9,159.8 587,173.2 589.2,165.5 591.3,166.5 593.4,164.4 595.5,160 597.6,147.7 599.7,157.6 601.8,155.2 604,155.2 606.1,159.9 
	608.2,155.8 610.3,171.3 612.4,179.4 614.5,173.4 616.6,177.6 618.7,176.8 620.9,161.2 623,179.3 625.1,182.5 627.2,189.6 
	629.3,187 631.4,185.9 633.5,189.5 635.7,194 637.8,192.6 639.9,188.9 642,201.7 644.1,193.6 646.2,187.1 648.3,181.7 650.4,179.8 
	652.6,196.2 654.7,188.5 656.8,180.4 658.9,153.4 661,131.4 663.1,135.9 665.2,144.8 667.4,143.6 669.5,158.5 671.6,162.7 
	673.7,162.1 675.8,155 677.9,169.5 680,177.1 682.2,179.5 684.3,172.5 686.4,161.8 688.5,161.2 690.6,160.7 692.7,155.4 
	694.8,155.8 696.9,162.2 "/>
<text transform="matrix(1 0 0 1 42.9901 481)" class="st1 st4 st3">0</text>
<text transform="matrix(1 0 0 1 34.6878 404.3333)" class="st1 st4 st3">30</text>
<text transform="matrix(1 0 0 1 34.2122 325.6667)" class="st1 st4 st3">60</text>
<text transform="matrix(1 0 0 1 34.2122 246.3333)" class="st1 st4 st3">90</text>
<text transform="matrix(1 0 0 1 30.1522 170.3333)" class="st1 st4 st3">120</text>
<text transform="matrix(1 0 0 1 29.97 92.3333)" class="st1 st4 st3">150</text>
<text transform="matrix(1 0 0 1 29.7181 15.3333)" class="st1 st4 st3">180</text>
</svg>
