<?xml version="1.0" encoding="utf-8"?>
<!-- Generator: Adobe Illustrator 19.2.1, SVG Export Plug-In . SVG Version: 6.00 Build 0)  -->
<svg version="1.1" id="Capa_1" xmlns="http://www.w3.org/2000/svg" xmlns:xlink="http://www.w3.org/1999/xlink" x="0px" y="0px"
	 viewBox="0 0 42 84" style="enable-background:new 0 0 42 84;" xml:space="preserve">
<style type="text/css">
	.st0{fill:#FF4B05;}
	.st1{fill:#B7B8BA;}
</style>
<g>
	<g>
		<path class="st0" d="M39,51H15.3c-1.1,0-2-0.9-2-2v-4c0-1.1,0.9-2,2-2H39c1.1,0,2,0.9,2,2v4C41,50.1,40.1,51,39,51z"/>
	</g>
	<g>
		<path class="st0" d="M39,67H15.3c-1.1,0-2-0.9-2-2v-4c0-1.1,0.9-2,2-2H39c1.1,0,2,0.9,2,2v4C41,66.1,40.1,67,39,67z"/>
	</g>
	<g>
		<path class="st0" d="M39,83H15.3c-1.1,0-2-0.9-2-2v-4c0-1.1,0.9-2,2-2H39c1.1,0,2,0.9,2,2v4C41,82.1,40.1,83,39,83z"/>
	</g>
	<path class="st0" d="M3,51h4.1c1.1,0,2-0.9,2-2v-4c0-1.1-0.9-2-2-2H3c-1.1,0-2,0.9-2,2v4C1,50.1,1.9,51,3,51z"/>
	<path class="st0" d="M3,67h4.1c1.1,0,2-0.9,2-2v-4c0-1.1-0.9-2-2-2H3c-1.1,0-2,0.9-2,2v4C1,66.1,1.9,67,3,67z"/>
	<path class="st0" d="M3,83h4.1c1.1,0,2-0.9,2-2v-4c0-1.1-0.9-2-2-2H3c-1.1,0-2,0.9-2,2v4C1,82.1,1.9,83,3,83z"/>
</g>
<g>
	<g>
		<path class="st1" d="M39,9H15.3c-1.1,0-2-0.9-2-2V3c0-1.1,0.9-2,2-2H39c1.1,0,2,0.9,2,2v4C41,8.1,40.1,9,39,9z"/>
	</g>
	<g>
		<path class="st1" d="M39,25H15.3c-1.1,0-2-0.9-2-2v-4c0-1.1,0.9-2,2-2H39c1.1,0,2,0.9,2,2v4C41,24.1,40.1,25,39,25z"/>
	</g>
	<g>
		<path class="st1" d="M39,41H15.3c-1.1,0-2-0.9-2-2v-4c0-1.1,0.9-2,2-2H39c1.1,0,2,0.9,2,2v4C41,40.1,40.1,41,39,41z"/>
	</g>
	<path class="st1" d="M3,9h4.1c1.1,0,2-0.9,2-2V3c0-1.1-0.9-2-2-2H3C1.9,1,1,1.9,1,3v4C1,8.1,1.9,9,3,9z"/>
	<path class="st1" d="M3,25h4.1c1.1,0,2-0.9,2-2v-4c0-1.1-0.9-2-2-2H3c-1.1,0-2,0.9-2,2v4C1,24.1,1.9,25,3,25z"/>
	<path class="st1" d="M3,41h4.1c1.1,0,2-0.9,2-2v-4c0-1.1-0.9-2-2-2H3c-1.1,0-2,0.9-2,2v4C1,40.1,1.9,41,3,41z"/>
</g>
</svg>
