<?xml version="1.0" encoding="utf-8"?>
<!-- Generator: Adobe Illustrator 18.0.0, SVG Export Plug-In . SVG Version: 6.00 Build 0)  -->
<!DOCTYPE svg PUBLIC "-//W3C//DTD SVG 1.1//EN" "http://www.w3.org/Graphics/SVG/1.1/DTD/svg11.dtd">
<svg version="1.1" id="Layer_1" xmlns="http://www.w3.org/2000/svg" xmlns:xlink="http://www.w3.org/1999/xlink" x="0px" y="0px"
	 viewBox="0 0 80 80" enable-background="new 0 0 80 80" xml:space="preserve">
<g>
	<circle fill="#20D4AF" cx="40" cy="40" r="39.9"/>
	<path fill="#FFFFFF" d="M54.1,23.4L40.1,37.5L26,23.4C34,16.4,46.1,16.4,54.1,23.4z"/>
	<path fill="#FFFFFF" d="M24,25.4l2,2l-6.5,6.5C20.3,30.8,21.8,27.9,24,25.4z"/>
	<path fill="#FFFFFF" d="M18.7,38.5l9.2-9.2l2.1,2.1L18.9,42.5C18.8,41.2,18.7,39.9,18.7,38.5z"/>
	<path fill="#FFFFFF" d="M19.6,45.7L32,33.4l2.1,2.1L20.8,48.7C20.3,47.7,19.9,46.7,19.6,45.7z"/>
	<path fill="#FFFFFF" d="M22.2,51.2L36,37.4l2.1,2.1L24,53.6C23.4,52.8,22.8,52,22.2,51.2z"/>
	<path fill="#FFFFFF" d="M55.2,54.6c-8,8-20.8,8.3-29.2,0.9l30.1-30.1C63.5,33.8,63.2,46.6,55.2,54.6z"/>
</g>
</svg>
