<svg xmlns="http://www.w3.org/2000/svg" width="50" height="50" viewBox="0 0 50 50">
  <defs>
    <style>
      .cls-1 {
        fill: #e18cc8;
        fill-rule: evenodd;
      }
    </style>
  </defs>
  <path class="cls-1" d="M65.5,3718.5a25,25,0,1,1-25,25A25,25,0,0,1,65.5,3718.5Zm-3.98,30.45a0.773,0.773,0,0,0-.759-0.53H58.8a0.758,0.758,0,0,0-.793.72l0.017,0.14a7.76,7.76,0,0,0,6.009,5.78v-3.36A4.332,4.332,0,0,1,61.52,3748.95Zm-2.336-11.37a6.233,6.233,0,0,0,4.847,5.89v-3.49a2.8,2.8,0,0,1,0-4.8v-3.49A6.242,6.242,0,0,0,59.184,3737.58Zm8.789,3.24-0.092-.02v-5.61l0.2,0.17a3.1,3.1,0,0,1,.969,1.27,0.787,0.787,0,0,0,.742.48h1.983a0.758,0.758,0,0,0,.793-0.72l-0.029-.19a6.617,6.617,0,0,0-4.575-4.51l-0.084-.02v-1.83a0.918,0.918,0,0,0-1.828,0v27.32a0.917,0.917,0,0,0,1.828,0v-2.07A7.228,7.228,0,0,0,67.973,3740.82Zm0.084,10.81-0.176.08v-7.53l0.176,0.09A3.984,3.984,0,0,1,68.057,3751.63Z" transform="translate(-40.5 -3718.5)"/>
</svg>
