<svg xmlns="http://www.w3.org/2000/svg" width="55" height="55" viewBox="0 0 55 55">
  <defs>
    <style>
      .cls-1 {
        fill: #704c99;
        fill-rule: evenodd;
      }
    </style>
  </defs>
  <path class="cls-1" d="M67.531,1113.38a27.5,27.5,0,1,1-27.5,27.5A27.5,27.5,0,0,1,67.531,1113.38Zm-6.482,15.4a1.185,1.185,0,0,0-1.181-1.19H57.612a1.185,1.185,0,0,0-1.185,1.19v3.96l4.622-3.52v-0.44Zm22.556,8.57-14.4-10.95c-0.04-.03-0.085-0.06-0.131-0.09a0.457,0.457,0,0,1,.1.07A1.976,1.976,0,0,0,68,1126a2.007,2.007,0,0,0-1.158.37l-0.058.03-14.39,10.95a1.03,1.03,0,0,0,1.245,1.64l13.912-10.58a0.018,0.018,0,0,1,.017-0.01,0.683,0.683,0,0,1,.432-0.14,0.669,0.669,0,0,1,.432.14H68.44l13.918,10.59A1.03,1.03,0,0,0,83.6,1137.35Zm-15.163-6.22a0.013,0.013,0,0,1-.011-0.01,0.723,0.723,0,0,0-.432-0.13,0.738,0.738,0,0,0-.432.13,0.173,0.173,0,0,1-.017.02l-10.89,8.28a0.866,0.866,0,0,0-.36.7v9.83a3.053,3.053,0,0,0,3.047,3.05h5.294v-7.46A1.362,1.362,0,0,1,66,1144.18h3.733a1.364,1.364,0,0,1,1.362,1.36V1153h5.555a3.052,3.052,0,0,0,3.045-3.05v-9.83a0.874,0.874,0,0,0-.358-0.7Z" transform="translate(-40.031 -1113.38)"/>
</svg>
