<svg xmlns="http://www.w3.org/2000/svg" width="50" height="50" viewBox="0 0 50 50">
  <defs>
    <style>
      .cls-1 {
        fill: #006e96;
        fill-rule: evenodd;
      }
    </style>
  </defs>
  <path class="cls-1" d="M64.5,1025.5a25,25,0,1,1-25,25A25,25,0,0,1,64.5,1025.5Zm9.537,19.32a11.714,11.714,0,0,0-3.391-2.13,4.576,4.576,0,0,1-.555.68,4.1,4.1,0,0,1-.928.69,8.7,8.7,0,0,1,1.036.41,0.624,0.624,0,0,1,.28.88,0.633,0.633,0,0,1-.821.26,10.7,10.7,0,0,0-5.887-.69,0.636,0.636,0,0,1-.713-0.48h0a0.632,0.632,0,0,1,.524-0.77c0.2-.03.444-0.06,0.716-0.09q-0.123-.105-0.238-0.21a4.208,4.208,0,0,1-.914-1.35c-0.023-.05-0.045-0.11-0.065-0.16-0.337.06-.671,0.13-1,0.21a9.586,9.586,0,0,0-5.525-.97,0.844,0.844,0,0,0-.679,1.21l1.146,2.32a9.517,9.517,0,0,0-2.776,3.95l-1.4-.01a0.849,0.849,0,0,0-.852.84v3.11a0.83,0.83,0,0,0,.456.74l1.814,0.94a10.026,10.026,0,0,0,4.4,5.07v2.75a0.987,0.987,0,0,0,.991.98H62.2a0.99,0.99,0,0,0,.909-0.59l0.637-1.45a13.248,13.248,0,0,0,1.679.1,13.984,13.984,0,0,0,2.615-.24v1.2a0.987,0.987,0,0,0,.991.98h2.53a0.994,0.994,0,0,0,.874-0.52,84.074,84.074,0,0,0,3.892-7.64,8.806,8.806,0,0,0,.625-4.11,9.062,9.062,0,0,0-2.918-5.91h0Zm-15.2,5.22a1.265,1.265,0,1,1,1.274-1.26,1.27,1.27,0,0,1-1.274,1.26h0Zm0,0,6.988-6.52a3.4,3.4,0,0,0,1.891.18,3.39,3.39,0,0,0,2.117-1.32,3.339,3.339,0,0,0,.662-2,3.415,3.415,0,0,0-6.83,0,3.336,3.336,0,0,0,.289,1.36,3.383,3.383,0,0,0,1.871,1.78h0Zm0,0" transform="translate(-39.5 -1025.5)"/>
</svg>
