<svg xmlns="http://www.w3.org/2000/svg" width="50" height="50" viewBox="0 0 50 50">
  <defs>
    <style>
      .cls-1 {
        fill: #cadc3c;
        fill-rule: evenodd;
      }
    </style>
  </defs>
  <path class="cls-1" d="M65.5,3560.5a25,25,0,1,1-25,25A25,25,0,0,1,65.5,3560.5Zm1,31.04a3.2,3.2,0,0,0,2.974-1.98H68.419a0.869,0.869,0,0,1-.867-0.87v-1.04a0.869,0.869,0,0,1,.867-0.87h0.935a3.2,3.2,0,0,0-2.857-1.73A3.245,3.245,0,0,0,66.5,3591.54Zm8.829-17.53H57.667a1.677,1.677,0,0,0-1.675,1.68v3.49H77v-3.49A1.677,1.677,0,0,0,75.327,3574.01Zm-16.36,4.01a1.25,1.25,0,1,1,1.24-1.25A1.245,1.245,0,0,1,58.966,3578.02Zm6.431-.38H64.123a0.87,0.87,0,0,1,0-1.74H65.4A0.87,0.87,0,0,1,65.4,3577.64Zm-9.405,18.67a1.677,1.677,0,0,0,1.675,1.68H75.327A1.677,1.677,0,0,0,77,3596.31v-15.39H55.992v15.39ZM66.5,3583.3a4.944,4.944,0,0,1,4.748,3.54h0.7a0.871,0.871,0,0,1,.867.88v0.91a0.869,0.869,0,0,1-.867.87H71.314A4.967,4.967,0,1,1,66.5,3583.3Z" transform="translate(-40.5 -3560.5)"/>
</svg>
