<svg xmlns="http://www.w3.org/2000/svg" width="50" height="50" viewBox="0 0 50 50">
  <defs>
    <style>
      .cls-1 {
        fill: #00afff;
        fill-rule: evenodd;
      }
    </style>
  </defs>
  <path class="cls-1" d="M65.5,3797.5a25,25,0,1,1-25,25A25,25,0,0,1,65.5,3797.5Zm9.709,15.81a2.008,2.008,0,0,0-1.863-1.32H58.67a1.882,1.882,0,0,0-1.869,1.32l-2.8,7.87v10.5a1.248,1.248,0,0,0,1.336,1.31h1.336A1.245,1.245,0,0,0,58,3831.68v-1.31H74.01v1.31a1.248,1.248,0,0,0,1.336,1.31h1.336a1.245,1.245,0,0,0,1.327-1.31v-10.5ZM58.67,3826.43a1.97,1.97,0,1,1,2-1.97A2.034,2.034,0,0,1,58.67,3826.43Zm14.676,0a1.97,1.97,0,1,1,2-1.97A2.041,2.041,0,0,1,73.346,3826.43Zm-16.676-6.56,2-5.91H73.346l2,5.91H56.671Z" transform="translate(-40.5 -3797.5)"/>
</svg>
