<svg xmlns="http://www.w3.org/2000/svg" width="50" height="50" viewBox="0 0 50 50">
  <defs>
    <style>
      .cls-1 {
        fill: #20d4af;
        fill-rule: evenodd;
      }
    </style>
  </defs>
  <path class="cls-1" d="M65.5,3639.5a25,25,0,1,1-25,25A25,25,0,0,1,65.5,3639.5Zm8.392,18.68a5.329,5.329,0,0,0-3.886-.49,4.9,4.9,0,0,0,2.89-4,1.189,1.189,0,0,0-.354-0.94,1.091,1.091,0,0,0-.941-0.29,5.943,5.943,0,0,0-4.806,4.1,7.359,7.359,0,0,0-1.027-2.08,6.426,6.426,0,0,0-3.456-2.43,1.1,1.1,0,0,0-.918.14,1.132,1.132,0,0,0-.5.8l-0.016.1a1.143,1.143,0,0,0,.789,1.25,4.112,4.112,0,0,1,2.225,1.55,5.513,5.513,0,0,1,.882,2.13c-2.037-.44-3.511-1.75-6.529-0.29-3.049,1.48-5.4,5.35-3.633,11.23a16.881,16.881,0,0,0,6.572,9.04H70.4a13.541,13.541,0,0,0,6.269-9.33c0.968-5.76-.32-8.87-2.776-10.49h0Zm-13.378,3.5a3.964,3.964,0,0,0-1.761,4.68,1.2,1.2,0,0,1-.8,1.48,1.749,1.749,0,0,1-.315.04,1.157,1.157,0,0,1-1.117-.87,6.415,6.415,0,0,1,2.9-7.44,1.152,1.152,0,0,1,1.572.5,1.215,1.215,0,0,1-.483,1.61h0Zm0,0" transform="translate(-40.5 -3639.5)"/>
</svg>
