<?xml version="1.0" encoding="utf-8"?>
<!-- Generator: Adobe Illustrator 19.0.0, SVG Export Plug-In . SVG Version: 6.00 Build 0)  -->
<svg version="1.1" id="Layer_1" xmlns="http://www.w3.org/2000/svg" xmlns:xlink="http://www.w3.org/1999/xlink" x="0px" y="0px"
	 viewBox="387.1 99.7 297.6 595.2" style="enable-background:new 387.1 99.7 297.6 595.2;" xml:space="preserve">
<style type="text/css">
	.st0{display:none;}
	.st1{display:inline;}
	.st2{fill:#D4C9E0;}
	.st3{fill:#704C99;}
	.st4{fill:#FFFFFF;}
	.st5{fill:#EFF4C4;}
	.st6{fill:#CADC3C;}
	.st7{fill:none;}
	.st8{fill:#CCEFFF;}
	.st9{fill:#00AFFF;}
	.st10{fill:#006E96;}
	.st11{fill:#B2D3DF;}
	.st12{fill:#F6DCEE;}
	.st13{fill:#E18CC8;}
	.st14{fill:#F0C3CB;}
	.st15{fill:#CE0B5A;}
</style>
<g id="Layer_1_1_" class="st0">
	<g class="st1">
		<g>
			<path class="st2" d="M535.9,408.5c75.9,0,137.7,61.8,137.7,137.7s-61.8,137.7-137.7,137.7s-137.7-61.8-137.7-137.7
				S460,408.5,535.9,408.5 M535.9,397.3c-82.2,0-148.8,66.6-148.8,148.8s66.6,148.8,148.8,148.8s148.8-66.6,148.8-148.8
				S618.2,397.3,535.9,397.3L535.9,397.3z"/>
		</g>
		<g>
			<path class="st3" d="M622.6,523.8l-8.6,17.9l-78.1,26.8c-2.6,13.8-12.6,26.4-27.2,31.3c-21.2,7.4-45-4.1-52.1-25.7
				c-7.4-21.6,4.1-45,25.3-52.5c14.9-5.2,30.5-1.1,40.9,8.6l23.1-7.8l17.5,13l6.7-14.5l3-1.1l14.9,7.4l11.9-16.4l2.2-0.7l18.2,8.6
				C623.4,519.4,624.1,521.2,622.6,523.8z M485.3,579.3c7.4-2.6,11.5-10.8,8.9-18.6c-2.6-7.4-10.8-11.5-18.6-8.9
				c-7.4,2.6-11.5,10.8-8.9,18.6C469.3,577.8,477.9,581.9,485.3,579.3z"/>
		</g>
	</g>
	<g class="st1">
		<g>
			<circle class="st3" cx="535.9" cy="248.5" r="148.8"/>
		</g>
		<g>
			<path class="st4" d="M622.6,226.2l-8.6,17.9l-78.1,26.8c-2.6,13.8-12.6,26.4-27.2,31.3c-21.2,7.4-45-4.1-52.1-25.7
				s4.1-45,25.3-52.5c14.9-5.2,30.5-1.1,40.9,8.6l23.2-7.9l17.5,13l6.7-14.5l3-1.1l14.9,7.4l11.9-16.4l2.2-0.7l18.2,8.6
				C623.4,221.7,624.1,223.6,622.6,226.2z M485.3,281.6c7.4-2.6,11.5-10.8,8.9-18.6c-2.6-7.4-10.8-11.5-18.6-8.9
				c-7.4,2.6-11.5,10.8-8.9,18.6C469.3,280.1,477.9,284.2,485.3,281.6z"/>
		</g>
	</g>
</g>
<g id="Layer_2" class="st0">
	<g class="st1">
		<g>
			<path class="st2" d="M535.9,408.5c75.9,0,137.7,61.8,137.7,137.7s-61.8,137.7-137.7,137.7s-137.7-61.8-137.7-137.7
				S460,408.5,535.9,408.5 M535.9,397.3c-82.2,0-148.8,66.6-148.8,148.8s66.6,148.8,148.8,148.8s148.8-66.6,148.8-148.8
				S618.2,397.3,535.9,397.3L535.9,397.3z"/>
		</g>
		<g>
			<g>
				<path class="st3" d="M496.5,479.6c0-3.7-3-6.7-6.7-6.7h-12.6c-3.7,0-6.7,3-6.7,6.7v22.3l26-19.7
					C496.5,482.2,496.5,479.6,496.5,479.6z"/>
				<path class="st3" d="M624.1,528.3l-81.5-62.1c-0.4,0-0.4-0.4-0.7-0.4c0.4,0,0.4,0.4,0.4,0.4c-1.9-1.5-4.1-2.2-6.7-2.2
					c-2.2,0-4.5,0.7-6.7,2.2c0,0-0.4,0-0.4,0.4L447,528.3c-2.6,1.9-3,5.6-1.1,8.2c1.9,2.6,5.6,3,8.2,1.1l78.5-59.9l0,0
					c0.7-0.4,1.5-0.7,2.6-0.7c0.7,0,1.9,0.4,2.6,0.7l0,0l78.5,59.9c2.6,1.9,6.3,1.5,8.2-1.1C627.1,533.9,626.7,530.2,624.1,528.3z"
					/>
				<path class="st3" d="M538.5,493L538.5,493c-0.7-0.4-1.5-0.7-2.6-0.7c-0.7,0-1.9,0.4-2.6,0.7l0,0L472,539.8
					c-1.1,1.1-1.9,2.2-1.9,4.1v55.4c0,9.7,7.8,17.1,17.1,17.1H517v-42c0-4.1,3.3-7.8,7.8-7.8H546c4.1,0,7.8,3.3,7.8,7.8v42h31.3
					c9.3,0,17.1-7.8,17.1-17.1v-55.4c0-1.5-0.7-3-1.9-4.1L538.5,493z"/>
			</g>
		</g>
	</g>
	<g class="st1">
		<circle class="st3" cx="535.9" cy="248.5" r="148.8"/>
		<path class="st4" d="M470.5,181.9c0-3.7,3-6.7,6.7-6.7h12.6c3.7,0,6.7,3,6.7,6.7v2.6l-26,19.7
			C470.5,204.2,470.5,181.9,470.5,181.9z"/>
		<path class="st4" d="M602.2,301.7c0,9.7-7.8,17.1-17.1,17.1h-31.3v-42c0-4.1-3.3-7.8-7.8-7.8h-21.2c-4.1,0-7.8,3.3-7.8,7.8v42
			h-29.8c-9.7,0-17.1-7.8-17.1-17.1v-55.4c0-1.5,0.7-3,1.9-4.1l61.4-46.9l0,0c0.7-0.4,1.5-0.7,2.6-0.7c0.7,0,1.9,0.4,2.6,0.7l0,0
			l61.4,46.9c1.1,1.1,1.9,2.2,1.9,4.1v55.4H602.2z"/>
		<path class="st4" d="M625.2,238.5c-1.9,2.6-5.6,3-8.2,1.1l-78.5-59.5l0,0c-0.7-0.4-1.5-0.7-2.6-0.7c-0.7,0-1.9,0.4-2.6,0.7l0,0
			l-78.5,59.5c-2.6,1.9-6.3,1.5-8.2-1.1c-1.9-2.6-1.5-6.3,1.1-8.2l81.5-61.8c0,0,0.4,0,0.4-0.4c1.9-1.5,4.1-2.2,6.7-2.2
			c2.2,0,4.5,0.7,6.7,2.2l-0.4-0.4c0.4,0,0.4,0.4,0.4,0.4l0,0h0.4l81.5,61.8C626.7,232.5,627.1,236.2,625.2,238.5z"/>
	</g>
</g>
<g id="Layer_3" class="st0">
	<g class="st1">
		<g>
			<path class="st2" d="M535.9,408.5c75.9,0,137.7,61.8,137.7,137.7s-61.8,137.7-137.7,137.7s-137.7-61.8-137.7-137.7
				S460,408.5,535.9,408.5 M535.9,397.3c-82.2,0-148.8,66.6-148.8,148.8s66.6,148.8,148.8,148.8s148.8-66.6,148.8-148.8
				S618.2,397.3,535.9,397.3L535.9,397.3z"/>
		</g>
		<circle class="st3" cx="535.9" cy="506.7" r="25.7"/>
		<path class="st3" d="M596.2,505.2L583.6,548c-46.5-8.2-48.7-8.2-95.2,0l-12.6-42.8c-4.8-16.7-30.1-9.3-25.3,7.4l16,53.9
			c1.9,6.3,8.2,10.4,14.9,9.3l32.7-6v57.3c7.1-0.4,14.5-0.7,22-0.7s14.9,0.4,22,0.7v-57.3l32.7,6c6.3,1.1,13-2.6,14.9-9.3l16-53.9
			C626.4,495.9,601.1,488.5,596.2,505.2z"/>
	</g>
	<g class="st1">
		<g>
			<circle class="st3" cx="535.9" cy="248.5" r="148.8"/>
		</g>
		<g>
			<circle class="st4" cx="535.9" cy="209.1" r="25.7"/>
			<path class="st4" d="M596.2,207.6l-12.6,42.8c-46.5-8.2-48.7-8.2-95.2,0l-12.6-42.8c-4.8-16.7-30.1-9.3-25.3,7.4l16,53.9
				c1.9,6.3,8.2,10.4,14.9,9.3l32.7-6v57.3c7.1-0.4,14.5-0.7,22-0.7s14.9,0.4,22,0.7v-57.3l32.7,6c6.3,1.1,13-2.6,14.9-9.3l16-53.9
				C626.4,198.3,601.1,190.9,596.2,207.6z"/>
		</g>
	</g>
</g>
<g id="Layer_4" class="st0">
	<g class="st1">
		<g>
			<path class="st5" d="M535.9,408.5c75.9,0,137.7,61.8,137.7,137.7s-61.8,137.7-137.7,137.7s-137.7-61.8-137.7-137.7
				S460,408.5,535.9,408.5 M535.9,397.3c-82.2,0-148.8,66.6-148.8,148.8s66.6,148.8,148.8,148.8s148.8-66.6,148.8-148.8
				S618.2,397.3,535.9,397.3L535.9,397.3z"/>
		</g>
		<g>
			<g>
				<path class="st6" d="M548.6,504.9c0,0,56.6,44.3,63.2,49.5c6.6,5.2,4.5,15.6,1.9,19l-33.5,43.5c-2.6,3.3-13,7.4-18.2,3.3
					c-5.2-4.1-63.6-49.9-63.6-49.9"/>
				<path class="st6" d="M495.4,568.1c0,0,1.9,1.5-5.2-3.7c-6.7-5.2-4.5-15.3-1.9-19l33.5-43.5c2.6-3.3,12.6-7.1,17.9-3
					c5.2,4.1,5.6,4.1,5.6,4.1"/>
				<path class="st6" d="M512.5,493.3c3.3,2.6,4.1,7.8,1.5,11.2l-26.8,34.6c-2.6,3.3-7.8,4.1-11.2,1.5l-1.1-1.1
					c-3.3-2.6-4.1-7.8-1.5-11.2l26.8-34.6c2.6-3.3,7.8-4.1,11.2-1.5L512.5,493.3z"/>
				<path class="st6" d="M468.2,489.2c4.8,3.7,6.7,8.9,4.8,11.5c-1.5,1.9-4.8,2.2-8.2,0.7c-1.5-0.7-3-1.5-4.5-2.6
					c-4.8-3.7-6.7-8.9-4.8-11.5C458.2,484.8,463.4,485.5,468.2,489.2z"/>
				<path class="st6" d="M464.1,500.4c-0.7,0,5.2,2.6,3.3,8.9c-1.9,6.3-1.9,13.4,3,16.4c5.6-7.8,25.7-33.1,25.7-33.1
					s-5.6-6.3-16.7,1.5c-4.5,2.6-8.2-2.6-8.2-2.6"/>
			</g>
		</g>
	</g>
	<g class="st1">
		<g>
			<circle class="st6" cx="535.9" cy="248.5" r="148.8"/>
		</g>
		<g>
			<path class="st4" d="M547.1,210.9c0,0,56.6,44.3,63.2,49.5c6.6,5.2,4.5,15.6,1.9,19l-33.5,43.5c-2.6,3.3-13,7.4-18.2,3.3
				s-63.6-49.9-63.6-49.9"/>
			<path class="st4" d="M493.9,274.2c0,0,1.9,1.5-5.2-3.7c-6.7-5.2-4.5-15.3-1.9-19l33.5-43.5c2.6-3.3,12.6-7.1,17.9-3
				c5.2,4.1,5.6,4.1,5.6,4.1"/>
			<path class="st4" d="M511,199.4c3.3,2.6,4.1,7.8,1.5,11.2l-26.8,34.6c-2.6,3.3-7.8,4.1-11.2,1.5l-1.1-1.1
				c-3.3-2.6-4.1-7.8-1.5-11.2l26.8-34.6c2.6-3.3,7.8-4.1,11.2-1.5L511,199.4z"/>
			<path class="st4" d="M467.1,195.3c4.8,3.7,6.7,8.9,4.8,11.5c-1.5,1.9-4.8,2.2-8.2,0.7c-1.5-0.7-3-1.5-4.5-2.6
				c-4.8-3.7-6.7-8.9-4.8-11.5C456.7,190.9,462.3,191.6,467.1,195.3z"/>
			<path class="st4" d="M462.7,206.5c-0.7,0,5.2,2.6,3.3,8.9c-1.9,6.3-1.9,13.4,3,16.4c5.6-7.8,25.7-33.1,25.7-33.1
				s-5.6-6.3-16.7,1.5c-4.5,2.6-8.2-2.6-8.2-2.6"/>
		</g>
	</g>
</g>
<g id="Layer_5" class="st0">
	<g class="st1">
		<g>
			<path class="st5" d="M535.9,408.5c75.9,0,137.7,61.8,137.7,137.7s-61.8,137.7-137.7,137.7s-137.7-61.8-137.7-137.7
				S460,408.5,535.9,408.5 M535.9,397.3c-82.2,0-148.8,66.6-148.8,148.8s66.6,148.8,148.8,148.8s148.8-66.6,148.8-148.8
				S618.2,397.3,535.9,397.3L535.9,397.3z"/>
		</g>
		<path class="st7" d="M535.9,482.2L535.9,482.2L535.9,482.2c0,0,0,0.4,0,0.7C535.9,482.5,535.9,482.5,535.9,482.2z"/>
		<g>
			<path class="st6" d="M516.6,514.9c-0.7-1.5-2.2-2.6-3.7-2.6l0,0l0,0l0,0H504l0,0v-4.5c4.5-1.9,8.2-5.6,9.3-10.4l0,0
				c1.9-3,2.6-6,2.6-9.7c0-6-3-11.5-7.8-14.5c3-0.7,1.9-4.1,0-4.5c0,3-7.8,1.5-7.8,1.5l0,0c-0.7,0-1.5-0.4-2.6-0.4
				c-10,0-17.9,7.8-17.9,17.9c0,3.7,0.7,7.1,2.6,9.7l0,0c1.5,4.8,4.8,8.6,9.3,10.4v4.5l0,0h-8.9l0,0l0,0l0,0c-1.5,0-3,1.1-3.7,2.6
				l-17.5,45.4c-0.7,2.2,0.4,4.8,2.6,5.6c0.4,0.4,1.1,0.4,1.5,0.4c1.9,0,3.3-1.1,4.1-2.6l13-33.9c0,19,0,24.9,0,26.8v0.7v1.9
				c0,0.4,0,0.4,0,0.7v54.3l0,0v5.6c0,3,2.2,5.2,5.2,5.2h1.1c3,0,5.2-2.2,5.2-5.2v-5.6l0,0v-46.9h6.3v11.5l0,0v40.9
				c0,3,2.2,5.2,5.2,5.2h1.1c3,0,5.2-2.2,5.2-5.2v-5.6l0,0v-54.7V559v-1.9v-0.7v-26.8l13,33.9c0.7,1.9,2.2,2.6,4.1,2.6
				c0.4,0,1.1,0,1.5-0.4c2.2-0.7,3.3-3.3,2.6-5.6L516.6,514.9z"/>
			<path class="st6" d="M592.5,514.9c-0.7-1.5-2.2-2.6-3.7-2.6l0,0l0,0l0,0h-8.9l0,0v-4.1c3.7-1.5,6.7-4.5,8.6-8.2v0.4
				c0.7,0.7,0-1.9,1.5-3.3c1.5-1.5,1.5-3.7,0.4-5.6c-0.7-1.5,0-2.6,0.4-3.3c2.6,8.6,9.7,10.4,9.3,9.3c-5.6-5.2-0.4-20.5-0.4-20.5
				l0,0c0.4-1.1,0.7-1.9,0.7-3c0-4.8-4.1-8.9-8.9-8.9c-4.5,0-7.8,3-8.9,7.1c-0.7,0-1.5,0-2.2,0l0,0c-1.9-0.7-3.7-1.1-6-1.1
				c-8.9,0-16,7.1-16,16c0,0.4,0,0.7,0.4,0.7l0,0c0.4,0.4,0.7,2.2-0.4,4.1c-1.1,1.9-1.1,3.7,0.4,5.6c1.5,1.5,0.4,4.1,1.5,3.3
				c0,0,0.4-0.4,0.4-0.7c1.5,3.7,4.8,6.7,8.6,8.2v4.1l0,0h-8.9l0,0l0,0l0,0c-1.5,0-3,1.1-3.7,2.6l-17.5,45.4
				c-0.7,2.2,0.4,4.8,2.6,5.6c0.4,0.4,1.1,0.4,1.5,0.4c1.9,0,3.3-1.1,4.1-2.6l13-33.9c0,19,0,24.9,0,26.8v0.7v1.9c0,0.4,0,0.4,0,0.7
				v54.3l0,0v5.6c0,3,2.2,5.2,5.2,5.2h1.1c3,0,5.2-2.2,5.2-5.2v-5.6l0,0v-46.9h5.2v11.5l0,0v40.9c0,3,2.2,5.2,5.2,5.2h1.1
				c3,0,5.2-2.2,5.2-5.2v-5.6l0,0v-54.7v-0.4v-1.9v-0.7v-26.8l13,33.9c0.7,1.9,2.2,2.6,4.1,2.6c0.4,0,1.1,0,1.5-0.4
				c2.2-0.7,3.3-3.3,2.6-5.6L592.5,514.9z M589.5,482.2L589.5,482.2c0,0.4,0,0.4,0,0.7C589.5,482.5,589.5,482.2,589.5,482.2
				L589.5,482.2z"/>
		</g>
	</g>
	<g class="st1">
		<g>
			<circle class="st6" cx="535.9" cy="248.5" r="148.8"/>
		</g>
		<path class="st7" d="M535.9,184.5L535.9,184.5L535.9,184.5c0,0,0,0.4,0,0.7C535.9,184.9,535.9,184.9,535.9,184.5z"/>
		<g>
			<path class="st4" d="M516.6,217.3c-0.7-1.5-2.2-2.6-3.7-2.6l0,0l0,0l0,0H504l0,0v-4.5c4.5-1.9,8.2-5.6,9.3-10.4l0,0
				c1.9-3,2.6-6,2.6-9.7c0-6-3-11.5-7.8-14.5c3-0.7,1.9-4.1,0-4.5c0,3-7.8,1.5-7.8,1.5l0,0c-0.7,0-1.5-0.4-2.6-0.4
				c-10,0-17.9,7.8-17.9,17.9c0,3.7,0.7,7.1,2.6,9.7l0,0c1.5,4.8,4.8,8.6,9.3,10.4v4.5l0,0h-8.9l0,0l0,0l0,0c-1.5,0-3,1.1-3.7,2.6
				l-17.6,45.4c-0.7,2.2,0.4,4.8,2.6,5.6c0.4,0.4,1.1,0.4,1.5,0.4c1.9,0,3.3-1.1,4.1-2.6l13-33.9c0,19,0,24.9,0,26.8v0.7v1.9
				c0,0.4,0,0.4,0,0.7v54.3l0,0v5.6c0,3,2.2,5.2,5.2,5.2h1.1c3,0,5.2-2.2,5.2-5.2v-5.6l0,0v-47.3h6.3v11.5l0,0v40.9
				c0,3,2.2,5.2,5.2,5.2h1.1c3,0,5.2-2.2,5.2-5.2v-5.6l0,0v-54.3v-0.4v-1.7V259v-26.8l13,33.9c0.7,1.9,2.2,2.6,4.1,2.6
				c0.4,0,1.1,0,1.5-0.4c2.2-0.7,3.3-3.3,2.6-5.6L516.6,217.3z"/>
			<path class="st4" d="M592.5,217.3c-0.7-1.5-2.2-2.6-3.7-2.6l0,0l0,0l0,0h-8.9l0,0v-4.1c3.7-1.5,6.7-4.5,8.6-8.2v0.4
				c0.7,0.7,0-1.9,1.5-3.3c1.5-1.5,1.5-3.7,0.4-5.6c-0.7-1.5,0-2.6,0.4-3.3c2.6,8.6,9.7,10.4,9.3,9.3c-5.6-5.2-0.4-20.5-0.4-20.5
				l0,0c0.4-1.1,0.7-1.9,0.7-3c0-4.8-4.1-8.9-8.9-8.9c-4.5,0-7.8,3-8.9,7.1c-0.7,0-1.5,0-2.2,0l0,0c-1.9-0.7-3.7-1.1-6-1.1
				c-8.9,0-16,7.1-16,16c0,0.4,0,0.7,0.4,0.7l0,0c0.4,0.4,0.7,2.2-0.4,4.1c-1.1,1.9-1.1,3.7,0.4,5.6c1.5,1.5,0.4,4.1,1.5,3.3
				c0,0,0.4-0.4,0.4-0.7c1.5,3.7,4.8,6.7,8.6,8.2v4.1l0,0h-8.9l0,0l0,0l0,0c-1.5,0-3,1.1-3.7,2.6l-17.8,45.3
				c-0.7,2.2,0.4,4.8,2.6,5.6c0.4,0.4,1.1,0.4,1.5,0.4c1.9,0,3.3-1.1,4.1-2.6l13-33.9c0,19,0,24.9,0,26.8v0.7v1.9c0,0.4,0,0.4,0,0.7
				v54.3l0,0v5.6c0,3,2.2,5.2,5.2,5.2h1.1c3,0,5.2-2.2,5.2-5.2v-5.6l0,0v-47.3h5.2v11.5l0,0v40.9c0,3,2.2,5.2,5.2,5.2h1.1
				c3,0,5.2-2.2,5.2-5.2v-5.6l0,0v-54.3v-0.4v-1.7V259v-26.8l13,33.9c0.7,1.9,2.2,2.6,4.1,2.6c0.4,0,1.1,0,1.5-0.4
				c2.2-0.7,3.3-3.3,2.6-5.6L592.5,217.3z M589.5,184.5L589.5,184.5c0,0.4,0,0.4,0,0.7C589.5,184.9,589.5,184.5,589.5,184.5
				L589.5,184.5z"/>
		</g>
	</g>
</g>
<g id="Layer_6" class="st0">
	<g class="st1">
		<g>
			<path class="st5" d="M535.9,408.5c75.9,0,137.7,61.8,137.7,137.7s-61.8,137.7-137.7,137.7s-137.7-61.8-137.7-137.7
				S460,408.5,535.9,408.5 M535.9,397.3c-82.2,0-148.8,66.6-148.8,148.8s66.6,148.8,148.8,148.8s148.8-66.6,148.8-148.8
				S618.2,397.3,535.9,397.3L535.9,397.3z"/>
		</g>
		<g>
			<path class="st6" d="M559.8,576.3c0,0-13-4.1-13-6.3c0-4.1-0.4-9.3,0.4-10c0,0,0,0,0.4-0.4c8.2-5.6,16-16.7,16-29.8
				c0-18.6-12.3-35.3-27.2-35.3h-1.5c-14.9,0-27.2,16.7-27.2,35.3c0,13,7.8,24.2,16,29.8c0,0,0,0,0.4,0.4c0.7,0.7,0.4,6,0.4,10
				c0,3-13,6.3-13,6.3c-14.5,4.8-26.4,13.4-26.4,27.9c0,1.5,1.1,4.1,2.6,4.1h48.4h48.4c1.5,0,2.6-2.6,2.6-4.1
				C586.2,589.7,574.3,581.1,559.8,576.3z"/>
			<path class="st6" d="M503.2,572.2c5.2-1.5,8.6-3.3,9.3-4.5c0-0.7,0-1.5,0-2.2c0-1.9,0-4.8,0-6c-7.4-5.2-13.8-15.6-13.8-29.8
				c0-13.8,4.8-28.3,14.5-34.2c-4.1-7.8-9.3-11.5-17.1-11.5H495c-12.6,0-23.4,14.5-23.4,30.5c0,11.2,6.7,21.2,13.8,25.7
				c0,0,0,0,0.4,0c0.7,0.7,0.4,5.2,0.4,8.6c0,2.6-11.2,5.6-11.2,5.6c-12.6,4.1-23.1,11.5-23.1,24.2c0,1.1,1.1,3.3,2.2,3.3H485
				C489.1,578.5,495.4,574.8,503.2,572.2z"/>
			<path class="st6" d="M597.3,555.1c0,0-11.2-3.3-11.2-5.6c0-3.3-0.4-8.2,0.4-8.9c0,0,0,0,0.4,0c7.1-4.8,13.8-14.5,13.8-25.7
				c0-16-10.8-30.5-23.4-30.5h-1.1c-8.2,0-13.4,3.7-17.5,11.9c8.9,6,13.4,20.1,13.4,33.5c0,14.1-6.7,24.9-13.8,29.8c0,1.1,0,4.1,0,6
				c0,0.7,0,1.5,0,2.2c1.1,1.1,4.8,3.3,9.3,4.5c8.2,2.6,14.5,6.3,18.6,10.4h32.4c1.1,0,2.2-2.2,2.2-3.3
				C620.4,566.6,610,559.2,597.3,555.1z"/>
		</g>
	</g>
	<g class="st1">
		<g>
			<circle class="st6" cx="535.9" cy="248.5" r="148.8"/>
		</g>
		<g>
			<path class="st4" d="M559.8,278.7c0,0-13-4.1-13-6.3c0-4.1-0.4-9.3,0.4-10c0,0,0,0,0.4-0.4c8.2-5.6,16-16.7,16-29.8
				c0-18.6-12.3-35.3-27.2-35.3h-1.5c-14.9,0-27.2,16.7-27.2,35.3c0,13,7.8,24.2,16,29.8c0,0,0,0,0.4,0.4c0.7,0.7,0.4,6,0.4,10
				c0,3-13,6.3-13,6.3c-14.5,4.8-26.4,13.4-26.4,27.9c0,1.5,1.1,4.1,2.6,4.1h48.4h48.4c1.5,0,2.6-2.6,2.6-4.1
				C586.2,292,574.3,283.5,559.8,278.7z"/>
			<path class="st4" d="M503.2,274.6c5.2-1.5,8.6-3.3,9.3-4.5c0-0.7,0-1.5,0-2.2c0-1.9,0-4.8,0-6c-7.4-5.2-13.8-15.6-13.8-29.8
				c0-13.8,4.8-28.3,14.5-34.2c-4.1-7.8-9.3-11.5-17.1-11.5H495c-12.6,0-23.4,14.5-23.4,30.5c0,11.2,6.7,21.2,13.8,25.7
				c0,0,0,0,0.4,0c0.7,0.7,0.4,5.2,0.4,8.6c0,2.6-11.2,5.6-11.2,5.6c-12.6,4.1-23.1,11.5-23.1,24.2c0,1.1,1.1,3.3,2.2,3.3H485
				C489.1,280.9,495.4,277.2,503.2,274.6z"/>
			<path class="st4" d="M597.3,257.4c0,0-11.2-3.3-11.2-5.6c0-3.3-0.4-8.2,0.4-8.9c0,0,0,0,0.4,0c7.1-4.8,13.8-14.5,13.8-25.7
				c0-16-10.8-30.5-23.4-30.5h-1.1c-8.2,0-13.4,3.7-17.5,11.9c8.9,6,13.4,20.1,13.4,33.5c0,14.1-6.7,24.9-13.8,29.8c0,1.1,0,4.1,0,6
				c0,0.7,0,1.5,0,2.2c1.1,1.1,4.8,3.3,9.3,4.5c8.2,2.6,14.5,6.3,18.6,10.4h32.4c1.1,0,2.2-2.2,2.2-3.3
				C620.4,269,610,261.5,597.3,257.4z"/>
		</g>
	</g>
</g>
<g id="Layer_7" class="st0">
	<g class="st1">
		<g>
			<path class="st5" d="M535.9,408.5c75.9,0,137.7,61.8,137.7,137.7s-61.8,137.7-137.7,137.7s-137.7-61.8-137.7-137.7
				S460,408.5,535.9,408.5 M535.9,397.3c-82.2,0-148.8,66.6-148.8,148.8s66.6,148.8,148.8,148.8s148.8-66.6,148.8-148.8
				S618.2,397.3,535.9,397.3L535.9,397.3z"/>
		</g>
		<g>
			<g>
				<path class="st6" d="M521.1,529.4c-4.5-1.5-23.1-7.4-32.4-10.8c-4.8,12.3-29.4,77.8-20.8,88.9c9.3,12.3,43.2-2.2,53.2,0
					c9.7,2.2,8.6-4.8,8.6-4.8L521.1,529.4z"/>
				<path class="st6" d="M546,492.6c-2.6-3.3-17.1-2.6-17.1-2.6s-3.7-8.2-6-9.3c-3-1.9-10.8-1.5-10.8-1.5s0.7-11.5-3-12.3
					c-6.7-1.5-15.6,34.2-18.6,46.5c7.4,3,22,8.6,29.8,10v-0.7c0,0,0.4-6,4.1-7.1c2.6-1.1,15.6-3.7,19.3-7.1
					C546.4,504.9,548.2,495.9,546,492.6z"/>
			</g>
			<g>
				<path class="st6" d="M549,550.6c6-1.9,14.9-4.8,22.3-9.7c-0.4-3.7,1.1-8.2,1.5-10.8c0.7-4.1-0.4-6.7-2.6-12.6
					c-0.4-1.1-2.2-13-6-13.4c-3.7-0.4-8.2,11.6-8.2,11.6s-10.4,0-11.5,4.5c-1.5,5.6-7.1,8.6-7.4,9.3c-0.7,3,0.7,11.5,5.6,13
					C545.6,543.2,547.9,547.3,549,550.6z"/>
				<path class="st6" d="M573.9,546.5c-0.4-0.4-0.7-1.1-1.1-1.5c-4.1,2.2-16,8.6-22.7,10.4c2.6,13,1.1,45.4,1.1,46.9
					c0,2.2-1.1,3.3-0.4,4.8c1.5,2.6,4.5,2.6,8.2,2.2c3.3-0.7,29.8,6.7,46.1-0.4C625.6,597.1,591.8,553.6,573.9,546.5z"/>
			</g>
			<path class="st6" d="M467.1,603.8C453,593,453,568.1,449.2,575.5c-3.3,7.1,0,23.8,6.3,31.3c5.6,6.7,17.5,6.3,18.2,2.2"/>
			<path class="st6" d="M611.5,595.3c5.6,3.3,15.6-11.2,7.1-16.4c-5.2-3-6-4.1-7.4-6.7c-3.7-6,1.1-22.3,10-24.2
				c6.7-1.5,7.1,4.5,3.3,6.7c-8.6,5.2-9.3,13.8-3.3,18.2c3.3,2.2,5.6,4.1,7.1,9.3c2.2,7.4-4.1,19.3-16,23.1c0,0-6.7,1.5-7.8-1.1"/>
		</g>
	</g>
	<g class="st1">
		<g>
			<circle class="st6" cx="535.9" cy="248.5" r="148.8"/>
		</g>
		<g>
			<g>
				<path class="st4" d="M521.1,231.8c-4.5-1.5-23.1-7.4-32.4-10.8c-4.8,12.3-29.4,77.8-20.8,88.9c9.3,12.3,43.2-2.2,53.2,0
					c9.7,2.2,8.6-4.8,8.6-4.8L521.1,231.8z"/>
				<path class="st4" d="M546,194.9c-2.6-3.3-17.5-2.6-17.5-2.6s-3.7-8.2-6-9.3c-3-1.9-10.8-1.5-10.8-1.5s0.7-11.5-3-12.3
					c-6.7-1.5-15.6,34.2-18.6,46.5c7.4,3,22,8.6,29.8,10V225c0,0,0.4-6,4.1-7.1c2.6-1.1,15.6-3.7,19.3-7.1
					C546.4,207.2,548.2,198.3,546,194.9z"/>
			</g>
			<g>
				<path class="st4" d="M549,253c6-1.9,14.9-4.8,22.3-9.7c-0.4-3.7,1.1-8.2,1.5-10.8c0.7-4.1-0.4-6.7-2.6-12.6
					c-0.4-1.1-2.2-13-6-13.4c-3.7-0.4-8.2,11.5-8.2,11.5s-10.4,0-11.5,4.5c-1.5,5.6-7.1,8.6-7.4,9.3c-0.7,3,0.7,11.5,5.6,13
					C545.6,245.5,547.9,249.6,549,253z"/>
				<path class="st4" d="M573.9,248.9c-0.4-0.4-0.7-1.1-1.1-1.5c-4.1,2.2-16,8.6-22.7,10.4c2.6,13,1.1,45.4,1.1,46.9
					c0,2.2-1.1,3.3-0.4,4.8c1.5,2.6,4.5,2.6,8.2,2.2c3.3-0.7,29.8,6.7,46.1-0.4C625.6,299.5,591.8,256,573.9,248.9z"/>
			</g>
			<path class="st4" d="M467.1,306.2c-14.1-10.8-14.1-35.7-17.9-28.3c-3.3,7.1,0,23.8,6.3,31.3c5.6,6.7,17.5,6.3,18.2,2.2"/>
			<path class="st4" d="M611.5,297.6c5.6,3.3,15.6-11.2,7.1-16.4c-5.2-3-6-4.1-7.4-6.7c-3.7-6,1.1-22.3,10-24.2
				c6.7-1.5,7.1,4.5,3.3,6.7c-8.6,5.2-9.3,13.8-3.3,18.2c3.3,2.2,5.6,4.1,7.1,9.3c2.2,7.4-4.1,19.3-16,23.1c0,0-6.7,1.5-7.8-1.1"/>
		</g>
	</g>
</g>
<g id="Layer_8" class="st0">
	<g class="st1">
		<g>
			<path class="st8" d="M535.9,408.5c75.9,0,137.7,61.8,137.7,137.7s-61.8,137.7-137.7,137.7s-137.7-61.8-137.7-137.7
				S460,408.5,535.9,408.5 M535.9,397.3c-82.2,0-148.8,66.6-148.8,148.8s66.6,148.8,148.8,148.8s148.8-66.6,148.8-148.8
				S618.2,397.3,535.9,397.3L535.9,397.3z"/>
		</g>
		<g>
			<g>
				<path class="st9" d="M613,522.3c-0.7-1.1-1.9-1.5-3.3-1.5H594c-3.7-10-8.9-20.1-14.5-23.8c-19.7-13-72.2-13-92.3,0
					c-5.6,3.7-10.8,13.8-14.5,23.8h-15.6c-1.1,0-2.2,0.7-3.3,1.5c-0.7,1.1-1.1,2.2-0.7,3.3l2.2,11.2c0.4,1.9,2.2,3.3,4.1,3.3h4.5
					c-4.5,5.2-6.7,11.5-6.7,18.2c0,8.2,3,15.3,8.6,20.5l0,0v15.6c0,3.3,2.6,6.3,6.3,6.3h14.5c3.3,0,6.3-2.6,6.3-6.3v-6.3h80.7v6.3
					c0,3.3,2.6,6.3,6.3,6.3h14.5c3.3,0,6.3-2.6,6.3-6.3v-15.3c6-5.6,8.9-13,8.9-20.5c0-6.7-2.2-13.4-7.1-18.6h4.8
					c1.9,0,3.7-1.5,4.1-3.3l2.2-11.2C613.7,524.6,613.7,523.1,613,522.3L613,522.3z M493.9,507.1c15.6-10.4,62.9-10.4,78.5,0
					c3,1.9,7.1,10,10.8,20.1h-99.7C486.8,517.1,490.9,509.3,493.9,507.1L493.9,507.1z M475.7,559.9c0-6.7,5.6-12.3,12.3-12.3
					s12.3,5.6,12.3,12.3c0,6.7-5.6,12.3-12.3,12.3C480.9,572.2,475.7,566.6,475.7,559.9L475.7,559.9z M579.1,572.2
					c-6.7,0-12.3-5.6-12.3-12.3c0-6.7,5.6-12.3,12.3-12.3c6.7,0,12.3,5.6,12.3,12.3C591,566.6,585.8,572.2,579.1,572.2L579.1,572.2z
					"/>
			</g>
		</g>
	</g>
	<g class="st1">
		<g>
			<circle class="st9" cx="535.9" cy="248.5" r="148.8"/>
		</g>
		<g>
			<g>
				<path class="st4" d="M615.6,224.7c-0.7-1.1-1.9-1.5-3.3-1.5h-15.6c-3.7-10-8.9-20.1-14.5-23.8c-19.7-13-72.2-13-92.3,0
					c-5.6,3.7-10.8,13.8-14.5,23.8h-15.6c-1.1,0-2.2,0.7-3.3,1.5c-0.7,1.1-1.1,2.2-0.7,3.3l2.2,11.2c0.4,1.9,2.2,3.3,4.1,3.3h4.5
					c-4.5,5.2-6.7,11.5-6.7,18.2c0,8.2,3,15.3,8.6,20.5l0,0v15.6c0,3.3,2.6,6.3,6.3,6.3h14.5c3.3,0,6.3-2.6,6.3-6.3v-6.3h80.7v6.3
					c0,3.3,2.6,6.3,6.3,6.3H597c3.3,0,6.3-2.6,6.3-6.3v-15.3c6-5.6,8.9-13,8.9-20.5c0-6.7-2.2-13.4-7.1-18.6h4.8
					c1.9,0,3.7-1.5,4.1-3.3l2.2-11.2C616.7,226.9,616.3,225.5,615.6,224.7L615.6,224.7z M496.9,209.5c15.6-10.4,62.9-10.4,78.5,0
					c3,1.9,7.1,10,10.8,20.1H486.1C489.8,219.5,493.5,211.7,496.9,209.5L496.9,209.5z M478.3,262.3c0-6.7,5.6-12.3,12.3-12.3
					s12.3,5.6,12.3,12.3c0,6.7-5.6,12.3-12.3,12.3C483.5,274.6,478.3,269,478.3,262.3L478.3,262.3z M581.7,274.6
					c-6.7,0-12.3-5.6-12.3-12.3c0-6.7,5.6-12.3,12.3-12.3s12.3,5.6,12.3,12.3C594,269,588.4,274.6,581.7,274.6L581.7,274.6z"/>
			</g>
		</g>
	</g>
</g>
<g id="Layer_9" class="st0">
	<g class="st1">
		<g>
			<path class="st8" d="M535.9,408.5c75.9,0,137.7,61.8,137.7,137.7s-61.8,137.7-137.7,137.7s-137.7-61.8-137.7-137.7
				S460,408.5,535.9,408.5 M535.9,397.3c-82.2,0-148.8,66.6-148.8,148.8s66.6,148.8,148.8,148.8s148.8-66.6,148.8-148.8
				S618.2,397.3,535.9,397.3L535.9,397.3z"/>
		</g>
		<g>
			<g>
				<path class="st9" d="M598.8,504.5c-1.1-12.3-3.3-21.6-6.3-25.3c-13-15.3-103.8-16.4-113.8,0c-2.6,4.1-4.5,13.4-5.6,25.3
					c-3.7,0.4-6.7,3.7-6.7,7.4v14.9c0,3.3,2.2,6,5.2,7.1c-0.7,23.4,0,48,0.7,60.3c0,9.3,6.3,7.8,6.3,7.8h6v10c0,4.1,4.1,7.4,9.3,7.4
					c5.2,0,9.3-3.3,9.3-7.4v-10H572v10c0,4.1,4.1,7.4,9.3,7.4s9.3-3.3,9.3-7.4v-10h1.9c0,0,7.4,1.1,7.8-3.3c0-12.3,0.7-39.1,0-64.7
					c3-1.1,5.6-3.7,5.6-7.4v-14.9C605.9,508.2,602.5,504.9,598.8,504.5L598.8,504.5z M500.6,481.4h69.6v10.4h-69.6V481.4z
					 M501.3,590.4c-5.6,0-10-4.5-10-10s4.5-10,10-10s10,4.5,10,10S506.9,590.4,501.3,590.4L501.3,590.4z M569.8,590.4
					c-5.6,0-10-4.5-10-10s4.5-10,10-10s10,4.5,10,10S575.4,590.4,569.8,590.4L569.8,590.4z M582.5,547.3h-94.1v-49.5h94.1V547.3z"/>
			</g>
		</g>
	</g>
	<g class="st1">
		<g>
			<circle class="st9" cx="535.9" cy="248.5" r="148.8"/>
		</g>
		<g>
			<g>
				<path class="st4" d="M598.8,206.9c-1.5-11.9-3.3-21.6-6.3-25.3c-13-15.3-103.8-16.4-113.8,0c-2.6,4.1-4.5,13.4-5.6,25.3
					c-3.7,0.4-6.7,3.7-6.7,7.4v14.9c0,3.3,2.2,6,5.2,7.1c-0.7,23.4,0,48,0.7,60.3c0,9.3,6.3,7.8,6.3,7.8h6v10c0,4.1,4.1,7.4,9.3,7.4
					c5.2,0,9.3-3.3,9.3-7.4v-10H572v10c0,4.1,4.1,7.4,9.3,7.4s9.3-3.3,9.3-7.4v-10h1.9c0,0,7.4,1.1,7.8-3.3c0-12.3,0.7-39.1,0-64.7
					c3-1.1,5.6-3.7,5.6-7.4v-14.9C605.9,210.6,602.5,207.2,598.8,206.9L598.8,206.9z M500.6,183.8h69.6v10.4h-69.6V183.8z
					 M501.3,292.8c-5.6,0-10-4.5-10-10s4.5-10,10-10s10,4.5,10,10S506.9,292.8,501.3,292.8L501.3,292.8z M569.8,292.8
					c-5.6,0-10-4.5-10-10s4.5-10,10-10s10,4.5,10,10S575.4,292.8,569.8,292.8L569.8,292.8z M582.5,249.6h-94.1v-49.5h94.1V249.6z"/>
			</g>
		</g>
	</g>
</g>
<g id="Layer_10" class="st0">
	<g class="st1">
		<g>
			<circle class="st9" cx="535.9" cy="248.5" r="148.8"/>
		</g>
		<g>
			<path class="st4" d="M560.1,177.5c0,8.6-7.1,15.6-15.6,15.6c-8.6,0-15.6-7.1-15.6-15.6c0-8.6,7.1-15.6,15.6-15.6
				C553.1,161.8,560.1,168.9,560.1,177.5L560.1,177.5z"/>
			<path class="st4" d="M581.3,245.2c-3-1.5-23.4-11.5-23.4-11.5s-7.1-15.6-10.8-23.8c-3.3-7.8-6-10-11.2-10h-7.8
				c-4.1,0-5.6,1.5-7.8,3l-20.8,17.9c-1.9,1.1-3,2.6-3.7,4.8l-4.5,30.1c-0.7,4.8,1.9,6.7,4.8,7.4c2.2,0.4,6-0.7,6.7-4.1
				c0.4-2.6,4.8-27.5,4.8-27.5l13.8-10.4c-2.2,10.4-4.5,22-5.2,25.7c-1.1,6.7,1.9,11.5,4.5,15.6c2.2,3.7,33.1,52.1,37.2,57.3
				c4.1,5.2,7.8,7.8,13.4,4.8c4.8-2.6,4.1-8.6,1.5-13c-3.3-4.8-34.2-55.4-34.2-55.4l5.2-22.7c0,0,3.7,5.2,5.6,8.2
				c0.7,1.5,1.9,1.9,4.1,3.3c3,1.5,16.7,7.8,21.2,9.7c3.7,1.5,8.6,2.2,10.4-1.1C586.5,250.4,584.3,246.3,581.3,245.2L581.3,245.2z"
				/>
			<path class="st4" d="M512.5,265.6l-6.3,22.3c0,0-13,19-16.7,24.2c-2.6,4.1-4.8,8.9,0,12.3c5.2,4.1,9.7-1.1,12.3-4.5
				c2.6-3,12.6-17.1,15.6-20.8c1.9-2.6,3-4.5,3.7-6.7c0.4-1.5,2.6-7.1,4.1-10.8L512.5,265.6z"/>
		</g>
	</g>
	<g class="st1">
		<g>
			<path class="st8" d="M535.9,408.5c75.9,0,137.7,61.8,137.7,137.7s-61.8,137.7-137.7,137.7s-137.7-61.8-137.7-137.7
				S460,408.5,535.9,408.5 M535.9,397.3c-82.2,0-148.8,66.6-148.8,148.8s66.6,148.8,148.8,148.8s148.8-66.6,148.8-148.8
				S618.2,397.3,535.9,397.3L535.9,397.3z"/>
		</g>
		<g>
			<path class="st9" d="M560.1,475.1c0,8.6-7.1,15.6-15.6,15.6c-8.6,0-15.6-7.1-15.6-15.6s7.1-15.6,15.6-15.6
				C553.1,459.5,560.1,466.5,560.1,475.1L560.1,475.1z"/>
			<path class="st9" d="M581.3,542.8c-3-1.5-23.4-11.5-23.4-11.5s-7.1-15.3-10.8-23.8c-3.3-7.8-6-10-11.2-10h-7.8
				c-4.1,0-5.6,1.5-7.8,3l-20.8,17.9c-1.9,1.1-3,2.6-3.7,4.8l-4.5,30.1c-0.7,4.8,1.9,6.7,4.8,7.4c2.2,0.4,6-0.7,6.7-4.1
				c0.4-2.6,4.8-27.5,4.8-27.5l13.8-10.4c-2.2,10.4-4.5,22-5.2,25.7c-1.1,6.7,1.9,11.5,4.5,15.6c2.2,3.7,33.1,52.1,37.2,57.3
				c4.1,5.2,7.8,7.8,13.4,4.8c4.8-2.6,4.1-8.6,1.5-13S538.9,554,538.9,554l5.2-22.7c0,0,3.7,5.2,5.6,8.2c0.7,1.5,1.9,1.9,4.1,3.3
				c3,1.5,16.7,7.8,21.2,9.7c3.7,1.5,8.6,2.2,10.4-1.1C586.5,548,584.3,543.9,581.3,542.8L581.3,542.8z"/>
			<path class="st9" d="M512.5,563.3l-6.3,22.3c0,0-13,19-16.7,24.2c-2.6,4.1-4.8,8.9,0,12.3c5.2,4.1,9.7-1.1,12.3-4.5
				c2.6-3,12.6-17.1,15.6-20.8c1.9-2.6,3-4.5,3.7-6.7c0.4-1.5,2.6-7.1,4.1-10.8L512.5,563.3z"/>
		</g>
	</g>
</g>
<g id="Layer_11" class="st0">
	<g class="st1">
		<g>
			<circle class="st10" cx="535.9" cy="248.5" r="148.8"/>
		</g>
		<g>
			<path class="st4" d="M530.4,282.4c0-27.9,20.5-51.3,46.9-55.8v-27.2c0-7.8-6.3-14.1-14.1-14.1h-17.5V182
				c0-9.7-7.8-17.5-17.5-17.5h-27.9c-9.7,0-17.5,7.8-17.5,17.5v3.3h-17.5c-7.8,0-14.1,6.3-14.1,14.1v77c0,7.8,6.3,14.1,14.1,14.1
				h65.5C530.7,287.6,530.4,285.4,530.4,282.4z M489.8,181.9c0-6,4.8-10.4,10.4-10.4h28.3c6,0,10.4,4.8,10.4,10.4v3.3h-49.1
				L489.8,181.9L489.8,181.9z M521.4,258.9h-14.1v-14.1h-14.1v-14.1h14.1v-14.1h14.1v14.1h14.1v14.1h-14.1V258.9z"/>
			<path class="st4" d="M587.3,237.4c-24.9,0-45,20.1-45,45c0,24.9,20.1,45,45,45s45-20.1,45-45
				C632.3,257.5,611.8,237.4,587.3,237.4z M587.3,317c-19,0-34.2-15.3-34.2-34.2s15.3-34.2,34.2-34.2s34.2,15.3,34.2,34.2
				S605.9,317,587.3,317z"/>
			<path class="st4" d="M578.7,296.1c-0.4-0.7-0.7-1.5-1.9-1.5h-3.7c-1.1,0-1.9,0.7-1.9,1.9v0.4c1.1,6.3,6.3,11.5,12.6,12.6v-7.4
				C581.7,301,579.5,298.7,578.7,296.1z"/>
			<path class="st4" d="M591,278.7v-11.2c0.7,0.7,1.5,1.5,1.9,2.6c0.4,0.7,0.7,1.1,1.5,1.1h3.7c1.1,0,1.9-0.7,1.9-1.9v-0.4
				c-1.1-4.8-4.8-8.2-8.9-9.7v-3.7c0-1.1-0.7-1.9-1.9-1.9s-1.9,0.7-1.9,1.9v0.4v51.3c0,1.1,0.7,1.9,1.9,1.9h0.4l0,0
				c7.4-1.1,13.4-7.8,13.4-15.6C602.9,286.5,598.1,280.5,591,278.7z M591,301.4v-15.3c2.6,1.5,4.5,4.1,4.5,7.4
				C595.8,297.3,594,300.2,591,301.4z"/>
			<path class="st4" d="M573.9,272c0,6.3,4.5,11.5,10.4,13v-7.8c-1.9-1.1-3-3-3-5.2c0-2.2,1.1-4.1,3-5.2V259
				C578.4,260.4,573.9,265.6,573.9,272z"/>
		</g>
	</g>
	<g class="st1">
		<g>
			<path class="st11" d="M535.9,408.5c75.9,0,137.7,61.8,137.7,137.7s-61.8,137.7-137.7,137.7s-137.7-61.8-137.7-137.7
				S460,408.5,535.9,408.5 M535.9,397.3c-82.2,0-148.8,66.6-148.8,148.8s66.6,148.8,148.8,148.8s148.8-66.6,148.8-148.8
				S618.2,397.3,535.9,397.3L535.9,397.3z"/>
		</g>
		<g>
			<path class="st10" d="M530.4,580c0-27.9,20.5-51.3,46.9-55.8V497c0-7.8-6.3-14.1-14.1-14.1h-17.5v-3.3c0-9.7-7.8-17.5-17.5-17.5
				h-27.9c-9.7,0-17.5,7.8-17.5,17.5v3.3h-17.5c-7.8,0-14.1,6.3-14.1,14.1v77c0,7.8,6.3,14.1,14.1,14.1h65.5
				C530.7,585.2,530.4,583,530.4,580z M489.8,479.6c0-6,4.8-10.4,10.4-10.4h28.3c6,0,10.4,4.8,10.4,10.4v3.3h-49.1L489.8,479.6
				L489.8,479.6z M521.4,556.6h-14.1v-14.1h-14.1v-14.1h14.1v-14.1h14.1v14.1h14.1v14.1h-14.1V556.6z"/>
			<path class="st10" d="M587.3,535c-24.9,0-45,20.1-45,45s20.1,45,45,45s45-20.1,45-45C631.9,555.5,611.8,535,587.3,535z
				 M587.3,614.6c-19,0-34.2-15.3-34.2-34.2c0-19,15.3-34.2,34.2-34.2s34.2,15.3,34.2,34.2C621.5,599,605.9,614.6,587.3,614.6z"/>
			<path class="st10" d="M578.7,593.8c-0.4-0.7-0.7-1.5-1.9-1.5h-3.7c-1.1,0-1.9,0.7-1.9,1.9v0.4c1.1,6.3,6.3,11.5,12.6,12.6v-7.5
				C581.7,598.6,579.5,596.4,578.7,593.8z"/>
			<path class="st10" d="M591,576.3v-11.2c0.7,0.7,1.5,1.5,1.9,2.6c0.4,0.7,0.7,1.1,1.5,1.1h3.7c1.1,0,1.9-0.7,1.9-1.9v-0.4
				c-1.1-4.8-4.8-8.2-8.9-9.7v-3.7c0-1.1-0.7-1.9-1.9-1.9s-1.9,0.7-1.9,1.9v0.4v51.3c0,1.1,0.7,1.9,1.9,1.9h0.4l0,0
				c7.4-1.1,13.4-7.8,13.4-15.6C602.9,584.1,598.1,578.2,591,576.3z M591,599v-15.3c2.6,1.5,4.5,4.1,4.5,7.4
				C595.8,594.9,594,597.9,591,599z"/>
			<path class="st10" d="M573.9,569.6c0,6.3,4.5,11.5,10.4,13v-7.8c-1.9-1.1-3-3-3-5.2c0-2.2,1.1-4.1,3-5.2v-7.8
				C578.4,558.1,573.9,563.3,573.9,569.6z"/>
		</g>
	</g>
</g>
<g id="Layer_12" class="st0">
	<g class="st1">
		<g>
			<path class="st11" d="M535.9,408.5c75.9,0,137.7,61.8,137.7,137.7s-61.8,137.7-137.7,137.7s-137.7-61.8-137.7-137.7
				S460,408.5,535.9,408.5 M535.9,397.3c-82.2,0-148.8,66.6-148.8,148.8s66.6,148.8,148.8,148.8s148.8-66.6,148.8-148.8
				S618.2,397.3,535.9,397.3L535.9,397.3z"/>
		</g>
		<g>
			<path class="st10" d="M578.7,500l-40.6-30.9c-0.4,0-0.4-0.4-0.7-0.4c0.4,0,0.4,0,0.4,0.4c-1.9-1.5-4.1-1.9-6.3-1.9
				c-2.2,0-4.5,0.7-6.3,1.9c0,0-0.4,0-0.4,0.4l-75.9,58c-2.2,1.9-3,5.2-1.1,7.8c1.9,2.2,5.2,3,7.8,1.1l74-56.2l0,0
				c0.7-0.4,1.5-0.7,2.2-0.7c0.7,0,1.5,0.4,2.2,0.7l0,0l28.3,21.6c4.1-0.7,8.6-1.5,12.6-1.5C576.1,500,577.6,500,578.7,500z"/>
			<path class="st10" d="M495,481.8c0-3.3-3-6.3-6.3-6.3h-12.3c-3.3,0-6.3,3-6.3,6.3V503l24.6-18.6v-2.6H495z"/>
			<path class="st10" d="M514,561L514,561c0-24.6,14.5-45.4,35-55.4l-14.9-11.2l0,0c-0.7-0.4-1.5-0.7-2.2-0.7
				c-0.7,0-1.5,0.4-2.2,0.7l0,0l-58,43.9c-1.1,0.7-1.9,2.2-1.9,3.7v52.1c0,8.9,7.4,16.4,16.4,16.4h28.3V561H514z"/>
			<path class="st10" d="M575,510.8c-27.5,0-50.2,22.7-50.2,50.2s22.7,50.2,50.2,50.2s50.2-22.3,50.2-50.2S602.9,510.8,575,510.8z
				 M575,599.4c-21.2,0-38.3-17.1-38.3-38.3s17.1-38.3,38.3-38.3s38.3,17.1,38.3,38.3S596.2,599.4,575,599.4z"/>
			<path class="st10" d="M565.7,575.9c-0.4-0.7-1.1-1.5-1.9-1.5h-4.1c-1.1,0-1.9,0.7-1.9,1.9v0.4c1.5,7.1,7.1,12.6,14.1,14.1v-8.2
				C569.1,581.5,566.8,579.3,565.7,575.9z"/>
			<path class="st10" d="M579.5,556.6v-12.3c0.7,0.7,1.5,1.9,1.9,3c0.4,0.7,1.1,1.5,1.9,1.5h4.5c1.1,0,1.9-0.7,1.9-1.9v-0.4
				c-1.5-5.2-5.2-9.3-10-10.8v-4.5c0-1.1-1.1-2.2-2.2-2.2c-1.1,0-2.2,1.1-2.2,2.2v0.7v57.3c0,1.1,1.1,2.2,2.2,2.2h0.4l0,0
				c8.6-1.1,14.9-8.6,14.9-17.5C592.9,565.5,587.3,558.8,579.5,556.6z M579.5,582.2v-16.7c3,1.5,5.2,4.8,5.2,8.6
				C584.7,577.4,582.5,580.8,579.5,582.2z"/>
			<path class="st10" d="M560.1,549.5c0,7.1,4.8,13,11.5,14.5v-8.6c-2.2-1.1-3.3-3.3-3.3-6c0-2.7,1.5-4.8,3.3-6v-8.6
				C565.3,536.5,560.1,542.4,560.1,549.5z"/>
		</g>
	</g>
	<g class="st1">
		<g>
			<circle class="st10" cx="535.9" cy="248.5" r="148.8"/>
		</g>
		<g>
			<path class="st4" d="M578.7,202.4l-40.6-30.9c-0.4,0-0.4-0.4-0.7-0.4c0.4,0,0.4,0,0.4,0.4c-1.9-1.5-4.1-1.9-6.3-1.9
				c-2.2,0-4.5,0.7-6.3,1.9c0,0-0.4,0-0.4,0.4l-75.9,58c-2.2,1.9-3,5.2-1.1,7.8c1.9,2.2,5.2,3,7.8,1.1l74-56.2l0,0
				c0.7-0.4,1.5-0.7,2.2-0.7c0.7,0,1.5,0.4,2.2,0.7l0,0l28.3,21.6c4.1-0.7,8.6-1.5,12.6-1.5C576.1,202.4,577.6,202.4,578.7,202.4z"
				/>
			<path class="st4" d="M495,184.2c0-3.3-3-6.3-6.3-6.3h-12.3c-3.3,0-6.3,3-6.3,6.3v21.2l24.6-18.6v-2.6H495z"/>
			<path class="st4" d="M514,263.4L514,263.4c0-24.6,14.5-45.4,35-55.4l-14.9-11.2l0,0c-0.7-0.4-1.5-0.7-2.2-0.7
				c-0.7,0-1.5,0.4-2.2,0.7l0,0l-58,43.9c-1.1,0.7-1.9,2.2-1.9,3.7v52.1c0,8.9,7.4,16.4,16.4,16.4h28.3v-49.5L514,263.4L514,263.4z"
				/>
			<path class="st4" d="M575,213.2c-27.5,0-50.2,22.7-50.2,50.2s22.7,50.2,50.2,50.2c27.9,0,50.2-22.7,50.2-50.2
				S602.9,213.2,575,213.2z M575,301.7c-21.2,0-38.3-17.1-38.3-38.3c0-21.2,17.1-38.3,38.3-38.3s38.3,17.1,38.3,38.3
				C613.3,284.6,596.2,301.7,575,301.7z"/>
			<path class="st4" d="M565.7,278.3c-0.4-0.7-1.1-1.5-1.9-1.5h-4.1c-1.1,0-1.9,0.7-1.9,1.9v0.4c1.5,7.1,7.1,12.6,14.1,14.1V285
				C569.1,283.9,566.8,281.6,565.7,278.3z"/>
			<path class="st4" d="M579.5,258.9v-12.2c0.7,0.7,1.5,1.9,1.9,3c0.4,0.7,1.1,1.5,1.9,1.5h4.5c1.1,0,1.9-0.7,1.9-1.9v-0.4
				c-1.5-5.2-5.2-9.3-10-10.8v-4.5c0-1.1-1.1-2.2-2.2-2.2c-1.1,0-2.2,1.1-2.2,2.2v0.7v57.4c0,1.1,1.1,2.2,2.2,2.2h0.4l0,0
				c8.6-1.1,14.9-8.6,14.9-17.5C592.9,267.9,587.3,261.2,579.5,258.9z M579.5,284.6v-16.7c3,1.5,5.2,4.8,5.2,8.6
				C584.7,279.8,582.5,283.1,579.5,284.6z"/>
			<path class="st4" d="M560.1,251.9c0,7.1,4.8,13,11.5,14.5v-8.6c-2.2-1.1-3.3-3.3-3.3-6c0-2.6,1.5-4.8,3.3-6v-8.6
				C565.3,238.8,560.1,244.8,560.1,251.9z"/>
		</g>
	</g>
</g>
<g id="Layer_13" class="st0">
	<g class="st1">
		<g>
			<circle class="st10" cx="535.9" cy="248.5" r="148.8"/>
		</g>
		<g>
			<path class="st4" d="M608.5,202.4c-0.7-3.7-4.8-20.1-19.3-20.1c-4.1,0-8.6,1.5-13.4,4.1c-2.6-6-8.9-17.1-19-17.1
				c-6.3,0-13,4.8-19.3,14.1c-0.7,1.1-0.7,2.2,0,3.3c0.7,1.1,1.9,1.5,3,1.5c0,0,0.7,0,1.5,0c4.1,0,10.4,0.7,14.1,6
				c-1.1,0-2.2-0.4-3.3-0.4c-7.4,0-20.1,4.1-23.1,30.5c0,1.1,0.4,2.6,1.5,3c1.1,0.7,2.6,0.4,3.3-0.4c3-2.6,11.9-9.7,18.2-9.7
				c1.9,0,4.1,0.4,5.2,4.1c-4.1,6-21.6,32.7-30.5,61c-4.8-18.6-14.5-31.3-17.9-35.7c1.1-1.5,2.2-2.2,4.5-2.2
				c5.6,0,13.8,5.2,16.7,7.1c0.4,0.4,1.5,0.7,1.9,0.7c1.5,0,3-1.5,3-3c0-0.4,0-0.7,0-1.1c-2.6-19.7-14.5-22.7-21.2-22.7
				c-0.4,0-0.7,0-1.1,0c3.3-2.6,8.6-3,11.2-3c0.7,0,1.5,0,1.5,0s0,0,0.4,0l0,0c1.5,0,3-1.5,3-3c0-1.1-0.4-1.9-1.1-2.2
				c-6-6.7-11.5-10.4-17.5-10.4c-8.9,0-14.5,8.2-17.1,12.6c-4.5-2.2-8.6-3-11.9-3c-11.5,0-16.7,10.4-17.9,16
				c-0.4,1.5,0.4,2.6,1.5,3.3s2.6,0.4,3.7-0.4c2.2-2.2,4.5-3.3,7.1-3.3c1.5,0,3.3,0.4,4.5,1.1c-4.5,3-7.4,7.1-8.2,11.5
				c-2.6,11.9,7.1,23.8,7.4,24.2c0.7,0.7,1.5,1.1,2.2,1.1l0,0c1.5,0,3-1.5,3-3c0-0.4,0-0.7,0-1.1c-0.7-4.8,0-8.6,2.2-11.2
				c2.2-2.6,6-3.3,7.4-3.3c5.6,4.8,11.9,20.1,16.7,40.9c-17.9,3-29,10.4-29,19c0,1.5,1.5,3,3,3h85.2l0,0c1.9,0,3-1.5,3-3
				c0-0.4,0-0.4,0-0.7c-0.4-7.8-10-14.5-25.3-17.5c10-35,20.1-59.5,26.8-66.6c1.5,0,4.8,0.7,7.4,3.7c3.3,3.7,4.5,9.7,3.3,17.9
				c0,1.5,0.7,2.6,1.9,3.3c1.1,0.4,2.6,0,3.7-1.1c0.4-0.7,11.5-17.1,7.8-32.4c-1.5-6-4.8-11.2-10-14.9c1.5-1.1,3.7-2.2,6.3-2.2
				c2.6,0,5.2,1.5,7.8,4.5c0.7,0.7,1.5,1.1,2.2,1.1l0,0c1.9,0,3-1.5,3-3C608.9,203.1,608.5,202.8,608.5,202.4z"/>
		</g>
	</g>
	<g class="st1">
		<g>
			<path class="st11" d="M535.9,408.5c75.9,0,137.7,61.8,137.7,137.7s-61.8,137.7-137.7,137.7s-137.7-61.8-137.7-137.7
				S460,408.5,535.9,408.5 M535.9,397.3c-82.2,0-148.8,66.6-148.8,148.8s66.6,148.8,148.8,148.8s148.8-66.6,148.8-148.8
				S618.2,397.3,535.9,397.3L535.9,397.3z"/>
		</g>
		<g>
			<path class="st10" d="M608.5,500c-0.7-3.7-4.8-20.1-19.3-20.1c-4.1,0-8.6,1.5-13.4,4.1c-2.6-6-8.9-17.1-19-17.1
				c-6.3,0-13,4.8-19.3,14.1c-0.7,1.1-0.7,2.2,0,3.3c0.7,1.1,1.9,1.5,3,1.5c0,0,0.7,0,1.5,0c4.1,0,10.4,0.7,14.1,6
				c-1.1,0-2.2-0.4-3.3-0.4c-7.4,0-20.1,4.1-23.1,30.5c0,1.1,0.4,2.6,1.5,3c1.1,0.7,2.6,0.4,3.3-0.4c3-2.6,11.9-9.7,18.2-9.7
				c1.9,0,4.1,0.4,5.2,4.1c-4.1,6-21.6,32.7-30.5,61c-4.8-18.6-14.5-31.3-17.9-35.7c1.1-1.5,2.2-2.2,4.5-2.2
				c5.6,0,13.8,5.2,16.7,7.1c0.4,0.4,1.5,0.7,1.9,0.7c1.5,0,3-1.5,3-3c0-0.4,0-0.7,0-1.1C533,526,521.1,523,514.4,523
				c-0.4,0-0.7,0-1.1,0c3.3-2.6,8.6-3,11.2-3c0.7,0,1.5,0,1.5,0s0,0,0.4,0l0,0c1.5,0,3-1.5,3-3c0-1.1-0.4-1.9-1.1-2.2
				c-6-6.7-11.5-10.4-17.5-10.4c-8.9,0-14.5,8.2-17.1,12.6c-4.5-2.2-8.6-3-11.9-3c-11.5,0-16.7,10.4-17.9,16
				c-0.4,1.5,0.4,2.6,1.5,3.3c1.1,0.7,2.6,0.4,3.7-0.4c2.2-2.2,4.5-3.3,7.1-3.3c1.5,0,3.3,0.4,4.5,1.1c-4.5,3-7.4,7.1-8.2,11.5
				c-2.6,11.9,7.1,23.8,7.4,24.2c0.7,0.7,1.5,1.1,2.2,1.1l0,0c1.5,0,3-1.5,3-3c0-0.4,0-0.7,0-1.1c-0.7-4.8,0-8.6,2.2-11.2
				c2.2-2.6,6-3.3,7.4-3.3c5.6,4.8,11.9,20.1,16.7,40.9c-17.9,3-29,10.4-29,19c0,1.5,1.5,3,3,3h85.2l0,0c1.9,0,3-1.5,3-3
				c0-0.4,0-0.4,0-0.7c-0.4-7.8-10-14.5-25.3-17.5c10-35,20.1-59.5,26.8-66.6c1.5,0,4.8,0.7,7.4,3.7c3.3,3.7,4.5,9.7,3.3,17.9
				c0,1.5,0.7,2.6,1.9,3.3c1.1,0.4,2.6,0,3.7-1.1c0.4-0.7,11.5-17.1,7.8-32.4c-1.5-6-4.8-11.2-10-14.9c1.5-1.1,3.7-2.2,6.3-2.2
				c2.6,0,5.2,1.5,7.8,4.5c0.7,0.7,1.5,1.1,2.2,1.1l0,0c1.9,0,3-1.5,3-3C608.9,500.8,608.5,500.4,608.5,500z"/>
		</g>
	</g>
</g>
<g id="Layer_14" class="st0">
	<g class="st1">
		<g>
			<circle class="st10" cx="535.9" cy="248.5" r="148.8"/>
		</g>
		<g>
			<path class="st4" d="M547.9,257.4v17.9c3.3-1.9,5.6-5.2,5.6-8.9C553.1,262.7,550.8,259.3,547.9,257.4z"/>
			<path class="st4" d="M611.1,241.5c-1.1-13.4-7.1-26.4-17.1-36.1c-5.2-4.8-10.8-8.6-17.1-11.5c-0.4-0.4-1.1-0.4-1.9-0.7
				c-0.4-0.4-1.1-0.4-1.5-0.7l0,0c-3.3-1.5-9.3-3-18.6-4.8c-12.3-2.2-21.6-1.5-26.8-0.7l0,0c-1.9,0.4-4.1,0.7-6,1.1
				c-11.5-6.7-24.9-7.1-33.1-6.3c-3.7,0.4-5.6,4.1-4.1,7.4l6.7,14.1c-7.8,6.7-13.8,14.9-17.1,23.8H466c-3,0-5.2,2.2-5.2,5.2v19
				c0,1.9,1.1,3.7,2.6,4.5l10.8,6c4.5,12.6,13.8,23.4,26.4,31.3v16.7c0,3.3,2.6,6,6,6h15.3c2.2,0,4.5-1.5,5.6-3.3l4.1-8.9
				c3.3,0.4,6.7,0.7,10,0.7c5.6,0,10.8-0.4,15.6-1.5v7.4c0,3.3,2.6,6,6,6h15.3c2.2,0,4.1-1.1,5.2-3c8.2-15.3,17.1-30.5,23.8-46.5
				C610.4,258.2,611.8,249.6,611.1,241.5z M502.1,236.2c-4.1,0-7.8-3.3-7.4-7.8c0-4.1,3.3-7.8,7.8-7.4c4.1,0,7.8,3.3,7.4,7.8
				C509.5,232.9,506.2,236.2,502.1,236.2z M539.7,284.6c-7.4-1.5-13.4-7.4-14.9-14.9v-0.4c0-1.1,0.7-2.2,2.2-2.2h4.5
				c1.1,0,1.9,0.7,1.9,1.5c0.7,3.3,3.3,6,6.3,7.1V284.6z M539.7,234.4c-2.2,1.1-3.7,3.7-3.7,6.3s1.5,4.8,3.7,6.3v8.9
				c-7.1-1.5-12.3-7.8-12.3-15.3c0-7.4,5.2-13.8,12.3-15.3V234.4z M546,285L546,285h-0.4c-1.5,0-2.2-1.1-2.2-2.2v-60.6v-0.7
				c0-1.1,1.1-2.2,2.2-2.2c1.1,0,2.2,1.1,2.2,2.2v4.5c5.2,1.5,9.3,6,10.4,11.5v0.4c0,1.1-0.7,2.2-2.2,2.2h-4.5
				c-0.7,0-1.5-0.4-1.9-1.5c-0.4-1.1-1.1-2.2-2.2-3v13c7.8,2.2,13.8,9.3,13.8,17.9C561.6,275.7,554.9,283.5,546,285z M572.4,208.3
				c-1.1,1.9-3.3,2.2-4.8,1.5c-13.4-6.7-28.6-5.6-35.3-4.5c-1.9,0.4-3.7-1.1-4.1-3l0,0c-0.4-2.2,1.1-4.5,3.3-4.8
				c0.7,0,1.5-0.4,2.6-0.4c0,0,0,0,0.4,0c18.6-0.4,27.2,1.9,30.9,3c2.2,0.7,4.1,1.5,6.3,2.6C572.8,203.9,573.5,206.1,572.4,208.3z"
				/>
		</g>
	</g>
	<g class="st1">
		<g>
			<path class="st11" d="M535.9,408.5c75.9,0,137.7,61.8,137.7,137.7s-61.8,137.7-137.7,137.7s-137.7-61.8-137.7-137.7
				S460,408.5,535.9,408.5 M535.9,397.3c-82.2,0-148.8,66.6-148.8,148.8s66.6,148.8,148.8,148.8s148.8-66.6,148.8-148.8
				S618.2,397.3,535.9,397.3L535.9,397.3z"/>
		</g>
		<g>
			<path class="st10" d="M547.9,555.1V573c3.3-1.9,5.6-5.2,5.6-8.9C553.1,560.3,550.8,556.9,547.9,555.1z"/>
			<path class="st10" d="M611.1,539.1C610,525.7,604,512.7,594,503c-5.2-4.8-10.8-8.6-17.1-11.5c-0.4-0.4-1.1-0.4-1.9-0.7
				c-0.4-0.4-1.1-0.4-1.5-0.7l0,0c-3.3-1.5-9.3-3-18.6-4.8c-12.3-2.2-21.6-1.5-26.8-0.7l0,0c-1.9,0.4-4.1,0.7-6,1.1
				c-11.5-6.7-24.9-7.1-33.1-6.3c-3.7,0.4-5.6,4.1-4.1,7.4l6.7,14.1c-7.8,6.7-13.8,14.9-17.1,23.8H466c-3,0-5.2,2.2-5.2,5.2v19
				c0,1.9,1.1,3.7,2.6,4.5l10.8,6c4.5,12.6,13.8,23.4,26.4,31.3v16.7c0,3.3,2.6,6,6,6h15.3c2.2,0,4.5-1.5,5.6-3.3l4.1-8.9
				c3.3,0.4,6.7,0.7,10,0.7c5.6,0,10.8-0.4,15.6-1.5v7.4c0,3.3,2.6,6,6,6h15.3c2.2,0,4.1-1.1,5.2-3c8.2-15.3,17.1-30.5,23.8-46.5
				C610.4,555.8,611.8,547.3,611.1,539.1z M502.1,533.9c-4.1,0-7.8-3.3-7.4-7.8c0-4.1,3.3-7.8,7.8-7.4c4.1,0,7.8,3.3,7.4,7.8
				C509.5,530.5,506.2,533.9,502.1,533.9z M539.7,582.2c-7.4-1.5-13.4-7.4-14.9-14.9v-0.4c0-1.1,0.7-2.2,2.2-2.2h4.5
				c1.1,0,1.9,0.7,1.9,1.5c0.7,3.3,3.3,6,6.3,7.1V582.2z M539.7,532c-2.2,1.1-3.7,3.7-3.7,6.3s1.5,4.8,3.7,6.3v8.9
				c-7.1-1.5-12.3-7.8-12.3-15.3c0-7.4,5.2-13.8,12.3-15.3V532z M546,582.6L546,582.6h-0.4c-1.5,0-2.2-1.1-2.2-2.2v-60.3v-0.7
				c0-1.1,1.1-2.2,2.2-2.2c1.1,0,2.2,1.1,2.2,2.2v4.5c5.2,1.5,9.3,6,10.4,11.5v0.4c0,1.1-0.7,2.2-2.2,2.2h-4.5
				c-0.7,0-1.5-0.4-1.9-1.5c-0.4-1.1-1.1-2.2-2.2-3v13c7.8,2.2,13.8,9.3,13.8,17.9C561.6,573.3,554.9,581.1,546,582.6z M572.4,506
				c-1.1,1.9-3.3,2.2-4.8,1.5c-13.4-6.7-28.6-5.6-35.3-4.5c-1.9,0.4-3.7-1.1-4.1-3l0,0c-0.4-2.2,1.1-4.5,3.3-4.8
				c0.7,0,1.5-0.4,2.6-0.4c0,0,0,0,0.4,0c18.6-0.4,27.2,1.9,30.9,3c2.2,0.7,4.1,1.5,6.3,2.6C572.8,501.5,573.5,503.7,572.4,506z"/>
		</g>
	</g>
</g>
<g id="Layer_15" class="st0">
	<g class="st1">
		<g>
			<path class="st11" d="M535.9,408.5c75.9,0,137.7,61.8,137.7,137.7s-61.8,137.7-137.7,137.7s-137.7-61.8-137.7-137.7
				S460,408.5,535.9,408.5 M535.9,397.3c-82.2,0-148.8,66.6-148.8,148.8s66.6,148.8,148.8,148.8s148.8-66.6,148.8-148.8
				S618.2,397.3,535.9,397.3L535.9,397.3z"/>
		</g>
		<g>
			<path class="st10" d="M588,514.2c-28.6,0-51.7,23.4-51.7,51.7s23.4,51.7,51.7,51.7c28.6,0,51.7-23.1,51.7-51.7
				C639.7,537.2,616.3,514.2,588,514.2z M588,605.7c-22,0-39.8-17.9-39.8-39.8c0-22,17.9-39.8,39.8-39.8s39.8,17.9,39.8,39.8
				C627.5,587.8,609.6,605.7,588,605.7z"/>
			<path class="st10" d="M578.4,581.5c-0.4-0.7-1.1-1.5-1.9-1.5H572c-1.1,0-1.9,0.7-1.9,1.9v0.4c1.5,7.4,7.4,13,14.5,14.5v-8.6
				C581.7,587.1,579.1,584.9,578.4,581.5z"/>
			<path class="st10" d="M592.5,561.4v-12.6c0.7,0.7,1.5,1.9,2.2,3c0.4,0.7,1.1,1.5,1.9,1.5h4.5c1.1,0,1.9-0.7,1.9-1.9V551
				c-1.5-5.6-5.6-9.7-10.4-11.2V535c0-1.1-1.1-2.2-2.2-2.2c-1.1,0-2.2,1.1-2.2,2.2v0.7v59.2c0,1.1,1.1,2.2,2.2,2.2h0.4l0,0
				c8.9-1.1,15.6-8.9,15.6-17.9C606.3,570.7,600.3,563.6,592.5,561.4z M592.5,587.8v-17.5c3,1.5,5.2,4.8,5.2,8.6
				C597.7,583,595.8,586.3,592.5,587.8z"/>
			<path class="st10" d="M572.8,554c0,7.4,5.2,13.4,11.9,14.9V560c-2.2-1.1-3.7-3.3-3.7-6s1.5-4.8,3.7-6v-8.9
				C577.6,540.6,572.8,546.5,572.8,554z"/>
		</g>
		<path class="st10" d="M536.3,602c-7.8,3.3-16.7,4.8-25.7,4.8c-37.9,0-68.8-30.9-68.8-68.8s30.9-68.5,68.8-68.5
			c26,0,48.7,14.5,60.3,35.7c3.3-0.7,6.7-1.5,10-1.9c-13-26-39.4-43.9-70.3-43.9c-43.5,0-78.5,35.3-78.5,78.5
			c0,43.5,35.3,78.5,78.5,78.5c11.5,0,22.3-2.6,32.4-7.1C540.8,607.5,538.5,604.9,536.3,602z"/>
		<path class="st10" d="M562.7,508.6c-10.4-17.9-29.7-30.2-51.7-30.2c-33.1,0-59.9,26.8-59.9,59.9c0,33.1,26.8,59.9,59.9,59.9
			c7.4,0,14.5-1.5,21.2-3.7c-4.5-8.6-6.7-18.2-6.7-28.3C525.2,540.2,540.4,518.3,562.7,508.6z M515.9,542.8c0,0.7,0,1.1-0.4,1.9
			c-0.4,0.4-0.4,1.1-0.7,1.5c0,0,0,0,0,0.4l-18.2,18.2c-1.9,1.9-5.2,1.9-7.1,0c-1.9-1.9-1.9-5.2,0-7.1l17.1-17.1v-43.9
			c0-2.6,2.2-4.8,4.8-4.8c2.6,0,4.8,2.2,4.8,4.8v46.1H515.9z"/>
	</g>
	<g class="st1">
		<g>
			<circle class="st10" cx="535.9" cy="248.5" r="148.8"/>
		</g>
		<g>
			<path class="st4" d="M588,216.5c-28.6,0-51.7,23.4-51.7,51.7s23.1,52.1,51.7,52.1s51.7-23.1,51.7-51.7
				C639.7,240,616.3,216.5,588,216.5z M588,308c-22,0-39.8-17.9-39.8-39.8s17.9-39.4,39.8-39.4s39.8,17.9,39.8,39.8
				C627.8,290.5,609.6,308,588,308z"/>
			<path class="st4" d="M578.4,283.9c-0.4-0.7-1.1-1.5-1.9-1.5H572c-1.1,0-1.9,0.7-1.9,1.9v0.4c1.5,7.4,7.4,13,14.5,14.5v-8.6
				C581.7,289.4,579.1,287.2,578.4,283.9z"/>
			<path class="st4" d="M592.5,263.8v-12.6c0.7,0.7,1.5,1.9,2.2,3c0.4,0.7,1.1,1.5,1.9,1.5h4.5c1.1,0,1.9-0.7,1.9-1.9v-0.4
				c-1.5-5.6-5.6-9.7-10.4-11.2v-4.8c0-1.1-1.1-2.2-2.2-2.2c-1.1,0-2.2,1.1-2.2,2.2v0.7v59.2c0,1.1,1.1,2.2,2.2,2.2h0.4l0,0
				c8.9-1.1,15.6-8.9,15.6-17.9C606.3,273.1,600.3,266,592.5,263.8z M592.5,290.2v-17.5c3,1.5,5.2,4.8,5.2,8.6
				C597.7,285.4,595.8,288.7,592.5,290.2z"/>
			<path class="st4" d="M572.8,256.3c0,7.4,5.2,13.4,11.9,14.9v-8.9c-2.2-1.1-3.7-3.3-3.7-6c0-2.6,1.5-4.8,3.7-6v-8.9
				C577.6,242.9,572.8,248.9,572.8,256.3z"/>
		</g>
		<path class="st4" d="M536.3,304.3c-7.8,3.3-16.7,4.8-25.7,4.8c-37.9,0-68.8-30.9-68.8-68.8s30.9-68.5,68.8-68.5
			c26,0,48.7,14.5,60.3,35.7c3.3-0.7,6.7-1.5,10-1.9c-13-26-39.4-43.9-70.3-43.9c-43.5,0-78.5,35.3-78.5,78.5
			c0,43.5,35.3,78.5,78.5,78.5c11.5,0,22.3-2.6,32.4-7.1C540.8,309.9,538.5,307.3,536.3,304.3z"/>
		<path class="st4" d="M562.7,210.9c-10.4-17.8-29.7-30.1-51.7-30.1c-33.1,0-59.9,26.8-59.9,59.9s26.8,59.9,59.9,59.9
			c7.4,0,14.5-1.5,21.2-3.7c-4.5-8.6-6.7-18.2-6.7-28.3C525.2,242.6,540.4,220.6,562.7,210.9z M515.9,245.2c0,0.7,0,1.1-0.4,1.9
			c-0.4,0.4-0.4,1.1-0.7,1.5c0,0,0,0,0,0.4l-18.2,18.2c-1.9,1.9-5.2,1.9-7.1,0c-1.9-1.9-1.9-5.2,0-7.1l17.1-17.1v-44
			c0-2.6,2.2-4.8,4.8-4.8c2.6,0,4.8,2.2,4.8,4.8v46.1h-0.3V245.2z"/>
	</g>
</g>
<g id="Layer_16" class="st0">
	<g class="st1">
		<g>
			<path class="st12" d="M535.9,408.5c75.9,0,137.7,61.8,137.7,137.7s-61.8,137.7-137.7,137.7s-137.7-61.8-137.7-137.7
				S460,408.5,535.9,408.5 M535.9,397.3c-82.2,0-148.8,66.6-148.8,148.8s66.6,148.8,148.8,148.8s148.8-66.6,148.8-148.8
				S618.2,397.3,535.9,397.3L535.9,397.3z"/>
		</g>
		<g>
			<path class="st13" d="M607.4,485.9h-106c-7.8,0-14.1,6.3-14.1,13.8v4.8h133.9v-4.8C621.5,491.8,615.2,485.9,607.4,485.9z"/>
			<path class="st13" d="M599.6,574.8h8.2c7.8,0,14.1-6,14.1-13.8v-32.7h-22L599.6,574.8z"/>
			<path class="st13" d="M578,511.2H464.9c-8.2,0-14.5,6.3-14.5,14.1v67c0,7.8,6.7,14.1,14.5,14.1H578c8.2,0,14.5-6.3,14.5-14.1v-67
				C592.9,517.5,586.2,511.2,578,511.2z M581.7,540.2c0,2.2-1.9,4.5-4.5,4.5H465.6c-2.6,0-4.5-1.9-4.5-4.5v-10.8
				c0-2.2,1.9-4.5,4.5-4.5h111.6c2.6,0,4.5,1.9,4.5,4.5V540.2z"/>
		</g>
	</g>
	<g class="st1">
		<g>
			<circle class="st13" cx="535.9" cy="248.5" r="148.8"/>
		</g>
		<g>
			<path class="st4" d="M607.4,188.2h-106c-7.8,0-14.1,6.3-14.1,13.8v4.8h133.9V202C621.5,194.2,615.2,188.2,607.4,188.2z"/>
			<path class="st4" d="M599.6,277.2h8.2c7.8,0,14.1-6,14.1-13.8v-32.7h-22L599.6,277.2z"/>
			<path class="st4" d="M578,213.5H464.9c-8.2,0-14.5,6.3-14.5,14.1v67c0,7.8,6.7,14.1,14.5,14.1H578c8.2,0,14.5-6.3,14.5-14.1v-67
				C592.9,219.9,586.2,213.5,578,213.5z M581.7,242.6c0,2.2-1.9,4.5-4.5,4.5H465.6c-2.6,0-4.5-1.9-4.5-4.5v-10.8
				c0-2.2,1.9-4.5,4.5-4.5h111.6c2.6,0,4.5,1.9,4.5,4.5V242.6z"/>
		</g>
	</g>
</g>
<g id="Layer_17" class="st0">
	<g class="st1">
		<g>
			<circle class="st13" cx="535.9" cy="248.5" r="148.8"/>
		</g>
		<path class="st4" d="M604.8,181.9H467.1c-4.8,0-8.9,4.1-8.9,8.9v90.8c0,5.2,4.1,8.9,8.9,8.9h138c4.8,0,8.9-4.1,8.9-8.9v-90.7
			C614.1,186,610,181.9,604.8,181.9z M602.2,272.3c0,0.4-0.4,0.7-0.7,0.7H470.8c-0.4,0-0.7-0.4-0.7-0.7v-81.4c0-0.4,0.4-0.7,0.7-0.7
			h130.6c0.4,0,0.7,0.4,0.7,0.7v81.4H602.2z"/>
		<path class="st4" d="M591.4,309.5h-36.1c0-0.4,0-0.7,0-0.7V304c0-3.3-2.6-6.3-6-6.3h-27.2c-3.3,0-6,2.6-6,6.3v4.8
			c0,0.4,0,0.7,0,0.7h-35c-1.1,0-3.7-0.4-5.2,1.9l-3.3,3.3c0,0,3.3,0,5.6,0h1.9h35c0,0,0,0,0.4,0H556c0,0,0,0,0.4,0h35h1.9
			c2.2,0,6,0,6,0l-3.7-3.7C594.4,310.3,592.5,309.5,591.4,309.5z"/>
	</g>
	<g class="st1">
		<g>
			<path class="st12" d="M535.9,408.5c75.9,0,137.7,61.8,137.7,137.7s-61.8,137.7-137.7,137.7s-137.7-61.8-137.7-137.7
				S460,408.5,535.9,408.5 M535.9,397.3c-82.2,0-148.8,66.6-148.8,148.8s66.6,148.8,148.8,148.8s148.8-66.6,148.8-148.8
				S618.2,397.3,535.9,397.3L535.9,397.3z"/>
		</g>
		<path class="st13" d="M604.8,479.6H467.1c-4.8,0-8.9,4.1-8.9,8.9v90.8c0,5.2,4.1,8.9,8.9,8.9h138c4.8,0,8.9-4.1,8.9-8.9v-90.8
			C614.1,483.7,610,479.6,604.8,479.6z M602.2,570c0,0.4-0.4,0.7-0.7,0.7H470.8c-0.4,0-0.7-0.4-0.7-0.7v-81.5c0-0.4,0.4-0.7,0.7-0.7
			h130.6c0.4,0,0.7,0.4,0.7,0.7V570H602.2z"/>
		<path class="st13" d="M591.4,607.2h-36.1c0-0.4,0-0.7,0-0.7v-4.8c0-3.3-2.6-6.3-6-6.3h-27.2c-3.3,0-6,2.6-6,6.3v4.8
			c0,0.4,0,0.7,0,0.7h-35c-1.1,0-3.7-0.4-5.2,1.9l-3.3,3.3c0,0,3.3,0,5.6,0h1.9h35c0,0,0,0,0.4,0H556c0,0,0,0,0.4,0h35h1.9
			c2.2,0,6,0,6,0l-3.7-3.7C594.4,607.9,592.5,607.2,591.4,607.2z"/>
	</g>
</g>
<g id="Layer_18" class="st0">
	<g class="st1">
		<g>
			<path class="st12" d="M535.9,408.5c75.9,0,137.7,61.8,137.7,137.7s-61.8,137.7-137.7,137.7s-137.7-61.8-137.7-137.7
				S460,408.5,535.9,408.5 M535.9,397.3c-82.2,0-148.8,66.6-148.8,148.8s66.6,148.8,148.8,148.8s148.8-66.6,148.8-148.8
				S618.2,397.3,535.9,397.3L535.9,397.3z"/>
		</g>
		<g>
			<g>
				<path class="st13" d="M613,522.3c-0.7-1.1-1.9-1.5-3.3-1.5H594c-3.7-10-8.9-20.1-14.5-23.8c-19.7-13-72.2-13-92.3,0
					c-5.6,3.7-10.8,13.8-14.5,23.8h-15.6c-1.1,0-2.2,0.7-3.3,1.5c-0.7,1.1-1.1,2.2-0.7,3.3l2.2,11.2c0.4,1.9,2.2,3.3,4.1,3.3h4.5
					c-4.5,5.2-6.7,11.5-6.7,18.2c0,8.2,3,15.3,8.6,20.5l0,0v15.6c0,3.3,2.6,6.3,6.3,6.3h14.5c3.3,0,6.3-2.6,6.3-6.3v-6.3h80.7v6.3
					c0,3.3,2.6,6.3,6.3,6.3h14.5c3.3,0,6.3-2.6,6.3-6.3v-15.3c6-5.6,8.9-13,8.9-20.5c0-6.7-2.2-13.4-7.1-18.6h4.8
					c1.9,0,3.7-1.5,4.1-3.3l2.2-11.2C613.7,524.6,613.7,523.1,613,522.3L613,522.3z M493.9,507.1c15.6-10.4,62.9-10.4,78.5,0
					c3,1.9,7.1,10,10.8,20.1h-99.7C486.8,517.1,490.9,509.3,493.9,507.1L493.9,507.1z M475.7,559.9c0-6.7,5.6-12.3,12.3-12.3
					s12.3,5.6,12.3,12.3c0,6.7-5.6,12.3-12.3,12.3C480.9,572.2,475.7,566.6,475.7,559.9L475.7,559.9z M579.1,572.2
					c-6.7,0-12.3-5.6-12.3-12.3c0-6.7,5.6-12.3,12.3-12.3c6.7,0,12.3,5.6,12.3,12.3C591,566.6,585.8,572.2,579.1,572.2L579.1,572.2z
					"/>
			</g>
		</g>
	</g>
	<g class="st1">
		<g>
			<circle class="st13" cx="535.9" cy="248.5" r="148.8"/>
		</g>
		<g>
			<g>
				<path class="st4" d="M615.6,224.7c-0.7-1.1-1.9-1.5-3.3-1.5h-15.6c-3.7-10-8.9-20.1-14.5-23.8c-19.7-13-72.2-13-92.3,0
					c-5.6,3.7-10.8,13.8-14.5,23.8h-15.6c-1.1,0-2.2,0.7-3.3,1.5c-0.7,1.1-1.1,2.2-0.7,3.3l2.2,11.2c0.4,1.9,2.2,3.3,4.1,3.3h4.5
					c-4.5,5.2-6.7,11.5-6.7,18.2c0,8.2,3,15.3,8.6,20.5l0,0v15.6c0,3.3,2.6,6.3,6.3,6.3h14.5c3.3,0,6.3-2.6,6.3-6.3v-6.3h80.7v6.3
					c0,3.3,2.6,6.3,6.3,6.3H597c3.3,0,6.3-2.6,6.3-6.3v-15.3c6-5.6,8.9-13,8.9-20.5c0-6.7-2.2-13.4-7.1-18.6h4.8
					c1.9,0,3.7-1.5,4.1-3.3l2.2-11.2C616.7,226.9,616.3,225.5,615.6,224.7L615.6,224.7z M496.9,209.5c15.6-10.4,62.9-10.4,78.5,0
					c3,1.9,7.1,10,10.8,20.1H486.1C489.8,219.5,493.5,211.7,496.9,209.5L496.9,209.5z M478.3,262.3c0-6.7,5.6-12.3,12.3-12.3
					s12.3,5.6,12.3,12.3c0,6.7-5.6,12.3-12.3,12.3C483.5,274.6,478.3,269,478.3,262.3L478.3,262.3z M581.7,274.6
					c-6.7,0-12.3-5.6-12.3-12.3c0-6.7,5.6-12.3,12.3-12.3s12.3,5.6,12.3,12.3C594,269,588.4,274.6,581.7,274.6L581.7,274.6z"/>
			</g>
		</g>
	</g>
</g>
<g id="Layer_20" class="st0">
	<g class="st1">
		<g>
			<path class="st12" d="M535.9,408.5c75.9,0,137.7,61.8,137.7,137.7s-61.8,137.7-137.7,137.7s-137.7-61.8-137.7-137.7
				S460,408.5,535.9,408.5 M535.9,397.3c-82.2,0-148.8,66.6-148.8,148.8s66.6,148.8,148.8,148.8s148.8-66.6,148.8-148.8
				S618.2,397.3,535.9,397.3L535.9,397.3z"/>
		</g>
		<g>
			<path class="st13" d="M597.7,583.4c0.7-0.7,2.2-2.2,2.6-3.7c0.4-3.7-3.3-5.6-6.3-5.6c-5.6-0.4-10.8,3-13.8,6
				c-4.5,4.1-9.3,5.6-15.6,6.3c-7.8,0.7-14.9,1.5-22-0.7c-1.1-0.4-3.3-1.5-5.6-2.2c-1.1-0.4-2.2-0.7-3-1.1c-0.8-0.4-1.1-0.4-1.9-0.7
				c2.2-0.4,6.3-0.7,9.7-0.4c4.5,0.4,17.9,0.4,23.1,1.5c2.2,0.4,4.1,0,5.6-1.1s2.6-2.2,3.3-3.7c1.5-3,2.2-4.5,0-7.4
				c-1.9-2.6-4.8-3.7-8.2-4.5c-3.3-1.1-7.1-1.5-10.4-2.2c-6.7-1.1-11.9-0.7-17.1-1.9c-1.9-0.4-4.8-2.2-9.3-4.1
				c-4.5-2.2-10-4.1-17.5-4.8c-1.9,0-3.7-0.4-5.6-0.4c-10.4,0-20.5,3-24.6,4.1c-6,1.5-21.6,0.4-22.7,0.4c-1.1,0.4-1.9,1.5-1.9,2.6
				v28.6c0,1.9,1.1,3.3,3,3.3s16.4,0,22,0c2.6,0.4,4.5,0.7,6.7,1.5c1.5,0.7,3.3,1.5,5.2,2.2c4.1,1.9,9.3,4.5,14.5,7.1
				c5.2,2.6,10.4,4.8,14.9,7.1c4.5,1.9,7.4,3.3,10.4,3.7c4.5,0.4,11.9-0.7,19.3-2.2c7.4-1.1,15.3-2.6,17.5-2.6
				c6-0.4,11.2-4.8,14.5-7.1c4.5-2.6,9.3-6,13.4-9.7c1.9-1.9,2.6-3.7,2.6-5.6C599.9,583.4,598.1,584.1,597.7,583.4z"/>
			<path class="st13" d="M558.3,527.6c0-3.7-2.2-6.7-4.8-8.2v16.3C556,534.3,558.3,531.3,558.3,527.6z"/>
			<path class="st13" d="M514,546.5c7.4,0.7,13,3,17.5,4.8c4.5,2.2,7.4,3.7,9.3,4.1c5.2,1.1,10,0.7,17.1,1.9
				c3.3,0.4,7.1,1.1,10.4,2.2c1.9,0.7,3.7,1.1,5.6,1.9c14.1-8.6,23.4-23.8,23.4-41.3c0-26.4-21.6-48-48-48s-48,21.6-48,48
				c0,9.7,2.6,18.6,7.4,26C510.3,546.2,512.1,546.5,514,546.5z M549,486.6v-0.4c0-1.1,1.1-2.2,2.2-2.2s2.2,1.1,2.2,2.2v4.1
				c4.8,1.5,8.6,5.6,9.7,10.4v0.4c0,1.1-0.7,1.9-1.9,1.9h-4.1c-0.7,0-1.5-0.4-1.9-1.1c-0.4-1.1-1.1-2.2-1.9-3v12.3
				c7.4,1.9,13,8.6,13,16.7c0,8.6-6.3,15.6-14.5,17.1l0,0h-0.4c-1.1,0-2.2-1.1-2.2-2.2v-56.2L549,486.6L549,486.6z M545.6,490v8.2
				c-1.9,1.1-3.3,3.3-3.3,5.6c0,2.6,1.5,4.5,3.3,5.6v8.6c-6.3-1.5-11.2-7.1-11.2-14.1C534.5,497,539.3,491.5,545.6,490z
				 M533.7,528.7h4.1c0.7,0,1.5,0.7,1.9,1.5c0.7,3,3,5.2,6,6.3v8.2c-6.7-1.5-12.3-6.7-13.8-13.8v-0.4
				C531.9,529.4,532.6,528.7,533.7,528.7z"/>
		</g>
	</g>
	<g class="st1">
		<g>
			<circle class="st13" cx="535.9" cy="248.5" r="148.8"/>
		</g>
		<g>
			<path class="st4" d="M597.7,285.7c0.7-0.7,2.2-2.2,2.6-3.7c0.4-3.7-3.3-5.6-6.3-5.6c-5.6-0.4-10.8,3-13.8,6
				c-4.5,4.1-9.3,5.6-15.6,6.3c-7.8,0.7-14.9,1.5-22-0.7c-1.1-0.4-3.3-1.5-5.6-2.2c-1.1-0.4-2.2-0.7-3-1.1c-0.7-0.4-1.1-0.4-1.9-0.7
				c2.2-0.4,6.3-0.7,9.7-0.4c4.5,0.4,17.9,0.4,23.1,1.5c2.2,0.4,4.1,0,5.6-1.1c1.5-1.1,2.6-2.2,3.3-3.7c1.5-3,2.2-4.5,0-7.4
				c-1.9-2.6-4.8-3.7-8.2-4.5c-3.3-1.1-7.1-1.5-10.4-2.2c-6.7-1.1-11.9-0.7-17.1-1.9c-1.9-0.4-4.8-2.2-9.3-4.1
				c-4.5-2.2-10-4.1-17.5-4.8c-1.9,0-3.7-0.4-5.6-0.4c-10.4,0-20.5,3-24.6,4.1c-6,1.5-21.6,0.4-22.7,0.4c-1.1,0.4-1.9,1.5-1.9,2.6
				v28.6c0,1.9,1.1,3.3,3,3.3s16.4,0,22,0c2.6,0.4,4.5,0.7,6.7,1.5c1.5,0.7,3.3,1.5,5.2,2.2c4.1,1.9,9.3,4.5,14.5,7.1
				c5.2,2.6,10.4,4.8,14.9,7.1c4.5,1.9,7.4,3.3,10.4,3.7c4.5,0.4,11.9-0.7,19.3-2.2c7.4-1.1,15.3-2.6,17.5-2.6
				c6-0.4,11.2-4.8,14.5-7.1c4.5-2.6,9.3-6,13.4-9.7c1.9-1.9,2.6-3.7,2.6-5.6C599.9,285.7,598.1,286.5,597.7,285.7z"/>
			<path class="st4" d="M558.3,229.9c0-3.7-2.2-6.7-4.8-8.2v16.4C556,236.6,558.3,233.6,558.3,229.9z"/>
			<path class="st4" d="M514,248.9c7.4,0.7,13,3,17.5,4.8c4.5,2.2,7.4,3.7,9.3,4.1c5.2,1.1,10,0.7,17.1,1.9
				c3.3,0.4,7.1,1.1,10.4,2.2c1.9,0.7,3.7,1.1,5.6,1.9c14.1-8.6,23.4-23.8,23.4-41.3c0-26.4-21.6-48-48-48s-48,21.6-48,48
				c0,9.7,2.6,18.6,7.4,26C510.3,248.5,512.1,248.9,514,248.9z M549,189v-0.4c0-1.1,1.1-2.2,2.2-2.2s2.2,1.1,2.2,2.2v4.1
				c4.8,1.5,8.6,5.6,9.7,10.4v0.4c0,1.1-0.7,1.9-1.9,1.9h-4.1c-0.7,0-1.5-0.4-1.9-1.1c-0.4-1.1-1.1-2.2-1.9-3v12.3
				c7.4,1.9,13,8.6,13,16.7c0,8.6-6.3,15.6-14.5,17.1l0,0h-0.4c-1.1,0-2.2-1.1-2.2-2.2V189H549z M545.6,192.3v8.2
				c-1.9,1.1-3.3,3.3-3.3,5.6c0,2.6,1.5,4.5,3.3,5.6v8.6c-6.3-1.5-11.2-7.1-11.2-14.1C534.5,199.4,539.3,193.8,545.6,192.3z
				 M533.7,231h4.1c0.7,0,1.5,0.7,1.9,1.5c0.7,3,3,5.2,6,6.3v8.2c-6.7-1.5-12.3-6.7-13.8-13.8v-0.4C531.9,231.8,532.6,231,533.7,231
				z"/>
		</g>
	</g>
</g>
<g id="Layer_21" class="st0">
	<g class="st1">
		<g>
			<path class="st12" d="M535.9,408.5c75.9,0,137.7,61.8,137.7,137.7s-61.8,137.7-137.7,137.7s-137.7-61.8-137.7-137.7
				S460,408.5,535.9,408.5 M535.9,397.3c-82.2,0-148.8,66.6-148.8,148.8s66.6,148.8,148.8,148.8s148.8-66.6,148.8-148.8
				S618.2,397.3,535.9,397.3L535.9,397.3z"/>
		</g>
		<g>
			<path class="st13" d="M524.8,520.9c-7.1,0-11.5,5.6-11.5,12.3l0,0c0,6.7,4.8,12.3,11.9,12.3c7.1,0,11.5-5.6,11.5-12.3l0,0
				C536.3,526.4,531.5,520.9,524.8,520.9z"/>
			<path class="st13" d="M599.9,564v-61c0-3.3-3-6.3-6.3-6.3h-115c-3.3,0-6.3,3-6.3,6.3v61c0,3.3,3,6.3,6.3,6.3h115
				C597,570.3,599.9,567.4,599.9,564z M498.7,550.6h-6V516h6V550.6z M543,533.1c0,9.7-7.4,17.9-18.2,17.9s-18.2-8.2-18.2-17.9l0,0
				c0-9.7,7.4-17.9,18.2-17.9S543,523.5,543,533.1L543,533.1z M579.5,535.7c0,10.4-6,15.6-14.9,15.6c-8.9,0-14.9-5.2-14.9-15.3
				v-20.1h6v19.8c0,6.3,3.3,10,8.9,10c5.6,0,8.6-3.3,8.6-9.7v-20.1h6v19.8H579.5z"/>
			<path class="st13" d="M590.6,478.8H481.3l0,0l0,0l0,0l0,0h-0.4l0,0c-14.1,0-25.7,11.5-25.7,25.7v57.7c0,14.1,11.2,25.3,24.9,25.7
				h0.4h57.3c2.6,0,4.5-1.9,4.5-4.5c0-2.6-2.2-4.5-4.5-4.5h-56.6c-9.3,0-16.4-7.4-16.4-16.4v-57.7c0-9.3,7.4-16.4,16.4-16.4H591
				c9.3,0,16.4,7.4,16.4,16.4v57.7c0,8.9-7.4,16.4-16.4,16.4h-22c-2.6,0-4.5,1.9-4.5,4.5v14.5c0,9.3-7.4,16.4-16.4,16.4h-42.8
				c-2.6,0-4.5,2.2-4.5,4.5c0,2.6,2.2,4.5,4.5,4.5h42.8c14.1,0,25.7-11.5,25.7-25.7v-10H591c14.1,0,25.7-11.5,25.7-25.7v-57.7
				C616.3,490.4,604.8,478.8,590.6,478.8z"/>
		</g>
	</g>
	<g class="st1">
		<g>
			<circle class="st13" cx="535.9" cy="248.5" r="148.8"/>
		</g>
		<g>
			<path class="st4" d="M524.8,223.2c-7.1,0-11.5,5.6-11.5,12.3l0,0c0,6.7,4.8,12.3,11.9,12.3c7.1,0,11.5-5.6,11.5-12.3l0,0
				C536.3,228.8,531.5,223.2,524.8,223.2z"/>
			<path class="st4" d="M599.9,266.4V205c0-3.3-3-6.3-6.3-6.3h-115c-3.3,0-6.3,3-6.3,6.3v61c0,3.3,3,6.3,6.3,6.3h115
				C597,272.7,599.9,269.7,599.9,266.4z M498.7,253h-6v-34.6h6V253z M543,235.5c0,9.7-7.4,17.9-18.2,17.9s-18.2-8.2-18.2-17.9l0,0
				c0-9.7,7.4-17.9,18.2-17.9S543,225.8,543,235.5L543,235.5z M579.5,238.1c0,10.4-6,15.6-14.9,15.6c-8.9,0-14.9-5.2-14.9-15.3
				v-20.1h6V238c0,6.3,3.3,10,8.9,10c5.6,0,8.6-3.3,8.6-9.7v-20.1h6v19.7h0.3V238.1z"/>
			<path class="st4" d="M590.6,181.2H481.3l0,0l0,0l0,0l0,0h-0.4l0,0c-14.1,0-25.7,11.5-25.7,25.7v57.7c0,14.1,11.2,25.3,24.9,25.7
				h0.4h57.3c2.6,0,4.5-1.9,4.5-4.5c0-2.6-2.2-4.5-4.5-4.5h-56.6c-9.3,0-16.4-7.4-16.4-16.4v-57.7c0-9.3,7.4-16.4,16.4-16.4H591
				c9.3,0,16.4,7.4,16.4,16.4v57.7c0,8.9-7.4,16.4-16.4,16.4h-22c-2.6,0-4.5,1.9-4.5,4.5v14.5c0,9.3-7.4,16.4-16.4,16.4h-42.8
				c-2.6,0-4.5,2.2-4.5,4.5c0,2.6,2.2,4.5,4.5,4.5h42.8c14.1,0,25.7-11.5,25.7-25.7v-10H591c14.1,0,25.7-11.5,25.7-25.7v-56.9
				C616.3,192.7,604.8,181.2,590.6,181.2z"/>
		</g>
	</g>
</g>
<g id="Layer_22" class="st0">
	<g class="st1">
		<g>
			<circle class="st13" cx="535.9" cy="248.5" r="148.8"/>
		</g>
		<g>
			<path class="st4" d="M616.7,271.2c0.7-0.7,2.6-2.6,3-3.7c0.4-4.1-3.7-6-7.4-6.3c-6.7-0.4-12.6,3.3-16,6.3
				c-5.2,4.5-10.8,6-18.2,6.7c-8.9,1.1-17.5,1.5-25.7-0.7c-1.1-0.4-4.1-1.5-6.7-2.6c-1.1-0.4-2.6-1.1-3.7-1.5
				c-0.7-0.4-1.5-0.4-2.2-0.7c2.6-0.4,7.4-1.1,11.5-0.4c5.2,0.4,20.5,0.7,27.2,1.5c2.6,0.4,4.8,0,6.7-1.1s3-2.6,4.1-4.1
				c1.9-3.3,2.6-4.8,0-8.2c-2.2-3-5.6-3.7-9.7-4.8c-3.7-1.1-8.2-1.9-11.9-2.2c-7.8-1.1-13.8-0.7-19.7-1.9c-2.2-0.4-6-2.2-10.8-4.5
				c-5.2-2.2-11.5-4.5-20.5-5.2c-2.2,0-4.5-0.4-6.7-0.4c-11.9,0-23.8,3-28.6,4.1c-7.1,1.5-25.3,0.4-26.4,0.7c-1.5,0.4-2.2,1.5-2.2,3
				v30.9c0,2.2,1.5,3.3,3.3,3.7c2.2,0,19.3,0,25.7,0c3,0.4,5.2,0.7,7.8,1.5c1.9,0.7,3.7,1.5,6.3,2.6c4.8,1.9,10.8,4.8,16.7,7.4
				c6,2.6,12.3,5.2,17.1,7.4c5.2,2.2,8.9,3.7,12.3,3.7c5.2,0.4,13.8-1.1,22.7-2.2s17.9-2.6,20.1-2.6c7.1-0.4,13-5.2,16.7-7.4
				c4.8-3,10.8-6.3,15.6-10.4c2.2-1.9,3-4.1,3-6C619.3,271.6,617.4,272,616.7,271.2z"/>
			<path class="st4" d="M581,247.8h23c2.6,0,4.5-1.9,4.5-4.1c0-2.2-2.2-4.1-4.5-4.1h-23c-2.6,0-4.5,1.9-4.5,4.1
				C576.5,245.9,578.7,247.8,581,247.8z"/>
			<path class="st4" d="M581,235.9h23c2.6,0,4.5-1.9,4.5-4.1s-2.2-4.1-4.5-4.1h-23c-2.6,0-4.5,1.9-4.5,4.1
				C576.5,234,578.7,235.9,581,235.9z"/>
			<path class="st4" d="M581,223.6h23c2.6,0,4.5-1.9,4.5-4.1s-2.2-4.1-4.5-4.1h-23c-2.6,0-4.5,1.9-4.5,4.1S578.7,223.6,581,223.6z"
				/>
			<path class="st4" d="M540.4,239.6h23.1c2.6,0,4.5-1.9,4.5-4.1c0-2.2-2.2-4.1-4.5-4.1h-23.1c-2.6,0-4.5,1.9-4.5,4.1
				S538.2,239.6,540.4,239.6z"/>
			<path class="st4" d="M540.4,227.7h23.1c2.6,0,4.5-1.9,4.5-4.1c0-2.2-2.2-4.1-4.5-4.1h-23.1c-2.6,0-4.5,1.9-4.5,4.1
				C535.9,225.8,538.2,227.7,540.4,227.7z"/>
			<path class="st4" d="M581,211.3h23c2.6,0,4.5-1.9,4.5-4.1s-2.2-4.1-4.5-4.1h-23c-2.6,0-4.5,1.9-4.5,4.1
				C576.5,209.5,578.7,211.3,581,211.3z"/>
		</g>
	</g>
	<g class="st1">
		<g>
			<path class="st12" d="M535.9,408.5c75.9,0,137.7,61.8,137.7,137.7s-61.8,137.7-137.7,137.7s-137.7-61.8-137.7-137.7
				S460,408.5,535.9,408.5 M535.9,397.3c-82.2,0-148.8,66.6-148.8,148.8s66.6,148.8,148.8,148.8s148.8-66.6,148.8-148.8
				S618.2,397.3,535.9,397.3L535.9,397.3z"/>
		</g>
		<g>
			<path class="st13" d="M616.7,568.9c0.7-0.7,2.6-2.6,3-3.7c0.4-4.1-3.7-6-7.4-6.3c-6.7-0.4-12.6,3.3-16,6.3
				c-5.2,4.5-10.8,6-18.2,6.7c-8.9,1.1-17.5,1.5-25.7-0.7c-1.1-0.4-4.1-1.5-6.7-2.6c-1.1-0.4-2.6-1.1-3.7-1.5
				c-0.7-0.4-1.5-0.4-2.2-0.7c2.6-0.4,7.4-1.1,11.5-0.4c5.2,0.4,20.5,0.7,27.2,1.5c2.6,0.4,4.8,0,6.7-1.1c1.9-1.1,3-2.6,4.1-4.1
				c1.9-3.3,2.6-4.8,0-8.2c-2.2-3-5.6-3.7-9.7-4.8c-3.7-1.1-8.2-1.9-11.9-2.2c-7.8-1.1-13.8-0.7-19.7-1.9c-2.2-0.4-6-2.2-10.8-4.5
				c-5.2-2.2-11.5-4.5-20.5-5.2c-2.2,0-4.5-0.4-6.7-0.4c-11.9,0-23.8,3-28.6,4.1c-7.1,1.5-25.3,0.4-26.4,0.7c-1.5,0.4-2.2,1.5-2.2,3
				v30.8c0,2.2,1.5,3.3,3.3,3.7c2.2,0,19.3,0,25.7,0c3,0.4,5.2,0.7,7.8,1.5c1.9,0.7,3.7,1.5,6.3,2.6c4.8,1.9,10.8,4.8,16.7,7.4
				c6,2.6,12.3,5.2,17.1,7.4c5.2,2.2,8.9,3.7,12.3,3.7c5.2,0.4,13.8-1.1,22.7-2.2c8.9-1.1,17.9-2.6,20.1-2.6
				c7.1-0.4,13-5.2,16.7-7.4c4.8-3,10.8-6.3,15.6-10.4c2.2-1.9,3-4.1,3-6C619.3,569.2,617.4,569.6,616.7,568.9z"/>
			<path class="st13" d="M581,545.4h23c2.6,0,4.5-1.9,4.5-4.1c0-2.2-2.2-4.1-4.5-4.1h-23c-2.6,0-4.5,1.9-4.5,4.1
				C576.5,543.6,578.7,545.4,581,545.4z"/>
			<path class="st13" d="M581,533.5h23c2.6,0,4.5-1.9,4.5-4.1c0-2.2-2.2-4.1-4.5-4.1h-23c-2.6,0-4.5,1.9-4.5,4.1
				C576.5,531.7,578.7,533.5,581,533.5z"/>
			<path class="st13" d="M581,521.2h23c2.6,0,4.5-1.9,4.5-4.1c0-2.2-2.2-4.1-4.5-4.1h-23c-2.6,0-4.5,1.9-4.5,4.1
				C576.5,519.4,578.7,521.2,581,521.2z"/>
			<path class="st13" d="M540.4,537.2h23.1c2.6,0,4.5-1.9,4.5-4.1c0-2.2-2.2-4.1-4.5-4.1h-23.1c-2.6,0-4.5,1.9-4.5,4.1
				C535.9,535.7,538.2,537.2,540.4,537.2z"/>
			<path class="st13" d="M540.4,525.3h23.1c2.6,0,4.5-1.9,4.5-4.1s-2.2-4.1-4.5-4.1h-23.1c-2.6,0-4.5,1.9-4.5,4.1
				S538.2,525.3,540.4,525.3z"/>
			<path class="st13" d="M581,509h23c2.6,0,4.5-1.9,4.5-4.1s-2.2-4.1-4.5-4.1h-23c-2.6,0-4.5,1.9-4.5,4.1S578.7,509,581,509z"/>
		</g>
	</g>
</g>
<g>
	<path class="st14" d="M535.9,408.5c36.8,0,71.3,14.3,97.3,40.3s40.3,60.6,40.3,97.3s-14.3,71.3-40.3,97.3s-60.6,40.3-97.3,40.3
		s-71.3-14.3-97.3-40.3s-40.3-60.6-40.3-97.3s14.3-71.3,40.3-97.3S499.2,408.5,535.9,408.5 M535.9,397.3
		c-82.2,0-148.8,66.6-148.8,148.8s66.6,148.8,148.8,148.8s148.8-66.6,148.8-148.8S618.1,397.3,535.9,397.3L535.9,397.3z"/>
	<g>
		<path class="st15" d="M518.9,536.5h-37.7c-4.2,0-7.5-3.4-7.5-7.5v-37.7c0-4.2,3.4-7.5,7.5-7.5h37.7c4.2,0,7.5,3.4,7.5,7.5V529
			C526.5,533.1,523.1,536.5,518.9,536.5z"/>
		<path class="st15" d="M590.7,536.5H553c-4.2,0-7.5-3.4-7.5-7.5v-37.7c0-4.2,3.4-7.5,7.5-7.5h37.7c4.2,0,7.5,3.4,7.5,7.5V529
			C598.2,533.1,594.8,536.5,590.7,536.5z"/>
		<path class="st15" d="M518.9,608.6h-37.7c-4.2,0-7.5-3.4-7.5-7.5v-37.7c0-4.2,3.4-7.5,7.5-7.5h37.7c4.2,0,7.5,3.4,7.5,7.5v37.7
			C526.5,605.3,523.1,608.6,518.9,608.6z"/>
		<path class="st15" d="M590.7,608.6H553c-4.2,0-7.5-3.4-7.5-7.5v-37.7c0-4.2,3.4-7.5,7.5-7.5h37.7c4.2,0,7.5,3.4,7.5,7.5v37.7
			C598.2,605.3,594.8,608.6,590.7,608.6z"/>
	</g>
</g>
<g>
	<path class="st15" d="M535.9,99.7c-82.2,0-148.8,66.6-148.8,148.8s66.6,148.8,148.8,148.8s148.8-66.6,148.8-148.8
		S618.1,99.7,535.9,99.7L535.9,99.7z"/>
	<g>
		<path class="st4" d="M518.9,238.8h-37.7c-4.2,0-7.5-3.4-7.5-7.5v-37.7c0-4.2,3.4-7.5,7.5-7.5h37.7c4.2,0,7.5,3.4,7.5,7.5v37.7
			C526.5,235.4,523.1,238.8,518.9,238.8z"/>
		<path class="st4" d="M590.7,238.8H553c-4.2,0-7.5-3.4-7.5-7.5v-37.7c0-4.2,3.4-7.5,7.5-7.5h37.7c4.2,0,7.5,3.4,7.5,7.5v37.7
			C598.2,235.4,594.8,238.8,590.7,238.8z"/>
		<path class="st4" d="M518.9,311h-37.7c-4.2,0-7.5-3.4-7.5-7.5v-37.7c0-4.2,3.4-7.5,7.5-7.5h37.7c4.2,0,7.5,3.4,7.5,7.5v37.7
			C526.5,307.6,523.1,311,518.9,311z"/>
		<path class="st4" d="M590.7,311H553c-4.2,0-7.5-3.4-7.5-7.5v-37.7c0-4.2,3.4-7.5,7.5-7.5h37.7c4.2,0,7.5,3.4,7.5,7.5v37.7
			C598.2,307.6,594.8,311,590.7,311z"/>
	</g>
</g>
</svg>
