<?xml version="1.0" encoding="utf-8"?>
<!-- Generator: Adobe Illustrator 19.2.1, SVG Export Plug-In . SVG Version: 6.00 Build 0)  -->
<svg version="1.1" id="Capa_1" xmlns="http://www.w3.org/2000/svg" xmlns:xlink="http://www.w3.org/1999/xlink" x="0px" y="0px"
	 viewBox="0 0 42 84" style="enable-background:new 0 0 42 84;" xml:space="preserve">
<style type="text/css">
	.st0{fill:#FF4B05;}
	.st1{fill:#B7B8BA;}
</style>
<path class="st0" d="M16.7,60.4H2.8c-1,0-1.8-0.8-1.8-1.8V44.8c0-1,0.8-1.8,1.8-1.8h13.9c1,0,1.8,0.8,1.8,1.8v13.9
	C18.5,59.6,17.7,60.4,16.7,60.4z"/>
<path class="st0" d="M39.2,60.4H25.3c-1,0-1.8-0.8-1.8-1.8V44.8c0-1,0.8-1.8,1.8-1.8h13.9c1,0,1.8,0.8,1.8,1.8v13.9
	C41,59.6,40.2,60.4,39.2,60.4z"/>
<path class="st0" d="M16.7,83H2.8c-1,0-1.8-0.8-1.8-1.8V67.4c0-1,0.8-1.8,1.8-1.8h13.9c1,0,1.8,0.8,1.8,1.8v13.9
	C18.5,82.2,17.7,83,16.7,83z"/>
<path class="st0" d="M39.2,83H25.3c-1,0-1.8-0.8-1.8-1.8V67.4c0-1,0.8-1.8,1.8-1.8h13.9c1,0,1.8,0.8,1.8,1.8v13.9
	C41,82.2,40.2,83,39.2,83z"/>
<path class="st1" d="M16.7,18.4H2.8c-1,0-1.8-0.8-1.8-1.8V2.8C1,1.8,1.8,1,2.8,1h13.9c1,0,1.8,0.8,1.8,1.8v13.9
	C18.5,17.6,17.7,18.4,16.7,18.4z"/>
<path class="st1" d="M39.2,18.4H25.3c-1,0-1.8-0.8-1.8-1.8V2.8c0-1,0.8-1.8,1.8-1.8h13.9c1,0,1.8,0.8,1.8,1.8v13.9
	C41,17.6,40.2,18.4,39.2,18.4z"/>
<path class="st1" d="M16.7,41H2.8c-1,0-1.8-0.8-1.8-1.8V25.4c0-1,0.8-1.8,1.8-1.8h13.9c1,0,1.8,0.8,1.8,1.8v13.9
	C18.5,40.2,17.7,41,16.7,41z"/>
<path class="st1" d="M39.2,41H25.3c-1,0-1.8-0.8-1.8-1.8V25.4c0-1,0.8-1.8,1.8-1.8h13.9c1,0,1.8,0.8,1.8,1.8v13.9
	C41,40.2,40.2,41,39.2,41z"/>
</svg>
