<?xml version="1.0" encoding="utf-8"?>
<!-- Generator: Adobe Illustrator 19.0.0, SVG Export Plug-In . SVG Version: 6.00 Build 0)  -->
<svg version="1.1" id="Layer_1" xmlns="http://www.w3.org/2000/svg" xmlns:xlink="http://www.w3.org/1999/xlink" x="0px" y="0px"
	 viewBox="-117 21.7 350 700" style="enable-background:new -117 21.7 350 700;" xml:space="preserve">
<style type="text/css">
	.st0{fill:#1D1D1B;}
	.st1{fill:#B7B8BA;}
</style>
<g id="Layer_5">
	<g>
		<path class="st0" d="M58,21.7c-96.2,0-175,78.9-175,175.3s78.8,174.2,175,174.2s175-77.9,175-175.3C233,100.6,154.2,21.7,58,21.7z
			 M105.1,293.3l-14.3-35.9H24.2L9.9,293.3h-35.8l67.5-159.9h31.7l67.5,159.9H105.1z M149.1,122.1h-20.5v20.5
			c0,6.1-5.1,11.3-10.2,11.3c-6.1,0-10.2-5.1-10.2-11.3v-20.5H87.7c-6.1,0-10.2-5.1-10.2-11.3s5.1-10.2,10.2-10.2h20.5V80.1
			c0-6.1,5.1-10.2,10.2-10.2c6.1,0,10.2,5.1,10.2,10.2v20.5h20.5c6.1,0,10.2,5.1,10.2,10.2S155.2,122.1,149.1,122.1z"/>
		<polygon class="st0" points="36.5,226.7 78.5,226.7 58,175.4 		"/>
	</g>
	<g>
		<path class="st1" d="M58,371.2c-96.2,0-175,78.9-175,175.3s77.8,175.3,175,175.3c96.2,0,175-59.3,175-156.6
			C233,468.7,154.2,371.2,58,371.2z M105.1,642.8l-14.3-35.9H24.2L9.9,642.8h-35.8l67.5-159.9h31.7l67.5,159.9H105.1z M149.1,472.7
			h-20.5v20.5c0,6.1-5.1,11.3-10.2,11.3c-6.1,0-10.2-5.1-10.2-11.3v-20.5H87.7c-6.1,0-10.2-5.1-10.2-11.3s5.1-10.2,10.2-10.2h20.5
			v-20.5c0-6.1,5.1-10.2,10.2-10.2c6.1,0,10.2,5.1,10.2,10.2v20.5h20.5c6.1,0,10.2,5.1,10.2,10.2S155.2,472.7,149.1,472.7z"/>
		<polygon class="st1" points="36.5,577 78.5,577 58,525.8 		"/>
	</g>
</g>
</svg>
