<?xml version="1.0" encoding="utf-8"?>
<!-- Generator: Adobe Illustrator 19.0.0, SVG Export Plug-In . SVG Version: 6.00 Build 0)  -->
<svg version="1.1" id="Layer_1" xmlns="http://www.w3.org/2000/svg" xmlns:xlink="http://www.w3.org/1999/xlink" x="0px" y="0px"
	 viewBox="-117 21.7 350 700" style="enable-background:new -117 21.7 350 700;" xml:space="preserve">
<style type="text/css">
	.st0{fill:#1D1D1B;}
	.st1{fill:#B7B8BA;}
</style>
<g id="Layer_6">
	<g>
		<polygon class="st0" points="42.6,255.4 73.4,255.4 58,217.5 		"/>
		<path class="st0" d="M58,21.7c-96.2,0-175,78.9-175,175.3s78.8,174.2,175,174.2s175-77.9,175-175.3C233,100.6,154.2,21.7,58,21.7z
			 M92.8,303.5l-10.2-25.6H33.4l-10.2,25.6H-3.4l50.1-116.8h23.5l49.1,116.8H92.8z M155.2,122.1h-20.5h-21.5H92.8
			c-6.1,0-10.2-5.1-10.2-11.3s5.1-10.2,10.2-10.2h20.5h21.5h20.5c6.1,0,10.2,5.1,10.2,10.2S160.3,122.1,155.2,122.1z"/>
	</g>
	<g>
		<polygon class="st1" points="42.6,604.9 73.4,604.9 58,566.9 		"/>
		<path class="st1" d="M58,371.2c-96.2,0-175,78.9-175,175.3s77.8,175.3,175,175.3c96.2,0,175-77.9,175-175.3
			C233,450.1,154.2,371.2,58,371.2z M92.8,653l-10.2-25.6H33.4L23.2,653H-3.4l49.1-116.8h23.5L119.4,653H92.8z M155.2,472.7h-20.5
			h-21.5H92.8c-6.1,0-10.2-5.1-10.2-11.3s5.1-10.2,10.2-10.2h20.5h21.5h20.5c6.1,0,10.2,5.1,10.2,10.2S160.3,472.7,155.2,472.7z"/>
	</g>
</g>
</svg>
