<?xml version="1.0" encoding="utf-8"?>
<!-- Generator: Adobe Illustrator 19.0.0, SVG Export Plug-In . SVG Version: 6.00 Build 0)  -->
<svg version="1.1" id="Layer_1" xmlns="http://www.w3.org/2000/svg" xmlns:xlink="http://www.w3.org/1999/xlink" x="0px" y="0px"
	 viewBox="0 0 48 48" style="enable-background:new 0 0 48 48;" xml:space="preserve">
<style type="text/css">
	.st0{fill:none;stroke:#FF550F;stroke-width:2;stroke-miterlimit:10;}
	.st1{clip-path:url(#SVGID_2_);}
	.st2{fill:#FF550F;}
</style>
<g>
	<g>
		<circle class="st0" cx="24" cy="24" r="23"/>
	</g>
	<g>
		<defs>
			<rect id="SVGID_1_" x="0.1" y="8.7" width="47.6" height="31"/>
		</defs>
		<clipPath id="SVGID_2_">
			<use xlink:href="#SVGID_1_"  style="overflow:visible;"/>
		</clipPath>
		<g class="st1">
			<path class="st2" d="M26.4,22.9v-4.7c1.1,0.4,2.2,0.9,3.4,1.8l2.1-3.7c-1.9-1.5-4.1-2.4-6.6-2.7c-0.4,0.4-1.2,0.6-1.2,0.6
				s-0.9-0.3-1.3-0.7c-4.1,0.3-7.3,2.7-7.3,6.6v0.1c0,3.9,2.4,5.3,6.1,6.3v4.9c-1.3-0.5-2.5-1.3-3.9-2.4L15,32.7
				c1.9,1.7,4.2,2.8,6.6,3.3v2c0.6,0.1,1.3,0.2,2.1,0.2l0.1-11.1l0.3,0.1l0.1,11c0.8,0,1.5-0.1,2.1-0.2v-1.9c3.7-0.6,6.1-3,6.1-6.7
				v-0.1C32.5,25.7,30.3,24.1,26.4,22.9z M20.3,19.8L20.3,19.8c0-0.8,0.5-1.3,1.3-1.7V20c0,1.1,1.3,1.6,3.2,2.5
				C21.5,21.7,20.3,21.2,20.3,19.8z M27.7,29.9c0,0.8-0.5,1.4-1.3,1.7V28C27.4,28.4,27.7,28.9,27.7,29.9L27.7,29.9z"/>
			<path class="st2" d="M22.6,11.5C22.6,11.5,22.7,11.6,22.6,11.5c0.2,1,0.5,1.3,0.5,1.3s0.3,0.4,0.8,0.4c0.6,0,0.8-0.4,0.8-0.4
				s0.3-0.3,0.5-1.3c0,0,0,0,0,0c0,0,0-0.1,0.1-0.3c0-0.2,0.1-0.3,0.1-0.3c0-0.1-0.1-0.1-0.1-0.1c0-0.3,0-0.7,0-1.1
				c0,0-0.5-0.7-1.4-0.7c-0.9,0-1.4,0.7-1.4,0.7c0,0.4,0,0.7,0,1.1c0,0-0.1,0-0.1,0.1c0,0,0,0.1,0.1,0.3
				C22.6,11.5,22.6,11.5,22.6,11.5z"/>
		</g>
	</g>
</g>
</svg>
