<?xml version="1.0" encoding="utf-8"?>
<!-- Generator: Adobe Illustrator 19.0.0, SVG Export Plug-In . SVG Version: 6.00 Build 0)  -->
<svg version="1.1" id="Layer_1" xmlns="http://www.w3.org/2000/svg" xmlns:xlink="http://www.w3.org/1999/xlink" x="0px" y="0px"
	 viewBox="0 0 36 36" style="enable-background:new 0 0 36 36;" xml:space="preserve">
<style type="text/css">
	.st0{fill:#FFFFFF;}
</style>
<g>
	<path id="XMLID_64_" class="st0" d="M18,1.5c9.1,0,16.5,7.4,16.5,16.5c0,9.1-7.4,16.5-16.5,16.5S1.5,27.1,1.5,18
		C1.5,8.9,8.9,1.5,18,1.5 M18,0C8.1,0,0,8.1,0,18c0,9.9,8.1,18,18,18c9.9,0,18-8.1,18-18C36,8.1,27.9,0,18,0L18,0z"/>
</g>
<g>
	<path class="st0" d="M27.8,13.5c-0.2-1.5-0.5-1.9-0.8-2.1C26.6,11.1,25.9,11,25,11c-1.5-0.1-4.1-0.2-7-0.2c-2.8,0-5.4,0.1-7,0.2
		c-1,0.1-1.7,0.2-2.1,0.5c-0.2,0.2-0.6,0.6-0.8,2.1c-0.2,2.1-0.2,6.9,0,9c0.2,1.5,0.5,1.9,0.8,2.1C9.4,24.9,10.1,25,11,25
		c1.5,0.1,4.1,0.2,7,0.2c2.8,0,5.4-0.1,7-0.2c1-0.1,1.7-0.2,2.1-0.5c0.2-0.2,0.6-0.6,0.8-2.1C28,20.4,28,15.6,27.8,13.5z M15.6,21.1
		v-6.3l6,3.1L15.6,21.1z"/>
</g>
</svg>
