<?xml version="1.0" encoding="utf-8"?>
<!-- Generator: Adobe Illustrator 18.0.0, SVG Export Plug-In . SVG Version: 6.00 Build 0)  -->
<!DOCTYPE svg PUBLIC "-//W3C//DTD SVG 1.1//EN" "http://www.w3.org/Graphics/SVG/1.1/DTD/svg11.dtd">
<svg version="1.1" id="Layer_1" xmlns="http://www.w3.org/2000/svg" xmlns:xlink="http://www.w3.org/1999/xlink" x="0px" y="0px"
	 viewBox="7 100 600 600" enable-background="new 7 100 600 600" xml:space="preserve">
<g id="Layer_2">
	<rect x="7" y="100" fill="#55ACEE" width="600" height="600"/>
</g>
<g id="Layer_1_1_">
	<path id="XMLID_13_" fill="#FFFFFF" d="M447.1,348.4c0,3.4,0,5.1,0,8.5c-3.4,90.1-76.5,192.1-202.3,187
		c-39.1-1.7-74.8-13.6-103.7-34c5.1,0,10.2,1.7,17,1.7c32.3,1.7,61.2-8.5,86.7-25.5c-30.6-1.7-54.4-22.1-61.2-49.3
		c3.4,1.7,8.5,1.7,13.6,1.7c6.8,0,11.9,0,18.7-1.7c-30.6-6.8-52.7-35.7-52.7-69.7c0,0,0,0,0-1.7c8.5,5.1,18.7,8.5,30.6,10.2
		c-17-13.6-28.9-34-28.9-57.8c0-11.9,5.1-23.8,10.2-34c32.3,42.5,81.6,71.4,137.7,76.5c-1.7-5.1-1.7-10.2-1.7-15.3
		c1.7-37.4,34-66.3,71.4-66.3c20.4,0,37.4,10.2,49.3,23.8c15.3-1.7,30.6-6.8,44.2-15.3c-5.1,15.3-17,28.9-32.3,37.4
		c13.6-1.7,27.2-5.1,39.1-8.5C472.6,328,460.7,339.9,447.1,348.4z"/>
</g>
</svg>
