<?xml version="1.0" encoding="utf-8"?>
<!-- Generator: Adobe Illustrator 19.0.0, SVG Export Plug-In . SVG Version: 6.00 Build 0)  -->
<svg version="1.1" id="Layer_1" xmlns="http://www.w3.org/2000/svg" xmlns:xlink="http://www.w3.org/1999/xlink" x="0px" y="0px"
	 viewBox="0 0 87.7 26.5" style="enable-background:new 0 0 87.7 26.5;" xml:space="preserve">
<style type="text/css">
	.st0{fill:#F2652C;}
</style>
<g>
	<path class="st0" d="M17.1,16.8L17.1,16.8c0-4.4,3.5-8,8.3-8c4.7,0,8.2,3.5,8.2,7.9v0.1c0,4.4-3.5,7.9-8.3,7.9
		C20.6,24.6,17.1,21.1,17.1,16.8 M29.3,16.8L29.3,16.8c0-2.3-1.6-4.3-4-4.3c-2.5,0-4,1.9-4,4.2v0.1c0,2.2,1.6,4.2,4,4.2
		C27.8,20.9,29.3,19,29.3,16.8"/>
	<path class="st0" d="M34.7,9H39v3.1c0.9-2.1,2.3-3.2,4.9-3.1v4.3h-0.2c-2.9,0-4.6,1.7-4.6,5.4v5.5h-4.3V9z"/>
	<path class="st0" d="M47,20v-7.2h-1.8V9H47V4.8h4.3V9H55v3.7h-3.6v6.5c0,1,0.4,1.5,1.4,1.5c0.8,0,1.5-0.2,2.1-0.5v3.5
		c-0.9,0.5-2,0.9-3.4,0.9C48.8,24.6,47,23.5,47,20"/>
	<path class="st0" d="M55.6,16.8L55.6,16.8c0-4.4,3.1-8,7.5-8c5.1,0,7.4,4,7.4,8.3c0,0.3,0,0.7-0.1,1.1H59.9c0.4,2,1.8,3,3.7,3
		c1.5,0,2.5-0.5,3.7-1.6l2.5,2.2c-1.4,1.8-3.5,2.8-6.2,2.8C58.9,24.6,55.6,21.4,55.6,16.8 M66.3,15.5c-0.3-1.9-1.4-3.2-3.2-3.2
		c-1.8,0-3,1.3-3.3,3.2H66.3z"/>
	<path class="st0" d="M71.6,16.7L71.6,16.7c0-5.2,3.3-7.9,6.9-7.9c2.3,0,3.7,1.1,4.8,2.3V3.5h4.3v20.8h-4.3v-2.2
		c-1.1,1.4-2.5,2.5-4.8,2.5C75,24.6,71.6,21.8,71.6,16.7 M83.4,16.7L83.4,16.7c0-2.6-1.7-4.3-3.7-4.3c-2,0-3.7,1.7-3.7,4.2v0.1
		c0,2.5,1.7,4.2,3.7,4.2C81.7,20.9,83.4,19.2,83.4,16.7"/>
	<path class="st0" d="M10.4,12.6V8.3c1,0.3,2,0.8,3.1,1.6l1.9-3.4c-1.7-1.4-3.7-2.2-6-2.5C8.9,4.3,8.2,4.6,8.2,4.6S7.4,4.3,7.1,4
		C3.3,4.2,0.4,6.4,0.4,10v0.1c0,3.5,2.2,4.8,5.6,5.8v4.5c-1.2-0.4-2.3-1.2-3.6-2.2L0,21.5c1.7,1.6,3.8,2.5,6,3v1.9
		c0.5,0.1,1.2,0.2,1.9,0.2l0.1-10.1l0.3,0.1l0.1,10c0.7,0,1.4-0.1,1.9-0.2v-1.8c3.3-0.6,5.6-2.7,5.6-6.1v-0.1
		C16,15.1,14,13.6,10.4,12.6 M4.8,9.7L4.8,9.7c0-0.7,0.5-1.2,1.2-1.5v1.7c0,1,1.2,1.5,2.9,2.3C5.9,11.4,4.8,10.9,4.8,9.7 M11.6,18.9
		c0,0.7-0.4,1.2-1.1,1.6v-3.3C11.3,17.6,11.6,18,11.6,18.9L11.6,18.9z"/>
	<path class="st0" d="M9.5,1.6c0-0.3,0-0.6,0-1C9.5,0.6,9,0,8.2,0C7.4,0,6.9,0.6,6.9,0.6c0,0.4,0,0.7,0,1c0,0-0.1,0-0.1,0.1
		c0,0,0,0.1,0.1,0.3c0,0.2,0.1,0.3,0.1,0.3c0,0,0,0,0,0c0.1,0.9,0.5,1.1,0.5,1.1s0.3,0.3,0.8,0.3C8.7,3.8,9,3.5,9,3.5
		s0.3-0.3,0.5-1.1c0,0,0,0,0,0c0,0,0-0.1,0.1-0.3c0-0.2,0.1-0.3,0.1-0.3C9.6,1.6,9.5,1.6,9.5,1.6"/>
</g>
</svg>
