<?xml version="1.0" encoding="utf-8"?>
<!-- Generator: Adobe Illustrator 19.0.0, SVG Export Plug-In . SVG Version: 6.00 Build 0)  -->
<svg version="1.1" id="_x31_st_x5F_Aggressive" xmlns="http://www.w3.org/2000/svg" xmlns:xlink="http://www.w3.org/1999/xlink"
	 x="0px" y="0px" viewBox="0 0 586 674" style="enable-background:new 0 0 586 674;" xml:space="preserve">
<style type="text/css">
	.st0{fill-rule:evenodd;clip-rule:evenodd;fill:#D8D8D5;}
	.st1{fill:#1E1E1E;}
	.st2{font-family:'Gotham-Medium';}
	.st3{font-size:22px;}
	.st4{font-family:'Gotham-Book';}
	.st5{fill:#E5F0F4;}
	.st6{fill:#FFE6DB;}
	.st7{fill:none;stroke:#FF550F;stroke-width:2.5;stroke-linecap:round;stroke-linejoin:round;stroke-miterlimit:10;}
	.st8{fill:none;stroke:#006E96;stroke-width:2.5;stroke-linecap:round;stroke-linejoin:round;stroke-miterlimit:10;}
</style>
<g>
	<g>
		<polygon class="st0" points="567.1,69.3 567.1,68.2 90.2,68.2 90.2,63.6 89.5,63.6 89.5,68.2 86.5,68.2 86.5,69.3 89.5,69.3 
			89.5,156.4 86.5,156.4 86.5,157.5 89.5,157.5 89.5,244.6 86.5,244.6 86.5,245.7 89.5,245.7 89.5,332.8 86.5,332.8 86.5,334 
			89.5,334 89.5,421 86.5,421 86.5,422.2 89.5,422.2 89.5,509.3 86.5,509.3 86.5,510.4 89.5,510.4 89.5,597.5 86.5,597.5 
			86.5,598.6 89.5,598.6 89.5,603.2 90.2,603.2 90.2,598.6 567.1,598.6 567.1,597.5 90.2,597.5 90.2,510.4 567.1,510.4 567.1,509.3 
			90.2,509.3 90.2,422.2 567.1,422.2 567.1,421 90.2,421 90.2,334 567.1,334 567.1,332.8 90.2,332.8 90.2,245.7 567.1,245.7 
			567.1,244.6 90.2,244.6 90.2,157.5 567.1,157.5 567.1,156.4 90.2,156.4 90.2,69.3 		"/>
	</g>
</g>
<text transform="matrix(0 -1 1 0 29.4297 390.0527)" class="st1 st2 st3">Amount ($000)</text>
<text transform="matrix(1 0 0 1 325.3345 656.0186)" class="st1 st2 st3">Years</text>
<text transform="matrix(1 0 0 1 537.8457 624.6533)" class="st1 st4 st3">25</text>
<text transform="matrix(1 0 0 1 442.207 624.6533)" class="st1 st4 st3">20</text>
<text transform="matrix(1 0 0 1 354.0771 624.6533)" class="st1 st4 st3">15</text>
<text transform="matrix(1 0 0 1 258.4365 624.6533)" class="st1 st4 st3">10</text>
<text transform="matrix(1 0 0 1 172.5781 624.6533)" class="st1 st4 st3">5</text>
<path class="st5" d="M563.8,91.6c0,0-90.2,147.4-228.4,287.3C282.5,432.5,214,487.1,144.2,532.5L98.5,562c0,0-12.8,7.8-6.3,6
	c12.6-3.4,85.7-29,118.1-41.7c59-23.2,113.3-40.1,190.5-74.2c98.8-43.6,162.5-71.4,162.5-71.4L563.8,91.6z"/>
<path class="st6" d="M562.8,493.9v73.1c0,0-292.5,4.7-355.9,5.1c-63.4,0.4-117-2.3-117-2.3l3.8-2.3c0,0,20.4-5.2,75.3-12.5
	c54.2-7.2,151.5-19.7,206.6-27.5C424.9,520.7,562.8,493.9,562.8,493.9z"/>
<g>
	<g>
		<polyline class="st7" points="561.5,534.7 560,534.8 558.4,532.8 556.8,533.1 555.3,534.2 553.7,534.5 552.1,532.2 550.5,531.9 
			549,530.5 547.4,531.4 545.8,533.3 544.3,537.8 542.7,540.2 541.1,539.4 539.6,539.6 538,539.4 536.4,536.9 534.8,539 
			533.3,539.1 531.7,533.7 530.1,535.8 528.6,535.2 527,531.4 525.4,532.7 523.9,535.5 522.3,534.6 520.7,538.4 519.1,536.3 
			517.6,536.9 516,537.2 514.4,536.3 512.9,534.4 511.3,531.8 509.7,528.1 508.2,529.9 506.6,531.8 505,533.4 503.5,535.2 
			501.9,535.1 500.3,539.3 498.7,538.5 497.2,538.2 495.6,540.8 494,543.2 492.5,545.6 490.9,546.5 489.3,545.6 487.8,547.6 
			486.2,547.9 484.6,546.3 483,546.2 481.5,547.1 479.9,548.8 478.3,547.4 476.8,548 475.2,548.1 473.6,548.5 472.1,549.5 
			470.5,550.6 468.9,551.2 467.3,551.7 465.8,552 464.2,554.1 462.6,552.3 461.1,554.9 459.5,555.8 457.9,557.9 456.4,556.8 
			454.8,555.9 453.2,555.3 451.6,554.1 450.1,553.9 448.5,555.8 446.9,555.5 445.4,557.5 443.8,558.5 442.2,559.7 440.7,559.9 
			439.1,560.5 437.5,561.4 436,562.2 434.4,562.3 432.8,562.5 431.2,561.6 429.7,562 428.1,562.4 426.5,563.3 425,564 423.4,564.4 
			421.8,564.6 420.3,564.6 418.7,563.9 417.1,563.9 415.5,563 414,564.3 412.4,566.2 410.8,566.4 409.3,566.7 407.7,565.9 
			406.1,566 404.6,565.8 403,567 401.4,567 399.8,565.8 398.3,564.7 396.7,564.4 395.1,564.6 393.6,563.3 392,562.3 390.4,561.4 
			388.9,562.1 387.3,562.6 385.7,564.6 384.2,562.8 382.6,562.2 381,561.8 379.4,561.4 377.9,561 376.3,560.1 374.7,560.2 
			373.2,560.6 371.6,563 370,563.2 368.5,564.3 366.9,563.9 365.3,562.6 363.7,562.9 362.2,563.7 360.6,564.7 359,563.3 
			357.5,564.2 355.9,564.1 354.3,562.2 352.8,560.4 351.2,559.9 349.6,560 348,558.5 346.5,556.3 344.9,556.8 343.3,557.3 
			341.8,556.9 340.2,558.4 338.6,557.6 337.1,556.4 335.5,554.7 333.9,554.1 332.3,552.4 330.8,555.6 329.2,554.7 327.6,553.2 
			326.1,553.7 324.5,552.6 322.9,551.6 321.4,550.8 319.8,549.3 318.2,551.9 316.7,552.4 315.1,556.1 313.5,554.9 311.9,553.9 
			310.4,555.4 308.8,556 307.2,555 305.7,556.7 304.1,557.9 302.5,557.8 301,555 299.4,555.6 297.8,556.3 296.2,557.2 294.7,559 
			293.1,559.4 291.5,560 290,558.3 288.4,556.9 286.8,555.3 285.3,554.3 283.7,552.7 282.1,553.8 280.5,553.8 279,554.3 
			277.4,553.5 275.8,551.8 274.3,552.2 272.7,552.1 271.1,549.9 269.6,550.7 268,551.3 266.4,552.6 264.8,552 263.3,550.7 
			261.7,551.2 260.1,552.5 258.6,552.3 257,551.9 255.4,553.2 253.9,550.5 252.3,551.6 250.7,549.1 249.2,548.8 247.6,548.7 
			246,546.1 244.4,545.4 242.9,546.8 241.3,548.5 239.7,547 238.2,545.5 236.6,547 235,547.3 233.5,548 231.9,546.4 230.3,544.1 
			228.7,545.8 227.2,544.9 225.6,544.7 224,545.8 222.5,546.3 220.9,545 219.3,547.8 217.8,548.2 216.2,549.5 214.6,549.2 
			213,547.7 211.5,546.3 209.9,546.1 208.3,543.2 206.8,544.1 205.2,545.7 203.6,543.6 202.1,546.4 200.5,547.6 198.9,548.7 
			197.4,547.8 195.8,547.9 194.2,547.2 192.6,546.4 191.1,547.9 189.5,548.9 187.9,548.3 186.4,550 184.8,549.3 183.2,548.4 
			181.7,549.7 180.1,550.7 178.5,550.2 176.9,550.8 175.4,551 173.8,551.8 172.2,554.3 170.7,555 169.1,555 167.5,552.5 166,550.8 
			164.4,551 162.8,550 161.2,551.2 159.7,547.2 158.1,546.7 156.5,543.6 155,547 153.4,546.6 151.8,547.8 150.3,547.7 148.7,550.2 
			147.1,550.8 145.5,548.1 144,552.6 142.4,553.5 140.8,553.8 139.3,554.8 137.7,555.9 136.1,556 134.6,556.6 133,555.9 
			131.4,556.9 129.9,556.5 128.3,555.6 126.7,556.2 125.1,557 123.6,555.6 122,558.3 120.4,558.5 118.9,560.8 117.3,561.5 
			115.7,563.4 114.2,562.4 112.6,562.6 111,563.2 109.4,563 107.9,562.5 106.3,562.9 104.7,562.5 103.2,563 101.6,562.2 100,563.5 
			98.5,565.2 96.9,565.7 95.3,566.2 93.7,567.6 92.2,568 90.6,567.5 		"/>
	</g>
</g>
<polyline class="st8" points="90.6,567.5 92.2,566.8 93.7,567.4 95.3,565.8 96.9,565.7 98.5,566.3 100,564.7 101.6,564 103.2,565.7 
	104.7,565.1 106.3,563.3 107.9,561.9 109.4,562.2 111,562.3 112.6,561.6 114.2,562.1 115.7,561.6 117.3,560 118.9,557.9 
	120.4,559.2 122,557.8 123.6,556.2 125.1,555.8 126.7,553.8 128.3,552.1 129.9,547.4 131.4,545.4 133,542.6 134.6,544.7 
	136.1,543.8 137.7,545.7 139.3,546 140.8,544 142.4,544.3 144,541.4 145.5,542.9 147.1,543.8 148.7,544.8 150.3,547 151.8,545.1 
	153.4,543.2 155,543.3 156.5,543.9 158.1,540.8 159.7,539 161.2,537.9 162.8,537.7 164.4,535.3 166,538.8 167.5,537.2 169.1,537.9 
	170.7,534.5 172.2,533.7 173.8,531.5 175.4,530 176.9,525.9 178.5,526.5 180.1,529.1 181.7,528.5 183.2,530 184.8,530.2 
	186.4,529.5 187.9,529.7 189.5,529.4 191.1,527.7 192.6,527.8 194.2,528 195.8,527.4 197.4,522.9 198.9,522.7 200.5,522.4 
	202.1,527.7 203.6,525.9 205.2,525.4 206.8,523.4 208.3,526.6 209.9,531 211.5,530.1 213,533.8 214.6,532.9 216.2,534.1 
	217.8,535.2 219.3,534.9 220.9,535.6 222.5,538 224,538.3 225.6,538.8 227.2,536 228.7,533.7 230.3,532.1 231.9,530.9 233.5,531.8 
	235,532.9 236.6,531.3 238.2,528 239.7,529.2 241.3,527.3 242.9,525.6 244.4,525.1 246,525.1 247.6,519.2 249.2,515.6 250.7,513.9 
	252.3,512.6 253.9,508.5 255.4,504.5 257,505.3 258.6,508.3 260.1,507.3 261.7,507.2 263.3,502.4 264.8,494.9 266.4,497.5 
	268,492.3 269.6,493 271.1,486 272.7,486.5 274.3,485.9 275.8,484.6 277.4,479.1 279,480.4 280.5,481.6 282.1,474.3 283.7,474.9 
	285.3,472.6 286.8,468.5 288.4,471.3 290,473.8 291.5,473.3 293.1,470.8 294.7,464.3 296.2,471 297.8,469.7 299.4,467.2 301,472.5 
	302.5,469.2 304.1,470.4 305.7,467.3 307.2,467.4 308.8,467.4 310.4,470 311.9,472 313.5,472 315.1,475.6 316.7,471.4 318.2,472.6 
	319.8,472.5 321.4,463.4 322.9,459.4 324.5,458.3 326.1,460.1 327.6,459.3 329.2,453.8 330.8,456.8 332.3,448.8 333.9,451.8 
	335.5,452.8 337.1,446.4 338.6,442.1 340.2,438.9 341.8,433.9 343.3,439.2 344.9,438.5 346.5,439.4 348,430.4 349.6,426 
	351.2,425.2 352.8,436.9 354.3,436 355.9,443.1 357.5,442.7 359,444.3 360.6,437 362.2,438.5 363.7,444.1 365.3,436.8 366.9,428.7 
	368.5,424.8 370,431.7 371.6,421.1 373.2,420.8 374.7,418.1 376.3,417 377.9,414.1 379.4,421 381,417.6 382.6,411.3 384.2,409.1 
	385.7,414.3 387.3,410.1 388.9,416.5 390.4,415.2 392,417.4 393.6,408.1 395.1,403.3 396.7,397.3 398.3,380.5 399.8,380.8 
	401.4,380.1 403,387.6 404.6,373.2 406.1,358 407.7,353.4 409.3,353.6 410.8,343.6 412.4,342.8 414,358.6 415.5,362.4 417.1,356.1 
	418.7,355.3 420.3,349.9 421.8,352.6 423.4,341.1 425,343.8 426.5,350.6 428.1,332.3 429.7,323.3 431.2,320.3 432.8,320 
	434.4,314.2 436,291.7 437.5,288.6 439.1,289.2 440.7,293.4 442.2,282.6 443.8,295.3 445.4,284.2 446.9,280.4 448.5,286.5 
	450.1,276.1 451.6,267 453.2,266.6 454.8,255 456.4,250.9 457.9,250.2 459.5,231 461.1,212.6 462.6,209.9 464.2,224.9 465.8,226.5 
	467.3,231.4 468.9,242.5 470.5,212.1 472.1,229.2 473.6,240.3 475.2,248 476.8,261.6 478.3,238.7 479.9,253.8 481.5,245.1 
	483,246.3 484.6,243.9 486.2,238.9 487.8,224.9 489.3,236.2 490.9,233.5 492.5,233.4 494,238.8 495.6,234.2 497.2,251.8 
	498.7,260.9 500.3,254.1 501.9,258.9 503.5,257.9 505,240.2 506.6,260.8 508.2,264.4 509.7,272.5 511.3,269.5 512.9,268.3 
	514.4,272.3 516,277.5 517.6,275.8 519.1,271.7 520.7,286.2 522.3,277.1 523.9,269.7 525.4,263.5 527,261.3 528.6,280 530.1,271.2 
	531.7,262 533.3,231.5 534.8,206.5 536.4,211.5 538,221.6 539.6,220.4 541.1,237.2 542.7,242 544.3,241.3 545.8,233.2 547.4,249.7 
	549,258.3 550.5,261 552.1,253.1 553.7,241 555.3,240.3 556.8,239.7 558.4,233.6 560,234.1 561.5,241.4 "/>
<text transform="matrix(1 0 0 1 67.5303 602.7617)" class="st1 st4 st3">0</text>
<text transform="matrix(1 0 0 1 54.4844 515.8613)" class="st1 st4 st3">30</text>
<text transform="matrix(1 0 0 1 53.7368 426.6953)" class="st1 st4 st3">60</text>
<text transform="matrix(1 0 0 1 53.7368 336.771)" class="st1 st4 st3">90</text>
<text transform="matrix(1 0 0 1 47.3564 250.6279)" class="st1 st4 st3">120</text>
<text transform="matrix(1 0 0 1 47.0708 162.2163)" class="st1 st4 st3">150</text>
<text transform="matrix(1 0 0 1 46.6748 74.9395)" class="st1 st4 st3">180</text>
</svg>
