<?xml version="1.0" encoding="utf-8"?>
<!-- Generator: Adobe Illustrator 19.0.0, SVG Export Plug-In . SVG Version: 6.00 Build 0)  -->
<svg version="1.1" id="_x32_nd-Balanced" xmlns="http://www.w3.org/2000/svg" xmlns:xlink="http://www.w3.org/1999/xlink" x="0px"
	 y="0px" viewBox="0 0 727 525.3" style="enable-background:new 0 0 727 525.3;" xml:space="preserve">
<style type="text/css">
	.st0{fill-rule:evenodd;clip-rule:evenodd;fill:#D8D8D5;}
	.st1{fill:#1E1E1E;}
	.st2{font-family:'Gotham-Medium';}
	.st3{font-size:14px;}
	.st4{font-family:'Gotham-Book';}
	.st5{fill:#E5F0F4;}
	.st6{fill:none;stroke:#B7B8BA;stroke-linecap:round;stroke-linejoin:round;stroke-miterlimit:10;}
	.st7{fill:none;stroke:#006E96;stroke-width:2.5;stroke-linecap:round;stroke-linejoin:round;stroke-miterlimit:10;}
</style>
<g>
	<g>
		<polygon class="st0" points="704.4,10.4 704.4,9.4 62.4,9.4 62.4,5.4 61.4,5.4 61.4,9.4 57.4,9.4 57.4,10.4 61.4,10.4 61.4,87.2 
			57.4,87.2 57.4,88.2 61.4,88.2 61.4,165 57.4,165 57.4,166 61.4,166 61.4,242.9 57.4,242.9 57.4,243.9 61.4,243.9 61.4,320.7 
			57.4,320.7 57.4,321.7 61.4,321.7 61.4,398.5 57.4,398.5 57.4,399.5 61.4,399.5 61.4,476.4 57.4,476.4 57.4,477.4 61.4,477.4 
			61.4,481.4 62.4,481.4 62.4,477.4 704.4,477.4 704.4,476.4 62.4,476.4 62.4,399.5 704.4,399.5 704.4,398.5 62.4,398.5 62.4,321.7 
			704.4,321.7 704.4,320.7 62.4,320.7 62.4,243.9 704.4,243.9 704.4,242.9 62.4,242.9 62.4,166 704.4,166 704.4,165 62.4,165 
			62.4,88.2 704.4,88.2 704.4,87.2 62.4,87.2 62.4,10.4 		"/>
	</g>
</g>
<text transform="matrix(0 -1 1 0 15.5948 293.3389)" class="st1 st2 st3">Amount ($000)</text>
<text transform="matrix(1 0 0 1 378.9281 525.3393)" class="st1 st2 st3">Years</text>
<text transform="matrix(1 0 0 1 683.6594 497.6667)" class="st1 st4 st3">25</text>
<text transform="matrix(1 0 0 1 556.4984 497.6667)" class="st1 st4 st3">20</text>
<text transform="matrix(1 0 0 1 432.4667 497.6667)" class="st1 st4 st3">15</text>
<text transform="matrix(1 0 0 1 305.3059 497.6667)" class="st1 st4 st3">10</text>
<text transform="matrix(1 0 0 1 182.8175 497.6667)" class="st1 st4 st3">5</text>
<path class="st5" d="M699,158.7c0,0-130.7,82.3-290.3,155.3c-48.2,22-201.7,88-269,109l-69,23.7c0,0-15.4,5.9-6.7,4.3
	c17-3,142.8-36.9,186.3-48.3c75-19.7,124.6-32.8,230-63c82.4-23.6,219-65.2,219-65.2L699,158.7z"/>
<g>
	<g>
		<polyline class="st6" points="696.9,191.8 694.8,188.3 692.7,188.5 690.6,192.1 688.5,192.4 686.4,192.6 684.3,200.4 682.2,205.8 
			680,204.1 677.9,198.8 675.8,188.9 673.7,194.5 671.6,196 669.5,193.3 667.4,183.5 665.2,183.9 663.1,176.8 661,173.9 
			658.9,188.8 656.8,207.3 654.7,213.6 652.6,219 650.4,207.1 648.3,208.3 646.2,211.6 644.1,217.1 642,223 639.9,214.2 
			637.8,216.7 635.7,217.9 633.5,214.1 631.4,211.8 629.3,212.6 627.2,215.2 625.1,210 623,208.2 620.9,196.3 618.7,208.3 
			616.6,209.1 614.5,206 612.4,210.6 610.3,204.8 608.2,194.7 606.1,197.8 604,195.3 601.8,195.9 599.7,198.2 597.6,191.1 
			595.5,199.4 593.4,201.5 591.3,203 589.2,201.7 587,206.9 584.9,197.6 582.8,211.4 580.7,202.7 578.6,197.6 576.5,190.9 
			574.4,181.2 572.2,199.2 570.1,193.4 568,190.8 565.9,190.4 563.8,181.7 561.7,184 559.6,195.1 557.5,206.2 555.3,206.6 
			553.2,209.6 551.1,217 549,218.5 546.9,223.8 544.8,230.8 542.7,227.2 540.5,228.8 538.4,236.4 536.3,228.5 534.2,235.1 
			532.1,232.6 530,231.7 527.9,233.6 525.8,248 523.6,252.2 521.5,252.4 519.4,255.2 517.3,261.1 515.2,272.6 513.1,268.7 
			511,266.5 508.8,274.1 506.7,272.9 504.6,276.9 502.5,277.6 500.4,281.7 498.3,279.5 496.2,269.1 494,270.1 491.9,276.5 
			489.8,275.9 487.7,278.4 485.6,288.5 483.5,297.9 481.4,293.2 479.3,293.9 477.1,293.9 475,305.2 472.9,309.5 470.8,312.9 
			468.7,319.3 466.6,318.3 464.5,319.3 462.3,315.1 460.2,318.1 458.1,315.4 456,317.1 453.9,321.5 451.8,323.9 449.7,319.6 
			447.6,321.2 445.4,321.5 443.3,323.5 441.2,324 439.1,331.3 437,326.8 434.9,329.7 432.8,335.6 430.6,340.4 428.5,336.9 
			426.4,336.2 424.3,341.2 422.2,340.4 420.1,341.1 418,336.9 415.8,337.8 413.7,330.2 411.6,330.6 409.5,333.7 407.4,339.9 
			405.3,339.5 403.2,340.1 401.1,337 398.9,340.1 396.8,342.7 394.7,345.7 392.6,350.1 390.5,349.5 388.4,347.8 386.3,353.4 
			384.1,351.9 382,356.1 379.9,356.7 377.8,355.5 375.7,356.6 373.6,359.2 371.5,365.7 369.4,365.7 367.2,365.1 365.1,368.3 
			363,365.9 360.9,365.9 358.8,364.8 356.7,363.1 354.6,363.5 352.4,363.7 350.3,366 348.2,365.4 346.1,367.7 344,364.6 
			341.9,366.3 339.8,367.1 337.6,363 335.5,367.4 333.4,369.5 331.3,370.1 329.2,368.6 327.1,367.2 325,370 322.9,371.7 
			320.7,371.2 318.6,376.2 316.5,375.3 314.4,374.6 312.3,378.7 310.2,379.7 308.1,380.2 305.9,379.8 303.8,384.5 301.7,384.2 
			299.6,387.9 297.5,385.9 295.4,391.1 293.3,394.4 291.2,394.6 289,395.6 286.9,393.6 284.8,393.1 282.7,396 280.6,399.4 
			278.5,400.6 276.4,401.7 274.2,404.5 272.1,408.9 270,409.1 267.9,409.5 265.8,411 263.7,412.4 261.6,411.8 259.4,414.2 
			257.3,415.7 255.2,415 253.1,414.5 251,415.3 248.9,416.6 246.8,418.5 244.7,420.7 242.5,420.5 240.4,420.3 238.3,418.9 
			236.2,418.5 234.1,418.9 232,418 229.9,417.2 227.7,418.1 225.6,415.5 223.5,416.4 221.4,413.4 219.3,411.2 217.2,412.6 
			215.1,413.2 213,414.6 210.8,411.2 208.7,411.6 206.6,411.8 204.5,415.1 202.4,415.7 200.3,415.6 198.2,415.6 196,416.7 
			193.9,417.1 191.8,416.8 189.7,417.4 187.6,417.5 185.5,416.7 183.4,417.3 181.2,415.6 179.1,415.2 177,418.1 174.9,419.2 
			172.8,420.9 170.7,421.5 168.6,423.9 166.5,423.5 164.3,424.8 162.2,422.6 160.1,424.3 158,424.7 155.9,425.6 153.8,427 
			151.7,429.4 149.5,429 147.4,429 145.3,430.3 143.2,431.8 141.1,430.4 139,429.8 136.9,429.4 134.8,428.5 132.6,430.6 
			130.5,430.5 128.4,431.9 126.3,431.7 124.2,430.5 122.1,431.3 120,430 117.8,432 115.7,433.4 113.6,436.9 111.5,438.2 
			109.4,439.8 107.3,440.2 105.2,441.5 103,442.5 100.9,441.7 98.8,443.3 96.7,444.6 94.6,445 92.5,444.9 90.4,445.5 88.3,445.5 
			86.1,445.4 84,446.7 81.9,448.1 79.8,448.5 77.7,447.6 75.6,448 73.5,449.3 71.3,449 69.2,449.2 67.1,450.4 65,450.1 62.9,450.6 
					"/>
	</g>
</g>
<g>
	<g>
		<line class="st6" x1="65" y1="450" x2="62.9" y2="450.6"/>
		<line class="st6" x1="67.1" y1="450.5" x2="65" y2="450"/>
		<line class="st6" x1="69.2" y1="449.1" x2="67.1" y2="450.5"/>
		<line class="st6" x1="71.3" y1="449" x2="69.2" y2="449.1"/>
		<line class="st6" x1="73.5" y1="449.5" x2="71.3" y2="449"/>
		<line class="st6" x1="75.6" y1="448.1" x2="73.5" y2="449.5"/>
		<line class="st6" x1="77.7" y1="447.6" x2="75.6" y2="448.1"/>
		<line class="st6" x1="79.8" y1="449" x2="77.7" y2="447.6"/>
		<line class="st6" x1="81.9" y1="448.5" x2="79.8" y2="449"/>
		<line class="st6" x1="84" y1="446.9" x2="81.9" y2="448.5"/>
		<line class="st6" x1="86.1" y1="445.6" x2="84" y2="446.9"/>
		<line class="st6" x1="88.3" y1="445.9" x2="86.1" y2="445.6"/>
		<line class="st6" x1="90.4" y1="446" x2="88.3" y2="445.9"/>
		<line class="st6" x1="92.5" y1="445.4" x2="90.4" y2="446"/>
		<line class="st6" x1="94.6" y1="445.8" x2="92.5" y2="445.4"/>
		<line class="st6" x1="96.7" y1="445.4" x2="94.6" y2="445.8"/>
		<line class="st6" x1="98.8" y1="444" x2="96.7" y2="445.4"/>
		<line class="st6" x1="100.9" y1="442.2" x2="98.8" y2="444"/>
		<line class="st6" x1="103" y1="443.3" x2="100.9" y2="442.2"/>
		<line class="st6" x1="105.2" y1="442.1" x2="103" y2="443.3"/>
		<line class="st6" x1="107.3" y1="440.6" x2="105.2" y2="442.1"/>
		<line class="st6" x1="109.4" y1="440.3" x2="107.3" y2="440.6"/>
		<line class="st6" x1="111.5" y1="438.5" x2="109.4" y2="440.3"/>
		<line class="st6" x1="113.6" y1="437" x2="111.5" y2="438.5"/>
		<line class="st6" x1="115.7" y1="432.8" x2="113.6" y2="437"/>
		<line class="st6" x1="117.8" y1="431.1" x2="115.7" y2="432.8"/>
		<line class="st6" x1="120" y1="428.6" x2="117.8" y2="431.1"/>
		<line class="st6" x1="122.1" y1="430.5" x2="120" y2="428.6"/>
		<line class="st6" x1="124.2" y1="429.7" x2="122.1" y2="430.5"/>
		<line class="st6" x1="126.3" y1="431.4" x2="124.2" y2="429.7"/>
		<line class="st6" x1="128.4" y1="431.6" x2="126.3" y2="431.4"/>
		<line class="st6" x1="130.5" y1="429.9" x2="128.4" y2="431.6"/>
		<line class="st6" x1="132.6" y1="430.1" x2="130.5" y2="429.9"/>
		<line class="st6" x1="134.8" y1="427.6" x2="132.6" y2="430.1"/>
		<line class="st6" x1="136.9" y1="428.9" x2="134.8" y2="427.6"/>
		<line class="st6" x1="139" y1="429.7" x2="136.9" y2="428.9"/>
		<line class="st6" x1="141.1" y1="430.6" x2="139" y2="429.7"/>
		<line class="st6" x1="143.2" y1="432.5" x2="141.1" y2="430.6"/>
		<line class="st6" x1="145.3" y1="430.8" x2="143.2" y2="432.5"/>
		<line class="st6" x1="147.4" y1="429.2" x2="145.3" y2="430.8"/>
		<line class="st6" x1="149.5" y1="429.3" x2="147.4" y2="429.2"/>
		<line class="st6" x1="151.7" y1="429.8" x2="149.5" y2="429.3"/>
		<line class="st6" x1="153.8" y1="427" x2="151.7" y2="429.8"/>
		<line class="st6" x1="155.9" y1="425.4" x2="153.8" y2="427"/>
		<line class="st6" x1="158" y1="424.5" x2="155.9" y2="425.4"/>
		<line class="st6" x1="160.1" y1="424.3" x2="158" y2="424.5"/>
		<line class="st6" x1="162.2" y1="422.2" x2="160.1" y2="424.3"/>
		<line class="st6" x1="164.3" y1="425.3" x2="162.2" y2="422.2"/>
		<line class="st6" x1="166.5" y1="423.8" x2="164.3" y2="425.3"/>
		<line class="st6" x1="168.6" y1="424.5" x2="166.5" y2="423.8"/>
		<line class="st6" x1="170.7" y1="421.5" x2="168.6" y2="424.5"/>
		<line class="st6" x1="172.8" y1="420.8" x2="170.7" y2="421.5"/>
		<line class="st6" x1="174.9" y1="418.9" x2="172.8" y2="420.8"/>
		<line class="st6" x1="177" y1="417.6" x2="174.9" y2="418.9"/>
		<line class="st6" x1="179.1" y1="413.9" x2="177" y2="417.6"/>
		<line class="st6" x1="181.2" y1="414.4" x2="179.1" y2="413.9"/>
		<line class="st6" x1="183.4" y1="416.7" x2="181.2" y2="414.4"/>
		<line class="st6" x1="185.5" y1="416.2" x2="183.4" y2="416.7"/>
		<line class="st6" x1="187.6" y1="417.5" x2="185.5" y2="416.2"/>
		<line class="st6" x1="189.7" y1="417.7" x2="187.6" y2="417.5"/>
		<line class="st6" x1="191.8" y1="417.1" x2="189.7" y2="417.7"/>
		<line class="st6" x1="193.9" y1="417.2" x2="191.8" y2="417.1"/>
		<line class="st6" x1="196" y1="417" x2="193.9" y2="417.2"/>
		<line class="st6" x1="198.2" y1="415.5" x2="196" y2="417"/>
		<line class="st6" x1="200.3" y1="415.6" x2="198.2" y2="415.5"/>
		<line class="st6" x1="202.4" y1="415.8" x2="200.3" y2="415.6"/>
		<line class="st6" x1="204.5" y1="415.3" x2="202.4" y2="415.8"/>
		<line class="st6" x1="206.6" y1="411.2" x2="204.5" y2="415.3"/>
		<line class="st6" x1="208.7" y1="411.1" x2="206.6" y2="411.2"/>
		<line class="st6" x1="210.8" y1="410.8" x2="208.7" y2="411.1"/>
		<line class="st6" x1="213" y1="415.5" x2="210.8" y2="410.8"/>
		<line class="st6" x1="215.1" y1="413.9" x2="213" y2="415.5"/>
		<line class="st6" x1="217.2" y1="413.4" x2="215.1" y2="413.9"/>
		<line class="st6" x1="219.3" y1="411.7" x2="217.2" y2="413.4"/>
		<line class="st6" x1="221.4" y1="414.6" x2="219.3" y2="411.7"/>
		<line class="st6" x1="223.5" y1="418.4" x2="221.4" y2="414.6"/>
		<line class="st6" x1="225.6" y1="417.6" x2="223.5" y2="418.4"/>
		<line class="st6" x1="227.7" y1="420.9" x2="225.6" y2="417.6"/>
		<line class="st6" x1="229.9" y1="420.1" x2="227.7" y2="420.9"/>
		<line class="st6" x1="232" y1="421.1" x2="229.9" y2="420.1"/>
		<line class="st6" x1="234.1" y1="422.1" x2="232" y2="421.1"/>
		<line class="st6" x1="236.2" y1="421.8" x2="234.1" y2="422.1"/>
		<line class="st6" x1="238.3" y1="422.5" x2="236.2" y2="421.8"/>
		<line class="st6" x1="240.4" y1="424.5" x2="238.3" y2="422.5"/>
		<line class="st6" x1="242.5" y1="424.8" x2="240.4" y2="424.5"/>
		<line class="st6" x1="244.7" y1="425.2" x2="242.5" y2="424.8"/>
		<line class="st6" x1="246.8" y1="422.8" x2="244.7" y2="425.2"/>
		<line class="st6" x1="248.9" y1="420.7" x2="246.8" y2="422.8"/>
		<line class="st6" x1="251" y1="419.4" x2="248.9" y2="420.7"/>
		<line class="st6" x1="253.1" y1="418.3" x2="251" y2="419.4"/>
		<line class="st6" x1="255.2" y1="419.1" x2="253.1" y2="418.3"/>
		<line class="st6" x1="257.3" y1="420.1" x2="255.2" y2="419.1"/>
		<line class="st6" x1="259.4" y1="418.6" x2="257.3" y2="420.1"/>
		<line class="st6" x1="261.6" y1="415.8" x2="259.4" y2="418.6"/>
		<line class="st6" x1="263.7" y1="416.8" x2="261.6" y2="415.8"/>
		<line class="st6" x1="265.8" y1="415.2" x2="263.7" y2="416.8"/>
		<line class="st6" x1="267.9" y1="413.6" x2="265.8" y2="415.2"/>
		<line class="st6" x1="270" y1="413.2" x2="267.9" y2="413.6"/>
		<line class="st6" x1="272.1" y1="413.2" x2="270" y2="413.2"/>
		<line class="st6" x1="274.2" y1="408" x2="272.1" y2="413.2"/>
		<line class="st6" x1="276.4" y1="404.8" x2="274.2" y2="408"/>
		<line class="st6" x1="278.5" y1="403.3" x2="276.4" y2="404.8"/>
		<line class="st6" x1="280.6" y1="402.2" x2="278.5" y2="403.3"/>
		<line class="st6" x1="282.7" y1="398.6" x2="280.6" y2="402.2"/>
		<line class="st6" x1="284.8" y1="395" x2="282.7" y2="398.6"/>
		<line class="st6" x1="286.9" y1="395.7" x2="284.8" y2="395"/>
		<line class="st6" x1="289" y1="398.4" x2="286.9" y2="395.7"/>
		<line class="st6" x1="291.2" y1="397.5" x2="289" y2="398.4"/>
		<line class="st6" x1="293.3" y1="397.4" x2="291.2" y2="397.5"/>
		<line class="st6" x1="295.4" y1="393.2" x2="293.3" y2="397.4"/>
		<line class="st6" x1="297.5" y1="386.6" x2="295.4" y2="393.2"/>
		<line class="st6" x1="299.6" y1="388.8" x2="297.5" y2="386.6"/>
		<line class="st6" x1="301.7" y1="384.3" x2="299.6" y2="388.8"/>
		<line class="st6" x1="303.8" y1="384.9" x2="301.7" y2="384.3"/>
		<line class="st6" x1="305.9" y1="378.7" x2="303.8" y2="384.9"/>
		<line class="st6" x1="308.1" y1="379.1" x2="305.9" y2="378.7"/>
		<line class="st6" x1="310.2" y1="378.6" x2="308.1" y2="379.1"/>
		<line class="st6" x1="312.3" y1="377.4" x2="310.2" y2="378.6"/>
		<line class="st6" x1="314.4" y1="372.6" x2="312.3" y2="377.4"/>
		<line class="st6" x1="316.5" y1="373.7" x2="314.4" y2="372.6"/>
		<line class="st6" x1="318.6" y1="374.8" x2="316.5" y2="373.7"/>
		<line class="st6" x1="320.7" y1="368.4" x2="318.6" y2="374.8"/>
		<line class="st6" x1="322.9" y1="368.9" x2="320.7" y2="368.4"/>
		<line class="st6" x1="325" y1="366.9" x2="322.9" y2="368.9"/>
		<line class="st6" x1="327.1" y1="363.3" x2="325" y2="366.9"/>
		<line class="st6" x1="329.2" y1="365.7" x2="327.1" y2="363.3"/>
		<line class="st6" x1="331.3" y1="367.9" x2="329.2" y2="365.7"/>
		<line class="st6" x1="333.4" y1="367.5" x2="331.3" y2="367.9"/>
		<line class="st6" x1="335.5" y1="365.2" x2="333.4" y2="367.5"/>
		<line class="st6" x1="337.6" y1="359.6" x2="335.5" y2="365.2"/>
		<line class="st6" x1="339.8" y1="365.4" x2="337.6" y2="359.6"/>
		<line class="st6" x1="341.9" y1="364.3" x2="339.8" y2="365.4"/>
		<line class="st6" x1="344" y1="362.2" x2="341.9" y2="364.3"/>
		<line class="st6" x1="346.1" y1="366.8" x2="344" y2="362.2"/>
		<line class="st6" x1="348.2" y1="363.9" x2="346.1" y2="366.8"/>
		<line class="st6" x1="350.3" y1="365" x2="348.2" y2="363.9"/>
		<line class="st6" x1="352.4" y1="362.2" x2="350.3" y2="365"/>
		<line class="st6" x1="354.6" y1="362.3" x2="352.4" y2="362.2"/>
		<line class="st6" x1="356.7" y1="362.3" x2="354.6" y2="362.3"/>
		<line class="st6" x1="358.8" y1="364.6" x2="356.7" y2="362.3"/>
		<line class="st6" x1="360.9" y1="366.3" x2="358.8" y2="364.6"/>
		<line class="st6" x1="363" y1="366.4" x2="360.9" y2="366.3"/>
		<line class="st6" x1="365.1" y1="369.5" x2="363" y2="366.4"/>
		<line class="st6" x1="367.2" y1="365.8" x2="365.1" y2="369.5"/>
		<line class="st6" x1="369.4" y1="366.9" x2="367.2" y2="365.8"/>
		<line class="st6" x1="371.5" y1="366.8" x2="369.4" y2="366.9"/>
		<line class="st6" x1="373.6" y1="358.8" x2="371.5" y2="366.8"/>
		<line class="st6" x1="375.7" y1="355.2" x2="373.6" y2="358.8"/>
		<line class="st6" x1="377.8" y1="354.2" x2="375.7" y2="355.2"/>
		<line class="st6" x1="379.9" y1="355.9" x2="377.8" y2="354.2"/>
		<line class="st6" x1="382" y1="355.2" x2="379.9" y2="355.9"/>
		<line class="st6" x1="384.1" y1="350.3" x2="382" y2="355.2"/>
		<line class="st6" x1="386.3" y1="353" x2="384.1" y2="350.3"/>
		<line class="st6" x1="388.4" y1="345.9" x2="386.3" y2="353"/>
		<line class="st6" x1="390.5" y1="348.5" x2="388.4" y2="345.9"/>
		<line class="st6" x1="392.6" y1="349.4" x2="390.5" y2="348.5"/>
		<line class="st6" x1="394.7" y1="343.7" x2="392.6" y2="349.4"/>
		<line class="st6" x1="396.8" y1="340" x2="394.7" y2="343.7"/>
		<line class="st6" x1="398.9" y1="337.2" x2="396.8" y2="340"/>
		<line class="st6" x1="401.1" y1="332.8" x2="398.9" y2="337.2"/>
		<line class="st6" x1="403.2" y1="337.4" x2="401.1" y2="332.8"/>
		<line class="st6" x1="405.3" y1="336.8" x2="403.2" y2="337.4"/>
		<line class="st6" x1="407.4" y1="337.6" x2="405.3" y2="336.8"/>
		<line class="st6" x1="409.5" y1="329.7" x2="407.4" y2="337.6"/>
		<line class="st6" x1="411.6" y1="325.8" x2="409.5" y2="329.7"/>
		<line class="st6" x1="413.7" y1="325" x2="411.6" y2="325.8"/>
		<line class="st6" x1="415.8" y1="335.4" x2="413.7" y2="325"/>
		<line class="st6" x1="418" y1="334.6" x2="415.8" y2="335.4"/>
		<line class="st6" x1="420.1" y1="340.8" x2="418" y2="334.6"/>
		<line class="st6" x1="422.2" y1="340.5" x2="420.1" y2="340.8"/>
		<line class="st6" x1="424.3" y1="341.9" x2="422.2" y2="340.5"/>
		<line class="st6" x1="426.4" y1="335.5" x2="424.3" y2="341.9"/>
		<line class="st6" x1="428.5" y1="336.8" x2="426.4" y2="335.5"/>
		<line class="st6" x1="430.6" y1="341.7" x2="428.5" y2="336.8"/>
		<line class="st6" x1="432.8" y1="335.3" x2="430.6" y2="341.7"/>
		<line class="st6" x1="434.9" y1="328.1" x2="432.8" y2="335.3"/>
		<line class="st6" x1="437" y1="324.7" x2="434.9" y2="328.1"/>
		<line class="st6" x1="439.1" y1="330.8" x2="437" y2="324.7"/>
		<line class="st6" x1="441.2" y1="321.4" x2="439.1" y2="330.8"/>
		<line class="st6" x1="443.3" y1="321.1" x2="441.2" y2="321.4"/>
		<line class="st6" x1="445.4" y1="318.8" x2="443.3" y2="321.1"/>
		<line class="st6" x1="447.6" y1="317.8" x2="445.4" y2="318.8"/>
		<line class="st6" x1="449.7" y1="315.2" x2="447.6" y2="317.8"/>
		<line class="st6" x1="451.8" y1="321.4" x2="449.7" y2="315.2"/>
		<line class="st6" x1="453.9" y1="318.3" x2="451.8" y2="321.4"/>
		<line class="st6" x1="456" y1="312.8" x2="453.9" y2="318.3"/>
		<line class="st6" x1="458.1" y1="310.9" x2="456" y2="312.8"/>
		<line class="st6" x1="460.2" y1="315.4" x2="458.1" y2="310.9"/>
		<line class="st6" x1="462.3" y1="311.8" x2="460.2" y2="315.4"/>
		<line class="st6" x1="464.5" y1="317.4" x2="462.3" y2="311.8"/>
		<line class="st6" x1="466.6" y1="316.3" x2="464.5" y2="317.4"/>
		<line class="st6" x1="468.7" y1="318.2" x2="466.6" y2="316.3"/>
		<line class="st6" x1="470.8" y1="309.9" x2="468.7" y2="318.2"/>
		<line class="st6" x1="472.9" y1="305.8" x2="470.8" y2="309.9"/>
		<line class="st6" x1="475" y1="300.4" x2="472.9" y2="305.8"/>
		<line class="st6" x1="477.1" y1="285.6" x2="475" y2="300.4"/>
		<line class="st6" x1="479.3" y1="285.9" x2="477.1" y2="285.6"/>
		<line class="st6" x1="481.4" y1="285.2" x2="479.3" y2="285.9"/>
		<line class="st6" x1="483.5" y1="291.9" x2="481.4" y2="285.2"/>
		<line class="st6" x1="485.6" y1="279.2" x2="483.5" y2="291.9"/>
		<line class="st6" x1="487.7" y1="265.7" x2="485.6" y2="279.2"/>
		<line class="st6" x1="489.8" y1="261.7" x2="487.7" y2="265.7"/>
		<line class="st6" x1="491.9" y1="261.9" x2="489.8" y2="261.7"/>
		<line class="st6" x1="494" y1="253.1" x2="491.9" y2="261.9"/>
		<line class="st6" x1="496.2" y1="252.4" x2="494" y2="253.1"/>
		<line class="st6" x1="498.3" y1="266.3" x2="496.2" y2="252.4"/>
		<line class="st6" x1="500.4" y1="269.7" x2="498.3" y2="266.3"/>
		<line class="st6" x1="502.5" y1="264.1" x2="500.4" y2="269.7"/>
		<line class="st6" x1="504.6" y1="263.4" x2="502.5" y2="264.1"/>
		<line class="st6" x1="506.7" y1="258.6" x2="504.6" y2="263.4"/>
		<line class="st6" x1="508.8" y1="261" x2="506.7" y2="258.6"/>
		<line class="st6" x1="511" y1="250.9" x2="508.8" y2="261"/>
		<line class="st6" x1="513.1" y1="253.3" x2="511" y2="250.9"/>
		<line class="st6" x1="515.2" y1="259.2" x2="513.1" y2="253.3"/>
		<line class="st6" x1="517.3" y1="243.1" x2="515.2" y2="259.2"/>
		<line class="st6" x1="519.4" y1="235.1" x2="517.3" y2="243.1"/>
		<line class="st6" x1="521.5" y1="232.5" x2="519.4" y2="235.1"/>
		<line class="st6" x1="523.6" y1="232.2" x2="521.5" y2="232.5"/>
		<line class="st6" x1="525.8" y1="227.1" x2="523.6" y2="232.2"/>
		<line class="st6" x1="527.9" y1="207.3" x2="525.8" y2="227.1"/>
		<line class="st6" x1="530" y1="204.6" x2="527.9" y2="207.3"/>
		<line class="st6" x1="532.1" y1="205.1" x2="530" y2="204.6"/>
		<line class="st6" x1="534.2" y1="208.8" x2="532.1" y2="205.1"/>
		<line class="st6" x1="536.3" y1="199.3" x2="534.2" y2="208.8"/>
		<line class="st6" x1="538.4" y1="210.5" x2="536.3" y2="199.3"/>
		<line class="st6" x1="540.5" y1="200.7" x2="538.4" y2="210.5"/>
		<line class="st6" x1="542.7" y1="197.3" x2="540.5" y2="200.7"/>
		<line class="st6" x1="544.8" y1="202.7" x2="542.7" y2="197.3"/>
		<line class="st6" x1="546.9" y1="193.5" x2="544.8" y2="202.7"/>
		<line class="st6" x1="549" y1="185.5" x2="546.9" y2="193.5"/>
		<line class="st6" x1="551.1" y1="185.1" x2="549" y2="185.5"/>
		<line class="st6" x1="553.2" y1="174.9" x2="551.1" y2="185.1"/>
		<line class="st6" x1="555.3" y1="171.3" x2="553.2" y2="174.9"/>
		<line class="st6" x1="557.5" y1="170.6" x2="555.3" y2="171.3"/>
		<line class="st6" x1="559.6" y1="153.7" x2="557.5" y2="170.6"/>
		<line class="st6" x1="561.7" y1="137.5" x2="559.6" y2="153.7"/>
		<line class="st6" x1="563.8" y1="135.1" x2="561.7" y2="137.5"/>
		<line class="st6" x1="565.9" y1="148.3" x2="563.8" y2="135.1"/>
		<line class="st6" x1="568" y1="149.8" x2="565.9" y2="148.3"/>
		<line class="st6" x1="570.1" y1="154.1" x2="568" y2="149.8"/>
		<line class="st6" x1="572.2" y1="163.8" x2="570.1" y2="154.1"/>
		<line class="st6" x1="574.4" y1="137.1" x2="572.2" y2="163.8"/>
		<line class="st6" x1="576.5" y1="152.2" x2="574.4" y2="137.1"/>
		<line class="st6" x1="578.6" y1="161.9" x2="576.5" y2="152.2"/>
		<line class="st6" x1="580.7" y1="168.7" x2="578.6" y2="161.9"/>
		<line class="st6" x1="582.8" y1="180.7" x2="580.7" y2="168.7"/>
		<line class="st6" x1="584.9" y1="160.5" x2="582.8" y2="180.7"/>
		<line class="st6" x1="587" y1="173.9" x2="584.9" y2="160.5"/>
		<line class="st6" x1="589.2" y1="166.2" x2="587" y2="173.9"/>
		<line class="st6" x1="591.3" y1="167.2" x2="589.2" y2="166.2"/>
		<line class="st6" x1="593.4" y1="165.1" x2="591.3" y2="167.2"/>
		<line class="st6" x1="595.5" y1="160.7" x2="593.4" y2="165.1"/>
		<line class="st6" x1="597.6" y1="148.4" x2="595.5" y2="160.7"/>
		<line class="st6" x1="599.7" y1="158.3" x2="597.6" y2="148.4"/>
		<line class="st6" x1="601.8" y1="155.9" x2="599.7" y2="158.3"/>
		<line class="st6" x1="604" y1="155.9" x2="601.8" y2="155.9"/>
		<line class="st6" x1="606.1" y1="160.6" x2="604" y2="155.9"/>
		<line class="st6" x1="608.2" y1="156.5" x2="606.1" y2="160.6"/>
		<line class="st6" x1="610.3" y1="172" x2="608.2" y2="156.5"/>
		<line class="st6" x1="612.4" y1="180.1" x2="610.3" y2="172"/>
		<line class="st6" x1="614.5" y1="174.1" x2="612.4" y2="180.1"/>
		<line class="st6" x1="616.6" y1="178.3" x2="614.5" y2="174.1"/>
		<line class="st6" x1="618.7" y1="177.5" x2="616.6" y2="178.3"/>
		<line class="st6" x1="620.9" y1="161.9" x2="618.7" y2="177.5"/>
		<line class="st6" x1="623" y1="180" x2="620.9" y2="161.9"/>
		<line class="st6" x1="625.1" y1="183.2" x2="623" y2="180"/>
		<line class="st6" x1="627.2" y1="190.3" x2="625.1" y2="183.2"/>
		<line class="st6" x1="629.3" y1="187.7" x2="627.2" y2="190.3"/>
		<line class="st6" x1="631.4" y1="186.6" x2="629.3" y2="187.7"/>
		<line class="st6" x1="633.5" y1="190.2" x2="631.4" y2="186.6"/>
		<line class="st6" x1="635.7" y1="194.8" x2="633.5" y2="190.2"/>
		<line class="st6" x1="637.8" y1="193.3" x2="635.7" y2="194.8"/>
		<line class="st6" x1="639.9" y1="189.7" x2="637.8" y2="193.3"/>
		<line class="st6" x1="642" y1="202.5" x2="639.9" y2="189.7"/>
		<line class="st6" x1="644.1" y1="194.4" x2="642" y2="202.5"/>
		<line class="st6" x1="646.2" y1="187.9" x2="644.1" y2="194.4"/>
		<line class="st6" x1="648.3" y1="182.4" x2="646.2" y2="187.9"/>
		<line class="st6" x1="650.4" y1="180.5" x2="648.3" y2="182.4"/>
		<line class="st6" x1="652.6" y1="196.9" x2="650.4" y2="180.5"/>
		<line class="st6" x1="654.7" y1="189.2" x2="652.6" y2="196.9"/>
		<line class="st6" x1="656.8" y1="181.1" x2="654.7" y2="189.2"/>
		<line class="st6" x1="658.9" y1="154.1" x2="656.8" y2="181.1"/>
		<line class="st6" x1="661" y1="132.1" x2="658.9" y2="154.1"/>
		<line class="st6" x1="663.1" y1="136.6" x2="661" y2="132.1"/>
		<line class="st6" x1="665.2" y1="145.5" x2="663.1" y2="136.6"/>
		<line class="st6" x1="667.4" y1="144.3" x2="665.2" y2="145.5"/>
		<line class="st6" x1="669.5" y1="159.2" x2="667.4" y2="144.3"/>
		<line class="st6" x1="671.6" y1="163.4" x2="669.5" y2="159.2"/>
		<line class="st6" x1="673.7" y1="162.8" x2="671.6" y2="163.4"/>
		<line class="st6" x1="675.8" y1="155.7" x2="673.7" y2="162.8"/>
		<line class="st6" x1="677.9" y1="170.2" x2="675.8" y2="155.7"/>
		<line class="st6" x1="680" y1="177.8" x2="677.9" y2="170.2"/>
		<line class="st6" x1="682.2" y1="180.2" x2="680" y2="177.8"/>
		<line class="st6" x1="684.3" y1="173.3" x2="682.2" y2="180.2"/>
		<line class="st6" x1="686.4" y1="162.6" x2="684.3" y2="173.3"/>
		<line class="st6" x1="688.5" y1="161.9" x2="686.4" y2="162.6"/>
		<line class="st6" x1="690.6" y1="161.4" x2="688.5" y2="161.9"/>
		<line class="st6" x1="692.7" y1="156.1" x2="690.6" y2="161.4"/>
		<line class="st6" x1="694.8" y1="156.5" x2="692.7" y2="156.1"/>
		<line class="st6" x1="696.9" y1="162.9" x2="694.8" y2="156.5"/>
	</g>
</g>
<g>
	<g>
		<polyline class="st6" points="696.9,254.4 694.8,255.7 692.7,256.9 690.6,257.4 688.5,257.6 686.4,257.3 684.3,260 682.2,262.2 
			680,262 677.9,261.1 675.8,259.5 673.7,262.1 671.6,264.8 669.5,264.9 667.4,263.5 665.2,263 663.1,259.5 661,259.2 658.9,261.8 
			656.8,265.1 654.7,268.2 652.6,269.5 650.4,266.3 648.3,266.2 646.2,265.3 644.1,268.7 642,270.2 639.9,268.5 637.8,268.8 
			635.7,269.7 633.5,268.1 631.4,268.6 629.3,269.4 627.2,271.1 625.1,269.5 623,270 620.9,268.4 618.7,273.4 616.6,274.4 
			614.5,273.5 612.4,275.6 610.3,273.8 608.2,272.7 606.1,274.3 604,275 601.8,276.4 599.7,278.3 597.6,276.1 595.5,277.7 
			593.4,276.5 591.3,277.2 589.2,275.8 587,276.7 584.9,274.9 582.8,277.3 580.7,274.7 578.6,272.8 576.5,271.5 574.4,270.5 
			572.2,273.5 570.1,274 568,274.2 565.9,275.4 563.8,274.2 561.7,275.9 559.6,278.8 557.5,280.4 555.3,280.4 553.2,282 
			551.1,284.1 549,287.3 546.9,288.4 544.8,291 542.7,290.5 540.5,289.5 538.4,292.5 536.3,290.5 534.2,291.8 532.1,291.4 
			530,290.2 527.9,291.1 525.8,295.1 523.6,297.5 521.5,297.5 519.4,300.4 517.3,302.3 515.2,304.9 513.1,304.7 511,303.3 
			508.8,305.8 506.7,306.8 504.6,309.1 502.5,309.8 500.4,310.7 498.3,310.6 496.2,307.4 494,308.4 491.9,310 489.8,309.1 
			487.7,309.2 485.6,312.6 483.5,314.7 481.4,314.1 479.3,315 477.1,315.5 475,319.3 472.9,321 470.8,322.6 468.7,324.8 
			466.6,325.8 464.5,326.4 462.3,325.4 460.2,326.7 458.1,327.9 456,329.2 453.9,331.1 451.8,332.2 449.7,331.6 447.6,331.1 
			445.4,330.2 443.3,331.5 441.2,332.5 439.1,334.8 437,334.1 434.9,335.8 432.8,338.4 430.6,339.6 428.5,339.5 426.4,340.3 
			424.3,342 422.2,342.6 420.1,344.4 418,344.7 415.8,345.7 413.7,343.9 411.6,343.7 409.5,345.2 407.4,347.4 405.3,347.9 
			403.2,348.5 401.1,348.9 398.9,349.2 396.8,351.1 394.7,352.5 392.6,354 390.5,353.7 388.4,354.2 386.3,356 384.1,357.2 
			382,359.6 379.9,360 377.8,360 375.7,361 373.6,361.3 371.5,364 369.4,363.6 367.2,364.5 365.1,366.4 363,365.8 360.9,366.2 
			358.8,366.5 356.7,366.4 354.6,367.4 352.4,368.1 350.3,369.3 348.2,369.7 346.1,370.7 344,370.9 341.9,371.6 339.8,371.8 
			337.6,371.3 335.5,373.1 333.4,374.6 331.3,375.7 329.2,375.9 327.1,376.3 325,377.5 322.9,378.5 320.7,378.5 318.6,380.2 
			316.5,379.7 314.4,380 312.3,382.2 310.2,382.9 308.1,383.4 305.9,382.9 303.8,384.3 301.7,384.6 299.6,386.1 297.5,384.9 
			295.4,386.4 293.3,387.4 291.2,387.9 289,389.4 286.9,389.1 284.8,389.4 282.7,390.6 280.6,392.9 278.5,394.3 276.4,394.6 
			274.2,396.2 272.1,397.9 270,398.5 267.9,399.2 265.8,400.4 263.7,401.1 261.6,401.5 259.4,402.6 257.3,404 255.2,404.4 
			253.1,404.6 251,404.9 248.9,405.9 246.8,407.2 244.7,408.4 242.5,408.9 240.4,409.2 238.3,409.4 236.2,409.8 234.1,410.3 
			232,409.7 229.9,409.8 227.7,410.8 225.6,410.3 223.5,411.2 221.4,410.6 219.3,410 217.2,410.4 215.1,411.6 213,412.4 210.8,412 
			208.7,412.7 206.6,412.9 204.5,414.6 202.4,415.3 200.3,415.5 198.2,415.7 196,415.9 193.9,416.8 191.8,416.2 189.7,416.7 
			187.6,417.3 185.5,417.9 183.4,418.6 181.2,418.3 179.1,418.2 177,419.2 174.9,420.1 172.8,421.2 170.7,421.5 168.6,422.6 
			166.5,422.8 164.3,423.8 162.2,423.4 160.1,424.4 158,425.2 155.9,425.8 153.8,426.9 151.7,428.2 149.5,428.1 147.4,428.5 
			145.3,429 143.2,429.9 141.1,429.8 139,430.1 136.9,430.4 134.8,430.5 132.6,431.7 130.5,431.9 128.4,432.5 126.3,432.6 
			124.2,432.5 122.1,433.2 120,433.3 117.8,433.9 115.7,434.9 113.6,436.6 111.5,437.5 109.4,438.5 107.3,439.2 105.2,439.9 
			103,440.3 100.9,440.4 98.8,441.5 96.7,442.5 94.6,442.9 92.5,443.4 90.4,444 88.3,444.3 86.1,444.9 84,446.2 81.9,447 
			79.8,447.4 77.7,447.5 75.6,447.9 73.5,448.7 71.3,448.9 69.2,449.3 67.1,450 65,450.2 62.9,450.6 		"/>
	</g>
</g>
<g>
	<g>
		<polyline class="st6" points="696.9,244.1 694.8,244.8 692.7,245.8 690.6,246.8 688.5,247 686.4,246.7 684.3,250.1 682.2,252.8 
			680,252.3 677.9,250.8 675.8,247.8 673.7,251 671.6,253.6 669.5,253.2 667.4,250.6 665.2,250.2 663.1,246 661,245.3 658.9,249.7 
			656.8,255.3 654.7,258.8 652.6,260.8 650.4,256.1 648.3,256.3 646.2,256 644.1,259.8 642,262.1 639.9,259.4 637.8,260 
			635.7,260.9 633.5,258.7 631.4,258.7 629.3,259.4 627.2,261.4 625.1,259.3 623,259.5 620.9,256.5 618.7,262.6 616.6,263.5 
			614.5,262.3 612.4,264.8 610.3,262.4 608.2,259.9 606.1,261.7 604,262 601.8,263.4 599.7,265.4 597.6,262.4 595.5,265 
			593.4,264.2 591.3,264.9 589.2,263.4 587,265 584.9,261.9 582.8,266 580.7,262.5 578.6,260 576.5,257.9 574.4,255.7 572.2,260.9 
			570.1,260.5 568,260.3 565.9,261.3 563.8,259 561.7,260.9 559.6,264.9 557.5,267.9 555.3,267.9 553.2,269.8 551.1,272.7 
			549,275.8 546.9,277.4 544.8,280.8 542.7,279.8 540.5,279 538.4,282.9 536.3,280 534.2,282.2 532.1,281.5 530,280.2 527.9,281.2 
			525.8,286.8 523.6,289.6 521.5,289.7 519.4,292.6 517.3,295.1 515.2,299.1 513.1,298.4 511,296.8 508.8,300.2 506.7,300.8 
			504.6,303.4 502.5,304.1 500.4,305.6 498.3,305.2 496.2,300.8 494,301.9 491.9,304.3 489.8,303.3 487.7,303.6 485.6,308.1 
			483.5,311.5 481.4,310.2 479.3,311 477.1,311.5 475,316.5 472.9,318.7 470.8,320.7 468.7,323.7 466.6,324.3 464.5,325.1 
			462.3,323.4 460.2,325.1 458.1,325.6 456,327 453.9,329.4 451.8,330.7 449.7,329.4 447.6,329.3 445.4,328.6 443.3,330 
			441.2,330.8 439.1,334 437,332.6 434.9,334.6 432.8,337.8 430.6,339.6 428.5,338.9 426.4,339.4 424.3,341.6 422.2,342 
			420.1,343.5 418,343.1 415.8,344.1 413.7,341.3 411.6,341.1 409.5,342.9 407.4,345.8 405.3,346.2 403.2,346.7 401.1,346.6 
			398.9,347.3 396.8,349.3 394.7,351 392.6,353.1 390.5,352.7 388.4,352.9 386.3,355.4 384.1,356.2 382,358.9 379.9,359.3 
			377.8,359.1 375.7,360.2 373.6,361 371.5,364.3 369.4,364 367.2,364.6 365.1,366.8 363,365.8 360.9,366.1 358.8,366.1 
			356.7,365.7 354.6,366.7 352.4,367.3 350.3,368.7 348.2,369 346.1,370.2 344,369.8 341.9,370.7 339.8,371 337.6,369.9 
			335.5,372.2 333.4,373.8 331.3,374.8 329.2,374.7 327.1,374.8 325,376.3 322.9,377.4 320.7,377.2 318.6,379.5 316.5,378.9 
			314.4,379.1 312.3,381.6 310.2,382.4 308.1,382.9 305.9,382.4 303.8,384.4 301.7,384.5 299.6,386.5 297.5,385.1 295.4,387.3 
			293.3,388.7 291.2,389.1 289,390.6 286.9,389.9 284.8,390 282.7,391.5 280.6,394.1 278.5,395.5 276.4,396 274.2,397.8 272.1,400 
			270,400.6 267.9,401.3 265.8,402.5 263.7,403.4 261.6,403.5 259.4,404.9 257.3,406.4 255.2,406.6 253.1,406.6 251,407 
			248.9,408.1 246.8,409.5 244.7,410.9 242.5,411.3 240.4,411.5 238.3,411.4 236.2,411.6 234.1,412.1 232,411.5 229.9,411.3 
			227.7,412.4 225.6,411.4 223.5,412.4 221.4,411.3 219.3,410.4 217.2,411 215.1,412.1 213,413 210.8,412 208.7,412.6 206.6,412.8 
			204.5,414.8 202.4,415.6 200.3,415.7 198.2,415.9 196,416.2 193.9,417 191.8,416.5 189.7,416.9 187.6,417.5 185.5,417.8 
			183.4,418.5 181.2,418 179.1,417.8 177,419.1 174.9,420.1 172.8,421.2 170.7,421.6 168.6,422.9 166.5,423 164.3,424.1 
			162.2,423.3 160.1,424.4 158,425.2 155.9,425.9 153.8,427 151.7,428.5 149.5,428.3 147.4,428.7 145.3,429.3 143.2,430.4 
			141.1,430 139,430.1 136.9,430.2 134.8,430.2 132.6,431.6 130.5,431.7 128.4,432.5 126.3,432.5 124.2,432.2 122.1,432.9 
			120,432.7 117.8,433.6 115.7,434.6 113.6,436.7 111.5,437.7 109.4,438.8 107.3,439.4 105.2,440.3 103,440.8 100.9,440.7 
			98.8,441.9 96.7,442.9 94.6,443.3 92.5,443.7 90.4,444.3 88.3,444.6 86.1,445 84,446.3 81.9,447.3 79.8,447.6 77.7,447.5 
			75.6,447.9 73.5,448.8 71.3,448.9 69.2,449.3 67.1,450.1 65,450.2 62.9,450.6 		"/>
	</g>
</g>
<g>
	<g>
		<polyline class="st7" points="696.9,218.7 694.8,217.6 692.7,218.2 690.6,220.3 688.5,220.6 686.4,220.4 684.3,225.9 682.2,229.8 
			680,228.8 677.9,225.5 675.8,219.4 673.7,223.7 671.6,225.9 669.5,224.4 667.4,218.7 665.2,218.6 663.1,213 661,211.3 
			658.9,220.4 656.8,231.9 654.7,236.7 652.6,240.3 650.4,232.3 648.3,232.9 646.2,234.2 644.1,238.9 642,242.8 639.9,237.3 
			637.8,238.8 635.7,239.8 633.5,236.9 631.4,235.9 629.3,236.6 627.2,238.8 625.1,235.3 623,234.6 620.9,227.6 618.7,236.5 
			616.6,237.4 614.5,235.3 612.4,238.8 610.3,234.8 608.2,228.9 606.1,231.3 604,230.4 601.8,231.4 599.7,233.6 597.6,228.7 
			595.5,233.9 593.4,234.2 591.3,235.3 589.2,233.8 587,237 584.9,231.1 582.8,239.6 580.7,233.7 578.6,229.9 576.5,225.8 
			574.4,220.3 572.2,231.1 570.1,228.4 568,227.1 565.9,227.5 563.8,222.5 561.7,224.6 559.6,231.7 557.5,238.3 555.3,238.5 
			553.2,240.9 551.1,245.8 549,248.3 546.9,251.5 544.8,256.6 542.7,254.3 540.5,254.6 538.4,260.2 536.3,255 534.2,259.2 
			532.1,257.7 530,256.5 527.9,257.9 525.8,267.6 523.6,271.1 521.5,271.3 519.4,274.2 517.3,278.2 515.2,285.8 513.1,283.6 
			511,281.6 508.8,287 506.7,286.7 504.6,290 502.5,290.7 500.4,293.4 498.3,292.2 496.2,284.9 494,286 491.9,290.3 489.8,289.4 
			487.7,290.7 485.6,297.9 483.5,304.2 481.4,301.2 479.3,302 477.1,302.3 475,310.4 472.9,313.6 470.8,316.2 468.7,321 
			466.6,320.9 464.5,321.7 462.3,318.7 460.2,321.1 458.1,320 456,321.6 453.9,325 451.8,326.9 449.7,324.1 447.6,324.7 
			445.4,324.6 443.3,326.2 441.2,327 439.1,332.2 437,329.3 434.9,331.7 432.8,336.3 430.6,339.6 428.5,337.5 426.4,337.4 
			424.3,341.1 422.2,340.8 420.1,342 418,339.7 415.8,340.7 413.7,335.5 411.6,335.6 409.5,338.1 407.4,342.5 405.3,342.6 
			403.2,343.1 401.1,341.6 398.9,343.4 396.8,345.7 394.7,348.1 392.6,351.3 390.5,350.8 388.4,350.1 386.3,354.2 384.1,353.9 
			382,357.3 379.9,357.8 377.8,357.1 375.7,358.2 373.6,359.8 371.5,364.8 369.4,364.6 367.2,364.7 365.1,367.4 363,365.7 
			360.9,365.8 358.8,365.2 356.7,364.2 354.6,364.9 352.4,365.3 350.3,367.1 348.2,367 346.1,368.8 344,367 341.9,368.4 
			339.8,368.8 337.6,366.3 335.5,369.6 333.4,371.5 331.3,372.3 329.2,371.5 327.1,370.9 325,373 322.9,374.5 320.7,374.1 
			318.6,377.7 316.5,377 314.4,376.7 312.3,380 310.2,380.9 308.1,381.4 305.9,380.9 303.8,384.3 301.7,384.2 299.6,387 
			297.5,385.4 295.4,389.1 293.3,391.5 291.2,391.7 289,393 286.9,391.6 284.8,391.4 282.7,393.7 280.6,396.7 278.5,398 
			276.4,398.8 274.2,401.1 272.1,404.5 270,404.9 267.9,405.4 265.8,406.8 263.7,408 261.6,407.7 259.4,409.7 257.3,411.1 
			255.2,410.9 253.1,410.6 251,411.2 248.9,412.4 246.8,414.2 244.7,416 242.5,416 240.4,416 238.3,415.2 236.2,415.1 234.1,415.5 
			232,414.8 229.9,414.3 227.7,415.2 225.6,413.5 223.5,414.3 221.4,412.3 219.3,410.7 217.2,411.7 215.1,412.6 213,413.8 
			210.8,411.6 208.7,412.1 206.6,412.3 204.5,415 202.4,415.6 200.3,415.6 198.2,415.7 196,416.4 193.9,417 191.8,416.6 
			189.7,417.1 187.6,417.4 185.5,417.2 183.4,417.9 181.2,416.8 179.1,416.5 177,418.6 174.9,419.6 172.8,421 170.7,421.5 
			168.6,423.4 166.5,423.2 164.3,424.4 162.2,422.9 160.1,424.4 158,425 155.9,425.7 153.8,427 151.7,428.9 149.5,428.6 
			147.4,428.8 145.3,429.8 143.2,431.1 141.1,430.2 139,429.9 136.9,429.8 134.8,429.3 132.6,431.1 130.5,431.1 128.4,432.1 
			126.3,432.1 124.2,431.3 122.1,432.1 120,431.3 117.8,432.7 115.7,434 113.6,436.8 111.5,437.9 109.4,439.3 107.3,439.8 
			105.2,440.8 103,441.6 100.9,441.2 98.8,442.6 96.7,443.7 94.6,444.2 92.5,444.3 90.4,444.9 88.3,445 86.1,445.2 84,446.5 
			81.9,447.7 79.8,448.1 77.7,447.6 75.6,448 73.5,449.1 71.3,449 69.2,449.3 67.1,450.3 65,450.1 62.9,450.6 		"/>
	</g>
</g>
<text transform="matrix(1 0 0 1 42.9901 481)" class="st1 st4 st3">0</text>
<text transform="matrix(1 0 0 1 34.6878 404.3333)" class="st1 st4 st3">30</text>
<text transform="matrix(1 0 0 1 34.2122 325.6667)" class="st1 st4 st3">60</text>
<text transform="matrix(1 0 0 1 34.2122 246.3333)" class="st1 st4 st3">90</text>
<text transform="matrix(1 0 0 1 30.1522 170.3333)" class="st1 st4 st3">120</text>
<text transform="matrix(1 0 0 1 29.97 92.3333)" class="st1 st4 st3">150</text>
<text transform="matrix(1 0 0 1 29.7181 15.3333)" class="st1 st4 st3">180</text>
</svg>
