<?xml version="1.0" encoding="utf-8"?>
<!-- Generator: Adobe Illustrator 19.0.0, SVG Export Plug-In . SVG Version: 6.00 Build 0)  -->
<svg version="1.1" id="_x31_st-Defensive" xmlns="http://www.w3.org/2000/svg" xmlns:xlink="http://www.w3.org/1999/xlink" x="0px"
	 y="0px" viewBox="0 0 586 674" style="enable-background:new 0 0 586 674;" xml:space="preserve">
<style type="text/css">
	.st0{fill-rule:evenodd;clip-rule:evenodd;fill:#D8D8D5;}
	.st1{fill:#1E1E1E;}
	.st2{font-family:'Gotham-Medium';}
	.st3{font-size:22px;}
	.st4{font-family:'Gotham-Book';}
	.st5{fill:#E5F0F4;}
	.st6{fill:#FFE6DB;}
	.st7{fill:none;stroke:#FF550F;stroke-width:2.5;stroke-linecap:round;stroke-linejoin:round;stroke-miterlimit:10;}
	.st8{fill:none;stroke:#006E96;stroke-width:2.5;stroke-linecap:round;stroke-linejoin:round;stroke-miterlimit:10;}
</style>
<g>
	<g>
		<polygon class="st0" points="567.1,69.3 567.1,68.2 90.2,68.2 90.2,63.6 89.5,63.6 89.5,68.2 86.5,68.2 86.5,69.3 89.5,69.3 
			89.5,174.3 86.5,174.3 86.5,175.4 89.5,175.4 89.5,280.3 86.5,280.3 86.5,281.5 89.5,281.5 89.5,386.4 86.5,386.4 86.5,387.6 
			89.5,387.6 89.5,492.5 86.5,492.5 86.5,493.7 89.5,493.7 89.5,597.5 86.5,597.5 86.5,598.6 89.5,598.6 89.5,603.2 90.2,603.2 
			90.2,598.6 567.1,598.6 567.1,597.5 90.2,597.5 90.2,493.7 567.1,493.7 567.1,492.5 90.2,492.5 90.2,387.6 567.1,387.6 
			567.1,386.4 90.2,386.4 90.2,281.5 567.1,281.5 567.1,280.3 90.2,280.3 90.2,175.4 567.1,175.4 567.1,174.3 90.2,174.3 90.2,69.3 
					"/>
	</g>
</g>
<text transform="matrix(0 -1 1 0 29.4297 390.0527)" class="st1 st2 st3">Amount ($000)</text>
<text transform="matrix(1 0 0 1 325.3345 656.0283)" class="st1 st2 st3">Years</text>
<text transform="matrix(1 0 0 1 67.5303 602.7617)" class="st1 st4 st3">0</text>
<text transform="matrix(1 0 0 1 537.8457 624.6631)" class="st1 st4 st3">25</text>
<text transform="matrix(1 0 0 1 442.207 624.6631)" class="st1 st4 st3">20</text>
<text transform="matrix(1 0 0 1 354.0771 624.6631)" class="st1 st4 st3">15</text>
<text transform="matrix(1 0 0 1 258.4365 624.6631)" class="st1 st4 st3">10</text>
<text transform="matrix(1 0 0 1 172.5781 624.6631)" class="st1 st4 st3">5</text>
<text transform="matrix(1 0 0 1 54.7925 499.2373)" class="st1 st4 st3">20</text>
<text transform="matrix(1 0 0 1 53.2085 394.958)" class="st1 st4 st3">40</text>
<text transform="matrix(1 0 0 1 53.7368 287.6548)" class="st1 st4 st3">60</text>
<text transform="matrix(1 0 0 1 54.1104 180.3521)" class="st1 st4 st3">80</text>
<text transform="matrix(1 0 0 1 44.8047 74.9395)" class="st1 st4 st3">100</text>
<path class="st5" d="M563.8,86.3c0,0-162.9,180.2-241.4,252S206.3,448.2,129.3,511.7l-36.4,29.8c0,0-1.4,3.6,4.6-0.2
	c9.5-5.9,31.5-22.7,61.7-44.8c49.5-36.3,136.4-99.4,206.7-153.8s197.3-157.6,197.3-157.6L563.8,86.3z"/>
<path class="st6" d="M561.6,517v22.7c0,0-290.9,5.3-354.3,5.7c-63.4,0.4-116.4-1.5-116.4-1.5l2-1.1c0,0,7.8-0.4,60.5-4.2
	c52.7-3.8,193.5-9.8,222-11.3S561.6,517,561.6,517z"/>
<g>
	<g>
		<polyline class="st7" points="561.5,520.3 560,520.5 558.4,519.8 556.8,519.8 555.3,519.5 553.7,519.3 552.1,518.7 550.5,519.2 
			549,518.8 547.4,519.1 545.8,519.8 544.3,521.4 542.7,522 541.1,521.7 539.6,522.4 538,523.5 536.4,523.4 534.8,524.7 
			533.3,524.1 531.7,522.3 530.1,522.8 528.6,523.2 527,522.6 525.4,522.7 523.9,523.1 522.3,522.7 520.7,524.3 519.1,524.1 
			517.6,525.1 516,525.3 514.4,525.5 512.9,524.6 511.3,523.7 509.7,523 508.2,523.2 506.6,523.9 505,524.5 503.5,525.3 501.9,525 
			500.3,526.3 498.7,525.9 497.2,525.9 495.6,526.4 494,527.3 492.5,527.9 490.9,527.7 489.3,528 487.8,528.6 486.2,529.2 
			484.6,528.5 483,528.5 481.5,529 479.9,529.6 478.3,529.3 476.8,529.7 475.2,529.4 473.6,530.5 472.1,531.3 470.5,531.8 
			468.9,531.8 467.3,531.7 465.8,531.7 464.2,532.1 462.6,531.4 461.1,531.5 459.5,532 457.9,532.9 456.4,532.9 454.8,532.8 
			453.2,533.4 451.6,532.7 450.1,532.7 448.5,533.2 446.9,533.7 445.4,534.9 443.8,534.6 442.2,534.5 440.7,534.5 439.1,534.9 
			437.5,535.3 436,535.9 434.4,535.8 432.8,536.2 431.2,535.6 429.7,536 428.1,536.4 426.5,537.1 425,537.3 423.4,537.6 
			421.8,537.9 420.3,538.1 418.7,537.7 417.1,537.7 415.5,537.3 414,538.1 412.4,539.2 410.8,538.9 409.3,538.8 407.7,538.3 
			406.1,538.7 404.6,538.2 403,538.5 401.4,538.7 399.8,538.5 398.3,538.3 396.7,538.7 395.1,539.3 393.6,538.6 392,538.5 
			390.4,538.9 388.9,538.8 387.3,539.6 385.7,540.3 384.2,539.4 382.6,539.4 381,539 379.4,538.6 377.9,538.5 376.3,537.7 
			374.7,538.2 373.2,539 371.6,540 370,540.9 368.5,541.3 366.9,541.2 365.3,541.4 363.7,541.2 362.2,542 360.6,542.7 359,542.4 
			357.5,542.3 355.9,542.8 354.3,542.2 352.8,541.2 351.2,540.6 349.6,540.6 348,540.4 346.5,540.2 344.9,540.4 343.3,540.4 
			341.8,540.2 340.2,540.2 338.6,540.2 337.1,539.8 335.5,539.2 333.9,539.1 332.3,538.9 330.8,539.4 329.2,538.8 327.6,538.5 
			326.1,538.2 324.5,538 322.9,537.9 321.4,537.2 319.8,536.9 318.2,537.5 316.7,537.8 315.1,539 313.5,539.4 311.9,539.3 
			310.4,539.6 308.8,539.3 307.2,539.3 305.7,539.7 304.1,540.1 302.5,540.1 301,538.9 299.4,538.6 297.8,539.1 296.2,539.1 
			294.7,539.6 293.1,539.3 291.5,539.7 290,538.8 288.4,538.6 286.8,538.7 285.3,538.6 283.7,538.2 282.1,538.9 280.5,539.2 
			279,538.9 277.4,539.1 275.8,538.7 274.3,538.7 272.7,539.1 271.1,538.2 269.6,538.4 268,538.4 266.4,538.7 264.8,538.9 
			263.3,538.2 261.7,538.6 260.1,538.4 258.6,538.2 257,538.3 255.4,539.1 253.9,538.9 252.3,539.4 250.7,539.4 249.2,539.4 
			247.6,538.8 246,537.7 244.4,537.2 242.9,537.6 241.3,538.1 239.7,537.9 238.2,537.2 236.6,537.6 235,537.7 233.5,537.8 
			231.9,537.3 230.3,537 228.7,537.7 227.2,537.2 225.6,537 224,536.4 222.5,536.8 220.9,536.3 219.3,537.6 217.8,537.7 
			216.2,538.4 214.6,537.9 213,538.1 211.5,537.2 209.9,537.1 208.3,536.7 206.8,536.9 205.2,537.3 203.6,536.4 202.1,536.5 
			200.5,537.5 198.9,537.9 197.4,537.5 195.8,537.3 194.2,537.6 192.6,538.1 191.1,538.5 189.5,538.3 187.9,538.3 186.4,538.7 
			184.8,538.5 183.2,537.9 181.7,538.2 180.1,538.7 178.5,538.5 176.9,538.6 175.4,539 173.8,539.5 172.2,540.3 170.7,540.2 
			169.1,539.6 167.5,538.8 166,538.6 164.4,538.8 162.8,539.1 161.2,539.4 159.7,538.9 158.1,538.8 156.5,538.3 155,538.6 
			153.4,538.5 151.8,537.8 150.3,538.3 148.7,539.5 147.1,539.4 145.5,538.3 144,539.2 142.4,540 140.8,540.3 139.3,540.4 
			137.7,540.8 136.1,540.9 134.6,540.9 133,540.6 131.4,541.1 129.9,540.7 128.3,540.4 126.7,540.6 125.1,540.9 123.6,540.7 
			122,541.9 120.4,541.8 118.9,542.5 117.3,542.3 115.7,542.8 114.2,542.7 112.6,542.6 111,542.8 109.4,542.2 107.9,542.4 
			106.3,542.3 104.7,542.2 103.2,542.9 101.6,542.5 100,542.8 98.5,543 96.9,543.6 95.3,543.9 93.7,544.2 92.2,544.2 90.9,543.8 		
			"/>
	</g>
</g>
<polyline class="st8" points="90.9,543.8 92.2,543.2 93.7,542.8 95.3,541.5 96.9,540.6 98.5,540.2 100,538.5 101.6,537.7 
	103.2,537.4 104.7,536.7 106.3,534.9 107.9,532.4 109.4,531.2 111,530.6 112.6,529.3 114.2,528.3 115.7,527.4 117.3,525.5 
	118.9,523.3 120.4,523.1 122,522.2 123.6,520.7 125.1,519.3 126.7,517.2 128.3,515.4 129.9,511.9 131.4,510 133,508.6 134.6,508.6 
	136.1,507.1 137.7,507.4 139.3,507.2 140.8,505.9 142.4,505.5 144,503 145.5,502.7 147.1,502.2 148.7,501.7 150.3,501.8 
	151.8,499.9 153.4,498.9 155,498.1 156.5,498.4 158.1,495.7 159.7,493.5 161.2,492.2 162.8,490.5 164.4,488.5 166,489.3 
	167.5,487.3 169.1,486.8 170.7,484.7 172.2,484 173.8,481.9 175.4,480 176.9,477.9 178.5,478.2 180.1,478.7 181.7,477.2 
	183.2,476.1 184.8,474.7 186.4,473.8 187.9,475 189.5,473.2 191.1,472.8 192.6,472.3 194.2,472 195.8,470.5 197.4,467 198.9,466.6 
	200.5,465.2 202.1,466 203.6,464.4 205.2,462 206.8,461.2 208.3,462.4 209.9,463.7 211.5,461.8 213,462.9 214.6,460.7 216.2,460.7 
	217.8,461.8 219.3,460.7 220.9,460 222.5,459.5 224,458.9 225.6,457.9 227.2,455.4 228.7,452.8 230.3,450.8 231.9,450.2 
	233.5,449.8 235,448.9 236.6,446 238.2,443.8 239.7,443 241.3,441.6 242.9,439.2 244.4,437.8 246,436.4 247.6,432.9 249.2,429.8 
	250.7,429.1 252.3,426.3 253.9,421.6 255.4,419.1 257,418.6 258.6,419.2 260.1,416.1 261.7,415.1 263.3,413 264.8,410 266.4,412.4 
	268,409.3 269.6,408.8 271.1,405.9 272.7,406.8 274.3,405.9 275.8,404.5 277.4,400.1 279,399.4 280.5,400.3 282.1,396.8 283.7,397 
	285.3,394.9 286.8,392.5 288.4,391.6 290,391.3 291.5,389 293.1,385.9 294.7,382.3 296.2,383.1 297.8,382.9 299.4,381.3 301,381.1 
	302.5,379 304.1,378.1 305.7,375.7 307.2,374.4 308.8,372.2 310.4,372.4 311.9,371.8 313.5,371.1 315.1,372.3 316.7,368.3 
	318.2,366.4 319.8,367.3 321.4,361.9 322.9,361.1 324.5,359.2 326.1,359.2 327.6,358.4 329.2,353.4 330.8,351.1 332.3,347.4 
	333.9,346.4 335.5,346.9 337.1,343.9 338.6,341 340.2,337.2 341.8,336.5 343.3,335.8 344.9,334.5 346.5,333.4 348,329 349.6,325.9 
	351.2,326.3 352.8,330 354.3,328 355.9,327.3 357.5,323.7 359,322.4 360.6,319 362.2,317.2 363.7,317.5 365.3,315.1 366.9,309.8 
	368.5,306.4 370,307.8 371.6,303 373.2,301 374.7,298.4 376.3,300.2 377.9,301.1 379.4,302.5 381,300.3 382.6,296.2 384.2,293.6 
	385.7,291.3 387.3,288.7 388.9,290.7 390.4,289.5 392,287.4 393.6,282.9 395.1,279.7 396.7,276 398.3,268.4 399.8,267.3 
	401.4,265.5 403,266.8 404.6,262.5 406.1,255.4 407.7,255.4 409.3,257.2 410.8,253.8 412.4,251.8 414,258.4 415.5,258.5 
	417.1,256.8 418.7,255.2 420.3,250.5 421.8,248.6 423.4,243.4 425,246.4 426.5,246.8 428.1,241.5 429.7,237.6 431.2,231.6 
	432.8,231.6 434.4,226.8 436,218.6 437.5,216.7 439.1,219.2 440.7,219.9 442.2,217.4 443.8,221.4 445.4,215.2 446.9,217.5 
	448.5,218.5 450.1,213 451.6,210.8 453.2,204.3 454.8,200.1 456.4,196.7 457.9,196.8 459.5,193.5 461.1,187.6 462.6,184.1 
	464.2,186.6 465.8,184 467.3,183.8 468.9,182.7 470.5,176.6 472.1,178.7 473.6,181.2 475.2,185 476.8,190.5 478.3,185.5 
	479.9,189.3 481.5,187.3 483,190.1 484.6,188.9 486.2,191.3 487.8,188 489.3,192.4 490.9,188.6 492.5,185.7 494,184.3 495.6,181 
	497.2,183.3 498.7,187 500.3,182.6 501.9,184.4 503.5,182.5 505,172.4 506.6,175.6 508.2,174.6 509.7,177.8 511.3,174.3 
	512.9,172.7 514.4,171.6 516,175 517.6,173.2 519.1,172.6 520.7,175.9 522.3,172.8 523.9,166 525.4,167.7 527,167.9 528.6,174.5 
	530.1,171.9 531.7,165.6 533.3,158.8 534.8,153.5 536.4,154.1 538,161.3 539.6,162.4 541.1,165.1 542.7,164.9 544.3,159.3 
	545.8,154.1 547.4,157.3 549,159.2 550.5,159.6 552.1,155.1 553.7,149.5 555.3,150.3 556.8,149.8 558.4,148.8 560,146.4 
	561.5,143.7 "/>
</svg>
