<?xml version="1.0" encoding="utf-8"?>
<!-- Generator: Adobe Illustrator 19.0.0, SVG Export Plug-In . SVG Version: 6.00 Build 0)  -->
<svg version="1.1" id="_x31_st-Conservative" xmlns="http://www.w3.org/2000/svg" xmlns:xlink="http://www.w3.org/1999/xlink"
	 x="0px" y="0px" viewBox="0 0 586 674" style="enable-background:new 0 0 586 674;" xml:space="preserve">
<style type="text/css">
	.st0{fill-rule:evenodd;clip-rule:evenodd;fill:#D8D8D5;}
	.st1{fill:#1E1E1E;}
	.st2{font-family:'Gotham-Medium';}
	.st3{font-size:22px;}
	.st4{font-family:'Gotham-Book';}
	.st5{fill:#E5F0F4;}
	.st6{fill:#FFE6DB;}
	.st7{fill:none;stroke:#FF550F;stroke-width:2.5;stroke-linecap:round;stroke-linejoin:round;stroke-miterlimit:10;}
	.st8{fill:none;stroke:#006E95;stroke-width:2.5;stroke-linecap:round;stroke-linejoin:round;stroke-miterlimit:10;}
</style>
<g>
	<g>
		<polygon class="st0" points="567.1,69.3 567.1,68.2 90.2,68.2 90.2,63.6 89.5,63.6 89.5,68.2 86.5,68.2 86.5,69.3 89.5,69.3 
			89.5,156.4 86.5,156.4 86.5,157.5 89.5,157.5 89.5,244.6 86.5,244.6 86.5,245.7 89.5,245.7 89.5,332.8 86.5,332.8 86.5,334 
			89.5,334 89.5,421 86.5,421 86.5,422.2 89.5,422.2 89.5,509.3 86.5,509.3 86.5,510.4 89.5,510.4 89.5,597.5 86.5,597.5 
			86.5,598.6 89.5,598.6 89.5,603.2 90.2,603.2 90.2,598.6 567.1,598.6 567.1,597.5 90.2,597.5 90.2,510.4 567.1,510.4 567.1,509.3 
			90.2,509.3 90.2,422.2 567.1,422.2 567.1,421 90.2,421 90.2,334 567.1,334 567.1,332.8 90.2,332.8 90.2,245.7 567.1,245.7 
			567.1,244.6 90.2,244.6 90.2,157.5 567.1,157.5 567.1,156.4 90.2,156.4 90.2,69.3 		"/>
	</g>
</g>
<text transform="matrix(0 -1 1 0 29.4297 390.0527)" class="st1 st2 st3">Amount ($000)</text>
<text transform="matrix(1 0 0 1 325.3345 656.0186)" class="st1 st2 st3">Years</text>
<text transform="matrix(1 0 0 1 67.5303 602.7617)" class="st1 st4 st3">0</text>
<text transform="matrix(1 0 0 1 537.8457 624.6533)" class="st1 st4 st3">25</text>
<text transform="matrix(1 0 0 1 442.207 624.6533)" class="st1 st4 st3">20</text>
<text transform="matrix(1 0 0 1 354.0771 624.6533)" class="st1 st4 st3">15</text>
<text transform="matrix(1 0 0 1 258.4365 624.6533)" class="st1 st4 st3">10</text>
<text transform="matrix(1 0 0 1 172.5781 624.6533)" class="st1 st4 st3">5</text>
<text transform="matrix(1 0 0 1 54.7925 512.8389)" class="st1 st4 st3">20</text>
<text transform="matrix(1 0 0 1 53.2085 425.1836)" class="st1 st4 st3">40</text>
<text transform="matrix(1 0 0 1 53.7368 338.2837)" class="st1 st4 st3">60</text>
<text transform="matrix(1 0 0 1 44.8047 161.4604)" class="st1 st4 st3">100</text>
<text transform="matrix(1 0 0 1 54.1104 249.1162)" class="st1 st4 st3">80</text>
<text transform="matrix(1 0 0 1 47.3564 74.9395)" class="st1 st4 st3">120</text>
<path class="st5" d="M563.8,140.3c0,0-117.1,124.7-236.4,227.5c-79.7,68.6-103.7,85-176,140.6l-60.7,44.5c0,0,0.7,0.4,6.8-3.3
	c9.5-5.9,36.5-21.4,67.8-39.7c60.7-35.5,130.2-80.3,208-130c85.9-54.8,190.1-127.5,190.1-127.5L563.8,140.3z"/>
<path class="st6" d="M561.6,522v26.6c0,0-291.5,5.3-354.8,5.7c-63.4,0.4-116.2-0.6-116.2-0.6l1.7-0.7c0,0,8.6-2.1,61.3-5.8
	s193-11.2,221.5-12.8S561.6,522,561.6,522z"/>
<g>
	<polyline class="st7" points="561.5,528.9 560,529.1 558.4,528.3 556.8,528.4 555.3,528.4 553.7,528.2 552.1,527.5 550.5,527.8 
		549,527.3 547.4,527.6 545.8,528.5 544.3,530.5 542.7,531.3 541.1,530.9 539.6,531.5 538,532.3 536.4,531.9 534.8,533.2 
		533.3,532.8 531.7,530.6 530.1,531.4 528.6,531.6 527,530.6 525.4,530.9 523.9,531.5 522.3,531 520.7,532.9 519.1,532.5 
		517.6,533.4 516,533.5 514.4,533.5 512.9,532.6 511.3,531.6 509.7,530.6 508.2,531 506.6,531.7 505,532.4 503.5,533.3 501.9,533.1 
		500.3,534.7 498.7,534.1 497.2,534.2 495.6,534.9 494,536.1 492.5,536.9 490.9,536.9 489.3,537 487.8,537.8 486.2,538.3 
		484.6,537.5 483,537.4 481.5,537.9 479.9,538.7 478.3,538.3 476.8,538.6 475.2,538.4 473.6,539.2 472.1,540.1 470.5,540.6 
		468.9,540.7 467.3,540.7 465.8,540.8 464.2,541.5 462.6,540.6 461.1,541.1 459.5,541.7 457.9,542.7 456.4,542.5 454.8,542.3 
		453.2,542.6 451.6,541.9 450.1,541.9 448.5,542.6 446.9,542.9 445.4,544 443.8,544.1 442.2,544.2 440.7,544.2 439.1,544.7 
		437.5,545.1 436,545.7 434.4,545.7 432.8,546 431.2,545.5 429.7,545.8 428.1,546.2 426.5,546.8 425,547.1 423.4,547.4 421.8,547.7 
		420.3,547.8 418.7,547.4 417.1,547.5 415.5,547 414,547.8 412.4,549 410.8,548.8 409.3,548.7 407.7,548.2 406.1,548.5 404.6,548.1 
		403,548.6 401.4,548.7 399.8,548.3 398.3,548 396.7,548.2 395.1,548.7 393.6,547.9 392,547.7 390.4,547.9 388.9,547.9 387.3,548.6 
		385.7,549.5 384.2,548.5 382.6,548.3 381,548 379.4,547.6 377.9,547.5 376.3,546.7 374.7,547.2 373.2,547.8 371.6,549 370,549.7 
		368.5,550.3 366.9,550.1 365.3,550 363.7,549.9 362.2,550.6 360.6,551.4 359,550.9 357.5,550.9 355.9,551.4 354.3,550.6 
		352.8,549.5 351.2,548.9 349.6,549 348,548.6 346.5,548.1 344.9,548.3 343.3,548.4 341.8,548.2 340.2,548.4 338.6,548.2 
		337.1,547.8 335.5,547 333.9,546.9 332.3,546.4 330.8,547.3 329.2,546.7 327.6,546.3 326.1,546.1 324.5,545.8 322.9,545.6 
		321.4,545 319.8,544.5 318.2,545.3 316.7,545.6 315.1,547.2 313.5,547.3 311.9,547.1 310.4,547.5 308.8,547.4 307.2,547.2 
		305.7,547.8 304.1,548.3 302.5,548.3 301,546.9 299.4,546.9 297.8,547.3 296.2,547.5 294.7,548.2 293.1,548 291.5,548.4 290,547.4 
		288.4,547.1 286.8,546.8 285.3,546.6 283.7,546.1 282.1,546.8 280.5,547.1 279,546.9 277.4,546.9 275.8,546.4 274.3,546.4 
		272.7,546.8 271.1,545.7 269.6,545.9 268,546.1 266.4,546.5 264.8,546.6 263.3,545.8 261.7,546.2 260.1,546.3 258.6,546.1 
		257,546.1 255.4,546.9 253.9,546.3 252.3,546.9 250.7,546.5 249.2,546.5 247.6,546 246,544.9 244.4,544.4 242.9,544.9 241.3,545.5 
		239.7,545.1 238.2,544.4 236.6,544.9 235,545 233.5,545.2 231.9,544.6 230.3,544.1 228.7,544.9 227.2,544.4 225.6,544.2 224,543.9 
		222.5,544.2 220.9,543.6 219.3,545 217.8,545.1 216.2,545.8 214.6,545.5 213,545.3 211.5,544.5 209.9,544.3 208.3,543.6 206.8,544 
		205.2,544.5 203.6,543.5 202.1,544 200.5,544.9 198.9,545.3 197.4,544.9 195.8,544.7 194.2,544.8 192.6,545.1 191.1,545.6 
		189.5,545.6 187.9,545.5 186.4,546 184.8,545.8 183.2,545.3 181.7,545.6 180.1,546.1 178.5,545.9 176.9,546.1 175.4,546.5 
		173.8,547 172.2,548 170.7,548 169.1,547.6 167.5,546.6 166,546.1 164.4,546.3 162.8,546.4 161.2,546.8 159.7,545.9 158.1,545.7 
		156.5,545 155,545.6 153.4,545.5 151.8,545.1 150.3,545.4 148.7,546.7 147.1,546.7 145.5,545.4 144,546.8 142.4,547.5 140.8,547.8 
		139.3,548.1 137.7,548.5 136.1,548.6 134.6,548.7 133,548.4 131.4,548.9 129.9,548.5 128.3,548.2 126.7,548.5 125.1,548.8 
		123.6,548.5 122,549.8 120.4,549.8 118.9,550.6 117.3,550.6 115.7,551.3 114.2,551 112.6,551 111,551.2 109.4,550.7 107.9,550.7 
		106.3,550.8 104.7,550.6 103.2,551.2 101.6,550.9 100,551.2 98.5,551.7 96.9,552.2 95.3,552.5 93.7,553 92.2,553.1 90.6,552.8 	"/>
</g>
<g>
	<g>
		<polyline class="st8" points="90.6,552.8 92.2,552.1 93.7,552 95.3,550.7 96.9,550 98.5,549.8 100,548.3 101.6,547.6 103.2,547.8 
			104.7,547.1 106.3,545.5 107.9,543.3 109.4,542.6 111,542.2 112.6,541.1 114.2,540.4 115.7,539.7 117.3,538.1 118.9,536 
			120.4,536.1 122,535.2 123.6,533.8 125.1,532.7 126.7,530.8 128.3,529.1 129.9,525.6 131.4,523.9 133,522.4 134.6,522.8 
			136.1,521.5 137.7,522 139.3,522 140.8,520.7 142.4,520.5 144,518.1 145.5,518.2 147.1,518 148.7,517.8 150.3,518.4 151.8,516.6 
			153.4,515.6 155,515 156.5,515.3 158.1,512.7 159.7,510.8 161.2,509.7 162.8,508.3 164.4,506.5 166,507.7 167.5,505.9 
			169.1,505.7 170.7,503.5 172.2,502.9 173.8,500.9 175.4,499.3 176.9,497 178.5,497.3 180.1,498.2 181.7,497 183.2,496.5 
			184.8,495.5 186.4,494.8 187.9,495.6 189.5,494.3 191.1,493.8 192.6,493.4 194.2,493.3 195.8,492 197.4,488.6 198.9,488.3 
			200.5,487.2 202.1,488.9 203.6,487.3 205.2,485.5 206.8,484.4 208.3,485.9 209.9,487.8 211.5,486.3 213,487.8 214.6,486.1 
			216.2,486.3 217.8,487.4 219.3,486.6 220.9,486.2 222.5,486.3 224,486 225.6,485.4 227.2,483 228.7,480.5 230.3,478.7 231.9,478 
			233.5,478 235,477.6 236.6,475.2 238.2,472.8 239.7,472.5 241.3,471 242.9,468.9 244.4,467.8 246,466.8 247.6,463 249.2,459.9 
			250.7,459.1 252.3,456.8 253.9,452.4 255.4,449.7 257,449.7 258.6,450.8 260.1,448.3 261.7,447.6 263.3,445.2 264.8,441.5 
			266.4,443.8 268,440.5 269.6,440.3 271.1,436.8 272.7,437.6 274.3,436.8 275.8,435.6 277.4,431.2 279,431 280.5,432 282.1,428.1 
			283.7,428.4 285.3,426.4 286.8,424 288.4,423.7 290,423.9 291.5,422.3 293.1,419.5 294.7,415.6 296.2,417.4 297.8,417 
			299.4,415.4 301,416.2 302.5,414.1 304.1,413.6 305.7,411.2 307.2,410.2 308.8,408.5 310.4,409.2 311.9,409.1 313.5,408.7 
			315.1,410.4 316.7,406.7 318.2,405.6 319.8,406.2 321.4,400.4 322.9,399 324.5,397.3 326.1,397.7 327.6,397 329.2,392.2 
			330.8,391 332.3,386.7 333.9,386.4 335.5,387 337.1,383.5 338.6,380.6 340.2,377.2 341.8,375.9 343.3,376.2 344.9,375.3 
			346.5,374.6 348,369.8 349.6,366.7 351.2,366.9 352.8,371.8 354.3,370 355.9,370.7 357.5,368.1 359,367.5 360.6,363.7 
			362.2,362.8 363.7,364.1 365.3,361 366.9,355.6 368.5,352.2 370,354.6 371.6,349.2 373.2,347.7 374.7,345.3 376.3,346.5 
			377.9,346.7 379.4,348.9 381,346.7 382.6,342.6 384.2,340.3 385.7,339.4 387.3,336.6 388.9,339.4 390.4,338.1 392,337 
			393.6,331.9 395.1,328.6 396.7,324.9 398.3,316.3 399.8,315.5 401.4,314.1 403,316.3 404.6,310.6 406.1,302.9 407.7,302.4 
			409.3,304.1 410.8,300 412.4,298.1 414,305.6 415.5,306.2 417.1,303.7 418.7,302.6 420.3,298.1 421.8,297.1 423.4,291.3 
			425,294.1 426.5,295.3 428.1,288.4 429.7,284.2 431.2,279.2 432.8,279.1 434.4,274.4 436,264.8 437.5,263.1 439.1,265.3 
			440.7,266.5 442.2,262.8 443.8,267.8 445.4,261.1 446.9,262.4 448.5,264.2 450.1,258.3 451.6,255.6 453.2,250.4 454.8,245.5 
			456.4,242.2 457.9,242.2 459.5,237.1 461.1,230.3 462.6,227.1 464.2,231 465.8,229.3 467.3,229.7 468.9,230.3 470.5,221.4 
			472.1,225.2 473.6,228.8 475.2,233 476.8,239 478.3,232 479.9,237.2 481.5,234.5 483,237.1 484.6,235.8 486.2,237.3 487.8,232.9 
			489.3,237.9 490.9,234.5 492.5,232.2 494,231.7 495.6,228.6 497.2,232.8 498.7,236.9 500.3,232.6 501.9,234.8 503.5,233.2 
			505,222.7 506.6,227.9 508.2,227.5 509.7,231.1 511.3,227.7 512.9,226.6 514.4,226.6 516,230.3 517.6,228.8 519.1,227.8 
			520.7,232.4 522.3,228.5 523.9,222 525.4,222.4 527,222.1 528.6,230.1 530.1,226.8 531.7,220.8 533.3,211.3 534.8,203.8 
			536.4,205 538,212 539.6,212.8 541.1,217.2 542.7,217.8 544.3,213.4 545.8,208.1 547.4,213.1 549,215.7 550.5,216.5 552.1,211.9 
			553.7,206.1 555.3,206.7 556.8,206.4 558.4,204.7 560,202.9 561.5,201.8 		"/>
	</g>
</g>
</svg>
