<?xml version="1.0" encoding="utf-8"?>
<!-- Generator: Adobe Illustrator 18.0.0, SVG Export Plug-In . SVG Version: 6.00 Build 0)  -->
<!DOCTYPE svg PUBLIC "-//W3C//DTD SVG 1.1//EN" "http://www.w3.org/Graphics/SVG/1.1/DTD/svg11.dtd">
<svg version="1.1" xmlns="http://www.w3.org/2000/svg" xmlns:xlink="http://www.w3.org/1999/xlink" x="0px" y="0px"
	 viewBox="0 0 260 260" enable-background="new 0 0 260 260" xml:space="preserve">
<g id="Aggressive" display="none">
	<g display="inline">
		<defs>
			<path id="SVGID_1_" d="M251.7,88C228.7,20.6,155.4-15.5,88,7.5c-67.4,23-103.4,96.3-80.4,163.7c23,67.4,96.3,103.4,163.7,80.5
				C238.7,228.7,274.7,155.4,251.7,88z M148.8,185c-30.3,10.3-63.2-5.9-73.5-36.1c-10.3-30.3,5.8-63.2,36.1-73.5
				c30.3-10.3,63.2,5.9,73.5,36.1C195.2,141.8,179.1,174.7,148.8,185z"/>
		</defs>
		<clipPath id="SVGID_2_">
			<use xlink:href="#SVGID_1_"  overflow="visible"/>
		</clipPath>
		<g>
			<g clip-path="url(#SVGID_2_)">
				<g>
					<g>
						<path fill="#03B0FF" stroke="#FFFFFF" stroke-width="1.5" stroke-miterlimit="10" d="M131,130.7L145.6,0.9
							C217.3,9,268.8,73.7,260.8,145.3C252.7,217,188,268.6,116.3,260.5C44.7,252.4-6.9,187.7,1.2,116.1
							c1.6-14.3,4.9-26.3,10.9-39.4L131,130.7z"/>
					</g>
				</g>
				<g>
					<g>
						<path fill="#724E9A" stroke="#FFFFFF" stroke-width="1.5" stroke-miterlimit="10" d="M131,130.7L66.6,17.1
							C91.6,2.9,117-2.3,145.6,0.9L131,130.7z"/>
					</g>
				</g>
				<g>
					<g>
						<path fill="#CBDC3E" stroke="#FFFFFF" stroke-width="1.5" stroke-miterlimit="10" d="M131,130.7L28.7,49.5
							C39.5,36,51.5,25.6,66.6,17.1L131,130.7z"/>
					</g>
				</g>
				<g>
					<g>
						<path fill="#CF035A" stroke="#FFFFFF" stroke-width="1.5" stroke-miterlimit="10" d="M131,130.7l-118.9-54
							c4.8-10.5,9.4-18.1,16.6-27.2L131,130.7z"/>
					</g>
				</g>
			</g>
			<g clip-path="url(#SVGID_2_)">
				<g>
				</g>
				<g>
				</g>
				<g>
				</g>
				<g>
				</g>
			</g>
		</g>
		
			<use xlink:href="#SVGID_1_"  overflow="visible" fill-rule="evenodd" clip-rule="evenodd" fill="none" stroke="#FFFFFF" stroke-width="1.5" stroke-miterlimit="10"/>
	</g>
</g>
<g id="Growth" display="none">
	<g id="Layer_6_copy">
		<path display="inline" fill-rule="evenodd" clip-rule="evenodd" fill="#39A935" d="M253.7,107.8C230.3,39.5,155.8,3,87.3,26.3
			C18.9,49.6-17.7,123.8,5.7,192c23.4,68.3,97.8,104.7,166.3,81.5C240.5,250.2,277,176,253.7,107.8z M149.2,206
			c-30.7,10.4-64.2-5.9-74.7-36.6c-10.5-30.6,5.9-64,36.7-74.4c30.7-10.4,64.2,5.9,74.7,36.6C196.3,162.2,179.9,195.6,149.2,206z"/>
	</g>
	<g id="Layer_6_copy_2">
		<path display="inline" fill-rule="evenodd" clip-rule="evenodd" fill="#39A935" d="M253.7,107.8C230.3,39.5,155.8,3,87.3,26.3
			C18.9,49.6-17.7,123.8,5.7,192c23.4,68.3,97.8,104.7,166.3,81.5C240.5,250.2,277,176,253.7,107.8z M149.2,206
			c-30.7,10.4-64.2-5.9-74.7-36.6c-10.5-30.6,5.9-64,36.7-74.4c30.7-10.4,64.2,5.9,74.7,36.6C196.3,162.2,179.9,195.6,149.2,206z"/>
	</g>
	<g display="inline">
		<defs>
			<path id="SVGID_3_" d="M251.7,88C228.7,20.6,155.4-15.5,88,7.5c-67.4,23-103.4,96.3-80.4,163.7c23,67.4,96.3,103.4,163.7,80.5
				C238.7,228.7,274.7,155.4,251.7,88z M148.8,185c-30.3,10.3-63.2-5.9-73.5-36.1c-10.3-30.3,5.8-63.2,36.1-73.5
				c30.3-10.3,63.2,5.9,73.5,36.1C195.2,141.8,179.1,174.7,148.8,185z"/>
		</defs>
		<clipPath id="SVGID_4_">
			<use xlink:href="#SVGID_3_"  overflow="visible"/>
		</clipPath>
		<g>
			<g clip-path="url(#SVGID_4_)">
				<g>
					<g>
						<path fill="#03B0FF" stroke="#FFFFFF" stroke-width="1.5" stroke-miterlimit="10" d="M131,130.7l127.9-26.2
							c14.5,70.7-31.1,139.7-101.8,154.1C86.5,273.1,17.5,227.5,3,156.9c-5.8-28.3-2.9-53.9,9.1-80.2L131,130.7z"/>
					</g>
				</g>
				<g>
					<g>
						<path fill="#724E9A" stroke="#FFFFFF" stroke-width="1.5" stroke-miterlimit="10" d="M131,130.7l88.1-96.4
							c21.3,19.5,34,41.9,39.8,70.2L131,130.7z"/>
					</g>
				</g>
				<g>
					<g>
						<path fill="#CBDC3E" stroke="#FFFFFF" stroke-width="1.5" stroke-miterlimit="10" d="M131,130.7L28.7,49.5
							C73.5-7,155.7-16.4,212.2,28.4c2.3,1.8,4.8,4,6.9,5.9L131,130.7z"/>
					</g>
				</g>
				<g>
					<g>
						<path fill="#CF035A" stroke="#FFFFFF" stroke-width="1.5" stroke-miterlimit="10" d="M131,130.7l-118.9-54
							c4.8-10.5,9.4-18.1,16.6-27.2L131,130.7z"/>
					</g>
				</g>
			</g>
			<g clip-path="url(#SVGID_4_)">
				<g>
				</g>
				<g>
				</g>
				<g>
				</g>
				<g>
				</g>
			</g>
		</g>
		
			<use xlink:href="#SVGID_3_"  overflow="visible" fill-rule="evenodd" clip-rule="evenodd" fill="none" stroke="#FFFFFF" stroke-width="1.5" stroke-miterlimit="10"/>
	</g>
</g>
<g id="Balanced" display="none">
	<g display="inline">
		<defs>
			<path id="SVGID_5_" d="M251.7,88C228.7,20.6,155.4-15.5,88,7.5c-67.4,23-103.4,96.3-80.4,163.7c23,67.4,96.3,103.4,163.7,80.5
				C238.7,228.7,274.7,155.4,251.7,88z M148.8,185c-30.3,10.3-63.2-5.9-73.5-36.1c-10.3-30.3,5.8-63.2,36.1-73.5
				c30.3-10.3,63.2,5.9,73.5,36.1C195.2,141.8,179.1,174.7,148.8,185z"/>
		</defs>
		<clipPath id="SVGID_6_">
			<use xlink:href="#SVGID_5_"  overflow="visible"/>
		</clipPath>
		<g>
			<g clip-path="url(#SVGID_6_)">
				<g>
					<g>
						<path fill="#03B0FF" stroke="#FFFFFF" stroke-width="1.5" stroke-miterlimit="10" d="M131,130.7l72.2,108.8
							C143.1,279.4,62,263,22.2,202.9C-3.4,164.4-7,118.7,12.1,76.7L131,130.7z"/>
					</g>
				</g>
				<g>
					<g>
						<path fill="#724E9A" stroke="#FFFFFF" stroke-width="1.5" stroke-miterlimit="10" d="M131,130.7l118.9,54
							c-10.7,23.6-25.1,40.4-46.7,54.8L131,130.7z"/>
					</g>
				</g>
				<g>
					<g>
						<path fill="#CBDC3E" stroke="#FFFFFF" stroke-width="1.5" stroke-miterlimit="10" d="M131,130.7L28.7,49.5
							C73.5-7,155.7-16.4,212.2,28.4c47.5,37.7,62.8,101.2,37.7,156.3L131,130.7z"/>
					</g>
				</g>
				<g>
					<g>
						<path fill="#CF035A" stroke="#FFFFFF" stroke-width="1.5" stroke-miterlimit="10" d="M131,130.7l-118.9-54
							c4.8-10.5,9.4-18.1,16.6-27.2L131,130.7z"/>
					</g>
				</g>
			</g>
			<g clip-path="url(#SVGID_6_)">
				<g>
				</g>
				<g>
				</g>
				<g>
				</g>
				<g>
				</g>
			</g>
		</g>
		
			<use xlink:href="#SVGID_5_"  overflow="visible" fill-rule="evenodd" clip-rule="evenodd" fill="none" stroke="#FFFFFF" stroke-width="1.5" stroke-miterlimit="10"/>
	</g>
</g>
<g id="Conservative">
	<g>
		<defs>
			<path id="SVGID_7_" d="M251.7,88C228.7,20.6,155.4-15.5,88,7.5c-67.4,23-103.4,96.3-80.4,163.7c23,67.4,96.3,103.4,163.7,80.5
				C238.7,228.7,274.7,155.4,251.7,88z M148.8,185c-30.3,10.3-63.2-5.9-73.5-36.1c-10.3-30.3,5.8-63.2,36.1-73.5
				c30.3-10.3,63.2,5.9,73.5,36.1C195.2,141.8,179.1,174.7,148.8,185z"/>
		</defs>
		<clipPath id="SVGID_8_">
			<use xlink:href="#SVGID_7_"  overflow="visible"/>
		</clipPath>
		<g>
			<g clip-path="url(#SVGID_8_)">
				<g>
					<g>
						<path fill="#03B0FF" stroke="#FFFFFF" stroke-width="1.5" stroke-miterlimit="10" d="M131,130.7L57.1,238.4
							c-52.3-35.9-71.3-104-45-161.7L131,130.7z"/>
					</g>
				</g>
				<g>
					<g>
						<path fill="#724E9A" stroke="#FFFFFF" stroke-width="1.5" stroke-miterlimit="10" d="M131,130.7l-14.6,129.8
							c-22.9-2.6-40.2-9-59.2-22.1L131,130.7z"/>
					</g>
				</g>
				<g>
					<g>
						<path fill="#CBDC3E" stroke="#FFFFFF" stroke-width="1.5" stroke-miterlimit="10" d="M131,130.7L46.1,31.5
							C100.9-15.4,183.3-9,230.2,45.8s40.5,137.2-14.3,184.1c-28.5,24.4-62.3,34.8-99.6,30.6L131,130.7z"/>
					</g>
				</g>
				<g>
					<g>
						<path fill="#CF035A" stroke="#FFFFFF" stroke-width="1.5" stroke-miterlimit="10" d="M131,130.7l-118.9-54
							c8.4-18.4,18.6-32.1,34-45.2L131,130.7z"/>
					</g>
				</g>
			</g>
			<g clip-path="url(#SVGID_8_)">
				<g>
				</g>
				<g>
				</g>
				<g>
				</g>
				<g>
				</g>
			</g>
		</g>
		
			<use xlink:href="#SVGID_7_"  overflow="visible" fill-rule="evenodd" clip-rule="evenodd" fill="none" stroke="#FFFFFF" stroke-width="1.5" stroke-miterlimit="10"/>
	</g>
</g>
<g id="Defensive" display="none">
	<g display="inline">
		<defs>
			<path id="SVGID_9_" d="M251.7,88C228.7,20.6,155.4-15.5,88,7.5c-67.4,23-103.4,96.3-80.4,163.7c23,67.4,96.3,103.4,163.7,80.5
				C238.7,228.7,274.7,155.4,251.7,88z M148.8,185c-30.3,10.3-63.2-5.9-73.5-36.1c-10.3-30.3,5.8-63.2,36.1-73.5
				c30.3-10.3,63.2,5.9,73.5,36.1C195.2,141.8,179.1,174.7,148.8,185z"/>
		</defs>
		<clipPath id="SVGID_10_">
			<use xlink:href="#SVGID_9_"  overflow="visible"/>
		</clipPath>
		<g>
			<g clip-path="url(#SVGID_10_)">
				<g>
					<g>
						<path fill="#03B0FF" stroke="#FFFFFF" stroke-width="1.5" stroke-miterlimit="10" d="M131,130.7L14.2,189.1
							C-3.9,153-4.6,113.4,12.1,76.7L131,130.7z"/>
					</g>
				</g>
				<g>
					<g>
						<path fill="#724E9A" stroke="#FFFFFF" stroke-width="1.5" stroke-miterlimit="10" d="M131,130.7l-88.1,96.4
							c-12.8-11.7-20.9-22.5-28.7-38L131,130.7z"/>
					</g>
				</g>
				<g>
					<g>
						<path fill="#CBDC3E" stroke="#FFFFFF" stroke-width="1.5" stroke-miterlimit="10" d="M131,130.7L66.6,17.1
							c62.7-35.6,142.4-13.6,178,49.2s13.6,142.4-49.2,178c-50.2,28.5-110,21.7-152.6-17.2L131,130.7z"/>
					</g>
				</g>
				<g>
					<g>
						<path fill="#CF035A" stroke="#FFFFFF" stroke-width="1.5" stroke-miterlimit="10" d="M131,130.7l-118.9-54
							C24,50.4,41.5,31.3,66.6,17.1L131,130.7z"/>
					</g>
				</g>
			</g>
			<g clip-path="url(#SVGID_10_)">
				<g>
				</g>
				<g>
				</g>
				<g>
				</g>
				<g>
				</g>
			</g>
		</g>
		
			<use xlink:href="#SVGID_9_"  overflow="visible" fill-rule="evenodd" clip-rule="evenodd" fill="none" stroke="#FFFFFF" stroke-width="1.5" stroke-miterlimit="10"/>
	</g>
</g>
</svg>
