<?xml version="1.0" encoding="utf-8"?>
<!-- Generator: Adobe Illustrator 19.0.0, SVG Export Plug-In . SVG Version: 6.00 Build 0)  -->
<svg version="1.1" id="Layer_1" xmlns="http://www.w3.org/2000/svg" xmlns:xlink="http://www.w3.org/1999/xlink" x="0px" y="0px"
	 viewBox="0 0 80 160" style="enable-background:new 0 0 80 160;" xml:space="preserve">
<style type="text/css">
	.st0{fill:#BCF2E7;}
	.st1{fill:#20D4AF;}
</style>
<g id="XMLID_2_">
	<g id="XMLID_15_">
		<g id="XMLID_22_">
			<path id="XMLID_12_" class="st0" d="M39.9,82.8c20.4,0,37,16.6,37,37s-16.6,37-37,37s-37-16.6-37-37S19.5,82.8,39.9,82.8
				 M39.9,79.8c-22.1,0-40,17.9-40,40s17.9,40,40,40s40-17.9,40-40S62,79.8,39.9,79.8L39.9,79.8z"/>
		</g>
		<path id="XMLID_21_" class="st1" d="M36,117.2l-13.8,13.9c0.5,0.8,1.2,1.6,1.8,2.3L38,119.3L36,117.2z"/>
		<path id="XMLID_20_" class="st1" d="M27.9,109.1l-9.2,9.2c-0.1,1.3,0,2.6,0.2,4l11.1-11.1L27.9,109.1z"/>
		<path id="XMLID_19_" class="st1" d="M56.1,105.2l-30.2,30.2c8.4,7.4,21.2,7.1,29.3-0.9C63.2,126.4,63.5,113.6,56.1,105.2z"/>
		<path id="XMLID_18_" class="st1" d="M54.1,103.2c-8.1-7.1-20.2-7.1-28.2,0L40,117.3L54.1,103.2z"/>
		<path id="XMLID_17_" class="st1" d="M23.9,105.2c-2.2,2.5-3.7,5.4-4.6,8.5l6.5-6.5L23.9,105.2z"/>
		<path id="XMLID_16_" class="st1" d="M31.9,113.2l-12.4,12.4c0.3,1,0.7,2,1.2,3L34,115.2L31.9,113.2z"/>
	</g>
	<path id="XMLID_3_" class="st1" d="M39.9-0.2c-22.1,0-40,17.9-40,40c0,22.1,17.9,40,40,40s40-17.9,40-40C79.9,17.7,62-0.2,39.9-0.2
		z M54.1,23.2L40,37.3L25.9,23.2C34,16.1,46.1,16.1,54.1,23.2z M23.9,25.2l2,2l-6.5,6.5C20.2,30.6,21.7,27.7,23.9,25.2z M18.6,38.3
		l9.2-9.2l2.1,2.1L18.8,42.3C18.6,41,18.6,39.7,18.6,38.3z M19.5,45.5l12.4-12.4l2.1,2.1L20.7,48.5C20.2,47.6,19.8,46.6,19.5,45.5z
		 M22.1,51.1L36,37.2l2.1,2.1L23.9,53.4C23.3,52.6,22.6,51.9,22.1,51.1z M55.2,54.4c-8,8-20.8,8.3-29.3,0.9l30.2-30.2
		C63.5,33.6,63.2,46.4,55.2,54.4z"/>
</g>
</svg>
