<?xml version="1.0" encoding="utf-8"?>
<!-- Generator: Adobe Illustrator 18.0.0, SVG Export Plug-In . SVG Version: 6.00 Build 0)  -->
<!DOCTYPE svg PUBLIC "-//W3C//DTD SVG 1.1//EN" "http://www.w3.org/Graphics/SVG/1.1/DTD/svg11.dtd">
<svg version="1.1" id="Layer_1" xmlns="http://www.w3.org/2000/svg" xmlns:xlink="http://www.w3.org/1999/xlink" x="0px" y="0px"
	 viewBox="0 0 50 100" enable-background="new 0 0 50 100" xml:space="preserve">
<g id="XMLID_386_">
	<g id="XMLID_294_">
		<g id="XMLID_301_">
			<path id="XMLID_268_" fill="#D9D9D6" d="M45.5,56.8h-31c-2.2,0-4.1,1.8-4.1,4.1v1.5h39.2v-1.5C49.6,58.6,47.7,56.8,45.5,56.8z"/>
			<path id="XMLID_267_" fill="#D9D9D6" d="M43.1,83.5h2.3c2.2,0,4.1-1.8,4.1-4.1v-9.8h-6.4L43.1,83.5z"/>
		</g>
		<path id="XMLID_295_" fill="#D9D9D6" d="M35.4,65.3h-31c-2.2,0-4,1.8-4,4v19c0,2.2,1.8,4,4,4h31c2.2,0,4-1.8,4-4v-19
			C39.4,67.1,37.6,65.3,35.4,65.3z M31.8,87.3H7.2c-0.4,0-0.7-0.3-0.7-0.7c0-0.4,0.3-0.7,0.7-0.7h24.6c0.4,0,0.7,0.3,0.7,0.7
			S32.2,87.3,31.8,87.3z M6.5,82.3c0-0.4,0.3-0.7,0.7-0.7h13.3c0.4,0,0.7,0.3,0.7,0.7c0,0.4-0.3,0.7-0.7,0.7H7.2
			C6.8,83,6.5,82.7,6.5,82.3z M31.8,83h-5.5c-0.4,0-0.7-0.3-0.7-0.7c0-0.4,0.3-0.7,0.7-0.7h5.5c0.4,0,0.7,0.3,0.7,0.7
			C32.6,82.7,32.2,83,31.8,83z M36.4,75.5c0,0.7-0.5,1.2-1.2,1.2H4.7c-0.7,0-1.2-0.5-1.2-1.2v-4.1c0-0.7,0.5-1.2,1.2-1.2h30.6
			c0.7,0,1.2,0.5,1.2,1.2L36.4,75.5L36.4,75.5z"/>
	</g>
</g>
<g id="Layer_2">
</g>
<g>
	<g>
		<g>
			<path fill="#E18CC8" d="M45.5,6.7l-31,0c-2.3,0-4.1,1.8-4.1,4.1l0,1.5l39.2,0l0-1.5C49.6,8.5,47.8,6.7,45.5,6.7z"/>
			<path fill="#E18CC8" d="M43.2,33.4h2.3c2.3,0,4.1-1.8,4.1-4.1v-9.8l-6.4,0L43.2,33.4z"/>
		</g>
		<path fill="#E18CC8" d="M35.4,15.2H4.4c-2.2,0-4,1.8-4,4v19c0,2.2,1.8,4,4,4h31.1c2.2,0,4-1.8,4-4v-19
			C39.4,17,37.7,15.2,35.4,15.2z"/>
	</g>
	<path fill="#F6DCEE" d="M31.8,37.3l-24.7,0c-0.4,0-0.7-0.3-0.7-0.7c0-0.4,0.3-0.7,0.7-0.7l24.7,0c0.4,0,0.7,0.3,0.7,0.7
		C32.6,36.9,32.2,37.3,31.8,37.3z"/>
	<path fill="#F6DCEE" d="M6.4,32.2c0-0.4,0.3-0.7,0.7-0.7h13.3c0.4,0,0.7,0.3,0.7,0.7c0,0.4-0.3,0.7-0.7,0.7l-13.3,0
		C6.8,32.9,6.5,32.6,6.4,32.2z"/>
	<path fill="#F6DCEE" d="M31.8,32.9l-5.5,0c-0.4,0-0.7-0.3-0.7-0.7c0-0.4,0.3-0.7,0.7-0.7l5.5,0c0.4,0,0.7,0.3,0.7,0.7
		C32.6,32.6,32.2,32.9,31.8,32.9z"/>
	<path fill="#F0C5E3" d="M36.5,25.4c0,0.7-0.5,1.2-1.2,1.2H4.6c-0.7,0-1.2-0.5-1.2-1.2v-4.1c0-0.7,0.5-1.2,1.2-1.2h30.6
		c0.7,0,1.2,0.5,1.2,1.2V25.4z"/>
</g>
</svg>
