<?xml version="1.0" encoding="utf-8"?>
<!-- Generator: Adobe Illustrator 18.0.0, SVG Export Plug-In . SVG Version: 6.00 Build 0)  -->
<!DOCTYPE svg PUBLIC "-//W3C//DTD SVG 1.1//EN" "http://www.w3.org/Graphics/SVG/1.1/DTD/svg11.dtd">
<svg version="1.1" id="Layer_1" xmlns="http://www.w3.org/2000/svg" xmlns:xlink="http://www.w3.org/1999/xlink" x="0px" y="0px"
	 viewBox="0 0 50 100" enable-background="new 0 0 50 100" xml:space="preserve">
<g id="XMLID_386_">
	<g id="XMLID_338_">
		<path id="XMLID_328_" fill="#D9D9D6" d="M8.8,61.3C8.5,61,8,60.8,7.5,60.8s-1,0.2-1.3,0.5L3.5,64c-0.7,0.7-0.7,1.8,0,2.5l2.3,2.2
			l5.3-5.1L8.8,61.3z"/>
		<path id="XMLID_327_" fill="#D9D9D6" d="M26.2,83.9c0.2-0.2,0.2-0.5,0.1-0.7l-3.9-8l-5.2,5.1l8.3,3.7C25.7,84.1,26,84.1,26.2,83.9
			z"/>
		<polygon id="XMLID_325_" fill="#D9D9D6" points="20.7,73.5 12.3,65.3 7,70.4 15.4,78.6 		"/>
		<path id="XMLID_324_" fill="#D9D9D6" d="M46,61.3c-0.6,0-1,0.4-1,1v21.9l-7.9,7.7c-0.4,0.4-0.4,1,0,1.4s1,0.4,1.4,0l8.2-8
			c0.2-0.2,0.3-0.4,0.3-0.7V62.3C47,61.7,46.5,61.3,46,61.3z"/>
		<path id="XMLID_323_" fill="#D9D9D6" d="M36.4,84.3c-1.5,0-2.7,1.1-2.7,2.6v5.5l8.1-8L36.4,84.3L36.4,84.3z"/>
		<path id="XMLID_321_" fill="#D9D9D6" d="M42.9,82.2V62.3c0-2-1.7-3.6-3.8-3.6h-2.2v2.6c0,1.5-1.4,2.6-3.2,2.6s-3.2-1.2-3.2-2.6
			v-2.6h-3.2v2.6c0,1.5-1.4,2.6-3.2,2.6c-1.8,0-3.2-1.2-3.2-2.6v-2.6h-2.2c-2.1,0-3.8,1.6-3.8,3.6v2.4l10.8,10.6l3.6,11.5l-12-3.2
			L15,81.4v8.5c0,2,1.7,3.6,3.8,3.6h12.9v-6.6c0-2.6,2.2-4.7,4.8-4.7C36.5,82.2,42.9,82.2,42.9,82.2z"/>
		<path id="XMLID_319_" fill="#D9D9D6" d="M24.1,62c0.8,0,1.3-0.4,1.3-0.7v-5c0-0.3-0.5-0.7-1.3-0.7s-1.3,0.4-1.3,0.7v5
			C22.8,61.5,23.3,62,24.1,62z"/>
		<path id="XMLID_318_" fill="#D9D9D6" d="M33.7,62c0.8,0,1.3-0.4,1.3-0.7v-5c0-0.3-0.5-0.7-1.3-0.7s-1.3,0.4-1.3,0.7v5
			C32.4,61.5,32.9,62,33.7,62z"/>
	</g>
</g>
<g id="XMLID_383_">
	<g id="XMLID_417_">
		<path id="XMLID_358_" fill="#FFAA87" d="M8.8,11.3C8.5,11,8,10.8,7.5,10.8s-1,0.2-1.3,0.5l-2.7,2.6c-0.7,0.7-0.7,1.8,0,2.5
			l2.3,2.2l5.3-5.1L8.8,11.3z"/>
		<path id="XMLID_357_" fill="#FFAA87" d="M26.2,33.8c0.2-0.2,0.2-0.5,0.1-0.7l-3.9-8l-5.2,5.1l8.3,3.7C25.7,34.1,26,34,26.2,33.8z"
			/>
		<polygon id="XMLID_356_" fill="#FFAA87" points="20.7,23.4 12.3,15.2 7,20.4 15.4,28.5 		"/>
		<path id="XMLID_355_" fill="#FF550F" d="M45.9,11.2c-0.6,0-1,0.4-1,1v21.9l-7.9,7.7c-0.4,0.4-0.4,1,0,1.4s1,0.4,1.4,0l8.2-8
			c0.2-0.2,0.3-0.4,0.3-0.7V12.2C46.9,11.7,46.4,11.2,45.9,11.2z"/>
		<path id="XMLID_354_" fill="#FFAA87" d="M36.4,34.4c-1.5,0-2.7,1-2.7,2.5v5.5l8.1-8H36.4L36.4,34.4z"/>
		<path id="XMLID_353_" fill="#FF550F" d="M42.8,32.1V12.2c0-2-1.7-3.6-3.8-3.6h-2.2v2.6c0,1.5-1.4,2.6-3.2,2.6
			c-1.8,0-3.2-1.2-3.2-2.6V8.6h-3.2v2.6c0,1.5-1.4,2.6-3.2,2.6c-1.8,0-3.2-1.2-3.2-2.6V8.6h-2.2c-2.1,0-3.8,1.6-3.8,3.6v2.4
			l10.8,10.6l3.6,11.5l-12-3.2L15,31.3v8.5c0,2,1.7,3.6,3.8,3.6h12.9v-6.6c0-2.6,2.2-4.7,4.8-4.7H42.8z"/>
		<path id="XMLID_352_" fill="#FFAA87" d="M24.1,11.9c0.8,0,1.3-0.4,1.3-0.7v-5c0-0.3-0.5-0.7-1.3-0.7s-1.3,0.4-1.3,0.7v5
			C22.8,11.5,23.3,11.9,24.1,11.9z"/>
		<path id="XMLID_351_" fill="#FFAA87" d="M33.7,11.9c0.8,0,1.3-0.4,1.3-0.7v-5c0-0.3-0.5-0.7-1.3-0.7c-0.8,0-1.3,0.4-1.3,0.7v5
			C32.4,11.5,32.9,11.9,33.7,11.9z"/>
	</g>
</g>
</svg>
