<?xml version="1.0" encoding="utf-8"?>
<!-- Generator: Adobe Illustrator 19.0.0, SVG Export Plug-In . SVG Version: 6.00 Build 0)  -->
<svg version="1.1" xmlns="http://www.w3.org/2000/svg" xmlns:xlink="http://www.w3.org/1999/xlink" x="0px" y="0px"
	 viewBox="0 0 50 100" style="enable-background:new 0 0 50 100;" xml:space="preserve">
<style type="text/css">
	.st0{fill:#D9D9D6;}
	.st1{fill:#FF550F;}
</style>
<g id="Layer_1">
	<g id="XMLID_386_">
		<g id="XMLID_308_">
			<path id="XMLID_303_" class="st0" d="M16.4,55.1c-0.5,0-0.9,0.4-0.9,0.8v4.6c0,0.5,0.4,0.8,0.9,0.8h0.2c0.5,0,0.9-0.4,0.9-0.8
				v-4.6c0-0.5-0.4-0.8-0.9-0.8H16.4z"/>
			<path id="XMLID_302_" class="st0" d="M24.9,55.1c-0.5,0-0.9,0.4-0.9,0.8v4.6c0,0.5,0.4,0.8,0.9,0.8h0.2c0.5,0,0.9-0.4,0.9-0.8
				v-4.6c0-0.5-0.4-0.8-0.9-0.8H24.9z"/>
			<path id="XMLID_300_" class="st0" d="M33.4,55.1c-0.5,0-0.9,0.4-0.9,0.8v4.6c0,0.5,0.4,0.8,0.9,0.8h0.2c0.5,0,0.9-0.4,0.9-0.8
				v-4.6c0-0.5-0.4-0.8-0.9-0.8H33.4z"/>
			<path id="XMLID_309_" class="st0" d="M36,57.8v2.6c0,1.3-1.1,2.3-2.4,2.3h-0.2c-1.3,0-2.4-1-2.4-2.3v-2.7l-3.6,0v2.7
				c0,1.3-1.1,2.3-2.4,2.3h-0.2c-1.3,0-2.4-1-2.4-2.3v-2.7l-3.6,0v2.7c0,1.3-1.1,2.3-2.4,2.3h-0.2c-1.3,0-2.4-1-2.4-2.3v-2.6
				c-2.4,0.3-4.2,2.3-4.2,4.6v26.8c0,2.6,2.2,4.7,4.9,4.7h20.7c2.7,0,4.9-2.1,4.9-4.7V62.5C40.3,60.1,38.4,58.2,36,57.8z M35.2,87.3
				H14.8c-0.4,0-0.7-0.3-0.7-0.7s0.3-0.7,0.7-0.7h20.4c0.4,0,0.7,0.3,0.7,0.7S35.6,87.3,35.2,87.3z M35.2,81.2H14.8
				c-0.4,0-0.7-0.3-0.7-0.7s0.3-0.7,0.7-0.7h20.4c0.4,0,0.7,0.3,0.7,0.7S35.6,81.2,35.2,81.2z M35.2,75H14.8c-0.4,0-0.7-0.3-0.7-0.7
				s0.3-0.7,0.7-0.7h20.4c0.4,0,0.7,0.3,0.7,0.7S35.6,75,35.2,75z M35.2,68.9H14.8c-0.4,0-0.7-0.3-0.7-0.7s0.3-0.7,0.7-0.7h20.4
				c0.4,0,0.7,0.3,0.7,0.7S35.6,68.9,35.2,68.9z"/>
		</g>
	</g>
	<g id="XMLID_383_">
		<g id="XMLID_394_">
			<path id="XMLID_341_" class="st1" d="M16.4,5c-0.5,0-0.9,0.4-0.9,0.8v4.6c0,0.5,0.4,0.8,0.9,0.8h0.2c0.5,0,0.9-0.4,0.9-0.8V5.8
				C17.4,5.4,17,5,16.6,5H16.4z"/>
			<path id="XMLID_340_" class="st1" d="M24.9,5C24.4,5,24,5.4,24,5.8v4.6c0,0.5,0.4,0.8,0.9,0.8h0.2c0.5,0,0.9-0.4,0.9-0.8V5.8
				C26,5.4,25.6,5,25.1,5H24.9z"/>
			<path id="XMLID_339_" class="st1" d="M33.4,5c-0.5,0-0.9,0.4-0.9,0.8v4.6c0,0.5,0.4,0.8,0.9,0.8h0.2c0.5,0,0.9-0.4,0.9-0.8V5.8
				c0-0.5-0.4-0.8-0.9-0.8H33.4z"/>
			<path id="XMLID_395_" class="st1" d="M36,7.8v2.6c0,1.3-1.1,2.3-2.4,2.3h-0.2c-1.3,0-2.4-1-2.4-2.3V7.7l-3.6,0v2.7
				c0,1.3-1.1,2.3-2.4,2.3h-0.2c-1.3,0-2.4-1-2.4-2.3V7.7l-3.6,0v2.7c0,1.3-1.1,2.3-2.4,2.3h-0.2c-1.3,0-2.4-1-2.4-2.3V7.8
				c-2.4,0.3-4.2,2.3-4.2,4.6v26.8c0,2.6,2.2,4.7,4.9,4.7h20.7c2.7,0,4.9-2.1,4.9-4.7V12.4C40.3,10,38.4,8.1,36,7.8z M35.2,37.2
				H14.8c-0.4,0-0.7-0.3-0.7-0.7s0.3-0.7,0.7-0.7h20.4c0.4,0,0.7,0.3,0.7,0.7S35.6,37.2,35.2,37.2z M35.2,31.1H14.8
				c-0.4,0-0.7-0.3-0.7-0.7s0.3-0.7,0.7-0.7h20.4c0.4,0,0.7,0.3,0.7,0.7S35.6,31.1,35.2,31.1z M35.2,25H14.8c-0.4,0-0.7-0.3-0.7-0.7
				s0.3-0.7,0.7-0.7h20.4c0.4,0,0.7,0.3,0.7,0.7S35.6,25,35.2,25z M35.2,18.8H14.8c-0.4,0-0.7-0.3-0.7-0.7s0.3-0.7,0.7-0.7h20.4
				c0.4,0,0.7,0.3,0.7,0.7S35.6,18.8,35.2,18.8z"/>
		</g>
	</g>
</g>
<g id="Layer_2">
</g>
</svg>
