<?xml version="1.0" encoding="utf-8"?>
<!-- Generator: Adobe Illustrator 19.0.0, SVG Export Plug-In . SVG Version: 6.00 Build 0)  -->
<svg version="1.1" id="Layer_1" xmlns="http://www.w3.org/2000/svg" xmlns:xlink="http://www.w3.org/1999/xlink" x="0px" y="0px"
	 viewBox="0 0 80 80" style="enable-background:new 0 0 80 80;" xml:space="preserve">
<style type="text/css">
	.st0{fill:#B2D3DF;}
	.st1{fill:#FFFFFF;}
</style>
<g>
	<g>
		<path class="st0" d="M40,3c20.4,0,37,16.6,37,37S60.4,77,40,77S3,60.4,3,40S19.6,3,40,3 M40,0C17.9,0,0,17.9,0,40s17.9,40,40,40
			s40-17.9,40-40S62.1,0,40,0L40,0z"/>
	</g>
	<g>
		<path class="st1" d="M64.2,56.6H19.3v-34c0-0.8-0.6-1.4-1.4-1.4c-0.8,0-1.4,0.6-1.4,1.4v35.5c0,0.8,0.6,1.4,1.4,1.4h46.4
			c0.8,0,1.4-0.6,1.4-1.4C65.6,57.3,65,56.6,64.2,56.6z"/>
		<path class="st1" d="M62.5,21.9H48.4l5.3,5.3l-1.9,1.9L43,38l-5.3-5.3L22.4,47.9l5.3,5.3l9.9-9.9l5.3,5.3l16.1-16.1l5.3,5.3V23.7
			C64.4,22.7,63.5,21.9,62.5,21.9z"/>
	</g>
</g>
</svg>
