<?xml version="1.0" encoding="utf-8"?>
<!-- Generator: Adobe Illustrator 19.0.0, SVG Export Plug-In . SVG Version: 6.00 Build 0)  -->
<svg version="1.1" id="Layer_1" xmlns="http://www.w3.org/2000/svg" xmlns:xlink="http://www.w3.org/1999/xlink" x="0px" y="0px"
	 viewBox="0 0 80 80" style="enable-background:new 0 0 80 80;" xml:space="preserve">
<style type="text/css">
	.st0{fill:#BCF2E7;}
	.st1{fill:#FFFFFF;}
</style>
<g>
	<g>
		<path class="st0" d="M40,3c20.4,0,37,16.6,37,37S60.4,77,40,77S3,60.4,3,40S19.6,3,40,3 M40,0C17.9,0,0,17.9,0,40
			c0,22.1,17.9,40,40,40s40-17.9,40-40C80,17.9,62.1,0,40,0L40,0z"/>
	</g>
	<g>
		<g>
			<path class="st1" d="M51.2,51.4c-0.1-0.3-0.4-0.6-0.8-0.6h-1.7c-0.4,0-0.8,0.3-0.8,0.8l0,0.1c0.5,2.8,2.8,5,5.5,5.6V54
				C52.4,53.5,51.5,52.6,51.2,51.4z"/>
			<path class="st1" d="M56.6,43.7v-4.9c0.3,0.3,0.6,0.7,0.8,1.1c0.1,0.3,0.4,0.5,0.7,0.5h1.7c0.4,0,0.8-0.3,0.8-0.8l0-0.2
				c-0.5-2.1-2.1-3.7-4-4.3v-1.6c0-0.5-0.4-0.9-0.9-0.9c-0.5,0-0.9,0.4-0.9,0.9v0.2v22.6c0,0.5,0.4,0.9,0.9,0.9c0.1,0,0.1,0,0.1,0
				l0,0c3.3-0.5,5.9-3.4,5.9-6.9C61.8,47.2,59.5,44.5,56.6,43.7z M56.6,53.8v-6.7c1.2,0.6,2,1.9,2,3.3
				C58.6,51.9,57.8,53.1,56.6,53.8z"/>
			<path class="st1" d="M49,40.8c0,2.8,1.9,5.1,4.5,5.7v-3.4c-0.8-0.5-1.4-1.3-1.4-2.3c0-1,0.5-1.9,1.4-2.3v-3.4
				C50.9,35.7,49,38,49,40.8z"/>
		</g>
		<path class="st1" d="M44.6,52.2l0-0.2l0-0.5c0-2.1,1.7-3.8,3.8-3.8H49c-2.1-1.6-3.4-4.2-3.4-7c0-1.9,0.6-3.6,1.6-5.1
			c-0.7-0.3-1.5-0.6-2.3-0.9c2.3-1.9,3.8-4.8,3.8-8c0-5.6-4.6-10.2-10.2-10.2c0,0,0,0,0,0c0,0,0,0,0,0c-5.6,0-10.2,4.6-10.2,10.2
			c0,3.2,1.5,6.1,3.8,8c-2.5,0.8-4.7,1.9-6.7,3.5l0.1,0.1c-4,3.1-5.7,7.6-7.1,12.7c-0.1,0.4-0.2,0.9-0.2,1.3c0,2.2-0.5,4.8,3.3,4.8
			c0,0,7.9,0,16.9,0c3.1,0,6.1,0,8.6,0C45.9,55.8,45,54.1,44.6,52.2z"/>
	</g>
</g>
</svg>
