<?xml version="1.0" encoding="utf-8"?>
<!-- Generator: Adobe Illustrator 19.0.0, SVG Export Plug-In . SVG Version: 6.00 Build 0)  -->
<svg version="1.1" id="Layer_1" xmlns="http://www.w3.org/2000/svg" xmlns:xlink="http://www.w3.org/1999/xlink" x="0px" y="0px"
	 viewBox="-265 397 80 80" style="enable-background:new -265 397 80 80;" xml:space="preserve">
<style type="text/css">
	.st0{fill:#BCF2E7;}
	.st1{fill:#FFFFFF;}
</style>
<title>tools-goal-planner</title>
<path class="st0" d="M-225,400c20.4,0,37,16.6,37,37s-16.6,37-37,37s-37-16.6-37-37S-245.4,400-225,400L-225,400 M-225,397
	c-22.1,0-40,17.9-40,40c0,22.1,17.9,40,40,40s40-17.9,40-40C-185,414.9-202.9,397-225,397"/>
<path class="st1" d="M-225,459.7c-12.5,0-22.7-10.1-22.7-22.7s10.1-22.7,22.7-22.7c12.5,0,22.7,10.1,22.7,22.7l0,0
	C-202.3,449.5-212.5,459.7-225,459.7z M-225,419.9c-9.4,0-17.1,7.6-17.1,17.1s7.6,17.1,17.1,17.1c9.4,0,17.1-7.6,17.1-17.1
	C-207.9,427.6-215.6,419.9-225,419.9z"/>
<path class="st1" d="M-225,448.5c-6.3,0-11.5-5.1-11.5-11.5c0-6.3,5.1-11.5,11.5-11.5c6.3,0,11.5,5.1,11.5,11.5
	C-213.5,443.3-218.7,448.5-225,448.5z M-225,431.1c-3.2,0-5.9,2.6-5.9,5.9s2.6,5.9,5.9,5.9s5.9-2.6,5.9-5.9l0,0
	C-219.1,433.8-221.8,431.1-225,431.1z"/>
</svg>
