<?xml version="1.0" encoding="utf-8"?>
<!-- Generator: Adobe Illustrator 18.0.0, SVG Export Plug-In . SVG Version: 6.00 Build 0)  -->
<!DOCTYPE svg PUBLIC "-//W3C//DTD SVG 1.1//EN" "http://www.w3.org/Graphics/SVG/1.1/DTD/svg11.dtd">
<svg version="1.1" id="Layer_1" xmlns="http://www.w3.org/2000/svg" xmlns:xlink="http://www.w3.org/1999/xlink" x="0px" y="0px" viewBox="1 -1 376.2 752.4" enable-background="new 1 -1 376.2 752.4" xml:space="preserve">

    <g id="Layer_4">
        <g>
            <g>
                <circle fill="#B7B8BA" cx="189.3" cy="563.3" r="188.1"/>
            </g>
            <g>
                <path fill="#FFFFFF" d="M102.3,493.9h170.5c8.8,0,4.4,12.1,0,14.3c-4.4,3.3-73.7,44-75.9,46.2c-2.2,2.2-5.5,2.2-8.8,2.2
                    c-3.3,0-6.6-1.1-8.8-2.2c-2.2-1.1-70.4-42.9-75.9-46.2C97.9,506,93.5,493.9,102.3,493.9z"/>
                    <path fill="#FFFFFF" d="M279.4,619.3c0,4.4-5.5,11-9.9,11H107.8c-4.4,0-9.9-6.6-9.9-11c0,0,0-80.3,0-82.5s0-4.4,4.4-2.2c5.5,3.3,73.7,44,78.1,46.2c3.3,2.2,5.5,2.2,8.8,2.2c3.3,0,5.5,0,8.8-2.2c3.3-2.2,72.6-42.9,78.1-46.2c4.4-2.2,4.4,0,4.4,2.2C279.4,537.9,279.4,619.3,279.4,619.3z"/>
                </g>
            </g>
            <g>
                <g>
                    <circle fill="#BEBEBE" cx="189.1" cy="187.1" r="188.1"/>
                </g>
                <g>
                    <path fill="#FFFFFF" d="M102.3,117.9h170.5c8.8,0,4.4,12.1,0,14.3c-4.4,3.3-73.7,44-75.9,46.2c-2.2,1.1-5.5,2.2-8.8,2.2
                        c-3.3,0-6.6-1.1-8.8-2.2c-2.2-1.1-70.4-42.9-75.9-46.2C97.9,128.9,93.5,117.9,102.3,117.9z"/>
                        <path fill="#FFFFFF" d="M279.4,242.2c0,4.4-5.5,11-9.9,11H107.8c-4.4,0-9.9-6.6-9.9-11c0,0,0-80.3,0-82.5s0-4.4,4.4-2.2
                            c5.5,3.3,73.7,44,78.1,46.2c3.3,2.2,5.5,2.2,8.8,2.2c3.3,0,5.5,0,8.8-2.2c3.3-2.2,72.6-42.9,78.1-46.2c4.4-2.2,4.4,0,4.4,2.2
                            C279.4,161.9,279.4,242.2,279.4,242.2z"/>
                        </g>
                    </g>
                </g>
            </svg>
