<?xml version="1.0" encoding="utf-8"?>
<!-- Generator: Adobe Illustrator 19.0.0, SVG Export Plug-In . SVG Version: 6.00 Build 0)  -->
<svg version="1.1" id="Layer_1" xmlns="http://www.w3.org/2000/svg" xmlns:xlink="http://www.w3.org/1999/xlink" x="0px" y="0px"
	 viewBox="0 0 36 36" style="enable-background:new 0 0 36 36;" xml:space="preserve">
<style type="text/css">
	.st0{fill:#FFFFFF;}
</style>
<g id="XMLID_13_">
	<path id="XMLID_67_" class="st0" d="M18,1.5c9.1,0,16.5,7.4,16.5,16.5c0,9.1-7.4,16.5-16.5,16.5S1.5,27.1,1.5,18
		C1.5,8.9,8.9,1.5,18,1.5 M18,0C8.1,0,0,8.1,0,18c0,9.9,8.1,18,18,18s18-8.1,18-18C36,8.1,27.9,0,18,0L18,0z"/>
</g>
<path id="XMLID_12_" class="st0" d="M22.8,17.9h-3.1c0,5,0,11.1,0,11.1H15c0,0,0-6.1,0-11.1h-2.2V14H15v-2.5c0-1.8,0.9-4.7,4.7-4.7
	l3.4,0v3.8c0,0-2.1,0-2.5,0c-0.4,0-1,0.2-1,1.1V14h3.5L22.8,17.9z"/>
</svg>
