<?xml version="1.0" encoding="utf-8"?>
<!-- Generator: Adobe Illustrator 19.0.0, SVG Export Plug-In . SVG Version: 6.00 Build 0)  -->
<svg version="1.1" id="Layer_1" xmlns="http://www.w3.org/2000/svg" xmlns:xlink="http://www.w3.org/1999/xlink" x="0px" y="0px"
	 viewBox="0 0 36 36" style="enable-background:new 0 0 36 36;" xml:space="preserve">
<style type="text/css">
	.st0{fill:#FF4B05;}
	.st1{fill-rule:evenodd;clip-rule:evenodd;fill:#FF4B05;}
</style>
<g>
	<path id="XMLID_12_" class="st0" d="M18,1.5c9.1,0,16.5,7.4,16.5,16.5c0,9.1-7.4,16.5-16.5,16.5S1.5,27.1,1.5,18
		C1.5,8.9,8.9,1.5,18,1.5 M18,0C8.1,0,0,8.1,0,18c0,9.9,8.1,18,18,18s18-8.1,18-18C36,8.1,27.9,0,18,0L18,0z"/>
</g>
<path class="st1" d="M11.9,18.1l4.9,4.9V9.4c0-0.7,0.5-1.2,1.2-1.2c0.7,0,1.2,0.5,1.2,1.2v13.5l4.9-4.9c0.5-0.5,1.2-0.5,1.7,0
	c0.5,0.5,0.5,1.2,0,1.7l-6.8,6.7c-0.3,0.3-0.7,0.4-1.1,0.3c-0.4,0.1-0.8,0-1.1-0.3l-6.8-6.7c-0.5-0.5-0.5-1.2,0-1.7
	C10.6,17.6,11.4,17.6,11.9,18.1z"/>
</svg>
