<?xml version="1.0" encoding="utf-8"?>
<!-- Generator: Adobe Illustrator 19.0.0, SVG Export Plug-In . SVG Version: 6.00 Build 0)  -->
<svg version="1.1" id="Layer_1" xmlns="http://www.w3.org/2000/svg" xmlns:xlink="http://www.w3.org/1999/xlink" x="0px" y="0px"
	 viewBox="0 0 80 160" style="enable-background:new 0 0 80 160;" xml:space="preserve">
<style type="text/css">
	.st0{fill:#FFF7CC;}
	.st1{fill:#FFD700;}
</style>
<g>
	<g>
		<g id="XMLID_6_">
			<path id="XMLID_19_" class="st0" d="M40,83c20.4,0,37,16.6,37,37s-16.6,37-37,37S3,140.4,3,120S19.6,83,40,83 M40,80
				C17.9,80,0,97.9,0,120s17.9,40,40,40s40-17.9,40-40S62.1,80,40,80L40,80z"/>
		</g>
		<g>
			<path id="XMLID_5_" class="st1" d="M65.3,127.6c0,0-5.8-7.2-7-7.6c-1.2-0.4-4.1,0-6.5-1.7c-2.4-1.7-3.1-0.5-4.1,0
				c-1,0.5-3.8,3.8-12.9,5.6c-9.1,1.8-8.7,9.3-8.2,11.4c0.5,2.1,2.5,4,4.9,3.6c2.3-0.4,3.4-0.5,4.3,0.1c0,0-1.5,0.1-2,0.9
				c0,0,3.2,1.2,3.3,1.9c0,0-4.5-0.8-4.8,0c0,0,0.6,1,0.6,1.8c0,0-2.5-2.8-3.9-2.7c-1.4,0.1-4,0.7-4.1-1.6c-0.1-2.3-0.1-9.3-4-12.4
				c-3.9-3.1-9-10.7-4.2-19.5c4.8-8.8,15.3-8.8,19.9-7c4.6,1.8,8.2,5.4,11.6,5.8c3.3,0.4,8.1,0.5,9.8,3.2c1.7,2.7,1.2,7.2,1.9,8.5
				C60.5,119.2,65.4,125.4,65.3,127.6z"/>
			<path id="XMLID_4_" class="st1" d="M32,127.2c0,0,2.8,4.5,3.3,5.5c0.5,0.9,6.2-0.6,7.2,1c0,0-1.5-0.1-2.4,0.4
				c0,0,1.4,1.3,1.6,1.9c0,0-1.4-0.2-2.6-0.4c0,0,0.8,2,0.5,2.9c0,0-2.5-3.6-4.1-3.6c-1.6,0-2.8-0.5-2.8-1.9c0-1.4-1.3-4.1-2-4.5
				C30,127.9,31.4,126.2,32,127.2z"/>
		</g>
	</g>
	<path class="st1" d="M40,0C17.9,0,0,17.9,0,40c0,22.1,17.9,40,40,40c22.1,0,40-17.9,40-40C80,17.9,62.1,0,40,0z M40.1,54
		c0,0,1.4,1.3,1.6,1.9c0,0-1.4-0.2-2.6-0.4c0,0,0.8,2,0.5,2.9c0,0-2.5-3.6-4.1-3.6s-2.8-0.5-2.8-1.9s-1.3-4.1-2-4.5
		c-0.7-0.4,0.7-2.1,1.3-1.1c0,0,2.8,4.5,3.3,5.5c0.5,0.9,6.2-0.6,7.2,1C42.5,53.6,41,53.5,40.1,54z M58.4,40c-1.2-0.4-4.1,0-6.5-1.7
		c-2.4-1.7-3.1-0.5-4.1,0c-1,0.5-3.8,3.8-12.9,5.6c-9.1,1.8-8.7,9.3-8.2,11.4s2.5,4,4.9,3.6c2.3-0.4,3.4-0.5,4.3,0.1
		c0,0-1.5,0.1-2,0.9c0,0,3.2,1.2,3.3,1.9c0,0-4.5-0.8-4.8,0c0,0,0.6,1,0.6,1.8c0,0-2.5-2.8-3.9-2.7c-1.4,0.1-4,0.7-4.1-1.6
		s-0.1-9.3-4-12.4c-3.9-3.1-9-10.7-4.2-19.5c4.8-8.8,15.3-8.8,19.9-7c4.6,1.8,8.2,5.4,11.6,5.8c3.3,0.4,8.1,0.5,9.8,3.2
		c1.7,2.7,1.2,7.2,1.9,8.5c0.7,1.3,5.7,7.5,5.6,9.7C65.3,47.6,59.6,40.4,58.4,40z"/>
</g>
</svg>
