<?xml version="1.0" encoding="utf-8"?>
<!-- Generator: Adobe Illustrator 19.0.0, SVG Export Plug-In . SVG Version: 6.00 Build 0)  -->
<svg version="1.1" id="Layer_1" xmlns="http://www.w3.org/2000/svg" xmlns:xlink="http://www.w3.org/1999/xlink" x="0px" y="0px"
	 viewBox="0 0 45.4 33.6" style="enable-background:new 0 0 45.4 33.6;" xml:space="preserve">
<style type="text/css">
	.st0{fill:#F3D1E9;}
	.st1{clip-path:url(#XMLID_230_);}
	.st2{fill:#CE0058;}
	.st3{clip-path:url(#XMLID_231_);}
	.st4{clip-path:url(#XMLID_232_);}
	.st5{clip-path:url(#XMLID_233_);}
	.st6{clip-path:url(#XMLID_234_);}
	.st7{clip-path:url(#XMLID_235_);}
	.st8{clip-path:url(#XMLID_236_);}
	.st9{clip-path:url(#XMLID_237_);}
	.st10{clip-path:url(#XMLID_238_);}
</style>
<g>
	<g>
		<path class="st0" d="M44.9,10.4c-0.2-0.3-0.6-0.5-0.9-0.5H40c-1.1-3-1.3-5.9-3-7.1C31.2-1,13.9-1,8.1,2.9C6.5,4,6.2,6.9,5.1,9.9
			H1.2c-0.4,0-0.7,0.2-0.9,0.5C0.1,10.7,0,11,0,11.4l0,3.3c0.1,0.6,0.6,1,1.2,1h1.4c-1.3,1.5-1,3.2-1,5.2c0,2.4-0.1,4.7,1.6,6.2
			c0,0,0,0,0.1,0v4.6c0,1,0.8,1.8,1.8,1.8h4.2c1,0,1.8-0.8,1.8-1.8v-1.9h23.1v1.9c0,1,0.8,1.8,1.8,1.8h4.2c1,0,1.8-0.8,1.8-1.8v-4.5
			c1.7-1.6,1.7-3.8,1.7-6c0-2,0.2-4-1.2-5.5h1.5c0.6,0,1.1-0.4,1.2-1l0-3.3C45.2,11,45.1,10.7,44.9,10.4z M7.1,23.9
			c-1.3,0-2.4-1.1-2.4-2.4c0-1.3,1.1-2.4,2.4-2.4c1.3,0,2.4,1.1,2.4,2.4C9.5,22.9,8.4,23.9,7.1,23.9z M8.3,11c0.7-2.3,1-4.4,1.9-5
			c4.6-3.1,20.3-3.1,24.9,0c0.9,0.6,1.1,2.7,1.8,5H8.3z M38.2,23.9c-1.3,0-2.4-1.1-2.4-2.4c0-1.3,1.1-2.4,2.4-2.4
			c1.3,0,2.4,1.1,2.4,2.4C40.6,22.9,39.5,23.9,38.2,23.9z"/>
	</g>
	<g>
		<defs>
			<rect id="XMLID_150_" x="-2.2" y="30.2" width="50" height="7"/>
		</defs>
		<clipPath id="XMLID_230_">
			<use xlink:href="#XMLID_150_"  style="overflow:visible;"/>
		</clipPath>
		<g class="st1">
			<path class="st2" d="M44.9,10.4c-0.2-0.3-0.6-0.5-0.9-0.5H40c-1.1-3-1.3-5.9-3-7.1C31.2-1,13.9-1,8.1,2.9C6.5,4,6.2,6.9,5.1,9.9
				H1.2c-0.4,0-0.7,0.2-0.9,0.5C0.1,10.7,0,11,0,11.4l0,3.3c0.1,0.6,0.6,1,1.2,1h1.4c-1.3,1.5-1,3.2-1,5.2c0,2.4-0.1,4.7,1.6,6.2
				c0,0,0,0,0.1,0v4.6c0,1,0.8,1.8,1.8,1.8h4.2c1,0,1.8-0.8,1.8-1.8v-1.9h23.1v1.9c0,1,0.8,1.8,1.8,1.8h4.2c1,0,1.8-0.8,1.8-1.8
				v-4.5c1.7-1.6,1.7-3.8,1.7-6c0-2,0.2-4-1.2-5.5h1.5c0.6,0,1.1-0.4,1.2-1l0-3.3C45.2,11,45.1,10.7,44.9,10.4z M7.1,23.9
				c-1.3,0-2.4-1.1-2.4-2.4c0-1.3,1.1-2.4,2.4-2.4c1.3,0,2.4,1.1,2.4,2.4C9.5,22.9,8.4,23.9,7.1,23.9z M8.3,11c0.7-2.3,1-4.4,1.9-5
				c4.6-3.1,20.3-3.1,24.9,0c0.9,0.6,1.1,2.7,1.8,5H8.3z M38.2,23.9c-1.3,0-2.4-1.1-2.4-2.4c0-1.3,1.1-2.4,2.4-2.4
				c1.3,0,2.4,1.1,2.4,2.4C40.6,22.9,39.5,23.9,38.2,23.9z"/>
		</g>
	</g>
</g>
<g>
	<g>
		<path class="st0" d="M44.9,10.4c-0.2-0.3-0.6-0.5-0.9-0.5H40c-1.1-3-1.3-5.9-3-7.1C31.2-1,13.9-1,8.1,2.9C6.5,4,6.2,6.9,5.1,9.9
			H1.2c-0.4,0-0.7,0.2-0.9,0.5C0.1,10.7,0,11,0,11.4l0,3.3c0.1,0.6,0.6,1,1.2,1h1.4c-1.3,1.5-1,3.2-1,5.2c0,2.4-0.1,4.7,1.6,6.2
			c0,0,0,0,0.1,0v4.6c0,1,0.8,1.8,1.8,1.8h4.2c1,0,1.8-0.8,1.8-1.8v-1.9h23.1v1.9c0,1,0.8,1.8,1.8,1.8h4.2c1,0,1.8-0.8,1.8-1.8v-4.5
			c1.7-1.6,1.7-3.8,1.7-6c0-2,0.2-4-1.2-5.5h1.5c0.6,0,1.1-0.4,1.2-1l0-3.3C45.2,11,45.1,10.7,44.9,10.4z M7.1,23.9
			c-1.3,0-2.4-1.1-2.4-2.4c0-1.3,1.1-2.4,2.4-2.4c1.3,0,2.4,1.1,2.4,2.4C9.5,22.9,8.4,23.9,7.1,23.9z M8.3,11c0.7-2.3,1-4.4,1.9-5
			c4.6-3.1,20.3-3.1,24.9,0c0.9,0.6,1.1,2.7,1.8,5H8.3z M38.2,23.9c-1.3,0-2.4-1.1-2.4-2.4c0-1.3,1.1-2.4,2.4-2.4
			c1.3,0,2.4,1.1,2.4,2.4C40.6,22.9,39.5,23.9,38.2,23.9z"/>
	</g>
	<g>
		<defs>
			<rect id="XMLID_134_" x="-2.2" y="26.8" width="50" height="10.4"/>
		</defs>
		<clipPath id="XMLID_231_">
			<use xlink:href="#XMLID_134_"  style="overflow:visible;"/>
		</clipPath>
		<g class="st3">
			<path class="st2" d="M44.9,10.4c-0.2-0.3-0.6-0.5-0.9-0.5H40c-1.1-3-1.3-5.9-3-7.1C31.2-1,13.9-1,8.1,2.9C6.5,4,6.2,6.9,5.1,9.9
				H1.2c-0.4,0-0.7,0.2-0.9,0.5C0.1,10.7,0,11,0,11.4l0,3.3c0.1,0.6,0.6,1,1.2,1h1.4c-1.3,1.5-1,3.2-1,5.2c0,2.4-0.1,4.7,1.6,6.2
				c0,0,0,0,0.1,0v4.6c0,1,0.8,1.8,1.8,1.8h4.2c1,0,1.8-0.8,1.8-1.8v-1.9h23.1v1.9c0,1,0.8,1.8,1.8,1.8h4.2c1,0,1.8-0.8,1.8-1.8
				v-4.5c1.7-1.6,1.7-3.8,1.7-6c0-2,0.2-4-1.2-5.5h1.5c0.6,0,1.1-0.4,1.2-1l0-3.3C45.2,11,45.1,10.7,44.9,10.4z M7.1,23.9
				c-1.3,0-2.4-1.1-2.4-2.4c0-1.3,1.1-2.4,2.4-2.4c1.3,0,2.4,1.1,2.4,2.4C9.5,22.9,8.4,23.9,7.1,23.9z M8.3,11c0.7-2.3,1-4.4,1.9-5
				c4.6-3.1,20.3-3.1,24.9,0c0.9,0.6,1.1,2.7,1.8,5H8.3z M38.2,23.9c-1.3,0-2.4-1.1-2.4-2.4c0-1.3,1.1-2.4,2.4-2.4
				c1.3,0,2.4,1.1,2.4,2.4C40.6,22.9,39.5,23.9,38.2,23.9z"/>
		</g>
	</g>
</g>
<g>
	<g>
		<path class="st0" d="M44.9,10.4c-0.2-0.3-0.6-0.5-0.9-0.5H40c-1.1-3-1.3-5.9-3-7.1C31.2-1,13.9-1,8.1,2.9C6.5,4,6.2,6.9,5.1,9.9
			H1.2c-0.4,0-0.7,0.2-0.9,0.5C0.1,10.7,0,11,0,11.4l0,3.3c0.1,0.6,0.6,1,1.2,1h1.4c-1.3,1.5-1,3.2-1,5.2c0,2.4-0.1,4.7,1.6,6.2
			c0,0,0,0,0.1,0v4.6c0,1,0.8,1.8,1.8,1.8h4.2c1,0,1.8-0.8,1.8-1.8v-1.9h23.1v1.9c0,1,0.8,1.8,1.8,1.8h4.2c1,0,1.8-0.8,1.8-1.8v-4.5
			c1.7-1.6,1.7-3.8,1.7-6c0-2,0.2-4-1.2-5.5h1.5c0.6,0,1.1-0.4,1.2-1l0-3.3C45.2,11,45.1,10.7,44.9,10.4z M7.1,23.9
			c-1.3,0-2.4-1.1-2.4-2.4c0-1.3,1.1-2.4,2.4-2.4c1.3,0,2.4,1.1,2.4,2.4C9.5,22.9,8.4,23.9,7.1,23.9z M8.3,11c0.7-2.3,1-4.4,1.9-5
			c4.6-3.1,20.3-3.1,24.9,0c0.9,0.6,1.1,2.7,1.8,5H8.3z M38.2,23.9c-1.3,0-2.4-1.1-2.4-2.4c0-1.3,1.1-2.4,2.4-2.4
			c1.3,0,2.4,1.1,2.4,2.4C40.6,22.9,39.5,23.9,38.2,23.9z"/>
	</g>
	<g>
		<defs>
			<rect id="XMLID_124_" x="-2.2" y="23.6" width="50" height="13.6"/>
		</defs>
		<clipPath id="XMLID_232_">
			<use xlink:href="#XMLID_124_"  style="overflow:visible;"/>
		</clipPath>
		<g class="st4">
			<path class="st2" d="M44.9,10.4c-0.2-0.3-0.6-0.5-0.9-0.5H40c-1.1-3-1.3-5.9-3-7.1C31.2-1,13.9-1,8.1,2.9C6.5,4,6.2,6.9,5.1,9.9
				H1.2c-0.4,0-0.7,0.2-0.9,0.5C0.1,10.7,0,11,0,11.4l0,3.3c0.1,0.6,0.6,1,1.2,1h1.4c-1.3,1.5-1,3.2-1,5.2c0,2.4-0.1,4.7,1.6,6.2
				c0,0,0,0,0.1,0v4.6c0,1,0.8,1.8,1.8,1.8h4.2c1,0,1.8-0.8,1.8-1.8v-1.9h23.1v1.9c0,1,0.8,1.8,1.8,1.8h4.2c1,0,1.8-0.8,1.8-1.8
				v-4.5c1.7-1.6,1.7-3.8,1.7-6c0-2,0.2-4-1.2-5.5h1.5c0.6,0,1.1-0.4,1.2-1l0-3.3C45.2,11,45.1,10.7,44.9,10.4z M7.1,23.9
				c-1.3,0-2.4-1.1-2.4-2.4c0-1.3,1.1-2.4,2.4-2.4c1.3,0,2.4,1.1,2.4,2.4C9.5,22.9,8.4,23.9,7.1,23.9z M8.3,11c0.7-2.3,1-4.4,1.9-5
				c4.6-3.1,20.3-3.1,24.9,0c0.9,0.6,1.1,2.7,1.8,5H8.3z M38.2,23.9c-1.3,0-2.4-1.1-2.4-2.4c0-1.3,1.1-2.4,2.4-2.4
				c1.3,0,2.4,1.1,2.4,2.4C40.6,22.9,39.5,23.9,38.2,23.9z"/>
		</g>
	</g>
</g>
<g>
	<g>
		<path class="st0" d="M44.9,10.4c-0.2-0.3-0.6-0.5-0.9-0.5H40c-1.1-3-1.3-5.9-3-7.1C31.2-1,13.9-1,8.1,2.9C6.5,4,6.2,6.9,5.1,9.9
			H1.2c-0.4,0-0.7,0.2-0.9,0.5C0.1,10.7,0,11,0,11.4l0,3.3c0.1,0.6,0.6,1,1.2,1h1.4c-1.3,1.5-1,3.2-1,5.2c0,2.4-0.1,4.7,1.6,6.2
			c0,0,0,0,0.1,0v4.6c0,1,0.8,1.8,1.8,1.8h4.2c1,0,1.8-0.8,1.8-1.8v-1.9h23.1v1.9c0,1,0.8,1.8,1.8,1.8h4.2c1,0,1.8-0.8,1.8-1.8v-4.5
			c1.7-1.6,1.7-3.8,1.7-6c0-2,0.2-4-1.2-5.5h1.5c0.6,0,1.1-0.4,1.2-1l0-3.3C45.2,11,45.1,10.7,44.9,10.4z M7.1,23.9
			c-1.3,0-2.4-1.1-2.4-2.4c0-1.3,1.1-2.4,2.4-2.4c1.3,0,2.4,1.1,2.4,2.4C9.5,22.9,8.4,23.9,7.1,23.9z M8.3,11c0.7-2.3,1-4.4,1.9-5
			c4.6-3.1,20.3-3.1,24.9,0c0.9,0.6,1.1,2.7,1.8,5H8.3z M38.2,23.9c-1.3,0-2.4-1.1-2.4-2.4c0-1.3,1.1-2.4,2.4-2.4
			c1.3,0,2.4,1.1,2.4,2.4C40.6,22.9,39.5,23.9,38.2,23.9z"/>
	</g>
	<g>
		<defs>
			<rect id="XMLID_115_" x="-2.2" y="20.2" width="50" height="16.9"/>
		</defs>
		<clipPath id="XMLID_233_">
			<use xlink:href="#XMLID_115_"  style="overflow:visible;"/>
		</clipPath>
		<g class="st5">
			<path class="st2" d="M44.9,10.4c-0.2-0.3-0.6-0.5-0.9-0.5H40c-1.1-3-1.3-5.9-3-7.1C31.2-1,13.9-1,8.1,2.9C6.5,4,6.2,6.9,5.1,9.9
				H1.2c-0.4,0-0.7,0.2-0.9,0.5C0.1,10.7,0,11,0,11.4l0,3.3c0.1,0.6,0.6,1,1.2,1h1.4c-1.3,1.5-1,3.2-1,5.2c0,2.4-0.1,4.7,1.6,6.2
				c0,0,0,0,0.1,0v4.6c0,1,0.8,1.8,1.8,1.8h4.2c1,0,1.8-0.8,1.8-1.8v-1.9h23.1v1.9c0,1,0.8,1.8,1.8,1.8h4.2c1,0,1.8-0.8,1.8-1.8
				v-4.5c1.7-1.6,1.7-3.8,1.7-6c0-2,0.2-4-1.2-5.5h1.5c0.6,0,1.1-0.4,1.2-1l0-3.3C45.2,11,45.1,10.7,44.9,10.4z M7.1,23.9
				c-1.3,0-2.4-1.1-2.4-2.4c0-1.3,1.1-2.4,2.4-2.4c1.3,0,2.4,1.1,2.4,2.4C9.5,22.9,8.4,23.9,7.1,23.9z M8.3,11c0.7-2.3,1-4.4,1.9-5
				c4.6-3.1,20.3-3.1,24.9,0c0.9,0.6,1.1,2.7,1.8,5H8.3z M38.2,23.9c-1.3,0-2.4-1.1-2.4-2.4c0-1.3,1.1-2.4,2.4-2.4
				c1.3,0,2.4,1.1,2.4,2.4C40.6,22.9,39.5,23.9,38.2,23.9z"/>
		</g>
	</g>
</g>
<g>
	<g>
		<path class="st0" d="M44.9,10.4c-0.2-0.3-0.6-0.5-0.9-0.5H40c-1.1-3-1.3-5.9-3-7.1C31.2-1,13.9-1,8.1,2.9C6.5,4,6.2,6.9,5.1,9.9
			H1.2c-0.4,0-0.7,0.2-0.9,0.5C0.1,10.7,0,11,0,11.4l0,3.3c0.1,0.6,0.6,1,1.2,1h1.4c-1.3,1.5-1,3.2-1,5.2c0,2.4-0.1,4.7,1.6,6.2
			c0,0,0,0,0.1,0v4.6c0,1,0.8,1.8,1.8,1.8h4.2c1,0,1.8-0.8,1.8-1.8v-1.9h23.1v1.9c0,1,0.8,1.8,1.8,1.8h4.2c1,0,1.8-0.8,1.8-1.8v-4.5
			c1.7-1.6,1.7-3.8,1.7-6c0-2,0.2-4-1.2-5.5h1.5c0.6,0,1.1-0.4,1.2-1l0-3.3C45.2,11,45.1,10.7,44.9,10.4z M7.1,23.9
			c-1.3,0-2.4-1.1-2.4-2.4c0-1.3,1.1-2.4,2.4-2.4c1.3,0,2.4,1.1,2.4,2.4C9.5,22.9,8.4,23.9,7.1,23.9z M8.3,11c0.7-2.3,1-4.4,1.9-5
			c4.6-3.1,20.3-3.1,24.9,0c0.9,0.6,1.1,2.7,1.8,5H8.3z M38.2,23.9c-1.3,0-2.4-1.1-2.4-2.4c0-1.3,1.1-2.4,2.4-2.4
			c1.3,0,2.4,1.1,2.4,2.4C40.6,22.9,39.5,23.9,38.2,23.9z"/>
	</g>
	<g>
		<defs>
			<rect id="XMLID_106_" x="-2.2" y="17" width="50" height="20.1"/>
		</defs>
		<clipPath id="XMLID_234_">
			<use xlink:href="#XMLID_106_"  style="overflow:visible;"/>
		</clipPath>
		<g class="st6">
			<path class="st2" d="M44.9,10.4c-0.2-0.3-0.6-0.5-0.9-0.5H40c-1.1-3-1.3-5.9-3-7.1C31.2-1,13.9-1,8.1,2.9C6.5,4,6.2,6.9,5.1,9.9
				H1.2c-0.4,0-0.7,0.2-0.9,0.5C0.1,10.7,0,11,0,11.4l0,3.3c0.1,0.6,0.6,1,1.2,1h1.4c-1.3,1.5-1,3.2-1,5.2c0,2.4-0.1,4.7,1.6,6.2
				c0,0,0,0,0.1,0v4.6c0,1,0.8,1.8,1.8,1.8h4.2c1,0,1.8-0.8,1.8-1.8v-1.9h23.1v1.9c0,1,0.8,1.8,1.8,1.8h4.2c1,0,1.8-0.8,1.8-1.8
				v-4.5c1.7-1.6,1.7-3.8,1.7-6c0-2,0.2-4-1.2-5.5h1.5c0.6,0,1.1-0.4,1.2-1l0-3.3C45.2,11,45.1,10.7,44.9,10.4z M7.1,23.9
				c-1.3,0-2.4-1.1-2.4-2.4c0-1.3,1.1-2.4,2.4-2.4c1.3,0,2.4,1.1,2.4,2.4C9.5,22.9,8.4,23.9,7.1,23.9z M8.3,11c0.7-2.3,1-4.4,1.9-5
				c4.6-3.1,20.3-3.1,24.9,0c0.9,0.6,1.1,2.7,1.8,5H8.3z M38.2,23.9c-1.3,0-2.4-1.1-2.4-2.4c0-1.3,1.1-2.4,2.4-2.4
				c1.3,0,2.4,1.1,2.4,2.4C40.6,22.9,39.5,23.9,38.2,23.9z"/>
		</g>
	</g>
</g>
<g>
	<g>
		<path class="st0" d="M44.9,10.4c-0.2-0.3-0.6-0.5-0.9-0.5H40c-1.1-3-1.3-5.9-3-7.1C31.2-1,13.9-1,8.1,2.9C6.5,4,6.2,6.9,5.1,9.9
			H1.2c-0.4,0-0.7,0.2-0.9,0.5C0.1,10.7,0,11,0,11.4l0,3.3c0.1,0.6,0.6,1,1.2,1h1.4c-1.3,1.5-1,3.2-1,5.2c0,2.4-0.1,4.7,1.6,6.2
			c0,0,0,0,0.1,0v4.6c0,1,0.8,1.8,1.8,1.8h4.2c1,0,1.8-0.8,1.8-1.8v-1.9h23.1v1.9c0,1,0.8,1.8,1.8,1.8h4.2c1,0,1.8-0.8,1.8-1.8v-4.5
			c1.7-1.6,1.7-3.8,1.7-6c0-2,0.2-4-1.2-5.5h1.5c0.6,0,1.1-0.4,1.2-1l0-3.3C45.2,11,45.1,10.7,44.9,10.4z M7.1,23.9
			c-1.3,0-2.4-1.1-2.4-2.4c0-1.3,1.1-2.4,2.4-2.4c1.3,0,2.4,1.1,2.4,2.4C9.5,22.9,8.4,23.9,7.1,23.9z M8.3,11c0.7-2.3,1-4.4,1.9-5
			c4.6-3.1,20.3-3.1,24.9,0c0.9,0.6,1.1,2.7,1.8,5H8.3z M38.2,23.9c-1.3,0-2.4-1.1-2.4-2.4c0-1.3,1.1-2.4,2.4-2.4
			c1.3,0,2.4,1.1,2.4,2.4C40.6,22.9,39.5,23.9,38.2,23.9z"/>
	</g>
	<g>
		<defs>
			<rect id="XMLID_97_" x="-2.2" y="13.7" width="50" height="23.4"/>
		</defs>
		<clipPath id="XMLID_235_">
			<use xlink:href="#XMLID_97_"  style="overflow:visible;"/>
		</clipPath>
		<g class="st7">
			<path class="st2" d="M44.9,10.4c-0.2-0.3-0.6-0.5-0.9-0.5H40c-1.1-3-1.3-5.9-3-7.1C31.2-1,13.9-1,8.1,2.9C6.5,4,6.2,6.9,5.1,9.9
				H1.2c-0.4,0-0.7,0.2-0.9,0.5C0.1,10.7,0,11,0,11.4l0,3.3c0.1,0.6,0.6,1,1.2,1h1.4c-1.3,1.5-1,3.2-1,5.2c0,2.4-0.1,4.7,1.6,6.2
				c0,0,0,0,0.1,0v4.6c0,1,0.8,1.8,1.8,1.8h4.2c1,0,1.8-0.8,1.8-1.8v-1.9h23.1v1.9c0,1,0.8,1.8,1.8,1.8h4.2c1,0,1.8-0.8,1.8-1.8
				v-4.5c1.7-1.6,1.7-3.8,1.7-6c0-2,0.2-4-1.2-5.5h1.5c0.6,0,1.1-0.4,1.2-1l0-3.3C45.2,11,45.1,10.7,44.9,10.4z M7.1,23.9
				c-1.3,0-2.4-1.1-2.4-2.4c0-1.3,1.1-2.4,2.4-2.4c1.3,0,2.4,1.1,2.4,2.4C9.5,22.9,8.4,23.9,7.1,23.9z M8.3,11c0.7-2.3,1-4.4,1.9-5
				c4.6-3.1,20.3-3.1,24.9,0c0.9,0.6,1.1,2.7,1.8,5H8.3z M38.2,23.9c-1.3,0-2.4-1.1-2.4-2.4c0-1.3,1.1-2.4,2.4-2.4
				c1.3,0,2.4,1.1,2.4,2.4C40.6,22.9,39.5,23.9,38.2,23.9z"/>
		</g>
	</g>
</g>
<g>
	<g>
		<path class="st0" d="M44.9,10.4c-0.2-0.3-0.6-0.5-0.9-0.5H40c-1.1-3-1.3-5.9-3-7.1C31.2-1,13.9-1,8.1,2.9C6.5,4,6.2,6.9,5.1,9.9
			H1.2c-0.4,0-0.7,0.2-0.9,0.5C0.1,10.7,0,11,0,11.4l0,3.3c0.1,0.6,0.6,1,1.2,1h1.4c-1.3,1.5-1,3.2-1,5.2c0,2.4-0.1,4.7,1.6,6.2
			c0,0,0,0,0.1,0v4.6c0,1,0.8,1.8,1.8,1.8h4.2c1,0,1.8-0.8,1.8-1.8v-1.9h23.1v1.9c0,1,0.8,1.8,1.8,1.8h4.2c1,0,1.8-0.8,1.8-1.8v-4.5
			c1.7-1.6,1.7-3.8,1.7-6c0-2,0.2-4-1.2-5.5h1.5c0.6,0,1.1-0.4,1.2-1l0-3.3C45.2,11,45.1,10.7,44.9,10.4z M7.1,23.9
			c-1.3,0-2.4-1.1-2.4-2.4c0-1.3,1.1-2.4,2.4-2.4c1.3,0,2.4,1.1,2.4,2.4C9.5,22.9,8.4,23.9,7.1,23.9z M8.3,11c0.7-2.3,1-4.4,1.9-5
			c4.6-3.1,20.3-3.1,24.9,0c0.9,0.6,1.1,2.7,1.8,5H8.3z M38.2,23.9c-1.3,0-2.4-1.1-2.4-2.4c0-1.3,1.1-2.4,2.4-2.4
			c1.3,0,2.4,1.1,2.4,2.4C40.6,22.9,39.5,23.9,38.2,23.9z"/>
	</g>
	<g>
		<defs>
			<rect id="XMLID_88_" x="-2.2" y="10.4" width="50" height="26.8"/>
		</defs>
		<clipPath id="XMLID_236_">
			<use xlink:href="#XMLID_88_"  style="overflow:visible;"/>
		</clipPath>
		<g class="st8">
			<path class="st2" d="M44.9,10.4c-0.2-0.3-0.6-0.5-0.9-0.5H40c-1.1-3-1.3-5.9-3-7.1C31.2-1,13.9-1,8.1,2.9C6.5,4,6.2,6.9,5.1,9.9
				H1.2c-0.4,0-0.7,0.2-0.9,0.5C0.1,10.7,0,11,0,11.4l0,3.3c0.1,0.6,0.6,1,1.2,1h1.4c-1.3,1.5-1,3.2-1,5.2c0,2.4-0.1,4.7,1.6,6.2
				c0,0,0,0,0.1,0v4.6c0,1,0.8,1.8,1.8,1.8h4.2c1,0,1.8-0.8,1.8-1.8v-1.9h23.1v1.9c0,1,0.8,1.8,1.8,1.8h4.2c1,0,1.8-0.8,1.8-1.8
				v-4.5c1.7-1.6,1.7-3.8,1.7-6c0-2,0.2-4-1.2-5.5h1.5c0.6,0,1.1-0.4,1.2-1l0-3.3C45.2,11,45.1,10.7,44.9,10.4z M7.1,23.9
				c-1.3,0-2.4-1.1-2.4-2.4c0-1.3,1.1-2.4,2.4-2.4c1.3,0,2.4,1.1,2.4,2.4C9.5,22.9,8.4,23.9,7.1,23.9z M8.3,11c0.7-2.3,1-4.4,1.9-5
				c4.6-3.1,20.3-3.1,24.9,0c0.9,0.6,1.1,2.7,1.8,5H8.3z M38.2,23.9c-1.3,0-2.4-1.1-2.4-2.4c0-1.3,1.1-2.4,2.4-2.4
				c1.3,0,2.4,1.1,2.4,2.4C40.6,22.9,39.5,23.9,38.2,23.9z"/>
		</g>
	</g>
</g>
<g>
	<g>
		<path class="st0" d="M44.9,10.4c-0.2-0.3-0.6-0.5-0.9-0.5H40c-1.1-3-1.3-5.9-3-7.1C31.2-1,13.9-1,8.1,2.9C6.5,4,6.2,6.9,5.1,9.9
			H1.2c-0.4,0-0.7,0.2-0.9,0.5C0.1,10.7,0,11,0,11.4l0,3.3c0.1,0.6,0.6,1,1.2,1h1.4c-1.3,1.5-1,3.2-1,5.2c0,2.4-0.1,4.7,1.6,6.2
			c0,0,0,0,0.1,0v4.6c0,1,0.8,1.8,1.8,1.8h4.2c1,0,1.8-0.8,1.8-1.8v-1.9h23.1v1.9c0,1,0.8,1.8,1.8,1.8h4.2c1,0,1.8-0.8,1.8-1.8v-4.5
			c1.7-1.6,1.7-3.8,1.7-6c0-2,0.2-4-1.2-5.5h1.5c0.6,0,1.1-0.4,1.2-1l0-3.3C45.2,11,45.1,10.7,44.9,10.4z M7.1,23.9
			c-1.3,0-2.4-1.1-2.4-2.4c0-1.3,1.1-2.4,2.4-2.4c1.3,0,2.4,1.1,2.4,2.4C9.5,22.9,8.4,23.9,7.1,23.9z M8.3,11c0.7-2.3,1-4.4,1.9-5
			c4.6-3.1,20.3-3.1,24.9,0c0.9,0.6,1.1,2.7,1.8,5H8.3z M38.2,23.9c-1.3,0-2.4-1.1-2.4-2.4c0-1.3,1.1-2.4,2.4-2.4
			c1.3,0,2.4,1.1,2.4,2.4C40.6,22.9,39.5,23.9,38.2,23.9z"/>
	</g>
	<g>
		<defs>
			<rect id="XMLID_79_" x="-2.2" y="7.1" width="50" height="30.1"/>
		</defs>
		<clipPath id="XMLID_237_">
			<use xlink:href="#XMLID_79_"  style="overflow:visible;"/>
		</clipPath>
		<g class="st9">
			<path class="st2" d="M44.9,10.4c-0.2-0.3-0.6-0.5-0.9-0.5H40c-1.1-3-1.3-5.9-3-7.1C31.2-1,13.9-1,8.1,2.9C6.5,4,6.2,6.9,5.1,9.9
				H1.2c-0.4,0-0.7,0.2-0.9,0.5C0.1,10.7,0,11,0,11.4l0,3.3c0.1,0.6,0.6,1,1.2,1h1.4c-1.3,1.5-1,3.2-1,5.2c0,2.4-0.1,4.7,1.6,6.2
				c0,0,0,0,0.1,0v4.6c0,1,0.8,1.8,1.8,1.8h4.2c1,0,1.8-0.8,1.8-1.8v-1.9h23.1v1.9c0,1,0.8,1.8,1.8,1.8h4.2c1,0,1.8-0.8,1.8-1.8
				v-4.5c1.7-1.6,1.7-3.8,1.7-6c0-2,0.2-4-1.2-5.5h1.5c0.6,0,1.1-0.4,1.2-1l0-3.3C45.2,11,45.1,10.7,44.9,10.4z M7.1,23.9
				c-1.3,0-2.4-1.1-2.4-2.4c0-1.3,1.1-2.4,2.4-2.4c1.3,0,2.4,1.1,2.4,2.4C9.5,22.9,8.4,23.9,7.1,23.9z M8.3,11c0.7-2.3,1-4.4,1.9-5
				c4.6-3.1,20.3-3.1,24.9,0c0.9,0.6,1.1,2.7,1.8,5H8.3z M38.2,23.9c-1.3,0-2.4-1.1-2.4-2.4c0-1.3,1.1-2.4,2.4-2.4
				c1.3,0,2.4,1.1,2.4,2.4C40.6,22.9,39.5,23.9,38.2,23.9z"/>
		</g>
	</g>
</g>
<g>
	<g>
		<path class="st0" d="M44.9,10.4c-0.2-0.3-0.6-0.5-0.9-0.5H40c-1.1-3-1.3-5.9-3-7.1C31.2-1,13.9-1,8.1,2.9C6.5,4,6.2,6.9,5.1,9.9
			H1.2c-0.4,0-0.7,0.2-0.9,0.5C0.1,10.7,0,11,0,11.4l0,3.3c0.1,0.6,0.6,1,1.2,1h1.4c-1.3,1.5-1,3.2-1,5.2c0,2.4-0.1,4.7,1.6,6.2
			c0,0,0,0,0.1,0v4.6c0,1,0.8,1.8,1.8,1.8h4.2c1,0,1.8-0.8,1.8-1.8v-1.9h23.1v1.9c0,1,0.8,1.8,1.8,1.8h4.2c1,0,1.8-0.8,1.8-1.8v-4.5
			c1.7-1.6,1.7-3.8,1.7-6c0-2,0.2-4-1.2-5.5h1.5c0.6,0,1.1-0.4,1.2-1l0-3.3C45.2,11,45.1,10.7,44.9,10.4z M7.1,23.9
			c-1.3,0-2.4-1.1-2.4-2.4c0-1.3,1.1-2.4,2.4-2.4c1.3,0,2.4,1.1,2.4,2.4C9.5,22.9,8.4,23.9,7.1,23.9z M8.3,11c0.7-2.3,1-4.4,1.9-5
			c4.6-3.1,20.3-3.1,24.9,0c0.9,0.6,1.1,2.7,1.8,5H8.3z M38.2,23.9c-1.3,0-2.4-1.1-2.4-2.4c0-1.3,1.1-2.4,2.4-2.4
			c1.3,0,2.4,1.1,2.4,2.4C40.6,22.9,39.5,23.9,38.2,23.9z"/>
	</g>
	<g>
		<defs>
			<rect id="XMLID_57_" x="-2.2" y="4.1" width="50" height="33"/>
		</defs>
		<clipPath id="XMLID_238_">
			<use xlink:href="#XMLID_57_"  style="overflow:visible;"/>
		</clipPath>
		<g class="st10">
			<path class="st2" d="M44.9,10.4c-0.2-0.3-0.6-0.5-0.9-0.5H40c-1.1-3-1.3-5.9-3-7.1C31.2-1,13.9-1,8.1,2.9C6.5,4,6.2,6.9,5.1,9.9
				H1.2c-0.4,0-0.7,0.2-0.9,0.5C0.1,10.7,0,11,0,11.4l0,3.3c0.1,0.6,0.6,1,1.2,1h1.4c-1.3,1.5-1,3.2-1,5.2c0,2.4-0.1,4.7,1.6,6.2
				c0,0,0,0,0.1,0v4.6c0,1,0.8,1.8,1.8,1.8h4.2c1,0,1.8-0.8,1.8-1.8v-1.9h23.1v1.9c0,1,0.8,1.8,1.8,1.8h4.2c1,0,1.8-0.8,1.8-1.8
				v-4.5c1.7-1.6,1.7-3.8,1.7-6c0-2,0.2-4-1.2-5.5h1.5c0.6,0,1.1-0.4,1.2-1l0-3.3C45.2,11,45.1,10.7,44.9,10.4z M7.1,23.9
				c-1.3,0-2.4-1.1-2.4-2.4c0-1.3,1.1-2.4,2.4-2.4c1.3,0,2.4,1.1,2.4,2.4C9.5,22.9,8.4,23.9,7.1,23.9z M8.3,11c0.7-2.3,1-4.4,1.9-5
				c4.6-3.1,20.3-3.1,24.9,0c0.9,0.6,1.1,2.7,1.8,5H8.3z M38.2,23.9c-1.3,0-2.4-1.1-2.4-2.4c0-1.3,1.1-2.4,2.4-2.4
				c1.3,0,2.4,1.1,2.4,2.4C40.6,22.9,39.5,23.9,38.2,23.9z"/>
		</g>
	</g>
</g>
<g>
	<g>
		<path class="st2" d="M45.1,10.4c-0.2-0.3-0.6-0.5-0.9-0.5h-3.9c-1.1-3-1.3-5.9-3-7.1C31.5-1,14.2-1,8.4,2.9C6.7,4,6.5,6.9,5.3,9.9
			H1.5c-0.4,0-0.7,0.2-0.9,0.5c-0.2,0.3-0.3,0.7-0.2,1l0,3.3c0.1,0.6,0.6,1,1.2,1h1.4c-1.3,1.5-1,3.2-1,5.2c0,2.4-0.1,4.7,1.6,6.2
			c0,0,0,0,0.1,0v4.6c0,1,0.8,1.8,1.8,1.8h4.2c1,0,1.8-0.8,1.8-1.8v-1.9h23.1v1.9c0,1,0.8,1.8,1.8,1.8h4.2c1,0,1.8-0.8,1.8-1.8v-4.5
			c1.7-1.6,1.7-3.8,1.7-6c0-2,0.2-4-1.2-5.5h1.5c0.6,0,1.1-0.4,1.2-1l0-3.3C45.4,11,45.3,10.7,45.1,10.4z M7.3,23.9
			c-1.3,0-2.4-1.1-2.4-2.4c0-1.3,1.1-2.4,2.4-2.4c1.3,0,2.4,1.1,2.4,2.4C9.8,22.9,8.7,23.9,7.3,23.9z M8.5,11c0.7-2.3,1-4.4,1.9-5
			c4.6-3.1,20.3-3.1,24.9,0c0.9,0.6,1.1,2.7,1.8,5H8.5z M38.4,23.9c-1.3,0-2.4-1.1-2.4-2.4c0-1.3,1.1-2.4,2.4-2.4
			c1.3,0,2.4,1.1,2.4,2.4C40.9,22.9,39.8,23.9,38.4,23.9z"/>
	</g>
</g>
</svg>
