<?xml version="1.0" encoding="utf-8"?>
<!-- Generator: Adobe Illustrator 19.0.0, SVG Export Plug-In . SVG Version: 6.00 Build 0)  -->
<svg version="1.1" id="Layer_1" xmlns="http://www.w3.org/2000/svg" xmlns:xlink="http://www.w3.org/1999/xlink" x="0px" y="0px"
	 viewBox="0 0 50.7 34.9" style="enable-background:new 0 0 50.7 34.9;" xml:space="preserve">
<style type="text/css">
	.st0{fill:#F3D1E9;}
	.st1{clip-path:url(#XMLID_65_);}
	.st2{fill:#CE0058;}
</style>
<g>
	<g>
		<path class="st0" d="M45.6,0H5.2C2.4,0,0,2.3,0,5.2v24.6c0,2.8,2.3,5.2,5.2,5.2h40.3c2.9,0,5.2-2.3,5.2-5.2V5.2
			C50.7,2.3,48.4,0,45.6,0z M40.9,28.5l-32,0c-0.5,0-0.9-0.4-0.9-0.9c0-0.5,0.4-0.9,0.9-0.9l32,0c0.5,0,0.9,0.4,0.9,0.9
			C41.8,28.1,41.4,28.5,40.9,28.5z M7.9,21.9c0-0.5,0.4-0.9,0.9-0.9h17.2c0.5,0,0.9,0.4,0.9,0.9c0,0.5-0.4,0.9-0.9,0.9l-17.2,0
			C8.3,22.9,7.9,22.5,7.9,21.9z M40.9,22.9l-7.1,0c-0.5,0-0.9-0.4-0.9-0.9c0-0.5,0.4-0.9,0.9-0.9l7.1,0c0.5,0,0.9,0.4,0.9,0.9
			C41.8,22.5,41.4,22.9,40.9,22.9z M46.9,13.2c0,0.9-0.7,1.6-1.6,1.6H5.5C4.7,14.7,4,14,4,13.2V7.9C4,7,4.7,6.3,5.5,6.3h39.8
			c0.9,0,1.6,0.7,1.6,1.6V13.2z"/>
	</g>
	<g>
		<defs>
			<polygon id="XMLID_53_" points="-1.5,36.8 52.3,36.8 52.2,3.4 -1.6,3.4 			"/>
		</defs>
		<clipPath id="XMLID_65_">
			<use xlink:href="#XMLID_53_"  style="overflow:visible;"/>
		</clipPath>
		<g class="st1">
			<path class="st2" d="M45.6,0H5.2C2.4,0,0,2.3,0,5.2v24.6c0,2.8,2.3,5.2,5.2,5.2h40.3c2.9,0,5.2-2.3,5.2-5.2V5.2
				C50.7,2.3,48.4,0,45.6,0z M40.9,28.5l-32,0c-0.5,0-0.9-0.4-0.9-0.9c0-0.5,0.4-0.9,0.9-0.9l32,0c0.5,0,0.9,0.4,0.9,0.9
				C41.8,28.1,41.4,28.5,40.9,28.5z M7.9,21.9c0-0.5,0.4-0.9,0.9-0.9h17.2c0.5,0,0.9,0.4,0.9,0.9c0,0.5-0.4,0.9-0.9,0.9l-17.2,0
				C8.3,22.9,7.9,22.5,7.9,21.9z M40.9,22.9l-7.1,0c-0.5,0-0.9-0.4-0.9-0.9c0-0.5,0.4-0.9,0.9-0.9l7.1,0c0.5,0,0.9,0.4,0.9,0.9
				C41.8,22.5,41.4,22.9,40.9,22.9z M46.9,13.2c0,0.9-0.7,1.6-1.6,1.6H5.5C4.7,14.7,4,14,4,13.2V7.9C4,7,4.7,6.3,5.5,6.3h39.8
				c0.9,0,1.6,0.7,1.6,1.6V13.2z"/>
		</g>
	</g>
</g>
</svg>
