<?xml version="1.0" encoding="utf-8"?>
<!-- Generator: Adobe Illustrator 18.0.0, SVG Export Plug-In . SVG Version: 6.00 Build 0)  -->
<!DOCTYPE svg PUBLIC "-//W3C//DTD SVG 1.1//EN" "http://www.w3.org/Graphics/SVG/1.1/DTD/svg11.dtd">
<svg version="1.1" id="Layer_1" xmlns="http://www.w3.org/2000/svg" xmlns:xlink="http://www.w3.org/1999/xlink" x="0px" y="0px"
	 viewBox="0 0 46 46" enable-background="new 0 0 46 46" xml:space="preserve">
<g>
	<path fill-rule="evenodd" clip-rule="evenodd" fill="#B7B8BA" d="M23,0c12.7,0,23,10.3,23,23c0,12.7-10.3,23-23,23S0,35.7,0,23
		C0,10.3,10.3,0,23,0z"/>
</g>
<g>
	<path fill="#FFFFFF" d="M13.7,34.1c0,1.5,1.3,2.7,2.9,2.7h13c1.6,0,2.9-1.2,2.9-2.7V15.8H13.7V34.1z M25.6,20c0-0.5,0.4-0.9,1-0.9
		c0.5,0,1,0.4,1,0.9v12c0,0.5-0.4,0.9-1,0.9c-0.5,0-1-0.4-1-0.9V20z M18.6,20c0-0.5,0.4-0.9,1-0.9c0.5,0,1,0.4,1,0.9v12
		c0,0.5-0.4,0.9-1,0.9c-0.5,0-1-0.4-1-0.9V20z"/>
	<path fill="#FFFFFF" d="M30.5,10.6H26c-0.1-1-0.7-1.9-1.4-1.9h-3.1c-0.8,0-1.4,0.8-1.4,1.9h-4.5c-1.9,0-3.5,1.5-3.5,3.4h22
		C34,12.1,32.4,10.6,30.5,10.6z"/>
</g>
</svg>
