<?xml version="1.0" encoding="utf-8"?>
<!-- Generator: Adobe Illustrator 19.0.0, SVG Export Plug-In . SVG Version: 6.00 Build 0)  -->
<svg version="1.1" id="Layer_1" xmlns="http://www.w3.org/2000/svg" xmlns:xlink="http://www.w3.org/1999/xlink" x="0px" y="0px"
	 viewBox="0 0 239.1 364.6" style="enable-background:new 0 0 239.1 364.6;" xml:space="preserve">
<style type="text/css">
	.st0{fill:#66A8C0;}
	.st1{fill:#006E96;}
</style>
<path id="XMLID_16_" class="st0" d="M78.8,364.1c0.3,0.4,7-0.4,16.2,0.5c3,0.3,6.5-1.3,9.5-1.2s7.1,0.6,10,0.4
	c2.9-0.3,14.9-0.6,17.9-0.4s2.6,1.3,6,0.6s7.6-1.3,9.6-1.4c3.4-0.1,13,0.7,15,0.1c1.9-0.6-5.1-2.2-9.6-2.6c-4.5-0.4-7.1-0.9-9.4-2.4
	s-4.7-5.5-6-8.9c-1.3-3.4-4.1-19.9-4.6-26.3c-0.6-6.4-1.1-54.1-0.8-70.3c0.3-12.7,0.8-20.2,1.6-21.2c2-2.5,1.1-2.3,5.9-8.2
	c4.8-5.9,15-18.3,23.9-21.5c8.9-3.1,23.3-7.2,24.2-8c0.9-0.7-0.2-12.4-2.4-10.9c-2.2,1.5-13.3,4.6-19.6,7s-16.8,9.4-21.6,13.8
	c-4.8,4.4-5.5,6.8-10.9,7.3c-3.1,0.3-1.8-27.1-0.6-31.1c1.3-4.1,16.7-67.8,15.8-70.4c-0.9-2.6-22.1,10.8-22.1,10.8
	c0,0.2-15.8,52.6-15.6,52.2c1.6-2.2,1.4-2.3,2,6.9c0,0,0.6,9.2,0.3,15.5s-0.9,12.6-5.2,13.1c-4.3,0.6-3.9,0.4-11.1-5.7
	c-7.2-6.1-11.7-9.4-19.4-14.4c-7.8-5-17.2-6.8-20.5-8.9c-3.3-2-9.6-6.5-9.6-6.5s-8.3,1.7,2.2,9.8c10.5,8.1,14.4,7.8,23.9,14.6
	c9.4,6.8,15.9,12.9,20.5,16.8s10.9,11.2,12.2,16.8c1.3,5.5,1.1-7.9-0.7,8.2s-1.5,102.5-5.7,110.3c-4.3,7.8-2.8,10.9-7.6,12.6
	C89.9,361.9,76.4,361,78.8,364.1z"/>
<path id="XMLID_15_" class="st1" d="M228.3,138.5c0-12.9-4.9-24.2-12.4-31c0.6-2.1,0.9-4.3,0.9-6.6c0-13.3-10.6-24-23.8-24.4
	c-0.5-21-18.4-37.9-40.3-37.9c-1.8,0-3.6,0.1-5.4,0.4c-5.4-4.8-12.4-7.8-20.2-7.8c-11.3,0-21.1,6.2-26.4,15.4
	c-4.4-1.8-9.1-2.8-14.2-2.8c-18.1,0-33.2,12.8-37,30c-9,3.6-15.4,12.4-15.4,22.6c-11.5,5.3-19.5,17-19.5,30.7
	c0,7.5,2.4,14.3,6.4,19.9c-4.1,4-6.7,9.4-6.7,15.4c0,10.7,8.2,19.6,19,21.5c0.1,0.4,0.1,0.9,0.2,1.3c2.8,16.1,19.7,26.6,37.8,23.5
	c12.2-2.1,21.9-9.9,26-19.7c7.6-1.9,14.5-5.5,20.3-10.3c6.5,3.3,13.8,5.2,21.6,5.2c0.1,0,0.3,0,0.4,0c5.3,8.9,15.1,14.8,26.2,14.8
	c0.6,0,1.2,0,1.8-0.1c5.5,7.7,14.6,12.7,24.7,12.7c16.9,0,30.5-13.7,30.5-30.6c0-5.3-1.4-10.4-3.8-14.8
	C224.8,159,228.3,149.3,228.3,138.5z"/>
</svg>
