<?xml version="1.0" encoding="utf-8"?>
<!-- Generator: Adobe Illustrator 19.0.0, SVG Export Plug-In . SVG Version: 6.00 Build 0)  -->
<svg version="1.1" id="Layer_1" xmlns="http://www.w3.org/2000/svg" xmlns:xlink="http://www.w3.org/1999/xlink" x="0px" y="0px"
	 viewBox="0 0 80 80" style="enable-background:new 0 0 80 80;" xml:space="preserve">
<style type="text/css">
	.st0{fill:#FFF7CC;}
	.st1{fill:#FFFFFF;}
</style>
<g>
	<g>
		<path class="st0" d="M40,3c20.4,0,37,16.6,37,37S60.4,77,40,77S3,60.4,3,40S19.6,3,40,3 M40,0C17.9,0,0,17.9,0,40s17.9,40,40,40
			c22.1,0,40-17.9,40-40S62.1,0,40,0L40,0z"/>
	</g>
	<g>
		<g>
			<path class="st1" d="M54,31.4c-7.7,0-13.9,6.3-13.9,13.9S46.3,59.3,54,59.3c7.7,0,13.9-6.2,13.9-13.9S61.6,31.4,54,31.4z M54,56
				c-5.9,0-10.7-4.8-10.7-10.7S48.1,34.7,54,34.7c5.9,0,10.7,4.8,10.7,10.7S59.8,56,54,56z"/>
			<path class="st1" d="M51.4,49.5c-0.1-0.2-0.3-0.4-0.5-0.4h-1.2c-0.3,0-0.5,0.2-0.5,0.5l0,0.1c0.4,2,2,3.5,3.9,3.9v-2.3
				C52.3,51,51.6,50.4,51.4,49.5z"/>
			<path class="st1" d="M55.2,44.1v-3.4c0.2,0.2,0.4,0.5,0.6,0.8c0.1,0.2,0.3,0.4,0.5,0.4h1.2c0.3,0,0.5-0.2,0.5-0.5l0-0.1
				c-0.4-1.5-1.5-2.6-2.8-3V37c0-0.3-0.3-0.6-0.6-0.6c-0.3,0-0.6,0.3-0.6,0.6v0.2v15.9c0,0.3,0.3,0.6,0.6,0.6c0,0,0.1,0,0.1,0l0,0
				c2.4-0.3,4.2-2.4,4.2-4.8C58.9,46.6,57.3,44.7,55.2,44.1z M55.2,51.2v-4.7c0.8,0.4,1.4,1.3,1.4,2.3
				C56.6,49.9,56.1,50.8,55.2,51.2z"/>
			<path class="st1" d="M49.9,42.1c0,2,1.4,3.6,3.2,4v-2.4c-0.6-0.3-1-0.9-1-1.6c0-0.7,0.4-1.3,1-1.6v-2.4
				C51.2,38.5,49.9,40.1,49.9,42.1z"/>
		</g>
		<path class="st1" d="M40.1,55c-2.1,0.9-4.5,1.3-6.9,1.3c-10.2,0-18.5-8.3-18.5-18.5c0-10.2,8.3-18.4,18.5-18.4
			c7,0,13.1,3.9,16.2,9.6c0.9-0.2,1.8-0.4,2.7-0.5c-3.5-7-10.6-11.8-18.9-11.8c-11.7,0-21.1,9.5-21.1,21.1
			c0,11.7,9.5,21.1,21.1,21.1c3.1,0,6-0.7,8.7-1.9C41.3,56.5,40.7,55.8,40.1,55z"/>
		<path class="st1" d="M47.2,29.9c-2.8-4.8-8-8.1-13.9-8.1c-8.9,0-16.1,7.2-16.1,16.1c0,8.9,7.2,16.1,16.1,16.1c2,0,3.9-0.4,5.7-1
			c-1.2-2.3-1.8-4.9-1.8-7.6C37.1,38.4,41.2,32.5,47.2,29.9z M34.6,39.1c0,0.2,0,0.3-0.1,0.5c-0.1,0.1-0.1,0.3-0.2,0.4
			c0,0,0,0,0,0.1l-4.9,4.9c-0.5,0.5-1.4,0.5-1.9,0c-0.5-0.5-0.5-1.4,0-1.9l4.6-4.6V26.7c0-0.7,0.6-1.3,1.3-1.3
			c0.7,0,1.3,0.6,1.3,1.3V39.1z"/>
	</g>
</g>
</svg>
