<?xml version="1.0" encoding="utf-8"?>
<!-- Generator: Adobe Illustrator 19.0.0, SVG Export Plug-In . SVG Version: 6.00 Build 0)  -->
<svg version="1.1" id="Layer_1" xmlns="http://www.w3.org/2000/svg" xmlns:xlink="http://www.w3.org/1999/xlink" x="0px" y="0px"
	 viewBox="0 0 80 80" style="enable-background:new 0 0 80 80;" xml:space="preserve">
<style type="text/css">
	.st0{fill:#BCF2E7;}
	.st1{fill:#FFFFFF;}
</style>
<g>
	<g>
		<path class="st0" d="M40,3c20.4,0,37,16.6,37,37S60.4,77,40,77S3,60.4,3,40S19.6,3,40,3 M40,0C17.9,0,0,17.9,0,40s17.9,40,40,40
			c22.1,0,40-17.9,40-40S62.1,0,40,0L40,0z"/>
	</g>
	<g>
		<polygon class="st1" points="29.9,59.4 34,59.4 34,47.3 29.9,51.4 		"/>
		<polygon class="st1" points="47.9,59.4 51.9,59.4 51.9,40.6 47.9,44.7 		"/>
		<polygon class="st1" points="53.8,59.4 57.6,59.4 57.6,35 53.8,38.7 		"/>
		<polygon class="st1" points="41.9,50.7 41.9,59.4 46,59.4 46,46.6 42.7,49.9 		"/>
		<polygon class="st1" points="24.1,56.2 24.1,59.4 28.2,59.4 28.2,52.1 24.9,55.3 		"/>
		<polygon class="st1" points="35.9,47.1 35.9,59.4 40,59.4 40,51.2 38.7,49.9 		"/>
		<polygon class="st1" points="24.1,56.2 24.1,59.4 28.1,59.4 28.1,52.1 24.9,55.3 		"/>
		<polygon class="st1" points="35.8,47.1 35.8,59.4 39.9,59.4 39.9,51.2 38.6,49.9 		"/>
		<path class="st1" d="M59.7,20.2H45.6l5.4,5.4L49,27.5l-8.9,8.9L34.8,31L18.4,47.4l5.4,5.4l11-11l5.4,5.4l16.2-16.2l5.3,5.3V22
			C61.6,21,60.7,20.2,59.7,20.2z"/>
	</g>
</g>
</svg>
