<?xml version="1.0" encoding="utf-8"?>
<!-- Generator: Adobe Illustrator 19.0.0, SVG Export Plug-In . SVG Version: 6.00 Build 0)  -->
<svg version="1.1" id="Layer_1" xmlns="http://www.w3.org/2000/svg" xmlns:xlink="http://www.w3.org/1999/xlink" x="0px" y="0px"
	 viewBox="0 0 80 80" style="enable-background:new 0 0 80 80;" xml:space="preserve">
<style type="text/css">
	.st0{fill:#F6DCEE;}
	.st1{fill:#FFFFFF;}
</style>
<g>
	<g>
		<path class="st0" d="M40,3c20.4,0,37,16.6,37,37S60.4,77,40,77S3,60.4,3,40S19.6,3,40,3 M40,0C17.9,0,0,17.9,0,40s17.9,40,40,40
			s40-17.9,40-40S62.1,0,40,0L40,0z"/>
	</g>
	<g>
		<path class="st1" d="M32.7,48.5c-0.1-0.5-0.6-0.8-1.2-0.8h-3.2c-0.7,0-1.3,0.5-1.3,1.1l0,0.2c0.9,4.4,4.8,7.9,9.8,9v-5.2
			C34.8,52,33.2,50.4,32.7,48.5z"/>
		<path class="st1" d="M28.9,30.8c0,4.3,3.2,8,7.9,9.2v-5.5c-1.4-0.9-2.2-2.3-2.2-3.7c0-1.5,0.8-2.9,2.2-3.7v-5.5
			C32.1,22.8,28.9,26.4,28.9,30.8z"/>
		<path class="st1" d="M43.2,35.8l-0.2,0V27l0.3,0.3c0.7,0.5,1.3,1.2,1.6,2c0.2,0.5,0.7,0.7,1.2,0.7h3.2c0.7,0,1.3-0.5,1.3-1.1
			l0-0.3c-1-3.4-3.8-6-7.5-7l-0.1,0v-2.9c0-0.7-0.7-1.3-1.5-1.3c-0.8,0-1.5,0.6-1.5,1.3V52V57v4.3c0,0.7,0.7,1.3,1.5,1.3
			c0.8,0,1.5-0.6,1.5-1.3v-3.2c5.8-1.3,10-5.9,10-11.2C53,41.7,49,37.1,43.2,35.8z M43.3,52.7l-0.3,0.1V41.1l0.3,0.1
			c2.5,1.1,4,3.3,4,5.7C47.3,49.3,45.8,51.5,43.3,52.7z"/>
	</g>
</g>
</svg>
