<?xml version="1.0" encoding="utf-8"?>
<!-- Generator: Adobe Illustrator 19.0.0, SVG Export Plug-In . SVG Version: 6.00 Build 0)  -->
<svg version="1.1" id="_x31_st-Conservative" xmlns="http://www.w3.org/2000/svg" xmlns:xlink="http://www.w3.org/1999/xlink"
	 x="0px" y="0px" viewBox="0 0 727 525.3" style="enable-background:new 0 0 727 525.3;" xml:space="preserve">
<style type="text/css">
	.st0{fill-rule:evenodd;clip-rule:evenodd;fill:#D8D8D5;}
	.st1{fill:#1E1E1E;}
	.st2{font-family:'Gotham-Medium';}
	.st3{font-size:14px;}
	.st4{font-family:'Gotham-Book';}
	.st5{fill:#E5F0F4;}
	.st6{fill:#FFE6DB;}
	.st7{fill:none;stroke:#FF550F;stroke-width:2.5;stroke-linecap:round;stroke-linejoin:round;stroke-miterlimit:10;}
	.st8{fill:none;stroke:#006E95;stroke-width:2.5;stroke-linecap:round;stroke-linejoin:round;stroke-miterlimit:10;}
</style>
<g>
	<g>
		<polygon class="st0" points="704.4,10.4 704.4,9.4 62.4,9.4 62.4,5.4 61.4,5.4 61.4,9.4 57.4,9.4 57.4,10.4 61.4,10.4 61.4,87.2 
			57.4,87.2 57.4,88.2 61.4,88.2 61.4,165 57.4,165 57.4,166 61.4,166 61.4,242.9 57.4,242.9 57.4,243.9 61.4,243.9 61.4,320.7 
			57.4,320.7 57.4,321.7 61.4,321.7 61.4,398.5 57.4,398.5 57.4,399.5 61.4,399.5 61.4,476.4 57.4,476.4 57.4,477.4 61.4,477.4 
			61.4,481.4 62.4,481.4 62.4,477.4 704.4,477.4 704.4,476.4 62.4,476.4 62.4,399.5 704.4,399.5 704.4,398.5 62.4,398.5 62.4,321.7 
			704.4,321.7 704.4,320.7 62.4,320.7 62.4,243.9 704.4,243.9 704.4,242.9 62.4,242.9 62.4,166 704.4,166 704.4,165 62.4,165 
			62.4,88.2 704.4,88.2 704.4,87.2 62.4,87.2 62.4,10.4 		"/>
	</g>
</g>
<text transform="matrix(0 -1 1 0 15.5948 293.3389)" class="st1 st2 st3">Amount ($000)</text>
<text transform="matrix(1 0 0 1 378.9281 525.3393)" class="st1 st2 st3">Years</text>
<text transform="matrix(1 0 0 1 42.9901 481)" class="st1 st4 st3">0</text>
<text transform="matrix(1 0 0 1 683.6594 497.6667)" class="st1 st4 st3">25</text>
<text transform="matrix(1 0 0 1 556.4984 497.6667)" class="st1 st4 st3">20</text>
<text transform="matrix(1 0 0 1 432.4667 497.6667)" class="st1 st4 st3">15</text>
<text transform="matrix(1 0 0 1 305.3059 497.6667)" class="st1 st4 st3">10</text>
<text transform="matrix(1 0 0 1 182.8175 497.6667)" class="st1 st4 st3">5</text>
<text transform="matrix(1 0 0 1 34.8841 401.6667)" class="st1 st4 st3">20</text>
<text transform="matrix(1 0 0 1 33.8758 324.3333)" class="st1 st4 st3">40</text>
<text transform="matrix(1 0 0 1 34.2122 247.6667)" class="st1 st4 st3">60</text>
<text transform="matrix(1 0 0 1 28.5282 91.6667)" class="st1 st4 st3">100</text>
<text transform="matrix(1 0 0 1 34.45 169)" class="st1 st4 st3">80</text>
<text transform="matrix(1 0 0 1 30.1522 15.3333)" class="st1 st4 st3">120</text>
<path class="st5" d="M700,73c0,0-157.7,110-318.3,200.7c-107.3,60.5-139.7,75-237,124L62.9,437c0,0,0.9,0.4,9.1-3
	c12.8-5.2,49.2-18.9,91.2-35c81.8-31.3,175.3-70.9,280.1-114.7c115.7-48.3,256-112.5,256-112.5L700,73z"/>
<path class="st6" d="M697,409.8v23.5c0,0-392.4,4.7-477.8,5s-156.5-0.5-156.5-0.5l2.3-0.6c0,0,11.6-1.8,82.5-5.1
	s259.9-9.9,298.2-11.2S697,409.8,697,409.8z"/>
<g>
	<polyline class="st7" points="696.9,415.9 694.8,416 692.7,415.3 690.6,415.4 688.5,415.4 686.4,415.3 684.3,414.6 682.2,414.9 
		680,414.4 677.9,414.7 675.8,415.5 673.7,417.2 671.6,417.9 669.5,417.6 667.4,418.1 665.2,418.8 663.1,418.5 661,419.6 
		658.9,419.3 656.8,417.4 654.7,418 652.6,418.2 650.4,417.3 648.3,417.6 646.2,418.1 644.1,417.7 642,419.3 639.9,419 637.8,419.8 
		635.7,419.9 633.5,419.9 631.4,419.1 629.3,418.2 627.2,417.3 625.1,417.7 623,418.3 620.9,418.9 618.7,419.7 616.6,419.5 
		614.5,420.9 612.4,420.5 610.3,420.5 608.2,421.2 606.1,422.1 604,422.9 601.8,422.9 599.7,423 597.6,423.7 595.5,424.1 
		593.4,423.4 591.3,423.4 589.2,423.8 587,424.5 584.9,424.1 582.8,424.4 580.7,424.2 578.6,425 576.5,425.7 574.4,426.2 
		572.2,426.3 570.1,426.2 568,426.3 565.9,426.9 563.8,426.2 561.7,426.6 559.6,427.1 557.5,428 555.3,427.8 553.2,427.6 
		551.1,427.9 549,427.3 546.9,427.3 544.8,427.9 542.7,428.2 540.5,429.2 538.4,429.2 536.3,429.3 534.2,429.4 532.1,429.8 
		530,430.2 527.9,430.7 525.8,430.7 523.6,430.9 521.5,430.4 519.4,430.7 517.3,431.1 515.2,431.6 513.1,431.9 511,432.1 
		508.8,432.4 506.7,432.5 504.6,432.2 502.5,432.2 500.4,431.8 498.3,432.5 496.2,433.6 494,433.4 491.9,433.3 489.8,432.9 
		487.7,433.1 485.6,432.8 483.5,433.2 481.4,433.3 479.3,433 477.1,432.7 475,432.9 472.9,433.3 470.8,432.6 468.7,432.4 
		466.6,432.6 464.5,432.6 462.3,433.2 460.2,434 458.1,433.1 456,433 453.9,432.7 451.8,432.4 449.7,432.2 447.6,431.6 445.4,431.9 
		443.3,432.6 441.2,433.6 439.1,434.2 437,434.7 434.9,434.6 432.8,434.4 430.6,434.4 428.5,435 426.4,435.7 424.3,435.3 
		422.2,435.3 420.1,435.7 418,435 415.8,434 413.7,433.5 411.6,433.5 409.5,433.2 407.4,432.8 405.3,433 403.2,433 401.1,432.9 
		398.9,433 396.8,432.9 394.7,432.5 392.6,431.8 390.5,431.7 388.4,431.3 386.3,432 384.1,431.5 382,431.1 379.9,431 377.8,430.8 
		375.7,430.6 373.6,430 371.5,429.6 369.4,430.3 367.2,430.6 365.1,431.9 363,432 360.9,431.9 358.8,432.3 356.7,432.2 354.6,432 
		352.4,432.5 350.3,433 348.2,432.9 346.1,431.8 344,431.7 341.9,432.1 339.8,432.3 337.6,432.8 335.5,432.7 333.4,433.1 
		331.3,432.2 329.2,431.9 327.1,431.7 325,431.5 322.9,431 320.7,431.6 318.6,431.9 316.5,431.7 314.4,431.8 312.3,431.3 
		310.2,431.3 308.1,431.6 305.9,430.7 303.8,430.9 301.7,431 299.6,431.4 297.5,431.4 295.4,430.8 293.3,431.1 291.2,431.2 289,431 
		286.9,431 284.8,431.7 282.7,431.2 280.6,431.7 278.5,431.4 276.4,431.4 274.2,431 272.1,429.9 270,429.5 267.9,429.9 265.8,430.5 
		263.7,430.1 261.6,429.5 259.4,430 257.3,430 255.2,430.2 253.1,429.7 251,429.2 248.9,430 246.8,429.5 244.7,429.3 242.5,429 
		240.4,429.3 238.3,428.8 236.2,430.1 234.1,430.2 232,430.8 229.9,430.4 227.7,430.3 225.6,429.6 223.5,429.5 221.4,428.8 
		219.3,429.1 217.2,429.6 215.1,428.7 213,429.1 210.8,429.9 208.7,430.3 206.6,429.9 204.5,429.8 202.4,429.9 200.3,430.1 
		198.2,430.6 196,430.6 193.9,430.5 191.8,430.9 189.7,430.8 187.6,430.3 185.5,430.6 183.4,431.1 181.2,430.8 179.1,431.1 
		177,431.3 174.9,431.8 172.8,432.7 170.7,432.7 168.6,432.3 166.5,431.4 164.3,431 162.2,431.2 160.1,431.3 158,431.6 155.9,430.8 
		153.8,430.7 151.7,430 149.5,430.6 147.4,430.5 145.3,430.2 143.2,430.4 141.1,431.5 139,431.5 136.9,430.4 134.8,431.6 
		132.6,432.3 130.5,432.5 128.4,432.7 126.3,433.1 124.2,433.2 122.1,433.3 120,433 117.8,433.5 115.7,433.2 113.6,432.9 
		111.5,433.1 109.4,433.4 107.3,433.1 105.2,434.2 103,434.2 100.9,435 98.8,435 96.7,435.6 94.6,435.3 92.5,435.3 90.4,435.5 
		88.3,435.1 86.1,435.1 84,435.1 81.9,435 79.8,435.5 77.7,435.2 75.6,435.5 73.5,435.9 71.3,436.4 69.2,436.7 67.1,437.1 65,437.1 
		62.9,437 	"/>
</g>
<g>
	<g>
		<polyline class="st8" points="62.9,437 65,436.3 67.1,436.2 69.2,435.1 71.3,434.4 73.5,434.3 75.6,433 77.7,432.4 79.8,432.5 
			81.9,431.9 84,430.5 86.1,428.6 88.3,427.9 90.4,427.6 92.5,426.6 94.6,426 96.7,425.4 98.8,423.9 100.9,422.1 103,422.2 
			105.2,421.4 107.3,420.2 109.4,419.2 111.5,417.5 113.6,416 115.7,412.9 117.8,411.4 120,410.1 122.1,410.4 124.2,409.3 
			126.3,409.8 128.4,409.8 130.5,408.6 132.6,408.4 134.8,406.3 136.9,406.4 139,406.2 141.1,406.1 143.2,406.6 145.3,405 
			147.4,404.1 149.5,403.6 151.7,403.8 153.8,401.5 155.9,399.9 158,398.9 160.1,397.7 162.2,396 164.3,397.1 166.5,395.6 
			168.6,395.4 170.7,393.4 172.8,392.9 174.9,391.1 177,389.7 179.1,387.7 181.2,388 183.4,388.8 185.5,387.7 187.6,387.2 
			189.7,386.4 191.8,385.7 193.9,386.5 196,385.3 198.2,384.8 200.3,384.6 202.4,384.4 204.5,383.3 206.6,380.3 208.7,380 
			210.8,379.1 213,380.5 215.1,379.1 217.2,377.5 219.3,376.6 221.4,377.9 223.5,379.6 225.6,378.2 227.7,379.6 229.9,378.1 
			232,378.3 234.1,379.2 236.2,378.5 238.3,378.2 240.4,378.3 242.5,378 244.7,377.4 246.8,375.3 248.9,373.2 251,371.6 253.1,371 
			255.2,370.9 257.3,370.6 259.4,368.4 261.6,366.3 263.7,366.1 265.8,364.8 267.9,362.9 270,361.9 272.1,361.1 274.2,357.7 
			276.4,355 278.5,354.2 280.6,352.2 282.7,348.3 284.8,346 286.9,345.9 289,346.9 291.2,344.7 293.3,344.1 295.4,342 297.5,338.7 
			299.6,340.8 301.7,337.9 303.8,337.7 305.9,334.6 308.1,335.3 310.2,334.6 312.3,333.5 314.4,329.6 316.5,329.4 318.6,330.3 
			320.7,326.9 322.9,327.2 325,325.4 327.1,323.3 329.2,323 331.3,323.2 333.4,321.8 335.5,319.3 337.6,315.9 339.8,317.5 
			341.9,317.2 344,315.7 346.1,316.4 348.2,314.6 350.3,314.1 352.4,312 354.6,311.1 356.7,309.6 358.8,310.2 360.9,310.1 
			363,309.8 365.1,311.3 367.2,308 369.4,307.1 371.5,307.6 373.6,302.5 375.7,301.3 377.8,299.7 379.9,300 382,299.4 384.1,295.3 
			386.3,294.2 388.4,290.4 390.5,290.1 392.6,290.6 394.7,287.6 396.8,285 398.9,282 401.1,280.9 403.2,281.1 405.3,280.3 
			407.4,279.7 409.5,275.5 411.6,272.7 413.7,272.9 415.8,277.2 418,275.7 420.1,276.3 422.2,274 424.3,273.5 426.4,270.1 
			428.5,269.3 430.6,270.4 432.8,267.7 434.9,262.9 437,260 439.1,262.1 441.2,257.3 443.3,256 445.4,253.9 447.6,254.9 
			449.7,255.1 451.8,257.1 453.9,255.1 456,251.5 458.1,249.4 460.2,248.6 462.3,246.1 464.5,248.6 466.6,247.5 468.7,246.5 
			470.8,242 472.9,239.1 475,235.9 477.1,228.3 479.3,227.6 481.4,226.3 483.5,228.3 485.6,223.2 487.7,216.4 489.8,216 
			491.9,217.5 494,213.9 496.2,212.2 498.3,218.9 500.4,219.4 502.5,217.2 504.6,216.1 506.7,212.2 508.8,211.3 511,206.2 
			513.1,208.7 515.2,209.8 517.3,203.7 519.4,199.9 521.5,195.5 523.6,195.5 525.8,191.3 527.9,182.9 530,181.4 532.1,183.3 
			534.2,184.3 536.3,181.1 538.4,185.5 540.5,179.6 542.7,180.7 544.8,182.3 546.9,177.1 549,174.7 551.1,170.2 553.2,165.8 
			555.3,162.9 557.5,162.9 559.6,158.4 561.7,152.4 563.8,149.6 565.9,153 568,151.5 570.1,151.8 572.2,152.4 574.4,144.6 
			576.5,147.9 578.6,151 580.7,154.7 582.8,160.1 584.9,153.9 587,158.5 589.2,156.1 591.3,158.4 593.4,157.3 595.5,158.6 
			597.6,154.7 599.7,159.1 601.8,156.1 604,154.1 606.1,153.6 608.2,150.9 610.3,154.6 612.4,158.2 614.5,154.5 616.6,156.4 
			618.7,155 620.9,145.7 623,150.3 625.1,149.9 627.2,153.1 629.3,150.1 631.4,149.1 633.5,149.1 635.7,152.4 637.8,151.1 
			639.9,150.2 642,154.2 644.1,150.8 646.2,145.1 648.3,145.4 650.4,145.2 652.6,152.2 654.7,149.3 656.8,144 658.9,135.7 
			661,129.1 663.1,130.1 665.2,136.3 667.4,137 669.5,140.8 671.6,141.4 673.7,137.5 675.8,132.8 677.9,137.2 680,139.6 
			682.2,140.3 684.3,136.2 686.4,131.1 688.5,131.6 690.6,131.3 692.7,129.8 694.8,128.3 696.9,127.2 		"/>
	</g>
</g>
</svg>
