<?xml version="1.0" encoding="utf-8"?>
<!-- Generator: Adobe Illustrator 19.0.0, SVG Export Plug-In . SVG Version: 6.00 Build 0)  -->
<svg version="1.1" id="_x31_st-Balanced" xmlns="http://www.w3.org/2000/svg" xmlns:xlink="http://www.w3.org/1999/xlink" x="0px"
	 y="0px" viewBox="0 0 586 674" style="enable-background:new 0 0 586 674;" xml:space="preserve">
<style type="text/css">
	.st0{fill-rule:evenodd;clip-rule:evenodd;fill:#D8D8D5;}
	.st1{fill:#1E1E1E;}
	.st2{font-family:'Gotham-Medium';}
	.st3{font-size:22px;}
	.st4{font-family:'Gotham-Book';}
	.st5{fill:#E5F0F4;}
	.st6{fill:#FFE6DB;}
	.st7{fill:none;stroke:#FF550F;stroke-width:2.5;stroke-linecap:round;stroke-linejoin:round;stroke-miterlimit:10;}
	.st8{fill:none;stroke:#006E96;stroke-width:2.5;stroke-linecap:round;stroke-linejoin:round;stroke-miterlimit:10;}
</style>
<g>
	<g>
		<polygon class="st0" points="567.1,69.3 567.1,68.2 90.2,68.2 90.2,63.6 89.5,63.6 89.5,68.2 86.5,68.2 86.5,69.3 89.5,69.3 
			89.5,174.3 86.5,174.3 86.5,175.4 89.5,175.4 89.5,280.3 86.5,280.3 86.5,281.5 89.5,281.5 89.5,386.4 86.5,386.4 86.5,387.6 
			89.5,387.6 89.5,492.5 86.5,492.5 86.5,493.7 89.5,493.7 89.5,597.5 86.5,597.5 86.5,598.6 89.5,598.6 89.5,603.2 90.2,603.2 
			90.2,598.6 567.1,598.6 567.1,597.5 90.2,597.5 90.2,493.7 567.1,493.7 567.1,492.5 90.2,492.5 90.2,387.6 567.1,387.6 
			567.1,386.4 90.2,386.4 90.2,281.5 567.1,281.5 567.1,280.3 90.2,280.3 90.2,175.4 567.1,175.4 567.1,174.3 90.2,174.3 90.2,69.3 
					"/>
	</g>
</g>
<text transform="matrix(0 -1 1 0 29.4297 390.0527)" class="st1 st2 st3">Amount ($000)</text>
<text transform="matrix(1 0 0 1 325.3345 656.0186)" class="st1 st2 st3">Years</text>
<text transform="matrix(1 0 0 1 67.5303 602.7617)" class="st1 st4 st3">0</text>
<text transform="matrix(1 0 0 1 537.8457 624.6533)" class="st1 st4 st3">25</text>
<text transform="matrix(1 0 0 1 442.207 624.6533)" class="st1 st4 st3">20</text>
<text transform="matrix(1 0 0 1 354.0771 624.6533)" class="st1 st4 st3">15</text>
<text transform="matrix(1 0 0 1 258.4365 624.6533)" class="st1 st4 st3">10</text>
<text transform="matrix(1 0 0 1 172.5781 624.6533)" class="st1 st4 st3">5</text>
<text transform="matrix(1 0 0 1 54.4844 499.2373)" class="st1 st4 st3">30</text>
<text transform="matrix(1 0 0 1 53.7368 394.958)" class="st1 st4 st3">60</text>
<text transform="matrix(1 0 0 1 53.7368 287.6548)" class="st1 st4 st3">90</text>
<text transform="matrix(1 0 0 1 47.3564 180.3521)" class="st1 st4 st3">120</text>
<text transform="matrix(1 0 0 1 47.0708 74.9395)" class="st1 st4 st3">150</text>
<path class="st5" d="M563.8,165.2c0,0-106.2,120.7-228.6,222.2c-80,66.3-122,92.9-195.5,142.3l-42.9,27.8c0,0-10.6,5.4-4.1,3.7
	c12.6-3.4,77.4-34.3,109.3-49.6c60.4-28.9,117.8-57.9,192.4-96.6c93.3-48.4,168.8-92.6,168.8-92.6L563.8,165.2z"/>
<path class="st6" d="M562.8,521.5v37.4c0,0-291.4,4.9-354.8,5.3c-63.4,0.4-118.5-1.1-118.5-1.1l4.8-3c0,0,19.6-3,72.3-6.8
	c52.7-3.8,180.2-13.6,208.7-15.5C403.9,535.9,562.8,521.5,562.8,521.5z"/>
<g>
	<g>
		<polyline class="st7" points="561.5,535.3 560,535.5 558.4,534.4 556.8,534.5 555.3,534.9 553.7,534.8 552.1,533.7 550.5,533.8 
			549,533 547.4,533.5 545.8,534.6 544.3,537.4 542.7,538.6 541.1,538.2 539.6,538.6 538,539 536.4,538 534.8,539.5 533.3,539.2 
			531.7,536.2 530.1,537.3 528.6,537.2 527,535.5 525.4,536.1 523.9,537.3 522.3,536.7 520.7,539.1 519.1,538.2 517.6,539 
			516,539.2 514.4,538.9 512.9,537.8 511.3,536.3 509.7,534.5 508.2,535.4 506.6,536.4 505,537.3 503.5,538.4 501.9,538.3 
			500.3,540.6 498.7,540 497.2,539.9 495.6,541.2 494,542.7 492.5,544.1 490.9,544.4 489.3,544.1 487.8,545.3 486.2,545.7 
			484.6,544.6 483,544.6 481.5,545.2 479.9,546.2 478.3,545.5 476.8,545.9 475.2,545.8 473.6,546.4 472.1,547.3 470.5,548 
			468.9,548.2 467.3,548.4 465.8,548.6 464.2,549.7 462.6,548.6 461.1,549.8 459.5,550.5 457.9,551.9 456.4,551.3 454.8,550.9 
			453.2,550.8 451.6,550 450.1,549.9 448.5,551 446.9,551.1 445.4,552.5 443.8,552.9 442.2,553.4 440.7,553.5 439.1,554 
			437.5,554.6 436,555.3 434.4,555.3 432.8,555.5 431.2,554.9 429.7,555.2 428.1,555.6 426.5,556.3 425,556.7 423.4,557 
			421.8,557.3 420.3,557.4 418.7,556.9 417.1,556.9 415.5,556.3 414,557.3 412.4,558.7 410.8,558.6 409.3,558.7 407.7,558.1 
			406.1,558.3 404.6,558 403,558.7 401.4,558.9 399.8,558.1 398.3,557.5 396.7,557.5 395.1,557.9 393.6,557 392,556.4 390.4,556.2 
			388.9,556.5 387.3,557 385.7,558.3 384.2,557.1 382.6,556.8 381,556.4 379.4,556.1 377.9,555.9 376.3,555.1 374.7,555.4 
			373.2,555.9 371.6,557.5 370,557.9 368.5,558.7 366.9,558.5 365.3,557.9 363.7,558 362.2,558.7 360.6,559.5 359,558.7 357.5,559 
			355.9,559.3 354.3,558.1 352.8,556.9 351.2,556.3 349.6,556.4 348,555.6 346.5,554.6 344.9,554.9 343.3,555.1 341.8,554.9 
			340.2,555.5 338.6,555.1 337.1,554.4 335.5,553.4 333.9,553.1 332.3,552.3 330.8,553.9 329.2,553.2 327.6,552.5 326.1,552.6 
			324.5,552 322.9,551.6 321.4,550.9 319.8,550.2 318.2,551.5 316.7,551.8 315.1,554 313.5,553.7 311.9,553.2 310.4,554 
			308.8,554.2 307.2,553.7 305.7,554.6 304.1,555.3 302.5,555.3 301,553.6 299.4,553.7 297.8,554.2 296.2,554.6 294.7,555.7 
			293.1,555.7 291.5,556.2 290,555 288.4,554.3 286.8,553.6 285.3,553.1 283.7,552.3 282.1,553.1 280.5,553.3 279,553.3 
			277.4,553.1 275.8,552.2 274.3,552.4 272.7,552.6 271.1,551.2 269.6,551.6 268,551.9 266.4,552.6 264.8,552.4 263.3,551.5 
			261.7,551.9 260.1,552.4 258.6,552.2 257,552.1 255.4,553 253.9,551.8 252.3,552.5 250.7,551.5 249.2,551.4 247.6,551.1 
			246,549.6 244.4,549 242.9,549.8 241.3,550.7 239.7,550 238.2,549 236.6,549.8 235,550 233.5,550.3 231.9,549.5 230.3,548.4 
			228.7,549.5 227.2,548.9 225.6,548.7 224,548.9 222.5,549.2 220.9,548.5 219.3,550.2 217.8,550.4 216.2,551.2 214.6,550.9 
			213,550.3 211.5,549.4 209.9,549.2 208.3,547.9 206.8,548.4 205.2,549.2 203.6,547.9 202.1,549.1 200.5,550.1 198.9,550.6 
			197.4,550.1 195.8,550 194.2,549.8 192.6,549.8 191.1,550.6 189.5,550.9 187.9,550.7 186.4,551.5 184.8,551.2 183.2,550.5 
			181.7,551.1 180.1,551.8 178.5,551.5 176.9,551.8 175.4,552.1 173.8,552.7 172.2,554.1 170.7,554.3 169.1,554.1 167.5,552.7 
			166,551.8 164.4,552 162.8,551.7 161.2,552.4 159.7,550.6 158.1,550.4 156.5,549 155,550.4 153.4,550.2 151.8,550.3 150.3,550.5 
			148.7,552 147.1,552.2 145.5,550.6 144,552.9 142.4,553.6 140.8,553.8 139.3,554.3 137.7,555 136.1,555.1 134.6,555.3 133,554.9 
			131.4,555.5 129.9,555.2 128.3,554.7 126.7,555.1 125.1,555.6 123.6,554.9 122,556.6 120.4,556.6 118.9,557.9 117.3,558.1 
			115.7,559.3 114.2,558.7 112.6,558.8 111,559.2 109.4,558.8 107.9,558.6 106.3,558.8 104.7,558.5 103.2,559.1 101.6,558.6 
			100,559.2 98.5,560.1 96.9,560.6 95.3,561 93.7,561.7 92.2,562 90.6,561.6 		"/>
	</g>
</g>
<polyline class="st8" points="90.6,561.6 92.2,561 93.7,561.1 95.3,559.8 96.9,559.4 98.5,559.6 100,558.1 101.6,557.5 103.2,558.2 
	104.7,557.7 106.3,556.1 107.9,554.3 109.4,554 111,553.9 112.6,553 114.2,552.9 115.7,552.3 117.3,550.8 118.9,548.8 120.4,549.4 
	122,548.4 123.6,547 125.1,546.2 126.7,544.4 128.3,542.8 129.9,539 131.4,537.3 133,535.4 134.6,536.4 136.1,535.4 137.7,536.4 
	139.3,536.5 140.8,535.1 142.4,535 144,532.7 145.5,533.3 147.1,533.5 148.7,533.8 150.3,535 151.8,533.3 153.4,532 155,531.7 
	156.5,532.1 158.1,529.5 159.7,527.7 161.2,526.7 162.8,525.9 164.4,524 166,526 167.5,524.4 169.1,524.6 170.7,522 172.2,521.4 
	173.8,519.5 175.4,518 176.9,515.2 178.5,515.6 180.1,517.1 181.7,516.2 183.2,516.5 184.8,516.1 186.4,515.4 187.9,515.9 
	189.5,515.1 191.1,514.2 192.6,514.1 194.2,514.1 195.8,513.1 197.4,509.5 198.9,509.2 200.5,508.6 202.1,511.5 203.6,509.9 
	205.2,508.7 206.8,507.4 208.3,509.5 209.9,512.3 211.5,511.1 213,513.5 214.6,512.2 216.2,512.9 217.8,513.9 219.3,513.4 
	220.9,513.5 222.5,514.6 224,514.6 225.6,514.5 227.2,512 228.7,509.7 230.3,508.1 231.9,507.2 233.5,507.6 235,507.9 236.6,505.9 
	238.2,503.3 239.7,503.6 241.3,502 242.9,500.2 244.4,499.4 246,498.9 247.6,494.3 249.2,491.2 250.7,490 252.3,488.3 253.9,484.2 
	255.4,481.1 257,481.4 258.6,483.3 260.1,481.6 261.7,481.2 263.3,477.9 264.8,472.9 266.4,475.2 268,471.3 269.6,471.5 
	271.1,466.9 272.7,467.5 274.3,466.8 275.8,465.6 277.4,461.1 279,461.5 280.5,462.5 282.1,457.6 283.7,458.1 285.3,456.1 
	286.8,453.2 288.4,454.1 290,455.1 291.5,454 293.1,451.5 294.7,446.9 296.2,450.4 297.8,449.8 299.4,447.9 301,450.3 302.5,447.9 
	304.1,448.1 305.7,445.6 307.2,445.1 308.8,444.1 310.4,445.5 311.9,446.2 313.5,446.1 315.1,448.4 316.7,444.8 318.2,444.7 
	319.8,445 321.4,438.2 322.9,435.9 324.5,434.5 326.1,435.4 327.6,434.8 329.2,430 330.8,430.5 332.3,425 333.9,425.9 335.5,426.6 
	337.1,422.2 338.6,419 340.2,415.9 341.8,413.4 343.3,415.5 344.9,414.7 346.5,414.6 348,408.6 349.6,405.2 351.2,405.1 
	352.8,412.1 354.3,410.8 355.9,413.9 357.5,412.3 359,412.6 360.6,407.7 362.2,407.8 363.7,410.7 365.3,406.1 366.9,400 
	368.5,396.6 370,400.6 371.6,393.5 373.2,392.5 374.7,390.2 376.3,390.4 377.9,389.5 379.4,393.3 381,390.8 382.6,386.1 384.2,384 
	385.7,385.4 387.3,382.3 388.9,386.3 390.4,385.1 392,385.3 393.6,378.9 395.1,375.2 396.7,370.9 398.3,359.9 399.8,359.5 
	401.4,358.5 403,362.5 404.6,353.9 406.1,344.1 407.7,342.4 409.3,343.5 410.8,337.7 412.4,336.3 414,346.1 415.5,347.8 
	417.1,344.2 418.7,343.2 420.3,338.7 421.8,339 423.4,331.7 425,334.4 426.5,337.5 428.1,327.2 429.7,321.6 431.2,317.7 
	432.8,317.5 434.4,312.7 436,299.6 437.5,297.6 439.1,299.2 440.7,301.3 442.2,295.6 443.8,302.7 445.4,295 446.9,294.6 
	448.5,297.7 450.1,290.8 451.6,286.4 453.2,283.1 454.8,276.4 456.4,273.1 457.9,272.8 459.5,263.9 461.1,254.2 462.6,251.3 
	464.2,258.2 465.8,257.7 467.3,259.3 468.9,263.1 470.5,248.3 472.1,255.8 473.6,261.5 475.2,266.6 476.8,274.6 478.3,263.1 
	479.9,271.1 481.5,266.8 483,268.8 484.6,267.3 486.2,266.8 487.8,259.9 489.3,266.4 490.9,263.5 492.5,262 494,263.4 495.6,260.1 
	497.2,268.1 498.7,273.5 500.3,268.8 501.9,271.7 503.5,270.4 505,258.3 506.6,267.9 508.2,268.8 509.7,273.5 511.3,270.5 
	512.9,269.5 514.4,270.9 516,275 517.6,273.5 519.1,271.5 520.7,279 522.3,273.7 523.9,267.3 525.4,265.5 527,264.7 528.6,275.6 
	530.1,270.7 531.7,264.2 533.3,248.6 534.8,236.2 536.4,238.5 538,246 539.6,246.2 541.1,254 542.7,256 544.3,253 545.8,247.2 
	547.4,255.5 549,259.9 550.5,261.3 552.1,256 553.7,248.6 555.3,248.7 556.8,248.4 558.4,245.5 560,244.6 561.5,246.2 "/>
</svg>
