<?xml version="1.0" encoding="utf-8"?>
<!-- Generator: Adobe Illustrator 18.0.0, SVG Export Plug-In . SVG Version: 6.00 Build 0)  -->
<!DOCTYPE svg PUBLIC "-//W3C//DTD SVG 1.1//EN" "http://www.w3.org/Graphics/SVG/1.1/DTD/svg11.dtd">
<svg version="1.1" xmlns="http://www.w3.org/2000/svg" xmlns:xlink="http://www.w3.org/1999/xlink" x="0px" y="0px"
	 viewBox="0 0 80 160" enable-background="new 0 0 80 160" xml:space="preserve">
<g id="Layer_1" display="none">
	<g display="inline">
		<g>
			<path fill="#D4C9E0" d="M40,83c20.4,0,37,16.6,37,37s-16.6,37-37,37S3,140.4,3,120S19.6,83,40,83 M40,80C17.9,80,0,97.9,0,120
				c0,22.1,17.9,40,40,40s40-17.9,40-40C80,97.9,62.1,80,40,80L40,80z"/>
		</g>
		<g>
			<path fill="#704C99" d="M63.3,114l-2.3,4.8L40,126c-0.7,3.7-3.4,7.1-7.3,8.4c-5.7,2-12.1-1.1-14-6.9c-2-5.8,1.1-12.1,6.8-14.1
				c4-1.4,8.2-0.3,11,2.3l6.2-2.1l4.7,3.5l1.8-3.9l0.8-0.3l4,2l3.2-4.4l0.6-0.2l4.9,2.3C63.5,112.8,63.7,113.3,63.3,114z
				 M26.4,128.9c2-0.7,3.1-2.9,2.4-5c-0.7-2-2.9-3.1-5-2.4c-2,0.7-3.1,2.9-2.4,5C22.1,128.5,24.4,129.6,26.4,128.9z"/>
		</g>
	</g>
	<g display="inline">
		<g>
			<circle fill="#704C99" cx="40" cy="40" r="40"/>
		</g>
		<g>
			<path fill="#FFFFFF" d="M63.3,34L61,38.8L40,46c-0.7,3.7-3.4,7.1-7.3,8.4c-5.7,2-12.1-1.1-14-6.9s1.1-12.1,6.8-14.1
				c4-1.4,8.2-0.3,11,2.3l6.2-2.1l4.7,3.5l1.8-3.9l0.8-0.3l4,2l3.2-4.4l0.6-0.2l4.9,2.3C63.5,32.8,63.7,33.3,63.3,34z M26.4,48.9
				c2-0.7,3.1-2.9,2.4-5c-0.7-2-2.9-3.1-5-2.4c-2,0.7-3.1,2.9-2.4,5C22.1,48.5,24.4,49.6,26.4,48.9z"/>
		</g>
	</g>
</g>
<g id="Layer_2" display="none">
	<g display="inline">
		<g>
			<path fill="#D4C9E0" d="M40,83c20.4,0,37,16.6,37,37s-16.6,37-37,37S3,140.4,3,120S19.6,83,40,83 M40,80C17.9,80,0,97.9,0,120
				c0,22.1,17.9,40,40,40s40-17.9,40-40C80,97.9,62.1,80,40,80L40,80z"/>
		</g>
		<g>
			<g>
				<path fill="#704C99" d="M29.4,102.1c0-1-0.8-1.8-1.8-1.8h-3.4c-1,0-1.8,0.8-1.8,1.8v6l7-5.3V102.1z"/>
				<path fill="#704C99" d="M63.7,115.2L41.8,98.5c-0.1,0-0.1-0.1-0.2-0.1c0.1,0,0.1,0.1,0.1,0.1c-0.5-0.4-1.1-0.6-1.8-0.6
					c-0.6,0-1.2,0.2-1.8,0.6c0,0-0.1,0-0.1,0.1l-21.9,16.6c-0.7,0.5-0.8,1.5-0.3,2.2c0.5,0.7,1.5,0.8,2.2,0.3l21.1-16.1c0,0,0,0,0,0
					c0.2-0.1,0.4-0.2,0.7-0.2c0.2,0,0.5,0.1,0.7,0.2c0,0,0,0,0,0l21.1,16.1c0.7,0.5,1.7,0.4,2.2-0.3
					C64.5,116.7,64.4,115.7,63.7,115.2z"/>
				<path fill="#704C99" d="M40.7,105.7C40.7,105.7,40.7,105.7,40.7,105.7c-0.2-0.1-0.4-0.2-0.7-0.2c-0.2,0-0.5,0.1-0.7,0.2
					c0,0,0,0,0,0l-16.5,12.6c-0.3,0.3-0.5,0.6-0.5,1.1v14.9c0,2.6,2.1,4.6,4.6,4.6h8v-11.3c0-1.1,0.9-2.1,2.1-2.1h5.7
					c1.1,0,2.1,0.9,2.1,2.1v11.3h8.4c2.5,0,4.6-2.1,4.6-4.6v-14.9c0-0.4-0.2-0.8-0.5-1.1L40.7,105.7z"/>
			</g>
		</g>
	</g>
	<g display="inline">
		<circle fill="#704C99" cx="40" cy="40" r="40"/>
		<path fill="#FFFFFF" d="M22.4,22.1c0-1,0.8-1.8,1.8-1.8h3.4c1,0,1.8,0.8,1.8,1.8v0.7l-7,5.3V22.1z"/>
		<path fill="#FFFFFF" d="M57.8,54.3c0,2.6-2.1,4.6-4.6,4.6h-8.4V47.6c0-1.1-0.9-2.1-2.1-2.1H37c-1.1,0-2.1,0.9-2.1,2.1v11.3h-8
			c-2.6,0-4.6-2.1-4.6-4.6V39.4c0-0.4,0.2-0.8,0.5-1.1l16.5-12.6c0,0,0,0,0,0c0.2-0.1,0.4-0.2,0.7-0.2c0.2,0,0.5,0.1,0.7,0.2
			c0,0,0,0,0,0l16.5,12.6c0.3,0.3,0.5,0.6,0.5,1.1V54.3z"/>
		<path fill="#FFFFFF" d="M64,37.3c-0.5,0.7-1.5,0.8-2.2,0.3L40.7,21.6c0,0,0,0,0,0c-0.2-0.1-0.4-0.2-0.7-0.2
			c-0.2,0-0.5,0.1-0.7,0.2c0,0,0,0,0,0L18.2,37.6c-0.7,0.5-1.7,0.4-2.2-0.3c-0.5-0.7-0.4-1.7,0.3-2.2l21.9-16.6c0,0,0.1,0,0.1-0.1
			c0.5-0.4,1.1-0.6,1.8-0.6c0.6,0,1.2,0.2,1.8,0.6c0,0-0.1-0.1-0.1-0.1c0.1,0,0.1,0.1,0.1,0.1c0,0,0,0,0,0c0,0,0.1,0,0.1,0
			l21.9,16.6C64.4,35.7,64.5,36.7,64,37.3z"/>
	</g>
</g>
<g id="Layer_3" display="none">
	<g display="inline">
		<g>
			<path fill="#D4C9E0" d="M40,83c20.4,0,37,16.6,37,37s-16.6,37-37,37S3,140.4,3,120S19.6,83,40,83 M40,80C17.9,80,0,97.9,0,120
				c0,22.1,17.9,40,40,40s40-17.9,40-40C80,97.9,62.1,80,40,80L40,80z"/>
		</g>
		<circle fill="#704C99" cx="40" cy="109.4" r="6.9"/>
		<path fill="#704C99" d="M56.2,109l-3.4,11.5c-12.5-2.2-13.1-2.2-25.6,0L23.8,109c-1.3-4.5-8.1-2.5-6.8,2l4.3,14.5
			c0.5,1.7,2.2,2.8,4,2.5l8.8-1.6l0,15.4c1.9-0.1,3.9-0.2,5.9-0.2c2,0,4,0.1,5.9,0.2l0-15.4l8.8,1.6c1.7,0.3,3.5-0.7,4-2.5L63,111
			C64.3,106.5,57.5,104.5,56.2,109z"/>
	</g>
	<g display="inline">
		<g>
			<circle fill="#704C99" cx="40" cy="40" r="40"/>
		</g>
		<g>
			<circle fill="#FFFFFF" cx="40" cy="29.4" r="6.9"/>
			<path fill="#FFFFFF" d="M56.2,29l-3.4,11.5c-12.5-2.2-13.1-2.2-25.6,0L23.8,29c-1.3-4.5-8.1-2.5-6.8,2l4.3,14.5
				c0.5,1.7,2.2,2.8,4,2.5l8.8-1.6l0,15.4c1.9-0.1,3.9-0.2,5.9-0.2c2,0,4,0.1,5.9,0.2l0-15.4l8.8,1.6c1.7,0.3,3.5-0.7,4-2.5L63,31
				C64.3,26.5,57.5,24.5,56.2,29z"/>
		</g>
	</g>
</g>
<g id="Layer_4" display="none">
	<g display="inline">
		<g>
			<path fill="#EFF4C4" d="M40,83c20.4,0,37,16.6,37,37s-16.6,37-37,37S3,140.4,3,120S19.6,83,40,83 M40,80C17.9,80,0,97.9,0,120
				c0,22.1,17.9,40,40,40s40-17.9,40-40C80,97.9,62.1,80,40,80L40,80z"/>
		</g>
		<g>
			<g>
				<path fill="#CADC3C" d="M43.4,108.9c0,0,15.2,11.9,17,13.3c1.8,1.4,1.2,4.2,0.5,5.1l-9,11.7c-0.7,0.9-3.5,2-4.9,0.9
					c-1.4-1.1-17.1-13.4-17.1-13.4"/>
				<path fill="#CADC3C" d="M29.1,125.9c0,0,0.5,0.4-1.4-1c-1.8-1.4-1.2-4.1-0.5-5.1l9-11.7c0.7-0.9,3.4-1.9,4.8-0.8
					c1.4,1.1,1.5,1.1,1.5,1.1"/>
				<path fill="#CADC3C" d="M33.7,105.8c0.9,0.7,1.1,2.1,0.4,3l-7.2,9.3c-0.7,0.9-2.1,1.1-3,0.4l-0.3-0.3c-0.9-0.7-1.1-2.1-0.4-3
					l7.2-9.3c0.7-0.9,2.1-1.1,3-0.4L33.7,105.8z"/>
				<path fill="#CADC3C" d="M21.8,104.7c1.3,1,1.8,2.4,1.3,3.1c-0.4,0.5-1.3,0.6-2.2,0.2c-0.4-0.2-0.8-0.4-1.2-0.7
					c-1.3-1-1.8-2.4-1.3-3.1C19.1,103.5,20.5,103.7,21.8,104.7z"/>
				<path fill="#CADC3C" d="M20.7,107.7c-0.2,0,1.4,0.7,0.9,2.4c-0.5,1.7-0.5,3.6,0.8,4.4c1.5-2.1,6.9-8.9,6.9-8.9s-1.5-1.7-4.5,0.4
					c-1.2,0.7-2.2-0.7-2.2-0.7"/>
			</g>
		</g>
	</g>
	<g display="inline">
		<g>
			<circle fill="#CADC3C" cx="40" cy="40" r="40"/>
		</g>
		<g>
			<path fill="#FFFFFF" d="M43,29.9c0,0,15.2,11.9,17,13.3c1.8,1.4,1.2,4.2,0.5,5.1l-9,11.7c-0.7,0.9-3.5,2-4.9,0.9
				c-1.4-1.1-17.1-13.4-17.1-13.4"/>
			<path fill="#FFFFFF" d="M28.7,46.9c0,0,0.5,0.4-1.4-1c-1.8-1.4-1.2-4.1-0.5-5.1l9-11.7c0.7-0.9,3.4-1.9,4.8-0.8
				c1.4,1.1,1.5,1.1,1.5,1.1"/>
			<path fill="#FFFFFF" d="M33.3,26.8c0.9,0.7,1.1,2.1,0.4,3l-7.2,9.3c-0.7,0.9-2.1,1.1-3,0.4l-0.3-0.3c-0.9-0.7-1.1-2.1-0.4-3
				l7.2-9.3c0.7-0.9,2.1-1.1,3-0.4L33.3,26.8z"/>
			<path fill="#FFFFFF" d="M21.5,25.7c1.3,1,1.8,2.4,1.3,3.1c-0.4,0.5-1.3,0.6-2.2,0.2c-0.4-0.2-0.8-0.4-1.2-0.7
				c-1.3-1-1.8-2.4-1.3-3.1C18.7,24.5,20.2,24.7,21.5,25.7z"/>
			<path fill="#FFFFFF" d="M20.3,28.7c-0.2,0,1.4,0.7,0.9,2.4c-0.5,1.7-0.5,3.6,0.8,4.4c1.5-2.1,6.9-8.9,6.9-8.9s-1.5-1.7-4.5,0.4
				c-1.2,0.7-2.2-0.7-2.2-0.7"/>
		</g>
	</g>
</g>
<g id="Layer_5" display="none">
	<g display="inline">
		<g>
			<path fill="#EFF4C4" d="M40,83c20.4,0,37,16.6,37,37s-16.6,37-37,37S3,140.4,3,120S19.6,83,40,83 M40,80C17.9,80,0,97.9,0,120
				c0,22.1,17.9,40,40,40s40-17.9,40-40C80,97.9,62.1,80,40,80L40,80z"/>
		</g>
		<path fill="none" d="M40,102.8L40,102.8C40,102.8,40,102.8,40,102.8c0,0,0,0.1,0,0.2C40,102.9,40,102.9,40,102.8z"/>
		<g>
			<path fill="#CADC3C" d="M34.8,111.6c-0.2-0.4-0.6-0.7-1-0.7v0c0,0,0,0,0,0v0h-2.4c0,0,0,0,0,0v-1.2c1.2-0.5,2.2-1.5,2.5-2.8l0,0
				c0.5-0.8,0.7-1.6,0.7-2.6c0-1.6-0.8-3.1-2.1-3.9c0.8-0.2,0.5-1.1,0-1.2c0,0.8-2.1,0.4-2.1,0.4l0,0c-0.2,0-0.4-0.1-0.7-0.1
				c-2.7,0-4.8,2.1-4.8,4.8c0,1,0.2,1.9,0.7,2.6l0,0c0.4,1.3,1.3,2.3,2.5,2.8v1.2c0,0,0,0,0,0h-2.4v0c0,0,0,0,0,0c0,0,0,0,0,0
				c-0.4,0-0.8,0.3-1,0.7l-4.7,12.2c-0.2,0.6,0.1,1.3,0.7,1.5c0.1,0.1,0.3,0.1,0.4,0.1c0.5,0,0.9-0.3,1.1-0.7l3.5-9.1
				c0,5.1,0,6.7,0,7.2v0.2v0.5c0,0.1,0,0.1,0,0.2v14.6h0v1.5c0,0.8,0.6,1.4,1.4,1.4h0.3c0.8,0,1.4-0.6,1.4-1.4v-1.5h0v-12.6h1.7v3.1
				c0,0,0,0,0,0v11c0,0.8,0.6,1.4,1.4,1.4h0.3c0.8,0,1.4-0.6,1.4-1.4v-1.5h0v-14.7c0,0,0-0.1,0-0.1v-0.5v-0.2v-7.2l3.5,9.1
				c0.2,0.5,0.6,0.7,1.1,0.7c0.1,0,0.3,0,0.4-0.1c0.6-0.2,0.9-0.9,0.7-1.5L34.8,111.6z"/>
			<path fill="#CADC3C" d="M55.2,111.6c-0.2-0.4-0.6-0.7-1-0.7v0c0,0,0,0,0,0v0h-2.4c0,0,0,0,0,0v-1.1c1-0.4,1.8-1.2,2.3-2.2
				c0,0,0,0.1,0,0.1c0.2,0.2,0-0.5,0.4-0.9c0.4-0.4,0.4-1,0.1-1.5c-0.2-0.4,0-0.7,0.1-0.9c0.7,2.3,2.6,2.8,2.5,2.5
				c-1.5-1.4-0.1-5.5-0.1-5.5l0,0c0.1-0.3,0.2-0.5,0.2-0.8c0-1.3-1.1-2.4-2.4-2.4c-1.2,0-2.1,0.8-2.4,1.9c-0.2,0-0.4,0-0.6,0
				c0,0,0,0,0,0c-0.5-0.2-1-0.3-1.6-0.3c-2.4,0-4.3,1.9-4.3,4.3c0,0.1,0,0.2,0.1,0.2c0,0,0,0,0,0c0.1,0.1,0.2,0.6-0.1,1.1
				s-0.3,1,0.1,1.5c0.4,0.4,0.1,1.1,0.4,0.9c0,0,0.1-0.1,0.1-0.2c0.4,1,1.3,1.8,2.3,2.2v1.1c0,0,0,0,0,0h-2.4v0v0c0,0,0,0,0,0
				c-0.4,0-0.8,0.3-1,0.7l-4.7,12.2c-0.2,0.6,0.1,1.3,0.7,1.5c0.1,0.1,0.3,0.1,0.4,0.1c0.5,0,0.9-0.3,1.1-0.7l3.5-9.1
				c0,5.1,0,6.7,0,7.2v0.2v0.5c0,0.1,0,0.1,0,0.2v14.6h0v1.5c0,0.8,0.6,1.4,1.4,1.4h0.3c0.8,0,1.4-0.6,1.4-1.4v-1.5h0v-12.6H51v3.1
				c0,0,0,0,0,0v11c0,0.8,0.6,1.4,1.4,1.4h0.3c0.8,0,1.4-0.6,1.4-1.4v-1.5h0v-14.7c0,0,0-0.1,0-0.1v-0.5v-0.2v-7.2l3.5,9.1
				c0.2,0.5,0.6,0.7,1.1,0.7c0.1,0,0.3,0,0.4-0.1c0.6-0.2,0.9-0.9,0.7-1.5L55.2,111.6z M54.4,102.8L54.4,102.8c0,0.1,0,0.1,0,0.2
				C54.4,102.9,54.4,102.8,54.4,102.8C54.4,102.8,54.4,102.8,54.4,102.8z"/>
		</g>
	</g>
	<g display="inline">
		<g>
			<circle fill="#CADC3C" cx="40" cy="40" r="40"/>
		</g>
		<path fill="none" d="M40,22.8L40,22.8C40,22.8,40,22.8,40,22.8c0,0,0,0.1,0,0.2C40,22.9,40,22.9,40,22.8z"/>
		<g>
			<path fill="#FFFFFF" d="M34.8,31.6c-0.2-0.4-0.6-0.7-1-0.7v0c0,0,0,0,0,0v0h-2.4c0,0,0,0,0,0v-1.2c1.2-0.5,2.2-1.5,2.5-2.8l0,0
				c0.5-0.8,0.7-1.6,0.7-2.6c0-1.6-0.8-3.1-2.1-3.9c0.8-0.2,0.5-1.1,0-1.2c0,0.8-2.1,0.4-2.1,0.4l0,0c-0.2,0-0.4-0.1-0.7-0.1
				c-2.7,0-4.8,2.1-4.8,4.8c0,1,0.2,1.9,0.7,2.6l0,0c0.4,1.3,1.3,2.3,2.5,2.8v1.2c0,0,0,0,0,0h-2.4v0c0,0,0,0,0,0c0,0,0,0,0,0
				c-0.4,0-0.8,0.3-1,0.7l-4.7,12.2c-0.2,0.6,0.1,1.3,0.7,1.5c0.1,0.1,0.3,0.1,0.4,0.1c0.5,0,0.9-0.3,1.1-0.7l3.5-9.1
				c0,5.1,0,6.7,0,7.2v0.2v0.5c0,0.1,0,0.1,0,0.2v14.6h0v1.5c0,0.8,0.6,1.4,1.4,1.4h0.3c0.8,0,1.4-0.6,1.4-1.4v-1.5h0V45.6h1.7v3.1
				c0,0,0,0,0,0v11c0,0.8,0.6,1.4,1.4,1.4h0.3c0.8,0,1.4-0.6,1.4-1.4v-1.5h0V43.6c0,0,0-0.1,0-0.1v-0.5v-0.2v-7.2l3.5,9.1
				c0.2,0.5,0.6,0.7,1.1,0.7c0.1,0,0.3,0,0.4-0.1c0.6-0.2,0.9-0.9,0.7-1.5L34.8,31.6z"/>
			<path fill="#FFFFFF" d="M55.2,31.6c-0.2-0.4-0.6-0.7-1-0.7v0c0,0,0,0,0,0v0h-2.4c0,0,0,0,0,0v-1.1c1-0.4,1.8-1.2,2.3-2.2
				c0,0,0,0.1,0,0.1c0.2,0.2,0-0.5,0.4-0.9c0.4-0.4,0.4-1,0.1-1.5c-0.2-0.4,0-0.7,0.1-0.9c0.7,2.3,2.6,2.8,2.5,2.5
				c-1.5-1.4-0.1-5.5-0.1-5.5l0,0c0.1-0.3,0.2-0.5,0.2-0.8c0-1.3-1.1-2.4-2.4-2.4c-1.2,0-2.1,0.8-2.4,1.9c-0.2,0-0.4,0-0.6,0
				c0,0,0,0,0,0c-0.5-0.2-1-0.3-1.6-0.3c-2.4,0-4.3,1.9-4.3,4.3c0,0.1,0,0.2,0.1,0.2c0,0,0,0,0,0c0.1,0.1,0.2,0.6-0.1,1.1
				c-0.3,0.5-0.3,1,0.1,1.5c0.4,0.4,0.1,1.1,0.4,0.9c0,0,0.1-0.1,0.1-0.2c0.4,1,1.3,1.8,2.3,2.2v1.1c0,0,0,0,0,0h-2.4v0c0,0,0,0,0,0
				c0,0,0,0,0,0c-0.4,0-0.8,0.3-1,0.7l-4.7,12.2c-0.2,0.6,0.1,1.3,0.7,1.5c0.1,0.1,0.3,0.1,0.4,0.1c0.5,0,0.9-0.3,1.1-0.7l3.5-9.1
				c0,5.1,0,6.7,0,7.2v0.2v0.5c0,0.1,0,0.1,0,0.2v14.6h0v1.5c0,0.8,0.6,1.4,1.4,1.4h0.3c0.8,0,1.4-0.6,1.4-1.4v-1.5h0V45.6H51v3.1
				c0,0,0,0,0,0v11c0,0.8,0.6,1.4,1.4,1.4h0.3c0.8,0,1.4-0.6,1.4-1.4v-1.5h0V43.6c0,0,0-0.1,0-0.1v-0.5v-0.2v-7.2l3.5,9.1
				c0.2,0.5,0.6,0.7,1.1,0.7c0.1,0,0.3,0,0.4-0.1c0.6-0.2,0.9-0.9,0.7-1.5L55.2,31.6z M54.4,22.8L54.4,22.8c0,0.1,0,0.1,0,0.2
				C54.4,22.9,54.4,22.8,54.4,22.8C54.4,22.8,54.4,22.8,54.4,22.8z"/>
		</g>
	</g>
</g>
<g id="Layer_6" display="none">
	<g display="inline">
		<g>
			<path fill="#EFF4C4" d="M40,83c20.4,0,37,16.6,37,37s-16.6,37-37,37S3,140.4,3,120S19.6,83,40,83 M40,80C17.9,80,0,97.9,0,120
				c0,22.1,17.9,40,40,40s40-17.9,40-40C80,97.9,62.1,80,40,80L40,80z"/>
		</g>
		<g>
			<path fill="#CADC3C" d="M46.4,128.1c0,0-3.5-1.1-3.5-1.7c0-1.1-0.1-2.5,0.1-2.7c0,0,0,0,0.1-0.1c2.2-1.5,4.3-4.5,4.3-8
				c0-5-3.3-9.5-7.3-9.5h-0.4c-4,0-7.3,4.5-7.3,9.5c0,3.5,2.1,6.5,4.3,8c0,0,0,0,0.1,0.1c0.2,0.2,0.1,1.6,0.1,2.7
				c0,0.8-3.5,1.7-3.5,1.7c-3.9,1.3-7.1,3.6-7.1,7.5c0,0.4,0.3,1.1,0.7,1.1h13h13c0.4,0,0.7-0.7,0.7-1.1
				C53.5,131.7,50.3,129.4,46.4,128.1z"/>
			<path fill="#CADC3C" d="M31.2,127c1.4-0.4,2.3-0.9,2.5-1.2c0-0.2,0-0.4,0-0.6c0-0.5,0-1.3,0-1.6c-2-1.4-3.7-4.2-3.7-8
				c0-3.7,1.3-7.6,3.9-9.2c-1.1-2.1-2.5-3.1-4.6-3.1h-0.3c-3.4,0-6.3,3.9-6.3,8.2c0,3,1.8,5.7,3.7,6.9c0,0,0,0,0.1,0
				c0.2,0.2,0.1,1.4,0.1,2.3c0,0.7-3,1.5-3,1.5c-3.4,1.1-6.2,3.1-6.2,6.5c0,0.3,0.3,0.9,0.6,0.9h8.3C27.4,128.7,29.1,127.7,31.2,127
				z"/>
			<path fill="#CADC3C" d="M56.5,122.4c0,0-3-0.9-3-1.5c0-0.9-0.1-2.2,0.1-2.4c0,0,0,0,0.1,0c1.9-1.3,3.7-3.9,3.7-6.9
				c0-4.3-2.9-8.2-6.3-8.2h-0.3c-2.2,0-3.6,1-4.7,3.2c2.4,1.6,3.6,5.4,3.6,9c0,3.8-1.8,6.7-3.7,8c0,0.3,0,1.1,0,1.6
				c0,0.2,0,0.4,0,0.6c0.3,0.3,1.3,0.9,2.5,1.2c2.2,0.7,3.9,1.7,5,2.8h8.7c0.3,0,0.6-0.6,0.6-0.9C62.7,125.5,59.9,123.5,56.5,122.4z
				"/>
		</g>
	</g>
	<g display="inline">
		<g>
			<circle fill="#CADC3C" cx="40" cy="40" r="40"/>
		</g>
		<g>
			<path fill="#FFFFFF" d="M46.4,48.1c0,0-3.5-1.1-3.5-1.7c0-1.1-0.1-2.5,0.1-2.7c0,0,0,0,0.1-0.1c2.2-1.5,4.3-4.5,4.3-8
				c0-5-3.3-9.5-7.3-9.5h-0.4c-4,0-7.3,4.5-7.3,9.5c0,3.5,2.1,6.5,4.3,8c0,0,0,0,0.1,0.1c0.2,0.2,0.1,1.6,0.1,2.7
				c0,0.8-3.5,1.7-3.5,1.7c-3.9,1.3-7.1,3.6-7.1,7.5c0,0.4,0.3,1.1,0.7,1.1h13h13c0.4,0,0.7-0.7,0.7-1.1
				C53.5,51.7,50.3,49.4,46.4,48.1z"/>
			<path fill="#FFFFFF" d="M31.2,47c1.4-0.4,2.3-0.9,2.5-1.2c0-0.2,0-0.4,0-0.6c0-0.5,0-1.3,0-1.6c-2-1.4-3.7-4.2-3.7-8
				c0-3.7,1.3-7.6,3.9-9.2c-1.1-2.1-2.5-3.1-4.6-3.1h-0.3c-3.4,0-6.3,3.9-6.3,8.2c0,3,1.8,5.7,3.7,6.9c0,0,0,0,0.1,0
				c0.2,0.2,0.1,1.4,0.1,2.3c0,0.7-3,1.5-3,1.5c-3.4,1.1-6.2,3.1-6.2,6.5c0,0.3,0.3,0.9,0.6,0.9h8.3C27.4,48.7,29.1,47.7,31.2,47z"
				/>
			<path fill="#FFFFFF" d="M56.5,42.4c0,0-3-0.9-3-1.5c0-0.9-0.1-2.2,0.1-2.4c0,0,0,0,0.1,0c1.9-1.3,3.7-3.9,3.7-6.9
				c0-4.3-2.9-8.2-6.3-8.2h-0.3c-2.2,0-3.6,1-4.7,3.2c2.4,1.6,3.6,5.4,3.6,9c0,3.8-1.8,6.7-3.7,8c0,0.3,0,1.1,0,1.6
				c0,0.2,0,0.4,0,0.6c0.3,0.3,1.3,0.9,2.5,1.2c2.2,0.7,3.9,1.7,5,2.8h8.7c0.3,0,0.6-0.6,0.6-0.9C62.7,45.5,59.9,43.5,56.5,42.4z"/>
		</g>
	</g>
</g>
<g id="Layer_7" display="none">
	<g display="inline">
		<g>
			<path fill="#EFF4C4" d="M40,83c20.4,0,37,16.6,37,37s-16.6,37-37,37S3,140.4,3,120S19.6,83,40,83 M40,80C17.9,80,0,97.9,0,120
				c0,22.1,17.9,40,40,40s40-17.9,40-40C80,97.9,62.1,80,40,80L40,80z"/>
		</g>
		<g>
			<g>
				<path fill="#CADC3C" d="M36,115.5c-1.2-0.4-6.2-2-8.7-2.9c-1.3,3.3-7.9,20.9-5.6,23.9c2.5,3.3,11.6-0.6,14.3,0
					c2.6,0.6,2.3-1.3,2.3-1.3L36,115.5z"/>
				<path fill="#CADC3C" d="M42.7,105.6c-0.7-0.9-4.6-0.7-4.6-0.7s-1-2.2-1.6-2.5c-0.8-0.5-2.9-0.4-2.9-0.4s0.2-3.1-0.8-3.3
					c-1.8-0.4-4.2,9.2-5,12.5c2,0.8,5.9,2.3,8,2.7l0-0.2c0,0,0.1-1.6,1.1-1.9c0.7-0.3,4.2-1,5.2-1.9
					C42.8,108.9,43.3,106.5,42.7,105.6z"/>
			</g>
			<g>
				<path fill="#CADC3C" d="M43.5,121.2c1.6-0.5,4-1.3,6-2.6c-0.1-1,0.3-2.2,0.4-2.9c0.2-1.1-0.1-1.8-0.7-3.4
					c-0.1-0.3-0.6-3.5-1.6-3.6c-1-0.1-2.2,3.1-2.2,3.1s-2.8,0-3.1,1.2c-0.4,1.5-1.9,2.3-2,2.5c-0.2,0.8,0.2,3.1,1.5,3.5
					C42.6,119.2,43.2,120.3,43.5,121.2z"/>
				<path fill="#CADC3C" d="M50.2,120.1c-0.1-0.1-0.2-0.3-0.3-0.4c-1.1,0.6-4.3,2.3-6.1,2.8c0.7,3.5,0.3,12.2,0.3,12.6
					c0,0.6-0.3,0.9-0.1,1.3c0.4,0.7,1.2,0.7,2.2,0.6c0.9-0.2,8,1.8,12.4-0.1C64.1,133.7,55,122,50.2,120.1z"/>
			</g>
			<path fill="#CADC3C" d="M21.5,135.5c-3.8-2.9-3.8-9.6-4.8-7.6c-0.9,1.9,0,6.4,1.7,8.4c1.5,1.8,4.7,1.7,4.9,0.6"/>
			<path fill="#CADC3C" d="M60.3,133.2c1.5,0.9,4.2-3,1.9-4.4c-1.4-0.8-1.6-1.1-2-1.8c-1-1.6,0.3-6,2.7-6.5c1.8-0.4,1.9,1.2,0.9,1.8
				c-2.3,1.4-2.5,3.7-0.9,4.9c0.9,0.6,1.5,1.1,1.9,2.5c0.6,2-1.1,5.2-4.3,6.2c0,0-1.8,0.4-2.1-0.3"/>
		</g>
	</g>
	<g display="inline">
		<g>
			<circle fill="#CADC3C" cx="40" cy="40" r="40"/>
		</g>
		<g>
			<g>
				<path fill="#FFFFFF" d="M36,35.5c-1.2-0.4-6.2-2-8.7-2.9c-1.3,3.3-7.9,20.9-5.6,23.9c2.5,3.3,11.6-0.6,14.3,0
					c2.6,0.6,2.3-1.3,2.3-1.3L36,35.5z"/>
				<path fill="#FFFFFF" d="M42.7,25.6C42,24.7,38,24.9,38,24.9s-1-2.2-1.6-2.5c-0.8-0.5-2.9-0.4-2.9-0.4s0.2-3.1-0.8-3.3
					c-1.8-0.4-4.2,9.2-5,12.5c2,0.8,5.9,2.3,8,2.7l0-0.2c0,0,0.1-1.6,1.1-1.9c0.7-0.3,4.2-1,5.2-1.9C42.8,28.9,43.3,26.5,42.7,25.6z
					"/>
			</g>
			<g>
				<path fill="#FFFFFF" d="M43.5,41.2c1.6-0.5,4-1.3,6-2.6c-0.1-1,0.3-2.2,0.4-2.9c0.2-1.1-0.1-1.8-0.7-3.4
					c-0.1-0.3-0.6-3.5-1.6-3.6c-1-0.1-2.2,3.1-2.2,3.1s-2.8,0-3.1,1.2c-0.4,1.5-1.9,2.3-2,2.5c-0.2,0.8,0.2,3.1,1.5,3.5
					C42.6,39.2,43.2,40.3,43.5,41.2z"/>
				<path fill="#FFFFFF" d="M50.2,40.1c-0.1-0.1-0.2-0.3-0.3-0.4c-1.1,0.6-4.3,2.3-6.1,2.8c0.7,3.5,0.3,12.2,0.3,12.6
					c0,0.6-0.3,0.9-0.1,1.3c0.4,0.7,1.2,0.7,2.2,0.6c0.9-0.2,8,1.8,12.4-0.1C64.1,53.7,55,42,50.2,40.1z"/>
			</g>
			<path fill="#FFFFFF" d="M21.5,55.5c-3.8-2.9-3.8-9.6-4.8-7.6c-0.9,1.9,0,6.4,1.7,8.4c1.5,1.8,4.7,1.7,4.9,0.6"/>
			<path fill="#FFFFFF" d="M60.3,53.2c1.5,0.9,4.2-3,1.9-4.4c-1.4-0.8-1.6-1.1-2-1.8c-1-1.6,0.3-6,2.7-6.5c1.8-0.4,1.9,1.2,0.9,1.8
				c-2.3,1.4-2.5,3.7-0.9,4.9c0.9,0.6,1.5,1.1,1.9,2.5c0.6,2-1.1,5.2-4.3,6.2c0,0-1.8,0.4-2.1-0.3"/>
		</g>
	</g>
</g>
<g id="Layer_8" display="none">
	<g display="inline">
		<g>
			<path fill="#CCEFFF" d="M40,83c20.4,0,37,16.6,37,37s-16.6,37-37,37S3,140.4,3,120S19.6,83,40,83 M40,80C17.9,80,0,97.9,0,120
				c0,22.1,17.9,40,40,40s40-17.9,40-40C80,97.9,62.1,80,40,80L40,80z"/>
		</g>
		<g>
			<g>
				<path fill="#00AFFF" d="M60.7,113.6c-0.2-0.3-0.5-0.4-0.9-0.4h-4.2c-1-2.7-2.4-5.4-3.9-6.4c-5.3-3.5-19.4-3.5-24.8,0
					c-1.5,1-2.9,3.7-3.9,6.4h-4.2c-0.3,0-0.6,0.2-0.9,0.4c-0.2,0.3-0.3,0.6-0.2,0.9l0.6,3c0.1,0.5,0.6,0.9,1.1,0.9h1.2
					c-1.2,1.4-1.8,3.1-1.8,4.9c0,2.2,0.8,4.1,2.3,5.5c0,0,0,0,0,0v4.2c0,0.9,0.7,1.7,1.7,1.7h3.9c0.9,0,1.7-0.7,1.7-1.7v-1.7h21.7
					v1.7c0,0.9,0.7,1.7,1.7,1.7h3.9c0.9,0,1.7-0.7,1.7-1.7v-4.1c1.6-1.5,2.4-3.5,2.4-5.5c0-1.8-0.6-3.6-1.9-5h1.3
					c0.5,0,1-0.4,1.1-0.9l0.6-3C60.9,114.2,60.9,113.8,60.7,113.6L60.7,113.6z M28.7,109.5c4.2-2.8,16.9-2.8,21.1,0
					c0.8,0.5,1.9,2.7,2.9,5.4H25.9C26.8,112.2,27.9,110.1,28.7,109.5L28.7,109.5z M23.8,123.7c0-1.8,1.5-3.3,3.3-3.3
					c1.8,0,3.3,1.5,3.3,3.3c0,1.8-1.5,3.3-3.3,3.3C25.2,127,23.8,125.5,23.8,123.7L23.8,123.7z M51.6,127c-1.8,0-3.3-1.5-3.3-3.3
					c0-1.8,1.5-3.3,3.3-3.3c1.8,0,3.3,1.5,3.3,3.3C54.8,125.5,53.4,127,51.6,127L51.6,127z M51.6,127"/>
			</g>
		</g>
	</g>
	<g display="inline">
		<g>
			<circle fill="#00AFFF" cx="40" cy="40" r="40"/>
		</g>
		<g>
			<g>
				<path fill="#FFFFFF" d="M61.4,33.6c-0.2-0.3-0.5-0.4-0.9-0.4h-4.2c-1-2.7-2.4-5.4-3.9-6.4c-5.3-3.5-19.4-3.5-24.8,0
					c-1.5,1-2.9,3.7-3.9,6.4h-4.2c-0.3,0-0.6,0.2-0.9,0.4c-0.2,0.3-0.3,0.6-0.2,0.9l0.6,3c0.1,0.5,0.6,0.9,1.1,0.9h1.2
					c-1.2,1.4-1.8,3.1-1.8,4.9c0,2.2,0.8,4.1,2.3,5.5c0,0,0,0,0,0v4.2c0,0.9,0.7,1.7,1.7,1.7h3.9c0.9,0,1.7-0.7,1.7-1.7v-1.7h21.7
					v1.7c0,0.9,0.7,1.7,1.7,1.7h3.9c0.9,0,1.7-0.7,1.7-1.7v-4.1c1.6-1.5,2.4-3.5,2.4-5.5c0-1.8-0.6-3.6-1.9-5h1.3
					c0.5,0,1-0.4,1.1-0.9l0.6-3C61.7,34.2,61.6,33.8,61.4,33.6L61.4,33.6z M29.5,29.5c4.2-2.8,16.9-2.8,21.1,0
					c0.8,0.5,1.9,2.7,2.9,5.4H26.6C27.6,32.2,28.6,30.1,29.5,29.5L29.5,29.5z M24.5,43.7c0-1.8,1.5-3.3,3.3-3.3
					c1.8,0,3.3,1.5,3.3,3.3c0,1.8-1.5,3.3-3.3,3.3C25.9,47,24.5,45.5,24.5,43.7L24.5,43.7z M52.3,47c-1.8,0-3.3-1.5-3.3-3.3
					c0-1.8,1.5-3.3,3.3-3.3c1.8,0,3.3,1.5,3.3,3.3C55.6,45.5,54.1,47,52.3,47L52.3,47z M52.3,47"/>
			</g>
		</g>
	</g>
</g>
<g id="Layer_9">
	<g>
		<g>
			<path fill="#CCEFFF" d="M40,83c20.4,0,37,16.6,37,37s-16.6,37-37,37S3,140.4,3,120S19.6,83,40,83 M40,80C17.9,80,0,97.9,0,120
				c0,22.1,17.9,40,40,40s40-17.9,40-40C80,97.9,62.1,80,40,80L40,80z"/>
		</g>
		<g>
			<g>
				<path fill="#00AFFF" d="M56.9,108.8c-0.3-3.3-0.9-5.8-1.7-6.8c-3.5-4.1-27.9-4.4-30.6,0c-0.7,1.1-1.2,3.6-1.5,6.8
					c-1,0.1-1.8,1-1.8,2v4c0,0.9,0.6,1.6,1.4,1.9c-0.2,6.3,0,12.9,0.2,16.2c0,2.5,1.7,2.1,1.7,2.1h1.6v2.7c0,1.1,1.1,2,2.5,2
					c1.4,0,2.5-0.9,2.5-2v-2.7h18.5v2.7c0,1.1,1.1,2,2.5,2c1.4,0,2.5-0.9,2.5-2v-2.7h0.5c0,0,2,0.3,2.1-0.9c0-3.3,0.2-10.5,0-17.4
					c0.8-0.3,1.5-1,1.5-2v-4C58.8,109.8,57.9,108.9,56.9,108.8L56.9,108.8z M30.5,102.6h18.7v2.8H30.5V102.6z M30.7,131.9
					c-1.5,0-2.7-1.2-2.7-2.7c0-1.5,1.2-2.7,2.7-2.7c1.5,0,2.7,1.2,2.7,2.7C33.4,130.7,32.2,131.9,30.7,131.9L30.7,131.9z
					 M49.1,131.9c-1.5,0-2.7-1.2-2.7-2.7c0-1.5,1.2-2.7,2.7-2.7c1.5,0,2.7,1.2,2.7,2.7C51.8,130.7,50.6,131.9,49.1,131.9L49.1,131.9
					z M52.5,120.3H27.2V107h25.3V120.3z M52.5,120.3"/>
			</g>
		</g>
	</g>
	<g>
		<g>
			<circle fill="#00AFFF" cx="40" cy="40" r="40"/>
		</g>
		<g>
			<g>
				<path fill="#FFFFFF" d="M56.9,28.8C56.5,25.6,56,23,55.2,22c-3.5-4.1-27.9-4.4-30.6,0c-0.7,1.1-1.2,3.6-1.5,6.8
					c-1,0.1-1.8,1-1.8,2v4c0,0.9,0.6,1.6,1.4,1.9c-0.2,6.3,0,12.9,0.2,16.2c0,2.5,1.7,2.1,1.7,2.1h1.6v2.7c0,1.1,1.1,2,2.5,2
					c1.4,0,2.5-0.9,2.5-2v-2.7h18.5v2.7c0,1.1,1.1,2,2.5,2c1.4,0,2.5-0.9,2.5-2v-2.7h0.5c0,0,2,0.3,2.1-0.9c0-3.3,0.2-10.5,0-17.4
					c0.8-0.3,1.5-1,1.5-2v-4C58.8,29.8,57.9,28.9,56.9,28.8L56.9,28.8z M30.5,22.6h18.7v2.8H30.5V22.6z M30.7,51.9
					c-1.5,0-2.7-1.2-2.7-2.7c0-1.5,1.2-2.7,2.7-2.7c1.5,0,2.7,1.2,2.7,2.7C33.4,50.7,32.2,51.9,30.7,51.9L30.7,51.9z M49.1,51.9
					c-1.5,0-2.7-1.2-2.7-2.7c0-1.5,1.2-2.7,2.7-2.7c1.5,0,2.7,1.2,2.7,2.7C51.8,50.7,50.6,51.9,49.1,51.9L49.1,51.9z M52.5,40.3
					H27.2V27h25.3V40.3z M52.5,40.3"/>
			</g>
		</g>
	</g>
</g>
<g id="Layer_10" display="none">
	<g display="inline">
		<g>
			<circle fill="#00AFFF" cx="40" cy="40" r="40"/>
		</g>
		<g>
			<path fill="#FFFFFF" d="M46.5,20.9c0,2.3-1.9,4.2-4.2,4.2c-2.3,0-4.2-1.9-4.2-4.2c0-2.3,1.9-4.2,4.2-4.2
				C44.6,16.7,46.5,18.6,46.5,20.9L46.5,20.9z"/>
			<path fill="#FFFFFF" d="M52.2,39.1c-0.8-0.4-6.3-3.1-6.3-3.1S44,31.8,43,29.6c-0.9-2.1-1.6-2.7-3-2.7h-2.1
				c-1.1,0-1.5,0.4-2.1,0.8l-5.6,4.8c-0.5,0.3-0.8,0.7-1,1.3l-1.2,8.1c-0.2,1.3,0.5,1.8,1.3,2c0.6,0.1,1.6-0.2,1.8-1.1
				c0.1-0.7,1.3-7.4,1.3-7.4l3.7-2.8c-0.6,2.8-1.2,5.9-1.4,6.9c-0.3,1.8,0.5,3.1,1.2,4.2c0.6,1,8.9,14,10,15.4
				c1.1,1.4,2.1,2.1,3.6,1.3c1.3-0.7,1.1-2.3,0.4-3.5C49,55.6,40.7,42,40.7,42l1.4-6.1c0,0,1,1.4,1.5,2.2c0.2,0.4,0.5,0.5,1.1,0.9
				c0.8,0.4,4.5,2.1,5.7,2.6c1,0.4,2.3,0.6,2.8-0.3C53.6,40.5,53,39.4,52.2,39.1L52.2,39.1z"/>
			<path fill="#FFFFFF" d="M33.7,44.6l-1.7,6c0,0-3.5,5.1-4.5,6.5c-0.7,1.1-1.3,2.4,0,3.3c1.4,1.1,2.6-0.3,3.3-1.2
				c0.7-0.8,3.4-4.6,4.2-5.6c0.5-0.7,0.8-1.2,1-1.8c0.1-0.4,0.7-1.9,1.1-2.9L33.7,44.6z"/>
		</g>
	</g>
	<g display="inline">
		<g>
			<path fill="#CCEFFF" d="M40,83c20.4,0,37,16.6,37,37s-16.6,37-37,37S3,140.4,3,120S19.6,83,40,83 M40,80C17.9,80,0,97.9,0,120
				c0,22.1,17.9,40,40,40s40-17.9,40-40C80,97.9,62.1,80,40,80L40,80z"/>
		</g>
		<g>
			<path fill="#00AFFF" d="M46.5,100.9c0,2.3-1.9,4.2-4.2,4.2c-2.3,0-4.2-1.9-4.2-4.2c0-2.3,1.9-4.2,4.2-4.2
				C44.6,96.7,46.5,98.6,46.5,100.9L46.5,100.9z"/>
			<path fill="#00AFFF" d="M52.2,119.1c-0.8-0.4-6.3-3.1-6.3-3.1s-1.9-4.1-2.9-6.4c-0.9-2.1-1.6-2.7-3-2.7h-2.1
				c-1.1,0-1.5,0.4-2.1,0.8l-5.6,4.8c-0.5,0.3-0.8,0.7-1,1.3l-1.2,8.1c-0.2,1.3,0.5,1.8,1.3,2c0.6,0.1,1.6-0.2,1.8-1.1
				c0.1-0.7,1.3-7.4,1.3-7.4l3.7-2.8c-0.6,2.8-1.2,5.9-1.4,6.9c-0.3,1.8,0.5,3.1,1.2,4.2c0.6,1,8.9,14,10,15.4
				c1.1,1.4,2.1,2.1,3.6,1.3c1.3-0.7,1.1-2.3,0.4-3.5c-0.7-1.2-9.1-14.8-9.1-14.8l1.4-6.1c0,0,1,1.4,1.5,2.2
				c0.2,0.4,0.5,0.5,1.1,0.9c0.8,0.4,4.5,2.1,5.7,2.6c1,0.4,2.3,0.6,2.8-0.3C53.6,120.5,53,119.4,52.2,119.1L52.2,119.1z"/>
			<path fill="#00AFFF" d="M33.7,124.6l-1.7,6c0,0-3.5,5.1-4.5,6.5c-0.7,1.1-1.3,2.4,0,3.3c1.4,1.1,2.6-0.3,3.3-1.2
				c0.7-0.8,3.4-4.6,4.2-5.6c0.5-0.7,0.8-1.2,1-1.8c0.1-0.4,0.7-1.9,1.1-2.9L33.7,124.6z"/>
		</g>
	</g>
</g>
<g id="Layer_11" display="none">
	<g display="inline">
		<g>
			<circle fill="#006E96" cx="40" cy="40" r="40"/>
		</g>
		<g>
			<path fill="#FFFFFF" d="M38.5,49.1c0-7.5,5.5-13.8,12.6-15v-7.3c0-2.1-1.7-3.8-3.8-3.8h-4.7v-0.9c0-2.6-2.1-4.7-4.7-4.7h-7.5
				c-2.6,0-4.7,2.1-4.7,4.7V23H21c-2.1,0-3.8,1.7-3.8,3.8v20.7c0,2.1,1.7,3.8,3.8,3.8h17.6C38.6,50.5,38.5,49.9,38.5,49.1z
				 M27.6,22.1c0-1.6,1.3-2.8,2.8-2.8H38c1.6,0,2.8,1.3,2.8,2.8V23H27.6V22.1z M36.1,42.8h-3.8V39h-3.8v-3.8h3.8v-3.8h3.8v3.8h3.8
				V39h-3.8V42.8z"/>
			<path fill="#FFFFFF" d="M53.8,37c-6.7,0-12.1,5.4-12.1,12.1s5.4,12.1,12.1,12.1c6.7,0,12.1-5.4,12.1-12.1S60.4,37,53.8,37z
				 M53.8,58.4c-5.1,0-9.2-4.1-9.2-9.2s4.1-9.2,9.2-9.2c5.1,0,9.2,4.1,9.2,9.2S58.8,58.4,53.8,58.4z"/>
			<path fill="#FFFFFF" d="M51.5,52.8c-0.1-0.2-0.2-0.4-0.5-0.4h-1c-0.3,0-0.5,0.2-0.5,0.5l0,0.1c0.3,1.7,1.7,3.1,3.4,3.4v-2
				C52.3,54.1,51.7,53.5,51.5,52.8z"/>
			<path fill="#FFFFFF" d="M54.8,48.1v-3c0.2,0.2,0.4,0.4,0.5,0.7c0.1,0.2,0.2,0.3,0.4,0.3h1c0.3,0,0.5-0.2,0.5-0.5l0-0.1
				c-0.3-1.3-1.3-2.2-2.4-2.6v-1c0-0.3-0.2-0.5-0.5-0.5c-0.3,0-0.5,0.2-0.5,0.5v0.1v13.8c0,0.3,0.2,0.5,0.5,0.5c0,0,0.1,0,0.1,0l0,0
				c2-0.3,3.6-2.1,3.6-4.2C58,50.2,56.7,48.6,54.8,48.1z M54.8,54.2v-4.1c0.7,0.4,1.2,1.1,1.2,2C56.1,53.1,55.6,53.9,54.8,54.2z"/>
			<path fill="#FFFFFF" d="M50.2,46.3c0,1.7,1.2,3.1,2.8,3.5v-2.1c-0.5-0.3-0.8-0.8-0.8-1.4c0-0.6,0.3-1.1,0.8-1.4v-2.1
				C51.4,43.2,50.2,44.6,50.2,46.3z"/>
		</g>
	</g>
	<g display="inline">
		<g>
			<path fill="#B2D3DF" d="M40,83c20.4,0,37,16.6,37,37s-16.6,37-37,37S3,140.4,3,120S19.6,83,40,83 M40,80C17.9,80,0,97.9,0,120
				c0,22.1,17.9,40,40,40s40-17.9,40-40C80,97.9,62.1,80,40,80L40,80z"/>
		</g>
		<g>
			<path fill="#006E96" d="M38.5,129.1c0-7.5,5.5-13.8,12.6-15v-7.3c0-2.1-1.7-3.8-3.8-3.8h-4.7v-0.9c0-2.6-2.1-4.7-4.7-4.7h-7.5
				c-2.6,0-4.7,2.1-4.7,4.7v0.9H21c-2.1,0-3.8,1.7-3.8,3.8v20.7c0,2.1,1.7,3.8,3.8,3.8h17.6C38.6,130.5,38.5,129.9,38.5,129.1z
				 M27.6,102.1c0-1.6,1.3-2.8,2.8-2.8H38c1.6,0,2.8,1.3,2.8,2.8v0.9H27.6V102.1z M36.1,122.8h-3.8V119h-3.8v-3.8h3.8v-3.8h3.8v3.8
				h3.8v3.8h-3.8V122.8z"/>
			<path fill="#006E96" d="M53.8,117c-6.7,0-12.1,5.4-12.1,12.1c0,6.7,5.4,12.1,12.1,12.1c6.7,0,12.1-5.4,12.1-12.1
				C65.8,122.5,60.4,117,53.8,117z M53.8,138.4c-5.1,0-9.2-4.1-9.2-9.2c0-5.1,4.1-9.2,9.2-9.2c5.1,0,9.2,4.1,9.2,9.2
				C63,134.2,58.8,138.4,53.8,138.4z"/>
			<path fill="#006E96" d="M51.5,132.8c-0.1-0.2-0.2-0.4-0.5-0.4h-1c-0.3,0-0.5,0.2-0.5,0.5l0,0.1c0.3,1.7,1.7,3.1,3.4,3.4v-2
				C52.3,134.1,51.7,133.5,51.5,132.8z"/>
			<path fill="#006E96" d="M54.8,128.1v-3c0.2,0.2,0.4,0.4,0.5,0.7c0.1,0.2,0.2,0.3,0.4,0.3h1c0.3,0,0.5-0.2,0.5-0.5l0-0.1
				c-0.3-1.3-1.3-2.2-2.4-2.6v-1c0-0.3-0.2-0.5-0.5-0.5c-0.3,0-0.5,0.2-0.5,0.5v0.1v13.8c0,0.3,0.2,0.5,0.5,0.5c0,0,0.1,0,0.1,0l0,0
				c2-0.3,3.6-2.1,3.6-4.2C58,130.2,56.7,128.6,54.8,128.1z M54.8,134.2v-4.1c0.7,0.4,1.2,1.1,1.2,2
				C56.1,133.1,55.6,133.9,54.8,134.2z"/>
			<path fill="#006E96" d="M50.2,126.3c0,1.7,1.2,3.1,2.8,3.5v-2.1c-0.5-0.3-0.8-0.8-0.8-1.4c0-0.6,0.3-1.1,0.8-1.4v-2.1
				C51.4,123.2,50.2,124.6,50.2,126.3z"/>
		</g>
	</g>
</g>
<g id="Layer_12" display="none">
	<g display="inline">
		<g>
			<path fill="#B2D3DF" d="M40,83c20.4,0,37,16.6,37,37s-16.6,37-37,37S3,140.4,3,120S19.6,83,40,83 M40,80C17.9,80,0,97.9,0,120
				c0,22.1,17.9,40,40,40s40-17.9,40-40C80,97.9,62.1,80,40,80L40,80z"/>
		</g>
		<g>
			<path fill="#006E96" d="M51.5,107.6l-10.9-8.3c-0.1,0-0.1-0.1-0.2-0.1c0.1,0,0.1,0,0.1,0.1c-0.5-0.4-1.1-0.5-1.7-0.5
				c-0.6,0-1.2,0.2-1.7,0.5c0,0-0.1,0-0.1,0.1L16.6,115c-0.6,0.5-0.8,1.4-0.3,2.1c0.5,0.6,1.4,0.8,2.1,0.3l19.9-15.1c0,0,0,0,0,0
				c0.2-0.1,0.4-0.2,0.6-0.2c0.2,0,0.4,0.1,0.6,0.2c0,0,0,0,0,0l7.6,5.8c1.1-0.2,2.3-0.4,3.4-0.4C50.8,107.6,51.2,107.6,51.5,107.6z
				"/>
			<path fill="#006E96" d="M29,102.7c0-0.9-0.8-1.7-1.7-1.7H24c-0.9,0-1.7,0.8-1.7,1.7v5.7l6.6-5V102.7z"/>
			<path fill="#006E96" d="M34.1,124C34.1,124,34.1,124,34.1,124c0-6.6,3.9-12.2,9.4-14.9l-4-3c0,0,0,0,0,0
				c-0.2-0.1-0.4-0.2-0.6-0.2c-0.2,0-0.4,0.1-0.6,0.2c0,0,0,0,0,0l-15.6,11.8c-0.3,0.2-0.5,0.6-0.5,1v14c0,2.4,2,4.4,4.4,4.4h7.6
				V124L34.1,124z"/>
			<path fill="#006E96" d="M50.5,110.5c-7.4,0-13.5,6.1-13.5,13.5s6.1,13.5,13.5,13.5c7.4,0,13.5-6,13.5-13.5S58,110.5,50.5,110.5z
				 M50.5,134.3c-5.7,0-10.3-4.6-10.3-10.3s4.6-10.3,10.3-10.3c5.7,0,10.3,4.6,10.3,10.3S56.2,134.3,50.5,134.3z"/>
			<path fill="#006E96" d="M48,128c-0.1-0.2-0.3-0.4-0.5-0.4h-1.1c-0.3,0-0.5,0.2-0.5,0.5l0,0.1c0.4,1.9,1.9,3.4,3.8,3.8v-2.2
				C48.9,129.5,48.3,128.9,48,128z"/>
			<path fill="#006E96" d="M51.7,122.8v-3.3c0.2,0.2,0.4,0.5,0.5,0.8c0.1,0.2,0.3,0.4,0.5,0.4h1.2c0.3,0,0.5-0.2,0.5-0.5l0-0.1
				c-0.4-1.4-1.4-2.5-2.7-2.9V116c0-0.3-0.3-0.6-0.6-0.6c-0.3,0-0.6,0.3-0.6,0.6v0.2v15.4c0,0.3,0.3,0.6,0.6,0.6c0,0,0.1,0,0.1,0
				l0,0c2.3-0.3,4-2.3,4-4.7C55.3,125.2,53.8,123.4,51.7,122.8z M51.7,129.7v-4.5c0.8,0.4,1.4,1.3,1.4,2.3
				C53.1,128.4,52.5,129.3,51.7,129.7z"/>
			<path fill="#006E96" d="M46.5,120.9c0,1.9,1.3,3.5,3.1,3.9v-2.3c-0.6-0.3-0.9-0.9-0.9-1.6c0-0.7,0.4-1.3,0.9-1.6V117
				C47.9,117.4,46.5,119,46.5,120.9z"/>
		</g>
	</g>
	<g display="inline">
		<g>
			<circle fill="#006E96" cx="40" cy="40" r="40"/>
		</g>
		<g>
			<path fill="#FFFFFF" d="M51.5,27.6l-10.9-8.3c-0.1,0-0.1-0.1-0.2-0.1c0.1,0,0.1,0,0.1,0.1c-0.5-0.4-1.1-0.5-1.7-0.5
				c-0.6,0-1.2,0.2-1.7,0.5c0,0-0.1,0-0.1,0.1L16.6,35c-0.6,0.5-0.8,1.4-0.3,2.1c0.5,0.6,1.4,0.8,2.1,0.3l19.9-15.1c0,0,0,0,0,0
				c0.2-0.1,0.4-0.2,0.6-0.2c0.2,0,0.4,0.1,0.6,0.2c0,0,0,0,0,0l7.6,5.8c1.1-0.2,2.3-0.4,3.4-0.4C50.8,27.6,51.2,27.6,51.5,27.6z"/>
			<path fill="#FFFFFF" d="M29,22.7c0-0.9-0.8-1.7-1.7-1.7H24c-0.9,0-1.7,0.8-1.7,1.7v5.7l6.6-5V22.7z"/>
			<path fill="#FFFFFF" d="M34.1,44C34.1,44,34.1,44,34.1,44c0-6.6,3.9-12.2,9.4-14.9l-4-3c0,0,0,0,0,0c-0.2-0.1-0.4-0.2-0.6-0.2
				c-0.2,0-0.4,0.1-0.6,0.2c0,0,0,0,0,0L22.7,37.9c-0.3,0.2-0.5,0.6-0.5,1v14c0,2.4,2,4.4,4.4,4.4h7.6V44L34.1,44z"/>
			<path fill="#FFFFFF" d="M50.5,30.5C43.1,30.5,37,36.6,37,44s6.1,13.5,13.5,13.5C58,57.5,64,51.4,64,44S58,30.5,50.5,30.5z
				 M50.5,54.3c-5.7,0-10.3-4.6-10.3-10.3s4.6-10.3,10.3-10.3c5.7,0,10.3,4.6,10.3,10.3S56.2,54.3,50.5,54.3z"/>
			<path fill="#FFFFFF" d="M48,48c-0.1-0.2-0.3-0.4-0.5-0.4h-1.1c-0.3,0-0.5,0.2-0.5,0.5l0,0.1c0.4,1.9,1.9,3.4,3.8,3.8v-2.2
				C48.9,49.5,48.3,48.9,48,48z"/>
			<path fill="#FFFFFF" d="M51.7,42.8v-3.3c0.2,0.2,0.4,0.5,0.5,0.8c0.1,0.2,0.3,0.4,0.5,0.4h1.2c0.3,0,0.5-0.2,0.5-0.5l0-0.1
				c-0.4-1.4-1.4-2.5-2.7-2.9V36c0-0.3-0.3-0.6-0.6-0.6c-0.3,0-0.6,0.3-0.6,0.6v0.2v15.4c0,0.3,0.3,0.6,0.6,0.6c0,0,0.1,0,0.1,0l0,0
				c2.3-0.3,4-2.3,4-4.7C55.3,45.2,53.8,43.4,51.7,42.8z M51.7,49.7v-4.5c0.8,0.4,1.4,1.3,1.4,2.3C53.1,48.4,52.5,49.3,51.7,49.7z"
				/>
			<path fill="#FFFFFF" d="M46.5,40.9c0,1.9,1.3,3.5,3.1,3.9v-2.3c-0.6-0.3-0.9-0.9-0.9-1.6c0-0.7,0.4-1.3,0.9-1.6V37
				C47.9,37.4,46.5,39,46.5,40.9z"/>
		</g>
	</g>
</g>
<g id="Layer_13" display="none">
	<g display="inline">
		<g>
			<circle fill="#006E96" cx="40" cy="40" r="40"/>
		</g>
		<g>
			<path fill="#FFFFFF" d="M59.5,27.6c-0.2-1-1.3-5.4-5.2-5.4c-1.1,0-2.3,0.4-3.6,1.1c-0.7-1.6-2.4-4.6-5.1-4.6
				c-1.7,0-3.5,1.3-5.2,3.8c-0.2,0.3-0.2,0.6,0,0.9c0.2,0.3,0.5,0.4,0.8,0.4c0,0,0.2,0,0.4,0c1.1,0,2.8,0.2,3.8,1.6
				c-0.3,0-0.6-0.1-0.9-0.1c-2,0-5.4,1.1-6.2,8.2c0,0.3,0.1,0.7,0.4,0.8c0.3,0.2,0.7,0.1,0.9-0.1c0.8-0.7,3.2-2.6,4.9-2.6
				c0.5,0,1.1,0.1,1.4,1.1c-1.1,1.6-5.8,8.8-8.2,16.4c-1.3-5-3.9-8.4-4.8-9.6c0.3-0.4,0.6-0.6,1.2-0.6c1.5,0,3.7,1.4,4.5,1.9
				c0.1,0.1,0.4,0.2,0.5,0.2c0.4,0,0.8-0.4,0.8-0.8c0-0.1,0-0.2,0-0.3c-0.7-5.3-3.9-6.1-5.7-6.1c-0.1,0-0.2,0-0.3,0
				c0.9-0.7,2.3-0.8,3-0.8c0.2,0,0.4,0,0.4,0c0,0,0,0,0.1,0c0,0,0,0,0,0c0.4,0,0.8-0.4,0.8-0.8c0-0.3-0.1-0.5-0.3-0.6
				c-1.6-1.8-3.1-2.8-4.7-2.8c-2.4,0-3.9,2.2-4.6,3.4c-1.2-0.6-2.3-0.8-3.2-0.8c-3.1,0-4.5,2.8-4.8,4.3c-0.1,0.4,0.1,0.7,0.4,0.9
				c0.3,0.2,0.7,0.1,1-0.1c0.6-0.6,1.2-0.9,1.9-0.9c0.4,0,0.9,0.1,1.2,0.3c-1.2,0.8-2,1.9-2.2,3.1c-0.7,3.2,1.9,6.4,2,6.5
				c0.2,0.2,0.4,0.3,0.6,0.3c0,0,0,0,0,0c0.4,0,0.8-0.4,0.8-0.8c0-0.1,0-0.2,0-0.3c-0.2-1.3,0-2.3,0.6-3c0.6-0.7,1.6-0.9,2-0.9
				c1.5,1.3,3.2,5.4,4.5,11c-4.8,0.8-7.8,2.8-7.8,5.1c0,0.4,0.4,0.8,0.8,0.8h22.9c0,0,0,0,0,0c0.5,0,0.8-0.4,0.8-0.8
				c0-0.1,0-0.1,0-0.2c-0.1-2.1-2.7-3.9-6.8-4.7c2.7-9.4,5.4-16,7.2-17.9c0.4,0,1.3,0.2,2,1c0.9,1,1.2,2.6,0.9,4.8
				c0,0.4,0.2,0.7,0.5,0.9c0.3,0.1,0.7,0,1-0.3c0.1-0.2,3.1-4.6,2.1-8.7c-0.4-1.6-1.3-3-2.7-4c0.4-0.3,1-0.6,1.7-0.6
				c0.7,0,1.4,0.4,2.1,1.2c0.2,0.2,0.4,0.3,0.6,0.3c0,0,0,0,0,0c0.5,0,0.8-0.4,0.8-0.8C59.6,27.8,59.5,27.7,59.5,27.6z"/>
		</g>
	</g>
	<g display="inline">
		<g>
			<path fill="#B2D3DF" d="M40,83c20.4,0,37,16.6,37,37s-16.6,37-37,37S3,140.4,3,120S19.6,83,40,83 M40,80C17.9,80,0,97.9,0,120
				c0,22.1,17.9,40,40,40s40-17.9,40-40C80,97.9,62.1,80,40,80L40,80z"/>
		</g>
		<g>
			<path fill="#006E96" d="M59.5,107.6c-0.2-1-1.3-5.4-5.2-5.4c-1.1,0-2.3,0.4-3.6,1.1c-0.7-1.6-2.4-4.6-5.1-4.6
				c-1.7,0-3.5,1.3-5.2,3.8c-0.2,0.3-0.2,0.6,0,0.9c0.2,0.3,0.5,0.4,0.8,0.4c0,0,0.2,0,0.4,0c1.1,0,2.8,0.2,3.8,1.6
				c-0.3,0-0.6-0.1-0.9-0.1c-2,0-5.4,1.1-6.2,8.2c0,0.3,0.1,0.7,0.4,0.8c0.3,0.2,0.7,0.1,0.9-0.1c0.8-0.7,3.2-2.6,4.9-2.6
				c0.5,0,1.1,0.1,1.4,1.1c-1.1,1.6-5.8,8.8-8.2,16.4c-1.3-5-3.9-8.4-4.8-9.6c0.3-0.4,0.6-0.6,1.2-0.6c1.5,0,3.7,1.4,4.5,1.9
				c0.1,0.1,0.4,0.2,0.5,0.2c0.4,0,0.8-0.4,0.8-0.8c0-0.1,0-0.2,0-0.3c-0.7-5.3-3.9-6.1-5.7-6.1c-0.1,0-0.2,0-0.3,0
				c0.9-0.7,2.3-0.8,3-0.8c0.2,0,0.4,0,0.4,0c0,0,0,0,0.1,0c0,0,0,0,0,0c0.4,0,0.8-0.4,0.8-0.8c0-0.3-0.1-0.5-0.3-0.6
				c-1.6-1.8-3.1-2.8-4.7-2.8c-2.4,0-3.9,2.2-4.6,3.4c-1.2-0.6-2.3-0.8-3.2-0.8c-3.1,0-4.5,2.8-4.8,4.3c-0.1,0.4,0.1,0.7,0.4,0.9
				c0.3,0.2,0.7,0.1,1-0.1c0.6-0.6,1.2-0.9,1.9-0.9c0.4,0,0.9,0.1,1.2,0.3c-1.2,0.8-2,1.9-2.2,3.1c-0.7,3.2,1.9,6.4,2,6.5
				c0.2,0.2,0.4,0.3,0.6,0.3c0,0,0,0,0,0c0.4,0,0.8-0.4,0.8-0.8c0-0.1,0-0.2,0-0.3c-0.2-1.3,0-2.3,0.6-3c0.6-0.7,1.6-0.9,2-0.9
				c1.5,1.3,3.2,5.4,4.5,11c-4.8,0.8-7.8,2.8-7.8,5.1c0,0.4,0.4,0.8,0.8,0.8h22.9c0,0,0,0,0,0c0.5,0,0.8-0.4,0.8-0.8
				c0-0.1,0-0.1,0-0.2c-0.1-2.1-2.7-3.9-6.8-4.7c2.7-9.4,5.4-16,7.2-17.9c0.4,0,1.3,0.2,2,1c0.9,1,1.2,2.6,0.9,4.8
				c0,0.4,0.2,0.7,0.5,0.9c0.3,0.1,0.7,0,1-0.3c0.1-0.2,3.1-4.6,2.1-8.7c-0.4-1.6-1.3-3-2.7-4c0.4-0.3,1-0.6,1.7-0.6
				c0.7,0,1.4,0.4,2.1,1.2c0.2,0.2,0.4,0.3,0.6,0.3c0,0,0,0,0,0c0.5,0,0.8-0.4,0.8-0.8C59.6,107.8,59.5,107.7,59.5,107.6z"/>
		</g>
	</g>
</g>
<g id="Layer_14" display="none">
	<g display="inline">
		<g>
			<circle fill="#006E96" cx="40" cy="40" r="40"/>
		</g>
		<g>
			<path fill="#FFFFFF" d="M43.2,42.4v4.8c0.9-0.5,1.5-1.4,1.5-2.4C44.6,43.8,44,42.9,43.2,42.4z"/>
			<path fill="#FFFFFF" d="M60.2,38.1c-0.3-3.6-1.9-7.1-4.6-9.7c-1.4-1.3-2.9-2.3-4.6-3.1c-0.1-0.1-0.3-0.1-0.5-0.2
				c-0.1-0.1-0.3-0.1-0.4-0.2c0,0,0,0,0,0c-0.9-0.4-2.5-0.8-5-1.3c-3.3-0.6-5.8-0.4-7.2-0.2c0,0,0,0,0,0c-0.5,0.1-1.1,0.2-1.6,0.3
				c-3.1-1.8-6.7-1.9-8.9-1.7c-1,0.1-1.5,1.1-1.1,2l1.8,3.8c-2.1,1.8-3.7,4-4.6,6.4l-2.3,0c-0.8,0-1.4,0.6-1.4,1.4l0,5.1
				c0,0.5,0.3,1,0.7,1.2l2.9,1.6c1.2,3.4,3.7,6.3,7.1,8.4l0,4.5c0,0.9,0.7,1.6,1.6,1.6l4.1,0c0.6,0,1.2-0.4,1.5-0.9l1.1-2.4
				c0.9,0.1,1.8,0.2,2.7,0.2c1.5,0,2.9-0.1,4.2-0.4l0,2c0,0.9,0.7,1.6,1.6,1.6l4.1,0c0.6,0,1.1-0.3,1.4-0.8
				c2.2-4.1,4.6-8.2,6.4-12.5C60,42.6,60.4,40.3,60.2,38.1z M30.9,36.7c-1.1,0-2.1-0.9-2-2.1c0-1.1,0.9-2.1,2.1-2
				c1.1,0,2.1,0.9,2,2.1C32.9,35.8,32,36.7,30.9,36.7z M41,49.7c-2-0.4-3.6-2-4-4l0-0.1c0-0.3,0.2-0.6,0.6-0.6h1.2
				c0.3,0,0.5,0.2,0.5,0.4c0.2,0.9,0.9,1.6,1.7,1.9V49.7z M41,36.2c-0.6,0.3-1,1-1,1.7c0,0.7,0.4,1.3,1,1.7V42
				c-1.9-0.4-3.3-2.1-3.3-4.1c0-2,1.4-3.7,3.3-4.1V36.2z M42.7,49.8L42.7,49.8c0,0-0.1,0-0.1,0c-0.4,0-0.6-0.3-0.6-0.6V32.9v-0.2
				c0-0.3,0.3-0.6,0.6-0.6c0.3,0,0.6,0.3,0.6,0.6v1.2c1.4,0.4,2.5,1.6,2.8,3.1l0,0.1c0,0.3-0.2,0.6-0.6,0.6h-1.2
				c-0.2,0-0.4-0.1-0.5-0.4c-0.1-0.3-0.3-0.6-0.6-0.8V40c2.1,0.6,3.7,2.5,3.7,4.8C46.9,47.3,45.1,49.4,42.7,49.8z M49.8,29.2
				c-0.3,0.5-0.9,0.6-1.3,0.4c-3.6-1.8-7.7-1.5-9.5-1.2c-0.5,0.1-1-0.3-1.1-0.8v0c-0.1-0.6,0.3-1.2,0.9-1.3c0.2,0,0.4-0.1,0.7-0.1
				c0,0,0,0,0.1,0c5-0.1,7.3,0.5,8.3,0.8c0.6,0.2,1.1,0.4,1.7,0.7C49.9,28,50.1,28.6,49.8,29.2z"/>
		</g>
	</g>
	<g display="inline">
		<g>
			<path fill="#B2D3DF" d="M40,83c20.4,0,37,16.6,37,37s-16.6,37-37,37S3,140.4,3,120S19.6,83,40,83 M40,80C17.9,80,0,97.9,0,120
				c0,22.1,17.9,40,40,40s40-17.9,40-40C80,97.9,62.1,80,40,80L40,80z"/>
		</g>
		<g>
			<path fill="#006E96" d="M43.2,122.4v4.8c0.9-0.5,1.5-1.4,1.5-2.4C44.6,123.8,44,122.9,43.2,122.4z"/>
			<path fill="#006E96" d="M60.2,118.1c-0.3-3.6-1.9-7.1-4.6-9.7c-1.4-1.3-2.9-2.3-4.6-3.1c-0.1-0.1-0.3-0.1-0.5-0.2
				c-0.1-0.1-0.3-0.1-0.4-0.2c0,0,0,0,0,0c-0.9-0.4-2.5-0.8-5-1.3c-3.3-0.6-5.8-0.4-7.2-0.2c0,0,0,0,0,0c-0.5,0.1-1.1,0.2-1.6,0.3
				c-3.1-1.8-6.7-1.9-8.9-1.7c-1,0.1-1.5,1.1-1.1,2l1.8,3.8c-2.1,1.8-3.7,4-4.6,6.4l-2.3,0c-0.8,0-1.4,0.6-1.4,1.4l0,5.1
				c0,0.5,0.3,1,0.7,1.2l2.9,1.6c1.2,3.4,3.7,6.3,7.1,8.4l0,4.5c0,0.9,0.7,1.6,1.6,1.6l4.1,0c0.6,0,1.2-0.4,1.5-0.9l1.1-2.4
				c0.9,0.1,1.8,0.2,2.7,0.2c1.5,0,2.9-0.1,4.2-0.4l0,2c0,0.9,0.7,1.6,1.6,1.6l4.1,0c0.6,0,1.1-0.3,1.4-0.8
				c2.2-4.1,4.6-8.2,6.4-12.5C60,122.6,60.4,120.3,60.2,118.1z M30.9,116.7c-1.1,0-2.1-0.9-2-2.1c0-1.1,0.9-2.1,2.1-2
				c1.1,0,2.1,0.9,2,2.1C32.9,115.8,32,116.7,30.9,116.7z M41,129.7c-2-0.4-3.6-2-4-4l0-0.1c0-0.3,0.2-0.6,0.6-0.6h1.2
				c0.3,0,0.5,0.2,0.5,0.4c0.2,0.9,0.9,1.6,1.7,1.9V129.7z M41,116.2c-0.6,0.3-1,1-1,1.7c0,0.7,0.4,1.3,1,1.7v2.4
				c-1.9-0.4-3.3-2.1-3.3-4.1c0-2,1.4-3.7,3.3-4.1V116.2z M42.7,129.8L42.7,129.8c0,0-0.1,0-0.1,0c-0.4,0-0.6-0.3-0.6-0.6v-16.2
				v-0.2c0-0.3,0.3-0.6,0.6-0.6c0.3,0,0.6,0.3,0.6,0.6v1.2c1.4,0.4,2.5,1.6,2.8,3.1l0,0.1c0,0.3-0.2,0.6-0.6,0.6h-1.2
				c-0.2,0-0.4-0.1-0.5-0.4c-0.1-0.3-0.3-0.6-0.6-0.8v3.5c2.1,0.6,3.7,2.5,3.7,4.8C46.9,127.3,45.1,129.4,42.7,129.8z M49.8,109.2
				c-0.3,0.5-0.9,0.6-1.3,0.4c-3.6-1.8-7.7-1.5-9.5-1.2c-0.5,0.1-1-0.3-1.1-0.8v0c-0.1-0.6,0.3-1.2,0.9-1.3c0.2,0,0.4-0.1,0.7-0.1
				c0,0,0,0,0.1,0c5-0.1,7.3,0.5,8.3,0.8c0.6,0.2,1.1,0.4,1.7,0.7C49.9,108,50.1,108.6,49.8,109.2z"/>
		</g>
	</g>
</g>
<g id="Layer_15" display="none">
	<g display="inline">
		<g>
			<path fill="#B2D3DF" d="M40,83c20.4,0,37,16.6,37,37s-16.6,37-37,37S3,140.4,3,120S19.6,83,40,83 M40,80C17.9,80,0,97.9,0,120
				c0,22.1,17.9,40,40,40s40-17.9,40-40C80,97.9,62.1,80,40,80L40,80z"/>
		</g>
		<g>
			<path fill="#006E96" d="M54,111.4c-7.7,0-13.9,6.3-13.9,13.9s6.3,13.9,13.9,13.9c7.7,0,13.9-6.2,13.9-13.9S61.6,111.4,54,111.4z
				 M54,136c-5.9,0-10.7-4.8-10.7-10.7c0-5.9,4.8-10.7,10.7-10.7c5.9,0,10.7,4.8,10.7,10.7C64.6,131.2,59.8,136,54,136z"/>
			<path fill="#006E96" d="M51.4,129.5c-0.1-0.2-0.3-0.4-0.5-0.4h-1.2c-0.3,0-0.5,0.2-0.5,0.5l0,0.1c0.4,2,2,3.5,3.9,3.9v-2.3
				C52.3,131,51.6,130.4,51.4,129.5z"/>
			<path fill="#006E96" d="M55.2,124.1v-3.4c0.2,0.2,0.4,0.5,0.6,0.8c0.1,0.2,0.3,0.4,0.5,0.4h1.2c0.3,0,0.5-0.2,0.5-0.5l0-0.1
				c-0.4-1.5-1.5-2.6-2.8-3V117c0-0.3-0.3-0.6-0.6-0.6c-0.3,0-0.6,0.3-0.6,0.6v0.2v15.9c0,0.3,0.3,0.6,0.6,0.6c0,0,0.1,0,0.1,0l0,0
				c2.4-0.3,4.2-2.4,4.2-4.8C58.9,126.6,57.3,124.7,55.2,124.1z M55.2,131.2v-4.7c0.8,0.4,1.4,1.3,1.4,2.3
				C56.6,129.9,56.1,130.8,55.2,131.2z"/>
			<path fill="#006E96" d="M49.9,122.1c0,2,1.4,3.6,3.2,4v-2.4c-0.6-0.3-1-0.9-1-1.6c0-0.7,0.4-1.3,1-1.6v-2.4
				C51.2,118.5,49.9,120.1,49.9,122.1z"/>
		</g>
		<path fill="#006E96" d="M40.1,135c-2.1,0.9-4.5,1.3-6.9,1.3c-10.2,0-18.5-8.3-18.5-18.5c0-10.2,8.3-18.4,18.5-18.4
			c7,0,13.1,3.9,16.2,9.6c0.9-0.2,1.8-0.4,2.7-0.5c-3.5-7-10.6-11.8-18.9-11.8c-11.7,0-21.1,9.5-21.1,21.1
			c0,11.7,9.5,21.1,21.1,21.1c3.1,0,6-0.7,8.7-1.9C41.3,136.5,40.7,135.8,40.1,135z"/>
		<path fill="#006E96" d="M47.2,109.9c-2.8-4.8-8-8.1-13.9-8.1c-8.9,0-16.1,7.2-16.1,16.1c0,8.9,7.2,16.1,16.1,16.1
			c2,0,3.9-0.4,5.7-1c-1.2-2.3-1.8-4.9-1.8-7.6C37.1,118.4,41.2,112.5,47.2,109.9z M34.6,119.1c0,0.2,0,0.3-0.1,0.5
			c-0.1,0.1-0.1,0.3-0.2,0.4c0,0,0,0,0,0.1l-4.9,4.9c-0.5,0.5-1.4,0.5-1.9,0c-0.5-0.5-0.5-1.4,0-1.9l4.6-4.6v-11.8
			c0-0.7,0.6-1.3,1.3-1.3c0.7,0,1.3,0.6,1.3,1.3V119.1z"/>
	</g>
	<g display="inline">
		<g>
			<circle fill="#006E96" cx="40" cy="40" r="40"/>
		</g>
		<g>
			<path fill="#FFFFFF" d="M54,31.4c-7.7,0-13.9,6.3-13.9,13.9S46.3,59.3,54,59.3c7.7,0,13.9-6.2,13.9-13.9S61.6,31.4,54,31.4z
				 M54,56c-5.9,0-10.7-4.8-10.7-10.7S48.1,34.7,54,34.7c5.9,0,10.7,4.8,10.7,10.7S59.8,56,54,56z"/>
			<path fill="#FFFFFF" d="M51.4,49.5c-0.1-0.2-0.3-0.4-0.5-0.4h-1.2c-0.3,0-0.5,0.2-0.5,0.5l0,0.1c0.4,2,2,3.5,3.9,3.9v-2.3
				C52.3,51,51.6,50.4,51.4,49.5z"/>
			<path fill="#FFFFFF" d="M55.2,44.1v-3.4c0.2,0.2,0.4,0.5,0.6,0.8c0.1,0.2,0.3,0.4,0.5,0.4h1.2c0.3,0,0.5-0.2,0.5-0.5l0-0.1
				c-0.4-1.5-1.5-2.6-2.8-3V37c0-0.3-0.3-0.6-0.6-0.6c-0.3,0-0.6,0.3-0.6,0.6v0.2v15.9c0,0.3,0.3,0.6,0.6,0.6c0,0,0.1,0,0.1,0l0,0
				c2.4-0.3,4.2-2.4,4.2-4.8C58.9,46.6,57.3,44.7,55.2,44.1z M55.2,51.2v-4.7c0.8,0.4,1.4,1.3,1.4,2.3
				C56.6,49.9,56.1,50.8,55.2,51.2z"/>
			<path fill="#FFFFFF" d="M49.9,42.1c0,2,1.4,3.6,3.2,4v-2.4c-0.6-0.3-1-0.9-1-1.6c0-0.7,0.4-1.3,1-1.6v-2.4
				C51.2,38.5,49.9,40.1,49.9,42.1z"/>
		</g>
		<path fill="#FFFFFF" d="M40.1,55c-2.1,0.9-4.5,1.3-6.9,1.3c-10.2,0-18.5-8.3-18.5-18.5c0-10.2,8.3-18.4,18.5-18.4
			c7,0,13.1,3.9,16.2,9.6c0.9-0.2,1.8-0.4,2.7-0.5c-3.5-7-10.6-11.8-18.9-11.8c-11.7,0-21.1,9.5-21.1,21.1
			c0,11.7,9.5,21.1,21.1,21.1c3.1,0,6-0.7,8.7-1.9C41.3,56.5,40.7,55.8,40.1,55z"/>
		<path fill="#FFFFFF" d="M47.2,29.9c-2.8-4.8-8-8.1-13.9-8.1c-8.9,0-16.1,7.2-16.1,16.1c0,8.9,7.2,16.1,16.1,16.1
			c2,0,3.9-0.4,5.7-1c-1.2-2.3-1.8-4.9-1.8-7.6C37.1,38.4,41.2,32.5,47.2,29.9z M34.6,39.1c0,0.2,0,0.3-0.1,0.5
			c-0.1,0.1-0.1,0.3-0.2,0.4c0,0,0,0,0,0.1l-4.9,4.9c-0.5,0.5-1.4,0.5-1.9,0c-0.5-0.5-0.5-1.4,0-1.9l4.6-4.6V26.7
			c0-0.7,0.6-1.3,1.3-1.3c0.7,0,1.3,0.6,1.3,1.3V39.1z"/>
	</g>
</g>
<g id="Layer_16" display="none">
	<g display="inline">
		<g>
			<path fill="#F6DCEE" d="M40,83c20.4,0,37,16.6,37,37s-16.6,37-37,37S3,140.4,3,120S19.6,83,40,83 M40,80C17.9,80,0,97.9,0,120
				c0,22.1,17.9,40,40,40s40-17.9,40-40C80,97.9,62.1,80,40,80L40,80z"/>
		</g>
		<g>
			<path fill="#E18CC8" d="M59.2,103.8l-28.5,0c-2.1,0-3.8,1.7-3.8,3.7l0,1.3l36,0l0-1.3C63,105.4,61.3,103.8,59.2,103.8z"/>
			<path fill="#E18CC8" d="M57.1,127.7h2.2c2.1,0,3.8-1.6,3.8-3.7v-8.8l-5.9,0L57.1,127.7z"/>
			<path fill="#E18CC8" d="M51.3,110.6H20.9c-2.2,0-3.9,1.7-3.9,3.8v18c0,2.1,1.8,3.8,3.9,3.8h30.4c2.2,0,3.9-1.7,3.9-3.8v-18
				C55.3,112.3,53.5,110.6,51.3,110.6z M52.3,118.4c0,0.6-0.5,1.2-1.2,1.2h-30c-0.7,0-1.2-0.5-1.2-1.2v-2.9c0-0.6,0.5-1.2,1.2-1.2
				h30c0.7,0,1.2,0.5,1.2,1.2V118.4z"/>
		</g>
	</g>
	<g display="inline">
		<g>
			<circle fill="#E18CC8" cx="40" cy="40" r="40"/>
		</g>
		<g>
			<path fill="#FFFFFF" d="M59.2,23.8l-28.5,0c-2.1,0-3.8,1.7-3.8,3.7l0,1.3l36,0l0-1.3C63,25.4,61.3,23.8,59.2,23.8z"/>
			<path fill="#FFFFFF" d="M57.1,47.7h2.2c2.1,0,3.8-1.6,3.8-3.7v-8.8l-5.9,0L57.1,47.7z"/>
			<path fill="#FFFFFF" d="M51.3,30.6H20.9c-2.2,0-3.9,1.7-3.9,3.8v18c0,2.1,1.8,3.8,3.9,3.8h30.4c2.2,0,3.9-1.7,3.9-3.8v-18
				C55.3,32.3,53.5,30.6,51.3,30.6z M52.3,38.4c0,0.6-0.5,1.2-1.2,1.2h-30c-0.7,0-1.2-0.5-1.2-1.2v-2.9c0-0.6,0.5-1.2,1.2-1.2h30
				c0.7,0,1.2,0.5,1.2,1.2V38.4z"/>
		</g>
	</g>
</g>
<g id="Layer_17" display="none">
	<g display="inline">
		<g>
			<circle fill="#E18CC8" cx="40" cy="40" r="40"/>
		</g>
		<path fill="#FFFFFF" d="M58.5,22.1H21.5c-1.3,0-2.4,1.1-2.4,2.4v24.4c0,1.4,1.1,2.4,2.4,2.4h37.1c1.3,0,2.4-1.1,2.4-2.4V24.5
			C61,23.2,59.9,22.1,58.5,22.1z M57.8,46.4c0,0.1-0.1,0.2-0.2,0.2H22.5c-0.1,0-0.2-0.1-0.2-0.2V24.5c0-0.1,0.1-0.2,0.2-0.2h35.1
			c0.1,0,0.2,0.1,0.2,0.2V46.4z"/>
		<path fill="#FFFFFF" d="M54.9,56.4h-9.7c0-0.1,0-0.2,0-0.2v-1.3c0-0.9-0.7-1.7-1.6-1.7h-7.3c-0.9,0-1.6,0.7-1.6,1.7v1.3
			c0,0.1,0,0.2,0,0.2h-9.4c-0.3,0-1-0.1-1.4,0.5l-0.9,0.9c0,0,0.9,0,1.5,0h0.5h9.4c0,0,0,0,0.1,0h10.9c0,0,0,0,0.1,0h9.4h0.5
			c0.6,0,1.6,0,1.6,0l-1-1C55.7,56.6,55.2,56.4,54.9,56.4z"/>
	</g>
	<g display="inline">
		<g>
			<path fill="#F6DCEE" d="M40,83c20.4,0,37,16.6,37,37s-16.6,37-37,37S3,140.4,3,120S19.6,83,40,83 M40,80C17.9,80,0,97.9,0,120
				c0,22.1,17.9,40,40,40s40-17.9,40-40C80,97.9,62.1,80,40,80L40,80z"/>
		</g>
		<path fill="#E18CC8" d="M58.5,102.1H21.5c-1.3,0-2.4,1.1-2.4,2.4v24.4c0,1.4,1.1,2.4,2.4,2.4h37.1c1.3,0,2.4-1.1,2.4-2.4v-24.4
			C61,103.2,59.9,102.1,58.5,102.1z M57.8,126.4c0,0.1-0.1,0.2-0.2,0.2H22.5c-0.1,0-0.2-0.1-0.2-0.2v-21.9c0-0.1,0.1-0.2,0.2-0.2
			h35.1c0.1,0,0.2,0.1,0.2,0.2V126.4z"/>
		<path fill="#E18CC8" d="M54.9,136.4h-9.7c0-0.1,0-0.2,0-0.2v-1.3c0-0.9-0.7-1.7-1.6-1.7h-7.3c-0.9,0-1.6,0.7-1.6,1.7v1.3
			c0,0.1,0,0.2,0,0.2h-9.4c-0.3,0-1-0.1-1.4,0.5l-0.9,0.9c0,0,0.9,0,1.5,0h0.5h9.4c0,0,0,0,0.1,0h10.9c0,0,0,0,0.1,0h9.4h0.5
			c0.6,0,1.6,0,1.6,0l-1-1C55.7,136.6,55.2,136.4,54.9,136.4z"/>
	</g>
</g>
<g id="Layer_18" display="none">
	<g display="inline">
		<g>
			<path fill="#F6DCEE" d="M40,83c20.4,0,37,16.6,37,37s-16.6,37-37,37S3,140.4,3,120S19.6,83,40,83 M40,80C17.9,80,0,97.9,0,120
				c0,22.1,17.9,40,40,40s40-17.9,40-40C80,97.9,62.1,80,40,80L40,80z"/>
		</g>
		<g>
			<g>
				<path fill="#E18CC8" d="M60.7,113.6c-0.2-0.3-0.5-0.4-0.9-0.4h-4.2c-1-2.7-2.4-5.4-3.9-6.4c-5.3-3.5-19.4-3.5-24.8,0
					c-1.5,1-2.9,3.7-3.9,6.4h-4.2c-0.3,0-0.6,0.2-0.9,0.4c-0.2,0.3-0.3,0.6-0.2,0.9l0.6,3c0.1,0.5,0.6,0.9,1.1,0.9h1.2
					c-1.2,1.4-1.8,3.1-1.8,4.9c0,2.2,0.8,4.1,2.3,5.5c0,0,0,0,0,0v4.2c0,0.9,0.7,1.7,1.7,1.7h3.9c0.9,0,1.7-0.7,1.7-1.7v-1.7h21.7
					v1.7c0,0.9,0.7,1.7,1.7,1.7h3.9c0.9,0,1.7-0.7,1.7-1.7v-4.1c1.6-1.5,2.4-3.5,2.4-5.5c0-1.8-0.6-3.6-1.9-5h1.3
					c0.5,0,1-0.4,1.1-0.9l0.6-3C60.9,114.2,60.9,113.8,60.7,113.6L60.7,113.6z M28.7,109.5c4.2-2.8,16.9-2.8,21.1,0
					c0.8,0.5,1.9,2.7,2.9,5.4H25.9C26.8,112.2,27.9,110.1,28.7,109.5L28.7,109.5z M23.8,123.7c0-1.8,1.5-3.3,3.3-3.3
					c1.8,0,3.3,1.5,3.3,3.3c0,1.8-1.5,3.3-3.3,3.3C25.2,127,23.8,125.5,23.8,123.7L23.8,123.7z M51.6,127c-1.8,0-3.3-1.5-3.3-3.3
					c0-1.8,1.5-3.3,3.3-3.3c1.8,0,3.3,1.5,3.3,3.3C54.8,125.5,53.4,127,51.6,127L51.6,127z M51.6,127"/>
			</g>
		</g>
	</g>
	<g display="inline">
		<g>
			<circle fill="#E18CC8" cx="40" cy="40" r="40"/>
		</g>
		<g>
			<g>
				<path fill="#FFFFFF" d="M61.4,33.6c-0.2-0.3-0.5-0.4-0.9-0.4h-4.2c-1-2.7-2.4-5.4-3.9-6.4c-5.3-3.5-19.4-3.5-24.8,0
					c-1.5,1-2.9,3.7-3.9,6.4h-4.2c-0.3,0-0.6,0.2-0.9,0.4c-0.2,0.3-0.3,0.6-0.2,0.9l0.6,3c0.1,0.5,0.6,0.9,1.1,0.9h1.2
					c-1.2,1.4-1.8,3.1-1.8,4.9c0,2.2,0.8,4.1,2.3,5.5c0,0,0,0,0,0v4.2c0,0.9,0.7,1.7,1.7,1.7h3.9c0.9,0,1.7-0.7,1.7-1.7v-1.7h21.7
					v1.7c0,0.9,0.7,1.7,1.7,1.7h3.9c0.9,0,1.7-0.7,1.7-1.7v-4.1c1.6-1.5,2.4-3.5,2.4-5.5c0-1.8-0.6-3.6-1.9-5h1.3
					c0.5,0,1-0.4,1.1-0.9l0.6-3C61.7,34.2,61.6,33.8,61.4,33.6L61.4,33.6z M29.5,29.5c4.2-2.8,16.9-2.8,21.1,0
					c0.8,0.5,1.9,2.7,2.9,5.4H26.6C27.6,32.2,28.6,30.1,29.5,29.5L29.5,29.5z M24.5,43.7c0-1.8,1.5-3.3,3.3-3.3
					c1.8,0,3.3,1.5,3.3,3.3c0,1.8-1.5,3.3-3.3,3.3C25.9,47,24.5,45.5,24.5,43.7L24.5,43.7z M52.3,47c-1.8,0-3.3-1.5-3.3-3.3
					c0-1.8,1.5-3.3,3.3-3.3c1.8,0,3.3,1.5,3.3,3.3C55.6,45.5,54.1,47,52.3,47L52.3,47z M52.3,47"/>
			</g>
		</g>
	</g>
</g>
<g id="Layer_19" display="none">
	<g display="inline">
		<g>
			<circle fill="#E18CC8" cx="40" cy="40" r="40"/>
		</g>
		<g>
			<path fill="#FFFFFF" d="M34.4,19.9h11.3c1.5,0,1.8,1.2,0.8,2.7l-2.3,4H36l-2.5-4C32.5,21.2,32.9,19.9,34.4,19.9z"/>
			<path fill="#FFFFFF" d="M35.6,28.3c0,0-10.6,10.1-10.5,17.2c0.1,7.1,3.8,13.1,15.1,13.1s14.6-8.1,14.6-12.5
				c0-8.3-10.5-17.7-10.5-17.7L35.6,28.3z"/>
		</g>
	</g>
	<g display="inline">
		<g>
			<path fill="#F6DCEE" d="M40,83c20.4,0,37,16.6,37,37s-16.6,37-37,37S3,140.4,3,120S19.6,83,40,83 M40,80C17.9,80,0,97.9,0,120
				c0,22.1,17.9,40,40,40s40-17.9,40-40C80,97.9,62.1,80,40,80L40,80z"/>
		</g>
		<path fill="#E18CC8" d="M34.4,99.9h11.3c1.5,0,1.8,1.2,0.8,2.7l-2.3,4H36l-2.5-4C32.5,101.2,32.9,99.9,34.4,99.9z"/>
		<path fill="#E18CC8" d="M35.6,108.3c0,0-10.6,10.1-10.5,17.2c0.1,7.1,3.8,13.1,15.1,13.1s14.6-8.1,14.6-12.5
			c0-8.3-10.5-17.7-10.5-17.7L35.6,108.3z"/>
	</g>
</g>
<g id="Layer_20" display="none">
	<g display="inline">
		<g>
			<path fill="#F6DCEE" d="M40,83c20.4,0,37,16.6,37,37s-16.6,37-37,37S3,140.4,3,120S19.6,83,40,83 M40,80C17.9,80,0,97.9,0,120
				c0,22.1,17.9,40,40,40s40-17.9,40-40C80,97.9,62.1,80,40,80L40,80z"/>
		</g>
		<g>
			<path fill="#E18CC8" d="M56.6,130c0.2-0.2,0.6-0.6,0.7-1c0.1-1-0.9-1.5-1.7-1.5c-1.5-0.1-2.9,0.8-3.7,1.6
				c-1.2,1.1-2.5,1.5-4.2,1.7c-2.1,0.2-4,0.4-5.9-0.2c-0.3-0.1-0.9-0.4-1.5-0.6c-0.3-0.1-0.6-0.2-0.8-0.3c-0.2-0.1-0.3-0.1-0.5-0.2
				c0.6-0.1,1.7-0.2,2.6-0.1c1.2,0.1,4.8,0.1,6.2,0.4c0.6,0.1,1.1,0,1.5-0.3c0.4-0.3,0.7-0.6,0.9-1c0.4-0.8,0.6-1.2,0-2
				c-0.5-0.7-1.3-1-2.2-1.2c-0.9-0.3-1.9-0.4-2.8-0.6c-1.8-0.3-3.2-0.2-4.6-0.5c-0.5-0.1-1.3-0.6-2.5-1.1c-1.2-0.6-2.7-1.1-4.7-1.3
				c-0.5,0-1-0.1-1.5-0.1c-2.8,0-5.5,0.8-6.6,1.1c-1.6,0.4-5.8,0.1-6.1,0.1c-0.3,0.1-0.5,0.4-0.5,0.7v7.7c0,0.5,0.3,0.9,0.8,0.9
				c0.5,0,4.4,0,5.9,0c0.7,0.1,1.2,0.2,1.8,0.4c0.4,0.2,0.9,0.4,1.4,0.6c1.1,0.5,2.5,1.2,3.9,1.9c1.4,0.7,2.8,1.3,4,1.9
				c1.2,0.5,2,0.9,2.8,1c1.2,0.1,3.2-0.2,5.2-0.6c2-0.3,4.1-0.7,4.7-0.7c1.6-0.1,3-1.3,3.9-1.9c1.2-0.7,2.5-1.6,3.6-2.6
				c0.5-0.5,0.7-1,0.7-1.5C57.2,130,56.7,130.2,56.6,130z"/>
			<path fill="#E18CC8" d="M46,115c0-1-0.6-1.8-1.3-2.2v4.4C45.4,116.8,46,116,46,115z"/>
			<path fill="#E18CC8" d="M34.1,120.1c2,0.2,3.5,0.8,4.7,1.3c1.2,0.6,2,1,2.5,1.1c1.4,0.3,2.7,0.2,4.6,0.5c0.9,0.1,1.9,0.3,2.8,0.6
				c0.5,0.2,1,0.3,1.5,0.5c3.8-2.3,6.3-6.4,6.3-11.1c0-7.1-5.8-12.9-12.9-12.9c-7.1,0-12.9,5.8-12.9,12.9c0,2.6,0.7,5,2,7
				C33.1,120,33.6,120.1,34.1,120.1z M43.5,104v-0.1c0-0.3,0.3-0.6,0.6-0.6c0.3,0,0.6,0.3,0.6,0.6v1.1c1.3,0.4,2.3,1.5,2.6,2.8
				l0,0.1c0,0.3-0.2,0.5-0.5,0.5h-1.1c-0.2,0-0.4-0.1-0.5-0.3c-0.1-0.3-0.3-0.6-0.5-0.8v3.3c2,0.5,3.5,2.3,3.5,4.5
				c0,2.3-1.7,4.2-3.9,4.6l0,0c0,0-0.1,0-0.1,0c-0.3,0-0.6-0.3-0.6-0.6V104z M42.6,104.9v2.2c-0.5,0.3-0.9,0.9-0.9,1.5
				c0,0.7,0.4,1.2,0.9,1.5v2.3c-1.7-0.4-3-1.9-3-3.8C39.6,106.8,40.9,105.3,42.6,104.9z M39.4,115.3h1.1c0.2,0,0.4,0.2,0.5,0.4
				c0.2,0.8,0.8,1.4,1.6,1.7v2.2c-1.8-0.4-3.3-1.8-3.7-3.7l0-0.1C38.9,115.5,39.1,115.3,39.4,115.3z"/>
		</g>
	</g>
	<g display="inline">
		<g>
			<circle fill="#E18CC8" cx="40" cy="40" r="40"/>
		</g>
		<g>
			<path fill="#FFFFFF" d="M56.6,50c0.2-0.2,0.6-0.6,0.7-1c0.1-1-0.9-1.5-1.7-1.5c-1.5-0.1-2.9,0.8-3.7,1.6
				c-1.2,1.1-2.5,1.5-4.2,1.7c-2.1,0.2-4,0.4-5.9-0.2c-0.3-0.1-0.9-0.4-1.5-0.6c-0.3-0.1-0.6-0.2-0.8-0.3c-0.2-0.1-0.3-0.1-0.5-0.2
				c0.6-0.1,1.7-0.2,2.6-0.1c1.2,0.1,4.8,0.1,6.2,0.4c0.6,0.1,1.1,0,1.5-0.3c0.4-0.3,0.7-0.6,0.9-1c0.4-0.8,0.6-1.2,0-2
				c-0.5-0.7-1.3-1-2.2-1.2c-0.9-0.3-1.9-0.4-2.8-0.6c-1.8-0.3-3.2-0.2-4.6-0.5c-0.5-0.1-1.3-0.6-2.5-1.1c-1.2-0.6-2.7-1.1-4.7-1.3
				c-0.5,0-1-0.1-1.5-0.1c-2.8,0-5.5,0.8-6.6,1.1c-1.6,0.4-5.8,0.1-6.1,0.1c-0.3,0.1-0.5,0.4-0.5,0.7v7.7c0,0.5,0.3,0.9,0.8,0.9
				c0.5,0,4.4,0,5.9,0c0.7,0.1,1.2,0.2,1.8,0.4c0.4,0.2,0.9,0.4,1.4,0.6c1.1,0.5,2.5,1.2,3.9,1.9c1.4,0.7,2.8,1.3,4,1.9
				c1.2,0.5,2,0.9,2.8,1c1.2,0.1,3.2-0.2,5.2-0.6c2-0.3,4.1-0.7,4.7-0.7c1.6-0.1,3-1.3,3.9-1.9c1.2-0.7,2.5-1.6,3.6-2.6
				c0.5-0.5,0.7-1,0.7-1.5C57.2,50,56.7,50.2,56.6,50z"/>
			<path fill="#FFFFFF" d="M46,35c0-1-0.6-1.8-1.3-2.2v4.4C45.4,36.8,46,36,46,35z"/>
			<path fill="#FFFFFF" d="M34.1,40.1c2,0.2,3.5,0.8,4.7,1.3c1.2,0.6,2,1,2.5,1.1c1.4,0.3,2.7,0.2,4.6,0.5c0.9,0.1,1.9,0.3,2.8,0.6
				c0.5,0.2,1,0.3,1.5,0.5c3.8-2.3,6.3-6.4,6.3-11.1c0-7.1-5.8-12.9-12.9-12.9c-7.1,0-12.9,5.8-12.9,12.9c0,2.6,0.7,5,2,7
				C33.1,40,33.6,40.1,34.1,40.1z M43.5,24v-0.1c0-0.3,0.3-0.6,0.6-0.6c0.3,0,0.6,0.3,0.6,0.6v1.1c1.3,0.4,2.3,1.5,2.6,2.8l0,0.1
				c0,0.3-0.2,0.5-0.5,0.5h-1.1c-0.2,0-0.4-0.1-0.5-0.3c-0.1-0.3-0.3-0.6-0.5-0.8v3.3c2,0.5,3.5,2.3,3.5,4.5c0,2.3-1.7,4.2-3.9,4.6
				l0,0c0,0-0.1,0-0.1,0c-0.3,0-0.6-0.3-0.6-0.6V24z M42.6,24.9v2.2c-0.5,0.3-0.9,0.9-0.9,1.5c0,0.7,0.4,1.2,0.9,1.5v2.3
				c-1.7-0.4-3-1.9-3-3.8C39.6,26.8,40.9,25.3,42.6,24.9z M39.4,35.3h1.1c0.2,0,0.4,0.2,0.5,0.4c0.2,0.8,0.8,1.4,1.6,1.7v2.2
				c-1.8-0.4-3.3-1.8-3.7-3.7l0-0.1C38.9,35.5,39.1,35.3,39.4,35.3z"/>
		</g>
	</g>
</g>
<g id="Layer_21" display="none">
	<g display="inline">
		<g>
			<path fill="#F6DCEE" d="M40,83c20.4,0,37,16.6,37,37s-16.6,37-37,37S3,140.4,3,120S19.6,83,40,83 M40,80C17.9,80,0,97.9,0,120
				c0,22.1,17.9,40,40,40s40-17.9,40-40C80,97.9,62.1,80,40,80L40,80z"/>
		</g>
		<g>
			<path fill="#E18CC8" d="M37,113.2c-1.9,0-3.1,1.5-3.1,3.3v0c0,1.8,1.3,3.3,3.2,3.3c1.9,0,3.1-1.5,3.1-3.3v0
				C40.1,114.7,38.8,113.2,37,113.2z"/>
			<path fill="#E18CC8" d="M57.2,124.8v-16.4c0-0.9-0.8-1.7-1.7-1.7H24.6c-0.9,0-1.7,0.8-1.7,1.7v16.4c0,0.9,0.8,1.7,1.7,1.7h30.9
				C56.4,126.5,57.2,125.7,57.2,124.8z M30,121.2h-1.6v-9.3H30V121.2z M41.9,116.5c0,2.6-2,4.8-4.9,4.8c-2.9,0-4.9-2.2-4.9-4.8v0
				c0-2.6,2-4.8,4.9-4.8C39.9,111.7,41.9,113.9,41.9,116.5L41.9,116.5z M51.7,117.2c0,2.8-1.6,4.2-4,4.2c-2.4,0-4-1.4-4-4.1v-5.4
				h1.6v5.3c0,1.7,0.9,2.7,2.4,2.7c1.5,0,2.3-0.9,2.3-2.6v-5.4h1.6V117.2z"/>
			<path fill="#E18CC8" d="M54.7,101.9H25.3c0,0,0,0,0,0c0,0,0,0,0,0h0h0h-0.1c0,0,0,0,0,0c-3.8,0-6.9,3.1-6.9,6.9v15.5
				c0,3.8,3,6.8,6.7,6.9c0,0,0.1,0,0.1,0h15.4c0.7,0,1.2-0.5,1.2-1.2c0-0.7-0.6-1.2-1.2-1.2H25.3c-2.5,0-4.4-2-4.4-4.4v-15.5
				c0-2.5,2-4.4,4.4-4.4h29.5c2.5,0,4.4,2,4.4,4.4v15.5c0,2.4-2,4.4-4.4,4.4h-5.9c-0.7,0-1.2,0.5-1.2,1.2v3.9c0,2.5-2,4.4-4.4,4.4
				l-11.5,0c-0.7,0-1.2,0.6-1.2,1.2c0,0.7,0.6,1.2,1.2,1.2l11.5,0c3.8,0,6.9-3.1,6.9-6.9v-2.7h4.6c3.8,0,6.9-3.1,6.9-6.9v-15.5
				C61.6,105,58.5,101.9,54.7,101.9z"/>
		</g>
	</g>
	<g display="inline">
		<g>
			<circle fill="#E18CC8" cx="40" cy="40" r="40"/>
		</g>
		<g>
			<path fill="#FFFFFF" d="M37,33.2c-1.9,0-3.1,1.5-3.1,3.3v0c0,1.8,1.3,3.3,3.2,3.3c1.9,0,3.1-1.5,3.1-3.3v0
				C40.1,34.7,38.8,33.2,37,33.2z"/>
			<path fill="#FFFFFF" d="M57.2,44.8V28.3c0-0.9-0.8-1.7-1.7-1.7H24.6c-0.9,0-1.7,0.8-1.7,1.7v16.4c0,0.9,0.8,1.7,1.7,1.7h30.9
				C56.4,46.5,57.2,45.7,57.2,44.8z M30,41.2h-1.6v-9.3H30V41.2z M41.9,36.5c0,2.6-2,4.8-4.9,4.8c-2.9,0-4.9-2.2-4.9-4.8v0
				c0-2.6,2-4.8,4.9-4.8C39.9,31.7,41.9,33.9,41.9,36.5L41.9,36.5z M51.7,37.2c0,2.8-1.6,4.2-4,4.2c-2.4,0-4-1.4-4-4.1v-5.4h1.6v5.3
				c0,1.7,0.9,2.7,2.4,2.7c1.5,0,2.3-0.9,2.3-2.6v-5.4h1.6V37.2z"/>
			<path fill="#FFFFFF" d="M54.7,21.9H25.3c0,0,0,0,0,0c0,0,0,0,0,0h0h0h-0.1c0,0,0,0,0,0c-3.8,0-6.9,3.1-6.9,6.9v15.5
				c0,3.8,3,6.8,6.7,6.9c0,0,0.1,0,0.1,0h15.4c0.7,0,1.2-0.5,1.2-1.2c0-0.7-0.6-1.2-1.2-1.2H25.3c-2.5,0-4.4-2-4.4-4.4V28.9
				c0-2.5,2-4.4,4.4-4.4h29.5c2.5,0,4.4,2,4.4,4.4v15.5c0,2.4-2,4.4-4.4,4.4h-5.9c-0.7,0-1.2,0.5-1.2,1.2v3.9c0,2.5-2,4.4-4.4,4.4
				l-11.5,0c-0.7,0-1.2,0.6-1.2,1.2c0,0.7,0.6,1.2,1.2,1.2l11.5,0c3.8,0,6.9-3.1,6.9-6.9v-2.7h4.6c3.8,0,6.9-3.1,6.9-6.9V28.9
				C61.6,25,58.5,21.9,54.7,21.9z"/>
		</g>
	</g>
</g>
<g id="Layer_22" display="none">
	<g display="inline">
		<g>
			<circle fill="#E18CC8" cx="40" cy="40" r="40"/>
		</g>
		<g>
			<path fill="#FFFFFF" d="M61.7,46.1c0.2-0.2,0.7-0.7,0.8-1c0.1-1.1-1-1.6-2-1.7c-1.8-0.1-3.4,0.9-4.3,1.7
				c-1.4,1.2-2.9,1.6-4.9,1.8c-2.4,0.3-4.7,0.4-6.9-0.2c-0.3-0.1-1.1-0.4-1.8-0.7c-0.3-0.1-0.7-0.3-1-0.4c-0.2-0.1-0.4-0.1-0.6-0.2
				c0.7-0.1,2-0.3,3.1-0.1c1.4,0.1,5.5,0.2,7.3,0.4c0.7,0.1,1.3,0,1.8-0.3c0.5-0.3,0.8-0.7,1.1-1.1c0.5-0.9,0.7-1.3,0-2.2
				c-0.6-0.8-1.5-1-2.6-1.3c-1-0.3-2.2-0.5-3.2-0.6c-2.1-0.3-3.7-0.2-5.3-0.5c-0.6-0.1-1.6-0.6-2.9-1.2c-1.4-0.6-3.1-1.2-5.5-1.4
				c-0.6,0-1.2-0.1-1.8-0.1c-3.2,0-6.4,0.8-7.7,1.1c-1.9,0.4-6.8,0.1-7.1,0.2c-0.4,0.1-0.6,0.4-0.6,0.8v8.3c0,0.6,0.4,0.9,0.9,1
				c0.6,0,5.2,0,6.9,0c0.8,0.1,1.4,0.2,2.1,0.4c0.5,0.2,1,0.4,1.7,0.7c1.3,0.5,2.9,1.3,4.5,2c1.6,0.7,3.3,1.4,4.6,2
				c1.4,0.6,2.4,1,3.3,1c1.4,0.1,3.7-0.3,6.1-0.6c2.4-0.3,4.8-0.7,5.4-0.7c1.9-0.1,3.5-1.4,4.5-2c1.3-0.8,2.9-1.7,4.2-2.8
				c0.6-0.5,0.8-1.1,0.8-1.6C62.4,46.2,61.9,46.3,61.7,46.1z"/>
			<path fill="#FFFFFF" d="M52.1,39.8h6.2c0.7,0,1.2-0.5,1.2-1.1c0-0.6-0.6-1.1-1.2-1.1h-6.2c-0.7,0-1.2,0.5-1.2,1.1
				C50.9,39.3,51.5,39.8,52.1,39.8z"/>
			<path fill="#FFFFFF" d="M52.1,36.6h6.2c0.7,0,1.2-0.5,1.2-1.1c0-0.6-0.6-1.1-1.2-1.1h-6.2c-0.7,0-1.2,0.5-1.2,1.1
				C50.9,36.1,51.5,36.6,52.1,36.6z"/>
			<path fill="#FFFFFF" d="M52.1,33.3h6.2c0.7,0,1.2-0.5,1.2-1.1c0-0.6-0.6-1.1-1.2-1.1h-6.2c-0.7,0-1.2,0.5-1.2,1.1
				C50.9,32.8,51.5,33.3,52.1,33.3z"/>
			<path fill="#FFFFFF" d="M41.2,37.6h6.2c0.7,0,1.2-0.5,1.2-1.1c0-0.6-0.6-1.1-1.2-1.1h-6.2c-0.7,0-1.2,0.5-1.2,1.1
				S40.6,37.6,41.2,37.6z"/>
			<path fill="#FFFFFF" d="M41.2,34.4h6.2c0.7,0,1.2-0.5,1.2-1.1c0-0.6-0.6-1.1-1.2-1.1h-6.2c-0.7,0-1.2,0.5-1.2,1.1
				C40,33.9,40.6,34.4,41.2,34.4z"/>
			<path fill="#FFFFFF" d="M52.1,30h6.2c0.7,0,1.2-0.5,1.2-1.1c0-0.6-0.6-1.1-1.2-1.1h-6.2c-0.7,0-1.2,0.5-1.2,1.1
				C50.9,29.5,51.5,30,52.1,30z"/>
		</g>
	</g>
	<g display="inline">
		<g>
			<path fill="#F6DCEE" d="M40,83c20.4,0,37,16.6,37,37s-16.6,37-37,37S3,140.4,3,120S19.6,83,40,83 M40,80C17.9,80,0,97.9,0,120
				c0,22.1,17.9,40,40,40s40-17.9,40-40C80,97.9,62.1,80,40,80L40,80z"/>
		</g>
		<g>
			<path fill="#E18CC8" d="M61.7,126.1c0.2-0.2,0.7-0.7,0.8-1c0.1-1.1-1-1.6-2-1.7c-1.8-0.1-3.4,0.9-4.3,1.7
				c-1.4,1.2-2.9,1.6-4.9,1.8c-2.4,0.3-4.7,0.4-6.9-0.2c-0.3-0.1-1.1-0.4-1.8-0.7c-0.3-0.1-0.7-0.3-1-0.4c-0.2-0.1-0.4-0.1-0.6-0.2
				c0.7-0.1,2-0.3,3.1-0.1c1.4,0.1,5.5,0.2,7.3,0.4c0.7,0.1,1.3,0,1.8-0.3c0.5-0.3,0.8-0.7,1.1-1.1c0.5-0.9,0.7-1.3,0-2.2
				c-0.6-0.8-1.5-1-2.6-1.3c-1-0.3-2.2-0.5-3.2-0.6c-2.1-0.3-3.7-0.2-5.3-0.5c-0.6-0.1-1.6-0.6-2.9-1.2c-1.4-0.6-3.1-1.2-5.5-1.4
				c-0.6,0-1.2-0.1-1.8-0.1c-3.2,0-6.4,0.8-7.7,1.1c-1.9,0.4-6.8,0.1-7.1,0.2c-0.4,0.1-0.6,0.4-0.6,0.8v8.3c0,0.6,0.4,0.9,0.9,1
				c0.6,0,5.2,0,6.9,0c0.8,0.1,1.4,0.2,2.1,0.4c0.5,0.2,1,0.4,1.7,0.7c1.3,0.5,2.9,1.3,4.5,2c1.6,0.7,3.3,1.4,4.6,2
				c1.4,0.6,2.4,1,3.3,1c1.4,0.1,3.7-0.3,6.1-0.6c2.4-0.3,4.8-0.7,5.4-0.7c1.9-0.1,3.5-1.4,4.5-2c1.3-0.8,2.9-1.7,4.2-2.8
				c0.6-0.5,0.8-1.1,0.8-1.6C62.4,126.2,61.9,126.3,61.7,126.1z"/>
			<path fill="#E18CC8" d="M52.1,119.8h6.2c0.7,0,1.2-0.5,1.2-1.1c0-0.6-0.6-1.1-1.2-1.1h-6.2c-0.7,0-1.2,0.5-1.2,1.1
				C50.9,119.3,51.5,119.8,52.1,119.8z"/>
			<path fill="#E18CC8" d="M52.1,116.6h6.2c0.7,0,1.2-0.5,1.2-1.1c0-0.6-0.6-1.1-1.2-1.1h-6.2c-0.7,0-1.2,0.5-1.2,1.1
				C50.9,116.1,51.5,116.6,52.1,116.6z"/>
			<path fill="#E18CC8" d="M52.1,113.3h6.2c0.7,0,1.2-0.5,1.2-1.1c0-0.6-0.6-1.1-1.2-1.1h-6.2c-0.7,0-1.2,0.5-1.2,1.1
				C50.9,112.8,51.5,113.3,52.1,113.3z"/>
			<path fill="#E18CC8" d="M41.2,117.6h6.2c0.7,0,1.2-0.5,1.2-1.1c0-0.6-0.6-1.1-1.2-1.1h-6.2c-0.7,0-1.2,0.5-1.2,1.1
				C40,117.2,40.6,117.6,41.2,117.6z"/>
			<path fill="#E18CC8" d="M41.2,114.4h6.2c0.7,0,1.2-0.5,1.2-1.1c0-0.6-0.6-1.1-1.2-1.1h-6.2c-0.7,0-1.2,0.5-1.2,1.1
				C40,113.9,40.6,114.4,41.2,114.4z"/>
			<path fill="#E18CC8" d="M52.1,110h6.2c0.7,0,1.2-0.5,1.2-1.1c0-0.6-0.6-1.1-1.2-1.1h-6.2c-0.7,0-1.2,0.5-1.2,1.1
				C50.9,109.5,51.5,110,52.1,110z"/>
		</g>
	</g>
</g>
</svg>
