<?xml version="1.0" encoding="utf-8"?>
<!-- Generator: Adobe Illustrator 19.0.0, SVG Export Plug-In . SVG Version: 6.00 Build 0)  -->
<svg version="1.1" id="Layer_1" xmlns="http://www.w3.org/2000/svg" xmlns:xlink="http://www.w3.org/1999/xlink" x="0px" y="0px"
	 viewBox="0 0 80 160" style="enable-background:new 0 0 80 160;" xml:space="preserve">
<style type="text/css">
	.st0{fill:#BCF2E7;}
	.st1{fill:#20D4AF;}
</style>
<g>
	<g>
		<g id="XMLID_22_">
			<path id="XMLID_31_" class="st0" d="M40,83c20.4,0,37,16.6,37,37s-16.6,37-37,37S3,140.4,3,120S19.6,83,40,83 M40,80
				C17.9,80,0,97.9,0,120s17.9,40,40,40s40-17.9,40-40S62.1,80,40,80L40,80z"/>
		</g>
		<g>
			<polygon id="XMLID_21_" class="st1" points="29.9,139.4 34,139.4 34,127.3 29.9,131.4 			"/>
			<polygon id="XMLID_20_" class="st1" points="47.9,139.4 51.9,139.4 51.9,120.6 47.9,124.7 			"/>
			<polygon id="XMLID_19_" class="st1" points="53.8,139.4 57.6,139.4 57.6,115 53.8,118.7 			"/>
			<polygon id="XMLID_18_" class="st1" points="41.9,130.7 41.9,139.4 46,139.4 46,126.6 42.7,129.9 			"/>
			<polygon id="XMLID_17_" class="st1" points="24.1,136.2 24.1,139.4 28.2,139.4 28.2,132.1 24.9,135.3 			"/>
			<polygon id="XMLID_16_" class="st1" points="35.9,127.1 35.9,139.4 40,139.4 40,131.2 38.7,129.9 			"/>
			<polygon id="XMLID_15_" class="st1" points="24.1,136.2 24.1,139.4 28.1,139.4 28.1,132.1 24.9,135.3 			"/>
			<polygon id="XMLID_11_" class="st1" points="35.8,127.1 35.8,139.4 39.9,139.4 39.9,131.2 38.6,129.9 			"/>
			<path id="XMLID_10_" class="st1" d="M59.7,100.2H45.6l5.4,5.4l-1.9,1.9l-8.9,8.9l-5.4-5.4l-16.4,16.4l5.4,5.4l11-11l5.4,5.4
				l16.2-16.2l5.3,5.3V102C61.6,101,60.7,100.2,59.7,100.2z"/>
		</g>
	</g>
	<path class="st1" d="M40,0C17.9,0,0,17.9,0,40s17.9,40,40,40c22.1,0,40-17.9,40-40S62.1,0,40,0z M28.2,59.4L28.2,59.4h-4.1h-0.1
		v-3.2l0.8-0.8l3.3-3.3v0.1l0.1-0.1V59.4z M34,59.4h-4.1v-8l4.1-4.1V59.4z M40,59.4L40,59.4h-4.1h-0.1V47.1l0.1,0.1v-0.1l2.8,2.8
		l1.3,1.3V59.4z M46,59.4h-4.1v-8.7l0.8-0.8l3.3-3.3V59.4z M51.9,59.4h-4.1V44.7l4.1-4.1V59.4z M57.6,59.4h-3.8V38.7l3.8-3.8V59.4z
		 M61.6,36.2l-5.3-5.3L40.1,47.1l-5.4-5.4l-11,11l-5.4-5.4L34.8,31l5.4,5.4l8.9-8.9l1.9-1.9l-5.4-5.4h14.1c0.9,0,1.9,0.8,1.9,1.8
		V36.2z"/>
</g>
</svg>
