<?xml version="1.0" encoding="utf-8"?>
<!-- Generator: Adobe Illustrator 19.0.0, SVG Export Plug-In . SVG Version: 6.00 Build 0)  -->
<svg version="1.1" id="Layer_1" xmlns="http://www.w3.org/2000/svg" xmlns:xlink="http://www.w3.org/1999/xlink" x="0px" y="0px"
	 viewBox="0 0 80 160" style="enable-background:new 0 0 80 160;" xml:space="preserve">
<style type="text/css">
	.st0{fill:#FFF7CC;}
	.st1{fill:#FFD700;}
</style>
<g>
	<g>
		<g id="XMLID_21_">
			<path id="XMLID_33_" class="st0" d="M40,83c20.4,0,37,16.6,37,37s-16.6,37-37,37S3,140.4,3,120S19.6,83,40,83 M40,80
				C17.9,80,0,97.9,0,120s17.9,40,40,40s40-17.9,40-40S62.1,80,40,80L40,80z"/>
		</g>
		<g>
			<g>
				<path class="st1" d="M54,111.4c-7.7,0-13.9,6.3-13.9,13.9s6.3,13.9,13.9,13.9c7.7,0,13.9-6.2,13.9-13.9S61.6,111.4,54,111.4z
					 M54,136c-5.9,0-10.7-4.8-10.7-10.7c0-5.9,4.8-10.7,10.7-10.7c5.9,0,10.7,4.8,10.7,10.7C64.6,131.2,59.8,136,54,136z"/>
				<path id="XMLID_18_" class="st1" d="M51.4,129.5c-0.1-0.2-0.3-0.4-0.5-0.4h-1.2c-0.3,0-0.5,0.2-0.5,0.5l0,0.1
					c0.4,2,2,3.5,3.9,3.9v-2.3C52.3,131,51.6,130.4,51.4,129.5z"/>
				<path class="st1" d="M55.2,124.1v-3.4c0.2,0.2,0.4,0.5,0.6,0.8c0.1,0.2,0.3,0.4,0.5,0.4h1.2c0.3,0,0.5-0.2,0.5-0.5l0-0.1
					c-0.4-1.5-1.5-2.6-2.8-3V117c0-0.3-0.3-0.6-0.6-0.6c-0.3,0-0.6,0.3-0.6,0.6v0.2v15.9c0,0.3,0.3,0.6,0.6,0.6c0,0,0.1,0,0.1,0l0,0
					c2.4-0.3,4.2-2.4,4.2-4.8C58.9,126.6,57.3,124.7,55.2,124.1z M55.2,131.2v-4.7c0.8,0.4,1.4,1.3,1.4,2.3
					C56.6,129.9,56.1,130.8,55.2,131.2z"/>
				<path id="XMLID_15_" class="st1" d="M49.9,122.1c0,2,1.4,3.6,3.2,4v-2.4c-0.6-0.3-1-0.9-1-1.6c0-0.7,0.4-1.3,1-1.6v-2.4
					C51.2,118.5,49.9,120.1,49.9,122.1z"/>
			</g>
			<path id="XMLID_13_" class="st1" d="M40.1,135c-2.1,0.9-4.5,1.3-6.9,1.3c-10.2,0-18.5-8.3-18.5-18.5c0-10.2,8.3-18.4,18.5-18.4
				c7,0,13.1,3.9,16.2,9.6c0.9-0.2,1.8-0.4,2.7-0.5c-3.5-7-10.6-11.8-18.9-11.8c-11.7,0-21.1,9.5-21.1,21.1
				c0,11.7,9.5,21.1,21.1,21.1c3.1,0,6-0.7,8.7-1.9C41.3,136.5,40.7,135.8,40.1,135z"/>
			<path class="st1" d="M47.2,109.9c-2.8-4.8-8-8.1-13.9-8.1c-8.9,0-16.1,7.2-16.1,16.1c0,8.9,7.2,16.1,16.1,16.1c2,0,3.9-0.4,5.7-1
				c-1.2-2.3-1.8-4.9-1.8-7.6C37.1,118.4,41.2,112.5,47.2,109.9z M34.6,119.1c0,0.2,0,0.3-0.1,0.5c-0.1,0.1-0.1,0.3-0.2,0.4
				c0,0,0,0,0,0.1l-4.9,4.9c-0.5,0.5-1.4,0.5-1.9,0c-0.5-0.5-0.5-1.4,0-1.9l4.6-4.6v-11.8c0-0.7,0.6-1.3,1.3-1.3
				c0.7,0,1.3,0.6,1.3,1.3V119.1z"/>
		</g>
	</g>
	<g>
		<path class="st1" d="M54,34.7c-5.9,0-10.7,4.8-10.7,10.7C43.3,51.2,48.1,56,54,56c5.9,0,10.7-4.8,10.7-10.7
			C64.6,39.5,59.8,34.7,54,34.7z M53.1,53.7c-1.9-0.4-3.5-1.9-3.9-3.9l0-0.1c0-0.3,0.2-0.5,0.5-0.5h1.2c0.3,0,0.5,0.2,0.5,0.4
			c0.2,0.9,0.9,1.5,1.7,1.8V53.7z M53.1,40.5c-0.6,0.3-1,0.9-1,1.6c0,0.7,0.4,1.3,1,1.6v2.4c-1.8-0.4-3.2-2.1-3.2-4
			c0-2,1.4-3.6,3.2-4V40.5z M54.7,53.7L54.7,53.7c0,0-0.1,0-0.1,0c-0.3,0-0.6-0.3-0.6-0.6V37.2V37c0-0.3,0.3-0.6,0.6-0.6
			c0.3,0,0.6,0.3,0.6,0.6v1.1c1.3,0.4,2.4,1.6,2.8,3l0,0.1c0,0.3-0.2,0.5-0.5,0.5h-1.2c-0.2,0-0.4-0.1-0.5-0.4
			c-0.1-0.3-0.3-0.6-0.6-0.8v3.4c2.1,0.5,3.7,2.5,3.7,4.7C58.9,51.3,57.1,53.4,54.7,53.7z"/>
		<path id="XMLID_6_" class="st1" d="M33.2,25.4c-0.7,0-1.3,0.6-1.3,1.3v11.8l-4.6,4.6c-0.5,0.5-0.5,1.4,0,1.9
			c0.5,0.5,1.4,0.5,1.9,0l4.9-4.9c0,0,0,0,0-0.1c0.1-0.1,0.2-0.2,0.2-0.4c0.1-0.2,0.1-0.3,0.1-0.5V26.7C34.6,25.9,34,25.4,33.2,25.4
			z"/>
		<path id="XMLID_5_" class="st1" d="M55.2,46.5v4.7c0.8-0.4,1.4-1.3,1.4-2.3C56.6,47.9,56.1,47,55.2,46.5z"/>
		<path class="st1" d="M40,0C17.9,0,0,17.9,0,40c0,22.1,17.9,40,40,40c22.1,0,40-17.9,40-40C80,17.9,62.1,0,40,0z M33.2,59
			c-11.7,0-21.1-9.5-21.1-21.1c0-11.7,9.5-21.1,21.1-21.1c8.3,0,15.5,4.8,18.9,11.8c-0.9,0.1-1.8,0.3-2.7,0.5
			c-3.1-5.7-9.2-9.6-16.2-9.6c-10.2,0-18.5,8.3-18.5,18.4c0,10.2,8.3,18.5,18.5,18.5c2.4,0,4.8-0.5,6.9-1.3c0.5,0.8,1.1,1.5,1.8,2.2
			C39.3,58.3,36.3,59,33.2,59z M38.9,52.9c-1.8,0.7-3.7,1-5.7,1c-8.9,0-16.1-7.2-16.1-16.1c0-8.9,7.2-16.1,16.1-16.1
			c6,0,11.2,3.3,13.9,8.1c-5.9,2.6-10.1,8.6-10.1,15.5C37.1,48.1,37.7,50.6,38.9,52.9z M54,59.3C46.3,59.3,40,53,40,45.3
			S46.3,31.4,54,31.4c7.7,0,13.9,6.3,13.9,13.9S61.6,59.3,54,59.3z"/>
	</g>
</g>
</svg>
