<?xml version="1.0" encoding="utf-8"?>
<!-- Generator: Adobe Illustrator 19.0.0, SVG Export Plug-In . SVG Version: 6.00 Build 0)  -->
<svg version="1.1" id="Layer_1" xmlns="http://www.w3.org/2000/svg" xmlns:xlink="http://www.w3.org/1999/xlink" x="0px" y="0px"
	 viewBox="0 0 80 160" style="enable-background:new 0 0 80 160;" xml:space="preserve">
<style type="text/css">
	.st0{fill:#D4C9E0;}
	.st1{fill:#704C99;}
</style>
<g>
	<g>
		<g id="XMLID_9_">
			<path id="XMLID_21_" class="st0" d="M40,83c20.4,0,37,16.6,37,37s-16.6,37-37,37S3,140.4,3,120S19.6,83,40,83 M40,80
				C17.9,80,0,97.9,0,120s17.9,40,40,40s40-17.9,40-40S62.1,80,40,80L40,80z"/>
		</g>
		<g>
			<g>
				<path id="XMLID_7_" class="st1" d="M29.4,102.1c0-1-0.8-1.8-1.8-1.8h-3.4c-1,0-1.8,0.8-1.8,1.8v6l7-5.3V102.1z"/>
				<path id="XMLID_6_" class="st1" d="M63.7,115.2L41.8,98.5c-0.1,0-0.1-0.1-0.2-0.1c0.1,0,0.1,0.1,0.1,0.1
					c-0.5-0.4-1.1-0.6-1.8-0.6c-0.6,0-1.2,0.2-1.8,0.6c0,0-0.1,0-0.1,0.1l-21.9,16.6c-0.7,0.5-0.8,1.5-0.3,2.2
					c0.5,0.7,1.5,0.8,2.2,0.3l21.1-16.1c0,0,0,0,0,0c0.2-0.1,0.4-0.2,0.7-0.2c0.2,0,0.5,0.1,0.7,0.2c0,0,0,0,0,0l21.1,16.1
					c0.7,0.5,1.7,0.4,2.2-0.3C64.5,116.7,64.4,115.7,63.7,115.2z"/>
				<path id="XMLID_5_" class="st1" d="M40.7,105.7C40.7,105.7,40.7,105.7,40.7,105.7c-0.2-0.1-0.4-0.2-0.7-0.2
					c-0.2,0-0.5,0.1-0.7,0.2c0,0,0,0,0,0l-16.5,12.6c-0.3,0.3-0.5,0.6-0.5,1.1v14.9c0,2.6,2.1,4.6,4.6,4.6h8v-11.3
					c0-1.1,0.9-2.1,2.1-2.1h5.7c1.1,0,2.1,0.9,2.1,2.1v11.3h8.4c2.5,0,4.6-2.1,4.6-4.6v-14.9c0-0.4-0.2-0.8-0.5-1.1L40.7,105.7z"/>
			</g>
		</g>
	</g>
	<path class="st1" d="M40,0C17.9,0,0,17.9,0,40c0,22.1,17.9,40,40,40c22.1,0,40-17.9,40-40C80,17.9,62.1,0,40,0z M22.4,22.1
		c0-1,0.8-1.8,1.8-1.8h3.4c1,0,1.8,0.8,1.8,1.8v0.7l-7,5.3V22.1z M57.8,54.3c0,2.6-2.1,4.6-4.6,4.6h-8.4V47.6c0-1.1-0.9-2.1-2.1-2.1
		H37c-1.1,0-2.1,0.9-2.1,2.1v11.3h-8c-2.6,0-4.6-2.1-4.6-4.6V39.4c0-0.4,0.2-0.8,0.5-1.1l16.5-12.6c0,0,0,0,0,0
		c0.2-0.1,0.4-0.2,0.7-0.2c0.2,0,0.5,0.1,0.7,0.2c0,0,0,0,0,0l16.5,12.6c0.3,0.3,0.5,0.6,0.5,1.1V54.3z M64,37.3
		c-0.5,0.7-1.5,0.8-2.2,0.3L40.7,21.6c0,0,0,0,0,0c-0.2-0.1-0.4-0.2-0.7-0.2c-0.2,0-0.5,0.1-0.7,0.2c0,0,0,0,0,0L18.2,37.6
		c-0.7,0.5-1.7,0.4-2.2-0.3c-0.5-0.7-0.4-1.7,0.3-2.2l21.9-16.6c0,0,0.1,0,0.1-0.1c0.5-0.4,1.1-0.6,1.8-0.6c0.6,0,1.2,0.2,1.8,0.6
		c0,0-0.1-0.1-0.1-0.1c0.1,0,0.1,0.1,0.1,0.1c0,0,0,0,0,0c0,0,0.1,0,0.1,0l21.9,16.6C64.4,35.7,64.5,36.7,64,37.3z"/>
</g>
</svg>
