<svg xmlns="http://www.w3.org/2000/svg" viewBox="0 0 80 160"><title>tools-goal-planner</title><circle cx="39.61" cy="40" r="5.98" style="fill:#20d4af"/><path d="M39.61,22.93A17.07,17.07,0,1,0,56.68,40,17.09,17.09,0,0,0,39.61,22.93Zm0,28.65A11.58,11.58,0,1,1,51.2,40,11.6,11.6,0,0,1,39.61,51.58Z" transform="translate(0 0)" style="fill:#20d4af"/><path d="M40,0A40,40,0,1,0,80,40,40,40,0,0,0,40,0ZM39.61,62.67A22.67,22.67,0,1,1,62.28,40,22.69,22.69,0,0,1,39.61,62.67Z" transform="translate(0 0)" style="fill:#20d4af"/><path d="M40,83A37,37,0,1,1,3,120,37,37,0,0,1,40,83m0-3a40,40,0,1,0,40,40A40,40,0,0,0,40,80" transform="translate(0 0)" style="fill:#bcf2e7"/><path d="M40,142.67A22.67,22.67,0,1,1,62.67,120,22.69,22.69,0,0,1,40,142.67Zm0-39.74A17.07,17.07,0,1,0,57.07,120,17.09,17.09,0,0,0,40,102.93Z" transform="translate(0 0)" style="fill:#20d4af"/><path d="M40,131.46A11.46,11.46,0,1,1,51.46,120,11.47,11.47,0,0,1,40,131.46Zm0-17.32A5.86,5.86,0,1,0,45.86,120,5.87,5.87,0,0,0,40,114.14Z" transform="translate(0 0)" style="fill:#20d4af"/></svg>