<svg xmlns="http://www.w3.org/2000/svg" viewBox="0 0 80 160"><title>tools-kiwisaver-fund-finder</title><path d="M40,83A37,37,0,1,1,3,120,37,37,0,0,1,40,83m0-3a40,40,0,1,0,40,40A40,40,0,0,0,40,80Z" transform="translate(0 0)" style="fill:#fff7cc"/><path d="M32,127.15s2.83,4.54,3.33,5.45,6.16-.61,7.17,1a5.82,5.82,0,0,0-2.38.37,13.19,13.19,0,0,1,1.65,1.88l-2.6-.42s.85,2,.5,2.87c0,0-2.51-3.59-4.13-3.59s-2.83-.5-2.83-1.92-1.31-4.14-2-4.54S31.38,126.18,32,127.15Z" transform="translate(0 0)" style="fill:gold"/><path d="M31.38,119.22A13.7,13.7,0,0,1,21.2,102.73c.05-.22.12-.42.18-.63a14.43,14.43,0,0,0-4.79,5.26c-4.75,8.8.3,16.38,4.25,19.52s3.94,10.11,4,12.44S27.61,141,29,140.94,33,143.67,33,143.67a4.42,4.42,0,0,0-.61-1.82c.3-.81,4.75,0,4.75,0-.1-.71-3.34-1.92-3.34-1.92.51-.71,2-.85,2-.85-.91-.55-2-.46-4.35-.05s-4.35-1.52-4.85-3.64-.91-9.61,8.19-11.43c1.35-.27,2.54-.57,3.62-.89l-1.87-3.63A13.65,13.65,0,0,1,31.38,119.22Z" transform="translate(0 0)" style="fill:gold"/><path d="M59.77,117.88c-.71-1.31-.2-5.76-1.92-8.5s-6.3-2.83-9.62-3.21a13.61,13.61,0,0,1-3.84,9.21l2,3.86a13.38,13.38,0,0,1,1.29-.94c1-.51,1.72-1.72,4.15,0s5.33,1.3,6.54,1.71,7,7.59,7,7.59C65.44,125.37,60.48,119.2,59.77,117.88Z" transform="translate(0 0)" style="fill:gold"/><path d="M48.65,129.18l-7.27-14.11a1.86,1.86,0,0,0-.22-.33,11.28,11.28,0,1,0-3.26,1.67,1.86,1.86,0,0,0,.14.38l7.27,14.11a1.88,1.88,0,0,0,3.34-1.72Zm-16.78-15a8.75,8.75,0,1,1,11-5.66A8.76,8.76,0,0,1,31.87,114.21Z" transform="translate(0 0)" style="fill:gold;fill-rule:evenodd"/><path d="M34.74,101.13A7.37,7.37,0,0,0,31.62,100l-.07,0a6.54,6.54,0,1,0,9.17,3.72A31.15,31.15,0,0,1,34.74,101.13Z" transform="translate(0 0)" style="fill:gold"/><path d="M37.2,17.55a8.75,8.75,0,1,0,5.66,11A8.76,8.76,0,0,0,37.2,17.55Zm3.55,10.32a6.53,6.53,0,1,1-9.21-7.8l.07,0a7.37,7.37,0,0,1,3.12,1.08,31.15,31.15,0,0,0,6,2.67A6.49,6.49,0,0,1,40.75,27.87Z" transform="translate(0 0)" style="fill:gold"/><path d="M40,0A40,40,0,1,0,80,40,40,40,0,0,0,40,0ZM32.37,61.85A4.42,4.42,0,0,1,33,63.67S30.44,60.84,29,60.94s-4,.71-4.15-1.62-.1-9.3-4-12.44-9-10.72-4.25-19.52a14.43,14.43,0,0,1,4.79-5.26c-.06.21-.13.42-.18.63a13.69,13.69,0,0,0,15.35,16.7l1.87,3.63c-1.08.32-2.28.63-3.62.89-9.1,1.82-8.7,9.3-8.19,11.43s2.53,4,4.85,3.64,3.44-.5,4.35.05c0,0-1.52.15-2,.85,0,0,3.24,1.21,3.34,1.92C37.12,61.85,32.67,61,32.37,61.85ZM40.11,54a13.19,13.19,0,0,1,1.65,1.88l-2.6-.42s.85,2,.5,2.87c0,0-2.51-3.59-4.13-3.59s-2.83-.5-2.83-1.92-1.31-4.14-2-4.54.71-2.09,1.31-1.11c0,0,2.83,4.54,3.33,5.45s6.16-.61,7.17,1A5.82,5.82,0,0,0,40.11,54Zm7.73-2.27a1.88,1.88,0,0,1-2.53-.81L38,36.79a1.86,1.86,0,0,1-.14-.38,11,11,0,1,1,3.26-1.67,1.86,1.86,0,0,1,.22.33l7.27,14.11A1.88,1.88,0,0,1,47.84,51.71ZM58.36,40c-1.21-.4-4.12,0-6.54-1.71s-3.14-.51-4.15,0a13.38,13.38,0,0,0-1.29.94l-2-3.86a13.61,13.61,0,0,0,3.84-9.21c3.33.39,7.93.53,9.62,3.21s1.21,7.18,1.92,8.5,5.66,7.49,5.56,9.71C65.34,47.59,59.57,40.41,58.36,40Z" transform="translate(0 0)" style="fill:gold"/></svg>