<?xml version="1.0" encoding="utf-8"?>
<!-- Generator: Adobe Illustrator 19.0.0, SVG Export Plug-In . SVG Version: 6.00 Build 0)  -->
<svg version="1.1" id="Isolation_Mode" xmlns="http://www.w3.org/2000/svg" xmlns:xlink="http://www.w3.org/1999/xlink" x="0px"
	 y="0px" viewBox="0 0 231.6 50.8" style="enable-background:new 0 0 231.6 50.8;" xml:space="preserve">
<path d="M35.1,38.8c-3.3,0-6.1,2.6-6.1,5.9c0,3.5,2.8,6,6,6.1c3.3,0,6-2.7,6-5.9C41,41.4,38.2,38.8,35.1,38.8"/>
<path d="M103,21.6V16c0-1.1,0.9-2.1,2-2.1c1-0.1,1.6,0.5,1.6,1.5c0,0.1,0,0.3,0,0.4c0,2,0,3.9,0,5.9c0,0.2,0,0.3,0,0.5
	c0.9,0,1.8,0,2.7,0c0-0.2,0-0.3,0-0.4c0-2.2,0-4.4,0-6.7c0-0.3,0-0.6-0.1-0.9c-0.2-0.9-0.5-1.7-1.3-2.2c-0.5-0.3-1-0.5-1.6-0.6
	c-1.5-0.2-2.9,0.1-4,1.3c0,0-0.1,0-0.1,0.1c-0.1-0.1-0.2-0.2-0.2-0.3c-0.4-0.4-0.8-0.7-1.3-0.9c-1.5-0.5-3-0.2-4,1.1
	c-0.1,0.1-0.1,0.1-0.3,0.3c-0.1-0.5-0.2-0.9-0.2-1.3c-0.6-0.1-2.2-0.1-2.5,0c0.3,3.5,0.1,7,0.2,10.5c0.9,0,1.8,0,2.7,0v-0.5
	c0-1.8,0-3.7,0-5.5c0-0.8,0.4-1.4,1-1.9c0.5-0.4,1.1-0.4,1.8-0.3c0.6,0.2,0.9,0.7,0.9,1.4c0,2.1,0,4.2,0,6.3v0.5c0.9,0,1.8,0,2.7,0
	V21.6z"/>
<path d="M92.2,21.7c0-2.3,0-4.6,0-6.8c0-0.2,0-0.3,0-0.5c-0.1-0.8-0.4-1.6-1-2.2c-0.5-0.5-1.2-0.8-1.9-0.9c-1.5-0.2-2.9,0.1-4,1.3
	c0,0-0.1,0.1-0.1,0c-0.4-0.3-0.7-0.7-1.1-0.9c-1.2-0.7-3.1-0.8-4.5,0.7c-0.1,0.1-0.2,0.2-0.3,0.4c-0.1-0.5-0.2-0.9-0.2-1.3h-2.5
	c0,0.2,0,0.3,0,0.5c0.1,1.3,0.1,2.6,0.2,3.9c0,1.9,0,3.8,0,5.7v0.4c0.6,0.1,2.4,0.1,2.7,0v-0.5c0-1.9,0-3.8,0-5.6
	c0-1.4,1.3-2.4,2.6-2c0.5,0.1,0.8,0.4,0.9,0.9c0.1,0.2,0.1,0.5,0.1,0.7c0,2,0,4,0,6.1v0.5h2.7v-0.5c0-1.9,0-3.8,0-5.6
	c0-1.1,1-2.1,2.1-2.1c0.9,0,1.4,0.5,1.5,1.4c0,0.1,0,0.3,0,0.4c0,2,0,3.9,0,5.9V22c0.5,0.1,2.4,0.1,2.7,0
	C92.2,21.9,92.2,21.8,92.2,21.7"/>
<path d="M194.3,30.3c-0.7-0.3-1.4-0.4-2.2-0.3c-1,0-1.9,0.4-2.6,1.1c0,0-0.1,0.1-0.2,0.1c0,0-0.1,0-0.1,0v-6.3h-2.7v0.5
	c0,0.9,0,1.7,0,2.6c-0.1,4.2,0.2,8.4-0.2,12.6c0,0.1,0,0.2,0.1,0.3c0.7,0,1.3,0,2,0c0.5,0,0.5,0,0.5-0.5c0-0.2,0.1-0.5,0.1-0.8
	c0.3,0.3,0.5,0.5,0.7,0.7c0.9,0.7,1.9,0.9,3,0.8c1.9-0.2,3.2-1.1,3.8-2.8c0.6-1.9,0.6-3.7-0.1-5.6C196.2,31.6,195.4,30.8,194.3,30.3
	 M193.7,37.6c-0.4,0.5-0.9,0.8-1.6,0.9c-0.9,0.1-1.7-0.2-2.3-0.8c-0.3-0.4-0.5-0.8-0.5-1.3c0-0.5,0-1.1,0-1.6c0-0.5,0.2-0.9,0.5-1.3
	c0.7-0.8,2-1.1,3-0.7c0.7,0.3,1.1,0.8,1.3,1.4c0.1,0.4,0.2,0.9,0.2,1.2C194.2,36.3,194.1,37,193.7,37.6"/>
<path d="M63.9,17.4c-1-0.1-1.9-0.2-2.8-0.3c-0.1,0.3-0.2,0.6-0.2,0.8c-0.3,0.9-0.9,1.5-1.8,1.7c-0.7,0.2-1.3,0.2-2,0.1
	c-1.1-0.1-2-0.7-2.5-1.8c-0.1-0.3-0.3-0.7-0.4-1c-0.3-1.1-0.3-2.3-0.2-3.4c0-0.9,0.1-1.7,0.5-2.6c0.4-1.1,1.2-1.7,2.3-2
	c0.6-0.1,1.2-0.1,1.8,0c1.4,0.2,2,0.8,2.3,2.1c0,0.1,0.1,0.3,0.1,0.4c0.9-0.1,1.8-0.2,2.7-0.3c0-0.1,0-0.1,0-0.2
	c-0.2-1.9-1.1-3.5-2.9-4.2c-1.7-0.7-3.4-0.7-5.2-0.3c-1.1,0.3-2.1,0.8-2.9,1.7c-0.9,1.1-1.3,2.4-1.6,3.8c-0.2,1.1-0.2,2.1-0.1,3.2
	c0,1.3,0.2,2.5,0.8,3.7c0.7,1.7,2,2.8,3.8,3.3c1.5,0.4,3,0.3,4.4,0c1.9-0.5,3.1-1.7,3.6-3.7C63.8,18.1,63.9,17.8,63.9,17.4"/>
<path d="M141.2,29.8c0.4-1,1-1.7,2-2c0.9-0.3,1.9-0.3,2.8,0c0.8,0.2,1.3,0.7,1.6,1.5c0.1,0.3,0.2,0.6,0.3,1c0.9-0.1,1.7-0.2,2.5-0.3
	c0.2,0,0.3-0.1,0.2-0.3c0-0.1,0-0.3-0.1-0.4c-0.4-2.2-1.7-3.5-3.9-4c-1.2-0.3-2.5-0.3-3.7-0.1c-0.9,0.1-1.7,0.5-2.4,1
	c-1.1,0.8-1.8,1.9-2.2,3.2c-0.5,1.5-0.5,3.1-0.5,4.6c0.1,1.3,0.3,2.6,0.8,3.8c0.8,1.7,2.1,2.8,3.9,3.2c1.4,0.3,2.8,0.3,4.2,0
	c1.4-0.3,2.5-1.1,3.2-2.4c0.3-0.6,0.5-1.2,0.6-1.9c0.1-0.4,0-0.4-0.3-0.5c-0.7-0.1-1.4-0.2-2.1-0.2c-0.1,0-0.2,0-0.3,0
	c-0.1,0.3-0.2,0.6-0.2,0.9c-0.3,0.8-0.9,1.4-1.7,1.6c-0.6,0.2-1.2,0.2-1.9,0.1c-1.1-0.1-2-0.6-2.6-1.7c-0.1-0.2-0.2-0.5-0.3-0.8
	c-0.4-1.2-0.4-2.4-0.4-3.6C140.8,31.5,140.9,30.6,141.2,29.8"/>
<path d="M22.2,39.4c-2.7-0.1-5.4,2.2-5.4,5.4c0,3,2.4,5.4,5.4,5.4c2.8,0,5.4-2.2,5.4-5.4C27.6,41.6,24.9,39.4,22.2,39.4"/>
<path d="M170.8,30.2c-0.7-0.2-1.3-0.2-2-0.2c-1,0.1-1.8,0.4-2.5,1.1c-0.1,0.1-0.2,0.2-0.2,0.3c0,0-0.1,0-0.1-0.1
	c-0.1-0.4-0.2-0.8-0.2-1.1h-2.5c0.3,4.8,0.1,9.7,0.2,14.5c0.4,0.1,2.4,0.1,2.7,0V40c0,0,0.1,0,0.1,0c0.1,0.1,0.2,0.2,0.3,0.3
	c0.5,0.4,1,0.7,1.6,0.8c0.6,0.1,1.1,0.2,1.7,0.1c1.8-0.2,3.1-1.1,3.7-2.8c0.6-1.8,0.6-3.7,0-5.5C173,31.5,172.1,30.6,170.8,30.2
	 M170.9,36.8c-0.5,1.7-2,2-3.4,1.5c-0.5-0.2-0.8-0.5-1.1-0.9c-0.2-0.3-0.3-0.6-0.3-1c0-0.3,0-0.6,0-0.9c0-0.3,0-0.5,0-0.8
	c-0.1-0.7,0.3-1.2,0.8-1.6c0.8-0.6,1.6-0.8,2.5-0.5c0.8,0.2,1.2,0.8,1.4,1.5C171.1,35.1,171.2,35.9,170.9,36.8"/>
<path d="M51.6,25.3c-0.1,0.5-0.1,15.1,0,15.5h2.7c0-0.2,0-0.4,0-0.5c0-1.9,0-3.7,0-5.5c0-0.2,0-0.3,0-0.5c1.2,0,2.3,0,3.4,0
	c1.1,0,2.3,0,3.4,0v-2.6h-0.5c-1.9,0-3.8,0-5.8,0c-0.2,0-0.3,0-0.5,0c-0.1-0.6-0.1-3.3,0-3.7H55c2.2,0,4.5,0,6.7,0
	c0.2,0,0.3,0,0.5,0c0-0.9,0-1.7,0-2.5C61.6,25.2,51.9,25.2,51.6,25.3"/>
<path d="M11.3,34c-2.8,0-5.1,2.3-5.1,5.1c0,3,2.4,5.2,5.2,5.1c2.8,0,5.1-2.3,5.1-5.1C16.5,36.1,14,34,11.3,34"/>
<path d="M184.8,34.9c0-0.3,0-0.7,0-1c0-1.9-1-3.2-2.8-3.6c-1.1-0.3-2.2-0.3-3.4-0.1c-0.4,0.1-0.8,0.2-1.1,0.3
	c-1.3,0.5-2.1,1.7-2.1,3c0.9,0.2,1.8,0.3,2.7,0.4c0.1-0.1,0.1-0.2,0.1-0.3c0.2-0.6,0.6-1,1.2-1c0.5-0.1,0.9,0,1.4,0
	c0.2,0,0.5,0.1,0.7,0.2c0.5,0.3,0.6,0.7,0.5,1.3c-0.1,0-0.2,0.1-0.4,0.1c-1,0.1-1.9,0.3-2.9,0.4c-0.8,0.1-1.7,0.3-2.4,0.7
	c-0.7,0.4-1.1,0.9-1.3,1.7c-0.1,0.5-0.2,1.1-0.1,1.6c0.2,1.3,0.9,2.2,2.2,2.5c0.4,0.1,0.8,0.2,1.2,0.2c1.4,0,2.7-0.3,3.7-1.3
	c0,0,0.1,0,0.2-0.1c0.1,0.3,0.1,0.6,0.2,0.9c0,0.2,0.1,0.3,0.3,0.3h2.3c0-0.2,0-0.3,0-0.4C184.8,38.6,184.8,36.7,184.8,34.9
	 M181.8,37.4c-0.7,1-1.8,1.5-3.1,1.3c-0.5-0.1-0.9-0.5-0.9-0.9c0-0.5,0.2-0.9,0.7-1.1c0.4-0.1,0.8-0.2,1.2-0.3
	c0.6-0.1,1.2-0.2,1.8-0.3c0.1,0,0.3,0,0.4,0C182.1,36.6,182,37,181.8,37.4"/>
<path d="M127.7,36.4c0-1,0-2,0-2.9c-0.1-1.5-0.9-2.6-2.4-3.1c-1.5-0.5-3-0.5-4.5-0.1c-1.5,0.4-2.3,1.4-2.5,2.8c0,0.1,0,0.2,0,0.3
	c0.9,0.1,1.8,0.3,2.7,0.3c0.1-0.2,0.1-0.3,0.2-0.5c0.1-0.3,0.3-0.6,0.7-0.7c0.8-0.3,1.7-0.3,2.5,0.1c0.4,0.2,0.6,0.5,0.7,0.9
	c0,0.3,0,0.4-0.3,0.5c-0.7,0.1-1.3,0.2-2,0.3c-0.9,0.1-1.9,0.2-2.8,0.6c-1,0.4-1.7,1-1.9,2.1c-0.1,0.5-0.1,1.1,0,1.6
	c0.2,1.2,0.9,1.9,2,2.3c0.5,0.1,0.9,0.2,1.4,0.2c1.4,0,2.6-0.3,3.6-1.3c0,0,0.1-0.1,0.2-0.1c0.1,0.3,0.1,0.6,0.2,0.8
	c0.1,0.3,0.1,0.3,0.4,0.3c0.6,0,1.3,0,1.9,0c0.1,0,0.2,0,0.3,0c0-0.2,0-0.3,0-0.5C127.8,39,127.7,37.7,127.7,36.4 M124.7,37.5
	c-0.8,1-1.8,1.4-3,1.2c-0.6-0.1-1-0.5-0.9-1.2c0-0.4,0.3-0.7,0.6-0.8c0.3-0.1,0.6-0.2,1-0.2c0.7-0.1,1.4-0.2,2-0.3
	c0.2,0,0.3,0,0.5-0.1C125,36.6,125,37.1,124.7,37.5"/>
<path d="M89.3,36.6c0-1,0-1.9,0-2.9c0-1.6-0.8-2.8-2.3-3.3c-1.6-0.6-3.3-0.6-4.9-0.1c-0.5,0.2-1,0.5-1.4,0.9
	c-0.5,0.6-0.8,1.3-0.9,2.1c0.9,0.1,1.8,0.2,2.7,0.4c0-0.1,0.1-0.2,0.1-0.3c0.2-0.6,0.6-1,1.2-1c0.5,0,0.9,0,1.4,0
	c0.2,0,0.5,0.1,0.7,0.2c0.5,0.2,0.7,0.7,0.6,1.3c-0.1,0-0.2,0.1-0.4,0.1c-1,0.1-1.9,0.3-2.9,0.4c-0.8,0.1-1.5,0.2-2.2,0.6
	c-0.7,0.3-1.2,0.8-1.5,1.6c-0.2,0.7-0.2,1.4-0.1,2.1c0.2,0.9,0.7,1.6,1.6,2c0.6,0.2,1.2,0.3,1.8,0.4c1.4,0,2.6-0.3,3.6-1.3
	c0.1-0.1,0.1-0.1,0.2-0.1c0.1,0.4,0.1,0.8,0.2,1.1c0.5,0.1,2.2,0.1,2.5,0c0-0.1,0-0.3,0-0.4C89.4,39.1,89.3,37.8,89.3,36.6
	 M86.5,37.1c-0.5,1-1.3,1.6-2.4,1.6c-0.3,0-0.7,0-1.1-0.1c-0.5-0.1-0.6-0.5-0.7-0.9c0-0.5,0.2-0.8,0.6-1c0.3-0.1,0.6-0.2,0.9-0.2
	c0.7-0.1,1.3-0.2,2-0.3c0.2,0,0.4-0.1,0.6-0.1C86.6,36.4,86.6,36.8,86.5,37.1"/>
<path d="M161.6,34.3c0-0.3,0-0.6,0-0.9c-0.2-1.6-1.1-2.7-2.7-3.1c-1.3-0.4-2.7-0.4-4-0.1c-0.7,0.2-1.4,0.5-1.9,1
	c-0.5,0.6-0.8,1.3-0.9,2.2c0.9,0.1,1.8,0.2,2.8,0.4c0.1-0.2,0.1-0.3,0.1-0.4c0.1-0.3,0.3-0.6,0.7-0.7c0.8-0.3,1.7-0.3,2.5,0.1
	c0.4,0.2,0.6,0.5,0.7,0.8c0.1,0.4,0,0.5-0.4,0.6c-0.9,0.1-1.9,0.2-2.8,0.4c-0.7,0.1-1.4,0.3-2,0.5c-0.9,0.3-1.5,0.9-1.8,1.8
	c-0.2,0.6-0.2,1.2-0.1,1.9c0.2,1.2,0.9,1.9,2,2.3c0.4,0.1,0.9,0.2,1.4,0.2c1.4,0,2.6-0.3,3.6-1.3c0.1-0.1,0.1-0.1,0.2-0.2
	c0.1,0.4,0.2,0.8,0.2,1.1c0.5,0.1,2.2,0.1,2.5,0c0-0.6-0.1-1.1-0.1-1.7C161.6,37.4,161.6,35.8,161.6,34.3 M158.6,37.4
	c-0.6,1-1.7,1.6-3.1,1.4c-0.7-0.1-1.1-0.7-0.9-1.4c0.1-0.3,0.3-0.5,0.6-0.6c0.3-0.1,0.6-0.2,1-0.2c0.7-0.1,1.4-0.2,2-0.3
	c0.2,0,0.4,0,0.6-0.1C158.9,36.6,158.9,37,158.6,37.4"/>
<path d="M9.8,29.5c0-3-2.5-4.9-5-4.9C2.4,24.7,0,26.6,0,29.5c0,2.8,2.2,4.9,4.9,4.9C7.6,34.4,9.8,32.2,9.8,29.5"/>
<path d="M68.5,22.2c0.9,0.2,1.7,0.2,2.6,0.1c2-0.2,3.5-1.5,4-3.4c0.2-0.7,0.3-1.4,0.3-2.1c0-0.7-0.1-1.4-0.3-2.1
	c-0.4-1.5-1.3-2.6-2.8-3.1c-1.2-0.4-2.5-0.5-3.7-0.1c-1.7,0.4-2.7,1.4-3.2,3.1c-0.5,1.5-0.5,3,0,4.5C65.8,20.7,66.8,21.7,68.5,22.2
	 M68,15.3c0.3-0.9,0.9-1.4,1.9-1.5c0.3,0,0.5,0,0.8,0c0.7,0.1,1.2,0.5,1.5,1.2c0.2,0.6,0.3,1.2,0.3,1.8c0,0.6,0,1.1-0.2,1.6
	c-0.3,0.8-0.8,1.2-1.6,1.3c-0.5,0.1-0.9,0.1-1.4-0.1c-0.6-0.2-1.1-0.6-1.3-1.3C67.7,17.4,67.7,16.3,68,15.3"/>
<path d="M122.5,22c0.7-0.2,1.3-0.6,1.8-1.1c0.7-0.8,0.8-1.8,0.6-2.8c-0.1-1-0.7-1.7-1.7-2.1c-0.3-0.1-0.6-0.2-0.9-0.2
	c-1-0.1-1.9-0.2-2.9-0.4c-0.3,0-0.5-0.1-0.7-0.2c-0.3-0.1-0.4-0.3-0.4-0.6c0-0.4,0.2-0.8,0.7-0.9c0.6-0.2,1.2-0.2,1.7-0.1
	c0.6,0.1,0.9,0.5,1.1,1c0,0.1,0.1,0.1,0.1,0.2c0.9-0.1,1.8-0.2,2.7-0.4c-0.2-1.4-0.7-2.4-2-2.9c-1.7-0.6-3.5-0.7-5.2,0
	c-1.6,0.6-2.2,1.8-2.1,3.5c0.1,1.1,0.6,1.8,1.6,2.2c0.4,0.1,0.8,0.2,1.2,0.3c0.8,0.1,1.6,0.2,2.3,0.3c0.3,0,0.6,0.1,0.9,0.2
	c0.4,0.1,0.6,0.5,0.5,1c-0.1,0.4-0.4,0.6-0.8,0.8c-0.7,0.2-1.4,0.3-2.1,0.1c-0.6-0.1-1-0.5-1.2-1c0-0.1-0.1-0.2-0.1-0.4
	c-0.9,0.1-1.8,0.2-2.7,0.4c0,0.1,0,0.1,0,0.2c0.2,1.4,0.8,2.4,2.2,2.9C119.1,22.6,120.8,22.5,122.5,22"/>
<path d="M133.7,16c-0.3-0.1-0.6-0.2-0.9-0.2c-1-0.1-1.9-0.2-2.9-0.4c-0.2,0-0.5-0.1-0.7-0.2c-0.4-0.2-0.5-0.5-0.4-0.9
	c0.1-0.3,0.4-0.5,0.7-0.6c0.6-0.2,1.3-0.2,1.9,0c0.4,0.1,0.7,0.4,0.8,0.8c0,0.1,0.1,0.3,0.2,0.4c0.9-0.1,1.8-0.2,2.7-0.4
	c0-1.2-0.7-2.4-1.9-2.9c-0.6-0.3-1.2-0.4-1.8-0.4c-1.2-0.1-2.4,0-3.6,0.5c-1,0.4-1.7,1.1-1.9,2.1c-0.1,0.6-0.1,1.3,0,1.9
	c0.2,0.7,0.6,1.2,1.2,1.5c0.3,0.2,0.6,0.3,1,0.3c0.9,0.1,1.8,0.2,2.8,0.4c0.3,0,0.6,0.1,0.9,0.1c0.7,0.2,0.8,1,0.3,1.5
	c-0.1,0.1-0.3,0.2-0.5,0.3c-0.7,0.2-1.4,0.3-2.1,0.1c-0.6-0.1-1-0.5-1.2-1.1c0-0.1-0.1-0.2-0.1-0.3c-0.9,0.1-1.8,0.2-2.7,0.4
	c0.1,1.7,1,2.7,2.2,3.1c1.8,0.6,3.6,0.6,5.4-0.1c1.1-0.4,1.9-1.2,2.1-2.4c0.1-0.5,0.1-1.1,0-1.6C135.1,17,134.5,16.4,133.7,16"/>
<path d="M147.7,11.4c-1-0.2-2-0.3-3,0c-1.7,0.4-2.8,1.3-3.4,3c-0.5,1.6-0.5,3.2,0,4.9c0.5,1.5,1.5,2.5,3,2.9
	c1.3,0.4,2.6,0.3,3.8-0.1c1.4-0.4,2.3-1.4,2.8-2.8c0.3-0.8,0.4-1.6,0.4-2.5c-0.1-0.6-0.1-1.1-0.2-1.7
	C150.7,13.2,149.6,11.9,147.7,11.4 M148.2,18.5c-0.2,0.7-0.7,1.1-1.4,1.2c-0.9,0.2-1.8,0.1-2.4-0.6c-0.4-0.4-0.5-1-0.6-1.6
	c0-0.3,0-0.5-0.1-0.7c0-0.7,0.1-1.3,0.4-1.9c0.3-0.6,0.8-1,1.4-1.1c0.4-0.1,0.8,0,1.2,0c0.7,0.1,1.2,0.5,1.5,1.2
	C148.6,16.2,148.6,17.4,148.2,18.5"/>
<path d="M161,11.9c-0.5-0.3-1.2-0.5-1.8-0.6c-1.5-0.2-2.8,0.2-3.8,1.3c-0.1,0.1-0.1,0.1-0.2,0.2c-0.1-0.4-0.1-0.6-0.2-0.9
	c-0.1-0.4-0.1-0.4-0.4-0.4c-0.6,0-1.2,0-1.8,0c-0.1,0-0.2,0-0.3,0.1c0.3,3.5,0.1,7,0.2,10.5c0.5,0.1,2.4,0.1,2.7,0v-0.5
	c0-1.8,0-3.6,0-5.5c0-0.6,0.2-1.1,0.6-1.5c0.6-0.5,1.3-0.8,2-0.8c1.2,0,1.8,0.6,1.8,1.8c0,2,0,4,0,6v0.5h2.7c0-0.1,0-0.1,0-0.2
	c0-2.4,0-4.9,0-7.3C162.5,13.5,162.1,12.5,161,11.9"/>
<path d="M78.2,33.1c-0.1-1.1-0.6-2-1.7-2.6c-1.5-0.8-3.9-0.9-5.4,0.8c-0.1,0.1-0.2,0.1-0.3,0.2c-0.1-0.5-0.2-0.9-0.2-1.3h-2.5
	c0.3,3.5,0.1,7,0.2,10.5H71v-0.5c0-1.9,0-3.8,0-5.7c0-0.3,0.1-0.6,0.2-0.8c0.7-1,2.1-1.5,3.2-1.1c0.5,0.2,0.9,0.6,1,1.2
	c0,0.2,0,0.3,0,0.5c0,2,0,4,0,6c0,0.2,0,0.3,0,0.5h2.7c0-0.2,0-0.3,0-0.5c0-2.2,0-4.4,0-6.5C78.2,33.5,78.2,33.3,78.2,33.1"/>
<path d="M4.4,23.1c2.7,0,4.6-2.3,4.6-4.6c0-2.5-2-4.7-4.6-4.7c-2.7,0-4.7,2.3-4.6,4.6C-0.3,20.8,1.7,23.1,4.4,23.1"/>
<path d="M231.2,30.2c-0.7,0-1.5,0-2.2,0c-0.4,0-0.4,0-0.5,0.4c-0.8,2.1-1.6,4.1-2.4,6.2c0,0.1-0.1,0.2-0.2,0.4
	c-0.9-2.4-1.8-4.6-2.7-6.9c-1.1-0.1-2.7-0.1-3,0.1c0,0.1,0.1,0.2,0.1,0.3c1.3,3,2.6,6.1,3.9,9.1c0.1,0.3,0.1,0.5,0,0.7
	c-0.6,1.3-1.2,2.7-1.8,4c0,0.1-0.1,0.2-0.1,0.3c0.1,0,0.1,0.1,0.2,0.1c0.9,0,1.8,0,2.7,0c0.2,0,0.3-0.1,0.3-0.3
	c0.1-0.4,0.3-0.7,0.4-1.1c1.8-4.2,3.6-8.5,5.4-12.7c0.1-0.1,0.1-0.3,0.2-0.5C231.4,30.3,231.3,30.2,231.2,30.2"/>
<path d="M98.6,30.2C98,30,97.5,30,96.9,30c-1.2,0-2.2,0.5-3,1.3c-0.1,0.1-0.1,0.1-0.3,0.2c-0.1-0.5-0.1-0.9-0.2-1.3h-2.5
	c0,0.2,0,0.4,0,0.6c0,1,0.1,1.9,0.1,2.9c0,2.1,0,4.3,0,6.5c0,0.2,0,0.3,0,0.5h2.7c0-0.2,0-0.4,0-0.5c0-1.8,0-3.7,0-5.5
	c0-0.4,0.1-0.8,0.4-1.1c0.6-0.7,1.4-1.1,2.3-1.1c1.2,0,1.9,0.5,1.8,1.8c0,0.1,0,0.1,0,0.2c0,1.9,0,3.8,0,5.7c0,0.2,0,0.3,0,0.5
	c0.6,0.1,2.3,0.1,2.7,0c0-0.1,0-0.2,0-0.2c0-2.4,0-4.8,0-7.1C101,31.8,100.1,30.7,98.6,30.2"/>
<path d="M109.3,37.5c-0.2,0.5-0.6,0.9-1.1,1c-0.4,0.1-0.8,0.1-1.2,0c-0.9-0.1-1.5-0.6-1.8-1.4c-0.3-1-0.3-2,0-3
	c0.2-0.7,0.6-1.2,1.4-1.4c0.6-0.2,1.2-0.2,1.7,0c0.5,0.1,0.9,0.5,1,0.9c0,0.1,0.1,0.3,0.2,0.4c0.9-0.1,1.8-0.2,2.7-0.3
	c0-0.1,0-0.1,0.1-0.1c0,0,0-0.1,0-0.1c-0.2-1.4-0.9-2.5-2.3-3c-1.4-0.5-2.8-0.5-4.2-0.2c-1.4,0.4-2.4,1.2-3,2.6
	c-0.7,1.7-0.7,3.5-0.1,5.3c0.5,1.6,1.7,2.5,3.3,2.9c1.1,0.2,2.2,0.2,3.3-0.1c1.6-0.4,2.5-1.3,2.9-2.9c0-0.2,0-0.3,0.1-0.5
	c-0.9-0.1-1.8-0.2-2.7-0.4C109.4,37.2,109.3,37.4,109.3,37.5"/>
<path d="M9.5,13.7c2.5,0,4.4-1.9,4.4-4.4c0-2.4-1.9-4.4-4.4-4.4c-2.4,0-4.4,1.9-4.4,4.4C5.1,11.7,7,13.6,9.5,13.7"/>
<path d="M219.8,38.6c0-0.1-0.1-0.2-0.1-0.3c-0.2,0.1-0.3,0.1-0.4,0.1c-0.5,0.2-0.9,0.2-1.4,0.1c-0.6-0.1-0.9-0.4-1-1
	c0-0.3-0.1-0.5-0.1-0.8c0-1.2,0-2.4,0-3.5c0-0.1,0-0.3,0-0.5h2.9c0.1-0.4,0.1-2.1,0-2.5h-2.9V27c-1,0.2-1.8,0.4-2.8,0.5v2.8
	c-0.3,0-0.6,0-0.9,0c-0.3,0-0.6-0.1-0.9,0.1c-0.1,0.7-0.1,2.1,0.1,2.4h1.7c0,0.2,0,0.3,0,0.5c0,1.1,0,2.2,0,3.3c0,0.7,0.1,1.3,0.2,2
	c0.2,1,0.7,1.8,1.7,2.2c1.2,0.5,2.5,0.5,3.8,0.2c0.2-0.1,0.3-0.2,0.3-0.4C219.9,39.8,219.9,39.2,219.8,38.6"/>
<path d="M18,8.3c2.4,0,4.2-2,4.2-4.2c0-2.3-2-4.3-4.2-4.2c-1.9-0.1-4.2,1.4-4.2,4.1C13.8,6.7,15.9,8.3,18,8.3"/>
<path d="M27.4,8.4c2.1,0,4-1.6,4-4c0-2.5-2-4-3.9-4c-2.2,0-4,1.7-4,3.9C23.4,6.6,25.1,8.4,27.4,8.4"/>
<path d="M34.6,13.5c2.1,0,3.8-1.7,3.8-3.8c0-2.1-1.7-3.8-3.8-3.8c-2.1,0-3.8,1.7-3.8,3.8C30.8,11.9,32.5,13.5,34.6,13.5"/>
<path d="M129.6,25.4v5.6c0,3.1,0,6.1,0,9.2c0,0.2,0,0.4,0,0.6c0.9,0,1.8,0,2.7,0V24.9h-2.7V25.4z"/>
<path d="M203.5,40.8c0.4,0.1,2.3,0.1,2.7,0V24.9h-2.7V40.8z"/>
<path d="M177.8,22.2c0.8,0.2,1.5,0.2,2.3,0.1c1.6-0.2,2.7-1.1,3.3-2.5c0.4-0.9,0.5-1.9,0.5-2.9c0-0.8-0.1-1.5-0.3-2.3
	c-0.4-1.4-1.2-2.4-2.5-2.9c-0.7-0.3-1.5-0.3-2.3-0.3c-2,0.1-3.5,1.1-4.1,3c-0.5,1.7-0.5,3.5,0.1,5.2
	C175.3,20.9,176.3,21.8,177.8,22.2 M176,14.8c0.5-1.6,1.7-2.3,3.3-2.2c0.4,0,0.9,0.1,1.2,0.3c1,0.4,1.5,1.2,1.7,2.2
	c0.1,0.6,0.2,1.2,0.2,1.7c0,0.7-0.1,1.4-0.3,2.1c-0.4,1.2-1.2,1.9-2.4,2.1c-0.6,0.1-1.3,0.1-1.9-0.1c-1-0.3-1.6-1.1-1.9-2.1
	C175.7,17.5,175.6,16.1,176,14.8"/>
<path d="M37.5,14c-1.8-0.1-3.4,1.5-3.4,3.4c0,1.9,1.5,3.4,3.4,3.4c1.9,0,3.4-1.5,3.4-3.4C41,15.3,39.2,13.9,37.5,14"/>
<path d="M171.8,6.1C170.7,6.3,170,7,169.7,8c-0.1,0.3-0.2,0.6-0.2,0.9c0,0.7-0.1,1.4-0.1,2.1c0,0.2,0,0.3,0,0.5h-2.1v1.3h2.1v3.1
	c0,1,0,2,0,3.1c0,1,0,2.1,0,3.1c0.5,0,0.9,0.1,1.3,0v-9.3h3v-1.3c-0.5,0-1,0-1.5,0c-0.5,0-1,0-1.5,0c0-0.6,0-1.2,0-1.8
	c0-0.4,0.1-0.8,0.2-1.2c0.2-0.7,0.6-1.1,1.3-1.2c0.5-0.1,1-0.1,1.5,0c0.1,0,0.2,0,0.3,0c0.1-0.4,0.1-0.8,0.2-1.2
	C174,6.1,173.9,6,173.7,6C173.1,5.9,172.4,5.9,171.8,6.1"/>
<path d="M32.6,24.9c0,1.5,1.1,3.1,3.1,3.1c1.7,0,3.1-1.4,3.1-3.1c0-1.7-1.4-3-3.1-3C33.9,21.8,32.6,23.2,32.6,24.9"/>
<path d="M139.4,11.5h-2.6c-0.1,0.4-0.1,10.2,0,10.6h2.6V11.5z"/>
<path d="M198.6,40.8c0.4,0.1,2.3,0.1,2.7,0V30.3h-2.7V40.8z"/>
<path d="M208.3,40.8c0.4,0.1,2.3,0.1,2.7,0V30.3h-2.7V40.8z"/>
<path d="M113.5,30.3c0,0.2,0,0.4,0,0.5v9.4c0,0.1,0,0.2,0,0.3c0,0.3,0,0.3,0.4,0.3c0.7,0,1.4,0,2.1,0c0.1,0,0.2,0,0.2,0
	c0.1-0.5,0.1-10.2,0-10.5H113.5z"/>
<path d="M63.6,40.8c0.9,0,1.8,0,2.7,0V30.3h-2.7V40.8z"/>
<path d="M113.8,11.5c-0.6-0.1-2.3-0.1-2.6,0v10.5c0.9,0,1.8,0,2.7,0C113.9,21.4,113.8,11.8,113.8,11.5"/>
<path d="M28.8,19.8c0-1.8-1.5-2.9-2.9-2.9c-1.5-0.1-2.9,1.2-2.9,2.9c0,1.3,1,2.8,2.9,2.8C27.6,22.6,28.7,21.3,28.8,19.8"/>
<path d="M33,29.6c0.1-1.4-1.2-2.8-2.8-2.8c-1.6,0-2.8,1.2-2.8,2.8c0,1.5,1.3,2.8,2.8,2.8C31.8,32.4,33,31.2,33,29.6"/>
<path d="M186.9,21.6c0-1.9,0-3.7,0-5.6c0-0.3,0-0.7,0.2-1c0.5-1.6,2.3-2.6,3.9-2.2c0.1,0,0.3,0,0.5,0.1c0-0.5,0.1-0.9,0.1-1.3
	c-0.1,0-0.1-0.1-0.2-0.1c-0.1,0-0.2-0.1-0.3-0.1c-1.6-0.2-3,0.3-4,1.6c-0.1,0.1-0.1,0.1-0.2,0.2c0-0.1,0-0.2-0.1-0.3
	c0-0.4-0.1-0.7-0.1-1.1c0-0.2-0.1-0.3-0.2-0.3c-0.3,0-0.6,0-1,0c0.2,3.6,0.1,7.1,0.1,10.6h1.3V21.6z"/>
<path d="M23.7,32.7c1.5,0,2.5-1.2,2.5-2.5c0-1.6-1.3-2.6-2.5-2.5c-1.3-0.1-2.5,1-2.5,2.5C21.2,31.3,22,32.7,23.7,32.7"/>
<path d="M18.5,29.5c1.2,0,2.3-1,2.3-2.2c0-1.3-1-2.3-2.2-2.3c-1.3,0-2.3,1-2.3,2.2C16.2,28.3,17.1,29.5,18.5,29.5"/>
<path d="M14.1,22.3c0,1.1,0.9,2.1,2,2.1c1.2,0,2.1-0.9,2.1-2c0-1.1-0.9-2.1-2-2.1C15.1,20.2,14.1,21.1,14.1,22.3"/>
<path d="M18.7,17.4c0-1-0.7-1.8-1.8-1.8c-1,0-1.7,0.8-1.7,1.7c0,1,0.8,1.7,1.7,1.7C18,19.2,18.7,18.4,18.7,17.4"/>
<path d="M113.4,25.6c0,0.9,0,1.9,0,2.9c0.5,0.1,2.6,0.1,3,0v-2.9C115.9,25.5,113.8,25.5,113.4,25.6"/>
<path d="M208.2,25.6c0,0.9,0,1.9,0,2.9h2.9v-2.9C210.7,25.5,208.5,25.5,208.2,25.6"/>
<path d="M63.5,25.6c0,1,0,1.9,0,2.9h2.9v-2.9C66,25.5,63.8,25.5,63.5,25.6"/>
<path d="M113.9,6.9c-0.4-0.1-2.6-0.1-3,0v2.9h3V6.9z"/>
<path d="M139.5,6.9c-0.4-0.1-2.6-0.1-3,0c0,1,0,1.9,0,2.9h3V6.9z"/>
<path d="M198.5,25.5c-0.1,0.5-0.1,2.6,0,3c0.5,0.1,2.6,0.1,2.9,0c0.1-0.5,0.1-2.6,0-2.9H198.5z"/>
<path d="M21.5,14.3c0-0.8-0.7-1.5-1.5-1.5c-0.9,0-1.5,0.7-1.5,1.5c0,0.9,0.6,1.5,1.5,1.5C20.8,15.8,21.5,15.1,21.5,14.3"/>
<path d="M23.8,14.4c0.7,0,1.2-0.5,1.2-1.2c0-0.6-0.5-1.2-1.2-1.2c-0.6,0-1.2,0.5-1.2,1.2C22.6,13.9,23.1,14.4,23.8,14.4"/>
<path d="M27.9,14.3c0-0.5-0.4-0.9-0.9-0.9c-0.5,0-0.9,0.4-0.9,0.9c0,0.5,0.4,0.9,0.9,0.9C27.5,15.2,27.9,14.7,27.9,14.3"/>
<path d="M29.5,16.3c0-0.4-0.3-0.7-0.7-0.7c-0.4,0-0.7,0.3-0.7,0.7c0,0.4,0.3,0.7,0.7,0.7C29.3,17,29.6,16.7,29.5,16.3"/>
</svg>
