<?xml version="1.0" encoding="utf-8"?>
<!-- Generator: Adobe Illustrator 18.0.0, SVG Export Plug-In . SVG Version: 6.00 Build 0)  -->
<!DOCTYPE svg PUBLIC "-//W3C//DTD SVG 1.1//EN" "http://www.w3.org/Graphics/SVG/1.1/DTD/svg11.dtd">
<svg version="1.1" id="Layer_1" xmlns="http://www.w3.org/2000/svg" xmlns:xlink="http://www.w3.org/1999/xlink" x="0px" y="0px"
     viewBox="0 0 376.2 752.4" enable-background="new 0 0 376.2 752.4" xml:space="preserve">

<g id="Layer_3">
    <g>
        <g>
            <circle fill="#1EB0E6" cx="188.1" cy="564.3" r="188.1"/>
        </g>
        <path fill="#FFFFFF" d="M273.9,534.6c0,2.2,0,3.3,0,5.5c-2.2,55-46.2,117.7-123.2,114.4c-23.1-1.1-45.1-8.8-63.8-20.9
            c3.3,0,6.6,1.1,9.9,1.1c19.8,1.1,37.4-5.5,52.8-15.4c-18.7-1.1-33-14.3-38.5-30.8c2.2,1.1,5.5,1.1,7.7,1.1c3.3,0,7.7,0,11-1.1
            c-18.7-4.4-33-22-31.9-41.8l0,0c5.5,3.3,12.1,5.5,18.7,5.5c-11-7.7-17.6-20.9-17.6-35.2c0-7.7,2.2-14.3,6.6-20.9
            c19.8,26.4,49.5,44,84.7,47.3c-1.1-3.3-1.1-6.6-1.1-9.9c1.1-23.1,20.9-40.7,44-40.7c12.1,0,23.1,5.5,29.7,14.3
            c9.9-1.1,18.7-4.4,27.5-8.8c-3.3,9.9-11,17.6-19.8,22c8.8-1.1,16.5-2.2,24.2-5.5C289.3,522.5,281.6,529.1,273.9,534.6z"/>
    </g>
    <g>
        <g>
            <circle fill="#58BAEA" cx="188.1" cy="188.1" r="188.1"/>
        </g>
        <path fill="#FFFFFF" d="M273.9,158.4c0,2.2,0,3.3,0,5.5c-2.2,55-46.2,117.7-123.2,114.4c-23.1-1.1-45.1-8.8-63.8-20.9
            c3.3,0,6.6,1.1,9.9,1.1c19.8,1.1,37.4-5.5,52.8-15.4c-18.7-1.1-33-14.3-38.5-30.8c2.2,1.1,5.5,1.1,7.7,1.1c3.3,0,7.7,0,11-1.1
            c-18.7-4.4-33-22-31.9-41.8l0,0c5.5,3.3,12.1,5.5,18.7,5.5c-11-7.7-17.6-20.9-17.6-35.2c0-7.7,2.2-14.3,6.6-20.9
            c19.8,26.4,49.5,44,84.7,47.3c-1.1-3.3-1.1-6.6-1.1-9.9c1.1-23.1,20.9-40.7,44-40.7c12.1,0,23.1,5.5,29.7,14.3
            c9.9-1.1,18.7-4.4,27.5-8.8c-3.3,9.9-11,17.6-19.8,22c8.8-1.1,16.5-2.2,24.2-5.5C289.3,146.3,281.6,152.9,273.9,158.4z"/>
    </g>
</g>
</svg>
