<?xml version="1.0" encoding="utf-8"?>
<!-- Generator: Adobe Illustrator 18.0.0, SVG Export Plug-In . SVG Version: 6.00 Build 0)  -->
<!DOCTYPE svg PUBLIC "-//W3C//DTD SVG 1.1//EN" "http://www.w3.org/Graphics/SVG/1.1/DTD/svg11.dtd">
<svg version="1.1" id="Layer_1" xmlns="http://www.w3.org/2000/svg" xmlns:xlink="http://www.w3.org/1999/xlink" x="0px" y="0px"
   viewBox="0 0 376.2 752.4" enable-background="new 0 0 376.2 752.4" xml:space="preserve">
   <g id="Layer_2_1_">
    <g>
        <g>
            <circle fill="#4680C2" cx="188.1" cy="188.1" r="188.1"/>
        </g>
        <path fill="#FFFFFF" d="M237.6,187h-33c0,51.7,0,115.5,0,115.5h-48.4c0,0,0-63.8,0-115.5h-23.1v-40.7h23.1v-26.4
            c0-18.7,8.8-48.4,48.4-48.4h35.2v39.6c0,0-22,0-26.4,0s-9.9,2.2-9.9,11v24.2h36.3L237.6,187z"/>
        </g>
        <g>
            <g>
                <circle fill="#3D5A9B" cx="188.1" cy="564.3" r="188.1"/>
            </g>
            <path fill="#FFFFFF" d="M237.6,563.2h-33c0,51.7,0,115.5,0,115.5h-48.4c0,0,0-63.8,0-115.5h-23.1v-40.7h23.1v-26.4
                c0-18.7,8.8-48.4,48.4-48.4h35.2v39.6c0,0-22,0-26.4,0c-4.4,0-9.9,2.2-9.9,11v24.2h36.3L237.6,563.2z"/>
            </g>
        </g>


    </svg>
