<?xml version="1.0" encoding="utf-8"?>
<!-- Generator: Adobe Illustrator 19.0.0, SVG Export Plug-In . SVG Version: 6.00 Build 0)  -->
<svg version="1.1" id="Layer_1" xmlns="http://www.w3.org/2000/svg" xmlns:xlink="http://www.w3.org/1999/xlink" x="0px" y="0px"
	 viewBox="0 0 36 36" style="enable-background:new 0 0 36 36;" xml:space="preserve">
<style type="text/css">
	.st0{fill:#FFFFFF;}
</style>
<g id="XMLID_14_">
	<path id="XMLID_67_" class="st0" d="M18.1,1.5c0.2,0,0.4,0,0.7,0c9.1,0.4,16.2,8,15.8,17.1c-0.3,8.9-7.6,15.9-16.5,15.9
		c-0.2,0-0.4,0-0.7,0c-4.4-0.2-8.5-2-11.5-5.3C3,26,1.5,21.8,1.6,17.4C2,8.5,9.2,1.5,18.1,1.5 M18.1,0C8.5,0,0.5,7.6,0.1,17.3
		C-0.3,27.2,7.5,35.6,17.4,36c0.2,0,0.5,0,0.7,0c9.6,0,17.6-7.6,18-17.3C36.5,8.8,28.7,0.4,18.8,0C18.6,0,18.3,0,18.1,0L18.1,0z"/>
</g>
<path id="XMLID_13_" class="st0" d="M26.3,15.2c0,0.2,0,0.3,0,0.5c-0.2,5.3-4.5,11.3-11.9,11c-2.3-0.1-4.4-0.8-6.1-2
	c0.3,0,0.6,0.1,1,0.1c1.9,0.1,3.6-0.5,5.1-1.5c-1.8-0.1-3.2-1.3-3.6-2.9c0.2,0.1,0.5,0.1,0.8,0.1c0.4,0,0.7,0,1.1-0.1
	c-1.8-0.4-3.1-2.1-3.1-4.1c0,0,0,0,0-0.1c0.5,0.3,1.1,0.5,1.8,0.6c-1-0.8-1.7-2-1.7-3.4c0-0.7,0.3-1.4,0.6-2
	c1.9,2.5,4.8,4.2,8.1,4.5c-0.1-0.3-0.1-0.6-0.1-0.9c0.1-2.2,2-3.9,4.2-3.9c1.2,0,2.2,0.6,2.9,1.4c0.9-0.1,1.8-0.4,2.6-0.9
	c-0.3,0.9-1,1.7-1.9,2.2c0.8-0.1,1.6-0.3,2.3-0.5C27.8,14,27.1,14.7,26.3,15.2z"/>
</svg>
