<?xml version="1.0" encoding="utf-8"?>
<!-- Generator: Adobe Illustrator 19.0.0, SVG Export Plug-In . SVG Version: 6.00 Build 0)  -->
<svg version="1.1" id="Layer_1" xmlns="http://www.w3.org/2000/svg" xmlns:xlink="http://www.w3.org/1999/xlink" x="0px" y="0px"
	 viewBox="4 67.5 87.7 26.5" style="enable-background:new 4 67.5 87.7 26.5;" xml:space="preserve">
<style type="text/css">
	.st0{fill:#FFFFFF;}
</style>
<g>
	<path class="st0" d="M21.1,84.3L21.1,84.3c0-4.4,3.5-8,8.3-8c4.7,0,8.2,3.5,8.2,7.9v0.1c0,4.4-3.5,7.9-8.3,7.9
		C24.6,92.1,21.1,88.6,21.1,84.3 M33.3,84.3L33.3,84.3c0-2.3-1.6-4.3-4-4.3c-2.5,0-4,1.9-4,4.2v0.1c0,2.2,1.6,4.2,4,4.2
		C31.8,88.4,33.3,86.5,33.3,84.3"/>
	<path class="st0" d="M38.7,76.5H43v3.1c0.9-2.1,2.3-3.2,4.9-3.1v4.3h-0.2c-2.9,0-4.6,1.7-4.6,5.4v5.5h-4.3V76.5H38.7z"/>
	<path class="st0" d="M51,87.5v-7.2h-1.8v-3.8H51v-4.2h4.3v4.2H59v3.7h-3.6v6.5c0,1,0.4,1.5,1.4,1.5c0.8,0,1.5-0.2,2.1-0.5v3.5
		c-0.9,0.5-2,0.9-3.4,0.9C52.8,92.1,51,91,51,87.5"/>
	<path class="st0" d="M59.6,84.3L59.6,84.3c0-4.4,3.1-8,7.5-8c5.1,0,7.4,4,7.4,8.3c0,0.3,0,0.7-0.1,1.1H63.9c0.4,2,1.8,3,3.7,3
		c1.5,0,2.5-0.5,3.7-1.6l2.5,2.2c-1.4,1.8-3.5,2.8-6.2,2.8C62.9,92.1,59.6,88.9,59.6,84.3 M70.3,83c-0.3-1.9-1.4-3.2-3.2-3.2
		c-1.8,0-3,1.3-3.3,3.2H70.3z"/>
	<path class="st0" d="M75.6,84.2L75.6,84.2c0-5.2,3.3-7.9,6.9-7.9c2.3,0,3.7,1.1,4.8,2.3V71h4.3v20.8h-4.3v-2.2
		c-1.1,1.4-2.5,2.5-4.8,2.5C79,92.1,75.6,89.3,75.6,84.2 M87.4,84.2L87.4,84.2c0-2.6-1.7-4.3-3.7-4.3S80,81.6,80,84.1v0.1
		c0,2.5,1.7,4.2,3.7,4.2C85.7,88.4,87.4,86.7,87.4,84.2"/>
	<path class="st0" d="M14.4,80.1v-4.3c1,0.3,2,0.8,3.1,1.6l1.9-3.4c-1.7-1.4-3.7-2.2-6-2.5c-0.5,0.3-1.2,0.6-1.2,0.6
		s-0.8-0.3-1.1-0.6c-3.8,0.2-6.7,2.4-6.7,6v0.1c0,3.5,2.2,4.8,5.6,5.8v4.5c-1.2-0.4-2.3-1.2-3.6-2.2L4,89c1.7,1.6,3.8,2.5,6,3v1.9
		c0.5,0.1,1.2,0.2,1.9,0.2L12,84l0.3,0.1l0.1,10c0.7,0,1.4-0.1,1.9-0.2v-1.8c3.3-0.6,5.6-2.7,5.6-6.1v-0.1
		C20,82.6,18,81.1,14.4,80.1 M8.8,77.2L8.8,77.2c0-0.7,0.5-1.2,1.2-1.5v1.7c0,1,1.2,1.5,2.9,2.3C9.9,78.9,8.8,78.4,8.8,77.2
		 M15.6,86.4c0,0.7-0.4,1.2-1.1,1.6v-3.3C15.3,85.1,15.6,85.5,15.6,86.4L15.6,86.4z"/>
	<path class="st0" d="M13.5,69.1c0-0.3,0-0.6,0-1c0,0-0.5-0.6-1.3-0.6s-1.3,0.6-1.3,0.6c0,0.4,0,0.7,0,1c0,0-0.1,0-0.1,0.1
		c0,0,0,0.1,0.1,0.3c0,0.2,0.1,0.3,0.1,0.3l0,0c0.1,0.9,0.5,1.1,0.5,1.1s0.3,0.3,0.8,0.3C12.7,71.3,13,71,13,71s0.3-0.3,0.5-1.1l0,0
		c0,0,0-0.1,0.1-0.3c0-0.2,0.1-0.3,0.1-0.3C13.6,69.1,13.5,69.1,13.5,69.1"/>
</g>
</svg>
