<?xml version="1.0" encoding="utf-8"?>
<!-- Generator: Adobe Illustrator 19.0.0, SVG Export Plug-In . SVG Version: 6.00 Build 0)  -->
<svg version="1.1" id="Layer_1" xmlns="http://www.w3.org/2000/svg" xmlns:xlink="http://www.w3.org/1999/xlink" x="0px" y="0px"
	 viewBox="0 0 45.4 33.6" style="enable-background:new 0 0 45.4 33.6;" xml:space="preserve">
<style type="text/css">
	.st0{fill:#CE0058;}
</style>
<g>
	<g>
		<path class="st0" d="M45.1,10.4c-0.2-0.3-0.6-0.5-0.9-0.5h-3.9c-1.1-3-1.3-5.9-3-7.1C31.4-1,14-1,8.2,2.9C6.5,4,6.3,6.9,5.1,9.9
			H1.2c-0.4,0-0.7,0.2-0.9,0.5C0.1,10.7,0,11,0,11.4l0,3.3c0.1,0.6,0.6,1,1.2,1h1.4c-1.3,1.5-1,3.2-1,5.2c0,2.4-0.1,4.7,1.6,6.2
			c0,0,0,0,0.1,0v4.6c0,1,0.8,1.8,1.8,1.8h4.3c1,0,1.8-0.8,1.8-1.8v-1.9h23.2v1.9c0,1,0.8,1.8,1.8,1.8h4.3c1,0,1.8-0.8,1.8-1.8v-4.5
			c1.7-1.6,1.7-3.8,1.7-6c0-2,0.2-4-1.2-5.5h1.5c0.6,0,1.1-0.4,1.2-1l0-3.3C45.4,11,45.3,10.7,45.1,10.4z M7.1,23.9
			c-1.3,0-2.4-1.1-2.4-2.4c0-1.3,1.1-2.4,2.4-2.4c1.4,0,2.4,1.1,2.4,2.4C9.6,22.9,8.5,23.9,7.1,23.9z M8.3,11c0.7-2.3,1-4.4,1.9-5
			c4.6-3.1,20.4-3.1,25,0c0.9,0.6,1.2,2.7,1.8,5H8.3z M38.4,23.9c-1.3,0-2.4-1.1-2.4-2.4c0-1.3,1.1-2.4,2.4-2.4
			c1.4,0,2.4,1.1,2.4,2.4C40.8,22.9,39.7,23.9,38.4,23.9z"/>
	</g>
</g>
</svg>
