<?xml version="1.0" encoding="utf-8"?>
<!-- Generator: Adobe Illustrator 19.0.0, SVG Export Plug-In . SVG Version: 6.00 Build 0)  -->
<svg version="1.1" id="icons" xmlns="http://www.w3.org/2000/svg" xmlns:xlink="http://www.w3.org/1999/xlink" x="0px" y="0px"
	 viewBox="0 0 14 18" style="enable-background:new 0 0 14 18;" xml:space="preserve">
<style type="text/css">
	.st0{fill:#B8B8B8;}
</style>
<g>
	<path class="st0" d="M8.9,1.3C8.9,0.6,8.5,0,8,0H6C5.5,0,5.1,0.6,5.1,1.3c0,0,0,0,0,0L8.9,1.3C8.9,1.3,8.9,1.3,8.9,1.3z"/>
	<path class="st0" d="M1.1,16.3c0,1,0.8,1.7,1.8,1.7h8.2c1,0,1.8-0.8,1.8-1.7V4.5H1.1V16.3z M8.6,7.2c0-0.3,0.3-0.6,0.6-0.6
		c0.3,0,0.6,0.3,0.6,0.6v7.7c0,0.3-0.3,0.6-0.6,0.6c-0.3,0-0.6-0.3-0.6-0.6V7.2z M4.2,7.2c0-0.3,0.3-0.6,0.6-0.6
		c0.3,0,0.6,0.3,0.6,0.6v7.7c0,0.3-0.3,0.6-0.6,0.6c-0.3,0-0.6-0.3-0.6-0.6V7.2z"/>
	<path class="st0" d="M11.8,1.2H2.2C1,1.2,0,2.1,0,3.4h14C14,2.1,13,1.2,11.8,1.2z"/>
</g>
</svg>
