<?xml version="1.0" encoding="utf-8"?>
<!-- Generator: Adobe Illustrator 19.0.0, SVG Export Plug-In . SVG Version: 6.00 Build 0)  -->
<svg version="1.1" id="Layer_1" xmlns="http://www.w3.org/2000/svg" xmlns:xlink="http://www.w3.org/1999/xlink" x="0px" y="0px"
	 viewBox="0 0 80 160" style="enable-background:new 0 0 80 160;" xml:space="preserve">
<style type="text/css">
	.st0{fill:#FFF7CC;}
	.st1{fill:#FFD700;}
</style>
<g>
	<g>
		<g id="XMLID_18_">
			<path id="XMLID_27_" class="st0" d="M40,83c20.4,0,37,16.6,37,37s-16.6,37-37,37S3,140.4,3,120S19.6,83,40,83 M40,80
				C17.9,80,0,97.9,0,120s17.9,40,40,40s40-17.9,40-40S62.1,80,40,80L40,80z"/>
		</g>
		<path id="XMLID_17_" class="st1" d="M34,130.9c0,0,2.8,4.5,3.3,5.4c0.5,0.9,6.1-0.6,7.1,1c0,0-1.5-0.1-2.4,0.4
			c0,0,1.4,1.3,1.6,1.9c0,0-1.4-0.2-2.6-0.4c0,0,0.8,1.9,0.5,2.8c0,0-2.5-3.6-4.1-3.6c-1.6,0-2.8-0.5-2.8-1.9s-1.3-4.1-2-4.5
			C32,131.6,33.4,130,34,130.9z"/>
		<path id="XMLID_16_" class="st1" d="M61.5,121.8c-0.7-1.3-0.2-5.7-1.9-8.4c-1.7-2.7-6.4-2.8-9.7-3.2c-3.3-0.4-6.9-3.9-11.5-5.7
			c-2.7-1.1-7.4-1.5-11.7,0.1c1.5,1.6,2.4,3.7,2.4,6c0,4.3-3.2,8-7.6,8.9v0c0,0-1.8,0.4-3.9,0.1c-0.3,0-0.5-0.1-0.7-0.2
			c0.3,5.1,3.4,9.2,6.1,11.3c3.9,3.1,3.9,10,4,12.3c0.1,2.3,2.7,1.7,4.1,1.6c1.4-0.1,3.9,2.7,3.9,2.7c0-0.8-0.6-1.8-0.6-1.8
			c0.3-0.8,4.7,0,4.7,0c-0.1-0.7-3.3-1.9-3.3-1.9c0.5-0.7,2-0.8,2-0.8c-0.9-0.5-2-0.5-4.3-0.1c-2.3,0.4-4.3-1.5-4.8-3.6
			c-0.5-2.1-0.9-9.5,8.1-11.3c9-1.8,11.7-5.1,12.7-5.6c1-0.5,1.7-1.7,4.1,0c2.4,1.7,5.3,1.3,6.5,1.7c1.2,0.4,6.9,7.5,6.9,7.5
			C67.1,129.2,62.2,123.1,61.5,121.8z"/>
		<g>
			<path id="XMLID_15_" class="st1" d="M16,111.4c-0.1-0.3-0.4-0.5-0.7-0.5h-1.5c-0.4,0-0.7,0.3-0.7,0.7l0,0.1
				c0.5,2.3,2.6,4.2,5.1,4.7v-2.8C17.1,113.2,16.2,112.4,16,111.4z"/>
			<path class="st1" d="M20.9,105v-4.1c0.3,0.3,0.6,0.6,0.7,1c0.1,0.3,0.4,0.4,0.7,0.4h1.6c0.4,0,0.7-0.3,0.7-0.6l0-0.2
				c-0.5-1.7-1.9-3.1-3.7-3.6v-1.4c0-0.4-0.4-0.7-0.8-0.7c-0.5,0-0.8,0.3-0.8,0.7v0.2v18.9c0,0.4,0.4,0.7,0.8,0.7c0.1,0,0.1,0,0.1,0
				l0,0c3.1-0.4,5.5-2.8,5.5-5.7C25.7,107.9,23.7,105.6,20.9,105z M20.9,113.4v-5.6c1.1,0.5,1.9,1.6,1.9,2.8
				C22.8,111.8,22,112.9,20.9,113.4z"/>
			<path id="XMLID_9_" class="st1" d="M13.9,102.5c0,2.3,1.8,4.3,4.2,4.8v-2.8c-0.8-0.4-1.3-1.1-1.3-1.9c0-0.8,0.5-1.6,1.3-1.9v-2.8
				C15.7,98.3,13.9,100.2,13.9,102.5z"/>
		</g>
	</g>
	<g>
		<path class="st1" d="M40,0C17.9,0,0,17.9,0,40c0,22.1,17.9,40,40,40s40-17.9,40-40C80,17.9,62.1,0,40,0z M19.3,16.7v-0.2
			c0-0.4,0.4-0.7,0.8-0.7c0.4,0,0.8,0.3,0.8,0.7v1.4c1.8,0.5,3.2,1.8,3.7,3.6l0,0.2c0,0.4-0.3,0.6-0.7,0.6h-1.6
			c-0.3,0-0.6-0.2-0.7-0.4c-0.1-0.4-0.4-0.7-0.7-1V25c2.8,0.7,4.8,2.9,4.8,5.6c0,2.9-2.4,5.3-5.5,5.7l0,0c0,0-0.1,0-0.1,0
			c-0.5,0-0.8-0.3-0.8-0.7V16.7z M18.1,17.8v2.8c-0.8,0.4-1.3,1.1-1.3,1.9c0,0.8,0.5,1.6,1.3,1.9v2.8c-2.4-0.5-4.2-2.4-4.2-4.8
			C13.9,20.2,15.7,18.3,18.1,17.8z M13,31.6l0-0.1c0-0.4,0.3-0.7,0.7-0.7h1.5c0.3,0,0.6,0.2,0.7,0.5c0.3,1,1.1,1.8,2.2,2.2v2.8
			C15.6,35.8,13.5,34,13,31.6z M42,57.7c0,0,1.4,1.3,1.6,1.9c0,0-1.4-0.2-2.6-0.4c0,0,0.8,1.9,0.5,2.8c0,0-2.5-3.6-4.1-3.6
			c-1.6,0-2.8-0.5-2.8-1.9s-1.3-4.1-2-4.5C32,51.6,33.4,50,34,50.9c0,0,2.8,4.5,3.3,5.4c0.5,0.9,6.1-0.6,7.1,1
			C44.4,57.3,42.9,57.3,42,57.7z M60.1,43.9c-1.2-0.4-4.1,0-6.5-1.7c-2.4-1.7-3.1-0.5-4.1,0c-1,0.5-3.7,3.8-12.7,5.6
			c-9,1.8-8.6,9.2-8.1,11.3c0.5,2.1,2.5,4,4.8,3.6c2.3-0.4,3.4-0.5,4.3,0.1c0,0-1.5,0.1-2,0.8c0,0,3.2,1.2,3.3,1.9
			c0,0-4.4-0.8-4.7,0c0,0,0.6,1,0.6,1.8c0,0-2.5-2.8-3.9-2.7c-1.4,0.1-4,0.7-4.1-1.6c-0.1-2.3-0.1-9.2-4-12.3
			c-2.6-2.1-5.8-6.2-6.1-11.3c0.2,0.1,0.5,0.1,0.7,0.2c2,0.4,3.9-0.1,3.9-0.1v0c4.4-0.9,7.6-4.6,7.6-8.9c0-2.3-0.9-4.4-2.4-6
			c4.4-1.6,9.1-1.2,11.7-0.1c4.6,1.8,8.2,5.3,11.5,5.7c3.3,0.4,8,0.5,9.7,3.2c1.7,2.7,1.2,7.1,1.9,8.4c0.7,1.3,5.6,7.4,5.5,9.6
			C67,51.4,61.3,44.3,60.1,43.9z"/>
		<path id="XMLID_1_" class="st1" d="M22.8,30.6c0-1.2-0.8-2.3-1.9-2.8v5.6C22,32.9,22.8,31.8,22.8,30.6z"/>
	</g>
</g>
</svg>
