<?xml version="1.0" encoding="utf-8"?>
<!-- Generator: Adobe Illustrator 19.0.0, SVG Export Plug-In . SVG Version: 6.00 Build 0)  -->
<svg version="1.1" id="Layer_1" xmlns="http://www.w3.org/2000/svg" xmlns:xlink="http://www.w3.org/1999/xlink" x="0px" y="0px"
	 viewBox="0 0 42.7 36.3" style="enable-background:new 0 0 42.7 36.3;" xml:space="preserve">
<style type="text/css">
	.st0{fill:#F3D1E9;}
	.st1{clip-path:url(#XMLID_54_);}
	.st2{fill:#CE0058;}
</style>
<g id="XMLID_200_">
	<g id="XMLID_209_">
		<path id="XMLID_212_" class="st0" d="M40.2,0H2.5C1.1,0,0,1.1,0,2.5v24.8c0,1.4,1.1,2.5,2.5,2.5h37.7c1.4,0,2.5-1.1,2.5-2.5V2.5
			C42.7,1.1,41.6,0,40.2,0z M39.4,24.8c0,0.1-0.1,0.2-0.2,0.2H3.5c-0.1,0-0.2-0.1-0.2-0.2V2.5c0-0.1,0.1-0.2,0.2-0.2h35.7
			c0.1,0,0.2,0.1,0.2,0.2V24.8z"/>
		<path id="XMLID_210_" class="st0" d="M36.5,34.9h-9.9c0-0.1,0-0.2,0-0.2v-1.3c0-0.9-0.7-1.7-1.7-1.7h-7.4c-0.9,0-1.7,0.8-1.7,1.7
			v1.3c0,0.1,0,0.2,0,0.2H6.4c-0.3,0-1-0.1-1.4,0.5L4,36.3c0,0,0.9,0,1.6,0h0.5h9.5c0,0,0,0,0.1,0h11.1c0,0,0,0,0.1,0h9.5h0.5
			c0.6,0,1.6,0,1.6,0l-1-1C37.2,35.1,36.7,34.9,36.5,34.9z"/>
	</g>
	<g id="XMLID_201_">
		<defs>
			<rect id="XMLID_97_" x="-1.4" y="18.1" width="45.8" height="20.5"/>
		</defs>
		<clipPath id="XMLID_54_">
			<use xlink:href="#XMLID_97_"  style="overflow:visible;"/>
		</clipPath>
		<g id="XMLID_203_" class="st1">
			<path id="XMLID_206_" class="st2" d="M40.2,0H2.5C1.1,0,0,1.1,0,2.5v24.8c0,1.4,1.1,2.5,2.5,2.5h37.7c1.4,0,2.5-1.1,2.5-2.5V2.5
				C42.7,1.1,41.6,0,40.2,0z M39.4,24.8c0,0.1-0.1,0.2-0.2,0.2H3.5c-0.1,0-0.2-0.1-0.2-0.2V2.5c0-0.1,0.1-0.2,0.2-0.2h35.7
				c0.1,0,0.2,0.1,0.2,0.2V24.8z"/>
			<path id="XMLID_204_" class="st2" d="M36.5,34.9h-9.9c0-0.1,0-0.2,0-0.2v-1.3c0-0.9-0.7-1.7-1.7-1.7h-7.4c-0.9,0-1.7,0.8-1.7,1.7
				v1.3c0,0.1,0,0.2,0,0.2H6.4c-0.3,0-1-0.1-1.4,0.5L4,36.3c0,0,0.9,0,1.6,0h0.5h9.5c0,0,0,0,0.1,0h11.1c0,0,0,0,0.1,0h9.5h0.5
				c0.6,0,1.6,0,1.6,0l-1-1C37.2,35.1,36.7,34.9,36.5,34.9z"/>
		</g>
	</g>
</g>
</svg>
