<?xml version="1.0" encoding="utf-8"?>
<!-- Generator: Adobe Illustrator 19.0.0, SVG Export Plug-In . SVG Version: 6.00 Build 0)  -->
<svg version="1.1" id="Layer_1" xmlns="http://www.w3.org/2000/svg" xmlns:xlink="http://www.w3.org/1999/xlink" x="0px" y="0px"
	 viewBox="0 0 30.3 39.2" style="enable-background:new 0 0 30.3 39.2;" xml:space="preserve">
<style type="text/css">
	.st0{fill:#F3D1E9;}
	.st1{clip-path:url(#XMLID_54_);}
	.st2{fill:#CE0058;}
</style>
<g>
	<g>
		<path class="st0" d="M9.5,0H21c1.5,0,1.9,1.3,0.8,2.8l-2.3,4.1h-8.3L8.7,2.8C7.7,1.3,8,0,9.5,0z"/>
		<path class="st0" d="M10.8,8.5c0,0-10.7,10.2-10.6,17.5C0.3,33.2,4,39.2,15.5,39.2S30.3,31,30.3,26.5c0-8.4-10.7-18-10.7-18
			L10.8,8.5z"/>
	</g>
	<g>
		<defs>
			<rect id="XMLID_108_" x="-1.5" y="34.8" width="33.1" height="8.3"/>
		</defs>
		<clipPath id="XMLID_54_">
			<use xlink:href="#XMLID_108_"  style="overflow:visible;"/>
		</clipPath>
		<g class="st1">
			<path class="st2" d="M9.5,0H21c1.5,0,1.9,1.3,0.8,2.8l-2.3,4.1h-8.3L8.7,2.8C7.7,1.3,8,0,9.5,0z"/>
			<path class="st2" d="M10.8,8.5c0,0-10.7,10.2-10.6,17.5C0.3,33.2,4,39.2,15.5,39.2S30.3,31,30.3,26.5c0-8.4-10.7-18-10.7-18
				L10.8,8.5z"/>
		</g>
	</g>
</g>
</svg>
