<?xml version="1.0" encoding="utf-8"?>
<!-- Generator: Adobe Illustrator 19.0.0, SVG Export Plug-In . SVG Version: 6.00 Build 0)  -->
<svg version="1.1" id="Layer_1" xmlns="http://www.w3.org/2000/svg" xmlns:xlink="http://www.w3.org/1999/xlink" x="0px" y="0px"
	 viewBox="0 0 50.9 42.1" style="enable-background:new 0 0 50.9 42.1;" xml:space="preserve">
<style type="text/css">
	.st0{fill:#704C99;}
	.st1{clip-path:url(#XMLID_37_);}
	.st2{fill:#B09DC7;}
	.st3{fill:#CE0058;}
</style>
<g>
	<g>
		<path id="XMLID_35_" class="st0" d="M14.6,4.3c0-1-0.8-1.9-1.8-1.9H9.2c-1,0-1.9,0.8-1.9,1.9v6.2L14.6,5V4.3z"/>
		<path id="XMLID_34_" class="st0" d="M27.1,0.5c0,0,0.1,0.1,0.1,0.1c0,0,0,0,0,0C27.2,0.5,27.2,0.5,27.1,0.5z"/>
		<path id="XMLID_33_" class="st0" d="M49.8,17.7L27.3,0.6c0,0-0.1,0-0.1-0.1C26.7,0.2,26.1,0,25.5,0c-0.7,0-1.3,0.2-1.8,0.6
			c0,0-0.1,0-0.1,0.1L1.1,17.7c-0.7,0.5-0.8,1.5-0.3,2.2c0.5,0.7,1.5,0.8,2.2,0.3L24.7,3.8c0,0,0,0,0,0c0.2-0.1,0.4-0.2,0.7-0.2
			c0.2,0,0.5,0.1,0.7,0.2c0,0,0,0,0,0l21.7,16.5c0.7,0.5,1.7,0.4,2.3-0.3C50.7,19.3,50.5,18.2,49.8,17.7z"/>
		<path id="XMLID_32_" class="st0" d="M43.2,20.9L26.1,8c0,0,0,0,0,0c-0.2-0.1-0.4-0.2-0.7-0.2c-0.2,0-0.5,0.1-0.7,0.2c0,0,0,0,0,0
			l-17,12.9c-0.4,0.3-0.6,0.7-0.6,1.1v15.3c0,2.6,2.1,4.8,4.8,4.8h8.3v-8.6c0-1.2,1-2.1,2.1-2.1h5.8c1.2,0,2.1,1,2.1,2.1v8.6H39
			c2.6,0,4.8-2.1,4.8-4.8V22C43.7,21.6,43.5,21.2,43.2,20.9z"/>
	</g>
	<g>
		<defs>
			<rect id="XMLID_27_" x="0" y="-11.3" width="50.9" height="28.1"/>
		</defs>
		<clipPath id="XMLID_37_">
			<use xlink:href="#XMLID_27_"  style="overflow:visible;"/>
		</clipPath>
		<g class="st1">
			<path id="XMLID_31_" class="st2" d="M14.6,4.3c0-1-0.8-1.9-1.8-1.9H9.2c-1,0-1.9,0.8-1.9,1.9v6.2L14.6,5V4.3z"/>
			<path id="XMLID_30_" class="st2" d="M49.8,17.7L27.3,0.6c0,0-0.1,0-0.1-0.1C26.7,0.2,26.1,0,25.5,0c-0.7,0-1.3,0.2-1.8,0.6
				c0,0-0.1,0-0.1,0.1L1.1,17.7c-0.7,0.5-0.8,1.5-0.3,2.2c0.5,0.7,1.5,0.8,2.2,0.3L24.7,3.8c0,0,0,0,0,0c0.2-0.1,0.4-0.2,0.7-0.2
				c0.2,0,0.5,0.1,0.7,0.2c0,0,0,0,0,0l21.7,16.5c0.7,0.5,1.7,0.4,2.3-0.3C50.7,19.3,50.5,18.2,49.8,17.7z"/>
			<path id="XMLID_29_" class="st3" d="M27.1,0.5c0,0,0.1,0.1,0.1,0.1c0,0,0,0,0,0C27.2,0.5,27.2,0.5,27.1,0.5z"/>
			<path id="XMLID_28_" class="st2" d="M43.2,20.9L26.1,8c0,0,0,0,0,0c-0.2-0.1-0.4-0.2-0.7-0.2c-0.2,0-0.5,0.1-0.7,0.2c0,0,0,0,0,0
				l-17,12.9c-0.4,0.3-0.6,0.7-0.6,1.1v15.3c0,2.6,2.1,4.8,4.8,4.8h8.3v-8.6c0-1.2,1-2.1,2.1-2.1h5.8c1.2,0,2.1,1,2.1,2.1v8.6H39
				c2.6,0,4.8-2.1,4.8-4.8V22C43.7,21.6,43.5,21.2,43.2,20.9z"/>
		</g>
	</g>
</g>
</svg>
