<?xml version="1.0" encoding="utf-8"?>
<!-- Generator: Adobe Illustrator 19.0.0, SVG Export Plug-In . SVG Version: 6.00 Build 0)  -->
<svg version="1.1" id="Layer_1" xmlns="http://www.w3.org/2000/svg" xmlns:xlink="http://www.w3.org/1999/xlink" x="0px" y="0px"
	 viewBox="0 0 50.9 42.1" style="enable-background:new 0 0 50.9 42.1;" xml:space="preserve">
<style type="text/css">
	.st0{fill:#704C99;}
</style>
<g>
	<g>
		<path id="XMLID_29_" class="st0" d="M14.6,4.3c0-1-0.8-1.9-1.8-1.9H9.2c-1,0-1.9,0.8-1.9,1.9v6.2L14.6,5V4.3z"/>
		<path id="XMLID_28_" class="st0" d="M49.8,17.7L27.3,0.6c-0.1,0-0.1-0.1-0.2-0.1c0.1,0,0.1,0.1,0.2,0.1C26.7,0.2,26.1,0,25.4,0
			c-0.7,0-1.3,0.2-1.8,0.6c0,0-0.1,0-0.1,0.1L1.1,17.7c-0.7,0.5-0.8,1.5-0.3,2.2c0.5,0.7,1.5,0.8,2.2,0.3L24.7,3.8c0,0,0,0,0,0
			c0.2-0.1,0.4-0.2,0.7-0.2c0.2,0,0.5,0.1,0.7,0.2c0,0,0,0,0,0l21.7,16.5c0.7,0.5,1.7,0.4,2.3-0.3C50.6,19.3,50.5,18.2,49.8,17.7z"
			/>
		<path id="XMLID_27_" class="st0" d="M26.1,8C26.1,8,26.1,8,26.1,8c-0.2-0.2-0.4-0.2-0.7-0.2c-0.2,0-0.5,0.1-0.7,0.2c0,0,0,0,0,0
			l-17,12.9c-0.4,0.3-0.6,0.7-0.6,1.1v15.3c0,2.6,2.1,4.8,4.8,4.8h8.3v-8.6c0-1.2,1-2.1,2.1-2.1h5.8c1.2,0,2.1,1,2.1,2.1v8.6h8.7
			c2.6,0,4.8-2.1,4.8-4.8V22c0-0.4-0.2-0.8-0.6-1.1L26.1,8z"/>
	</g>
</g>
</svg>
